<?xml version="1.0" encoding="UTF-8" standalone="no"?>
<!DOCTYPE svg PUBLIC "-//W3C//DTD SVG 1.1//EN"
 "http://www.w3.org/Graphics/SVG/1.1/DTD/svg11.dtd">
<!-- Generated by graphviz version 12.1.2 (20240928.0832)
 -->
<!-- Title: public.patient_insurance_details Pages: 1 -->
<svg width="838pt" height="3594pt"
 viewBox="0.00 0.00 837.66 3593.60" xmlns="http://www.w3.org/2000/svg" xmlns:xlink="http://www.w3.org/1999/xlink">
<g id="graph0" class="graph" transform="scale(1 1) rotate(0) translate(4 3589.6)">
<title>public.patient_insurance_details</title>
<polygon fill="white" stroke="none" points="-4,4 -4,-3589.6 833.66,-3589.6 833.66,4 -4,4"/>
<!-- public.patient_insurance_details -->
<g id="node1" class="node">
<title>public.patient_insurance_details</title>
<polygon fill="#efefef" stroke="none" points="46.2,-1559.4 46.2,-1595 417.12,-1595 417.12,-1559.4 46.2,-1559.4"/>
<polygon fill="none" stroke="black" points="46.2,-1559.4 46.2,-1595 417.12,-1595 417.12,-1559.4 46.2,-1559.4"/>
<text text-anchor="start" x="53.2" y="-1572.8" font-family="Arial Bold" font-size="18.00">public.patient_insurance_details</text>
<text text-anchor="start" x="285.63" y="-1572.8" font-family="Arial" font-size="14.00">    </text>
<text text-anchor="start" x="316.74" y="-1572.8" font-family="Arial" font-size="14.00" fill="#666666">[BASE TABLE]</text>
<polygon fill="none" stroke="black" points="46.2,-1528.6 46.2,-1559.4 417.12,-1559.4 417.12,-1528.6 46.2,-1528.6"/>
<text text-anchor="start" x="53.2" y="-1540.8" font-family="Arial" font-size="14.00">id </text>
<text text-anchor="start" x="67.99" y="-1540.8" font-family="Arial" font-size="14.00" fill="#666666">[bigint]</text>
<polygon fill="none" stroke="black" points="46.2,-1497.8 46.2,-1528.6 417.12,-1528.6 417.12,-1497.8 46.2,-1497.8"/>
<text text-anchor="start" x="53.2" y="-1510" font-family="Arial" font-size="14.00">patient_id </text>
<text text-anchor="start" x="117.81" y="-1510" font-family="Arial" font-size="14.00" fill="#666666">[bigint]</text>
<polygon fill="none" stroke="black" points="46.2,-1467 46.2,-1497.8 417.12,-1497.8 417.12,-1467 46.2,-1467"/>
<text text-anchor="start" x="53.2" y="-1479.2" font-family="Arial" font-size="14.00">insurance_name </text>
<text text-anchor="start" x="160.6" y="-1479.2" font-family="Arial" font-size="14.00" fill="#666666">[varchar(255)]</text>
<polygon fill="none" stroke="black" points="46.2,-1436.2 46.2,-1467 417.12,-1467 417.12,-1436.2 46.2,-1436.2"/>
<text text-anchor="start" x="53.2" y="-1448.4" font-family="Arial" font-size="14.00">insurance_number </text>
<text text-anchor="start" x="173.05" y="-1448.4" font-family="Arial" font-size="14.00" fill="#666666">[varchar(255)]</text>
<polygon fill="none" stroke="black" points="46.2,-1405.4 46.2,-1436.2 417.12,-1436.2 417.12,-1405.4 46.2,-1405.4"/>
<text text-anchor="start" x="53.2" y="-1417.6" font-family="Arial" font-size="14.00">insurance_coverage_date </text>
<text text-anchor="start" x="218.21" y="-1417.6" font-family="Arial" font-size="14.00" fill="#666666">[date]</text>
<polygon fill="none" stroke="black" points="46.2,-1374.6 46.2,-1405.4 417.12,-1405.4 417.12,-1374.6 46.2,-1374.6"/>
<text text-anchor="start" x="53.2" y="-1386.8" font-family="Arial" font-size="14.00">insurance_card_copy </text>
<text text-anchor="start" x="190.17" y="-1386.8" font-family="Arial" font-size="14.00" fill="#666666">[varchar(255)]</text>
<polygon fill="none" stroke="black" points="46.2,-1343.8 46.2,-1374.6 417.12,-1374.6 417.12,-1343.8 46.2,-1343.8"/>
<text text-anchor="start" x="53.2" y="-1356" font-family="Arial" font-size="14.00">identity_card_copy </text>
<text text-anchor="start" x="173.83" y="-1356" font-family="Arial" font-size="14.00" fill="#666666">[varchar(255)]</text>
<polygon fill="none" stroke="black" points="46.2,-1313 46.2,-1343.8 417.12,-1343.8 417.12,-1313 46.2,-1313"/>
<text text-anchor="start" x="53.2" y="-1325.2" font-family="Arial" font-size="14.00">created_at </text>
<text text-anchor="start" x="123.25" y="-1325.2" font-family="Arial" font-size="14.00" fill="#666666">[timestamp(0) without time zone]</text>
<polygon fill="none" stroke="black" points="46.2,-1282.2 46.2,-1313 417.12,-1313 417.12,-1282.2 46.2,-1282.2"/>
<text text-anchor="start" x="53.2" y="-1294.4" font-family="Arial" font-size="14.00">updated_at </text>
<text text-anchor="start" x="127.16" y="-1294.4" font-family="Arial" font-size="14.00" fill="#666666">[timestamp(0) without time zone]</text>
<polygon fill="none" stroke="black" points="46.2,-1251.4 46.2,-1282.2 417.12,-1282.2 417.12,-1251.4 46.2,-1251.4"/>
<text text-anchor="start" x="53.2" y="-1263.6" font-family="Arial" font-size="14.00">insurance_card_back_copy </text>
<text text-anchor="start" x="227.53" y="-1263.6" font-family="Arial" font-size="14.00" fill="#666666">[varchar(255)]</text>
<polygon fill="none" stroke="black" points="46.2,-1220.6 46.2,-1251.4 417.12,-1251.4 417.12,-1220.6 46.2,-1220.6"/>
<text text-anchor="start" x="53.2" y="-1232.8" font-family="Arial" font-size="14.00">identity_card_back_copy </text>
<text text-anchor="start" x="211.19" y="-1232.8" font-family="Arial" font-size="14.00" fill="#666666">[varchar(255)]</text>
<polygon fill="none" stroke="black" points="46.2,-1189.8 46.2,-1220.6 417.12,-1220.6 417.12,-1189.8 46.2,-1189.8"/>
<text text-anchor="start" x="53.2" y="-1202" font-family="Arial" font-size="14.00">bank_account_name </text>
<text text-anchor="start" x="187.07" y="-1202" font-family="Arial" font-size="14.00" fill="#666666">[varchar(255)]</text>
<polygon fill="none" stroke="black" points="46.2,-1159 46.2,-1189.8 417.12,-1189.8 417.12,-1159 46.2,-1159"/>
<text text-anchor="start" x="53.2" y="-1171.2" font-family="Arial" font-size="14.00">bank_name </text>
<text text-anchor="start" x="130.25" y="-1171.2" font-family="Arial" font-size="14.00" fill="#666666">[varchar(255)]</text>
<polygon fill="none" stroke="black" points="46.2,-1128.2 46.2,-1159 417.12,-1159 417.12,-1128.2 46.2,-1128.2"/>
<text text-anchor="start" x="53.2" y="-1140.4" font-family="Arial" font-size="14.00">bank_account_number </text>
<text text-anchor="start" x="199.52" y="-1140.4" font-family="Arial" font-size="14.00" fill="#666666">[varchar(255)]</text>
<polygon fill="none" stroke="black" points="46.2,-1097.4 46.2,-1128.2 417.12,-1128.2 417.12,-1097.4 46.2,-1097.4"/>
<text text-anchor="start" x="53.2" y="-1109.6" font-family="Arial" font-size="14.00">insurance_valid_from_date </text>
<text text-anchor="start" x="225.19" y="-1109.6" font-family="Arial" font-size="14.00" fill="#666666">[date]</text>
<polygon fill="none" stroke="black" stroke-width="3" points="44.7,-1095.9 44.7,-1596.5 418.62,-1596.5 418.62,-1095.9 44.7,-1095.9"/>
</g>
<!-- public.patients -->
<g id="node3" class="node">
<title>public.patients</title>
<polygon fill="#efefef" stroke="none" points="84.96,-936.4 84.96,-972 378.36,-972 378.36,-936.4 84.96,-936.4"/>
<polygon fill="none" stroke="black" points="84.96,-936.4 84.96,-972 378.36,-972 378.36,-936.4 84.96,-936.4"/>
<text text-anchor="start" x="116.67" y="-949.8" font-family="Arial Bold" font-size="18.00">public.patients</text>
<text text-anchor="start" x="222.15" y="-949.8" font-family="Arial" font-size="14.00">    </text>
<text text-anchor="start" x="253.27" y="-949.8" font-family="Arial" font-size="14.00" fill="#666666">[BASE TABLE]</text>
<polygon fill="none" stroke="black" points="84.96,-905.6 84.96,-936.4 378.36,-936.4 378.36,-905.6 84.96,-905.6"/>
<text text-anchor="start" x="91.96" y="-917.8" font-family="Arial" font-size="14.00">id </text>
<text text-anchor="start" x="106.74" y="-917.8" font-family="Arial" font-size="14.00" fill="#666666">[bigint]</text>
<polygon fill="none" stroke="black" points="84.96,-874.8 84.96,-905.6 378.36,-905.6 378.36,-874.8 84.96,-874.8"/>
<text text-anchor="start" x="91.96" y="-887" font-family="Arial" font-size="14.00">code </text>
<text text-anchor="start" x="126.21" y="-887" font-family="Arial" font-size="14.00" fill="#666666">[varchar(100)]</text>
<polygon fill="none" stroke="black" points="84.96,-844 84.96,-874.8 378.36,-874.8 378.36,-844 84.96,-844"/>
<text text-anchor="start" x="91.96" y="-856.2" font-family="Arial" font-size="14.00">lis_patient_code </text>
<text text-anchor="start" x="197.03" y="-856.2" font-family="Arial" font-size="14.00" fill="#666666">[varchar(255)]</text>
<polygon fill="none" stroke="black" points="84.96,-813.2 84.96,-844 378.36,-844 378.36,-813.2 84.96,-813.2"/>
<text text-anchor="start" x="91.96" y="-825.4" font-family="Arial" font-size="14.00">client_patient_code </text>
<text text-anchor="start" x="216.5" y="-825.4" font-family="Arial" font-size="14.00" fill="#666666">[varchar(255)]</text>
<polygon fill="none" stroke="black" points="84.96,-782.4 84.96,-813.2 378.36,-813.2 378.36,-782.4 84.96,-782.4"/>
<text text-anchor="start" x="91.96" y="-794.6" font-family="Arial" font-size="14.00">full_name </text>
<text text-anchor="start" x="156.55" y="-794.6" font-family="Arial" font-size="14.00" fill="#666666">[varchar(255)]</text>
<polygon fill="none" stroke="black" points="84.96,-751.6 84.96,-782.4 378.36,-782.4 378.36,-751.6 84.96,-751.6"/>
<text text-anchor="start" x="91.96" y="-763.8" font-family="Arial" font-size="14.00">gender </text>
<text text-anchor="start" x="139.44" y="-763.8" font-family="Arial" font-size="14.00" fill="#666666">[varchar(20)]</text>
<polygon fill="none" stroke="black" points="84.96,-720.8 84.96,-751.6 378.36,-751.6 378.36,-720.8 84.96,-720.8"/>
<text text-anchor="start" x="91.96" y="-733" font-family="Arial" font-size="14.00">marital_status </text>
<text text-anchor="start" x="182.99" y="-733" font-family="Arial" font-size="14.00" fill="#666666">[varchar(20)]</text>
<polygon fill="none" stroke="black" points="84.96,-690 84.96,-720.8 378.36,-720.8 378.36,-690 84.96,-690"/>
<text text-anchor="start" x="91.96" y="-702.2" font-family="Arial" font-size="14.00">dob </text>
<text text-anchor="start" x="119.21" y="-702.2" font-family="Arial" font-size="14.00" fill="#666666">[date]</text>
<polygon fill="none" stroke="black" points="84.96,-659.2 84.96,-690 378.36,-690 378.36,-659.2 84.96,-659.2"/>
<text text-anchor="start" x="91.96" y="-671.4" font-family="Arial" font-size="14.00">phone_number </text>
<text text-anchor="start" x="190.03" y="-671.4" font-family="Arial" font-size="14.00" fill="#666666">[varchar(20)]</text>
<polygon fill="none" stroke="black" points="84.96,-628.4 84.96,-659.2 378.36,-659.2 378.36,-628.4 84.96,-628.4"/>
<text text-anchor="start" x="91.96" y="-640.6" font-family="Arial" font-size="14.00">email </text>
<text text-anchor="start" x="129.3" y="-640.6" font-family="Arial" font-size="14.00" fill="#666666">[varchar(255)]</text>
<polygon fill="none" stroke="black" points="84.96,-597.6 84.96,-628.4 378.36,-628.4 378.36,-597.6 84.96,-597.6"/>
<text text-anchor="start" x="91.96" y="-609.8" font-family="Arial" font-size="14.00">address </text>
<text text-anchor="start" x="145.66" y="-609.8" font-family="Arial" font-size="14.00" fill="#666666">[varchar(255)]</text>
<polygon fill="none" stroke="black" points="84.96,-566.8 84.96,-597.6 378.36,-597.6 378.36,-566.8 84.96,-566.8"/>
<text text-anchor="start" x="91.96" y="-579" font-family="Arial" font-size="14.00">ward </text>
<text text-anchor="start" x="126.19" y="-579" font-family="Arial" font-size="14.00" fill="#666666">[varchar(255)]</text>
<polygon fill="none" stroke="black" points="84.96,-536 84.96,-566.8 378.36,-566.8 378.36,-536 84.96,-536"/>
<text text-anchor="start" x="91.96" y="-548.2" font-family="Arial" font-size="14.00">district </text>
<text text-anchor="start" x="136.3" y="-548.2" font-family="Arial" font-size="14.00" fill="#666666">[varchar(255)]</text>
<polygon fill="none" stroke="black" points="84.96,-505.2 84.96,-536 378.36,-536 378.36,-505.2 84.96,-505.2"/>
<text text-anchor="start" x="91.96" y="-517.4" font-family="Arial" font-size="14.00">city </text>
<text text-anchor="start" x="116.85" y="-517.4" font-family="Arial" font-size="14.00" fill="#666666">[varchar(100)]</text>
<polygon fill="none" stroke="black" points="84.96,-474.4 84.96,-505.2 378.36,-505.2 378.36,-474.4 84.96,-474.4"/>
<text text-anchor="start" x="91.96" y="-486.6" font-family="Arial" font-size="14.00">country </text>
<text text-anchor="start" x="141.76" y="-486.6" font-family="Arial" font-size="14.00" fill="#666666">[varchar(60)]</text>
<polygon fill="none" stroke="black" points="84.96,-443.6 84.96,-474.4 378.36,-474.4 378.36,-443.6 84.96,-443.6"/>
<text text-anchor="start" x="91.96" y="-455.8" font-family="Arial" font-size="14.00">nationality </text>
<text text-anchor="start" x="158.89" y="-455.8" font-family="Arial" font-size="14.00" fill="#666666">[varchar(60)]</text>
<polygon fill="none" stroke="black" points="84.96,-412.8 84.96,-443.6 378.36,-443.6 378.36,-412.8 84.96,-412.8"/>
<text text-anchor="start" x="91.96" y="-425" font-family="Arial" font-size="14.00">id_number_type </text>
<text text-anchor="start" x="196.25" y="-425" font-family="Arial" font-size="14.00" fill="#666666">[varchar(20)]</text>
<polygon fill="none" stroke="black" points="84.96,-382 84.96,-412.8 378.36,-412.8 378.36,-382 84.96,-382"/>
<text text-anchor="start" x="91.96" y="-394.2" font-family="Arial" font-size="14.00">id_number </text>
<text text-anchor="start" x="162" y="-394.2" font-family="Arial" font-size="14.00" fill="#666666">[varchar(255)]</text>
<polygon fill="none" stroke="black" points="84.96,-351.2 84.96,-382 378.36,-382 378.36,-351.2 84.96,-351.2"/>
<text text-anchor="start" x="91.96" y="-363.4" font-family="Arial" font-size="14.00">created_at </text>
<text text-anchor="start" x="162.01" y="-363.4" font-family="Arial" font-size="14.00" fill="#666666">[timestamp(0) without time zone]</text>
<polygon fill="none" stroke="black" points="84.96,-320.4 84.96,-351.2 378.36,-351.2 378.36,-320.4 84.96,-320.4"/>
<text text-anchor="start" x="91.96" y="-332.6" font-family="Arial" font-size="14.00">updated_at </text>
<text text-anchor="start" x="165.92" y="-332.6" font-family="Arial" font-size="14.00" fill="#666666">[timestamp(0) without time zone]</text>
<polygon fill="none" stroke="black" points="84.96,-289.6 84.96,-320.4 378.36,-320.4 378.36,-289.6 84.96,-289.6"/>
<text text-anchor="start" x="91.96" y="-301.8" font-family="Arial" font-size="14.00">city_code </text>
<text text-anchor="start" x="154.99" y="-301.8" font-family="Arial" font-size="14.00" fill="#666666">[varchar(100)]</text>
<polygon fill="none" stroke="black" points="84.96,-258.8 84.96,-289.6 378.36,-289.6 378.36,-258.8 84.96,-258.8"/>
<text text-anchor="start" x="91.96" y="-271" font-family="Arial" font-size="14.00">district_code </text>
<text text-anchor="start" x="174.44" y="-271" font-family="Arial" font-size="14.00" fill="#666666">[varchar(100)]</text>
<polygon fill="none" stroke="black" points="84.96,-228 84.96,-258.8 378.36,-258.8 378.36,-228 84.96,-228"/>
<text text-anchor="start" x="91.96" y="-240.2" font-family="Arial" font-size="14.00">ward_code </text>
<text text-anchor="start" x="164.34" y="-240.2" font-family="Arial" font-size="14.00" fill="#666666">[varchar(100)]</text>
<polygon fill="none" stroke="black" points="84.96,-197.2 84.96,-228 378.36,-228 378.36,-197.2 84.96,-197.2"/>
<text text-anchor="start" x="91.96" y="-209.4" font-family="Arial" font-size="14.00">bank_account_name </text>
<text text-anchor="start" x="225.83" y="-209.4" font-family="Arial" font-size="14.00" fill="#666666">[varchar(255)]</text>
<polygon fill="none" stroke="black" points="84.96,-166.4 84.96,-197.2 378.36,-197.2 378.36,-166.4 84.96,-166.4"/>
<text text-anchor="start" x="91.96" y="-178.6" font-family="Arial" font-size="14.00">bank_name </text>
<text text-anchor="start" x="169.01" y="-178.6" font-family="Arial" font-size="14.00" fill="#666666">[varchar(255)]</text>
<polygon fill="none" stroke="black" points="84.96,-135.6 84.96,-166.4 378.36,-166.4 378.36,-135.6 84.96,-135.6"/>
<text text-anchor="start" x="91.96" y="-147.8" font-family="Arial" font-size="14.00">bank_account_number </text>
<text text-anchor="start" x="238.28" y="-147.8" font-family="Arial" font-size="14.00" fill="#666666">[varchar(255)]</text>
<polygon fill="none" stroke="black" points="84.96,-104.8 84.96,-135.6 378.36,-135.6 378.36,-104.8 84.96,-104.8"/>
<text text-anchor="start" x="91.96" y="-117" font-family="Arial" font-size="14.00">guardian_info </text>
<text text-anchor="start" x="180.7" y="-117" font-family="Arial" font-size="14.00" fill="#666666">[varchar(500)]</text>
<polygon fill="none" stroke="black" points="84.96,-74 84.96,-104.8 378.36,-104.8 378.36,-74 84.96,-74"/>
<text text-anchor="start" x="91.96" y="-86.2" font-family="Arial" font-size="14.00">patient_source </text>
<text text-anchor="start" x="187.69" y="-86.2" font-family="Arial" font-size="14.00" fill="#666666">[varchar(255)]</text>
<polygon fill="none" stroke="black" points="84.96,-43.2 84.96,-74 378.36,-74 378.36,-43.2 84.96,-43.2"/>
<text text-anchor="start" x="91.96" y="-55.4" font-family="Arial" font-size="14.00">expected_notification_channel </text>
<text text-anchor="start" x="284.21" y="-55.4" font-family="Arial" font-size="14.00" fill="#666666">[varchar(255)]</text>
</g>
<!-- public.patient_insurance_details&#45;&gt;public.patients -->
<g id="edge2" class="edge">
<title>public.patient_insurance_details:patient_id&#45;&gt;public.patients:id</title>
<path fill="none" stroke="black" d="M428.19,-1511.99C547.89,-1482.38 507.76,-921 379.36,-921"/>
<polygon fill="black" stroke="black" points="428.38,-1511.96 417.91,-1508.69 423.08,-1512.6 418.78,-1513.12 418.78,-1513.12 418.78,-1513.12 423.08,-1512.6 418.99,-1517.63 428.38,-1511.96"/>
<text text-anchor="start" x="425.12" y="-1523.2" font-family="Arial" font-size="10.00">FOREIGN KEY (patient_id) REFERENCES patients(id)</text>
</g>
<!-- public.orders -->
<g id="node2" class="node">
<title>public.orders</title>
<polygon fill="#efefef" stroke="none" points="49.95,-3506.8 49.95,-3542.4 413.36,-3542.4 413.36,-3506.8 49.95,-3506.8"/>
<polygon fill="none" stroke="black" points="49.95,-3506.8 49.95,-3542.4 413.36,-3542.4 413.36,-3506.8 49.95,-3506.8"/>
<text text-anchor="start" x="122.18" y="-3520.2" font-family="Arial Bold" font-size="18.00">public.orders</text>
<text text-anchor="start" x="216.65" y="-3520.2" font-family="Arial" font-size="14.00">    </text>
<text text-anchor="start" x="247.77" y="-3520.2" font-family="Arial" font-size="14.00" fill="#666666">[BASE TABLE]</text>
<polygon fill="none" stroke="black" points="49.95,-3476 49.95,-3506.8 413.36,-3506.8 413.36,-3476 49.95,-3476"/>
<text text-anchor="start" x="56.95" y="-3488.2" font-family="Arial" font-size="14.00">id </text>
<text text-anchor="start" x="71.74" y="-3488.2" font-family="Arial" font-size="14.00" fill="#666666">[bigint]</text>
<polygon fill="none" stroke="black" points="49.95,-3445.2 49.95,-3476 413.36,-3476 413.36,-3445.2 49.95,-3445.2"/>
<text text-anchor="start" x="56.95" y="-3457.4" font-family="Arial" font-size="14.00">code </text>
<text text-anchor="start" x="91.2" y="-3457.4" font-family="Arial" font-size="14.00" fill="#666666">[varchar(100)]</text>
<polygon fill="none" stroke="black" points="49.95,-3414.4 49.95,-3445.2 413.36,-3445.2 413.36,-3414.4 49.95,-3414.4"/>
<text text-anchor="start" x="56.95" y="-3426.6" font-family="Arial" font-size="14.00">booking_code </text>
<text text-anchor="start" x="148.03" y="-3426.6" font-family="Arial" font-size="14.00" fill="#666666">[varchar(100)]</text>
<polygon fill="none" stroke="black" points="49.95,-3383.6 49.95,-3414.4 413.36,-3414.4 413.36,-3383.6 49.95,-3383.6"/>
<text text-anchor="start" x="56.95" y="-3395.8" font-family="Arial" font-size="14.00">patient_id </text>
<text text-anchor="start" x="121.56" y="-3395.8" font-family="Arial" font-size="14.00" fill="#666666">[bigint]</text>
<polygon fill="none" stroke="black" points="49.95,-3352.8 49.95,-3383.6 413.36,-3383.6 413.36,-3352.8 49.95,-3352.8"/>
<text text-anchor="start" x="56.95" y="-3365" font-family="Arial" font-size="14.00">client_id </text>
<text text-anchor="start" x="112.21" y="-3365" font-family="Arial" font-size="14.00" fill="#666666">[bigint]</text>
<polygon fill="none" stroke="black" points="49.95,-3322 49.95,-3352.8 413.36,-3352.8 413.36,-3322 49.95,-3322"/>
<text text-anchor="start" x="56.95" y="-3334.2" font-family="Arial" font-size="14.00">lis_order_id </text>
<text text-anchor="start" x="133.21" y="-3334.2" font-family="Arial" font-size="14.00" fill="#666666">[varchar(255)]</text>
<polygon fill="none" stroke="black" points="49.95,-3291.2 49.95,-3322 413.36,-3322 413.36,-3291.2 49.95,-3291.2"/>
<text text-anchor="start" x="56.95" y="-3303.4" font-family="Arial" font-size="14.00">client_ext_reference_id </text>
<text text-anchor="start" x="205.6" y="-3303.4" font-family="Arial" font-size="14.00" fill="#666666">[varchar(100)]</text>
<polygon fill="none" stroke="black" points="49.95,-3260.4 49.95,-3291.2 413.36,-3291.2 413.36,-3260.4 49.95,-3260.4"/>
<text text-anchor="start" x="56.95" y="-3272.6" font-family="Arial" font-size="14.00">ex_patient_number </text>
<text text-anchor="start" x="180.7" y="-3272.6" font-family="Arial" font-size="14.00" fill="#666666">[varchar(255)]</text>
<polygon fill="none" stroke="black" points="49.95,-3229.6 49.95,-3260.4 413.36,-3260.4 413.36,-3229.6 49.95,-3229.6"/>
<text text-anchor="start" x="56.95" y="-3241.8" font-family="Arial" font-size="14.00">ref_dr </text>
<text text-anchor="start" x="97.41" y="-3241.8" font-family="Arial" font-size="14.00" fill="#666666">[varchar(255)]</text>
<polygon fill="none" stroke="black" points="49.95,-3198.8 49.95,-3229.6 413.36,-3229.6 413.36,-3198.8 49.95,-3198.8"/>
<text text-anchor="start" x="56.95" y="-3211" font-family="Arial" font-size="14.00">remarks </text>
<text text-anchor="start" x="111.4" y="-3211" font-family="Arial" font-size="14.00" fill="#666666">[text]</text>
<polygon fill="none" stroke="black" points="49.95,-3168 49.95,-3198.8 413.36,-3198.8 413.36,-3168 49.95,-3168"/>
<text text-anchor="start" x="56.95" y="-3180.2" font-family="Arial" font-size="14.00">is_additional_test </text>
<text text-anchor="start" x="169.03" y="-3180.2" font-family="Arial" font-size="14.00" fill="#666666">[boolean]</text>
<polygon fill="none" stroke="black" points="49.95,-3137.2 49.95,-3168 413.36,-3168 413.36,-3137.2 49.95,-3137.2"/>
<text text-anchor="start" x="56.95" y="-3149.4" font-family="Arial" font-size="14.00">history </text>
<text text-anchor="start" x="102.08" y="-3149.4" font-family="Arial" font-size="14.00" fill="#666666">[text]</text>
<polygon fill="none" stroke="black" points="49.95,-3106.4 49.95,-3137.2 413.36,-3137.2 413.36,-3106.4 49.95,-3106.4"/>
<text text-anchor="start" x="56.95" y="-3118.6" font-family="Arial" font-size="14.00">bulk_upload_id </text>
<text text-anchor="start" x="155.03" y="-3118.6" font-family="Arial" font-size="14.00" fill="#666666">[uuid]</text>
<polygon fill="none" stroke="black" points="49.95,-3075.6 49.95,-3106.4 413.36,-3106.4 413.36,-3075.6 49.95,-3075.6"/>
<text text-anchor="start" x="56.95" y="-3087.8" font-family="Arial" font-size="14.00">total </text>
<text text-anchor="start" x="87.3" y="-3087.8" font-family="Arial" font-size="14.00" fill="#666666">[double precision]</text>
<polygon fill="none" stroke="black" points="49.95,-3044.8 49.95,-3075.6 413.36,-3075.6 413.36,-3044.8 49.95,-3044.8"/>
<text text-anchor="start" x="56.95" y="-3057" font-family="Arial" font-size="14.00">branch_code </text>
<text text-anchor="start" x="141.79" y="-3057" font-family="Arial" font-size="14.00" fill="#666666">[varchar(100)]</text>
<polygon fill="none" stroke="black" points="49.95,-3014 49.95,-3044.8 413.36,-3044.8 413.36,-3014 49.95,-3014"/>
<text text-anchor="start" x="56.95" y="-3026.2" font-family="Arial" font-size="14.00">patient_code </text>
<text text-anchor="start" x="141.02" y="-3026.2" font-family="Arial" font-size="14.00" fill="#666666">[varchar(255)]</text>
<polygon fill="none" stroke="black" points="49.95,-2983.2 49.95,-3014 413.36,-3014 413.36,-2983.2 49.95,-2983.2"/>
<text text-anchor="start" x="56.95" y="-2995.4" font-family="Arial" font-size="14.00">patient_full_name </text>
<text text-anchor="start" x="171.37" y="-2995.4" font-family="Arial" font-size="14.00" fill="#666666">[varchar(255)]</text>
<polygon fill="none" stroke="black" points="49.95,-2952.4 49.95,-2983.2 413.36,-2983.2 413.36,-2952.4 49.95,-2952.4"/>
<text text-anchor="start" x="56.95" y="-2964.6" font-family="Arial" font-size="14.00">patient_gender </text>
<text text-anchor="start" x="154.25" y="-2964.6" font-family="Arial" font-size="14.00" fill="#666666">[varchar(20)]</text>
<polygon fill="none" stroke="black" points="49.95,-2921.6 49.95,-2952.4 413.36,-2952.4 413.36,-2921.6 49.95,-2921.6"/>
<text text-anchor="start" x="56.95" y="-2933.8" font-family="Arial" font-size="14.00">patient_marital_status </text>
<text text-anchor="start" x="197.81" y="-2933.8" font-family="Arial" font-size="14.00" fill="#666666">[varchar(20)]</text>
<polygon fill="none" stroke="black" points="49.95,-2890.8 49.95,-2921.6 413.36,-2921.6 413.36,-2890.8 49.95,-2890.8"/>
<text text-anchor="start" x="56.95" y="-2903" font-family="Arial" font-size="14.00">patient_dob </text>
<text text-anchor="start" x="134.02" y="-2903" font-family="Arial" font-size="14.00" fill="#666666">[date]</text>
<polygon fill="none" stroke="black" points="49.95,-2860 49.95,-2890.8 413.36,-2890.8 413.36,-2860 49.95,-2860"/>
<text text-anchor="start" x="56.95" y="-2872.2" font-family="Arial" font-size="14.00">patient_phone_number </text>
<text text-anchor="start" x="204.85" y="-2872.2" font-family="Arial" font-size="14.00" fill="#666666">[varchar(20)]</text>
<polygon fill="none" stroke="black" points="49.95,-2829.2 49.95,-2860 413.36,-2860 413.36,-2829.2 49.95,-2829.2"/>
<text text-anchor="start" x="56.95" y="-2841.4" font-family="Arial" font-size="14.00">patient_email </text>
<text text-anchor="start" x="144.12" y="-2841.4" font-family="Arial" font-size="14.00" fill="#666666">[varchar(255)]</text>
<polygon fill="none" stroke="black" points="49.95,-2798.4 49.95,-2829.2 413.36,-2829.2 413.36,-2798.4 49.95,-2798.4"/>
<text text-anchor="start" x="56.95" y="-2810.6" font-family="Arial" font-size="14.00">patient_address </text>
<text text-anchor="start" x="160.47" y="-2810.6" font-family="Arial" font-size="14.00" fill="#666666">[varchar(255)]</text>
<polygon fill="none" stroke="black" points="49.95,-2767.6 49.95,-2798.4 413.36,-2798.4 413.36,-2767.6 49.95,-2767.6"/>
<text text-anchor="start" x="56.95" y="-2779.8" font-family="Arial" font-size="14.00">patient_ward </text>
<text text-anchor="start" x="141.01" y="-2779.8" font-family="Arial" font-size="14.00" fill="#666666">[varchar(255)]</text>
<polygon fill="none" stroke="black" points="49.95,-2736.8 49.95,-2767.6 413.36,-2767.6 413.36,-2736.8 49.95,-2736.8"/>
<text text-anchor="start" x="56.95" y="-2749" font-family="Arial" font-size="14.00">patient_district </text>
<text text-anchor="start" x="151.11" y="-2749" font-family="Arial" font-size="14.00" fill="#666666">[varchar(255)]</text>
<polygon fill="none" stroke="black" points="49.95,-2706 49.95,-2736.8 413.36,-2736.8 413.36,-2706 49.95,-2706"/>
<text text-anchor="start" x="56.95" y="-2718.2" font-family="Arial" font-size="14.00">patient_city </text>
<text text-anchor="start" x="131.66" y="-2718.2" font-family="Arial" font-size="14.00" fill="#666666">[varchar(100)]</text>
<polygon fill="none" stroke="black" points="49.95,-2675.2 49.95,-2706 413.36,-2706 413.36,-2675.2 49.95,-2675.2"/>
<text text-anchor="start" x="56.95" y="-2687.4" font-family="Arial" font-size="14.00">patient_country </text>
<text text-anchor="start" x="156.57" y="-2687.4" font-family="Arial" font-size="14.00" fill="#666666">[varchar(60)]</text>
<polygon fill="none" stroke="black" points="49.95,-2644.4 49.95,-2675.2 413.36,-2675.2 413.36,-2644.4 49.95,-2644.4"/>
<text text-anchor="start" x="56.95" y="-2656.6" font-family="Arial" font-size="14.00">patient_nationality </text>
<text text-anchor="start" x="173.7" y="-2656.6" font-family="Arial" font-size="14.00" fill="#666666">[varchar(60)]</text>
<polygon fill="none" stroke="black" points="49.95,-2613.6 49.95,-2644.4 413.36,-2644.4 413.36,-2613.6 49.95,-2613.6"/>
<text text-anchor="start" x="56.95" y="-2625.8" font-family="Arial" font-size="14.00">patient_id_number_type </text>
<text text-anchor="start" x="211.06" y="-2625.8" font-family="Arial" font-size="14.00" fill="#666666">[varchar(20)]</text>
<polygon fill="none" stroke="black" points="49.95,-2582.8 49.95,-2613.6 413.36,-2613.6 413.36,-2582.8 49.95,-2582.8"/>
<text text-anchor="start" x="56.95" y="-2595" font-family="Arial" font-size="14.00">patient_id_number </text>
<text text-anchor="start" x="176.81" y="-2595" font-family="Arial" font-size="14.00" fill="#666666">[varchar(255)]</text>
<polygon fill="none" stroke="black" points="49.95,-2552 49.95,-2582.8 413.36,-2582.8 413.36,-2552 49.95,-2552"/>
<text text-anchor="start" x="56.95" y="-2564.2" font-family="Arial" font-size="14.00">created_by_employee_code </text>
<text text-anchor="start" x="236.74" y="-2564.2" font-family="Arial" font-size="14.00" fill="#666666">[varchar(100)]</text>
<polygon fill="none" stroke="black" points="49.95,-2521.2 49.95,-2552 413.36,-2552 413.36,-2521.2 49.95,-2521.2"/>
<text text-anchor="start" x="56.95" y="-2533.4" font-family="Arial" font-size="14.00">created_by_employee_email </text>
<text text-anchor="start" x="239.84" y="-2533.4" font-family="Arial" font-size="14.00" fill="#666666">[varchar(255)]</text>
<polygon fill="none" stroke="black" points="49.95,-2490.4 49.95,-2521.2 413.36,-2521.2 413.36,-2490.4 49.95,-2490.4"/>
<text text-anchor="start" x="56.95" y="-2502.6" font-family="Arial" font-size="14.00">created_at </text>
<text text-anchor="start" x="127" y="-2502.6" font-family="Arial" font-size="14.00" fill="#666666">[timestamp(0) without time zone]</text>
<polygon fill="none" stroke="black" points="49.95,-2459.6 49.95,-2490.4 413.36,-2490.4 413.36,-2459.6 49.95,-2459.6"/>
<text text-anchor="start" x="56.95" y="-2471.8" font-family="Arial" font-size="14.00">updated_at </text>
<text text-anchor="start" x="130.91" y="-2471.8" font-family="Arial" font-size="14.00" fill="#666666">[timestamp(0) without time zone]</text>
<polygon fill="none" stroke="black" points="49.95,-2428.8 49.95,-2459.6 413.36,-2459.6 413.36,-2428.8 49.95,-2428.8"/>
<text text-anchor="start" x="56.95" y="-2441" font-family="Arial" font-size="14.00">patient_salutation </text>
<text text-anchor="start" x="170.59" y="-2441" font-family="Arial" font-size="14.00" fill="#666666">[varchar(100)]</text>
<polygon fill="none" stroke="black" points="49.95,-2398 49.95,-2428.8 413.36,-2428.8 413.36,-2398 49.95,-2398"/>
<text text-anchor="start" x="56.95" y="-2410.2" font-family="Arial" font-size="14.00">status </text>
<text text-anchor="start" x="98.19" y="-2410.2" font-family="Arial" font-size="14.00" fill="#666666">[varchar(255)]</text>
<polygon fill="none" stroke="black" points="49.95,-2367.2 49.95,-2398 413.36,-2398 413.36,-2367.2 49.95,-2367.2"/>
<text text-anchor="start" x="56.95" y="-2379.4" font-family="Arial" font-size="14.00">billing_pdf </text>
<text text-anchor="start" x="123.89" y="-2379.4" font-family="Arial" font-size="14.00" fill="#666666">[varchar(255)]</text>
<polygon fill="none" stroke="black" points="49.95,-2336.4 49.95,-2367.2 413.36,-2367.2 413.36,-2336.4 49.95,-2336.4"/>
<text text-anchor="start" x="56.95" y="-2348.6" font-family="Arial" font-size="14.00">amount_received </text>
<text text-anchor="start" x="168.24" y="-2348.6" font-family="Arial" font-size="14.00" fill="#666666">[double precision]</text>
<polygon fill="none" stroke="black" points="49.95,-2305.6 49.95,-2336.4 413.36,-2336.4 413.36,-2305.6 49.95,-2305.6"/>
<text text-anchor="start" x="56.95" y="-2317.8" font-family="Arial" font-size="14.00">patient_insurance_detail_id </text>
<text text-anchor="start" x="231.3" y="-2317.8" font-family="Arial" font-size="14.00" fill="#666666">[bigint]</text>
<polygon fill="none" stroke="black" points="49.95,-2274.8 49.95,-2305.6 413.36,-2305.6 413.36,-2274.8 49.95,-2274.8"/>
<text text-anchor="start" x="56.95" y="-2287" font-family="Arial" font-size="14.00">direct_insurance_claim </text>
<text text-anchor="start" x="204.02" y="-2287" font-family="Arial" font-size="14.00" fill="#666666">[boolean]</text>
<polygon fill="none" stroke="black" points="49.95,-2244 49.95,-2274.8 413.36,-2274.8 413.36,-2244 49.95,-2244"/>
<text text-anchor="start" x="56.95" y="-2256.2" font-family="Arial" font-size="14.00">vat_required </text>
<text text-anchor="start" x="138.67" y="-2256.2" font-family="Arial" font-size="14.00" fill="#666666">[boolean]</text>
<polygon fill="none" stroke="black" points="49.95,-2213.2 49.95,-2244 413.36,-2244 413.36,-2213.2 49.95,-2213.2"/>
<text text-anchor="start" x="56.95" y="-2225.4" font-family="Arial" font-size="14.00">patient_guardian_info </text>
<text text-anchor="start" x="195.51" y="-2225.4" font-family="Arial" font-size="14.00" fill="#666666">[varchar(500)]</text>
<polygon fill="none" stroke="black" points="49.95,-2182.4 49.95,-2213.2 413.36,-2213.2 413.36,-2182.4 49.95,-2182.4"/>
<text text-anchor="start" x="56.95" y="-2194.6" font-family="Arial" font-size="14.00">promotions </text>
<text text-anchor="start" x="130.1" y="-2194.6" font-family="Arial" font-size="14.00" fill="#666666">[json]</text>
<polygon fill="none" stroke="black" points="49.95,-2151.6 49.95,-2182.4 413.36,-2182.4 413.36,-2151.6 49.95,-2151.6"/>
<text text-anchor="start" x="56.95" y="-2163.8" font-family="Arial" font-size="14.00">order_placed_option </text>
<text text-anchor="start" x="188.5" y="-2163.8" font-family="Arial" font-size="14.00" fill="#666666">[varchar(255)]</text>
<polygon fill="none" stroke="black" points="49.95,-2120.8 49.95,-2151.6 413.36,-2151.6 413.36,-2120.8 49.95,-2120.8"/>
<text text-anchor="start" x="56.95" y="-2133" font-family="Arial" font-size="14.00">reject_identity_reason </text>
<text text-anchor="start" x="197.81" y="-2133" font-family="Arial" font-size="14.00" fill="#666666">[text]</text>
<polygon fill="none" stroke="black" points="49.95,-2090 49.95,-2120.8 413.36,-2120.8 413.36,-2090 49.95,-2090"/>
<text text-anchor="start" x="56.95" y="-2102.2" font-family="Arial" font-size="14.00">otp </text>
<text text-anchor="start" x="80.3" y="-2102.2" font-family="Arial" font-size="14.00" fill="#666666">[text]</text>
<polygon fill="none" stroke="black" points="49.95,-2059.2 49.95,-2090 413.36,-2090 413.36,-2059.2 49.95,-2059.2"/>
<text text-anchor="start" x="56.95" y="-2071.4" font-family="Arial" font-size="14.00">otp_expired_at </text>
<text text-anchor="start" x="153.47" y="-2071.4" font-family="Arial" font-size="14.00" fill="#666666">[timestamp(0) without time zone]</text>
<polygon fill="none" stroke="black" points="49.95,-2028.4 49.95,-2059.2 413.36,-2059.2 413.36,-2028.4 49.95,-2028.4"/>
<text text-anchor="start" x="56.95" y="-2040.6" font-family="Arial" font-size="14.00">cancel_reason </text>
<text text-anchor="start" x="151.9" y="-2040.6" font-family="Arial" font-size="14.00" fill="#666666">[varchar(255)]</text>
<polygon fill="none" stroke="black" points="49.95,-1997.6 49.95,-2028.4 413.36,-2028.4 413.36,-1997.6 49.95,-1997.6"/>
<text text-anchor="start" x="56.95" y="-2009.8" font-family="Arial" font-size="14.00">emergency_contact </text>
<text text-anchor="start" x="183.02" y="-2009.8" font-family="Arial" font-size="14.00" fill="#666666">[boolean]</text>
<polygon fill="none" stroke="black" points="49.95,-1966.8 49.95,-1997.6 413.36,-1997.6 413.36,-1966.8 49.95,-1966.8"/>
<text text-anchor="start" x="56.95" y="-1979" font-family="Arial" font-size="14.00">emergency_contact_off_reason </text>
<text text-anchor="start" x="256.96" y="-1979" font-family="Arial" font-size="14.00" fill="#666666">[varchar(255)]</text>
<polygon fill="none" stroke="black" points="49.95,-1936 49.95,-1966.8 413.36,-1966.8 413.36,-1936 49.95,-1936"/>
<text text-anchor="start" x="56.95" y="-1948.2" font-family="Arial" font-size="14.00">patient_emergency_contact_id </text>
<text text-anchor="start" x="251.52" y="-1948.2" font-family="Arial" font-size="14.00" fill="#666666">[bigint]</text>
<polygon fill="none" stroke="black" points="49.95,-1905.2 49.95,-1936 413.36,-1936 413.36,-1905.2 49.95,-1905.2"/>
<text text-anchor="start" x="56.95" y="-1917.4" font-family="Arial" font-size="14.00">billing_last_updated_at </text>
<text text-anchor="start" x="204.07" y="-1917.4" font-family="Arial" font-size="14.00" fill="#666666">[timestamp(0) without time zone]</text>
<polygon fill="none" stroke="black" points="49.95,-1874.4 49.95,-1905.2 413.36,-1905.2 413.36,-1874.4 49.95,-1874.4"/>
<text text-anchor="start" x="56.95" y="-1886.6" font-family="Arial" font-size="14.00">cancel_by </text>
<text text-anchor="start" x="123.88" y="-1886.6" font-family="Arial" font-size="14.00" fill="#666666">[varchar(255)]</text>
<polygon fill="none" stroke="black" points="49.95,-1843.6 49.95,-1874.4 413.36,-1874.4 413.36,-1843.6 49.95,-1843.6"/>
<text text-anchor="start" x="56.95" y="-1855.8" font-family="Arial" font-size="14.00">cancel_time </text>
<text text-anchor="start" x="135.54" y="-1855.8" font-family="Arial" font-size="14.00" fill="#666666">[timestamp(0) without time zone]</text>
<polygon fill="none" stroke="black" points="49.95,-1812.8 49.95,-1843.6 413.36,-1843.6 413.36,-1812.8 49.95,-1812.8"/>
<text text-anchor="start" x="56.95" y="-1825" font-family="Arial" font-size="14.00">stat </text>
<text text-anchor="start" x="83.41" y="-1825" font-family="Arial" font-size="14.00" fill="#666666">[boolean]</text>
<polygon fill="none" stroke="black" points="49.95,-1782 49.95,-1812.8 413.36,-1812.8 413.36,-1782 49.95,-1782"/>
<text text-anchor="start" x="56.95" y="-1794.2" font-family="Arial" font-size="14.00">purchase_order_code </text>
<text text-anchor="start" x="197.05" y="-1794.2" font-family="Arial" font-size="14.00" fill="#666666">[varchar(255)]</text>
<polygon fill="none" stroke="black" points="49.95,-1751.2 49.95,-1782 413.36,-1782 413.36,-1751.2 49.95,-1751.2"/>
<text text-anchor="start" x="56.95" y="-1763.4" font-family="Arial" font-size="14.00">trashed_booking_code </text>
<text text-anchor="start" x="202.51" y="-1763.4" font-family="Arial" font-size="14.00" fill="#666666">[varchar(255)]</text>
<polygon fill="none" stroke="black" points="49.95,-1720.4 49.95,-1751.2 413.36,-1751.2 413.36,-1720.4 49.95,-1720.4"/>
<text text-anchor="start" x="56.95" y="-1732.6" font-family="Arial" font-size="14.00">trashed_booking_code_usage_reason </text>
<text text-anchor="start" x="299.03" y="-1732.6" font-family="Arial" font-size="14.00" fill="#666666">[varchar(255)]</text>
</g>
<!-- public.orders&#45;&gt;public.patient_insurance_details -->
<g id="edge1" class="edge">
<title>public.orders:patient_insurance_detail_id&#45;&gt;public.patient_insurance_details:id</title>
<path fill="none" stroke="black" d="M424.1,-2317.54C500.85,-2261.48 501.08,-1544 418.12,-1544"/>
<polygon fill="black" stroke="black" points="424.1,-2317.54 413.17,-2316.65 419.07,-2319.32 414.99,-2320.78 414.99,-2320.78 414.99,-2320.78 419.07,-2319.32 416.19,-2325.13 424.1,-2317.54"/>
<text text-anchor="start" x="421.36" y="-2331" font-family="Arial" font-size="10.00">FOREIGN KEY (patient_insurance_detail_id) REFERENCES patient_insurance_details(id)</text>
</g>
</g>
</svg>
