<?xml version="1.0" encoding="UTF-8" standalone="no"?>
<!DOCTYPE svg PUBLIC "-//W3C//DTD SVG 1.1//EN"
 "http://www.w3.org/Graphics/SVG/1.1/DTD/svg11.dtd">
<!-- Generated by graphviz version 12.1.2 (20240928.0832)
 -->
<!-- Title: public.patient_identities Pages: 1 -->
<svg width="768pt" height="1095pt"
 viewBox="0.00 0.00 767.95 1094.80" xmlns="http://www.w3.org/2000/svg" xmlns:xlink="http://www.w3.org/1999/xlink">
<g id="graph0" class="graph" transform="scale(1 1) rotate(0) translate(4 1090.8)">
<title>public.patient_identities</title>
<polygon fill="white" stroke="none" points="-4,4 -4,-1090.8 763.95,-1090.8 763.95,4 -4,4"/>
<!-- public.patient_identities -->
<g id="node1" class="node">
<title>public.patient_identities</title>
<polygon fill="#efefef" stroke="none" points="77.2,-662.2 77.2,-697.8 389.15,-697.8 389.15,-662.2 77.2,-662.2"/>
<polygon fill="none" stroke="black" points="77.2,-662.2 77.2,-697.8 389.15,-697.8 389.15,-662.2 77.2,-662.2"/>
<text text-anchor="start" x="84.2" y="-675.6" font-family="Arial Bold" font-size="18.00">public.patient_identities</text>
<text text-anchor="start" x="257.66" y="-675.6" font-family="Arial" font-size="14.00">    </text>
<text text-anchor="start" x="288.78" y="-675.6" font-family="Arial" font-size="14.00" fill="#666666">[BASE TABLE]</text>
<polygon fill="none" stroke="black" points="77.2,-631.4 77.2,-662.2 389.15,-662.2 389.15,-631.4 77.2,-631.4"/>
<text text-anchor="start" x="84.2" y="-643.6" font-family="Arial" font-size="14.00">id </text>
<text text-anchor="start" x="98.99" y="-643.6" font-family="Arial" font-size="14.00" fill="#666666">[bigint]</text>
<polygon fill="none" stroke="black" points="77.2,-600.6 77.2,-631.4 389.15,-631.4 389.15,-600.6 77.2,-600.6"/>
<text text-anchor="start" x="84.2" y="-612.8" font-family="Arial" font-size="14.00">full_name </text>
<text text-anchor="start" x="148.79" y="-612.8" font-family="Arial" font-size="14.00" fill="#666666">[varchar(255)]</text>
<polygon fill="none" stroke="black" points="77.2,-569.8 77.2,-600.6 389.15,-600.6 389.15,-569.8 77.2,-569.8"/>
<text text-anchor="start" x="84.2" y="-582" font-family="Arial" font-size="14.00">gender </text>
<text text-anchor="start" x="131.68" y="-582" font-family="Arial" font-size="14.00" fill="#666666">[varchar(255)]</text>
<polygon fill="none" stroke="black" points="77.2,-539 77.2,-569.8 389.15,-569.8 389.15,-539 77.2,-539"/>
<text text-anchor="start" x="84.2" y="-551.2" font-family="Arial" font-size="14.00">date_of_birth </text>
<text text-anchor="start" x="169.82" y="-551.2" font-family="Arial" font-size="14.00" fill="#666666">[date]</text>
<polygon fill="none" stroke="black" points="77.2,-508.2 77.2,-539 389.15,-539 389.15,-508.2 77.2,-508.2"/>
<text text-anchor="start" x="84.2" y="-520.4" font-family="Arial" font-size="14.00">identity_type </text>
<text text-anchor="start" x="166.7" y="-520.4" font-family="Arial" font-size="14.00" fill="#666666">[varchar(255)]</text>
<polygon fill="none" stroke="black" points="77.2,-477.4 77.2,-508.2 389.15,-508.2 389.15,-477.4 77.2,-477.4"/>
<text text-anchor="start" x="84.2" y="-489.6" font-family="Arial" font-size="14.00">identity_number </text>
<text text-anchor="start" x="187.7" y="-489.6" font-family="Arial" font-size="14.00" fill="#666666">[varchar(255)]</text>
<polygon fill="none" stroke="black" points="77.2,-446.6 77.2,-477.4 389.15,-477.4 389.15,-446.6 77.2,-446.6"/>
<text text-anchor="start" x="84.2" y="-458.8" font-family="Arial" font-size="14.00">nationality_code </text>
<text text-anchor="start" x="189.28" y="-458.8" font-family="Arial" font-size="14.00" fill="#666666">[varchar(255)]</text>
<polygon fill="none" stroke="black" points="77.2,-415.8 77.2,-446.6 389.15,-446.6 389.15,-415.8 77.2,-415.8"/>
<text text-anchor="start" x="84.2" y="-428" font-family="Arial" font-size="14.00">permanent_address </text>
<text text-anchor="start" x="212.61" y="-428" font-family="Arial" font-size="14.00" fill="#666666">[text]</text>
<polygon fill="none" stroke="black" points="77.2,-385 77.2,-415.8 389.15,-415.8 389.15,-385 77.2,-385"/>
<text text-anchor="start" x="84.2" y="-397.2" font-family="Arial" font-size="14.00">registered_date </text>
<text text-anchor="start" x="185.38" y="-397.2" font-family="Arial" font-size="14.00" fill="#666666">[date]</text>
<polygon fill="none" stroke="black" points="77.2,-354.2 77.2,-385 389.15,-385 389.15,-354.2 77.2,-354.2"/>
<text text-anchor="start" x="84.2" y="-366.4" font-family="Arial" font-size="14.00">expired_date </text>
<text text-anchor="start" x="169.04" y="-366.4" font-family="Arial" font-size="14.00" fill="#666666">[date]</text>
<polygon fill="none" stroke="black" points="77.2,-323.4 77.2,-354.2 389.15,-354.2 389.15,-323.4 77.2,-323.4"/>
<text text-anchor="start" x="84.2" y="-335.6" font-family="Arial" font-size="14.00">is_expired </text>
<text text-anchor="start" x="151.9" y="-335.6" font-family="Arial" font-size="14.00" fill="#666666">[boolean]</text>
<polygon fill="none" stroke="black" points="77.2,-292.6 77.2,-323.4 389.15,-323.4 389.15,-292.6 77.2,-292.6"/>
<text text-anchor="start" x="84.2" y="-304.8" font-family="Arial" font-size="14.00">identity_card_front </text>
<text text-anchor="start" x="203.27" y="-304.8" font-family="Arial" font-size="14.00" fill="#666666">[varchar(255)]</text>
<polygon fill="none" stroke="black" points="77.2,-261.8 77.2,-292.6 389.15,-292.6 389.15,-261.8 77.2,-261.8"/>
<text text-anchor="start" x="84.2" y="-274" font-family="Arial" font-size="14.00">identity_card_back </text>
<text text-anchor="start" x="204.83" y="-274" font-family="Arial" font-size="14.00" fill="#666666">[varchar(255)]</text>
<polygon fill="none" stroke="black" points="77.2,-231 77.2,-261.8 389.15,-261.8 389.15,-231 77.2,-231"/>
<text text-anchor="start" x="84.2" y="-243.2" font-family="Arial" font-size="14.00">status </text>
<text text-anchor="start" x="125.44" y="-243.2" font-family="Arial" font-size="14.00" fill="#666666">[varchar(255)]</text>
<polygon fill="none" stroke="black" points="77.2,-200.2 77.2,-231 389.15,-231 389.15,-200.2 77.2,-200.2"/>
<text text-anchor="start" x="84.2" y="-212.4" font-family="Arial" font-size="14.00">captured_by </text>
<text text-anchor="start" x="165.14" y="-212.4" font-family="Arial" font-size="14.00" fill="#666666">[varchar(255)]</text>
<polygon fill="none" stroke="black" points="77.2,-169.4 77.2,-200.2 389.15,-200.2 389.15,-169.4 77.2,-169.4"/>
<text text-anchor="start" x="84.2" y="-181.6" font-family="Arial" font-size="14.00">is_verified </text>
<text text-anchor="start" x="151.12" y="-181.6" font-family="Arial" font-size="14.00" fill="#666666">[boolean]</text>
<polygon fill="none" stroke="black" points="77.2,-138.6 77.2,-169.4 389.15,-169.4 389.15,-138.6 77.2,-138.6"/>
<text text-anchor="start" x="84.2" y="-150.8" font-family="Arial" font-size="14.00">verified_by </text>
<text text-anchor="start" x="155.79" y="-150.8" font-family="Arial" font-size="14.00" fill="#666666">[varchar(255)]</text>
<polygon fill="none" stroke="black" points="77.2,-107.8 77.2,-138.6 389.15,-138.6 389.15,-107.8 77.2,-107.8"/>
<text text-anchor="start" x="84.2" y="-120" font-family="Arial" font-size="14.00">verified_at </text>
<text text-anchor="start" x="152.68" y="-120" font-family="Arial" font-size="14.00" fill="#666666">[timestamp(0) without time zone]</text>
<polygon fill="none" stroke="black" points="77.2,-77 77.2,-107.8 389.15,-107.8 389.15,-77 77.2,-77"/>
<text text-anchor="start" x="84.2" y="-89.2" font-family="Arial" font-size="14.00">created_at </text>
<text text-anchor="start" x="154.25" y="-89.2" font-family="Arial" font-size="14.00" fill="#666666">[timestamp(0) without time zone]</text>
<polygon fill="none" stroke="black" points="77.2,-46.2 77.2,-77 389.15,-77 389.15,-46.2 77.2,-46.2"/>
<text text-anchor="start" x="84.2" y="-58.4" font-family="Arial" font-size="14.00">updated_at </text>
<text text-anchor="start" x="158.16" y="-58.4" font-family="Arial" font-size="14.00" fill="#666666">[timestamp(0) without time zone]</text>
<polygon fill="none" stroke="black" stroke-width="3" points="75.7,-44.7 75.7,-699.3 390.65,-699.3 390.65,-44.7 75.7,-44.7"/>
</g>
<!-- public.patient_identity_mappings -->
<g id="node2" class="node">
<title>public.patient_identity_mappings</title>
<polygon fill="#efefef" stroke="none" points="43.2,-1008 43.2,-1043.6 423.15,-1043.6 423.15,-1008 43.2,-1008"/>
<polygon fill="none" stroke="black" points="43.2,-1008 43.2,-1043.6 423.15,-1043.6 423.15,-1008 43.2,-1008"/>
<text text-anchor="start" x="50.2" y="-1021.4" font-family="Arial Bold" font-size="18.00">public.patient_identity_mappings</text>
<text text-anchor="start" x="291.66" y="-1021.4" font-family="Arial" font-size="14.00">    </text>
<text text-anchor="start" x="322.78" y="-1021.4" font-family="Arial" font-size="14.00" fill="#666666">[BASE TABLE]</text>
<polygon fill="none" stroke="black" points="43.2,-977.2 43.2,-1008 423.15,-1008 423.15,-977.2 43.2,-977.2"/>
<text text-anchor="start" x="50.2" y="-989.4" font-family="Arial" font-size="14.00">id </text>
<text text-anchor="start" x="64.99" y="-989.4" font-family="Arial" font-size="14.00" fill="#666666">[bigint]</text>
<polygon fill="none" stroke="black" points="43.2,-946.4 43.2,-977.2 423.15,-977.2 423.15,-946.4 43.2,-946.4"/>
<text text-anchor="start" x="50.2" y="-958.6" font-family="Arial" font-size="14.00">patient_id </text>
<text text-anchor="start" x="114.81" y="-958.6" font-family="Arial" font-size="14.00" fill="#666666">[bigint]</text>
<polygon fill="none" stroke="black" points="43.2,-915.6 43.2,-946.4 423.15,-946.4 423.15,-915.6 43.2,-915.6"/>
<text text-anchor="start" x="50.2" y="-927.8" font-family="Arial" font-size="14.00">patient_identity_id </text>
<text text-anchor="start" x="166.95" y="-927.8" font-family="Arial" font-size="14.00" fill="#666666">[bigint]</text>
<polygon fill="none" stroke="black" points="43.2,-884.8 43.2,-915.6 423.15,-915.6 423.15,-884.8 43.2,-884.8"/>
<text text-anchor="start" x="50.2" y="-897" font-family="Arial" font-size="14.00">is_active </text>
<text text-anchor="start" x="108.56" y="-897" font-family="Arial" font-size="14.00" fill="#666666">[boolean]</text>
<polygon fill="none" stroke="black" points="43.2,-854 43.2,-884.8 423.15,-884.8 423.15,-854 43.2,-854"/>
<text text-anchor="start" x="50.2" y="-866.2" font-family="Arial" font-size="14.00">created_at </text>
<text text-anchor="start" x="120.25" y="-866.2" font-family="Arial" font-size="14.00" fill="#666666">[timestamp(0) without time zone]</text>
<polygon fill="none" stroke="black" points="43.2,-823.2 43.2,-854 423.15,-854 423.15,-823.2 43.2,-823.2"/>
<text text-anchor="start" x="50.2" y="-835.4" font-family="Arial" font-size="14.00">updated_at </text>
<text text-anchor="start" x="124.16" y="-835.4" font-family="Arial" font-size="14.00" fill="#666666">[timestamp(0) without time zone]</text>
</g>
<!-- public.patient_identity_mappings&#45;&gt;public.patient_identities -->
<g id="edge1" class="edge">
<title>public.patient_identity_mappings:patient_identity_id&#45;&gt;public.patient_identities:id</title>
<path fill="none" stroke="black" d="M434.03,-928.37C483.81,-899.72 450.15,-646.8 390.15,-646.8"/>
<polygon fill="black" stroke="black" points="434.14,-928.34 423.32,-926.57 428.98,-929.71 424.8,-930.83 424.8,-930.83 424.8,-930.83 428.98,-929.71 425.63,-935.26 434.14,-928.34"/>
<text text-anchor="start" x="431.15" y="-941" font-family="Arial" font-size="10.00">FOREIGN KEY (patient_identity_id) REFERENCES patient_identities(id)</text>
</g>
</g>
</svg>
