<?xml version="1.0" encoding="UTF-8" standalone="no"?>
<!DOCTYPE svg PUBLIC "-//W3C//DTD SVG 1.1//EN"
 "http://www.w3.org/Graphics/SVG/1.1/DTD/svg11.dtd">
<!-- Generated by graphviz version 12.1.2 (20240928.0832)
 -->
<!-- Title: public.patient_emergency_contacts Pages: 1 -->
<svg width="878pt" height="3316pt"
 viewBox="0.00 0.00 877.54 3316.40" xmlns="http://www.w3.org/2000/svg" xmlns:xlink="http://www.w3.org/1999/xlink">
<g id="graph0" class="graph" transform="scale(1 1) rotate(0) translate(4 3312.4)">
<title>public.patient_emergency_contacts</title>
<polygon fill="white" stroke="none" points="-4,4 -4,-3312.4 873.54,-3312.4 873.54,4 -4,4"/>
<!-- public.patient_emergency_contacts -->
<g id="node1" class="node">
<title>public.patient_emergency_contacts</title>
<polygon fill="#efefef" stroke="none" points="46.2,-1282.2 46.2,-1317.8 439.09,-1317.8 439.09,-1282.2 46.2,-1282.2"/>
<polygon fill="none" stroke="black" points="46.2,-1282.2 46.2,-1317.8 439.09,-1317.8 439.09,-1282.2 46.2,-1282.2"/>
<text text-anchor="start" x="53.2" y="-1295.6" font-family="Arial Bold" font-size="18.00">public.patient_emergency_contacts</text>
<text text-anchor="start" x="307.6" y="-1295.6" font-family="Arial" font-size="14.00">    </text>
<text text-anchor="start" x="338.72" y="-1295.6" font-family="Arial" font-size="14.00" fill="#666666">[BASE TABLE]</text>
<polygon fill="none" stroke="black" points="46.2,-1251.4 46.2,-1282.2 439.09,-1282.2 439.09,-1251.4 46.2,-1251.4"/>
<text text-anchor="start" x="53.2" y="-1263.6" font-family="Arial" font-size="14.00">id </text>
<text text-anchor="start" x="67.99" y="-1263.6" font-family="Arial" font-size="14.00" fill="#666666">[bigint]</text>
<polygon fill="none" stroke="black" points="46.2,-1220.6 46.2,-1251.4 439.09,-1251.4 439.09,-1220.6 46.2,-1220.6"/>
<text text-anchor="start" x="53.2" y="-1232.8" font-family="Arial" font-size="14.00">patient_id </text>
<text text-anchor="start" x="117.81" y="-1232.8" font-family="Arial" font-size="14.00" fill="#666666">[bigint]</text>
<polygon fill="none" stroke="black" points="46.2,-1189.8 46.2,-1220.6 439.09,-1220.6 439.09,-1189.8 46.2,-1189.8"/>
<text text-anchor="start" x="53.2" y="-1202" font-family="Arial" font-size="14.00">emergency_contact_name </text>
<text text-anchor="start" x="222.07" y="-1202" font-family="Arial" font-size="14.00" fill="#666666">[varchar(255)]</text>
<polygon fill="none" stroke="black" points="46.2,-1159 46.2,-1189.8 439.09,-1189.8 439.09,-1159 46.2,-1159"/>
<text text-anchor="start" x="53.2" y="-1171.2" font-family="Arial" font-size="14.00">emergency_contact_phone_number </text>
<text text-anchor="start" x="281.24" y="-1171.2" font-family="Arial" font-size="14.00" fill="#666666">[varchar(255)]</text>
<polygon fill="none" stroke="black" points="46.2,-1128.2 46.2,-1159 439.09,-1159 439.09,-1128.2 46.2,-1128.2"/>
<text text-anchor="start" x="53.2" y="-1140.4" font-family="Arial" font-size="14.00">created_at </text>
<text text-anchor="start" x="123.25" y="-1140.4" font-family="Arial" font-size="14.00" fill="#666666">[timestamp(0) without time zone]</text>
<polygon fill="none" stroke="black" points="46.2,-1097.4 46.2,-1128.2 439.09,-1128.2 439.09,-1097.4 46.2,-1097.4"/>
<text text-anchor="start" x="53.2" y="-1109.6" font-family="Arial" font-size="14.00">updated_at </text>
<text text-anchor="start" x="127.16" y="-1109.6" font-family="Arial" font-size="14.00" fill="#666666">[timestamp(0) without time zone]</text>
<polygon fill="none" stroke="black" stroke-width="3" points="44.7,-1095.9 44.7,-1319.3 440.59,-1319.3 440.59,-1095.9 44.7,-1095.9"/>
</g>
<!-- public.patients -->
<g id="node3" class="node">
<title>public.patients</title>
<polygon fill="#efefef" stroke="none" points="95.95,-936.4 95.95,-972 389.34,-972 389.34,-936.4 95.95,-936.4"/>
<polygon fill="none" stroke="black" points="95.95,-936.4 95.95,-972 389.34,-972 389.34,-936.4 95.95,-936.4"/>
<text text-anchor="start" x="127.66" y="-949.8" font-family="Arial Bold" font-size="18.00">public.patients</text>
<text text-anchor="start" x="233.14" y="-949.8" font-family="Arial" font-size="14.00">    </text>
<text text-anchor="start" x="264.26" y="-949.8" font-family="Arial" font-size="14.00" fill="#666666">[BASE TABLE]</text>
<polygon fill="none" stroke="black" points="95.95,-905.6 95.95,-936.4 389.34,-936.4 389.34,-905.6 95.95,-905.6"/>
<text text-anchor="start" x="102.95" y="-917.8" font-family="Arial" font-size="14.00">id </text>
<text text-anchor="start" x="117.73" y="-917.8" font-family="Arial" font-size="14.00" fill="#666666">[bigint]</text>
<polygon fill="none" stroke="black" points="95.95,-874.8 95.95,-905.6 389.34,-905.6 389.34,-874.8 95.95,-874.8"/>
<text text-anchor="start" x="102.95" y="-887" font-family="Arial" font-size="14.00">code </text>
<text text-anchor="start" x="137.19" y="-887" font-family="Arial" font-size="14.00" fill="#666666">[varchar(100)]</text>
<polygon fill="none" stroke="black" points="95.95,-844 95.95,-874.8 389.34,-874.8 389.34,-844 95.95,-844"/>
<text text-anchor="start" x="102.95" y="-856.2" font-family="Arial" font-size="14.00">lis_patient_code </text>
<text text-anchor="start" x="208.02" y="-856.2" font-family="Arial" font-size="14.00" fill="#666666">[varchar(255)]</text>
<polygon fill="none" stroke="black" points="95.95,-813.2 95.95,-844 389.34,-844 389.34,-813.2 95.95,-813.2"/>
<text text-anchor="start" x="102.95" y="-825.4" font-family="Arial" font-size="14.00">client_patient_code </text>
<text text-anchor="start" x="227.48" y="-825.4" font-family="Arial" font-size="14.00" fill="#666666">[varchar(255)]</text>
<polygon fill="none" stroke="black" points="95.95,-782.4 95.95,-813.2 389.34,-813.2 389.34,-782.4 95.95,-782.4"/>
<text text-anchor="start" x="102.95" y="-794.6" font-family="Arial" font-size="14.00">full_name </text>
<text text-anchor="start" x="167.54" y="-794.6" font-family="Arial" font-size="14.00" fill="#666666">[varchar(255)]</text>
<polygon fill="none" stroke="black" points="95.95,-751.6 95.95,-782.4 389.34,-782.4 389.34,-751.6 95.95,-751.6"/>
<text text-anchor="start" x="102.95" y="-763.8" font-family="Arial" font-size="14.00">gender </text>
<text text-anchor="start" x="150.43" y="-763.8" font-family="Arial" font-size="14.00" fill="#666666">[varchar(20)]</text>
<polygon fill="none" stroke="black" points="95.95,-720.8 95.95,-751.6 389.34,-751.6 389.34,-720.8 95.95,-720.8"/>
<text text-anchor="start" x="102.95" y="-733" font-family="Arial" font-size="14.00">marital_status </text>
<text text-anchor="start" x="193.98" y="-733" font-family="Arial" font-size="14.00" fill="#666666">[varchar(20)]</text>
<polygon fill="none" stroke="black" points="95.95,-690 95.95,-720.8 389.34,-720.8 389.34,-690 95.95,-690"/>
<text text-anchor="start" x="102.95" y="-702.2" font-family="Arial" font-size="14.00">dob </text>
<text text-anchor="start" x="130.19" y="-702.2" font-family="Arial" font-size="14.00" fill="#666666">[date]</text>
<polygon fill="none" stroke="black" points="95.95,-659.2 95.95,-690 389.34,-690 389.34,-659.2 95.95,-659.2"/>
<text text-anchor="start" x="102.95" y="-671.4" font-family="Arial" font-size="14.00">phone_number </text>
<text text-anchor="start" x="201.02" y="-671.4" font-family="Arial" font-size="14.00" fill="#666666">[varchar(20)]</text>
<polygon fill="none" stroke="black" points="95.95,-628.4 95.95,-659.2 389.34,-659.2 389.34,-628.4 95.95,-628.4"/>
<text text-anchor="start" x="102.95" y="-640.6" font-family="Arial" font-size="14.00">email </text>
<text text-anchor="start" x="140.29" y="-640.6" font-family="Arial" font-size="14.00" fill="#666666">[varchar(255)]</text>
<polygon fill="none" stroke="black" points="95.95,-597.6 95.95,-628.4 389.34,-628.4 389.34,-597.6 95.95,-597.6"/>
<text text-anchor="start" x="102.95" y="-609.8" font-family="Arial" font-size="14.00">address </text>
<text text-anchor="start" x="156.64" y="-609.8" font-family="Arial" font-size="14.00" fill="#666666">[varchar(255)]</text>
<polygon fill="none" stroke="black" points="95.95,-566.8 95.95,-597.6 389.34,-597.6 389.34,-566.8 95.95,-566.8"/>
<text text-anchor="start" x="102.95" y="-579" font-family="Arial" font-size="14.00">ward </text>
<text text-anchor="start" x="137.18" y="-579" font-family="Arial" font-size="14.00" fill="#666666">[varchar(255)]</text>
<polygon fill="none" stroke="black" points="95.95,-536 95.95,-566.8 389.34,-566.8 389.34,-536 95.95,-536"/>
<text text-anchor="start" x="102.95" y="-548.2" font-family="Arial" font-size="14.00">district </text>
<text text-anchor="start" x="147.28" y="-548.2" font-family="Arial" font-size="14.00" fill="#666666">[varchar(255)]</text>
<polygon fill="none" stroke="black" points="95.95,-505.2 95.95,-536 389.34,-536 389.34,-505.2 95.95,-505.2"/>
<text text-anchor="start" x="102.95" y="-517.4" font-family="Arial" font-size="14.00">city </text>
<text text-anchor="start" x="127.83" y="-517.4" font-family="Arial" font-size="14.00" fill="#666666">[varchar(100)]</text>
<polygon fill="none" stroke="black" points="95.95,-474.4 95.95,-505.2 389.34,-505.2 389.34,-474.4 95.95,-474.4"/>
<text text-anchor="start" x="102.95" y="-486.6" font-family="Arial" font-size="14.00">country </text>
<text text-anchor="start" x="152.74" y="-486.6" font-family="Arial" font-size="14.00" fill="#666666">[varchar(60)]</text>
<polygon fill="none" stroke="black" points="95.95,-443.6 95.95,-474.4 389.34,-474.4 389.34,-443.6 95.95,-443.6"/>
<text text-anchor="start" x="102.95" y="-455.8" font-family="Arial" font-size="14.00">nationality </text>
<text text-anchor="start" x="169.88" y="-455.8" font-family="Arial" font-size="14.00" fill="#666666">[varchar(60)]</text>
<polygon fill="none" stroke="black" points="95.95,-412.8 95.95,-443.6 389.34,-443.6 389.34,-412.8 95.95,-412.8"/>
<text text-anchor="start" x="102.95" y="-425" font-family="Arial" font-size="14.00">id_number_type </text>
<text text-anchor="start" x="207.23" y="-425" font-family="Arial" font-size="14.00" fill="#666666">[varchar(20)]</text>
<polygon fill="none" stroke="black" points="95.95,-382 95.95,-412.8 389.34,-412.8 389.34,-382 95.95,-382"/>
<text text-anchor="start" x="102.95" y="-394.2" font-family="Arial" font-size="14.00">id_number </text>
<text text-anchor="start" x="172.99" y="-394.2" font-family="Arial" font-size="14.00" fill="#666666">[varchar(255)]</text>
<polygon fill="none" stroke="black" points="95.95,-351.2 95.95,-382 389.34,-382 389.34,-351.2 95.95,-351.2"/>
<text text-anchor="start" x="102.95" y="-363.4" font-family="Arial" font-size="14.00">created_at </text>
<text text-anchor="start" x="172.99" y="-363.4" font-family="Arial" font-size="14.00" fill="#666666">[timestamp(0) without time zone]</text>
<polygon fill="none" stroke="black" points="95.95,-320.4 95.95,-351.2 389.34,-351.2 389.34,-320.4 95.95,-320.4"/>
<text text-anchor="start" x="102.95" y="-332.6" font-family="Arial" font-size="14.00">updated_at </text>
<text text-anchor="start" x="176.9" y="-332.6" font-family="Arial" font-size="14.00" fill="#666666">[timestamp(0) without time zone]</text>
<polygon fill="none" stroke="black" points="95.95,-289.6 95.95,-320.4 389.34,-320.4 389.34,-289.6 95.95,-289.6"/>
<text text-anchor="start" x="102.95" y="-301.8" font-family="Arial" font-size="14.00">city_code </text>
<text text-anchor="start" x="165.98" y="-301.8" font-family="Arial" font-size="14.00" fill="#666666">[varchar(100)]</text>
<polygon fill="none" stroke="black" points="95.95,-258.8 95.95,-289.6 389.34,-289.6 389.34,-258.8 95.95,-258.8"/>
<text text-anchor="start" x="102.95" y="-271" font-family="Arial" font-size="14.00">district_code </text>
<text text-anchor="start" x="185.43" y="-271" font-family="Arial" font-size="14.00" fill="#666666">[varchar(100)]</text>
<polygon fill="none" stroke="black" points="95.95,-228 95.95,-258.8 389.34,-258.8 389.34,-228 95.95,-228"/>
<text text-anchor="start" x="102.95" y="-240.2" font-family="Arial" font-size="14.00">ward_code </text>
<text text-anchor="start" x="175.32" y="-240.2" font-family="Arial" font-size="14.00" fill="#666666">[varchar(100)]</text>
<polygon fill="none" stroke="black" points="95.95,-197.2 95.95,-228 389.34,-228 389.34,-197.2 95.95,-197.2"/>
<text text-anchor="start" x="102.95" y="-209.4" font-family="Arial" font-size="14.00">bank_account_name </text>
<text text-anchor="start" x="236.82" y="-209.4" font-family="Arial" font-size="14.00" fill="#666666">[varchar(255)]</text>
<polygon fill="none" stroke="black" points="95.95,-166.4 95.95,-197.2 389.34,-197.2 389.34,-166.4 95.95,-166.4"/>
<text text-anchor="start" x="102.95" y="-178.6" font-family="Arial" font-size="14.00">bank_name </text>
<text text-anchor="start" x="180" y="-178.6" font-family="Arial" font-size="14.00" fill="#666666">[varchar(255)]</text>
<polygon fill="none" stroke="black" points="95.95,-135.6 95.95,-166.4 389.34,-166.4 389.34,-135.6 95.95,-135.6"/>
<text text-anchor="start" x="102.95" y="-147.8" font-family="Arial" font-size="14.00">bank_account_number </text>
<text text-anchor="start" x="249.27" y="-147.8" font-family="Arial" font-size="14.00" fill="#666666">[varchar(255)]</text>
<polygon fill="none" stroke="black" points="95.95,-104.8 95.95,-135.6 389.34,-135.6 389.34,-104.8 95.95,-104.8"/>
<text text-anchor="start" x="102.95" y="-117" font-family="Arial" font-size="14.00">guardian_info </text>
<text text-anchor="start" x="191.68" y="-117" font-family="Arial" font-size="14.00" fill="#666666">[varchar(500)]</text>
<polygon fill="none" stroke="black" points="95.95,-74 95.95,-104.8 389.34,-104.8 389.34,-74 95.95,-74"/>
<text text-anchor="start" x="102.95" y="-86.2" font-family="Arial" font-size="14.00">patient_source </text>
<text text-anchor="start" x="198.68" y="-86.2" font-family="Arial" font-size="14.00" fill="#666666">[varchar(255)]</text>
<polygon fill="none" stroke="black" points="95.95,-43.2 95.95,-74 389.34,-74 389.34,-43.2 95.95,-43.2"/>
<text text-anchor="start" x="102.95" y="-55.4" font-family="Arial" font-size="14.00">expected_notification_channel </text>
<text text-anchor="start" x="295.2" y="-55.4" font-family="Arial" font-size="14.00" fill="#666666">[varchar(255)]</text>
</g>
<!-- public.patient_emergency_contacts&#45;&gt;public.patients -->
<g id="edge2" class="edge">
<title>public.patient_emergency_contacts:patient_id&#45;&gt;public.patients:id</title>
<path fill="none" stroke="black" d="M449.96,-1233.65C505.85,-1204.82 457.61,-921 390.34,-921"/>
<polygon fill="black" stroke="black" points="450.14,-1233.6 439.37,-1231.55 444.95,-1234.84 440.74,-1235.84 440.74,-1235.84 440.74,-1235.84 444.95,-1234.84 441.46,-1240.3 450.14,-1233.6"/>
<text text-anchor="start" x="447.09" y="-1246" font-family="Arial" font-size="10.00">FOREIGN KEY (patient_id) REFERENCES patients(id)</text>
</g>
<!-- public.orders -->
<g id="node2" class="node">
<title>public.orders</title>
<polygon fill="#efefef" stroke="none" points="60.94,-3229.6 60.94,-3265.2 424.35,-3265.2 424.35,-3229.6 60.94,-3229.6"/>
<polygon fill="none" stroke="black" points="60.94,-3229.6 60.94,-3265.2 424.35,-3265.2 424.35,-3229.6 60.94,-3229.6"/>
<text text-anchor="start" x="133.16" y="-3243" font-family="Arial Bold" font-size="18.00">public.orders</text>
<text text-anchor="start" x="227.64" y="-3243" font-family="Arial" font-size="14.00">    </text>
<text text-anchor="start" x="258.75" y="-3243" font-family="Arial" font-size="14.00" fill="#666666">[BASE TABLE]</text>
<polygon fill="none" stroke="black" points="60.94,-3198.8 60.94,-3229.6 424.35,-3229.6 424.35,-3198.8 60.94,-3198.8"/>
<text text-anchor="start" x="67.94" y="-3211" font-family="Arial" font-size="14.00">id </text>
<text text-anchor="start" x="82.72" y="-3211" font-family="Arial" font-size="14.00" fill="#666666">[bigint]</text>
<polygon fill="none" stroke="black" points="60.94,-3168 60.94,-3198.8 424.35,-3198.8 424.35,-3168 60.94,-3168"/>
<text text-anchor="start" x="67.94" y="-3180.2" font-family="Arial" font-size="14.00">code </text>
<text text-anchor="start" x="102.19" y="-3180.2" font-family="Arial" font-size="14.00" fill="#666666">[varchar(100)]</text>
<polygon fill="none" stroke="black" points="60.94,-3137.2 60.94,-3168 424.35,-3168 424.35,-3137.2 60.94,-3137.2"/>
<text text-anchor="start" x="67.94" y="-3149.4" font-family="Arial" font-size="14.00">booking_code </text>
<text text-anchor="start" x="159.01" y="-3149.4" font-family="Arial" font-size="14.00" fill="#666666">[varchar(100)]</text>
<polygon fill="none" stroke="black" points="60.94,-3106.4 60.94,-3137.2 424.35,-3137.2 424.35,-3106.4 60.94,-3106.4"/>
<text text-anchor="start" x="67.94" y="-3118.6" font-family="Arial" font-size="14.00">patient_id </text>
<text text-anchor="start" x="132.54" y="-3118.6" font-family="Arial" font-size="14.00" fill="#666666">[bigint]</text>
<polygon fill="none" stroke="black" points="60.94,-3075.6 60.94,-3106.4 424.35,-3106.4 424.35,-3075.6 60.94,-3075.6"/>
<text text-anchor="start" x="67.94" y="-3087.8" font-family="Arial" font-size="14.00">client_id </text>
<text text-anchor="start" x="123.19" y="-3087.8" font-family="Arial" font-size="14.00" fill="#666666">[bigint]</text>
<polygon fill="none" stroke="black" points="60.94,-3044.8 60.94,-3075.6 424.35,-3075.6 424.35,-3044.8 60.94,-3044.8"/>
<text text-anchor="start" x="67.94" y="-3057" font-family="Arial" font-size="14.00">lis_order_id </text>
<text text-anchor="start" x="144.2" y="-3057" font-family="Arial" font-size="14.00" fill="#666666">[varchar(255)]</text>
<polygon fill="none" stroke="black" points="60.94,-3014 60.94,-3044.8 424.35,-3044.8 424.35,-3014 60.94,-3014"/>
<text text-anchor="start" x="67.94" y="-3026.2" font-family="Arial" font-size="14.00">client_ext_reference_id </text>
<text text-anchor="start" x="216.59" y="-3026.2" font-family="Arial" font-size="14.00" fill="#666666">[varchar(100)]</text>
<polygon fill="none" stroke="black" points="60.94,-2983.2 60.94,-3014 424.35,-3014 424.35,-2983.2 60.94,-2983.2"/>
<text text-anchor="start" x="67.94" y="-2995.4" font-family="Arial" font-size="14.00">ex_patient_number </text>
<text text-anchor="start" x="191.69" y="-2995.4" font-family="Arial" font-size="14.00" fill="#666666">[varchar(255)]</text>
<polygon fill="none" stroke="black" points="60.94,-2952.4 60.94,-2983.2 424.35,-2983.2 424.35,-2952.4 60.94,-2952.4"/>
<text text-anchor="start" x="67.94" y="-2964.6" font-family="Arial" font-size="14.00">ref_dr </text>
<text text-anchor="start" x="108.4" y="-2964.6" font-family="Arial" font-size="14.00" fill="#666666">[varchar(255)]</text>
<polygon fill="none" stroke="black" points="60.94,-2921.6 60.94,-2952.4 424.35,-2952.4 424.35,-2921.6 60.94,-2921.6"/>
<text text-anchor="start" x="67.94" y="-2933.8" font-family="Arial" font-size="14.00">remarks </text>
<text text-anchor="start" x="122.39" y="-2933.8" font-family="Arial" font-size="14.00" fill="#666666">[text]</text>
<polygon fill="none" stroke="black" points="60.94,-2890.8 60.94,-2921.6 424.35,-2921.6 424.35,-2890.8 60.94,-2890.8"/>
<text text-anchor="start" x="67.94" y="-2903" font-family="Arial" font-size="14.00">is_additional_test </text>
<text text-anchor="start" x="180.01" y="-2903" font-family="Arial" font-size="14.00" fill="#666666">[boolean]</text>
<polygon fill="none" stroke="black" points="60.94,-2860 60.94,-2890.8 424.35,-2890.8 424.35,-2860 60.94,-2860"/>
<text text-anchor="start" x="67.94" y="-2872.2" font-family="Arial" font-size="14.00">history </text>
<text text-anchor="start" x="113.06" y="-2872.2" font-family="Arial" font-size="14.00" fill="#666666">[text]</text>
<polygon fill="none" stroke="black" points="60.94,-2829.2 60.94,-2860 424.35,-2860 424.35,-2829.2 60.94,-2829.2"/>
<text text-anchor="start" x="67.94" y="-2841.4" font-family="Arial" font-size="14.00">bulk_upload_id </text>
<text text-anchor="start" x="166.02" y="-2841.4" font-family="Arial" font-size="14.00" fill="#666666">[uuid]</text>
<polygon fill="none" stroke="black" points="60.94,-2798.4 60.94,-2829.2 424.35,-2829.2 424.35,-2798.4 60.94,-2798.4"/>
<text text-anchor="start" x="67.94" y="-2810.6" font-family="Arial" font-size="14.00">total </text>
<text text-anchor="start" x="98.29" y="-2810.6" font-family="Arial" font-size="14.00" fill="#666666">[double precision]</text>
<polygon fill="none" stroke="black" points="60.94,-2767.6 60.94,-2798.4 424.35,-2798.4 424.35,-2767.6 60.94,-2767.6"/>
<text text-anchor="start" x="67.94" y="-2779.8" font-family="Arial" font-size="14.00">branch_code </text>
<text text-anchor="start" x="152.78" y="-2779.8" font-family="Arial" font-size="14.00" fill="#666666">[varchar(100)]</text>
<polygon fill="none" stroke="black" points="60.94,-2736.8 60.94,-2767.6 424.35,-2767.6 424.35,-2736.8 60.94,-2736.8"/>
<text text-anchor="start" x="67.94" y="-2749" font-family="Arial" font-size="14.00">patient_code </text>
<text text-anchor="start" x="152.01" y="-2749" font-family="Arial" font-size="14.00" fill="#666666">[varchar(255)]</text>
<polygon fill="none" stroke="black" points="60.94,-2706 60.94,-2736.8 424.35,-2736.8 424.35,-2706 60.94,-2706"/>
<text text-anchor="start" x="67.94" y="-2718.2" font-family="Arial" font-size="14.00">patient_full_name </text>
<text text-anchor="start" x="182.35" y="-2718.2" font-family="Arial" font-size="14.00" fill="#666666">[varchar(255)]</text>
<polygon fill="none" stroke="black" points="60.94,-2675.2 60.94,-2706 424.35,-2706 424.35,-2675.2 60.94,-2675.2"/>
<text text-anchor="start" x="67.94" y="-2687.4" font-family="Arial" font-size="14.00">patient_gender </text>
<text text-anchor="start" x="165.24" y="-2687.4" font-family="Arial" font-size="14.00" fill="#666666">[varchar(20)]</text>
<polygon fill="none" stroke="black" points="60.94,-2644.4 60.94,-2675.2 424.35,-2675.2 424.35,-2644.4 60.94,-2644.4"/>
<text text-anchor="start" x="67.94" y="-2656.6" font-family="Arial" font-size="14.00">patient_marital_status </text>
<text text-anchor="start" x="208.79" y="-2656.6" font-family="Arial" font-size="14.00" fill="#666666">[varchar(20)]</text>
<polygon fill="none" stroke="black" points="60.94,-2613.6 60.94,-2644.4 424.35,-2644.4 424.35,-2613.6 60.94,-2613.6"/>
<text text-anchor="start" x="67.94" y="-2625.8" font-family="Arial" font-size="14.00">patient_dob </text>
<text text-anchor="start" x="145.01" y="-2625.8" font-family="Arial" font-size="14.00" fill="#666666">[date]</text>
<polygon fill="none" stroke="black" points="60.94,-2582.8 60.94,-2613.6 424.35,-2613.6 424.35,-2582.8 60.94,-2582.8"/>
<text text-anchor="start" x="67.94" y="-2595" font-family="Arial" font-size="14.00">patient_phone_number </text>
<text text-anchor="start" x="215.83" y="-2595" font-family="Arial" font-size="14.00" fill="#666666">[varchar(20)]</text>
<polygon fill="none" stroke="black" points="60.94,-2552 60.94,-2582.8 424.35,-2582.8 424.35,-2552 60.94,-2552"/>
<text text-anchor="start" x="67.94" y="-2564.2" font-family="Arial" font-size="14.00">patient_email </text>
<text text-anchor="start" x="155.1" y="-2564.2" font-family="Arial" font-size="14.00" fill="#666666">[varchar(255)]</text>
<polygon fill="none" stroke="black" points="60.94,-2521.2 60.94,-2552 424.35,-2552 424.35,-2521.2 60.94,-2521.2"/>
<text text-anchor="start" x="67.94" y="-2533.4" font-family="Arial" font-size="14.00">patient_address </text>
<text text-anchor="start" x="171.45" y="-2533.4" font-family="Arial" font-size="14.00" fill="#666666">[varchar(255)]</text>
<polygon fill="none" stroke="black" points="60.94,-2490.4 60.94,-2521.2 424.35,-2521.2 424.35,-2490.4 60.94,-2490.4"/>
<text text-anchor="start" x="67.94" y="-2502.6" font-family="Arial" font-size="14.00">patient_ward </text>
<text text-anchor="start" x="151.99" y="-2502.6" font-family="Arial" font-size="14.00" fill="#666666">[varchar(255)]</text>
<polygon fill="none" stroke="black" points="60.94,-2459.6 60.94,-2490.4 424.35,-2490.4 424.35,-2459.6 60.94,-2459.6"/>
<text text-anchor="start" x="67.94" y="-2471.8" font-family="Arial" font-size="14.00">patient_district </text>
<text text-anchor="start" x="162.1" y="-2471.8" font-family="Arial" font-size="14.00" fill="#666666">[varchar(255)]</text>
<polygon fill="none" stroke="black" points="60.94,-2428.8 60.94,-2459.6 424.35,-2459.6 424.35,-2428.8 60.94,-2428.8"/>
<text text-anchor="start" x="67.94" y="-2441" font-family="Arial" font-size="14.00">patient_city </text>
<text text-anchor="start" x="142.65" y="-2441" font-family="Arial" font-size="14.00" fill="#666666">[varchar(100)]</text>
<polygon fill="none" stroke="black" points="60.94,-2398 60.94,-2428.8 424.35,-2428.8 424.35,-2398 60.94,-2398"/>
<text text-anchor="start" x="67.94" y="-2410.2" font-family="Arial" font-size="14.00">patient_country </text>
<text text-anchor="start" x="167.56" y="-2410.2" font-family="Arial" font-size="14.00" fill="#666666">[varchar(60)]</text>
<polygon fill="none" stroke="black" points="60.94,-2367.2 60.94,-2398 424.35,-2398 424.35,-2367.2 60.94,-2367.2"/>
<text text-anchor="start" x="67.94" y="-2379.4" font-family="Arial" font-size="14.00">patient_nationality </text>
<text text-anchor="start" x="184.69" y="-2379.4" font-family="Arial" font-size="14.00" fill="#666666">[varchar(60)]</text>
<polygon fill="none" stroke="black" points="60.94,-2336.4 60.94,-2367.2 424.35,-2367.2 424.35,-2336.4 60.94,-2336.4"/>
<text text-anchor="start" x="67.94" y="-2348.6" font-family="Arial" font-size="14.00">patient_id_number_type </text>
<text text-anchor="start" x="222.05" y="-2348.6" font-family="Arial" font-size="14.00" fill="#666666">[varchar(20)]</text>
<polygon fill="none" stroke="black" points="60.94,-2305.6 60.94,-2336.4 424.35,-2336.4 424.35,-2305.6 60.94,-2305.6"/>
<text text-anchor="start" x="67.94" y="-2317.8" font-family="Arial" font-size="14.00">patient_id_number </text>
<text text-anchor="start" x="187.8" y="-2317.8" font-family="Arial" font-size="14.00" fill="#666666">[varchar(255)]</text>
<polygon fill="none" stroke="black" points="60.94,-2274.8 60.94,-2305.6 424.35,-2305.6 424.35,-2274.8 60.94,-2274.8"/>
<text text-anchor="start" x="67.94" y="-2287" font-family="Arial" font-size="14.00">created_by_employee_code </text>
<text text-anchor="start" x="247.73" y="-2287" font-family="Arial" font-size="14.00" fill="#666666">[varchar(100)]</text>
<polygon fill="none" stroke="black" points="60.94,-2244 60.94,-2274.8 424.35,-2274.8 424.35,-2244 60.94,-2244"/>
<text text-anchor="start" x="67.94" y="-2256.2" font-family="Arial" font-size="14.00">created_by_employee_email </text>
<text text-anchor="start" x="250.83" y="-2256.2" font-family="Arial" font-size="14.00" fill="#666666">[varchar(255)]</text>
<polygon fill="none" stroke="black" points="60.94,-2213.2 60.94,-2244 424.35,-2244 424.35,-2213.2 60.94,-2213.2"/>
<text text-anchor="start" x="67.94" y="-2225.4" font-family="Arial" font-size="14.00">created_at </text>
<text text-anchor="start" x="137.99" y="-2225.4" font-family="Arial" font-size="14.00" fill="#666666">[timestamp(0) without time zone]</text>
<polygon fill="none" stroke="black" points="60.94,-2182.4 60.94,-2213.2 424.35,-2213.2 424.35,-2182.4 60.94,-2182.4"/>
<text text-anchor="start" x="67.94" y="-2194.6" font-family="Arial" font-size="14.00">updated_at </text>
<text text-anchor="start" x="141.9" y="-2194.6" font-family="Arial" font-size="14.00" fill="#666666">[timestamp(0) without time zone]</text>
<polygon fill="none" stroke="black" points="60.94,-2151.6 60.94,-2182.4 424.35,-2182.4 424.35,-2151.6 60.94,-2151.6"/>
<text text-anchor="start" x="67.94" y="-2163.8" font-family="Arial" font-size="14.00">patient_salutation </text>
<text text-anchor="start" x="181.58" y="-2163.8" font-family="Arial" font-size="14.00" fill="#666666">[varchar(100)]</text>
<polygon fill="none" stroke="black" points="60.94,-2120.8 60.94,-2151.6 424.35,-2151.6 424.35,-2120.8 60.94,-2120.8"/>
<text text-anchor="start" x="67.94" y="-2133" font-family="Arial" font-size="14.00">status </text>
<text text-anchor="start" x="109.18" y="-2133" font-family="Arial" font-size="14.00" fill="#666666">[varchar(255)]</text>
<polygon fill="none" stroke="black" points="60.94,-2090 60.94,-2120.8 424.35,-2120.8 424.35,-2090 60.94,-2090"/>
<text text-anchor="start" x="67.94" y="-2102.2" font-family="Arial" font-size="14.00">billing_pdf </text>
<text text-anchor="start" x="134.88" y="-2102.2" font-family="Arial" font-size="14.00" fill="#666666">[varchar(255)]</text>
<polygon fill="none" stroke="black" points="60.94,-2059.2 60.94,-2090 424.35,-2090 424.35,-2059.2 60.94,-2059.2"/>
<text text-anchor="start" x="67.94" y="-2071.4" font-family="Arial" font-size="14.00">amount_received </text>
<text text-anchor="start" x="179.23" y="-2071.4" font-family="Arial" font-size="14.00" fill="#666666">[double precision]</text>
<polygon fill="none" stroke="black" points="60.94,-2028.4 60.94,-2059.2 424.35,-2059.2 424.35,-2028.4 60.94,-2028.4"/>
<text text-anchor="start" x="67.94" y="-2040.6" font-family="Arial" font-size="14.00">patient_insurance_detail_id </text>
<text text-anchor="start" x="242.29" y="-2040.6" font-family="Arial" font-size="14.00" fill="#666666">[bigint]</text>
<polygon fill="none" stroke="black" points="60.94,-1997.6 60.94,-2028.4 424.35,-2028.4 424.35,-1997.6 60.94,-1997.6"/>
<text text-anchor="start" x="67.94" y="-2009.8" font-family="Arial" font-size="14.00">direct_insurance_claim </text>
<text text-anchor="start" x="215.01" y="-2009.8" font-family="Arial" font-size="14.00" fill="#666666">[boolean]</text>
<polygon fill="none" stroke="black" points="60.94,-1966.8 60.94,-1997.6 424.35,-1997.6 424.35,-1966.8 60.94,-1966.8"/>
<text text-anchor="start" x="67.94" y="-1979" font-family="Arial" font-size="14.00">vat_required </text>
<text text-anchor="start" x="149.66" y="-1979" font-family="Arial" font-size="14.00" fill="#666666">[boolean]</text>
<polygon fill="none" stroke="black" points="60.94,-1936 60.94,-1966.8 424.35,-1966.8 424.35,-1936 60.94,-1936"/>
<text text-anchor="start" x="67.94" y="-1948.2" font-family="Arial" font-size="14.00">patient_guardian_info </text>
<text text-anchor="start" x="206.5" y="-1948.2" font-family="Arial" font-size="14.00" fill="#666666">[varchar(500)]</text>
<polygon fill="none" stroke="black" points="60.94,-1905.2 60.94,-1936 424.35,-1936 424.35,-1905.2 60.94,-1905.2"/>
<text text-anchor="start" x="67.94" y="-1917.4" font-family="Arial" font-size="14.00">promotions </text>
<text text-anchor="start" x="141.08" y="-1917.4" font-family="Arial" font-size="14.00" fill="#666666">[json]</text>
<polygon fill="none" stroke="black" points="60.94,-1874.4 60.94,-1905.2 424.35,-1905.2 424.35,-1874.4 60.94,-1874.4"/>
<text text-anchor="start" x="67.94" y="-1886.6" font-family="Arial" font-size="14.00">order_placed_option </text>
<text text-anchor="start" x="199.48" y="-1886.6" font-family="Arial" font-size="14.00" fill="#666666">[varchar(255)]</text>
<polygon fill="none" stroke="black" points="60.94,-1843.6 60.94,-1874.4 424.35,-1874.4 424.35,-1843.6 60.94,-1843.6"/>
<text text-anchor="start" x="67.94" y="-1855.8" font-family="Arial" font-size="14.00">reject_identity_reason </text>
<text text-anchor="start" x="208.8" y="-1855.8" font-family="Arial" font-size="14.00" fill="#666666">[text]</text>
<polygon fill="none" stroke="black" points="60.94,-1812.8 60.94,-1843.6 424.35,-1843.6 424.35,-1812.8 60.94,-1812.8"/>
<text text-anchor="start" x="67.94" y="-1825" font-family="Arial" font-size="14.00">otp </text>
<text text-anchor="start" x="91.29" y="-1825" font-family="Arial" font-size="14.00" fill="#666666">[text]</text>
<polygon fill="none" stroke="black" points="60.94,-1782 60.94,-1812.8 424.35,-1812.8 424.35,-1782 60.94,-1782"/>
<text text-anchor="start" x="67.94" y="-1794.2" font-family="Arial" font-size="14.00">otp_expired_at </text>
<text text-anchor="start" x="164.45" y="-1794.2" font-family="Arial" font-size="14.00" fill="#666666">[timestamp(0) without time zone]</text>
<polygon fill="none" stroke="black" points="60.94,-1751.2 60.94,-1782 424.35,-1782 424.35,-1751.2 60.94,-1751.2"/>
<text text-anchor="start" x="67.94" y="-1763.4" font-family="Arial" font-size="14.00">cancel_reason </text>
<text text-anchor="start" x="162.89" y="-1763.4" font-family="Arial" font-size="14.00" fill="#666666">[varchar(255)]</text>
<polygon fill="none" stroke="black" points="60.94,-1720.4 60.94,-1751.2 424.35,-1751.2 424.35,-1720.4 60.94,-1720.4"/>
<text text-anchor="start" x="67.94" y="-1732.6" font-family="Arial" font-size="14.00">emergency_contact </text>
<text text-anchor="start" x="194.01" y="-1732.6" font-family="Arial" font-size="14.00" fill="#666666">[boolean]</text>
<polygon fill="none" stroke="black" points="60.94,-1689.6 60.94,-1720.4 424.35,-1720.4 424.35,-1689.6 60.94,-1689.6"/>
<text text-anchor="start" x="67.94" y="-1701.8" font-family="Arial" font-size="14.00">emergency_contact_off_reason </text>
<text text-anchor="start" x="267.95" y="-1701.8" font-family="Arial" font-size="14.00" fill="#666666">[varchar(255)]</text>
<polygon fill="none" stroke="black" points="60.94,-1658.8 60.94,-1689.6 424.35,-1689.6 424.35,-1658.8 60.94,-1658.8"/>
<text text-anchor="start" x="67.94" y="-1671" font-family="Arial" font-size="14.00">patient_emergency_contact_id </text>
<text text-anchor="start" x="262.51" y="-1671" font-family="Arial" font-size="14.00" fill="#666666">[bigint]</text>
<polygon fill="none" stroke="black" points="60.94,-1628 60.94,-1658.8 424.35,-1658.8 424.35,-1628 60.94,-1628"/>
<text text-anchor="start" x="67.94" y="-1640.2" font-family="Arial" font-size="14.00">billing_last_updated_at </text>
<text text-anchor="start" x="215.05" y="-1640.2" font-family="Arial" font-size="14.00" fill="#666666">[timestamp(0) without time zone]</text>
<polygon fill="none" stroke="black" points="60.94,-1597.2 60.94,-1628 424.35,-1628 424.35,-1597.2 60.94,-1597.2"/>
<text text-anchor="start" x="67.94" y="-1609.4" font-family="Arial" font-size="14.00">cancel_by </text>
<text text-anchor="start" x="134.87" y="-1609.4" font-family="Arial" font-size="14.00" fill="#666666">[varchar(255)]</text>
<polygon fill="none" stroke="black" points="60.94,-1566.4 60.94,-1597.2 424.35,-1597.2 424.35,-1566.4 60.94,-1566.4"/>
<text text-anchor="start" x="67.94" y="-1578.6" font-family="Arial" font-size="14.00">cancel_time </text>
<text text-anchor="start" x="146.53" y="-1578.6" font-family="Arial" font-size="14.00" fill="#666666">[timestamp(0) without time zone]</text>
<polygon fill="none" stroke="black" points="60.94,-1535.6 60.94,-1566.4 424.35,-1566.4 424.35,-1535.6 60.94,-1535.6"/>
<text text-anchor="start" x="67.94" y="-1547.8" font-family="Arial" font-size="14.00">stat </text>
<text text-anchor="start" x="94.39" y="-1547.8" font-family="Arial" font-size="14.00" fill="#666666">[boolean]</text>
<polygon fill="none" stroke="black" points="60.94,-1504.8 60.94,-1535.6 424.35,-1535.6 424.35,-1504.8 60.94,-1504.8"/>
<text text-anchor="start" x="67.94" y="-1517" font-family="Arial" font-size="14.00">purchase_order_code </text>
<text text-anchor="start" x="208.03" y="-1517" font-family="Arial" font-size="14.00" fill="#666666">[varchar(255)]</text>
<polygon fill="none" stroke="black" points="60.94,-1474 60.94,-1504.8 424.35,-1504.8 424.35,-1474 60.94,-1474"/>
<text text-anchor="start" x="67.94" y="-1486.2" font-family="Arial" font-size="14.00">trashed_booking_code </text>
<text text-anchor="start" x="213.5" y="-1486.2" font-family="Arial" font-size="14.00" fill="#666666">[varchar(255)]</text>
<polygon fill="none" stroke="black" points="60.94,-1443.2 60.94,-1474 424.35,-1474 424.35,-1443.2 60.94,-1443.2"/>
<text text-anchor="start" x="67.94" y="-1455.4" font-family="Arial" font-size="14.00">trashed_booking_code_usage_reason </text>
<text text-anchor="start" x="310.02" y="-1455.4" font-family="Arial" font-size="14.00" fill="#666666">[varchar(255)]</text>
</g>
<!-- public.orders&#45;&gt;public.patient_emergency_contacts -->
<g id="edge1" class="edge">
<title>public.orders:patient_emergency_contact_id&#45;&gt;public.patient_emergency_contacts:id</title>
<path fill="none" stroke="black" d="M435.62,-1672.38C516.93,-1642.99 527.14,-1266.8 440.09,-1266.8"/>
<polygon fill="black" stroke="black" points="435.53,-1672.4 424.9,-1669.71 430.27,-1673.33 426.01,-1674.08 426.01,-1674.08 426.01,-1674.08 430.27,-1673.33 426.46,-1678.57 435.53,-1672.4"/>
<text text-anchor="start" x="432.35" y="-1684.2" font-family="Arial" font-size="10.00">FOREIGN KEY (patient_emergency_contact_id) REFERENCES patient_emergency_contacts(id)</text>
</g>
</g>
</svg>
