<?xml version="1.0" encoding="UTF-8" standalone="no"?>
<!DOCTYPE svg PUBLIC "-//W3C//DTD SVG 1.1//EN"
 "http://www.w3.org/Graphics/SVG/1.1/DTD/svg11.dtd">
<!-- Generated by graphviz version 12.1.2 (20240928.0832)
 -->
<!-- Title: public.rate_card_details Pages: 1 -->
<svg width="649pt" height="664pt"
 viewBox="0.00 0.00 649.08 663.60" xmlns="http://www.w3.org/2000/svg" xmlns:xlink="http://www.w3.org/1999/xlink">
<g id="graph0" class="graph" transform="scale(1 1) rotate(0) translate(4 659.6)">
<title>public.rate_card_details</title>
<polygon fill="white" stroke="none" points="-4,4 -4,-659.6 645.08,-659.6 645.08,4 -4,4"/>
<!-- public.rate_card_details -->
<g id="node1" class="node">
<title>public.rate_card_details</title>
<polygon fill="#efefef" stroke="none" points="46.2,-573.8 46.2,-609.4 357.11,-609.4 357.11,-573.8 46.2,-573.8"/>
<polygon fill="none" stroke="black" points="46.2,-573.8 46.2,-609.4 357.11,-609.4 357.11,-573.8 46.2,-573.8"/>
<text text-anchor="start" x="53.2" y="-587.2" font-family="Arial Bold" font-size="18.00">public.rate_card_details</text>
<text text-anchor="start" x="225.62" y="-587.2" font-family="Arial" font-size="14.00">    </text>
<text text-anchor="start" x="256.74" y="-587.2" font-family="Arial" font-size="14.00" fill="#666666">[BASE TABLE]</text>
<polygon fill="none" stroke="black" points="46.2,-543 46.2,-573.8 357.11,-573.8 357.11,-543 46.2,-543"/>
<text text-anchor="start" x="53.2" y="-555.2" font-family="Arial" font-size="14.00">id </text>
<text text-anchor="start" x="67.99" y="-555.2" font-family="Arial" font-size="14.00" fill="#666666">[bigint]</text>
<polygon fill="none" stroke="black" points="46.2,-512.2 46.2,-543 357.11,-543 357.11,-512.2 46.2,-512.2"/>
<text text-anchor="start" x="53.2" y="-524.4" font-family="Arial" font-size="14.00">rate_card_id </text>
<text text-anchor="start" x="134.92" y="-524.4" font-family="Arial" font-size="14.00" fill="#666666">[bigint]</text>
<polygon fill="none" stroke="black" points="46.2,-481.4 46.2,-512.2 357.11,-512.2 357.11,-481.4 46.2,-481.4"/>
<text text-anchor="start" x="53.2" y="-493.6" font-family="Arial" font-size="14.00">test_code </text>
<text text-anchor="start" x="117.8" y="-493.6" font-family="Arial" font-size="14.00" fill="#666666">[varchar(100)]</text>
<polygon fill="none" stroke="black" points="46.2,-450.6 46.2,-481.4 357.11,-481.4 357.11,-450.6 46.2,-450.6"/>
<text text-anchor="start" x="53.2" y="-462.8" font-family="Arial" font-size="14.00">price </text>
<text text-anchor="start" x="87.43" y="-462.8" font-family="Arial" font-size="14.00" fill="#666666">[double precision]</text>
<polygon fill="none" stroke="black" points="46.2,-419.8 46.2,-450.6 357.11,-450.6 357.11,-419.8 46.2,-419.8"/>
<text text-anchor="start" x="53.2" y="-432" font-family="Arial" font-size="14.00">status </text>
<text text-anchor="start" x="94.44" y="-432" font-family="Arial" font-size="14.00" fill="#666666">[varchar(100)]</text>
<polygon fill="none" stroke="black" points="46.2,-389 46.2,-419.8 357.11,-419.8 357.11,-389 46.2,-389"/>
<text text-anchor="start" x="53.2" y="-401.2" font-family="Arial" font-size="14.00">created_at </text>
<text text-anchor="start" x="123.25" y="-401.2" font-family="Arial" font-size="14.00" fill="#666666">[timestamp(0) without time zone]</text>
<polygon fill="none" stroke="black" points="46.2,-358.2 46.2,-389 357.11,-389 357.11,-358.2 46.2,-358.2"/>
<text text-anchor="start" x="53.2" y="-370.4" font-family="Arial" font-size="14.00">updated_at </text>
<text text-anchor="start" x="127.16" y="-370.4" font-family="Arial" font-size="14.00" fill="#666666">[timestamp(0) without time zone]</text>
<polygon fill="none" stroke="black" stroke-width="3" points="44.7,-356.7 44.7,-610.9 358.61,-610.9 358.61,-356.7 44.7,-356.7"/>
</g>
<!-- public.rate_cards -->
<g id="node2" class="node">
<title>public.rate_cards</title>
<polygon fill="#efefef" stroke="none" points="56.53,-197.2 56.53,-232.8 346.78,-232.8 346.78,-197.2 56.53,-197.2"/>
<polygon fill="none" stroke="black" points="56.53,-197.2 56.53,-232.8 346.78,-232.8 346.78,-197.2 56.53,-197.2"/>
<text text-anchor="start" x="77.69" y="-210.6" font-family="Arial Bold" font-size="18.00">public.rate_cards</text>
<text text-anchor="start" x="201.13" y="-210.6" font-family="Arial" font-size="14.00">    </text>
<text text-anchor="start" x="232.25" y="-210.6" font-family="Arial" font-size="14.00" fill="#666666">[BASE TABLE]</text>
<polygon fill="none" stroke="black" points="56.53,-166.4 56.53,-197.2 346.78,-197.2 346.78,-166.4 56.53,-166.4"/>
<text text-anchor="start" x="63.53" y="-178.6" font-family="Arial" font-size="14.00">id </text>
<text text-anchor="start" x="78.32" y="-178.6" font-family="Arial" font-size="14.00" fill="#666666">[bigint]</text>
<polygon fill="none" stroke="black" points="56.53,-135.6 56.53,-166.4 346.78,-166.4 346.78,-135.6 56.53,-135.6"/>
<text text-anchor="start" x="63.53" y="-147.8" font-family="Arial" font-size="14.00">created_at </text>
<text text-anchor="start" x="133.58" y="-147.8" font-family="Arial" font-size="14.00" fill="#666666">[timestamp(0) without time zone]</text>
<polygon fill="none" stroke="black" points="56.53,-104.8 56.53,-135.6 346.78,-135.6 346.78,-104.8 56.53,-104.8"/>
<text text-anchor="start" x="63.53" y="-117" font-family="Arial" font-size="14.00">updated_at </text>
<text text-anchor="start" x="137.49" y="-117" font-family="Arial" font-size="14.00" fill="#666666">[timestamp(0) without time zone]</text>
<polygon fill="none" stroke="black" points="56.53,-74 56.53,-104.8 346.78,-104.8 346.78,-74 56.53,-74"/>
<text text-anchor="start" x="63.53" y="-86.2" font-family="Arial" font-size="14.00">code </text>
<text text-anchor="start" x="97.78" y="-86.2" font-family="Arial" font-size="14.00" fill="#666666">[varchar(255)]</text>
<polygon fill="none" stroke="black" points="56.53,-43.2 56.53,-74 346.78,-74 346.78,-43.2 56.53,-43.2"/>
<text text-anchor="start" x="63.53" y="-55.4" font-family="Arial" font-size="14.00">description </text>
<text text-anchor="start" x="135.12" y="-55.4" font-family="Arial" font-size="14.00" fill="#666666">[text]</text>
</g>
<!-- public.rate_card_details&#45;&gt;public.rate_cards -->
<g id="edge1" class="edge">
<title>public.rate_card_details:rate_card_id&#45;&gt;public.rate_cards:id</title>
<path fill="none" stroke="black" d="M367.95,-525.57C433.93,-497.23 421.21,-181.8 347.78,-181.8"/>
<polygon fill="black" stroke="black" points="368.23,-525.51 357.53,-523.13 363.01,-526.59 358.77,-527.46 358.77,-527.46 358.77,-527.46 363.01,-526.59 359.35,-531.94 368.23,-525.51"/>
<text text-anchor="start" x="365.11" y="-537.6" font-family="Arial" font-size="10.00">FOREIGN KEY (rate_card_id) REFERENCES rate_cards(id)</text>
</g>
</g>
</svg>
