<?xml version="1.0" encoding="UTF-8" standalone="no"?>
<!DOCTYPE svg PUBLIC "-//W3C//DTD SVG 1.1//EN"
 "http://www.w3.org/Graphics/SVG/1.1/DTD/svg11.dtd">
<!-- Generated by graphviz version 12.1.2 (20240928.0832)
 -->
<!-- Title: public.rate_card_bulk_uploads Pages: 1 -->
<svg width="927pt" height="818pt"
 viewBox="0.00 0.00 926.84 817.60" xmlns="http://www.w3.org/2000/svg" xmlns:xlink="http://www.w3.org/1999/xlink">
<g id="graph0" class="graph" transform="scale(1 1) rotate(0) translate(4 813.6)">
<title>public.rate_card_bulk_uploads</title>
<polygon fill="white" stroke="none" points="-4,4 -4,-813.6 922.84,-813.6 922.84,4 -4,4"/>
<!-- public.rate_card_bulk_uploads -->
<g id="node1" class="node">
<title>public.rate_card_bulk_uploads</title>
<polygon fill="#efefef" stroke="none" points="67.69,-292.6 67.69,-328.2 428.61,-328.2 428.61,-292.6 67.69,-292.6"/>
<polygon fill="none" stroke="black" points="67.69,-292.6 67.69,-328.2 428.61,-328.2 428.61,-292.6 67.69,-292.6"/>
<text text-anchor="start" x="74.69" y="-306" font-family="Arial Bold" font-size="18.00">public.rate_card_bulk_uploads</text>
<text text-anchor="start" x="297.12" y="-306" font-family="Arial" font-size="14.00">    </text>
<text text-anchor="start" x="328.24" y="-306" font-family="Arial" font-size="14.00" fill="#666666">[BASE TABLE]</text>
<polygon fill="none" stroke="black" points="67.69,-261.8 67.69,-292.6 428.61,-292.6 428.61,-261.8 67.69,-261.8"/>
<text text-anchor="start" x="74.69" y="-274" font-family="Arial" font-size="14.00">id </text>
<text text-anchor="start" x="89.48" y="-274" font-family="Arial" font-size="14.00" fill="#666666">[bigint]</text>
<polygon fill="none" stroke="black" points="67.69,-231 67.69,-261.8 428.61,-261.8 428.61,-231 67.69,-231"/>
<text text-anchor="start" x="74.69" y="-243.2" font-family="Arial" font-size="14.00">file_path </text>
<text text-anchor="start" x="131.51" y="-243.2" font-family="Arial" font-size="14.00" fill="#666666">[varchar(255)]</text>
<polygon fill="none" stroke="black" points="67.69,-200.2 67.69,-231 428.61,-231 428.61,-200.2 67.69,-200.2"/>
<text text-anchor="start" x="74.69" y="-212.4" font-family="Arial" font-size="14.00">status </text>
<text text-anchor="start" x="115.93" y="-212.4" font-family="Arial" font-size="14.00" fill="#666666">[varchar(255)]</text>
<polygon fill="none" stroke="black" points="67.69,-169.4 67.69,-200.2 428.61,-200.2 428.61,-169.4 67.69,-169.4"/>
<text text-anchor="start" x="74.69" y="-181.6" font-family="Arial" font-size="14.00">created_by </text>
<text text-anchor="start" x="147.85" y="-181.6" font-family="Arial" font-size="14.00" fill="#666666">[varchar(255)]</text>
<polygon fill="none" stroke="black" points="67.69,-138.6 67.69,-169.4 428.61,-169.4 428.61,-138.6 67.69,-138.6"/>
<text text-anchor="start" x="74.69" y="-150.8" font-family="Arial" font-size="14.00">created_at </text>
<text text-anchor="start" x="144.74" y="-150.8" font-family="Arial" font-size="14.00" fill="#666666">[timestamp(0) without time zone]</text>
<polygon fill="none" stroke="black" points="67.69,-107.8 67.69,-138.6 428.61,-138.6 428.61,-107.8 67.69,-107.8"/>
<text text-anchor="start" x="74.69" y="-120" font-family="Arial" font-size="14.00">updated_at </text>
<text text-anchor="start" x="148.65" y="-120" font-family="Arial" font-size="14.00" fill="#666666">[timestamp(0) without time zone]</text>
<polygon fill="none" stroke="black" points="67.69,-77 67.69,-107.8 428.61,-107.8 428.61,-77 67.69,-77"/>
<text text-anchor="start" x="74.69" y="-89.2" font-family="Arial" font-size="14.00">deleted_at </text>
<text text-anchor="start" x="143.97" y="-89.2" font-family="Arial" font-size="14.00" fill="#666666">[timestamp(0) without time zone]</text>
<polygon fill="none" stroke="black" points="67.69,-46.2 67.69,-77 428.61,-77 428.61,-46.2 67.69,-46.2"/>
<text text-anchor="start" x="74.69" y="-58.4" font-family="Arial" font-size="14.00">type </text>
<text text-anchor="start" x="105.04" y="-58.4" font-family="Arial" font-size="14.00" fill="#666666">[varchar(255)]</text>
<polygon fill="none" stroke="black" stroke-width="3" points="66.19,-44.7 66.19,-329.7 430.11,-329.7 430.11,-44.7 66.19,-44.7"/>
</g>
<!-- public.rate_card_bulk_upload_details -->
<g id="node2" class="node">
<title>public.rate_card_bulk_upload_details</title>
<polygon fill="#efefef" stroke="none" points="43.2,-730.8 43.2,-766.4 453.1,-766.4 453.1,-730.8 43.2,-730.8"/>
<polygon fill="none" stroke="black" points="43.2,-730.8 43.2,-766.4 453.1,-766.4 453.1,-730.8 43.2,-730.8"/>
<text text-anchor="start" x="50.2" y="-744.2" font-family="Arial Bold" font-size="18.00">public.rate_card_bulk_upload_details</text>
<text text-anchor="start" x="321.62" y="-744.2" font-family="Arial" font-size="14.00">    </text>
<text text-anchor="start" x="352.73" y="-744.2" font-family="Arial" font-size="14.00" fill="#666666">[BASE TABLE]</text>
<polygon fill="none" stroke="black" points="43.2,-700 43.2,-730.8 453.1,-730.8 453.1,-700 43.2,-700"/>
<text text-anchor="start" x="50.2" y="-712.2" font-family="Arial" font-size="14.00">id </text>
<text text-anchor="start" x="64.99" y="-712.2" font-family="Arial" font-size="14.00" fill="#666666">[bigint]</text>
<polygon fill="none" stroke="black" points="43.2,-669.2 43.2,-700 453.1,-700 453.1,-669.2 43.2,-669.2"/>
<text text-anchor="start" x="50.2" y="-681.4" font-family="Arial" font-size="14.00">bulk_upload_id </text>
<text text-anchor="start" x="148.28" y="-681.4" font-family="Arial" font-size="14.00" fill="#666666">[bigint]</text>
<polygon fill="none" stroke="black" points="43.2,-638.4 43.2,-669.2 453.1,-669.2 453.1,-638.4 43.2,-638.4"/>
<text text-anchor="start" x="50.2" y="-650.6" font-family="Arial" font-size="14.00">row_number </text>
<text text-anchor="start" x="131.9" y="-650.6" font-family="Arial" font-size="14.00" fill="#666666">[integer]</text>
<polygon fill="none" stroke="black" points="43.2,-607.6 43.2,-638.4 453.1,-638.4 453.1,-607.6 43.2,-607.6"/>
<text text-anchor="start" x="50.2" y="-619.8" font-family="Arial" font-size="14.00">row_data </text>
<text text-anchor="start" x="111.68" y="-619.8" font-family="Arial" font-size="14.00" fill="#666666">[json]</text>
<polygon fill="none" stroke="black" points="43.2,-576.8 43.2,-607.6 453.1,-607.6 453.1,-576.8 43.2,-576.8"/>
<text text-anchor="start" x="50.2" y="-589" font-family="Arial" font-size="14.00">status </text>
<text text-anchor="start" x="91.44" y="-589" font-family="Arial" font-size="14.00" fill="#666666">[varchar(255)]</text>
<polygon fill="none" stroke="black" points="43.2,-546 43.2,-576.8 453.1,-576.8 453.1,-546 43.2,-546"/>
<text text-anchor="start" x="50.2" y="-558.2" font-family="Arial" font-size="14.00">error </text>
<text text-anchor="start" x="83.65" y="-558.2" font-family="Arial" font-size="14.00" fill="#666666">[json]</text>
<polygon fill="none" stroke="black" points="43.2,-515.2 43.2,-546 453.1,-546 453.1,-515.2 43.2,-515.2"/>
<text text-anchor="start" x="50.2" y="-527.4" font-family="Arial" font-size="14.00">created_at </text>
<text text-anchor="start" x="120.25" y="-527.4" font-family="Arial" font-size="14.00" fill="#666666">[timestamp(0) without time zone]</text>
<polygon fill="none" stroke="black" points="43.2,-484.4 43.2,-515.2 453.1,-515.2 453.1,-484.4 43.2,-484.4"/>
<text text-anchor="start" x="50.2" y="-496.6" font-family="Arial" font-size="14.00">updated_at </text>
<text text-anchor="start" x="124.16" y="-496.6" font-family="Arial" font-size="14.00" fill="#666666">[timestamp(0) without time zone]</text>
<polygon fill="none" stroke="black" points="43.2,-453.6 43.2,-484.4 453.1,-484.4 453.1,-453.6 43.2,-453.6"/>
<text text-anchor="start" x="50.2" y="-465.8" font-family="Arial" font-size="14.00">deleted_at </text>
<text text-anchor="start" x="119.48" y="-465.8" font-family="Arial" font-size="14.00" fill="#666666">[timestamp(0) without time zone]</text>
</g>
<!-- public.rate_card_bulk_upload_details&#45;&gt;public.rate_card_bulk_uploads -->
<g id="edge1" class="edge">
<title>public.rate_card_bulk_upload_details:bulk_upload_id&#45;&gt;public.rate_card_bulk_uploads:id</title>
<path fill="none" stroke="black" d="M464.21,-682.78C542.79,-653.39 516.77,-277.2 429.61,-277.2"/>
<polygon fill="black" stroke="black" points="464.28,-682.77 453.64,-680.11 459.03,-683.72 454.76,-684.48 454.76,-684.48 454.76,-684.48 459.03,-683.72 455.23,-688.97 464.28,-682.77"/>
<text text-anchor="start" x="461.1" y="-694.6" font-family="Arial" font-size="10.00">FOREIGN KEY (bulk_upload_id) REFERENCES rate_card_bulk_uploads(id) ON DELETE CASCADE</text>
</g>
</g>
</svg>
