<?xml version="1.0" encoding="UTF-8" standalone="no"?>
<!DOCTYPE svg PUBLIC "-//W3C//DTD SVG 1.1//EN"
 "http://www.w3.org/Graphics/SVG/1.1/DTD/svg11.dtd">
<!-- Generated by graphviz version 12.1.2 (20240928.0832)
 -->
<!-- Title: public.rate_cards Pages: 1 -->
<svg width="820pt" height="694pt"
 viewBox="0.00 0.00 820.31 694.40" xmlns="http://www.w3.org/2000/svg" xmlns:xlink="http://www.w3.org/1999/xlink">
<g id="graph0" class="graph" transform="scale(1 1) rotate(0) translate(4 690.4)">
<title>public.rate_cards</title>
<polygon fill="white" stroke="none" points="-4,4 -4,-690.4 816.31,-690.4 816.31,4 -4,4"/>
<!-- public.rate_cards -->
<g id="node1" class="node">
<title>public.rate_cards</title>
<polygon fill="#efefef" stroke="none" points="260.53,-200.2 260.53,-235.8 550.78,-235.8 550.78,-200.2 260.53,-200.2"/>
<polygon fill="none" stroke="black" points="260.53,-200.2 260.53,-235.8 550.78,-235.8 550.78,-200.2 260.53,-200.2"/>
<text text-anchor="start" x="281.69" y="-213.6" font-family="Arial Bold" font-size="18.00">public.rate_cards</text>
<text text-anchor="start" x="405.13" y="-213.6" font-family="Arial" font-size="14.00">    </text>
<text text-anchor="start" x="436.25" y="-213.6" font-family="Arial" font-size="14.00" fill="#666666">[BASE TABLE]</text>
<polygon fill="none" stroke="black" points="260.53,-169.4 260.53,-200.2 550.78,-200.2 550.78,-169.4 260.53,-169.4"/>
<text text-anchor="start" x="267.53" y="-181.6" font-family="Arial" font-size="14.00">id </text>
<text text-anchor="start" x="282.32" y="-181.6" font-family="Arial" font-size="14.00" fill="#666666">[bigint]</text>
<polygon fill="none" stroke="black" points="260.53,-138.6 260.53,-169.4 550.78,-169.4 550.78,-138.6 260.53,-138.6"/>
<text text-anchor="start" x="267.53" y="-150.8" font-family="Arial" font-size="14.00">created_at </text>
<text text-anchor="start" x="337.58" y="-150.8" font-family="Arial" font-size="14.00" fill="#666666">[timestamp(0) without time zone]</text>
<polygon fill="none" stroke="black" points="260.53,-107.8 260.53,-138.6 550.78,-138.6 550.78,-107.8 260.53,-107.8"/>
<text text-anchor="start" x="267.53" y="-120" font-family="Arial" font-size="14.00">updated_at </text>
<text text-anchor="start" x="341.49" y="-120" font-family="Arial" font-size="14.00" fill="#666666">[timestamp(0) without time zone]</text>
<polygon fill="none" stroke="black" points="260.53,-77 260.53,-107.8 550.78,-107.8 550.78,-77 260.53,-77"/>
<text text-anchor="start" x="267.53" y="-89.2" font-family="Arial" font-size="14.00">code </text>
<text text-anchor="start" x="301.78" y="-89.2" font-family="Arial" font-size="14.00" fill="#666666">[varchar(255)]</text>
<polygon fill="none" stroke="black" points="260.53,-46.2 260.53,-77 550.78,-77 550.78,-46.2 260.53,-46.2"/>
<text text-anchor="start" x="267.53" y="-58.4" font-family="Arial" font-size="14.00">description </text>
<text text-anchor="start" x="339.12" y="-58.4" font-family="Arial" font-size="14.00" fill="#666666">[text]</text>
<polygon fill="none" stroke="black" stroke-width="3" points="259.03,-44.7 259.03,-237.3 552.28,-237.3 552.28,-44.7 259.03,-44.7"/>
</g>
<!-- public.rate_card_details -->
<g id="node2" class="node">
<title>public.rate_card_details</title>
<polygon fill="#efefef" stroke="none" points="43.2,-592.2 43.2,-627.8 354.11,-627.8 354.11,-592.2 43.2,-592.2"/>
<polygon fill="none" stroke="black" points="43.2,-592.2 43.2,-627.8 354.11,-627.8 354.11,-592.2 43.2,-592.2"/>
<text text-anchor="start" x="50.2" y="-605.6" font-family="Arial Bold" font-size="18.00">public.rate_card_details</text>
<text text-anchor="start" x="222.62" y="-605.6" font-family="Arial" font-size="14.00">    </text>
<text text-anchor="start" x="253.74" y="-605.6" font-family="Arial" font-size="14.00" fill="#666666">[BASE TABLE]</text>
<polygon fill="none" stroke="black" points="43.2,-561.4 43.2,-592.2 354.11,-592.2 354.11,-561.4 43.2,-561.4"/>
<text text-anchor="start" x="50.2" y="-573.6" font-family="Arial" font-size="14.00">id </text>
<text text-anchor="start" x="64.99" y="-573.6" font-family="Arial" font-size="14.00" fill="#666666">[bigint]</text>
<polygon fill="none" stroke="black" points="43.2,-530.6 43.2,-561.4 354.11,-561.4 354.11,-530.6 43.2,-530.6"/>
<text text-anchor="start" x="50.2" y="-542.8" font-family="Arial" font-size="14.00">rate_card_id </text>
<text text-anchor="start" x="131.92" y="-542.8" font-family="Arial" font-size="14.00" fill="#666666">[bigint]</text>
<polygon fill="none" stroke="black" points="43.2,-499.8 43.2,-530.6 354.11,-530.6 354.11,-499.8 43.2,-499.8"/>
<text text-anchor="start" x="50.2" y="-512" font-family="Arial" font-size="14.00">test_code </text>
<text text-anchor="start" x="114.8" y="-512" font-family="Arial" font-size="14.00" fill="#666666">[varchar(100)]</text>
<polygon fill="none" stroke="black" points="43.2,-469 43.2,-499.8 354.11,-499.8 354.11,-469 43.2,-469"/>
<text text-anchor="start" x="50.2" y="-481.2" font-family="Arial" font-size="14.00">price </text>
<text text-anchor="start" x="84.43" y="-481.2" font-family="Arial" font-size="14.00" fill="#666666">[double precision]</text>
<polygon fill="none" stroke="black" points="43.2,-438.2 43.2,-469 354.11,-469 354.11,-438.2 43.2,-438.2"/>
<text text-anchor="start" x="50.2" y="-450.4" font-family="Arial" font-size="14.00">status </text>
<text text-anchor="start" x="91.44" y="-450.4" font-family="Arial" font-size="14.00" fill="#666666">[varchar(100)]</text>
<polygon fill="none" stroke="black" points="43.2,-407.4 43.2,-438.2 354.11,-438.2 354.11,-407.4 43.2,-407.4"/>
<text text-anchor="start" x="50.2" y="-419.6" font-family="Arial" font-size="14.00">created_at </text>
<text text-anchor="start" x="120.25" y="-419.6" font-family="Arial" font-size="14.00" fill="#666666">[timestamp(0) without time zone]</text>
<polygon fill="none" stroke="black" points="43.2,-376.6 43.2,-407.4 354.11,-407.4 354.11,-376.6 43.2,-376.6"/>
<text text-anchor="start" x="50.2" y="-388.8" font-family="Arial" font-size="14.00">updated_at </text>
<text text-anchor="start" x="124.16" y="-388.8" font-family="Arial" font-size="14.00" fill="#666666">[timestamp(0) without time zone]</text>
</g>
<!-- public.rate_card_details&#45;&gt;public.rate_cards -->
<g id="edge1" class="edge">
<title>public.rate_card_details:rate_card_id&#45;&gt;public.rate_cards:id</title>
<path fill="none" stroke="black" d="M364.91,-543C398.59,-519.93 376.38,-370.83 354.11,-333.4 329.85,-292.62 284.9,-322.72 260.53,-282 238.34,-244.93 216.33,-184.8 259.53,-184.8"/>
<polygon fill="black" stroke="black" points="364.99,-542.97 354.11,-541.6 359.89,-544.53 355.75,-545.8 355.75,-545.8 355.75,-545.8 359.89,-544.53 356.75,-550.2 364.99,-542.97"/>
<text text-anchor="start" x="362.11" y="-556" font-family="Arial" font-size="10.00">FOREIGN KEY (rate_card_id) REFERENCES rate_cards(id)</text>
</g>
<!-- public.rate_card_clients -->
<g id="node3" class="node">
<title>public.rate_card_clients</title>
<polygon fill="#efefef" stroke="none" points="458.2,-607.6 458.2,-643.2 769.11,-643.2 769.11,-607.6 458.2,-607.6"/>
<polygon fill="none" stroke="black" points="458.2,-607.6 458.2,-643.2 769.11,-643.2 769.11,-607.6 458.2,-607.6"/>
<text text-anchor="start" x="465.2" y="-621" font-family="Arial Bold" font-size="18.00">public.rate_card_clients</text>
<text text-anchor="start" x="637.62" y="-621" font-family="Arial" font-size="14.00">    </text>
<text text-anchor="start" x="668.74" y="-621" font-family="Arial" font-size="14.00" fill="#666666">[BASE TABLE]</text>
<polygon fill="none" stroke="black" points="458.2,-576.8 458.2,-607.6 769.11,-607.6 769.11,-576.8 458.2,-576.8"/>
<text text-anchor="start" x="465.2" y="-589" font-family="Arial" font-size="14.00">id </text>
<text text-anchor="start" x="479.99" y="-589" font-family="Arial" font-size="14.00" fill="#666666">[bigint]</text>
<polygon fill="none" stroke="black" points="458.2,-546 458.2,-576.8 769.11,-576.8 769.11,-546 458.2,-546"/>
<text text-anchor="start" x="465.2" y="-558.2" font-family="Arial" font-size="14.00">rate_card_id </text>
<text text-anchor="start" x="546.92" y="-558.2" font-family="Arial" font-size="14.00" fill="#666666">[bigint]</text>
<polygon fill="none" stroke="black" points="458.2,-515.2 458.2,-546 769.11,-546 769.11,-515.2 458.2,-515.2"/>
<text text-anchor="start" x="465.2" y="-527.4" font-family="Arial" font-size="14.00">client_id </text>
<text text-anchor="start" x="520.45" y="-527.4" font-family="Arial" font-size="14.00" fill="#666666">[bigint]</text>
<polygon fill="none" stroke="black" points="458.2,-484.4 458.2,-515.2 769.11,-515.2 769.11,-484.4 458.2,-484.4"/>
<text text-anchor="start" x="465.2" y="-496.6" font-family="Arial" font-size="14.00">priority </text>
<text text-anchor="start" x="511.1" y="-496.6" font-family="Arial" font-size="14.00" fill="#666666">[integer]</text>
<polygon fill="none" stroke="black" points="458.2,-453.6 458.2,-484.4 769.11,-484.4 769.11,-453.6 458.2,-453.6"/>
<text text-anchor="start" x="465.2" y="-465.8" font-family="Arial" font-size="14.00">apply_from </text>
<text text-anchor="start" x="538.34" y="-465.8" font-family="Arial" font-size="14.00" fill="#666666">[timestamp(0) without time zone]</text>
<polygon fill="none" stroke="black" points="458.2,-422.8 458.2,-453.6 769.11,-453.6 769.11,-422.8 458.2,-422.8"/>
<text text-anchor="start" x="465.2" y="-435" font-family="Arial" font-size="14.00">apply_to </text>
<text text-anchor="start" x="522.02" y="-435" font-family="Arial" font-size="14.00" fill="#666666">[timestamp(0) without time zone]</text>
<polygon fill="none" stroke="black" points="458.2,-392 458.2,-422.8 769.11,-422.8 769.11,-392 458.2,-392"/>
<text text-anchor="start" x="465.2" y="-404.2" font-family="Arial" font-size="14.00">created_at </text>
<text text-anchor="start" x="535.25" y="-404.2" font-family="Arial" font-size="14.00" fill="#666666">[timestamp(0) without time zone]</text>
<polygon fill="none" stroke="black" points="458.2,-361.2 458.2,-392 769.11,-392 769.11,-361.2 458.2,-361.2"/>
<text text-anchor="start" x="465.2" y="-373.4" font-family="Arial" font-size="14.00">updated_at </text>
<text text-anchor="start" x="539.16" y="-373.4" font-family="Arial" font-size="14.00" fill="#666666">[timestamp(0) without time zone]</text>
</g>
<!-- public.rate_card_clients&#45;&gt;public.rate_cards -->
<g id="edge2" class="edge">
<title>public.rate_card_clients:rate_card_id&#45;&gt;public.rate_cards:id</title>
<path fill="none" stroke="black" d="M447.19,-558.73C406.48,-534.94 429.66,-359.53 458.2,-318 483.2,-281.61 525.67,-318.31 550.78,-282 575.36,-246.47 594.99,-184.8 551.78,-184.8"/>
<polygon fill="black" stroke="black" points="447.22,-558.73 455.72,-565.66 452.37,-560.11 456.55,-561.23 456.55,-561.23 456.55,-561.23 452.37,-560.11 458.04,-556.97 447.22,-558.73"/>
<text text-anchor="start" x="464.2" y="-571.4" font-family="Arial" font-size="10.00">FOREIGN KEY (rate_card_id) REFERENCES rate_cards(id)</text>
</g>
</g>
</svg>
