<?xml version="1.0" encoding="UTF-8" standalone="no"?>
<!DOCTYPE svg PUBLIC "-//W3C//DTD SVG 1.1//EN"
 "http://www.w3.org/Graphics/SVG/1.1/DTD/svg11.dtd">
<!-- Generated by graphviz version 12.1.2 (20240928.0832)
 -->
<!-- Title: public.order_vat_invoice_details Pages: 1 -->
<svg width="899pt" height="2666pt"
 viewBox="0.00 0.00 898.69 2665.60" xmlns="http://www.w3.org/2000/svg" xmlns:xlink="http://www.w3.org/1999/xlink">
<g id="graph0" class="graph" transform="scale(1 1) rotate(0) translate(4 2661.6)">
<title>public.order_vat_invoice_details</title>
<polygon fill="white" stroke="none" points="-4,4 -4,-2661.6 894.69,-2661.6 894.69,4 -4,4"/>
<!-- public.order_vat_invoice_details -->
<g id="node1" class="node">
<title>public.order_vat_invoice_details</title>
<polygon fill="#efefef" stroke="none" points="250.64,-2575.8 250.64,-2611.4 631.17,-2611.4 631.17,-2575.8 250.64,-2575.8"/>
<polygon fill="none" stroke="black" points="250.64,-2575.8 250.64,-2611.4 631.17,-2611.4 631.17,-2575.8 250.64,-2575.8"/>
<text text-anchor="start" x="260.45" y="-2589.2" font-family="Arial Bold" font-size="18.00">public.order_vat_invoice_details</text>
<text text-anchor="start" x="496.87" y="-2589.2" font-family="Arial" font-size="14.00">    </text>
<text text-anchor="start" x="527.99" y="-2589.2" font-family="Arial" font-size="14.00" fill="#666666">[BASE TABLE]</text>
<polygon fill="none" stroke="black" points="250.64,-2545 250.64,-2575.8 631.17,-2575.8 631.17,-2545 250.64,-2545"/>
<text text-anchor="start" x="257.64" y="-2557.2" font-family="Arial" font-size="14.00">id </text>
<text text-anchor="start" x="272.43" y="-2557.2" font-family="Arial" font-size="14.00" fill="#666666">[bigint]</text>
<polygon fill="none" stroke="black" points="250.64,-2514.2 250.64,-2545 631.17,-2545 631.17,-2514.2 250.64,-2514.2"/>
<text text-anchor="start" x="257.64" y="-2526.4" font-family="Arial" font-size="14.00">order_id </text>
<text text-anchor="start" x="312.9" y="-2526.4" font-family="Arial" font-size="14.00" fill="#666666">[bigint]</text>
<polygon fill="none" stroke="black" points="250.64,-2483.4 250.64,-2514.2 631.17,-2514.2 631.17,-2483.4 250.64,-2483.4"/>
<text text-anchor="start" x="257.64" y="-2495.6" font-family="Arial" font-size="14.00">patient_id </text>
<text text-anchor="start" x="322.25" y="-2495.6" font-family="Arial" font-size="14.00" fill="#666666">[bigint]</text>
<polygon fill="none" stroke="black" points="250.64,-2452.6 250.64,-2483.4 631.17,-2483.4 631.17,-2452.6 250.64,-2452.6"/>
<text text-anchor="start" x="257.64" y="-2464.8" font-family="Arial" font-size="14.00">client_name </text>
<text text-anchor="start" x="337.02" y="-2464.8" font-family="Arial" font-size="14.00" fill="#666666">[varchar(255)]</text>
<polygon fill="none" stroke="black" points="250.64,-2421.8 250.64,-2452.6 631.17,-2452.6 631.17,-2421.8 250.64,-2421.8"/>
<text text-anchor="start" x="257.64" y="-2434" font-family="Arial" font-size="14.00">client_address </text>
<text text-anchor="start" x="351.81" y="-2434" font-family="Arial" font-size="14.00" fill="#666666">[varchar(255)]</text>
<polygon fill="none" stroke="black" points="250.64,-2391 250.64,-2421.8 631.17,-2421.8 631.17,-2391 250.64,-2391"/>
<text text-anchor="start" x="257.64" y="-2403.2" font-family="Arial" font-size="14.00">client_tax_code </text>
<text text-anchor="start" x="358.82" y="-2403.2" font-family="Arial" font-size="14.00" fill="#666666">[varchar(255)]</text>
<polygon fill="none" stroke="black" points="250.64,-2360.2 250.64,-2391 631.17,-2391 631.17,-2360.2 250.64,-2360.2"/>
<text text-anchor="start" x="257.64" y="-2372.4" font-family="Arial" font-size="14.00">client_company_name </text>
<text text-anchor="start" x="401.61" y="-2372.4" font-family="Arial" font-size="14.00" fill="#666666">[varchar(255)]</text>
<polygon fill="none" stroke="black" points="250.64,-2329.4 250.64,-2360.2 631.17,-2360.2 631.17,-2329.4 250.64,-2329.4"/>
<text text-anchor="start" x="257.64" y="-2341.6" font-family="Arial" font-size="14.00">client_email </text>
<text text-anchor="start" x="335.45" y="-2341.6" font-family="Arial" font-size="14.00" fill="#666666">[varchar(255)]</text>
<polygon fill="none" stroke="black" points="250.64,-2298.6 250.64,-2329.4 631.17,-2329.4 631.17,-2298.6 250.64,-2298.6"/>
<text text-anchor="start" x="257.64" y="-2310.8" font-family="Arial" font-size="14.00">client_phone_number </text>
<text text-anchor="start" x="396.19" y="-2310.8" font-family="Arial" font-size="14.00" fill="#666666">[varchar(255)]</text>
<polygon fill="none" stroke="black" points="250.64,-2267.8 250.64,-2298.6 631.17,-2298.6 631.17,-2267.8 250.64,-2267.8"/>
<text text-anchor="start" x="257.64" y="-2280" font-family="Arial" font-size="14.00">document_number </text>
<text text-anchor="start" x="378.27" y="-2280" font-family="Arial" font-size="14.00" fill="#666666">[varchar(255)]</text>
<polygon fill="none" stroke="black" points="250.64,-2237 250.64,-2267.8 631.17,-2267.8 631.17,-2237 250.64,-2237"/>
<text text-anchor="start" x="257.64" y="-2249.2" font-family="Arial" font-size="14.00">submission_date </text>
<text text-anchor="start" x="366.59" y="-2249.2" font-family="Arial" font-size="14.00" fill="#666666">[date]</text>
<polygon fill="none" stroke="black" points="250.64,-2206.2 250.64,-2237 631.17,-2237 631.17,-2206.2 250.64,-2206.2"/>
<text text-anchor="start" x="257.64" y="-2218.4" font-family="Arial" font-size="14.00">created_at </text>
<text text-anchor="start" x="327.69" y="-2218.4" font-family="Arial" font-size="14.00" fill="#666666">[timestamp(0) without time zone]</text>
<polygon fill="none" stroke="black" points="250.64,-2175.4 250.64,-2206.2 631.17,-2206.2 631.17,-2175.4 250.64,-2175.4"/>
<text text-anchor="start" x="257.64" y="-2187.6" font-family="Arial" font-size="14.00">updated_at </text>
<text text-anchor="start" x="331.6" y="-2187.6" font-family="Arial" font-size="14.00" fill="#666666">[timestamp(0) without time zone]</text>
<polygon fill="none" stroke="black" points="250.64,-2144.6 250.64,-2175.4 631.17,-2175.4 631.17,-2144.6 250.64,-2144.6"/>
<text text-anchor="start" x="257.64" y="-2156.8" font-family="Arial" font-size="14.00">vat_invoice_data </text>
<text text-anchor="start" x="366.61" y="-2156.8" font-family="Arial" font-size="14.00" fill="#666666">[json]</text>
<polygon fill="none" stroke="black" points="250.64,-2113.8 250.64,-2144.6 631.17,-2144.6 631.17,-2113.8 250.64,-2113.8"/>
<text text-anchor="start" x="257.64" y="-2126" font-family="Arial" font-size="14.00">vat_invoice_generated_at </text>
<text text-anchor="start" x="421.87" y="-2126" font-family="Arial" font-size="14.00" fill="#666666">[timestamp(0) without time zone]</text>
<polygon fill="none" stroke="black" points="250.64,-2083 250.64,-2113.8 631.17,-2113.8 631.17,-2083 250.64,-2083"/>
<text text-anchor="start" x="257.64" y="-2095.2" font-family="Arial" font-size="14.00">client_type </text>
<text text-anchor="start" x="328.46" y="-2095.2" font-family="Arial" font-size="14.00" fill="#666666">[varchar(100)]</text>
<polygon fill="none" stroke="black" points="250.64,-2052.2 250.64,-2083 631.17,-2083 631.17,-2052.2 250.64,-2052.2"/>
<text text-anchor="start" x="257.64" y="-2064.4" font-family="Arial" font-size="14.00">vat_invoice_number </text>
<text text-anchor="start" x="386.83" y="-2064.4" font-family="Arial" font-size="14.00" fill="#666666">[varchar(255)]</text>
<polygon fill="none" stroke="black" points="250.64,-2021.4 250.64,-2052.2 631.17,-2052.2 631.17,-2021.4 250.64,-2021.4"/>
<text text-anchor="start" x="257.64" y="-2033.6" font-family="Arial" font-size="14.00">direct_insurance_claim </text>
<text text-anchor="start" x="404.71" y="-2033.6" font-family="Arial" font-size="14.00" fill="#666666">[boolean]</text>
<polygon fill="none" stroke="black" points="250.64,-1990.6 250.64,-2021.4 631.17,-2021.4 631.17,-1990.6 250.64,-1990.6"/>
<text text-anchor="start" x="257.64" y="-2002.8" font-family="Arial" font-size="14.00">vat_required </text>
<text text-anchor="start" x="339.36" y="-2002.8" font-family="Arial" font-size="14.00" fill="#666666">[boolean]</text>
<polygon fill="none" stroke="black" stroke-width="3" points="249.14,-1989.1 249.14,-2612.9 632.67,-2612.9 632.67,-1989.1 249.14,-1989.1"/>
</g>
<!-- public.orders -->
<g id="node2" class="node">
<title>public.orders</title>
<polygon fill="#efefef" stroke="none" points="43.2,-1829.6 43.2,-1865.2 406.61,-1865.2 406.61,-1829.6 43.2,-1829.6"/>
<polygon fill="none" stroke="black" points="43.2,-1829.6 43.2,-1865.2 406.61,-1865.2 406.61,-1829.6 43.2,-1829.6"/>
<text text-anchor="start" x="115.42" y="-1843" font-family="Arial Bold" font-size="18.00">public.orders</text>
<text text-anchor="start" x="209.9" y="-1843" font-family="Arial" font-size="14.00">    </text>
<text text-anchor="start" x="241.02" y="-1843" font-family="Arial" font-size="14.00" fill="#666666">[BASE TABLE]</text>
<polygon fill="none" stroke="black" points="43.2,-1798.8 43.2,-1829.6 406.61,-1829.6 406.61,-1798.8 43.2,-1798.8"/>
<text text-anchor="start" x="50.2" y="-1811" font-family="Arial" font-size="14.00">id </text>
<text text-anchor="start" x="64.99" y="-1811" font-family="Arial" font-size="14.00" fill="#666666">[bigint]</text>
<polygon fill="none" stroke="black" points="43.2,-1768 43.2,-1798.8 406.61,-1798.8 406.61,-1768 43.2,-1768"/>
<text text-anchor="start" x="50.2" y="-1780.2" font-family="Arial" font-size="14.00">code </text>
<text text-anchor="start" x="84.45" y="-1780.2" font-family="Arial" font-size="14.00" fill="#666666">[varchar(100)]</text>
<polygon fill="none" stroke="black" points="43.2,-1737.2 43.2,-1768 406.61,-1768 406.61,-1737.2 43.2,-1737.2"/>
<text text-anchor="start" x="50.2" y="-1749.4" font-family="Arial" font-size="14.00">booking_code </text>
<text text-anchor="start" x="141.28" y="-1749.4" font-family="Arial" font-size="14.00" fill="#666666">[varchar(100)]</text>
<polygon fill="none" stroke="black" points="43.2,-1706.4 43.2,-1737.2 406.61,-1737.2 406.61,-1706.4 43.2,-1706.4"/>
<text text-anchor="start" x="50.2" y="-1718.6" font-family="Arial" font-size="14.00">patient_id </text>
<text text-anchor="start" x="114.81" y="-1718.6" font-family="Arial" font-size="14.00" fill="#666666">[bigint]</text>
<polygon fill="none" stroke="black" points="43.2,-1675.6 43.2,-1706.4 406.61,-1706.4 406.61,-1675.6 43.2,-1675.6"/>
<text text-anchor="start" x="50.2" y="-1687.8" font-family="Arial" font-size="14.00">client_id </text>
<text text-anchor="start" x="105.45" y="-1687.8" font-family="Arial" font-size="14.00" fill="#666666">[bigint]</text>
<polygon fill="none" stroke="black" points="43.2,-1644.8 43.2,-1675.6 406.61,-1675.6 406.61,-1644.8 43.2,-1644.8"/>
<text text-anchor="start" x="50.2" y="-1657" font-family="Arial" font-size="14.00">lis_order_id </text>
<text text-anchor="start" x="126.46" y="-1657" font-family="Arial" font-size="14.00" fill="#666666">[varchar(255)]</text>
<polygon fill="none" stroke="black" points="43.2,-1614 43.2,-1644.8 406.61,-1644.8 406.61,-1614 43.2,-1614"/>
<text text-anchor="start" x="50.2" y="-1626.2" font-family="Arial" font-size="14.00">client_ext_reference_id </text>
<text text-anchor="start" x="198.85" y="-1626.2" font-family="Arial" font-size="14.00" fill="#666666">[varchar(100)]</text>
<polygon fill="none" stroke="black" points="43.2,-1583.2 43.2,-1614 406.61,-1614 406.61,-1583.2 43.2,-1583.2"/>
<text text-anchor="start" x="50.2" y="-1595.4" font-family="Arial" font-size="14.00">ex_patient_number </text>
<text text-anchor="start" x="173.95" y="-1595.4" font-family="Arial" font-size="14.00" fill="#666666">[varchar(255)]</text>
<polygon fill="none" stroke="black" points="43.2,-1552.4 43.2,-1583.2 406.61,-1583.2 406.61,-1552.4 43.2,-1552.4"/>
<text text-anchor="start" x="50.2" y="-1564.6" font-family="Arial" font-size="14.00">ref_dr </text>
<text text-anchor="start" x="90.66" y="-1564.6" font-family="Arial" font-size="14.00" fill="#666666">[varchar(255)]</text>
<polygon fill="none" stroke="black" points="43.2,-1521.6 43.2,-1552.4 406.61,-1552.4 406.61,-1521.6 43.2,-1521.6"/>
<text text-anchor="start" x="50.2" y="-1533.8" font-family="Arial" font-size="14.00">remarks </text>
<text text-anchor="start" x="104.65" y="-1533.8" font-family="Arial" font-size="14.00" fill="#666666">[text]</text>
<polygon fill="none" stroke="black" points="43.2,-1490.8 43.2,-1521.6 406.61,-1521.6 406.61,-1490.8 43.2,-1490.8"/>
<text text-anchor="start" x="50.2" y="-1503" font-family="Arial" font-size="14.00">is_additional_test </text>
<text text-anchor="start" x="162.28" y="-1503" font-family="Arial" font-size="14.00" fill="#666666">[boolean]</text>
<polygon fill="none" stroke="black" points="43.2,-1460 43.2,-1490.8 406.61,-1490.8 406.61,-1460 43.2,-1460"/>
<text text-anchor="start" x="50.2" y="-1472.2" font-family="Arial" font-size="14.00">history </text>
<text text-anchor="start" x="95.32" y="-1472.2" font-family="Arial" font-size="14.00" fill="#666666">[text]</text>
<polygon fill="none" stroke="black" points="43.2,-1429.2 43.2,-1460 406.61,-1460 406.61,-1429.2 43.2,-1429.2"/>
<text text-anchor="start" x="50.2" y="-1441.4" font-family="Arial" font-size="14.00">bulk_upload_id </text>
<text text-anchor="start" x="148.28" y="-1441.4" font-family="Arial" font-size="14.00" fill="#666666">[uuid]</text>
<polygon fill="none" stroke="black" points="43.2,-1398.4 43.2,-1429.2 406.61,-1429.2 406.61,-1398.4 43.2,-1398.4"/>
<text text-anchor="start" x="50.2" y="-1410.6" font-family="Arial" font-size="14.00">total </text>
<text text-anchor="start" x="80.55" y="-1410.6" font-family="Arial" font-size="14.00" fill="#666666">[double precision]</text>
<polygon fill="none" stroke="black" points="43.2,-1367.6 43.2,-1398.4 406.61,-1398.4 406.61,-1367.6 43.2,-1367.6"/>
<text text-anchor="start" x="50.2" y="-1379.8" font-family="Arial" font-size="14.00">branch_code </text>
<text text-anchor="start" x="135.04" y="-1379.8" font-family="Arial" font-size="14.00" fill="#666666">[varchar(100)]</text>
<polygon fill="none" stroke="black" points="43.2,-1336.8 43.2,-1367.6 406.61,-1367.6 406.61,-1336.8 43.2,-1336.8"/>
<text text-anchor="start" x="50.2" y="-1349" font-family="Arial" font-size="14.00">patient_code </text>
<text text-anchor="start" x="134.27" y="-1349" font-family="Arial" font-size="14.00" fill="#666666">[varchar(255)]</text>
<polygon fill="none" stroke="black" points="43.2,-1306 43.2,-1336.8 406.61,-1336.8 406.61,-1306 43.2,-1306"/>
<text text-anchor="start" x="50.2" y="-1318.2" font-family="Arial" font-size="14.00">patient_full_name </text>
<text text-anchor="start" x="164.61" y="-1318.2" font-family="Arial" font-size="14.00" fill="#666666">[varchar(255)]</text>
<polygon fill="none" stroke="black" points="43.2,-1275.2 43.2,-1306 406.61,-1306 406.61,-1275.2 43.2,-1275.2"/>
<text text-anchor="start" x="50.2" y="-1287.4" font-family="Arial" font-size="14.00">patient_gender </text>
<text text-anchor="start" x="147.5" y="-1287.4" font-family="Arial" font-size="14.00" fill="#666666">[varchar(20)]</text>
<polygon fill="none" stroke="black" points="43.2,-1244.4 43.2,-1275.2 406.61,-1275.2 406.61,-1244.4 43.2,-1244.4"/>
<text text-anchor="start" x="50.2" y="-1256.6" font-family="Arial" font-size="14.00">patient_marital_status </text>
<text text-anchor="start" x="191.05" y="-1256.6" font-family="Arial" font-size="14.00" fill="#666666">[varchar(20)]</text>
<polygon fill="none" stroke="black" points="43.2,-1213.6 43.2,-1244.4 406.61,-1244.4 406.61,-1213.6 43.2,-1213.6"/>
<text text-anchor="start" x="50.2" y="-1225.8" font-family="Arial" font-size="14.00">patient_dob </text>
<text text-anchor="start" x="127.27" y="-1225.8" font-family="Arial" font-size="14.00" fill="#666666">[date]</text>
<polygon fill="none" stroke="black" points="43.2,-1182.8 43.2,-1213.6 406.61,-1213.6 406.61,-1182.8 43.2,-1182.8"/>
<text text-anchor="start" x="50.2" y="-1195" font-family="Arial" font-size="14.00">patient_phone_number </text>
<text text-anchor="start" x="198.1" y="-1195" font-family="Arial" font-size="14.00" fill="#666666">[varchar(20)]</text>
<polygon fill="none" stroke="black" points="43.2,-1152 43.2,-1182.8 406.61,-1182.8 406.61,-1152 43.2,-1152"/>
<text text-anchor="start" x="50.2" y="-1164.2" font-family="Arial" font-size="14.00">patient_email </text>
<text text-anchor="start" x="137.37" y="-1164.2" font-family="Arial" font-size="14.00" fill="#666666">[varchar(255)]</text>
<polygon fill="none" stroke="black" points="43.2,-1121.2 43.2,-1152 406.61,-1152 406.61,-1121.2 43.2,-1121.2"/>
<text text-anchor="start" x="50.2" y="-1133.4" font-family="Arial" font-size="14.00">patient_address </text>
<text text-anchor="start" x="153.72" y="-1133.4" font-family="Arial" font-size="14.00" fill="#666666">[varchar(255)]</text>
<polygon fill="none" stroke="black" points="43.2,-1090.4 43.2,-1121.2 406.61,-1121.2 406.61,-1090.4 43.2,-1090.4"/>
<text text-anchor="start" x="50.2" y="-1102.6" font-family="Arial" font-size="14.00">patient_ward </text>
<text text-anchor="start" x="134.25" y="-1102.6" font-family="Arial" font-size="14.00" fill="#666666">[varchar(255)]</text>
<polygon fill="none" stroke="black" points="43.2,-1059.6 43.2,-1090.4 406.61,-1090.4 406.61,-1059.6 43.2,-1059.6"/>
<text text-anchor="start" x="50.2" y="-1071.8" font-family="Arial" font-size="14.00">patient_district </text>
<text text-anchor="start" x="144.36" y="-1071.8" font-family="Arial" font-size="14.00" fill="#666666">[varchar(255)]</text>
<polygon fill="none" stroke="black" points="43.2,-1028.8 43.2,-1059.6 406.61,-1059.6 406.61,-1028.8 43.2,-1028.8"/>
<text text-anchor="start" x="50.2" y="-1041" font-family="Arial" font-size="14.00">patient_city </text>
<text text-anchor="start" x="124.91" y="-1041" font-family="Arial" font-size="14.00" fill="#666666">[varchar(100)]</text>
<polygon fill="none" stroke="black" points="43.2,-998 43.2,-1028.8 406.61,-1028.8 406.61,-998 43.2,-998"/>
<text text-anchor="start" x="50.2" y="-1010.2" font-family="Arial" font-size="14.00">patient_country </text>
<text text-anchor="start" x="149.82" y="-1010.2" font-family="Arial" font-size="14.00" fill="#666666">[varchar(60)]</text>
<polygon fill="none" stroke="black" points="43.2,-967.2 43.2,-998 406.61,-998 406.61,-967.2 43.2,-967.2"/>
<text text-anchor="start" x="50.2" y="-979.4" font-family="Arial" font-size="14.00">patient_nationality </text>
<text text-anchor="start" x="166.95" y="-979.4" font-family="Arial" font-size="14.00" fill="#666666">[varchar(60)]</text>
<polygon fill="none" stroke="black" points="43.2,-936.4 43.2,-967.2 406.61,-967.2 406.61,-936.4 43.2,-936.4"/>
<text text-anchor="start" x="50.2" y="-948.6" font-family="Arial" font-size="14.00">patient_id_number_type </text>
<text text-anchor="start" x="204.31" y="-948.6" font-family="Arial" font-size="14.00" fill="#666666">[varchar(20)]</text>
<polygon fill="none" stroke="black" points="43.2,-905.6 43.2,-936.4 406.61,-936.4 406.61,-905.6 43.2,-905.6"/>
<text text-anchor="start" x="50.2" y="-917.8" font-family="Arial" font-size="14.00">patient_id_number </text>
<text text-anchor="start" x="170.06" y="-917.8" font-family="Arial" font-size="14.00" fill="#666666">[varchar(255)]</text>
<polygon fill="none" stroke="black" points="43.2,-874.8 43.2,-905.6 406.61,-905.6 406.61,-874.8 43.2,-874.8"/>
<text text-anchor="start" x="50.2" y="-887" font-family="Arial" font-size="14.00">created_by_employee_code </text>
<text text-anchor="start" x="229.99" y="-887" font-family="Arial" font-size="14.00" fill="#666666">[varchar(100)]</text>
<polygon fill="none" stroke="black" points="43.2,-844 43.2,-874.8 406.61,-874.8 406.61,-844 43.2,-844"/>
<text text-anchor="start" x="50.2" y="-856.2" font-family="Arial" font-size="14.00">created_by_employee_email </text>
<text text-anchor="start" x="233.09" y="-856.2" font-family="Arial" font-size="14.00" fill="#666666">[varchar(255)]</text>
<polygon fill="none" stroke="black" points="43.2,-813.2 43.2,-844 406.61,-844 406.61,-813.2 43.2,-813.2"/>
<text text-anchor="start" x="50.2" y="-825.4" font-family="Arial" font-size="14.00">created_at </text>
<text text-anchor="start" x="120.25" y="-825.4" font-family="Arial" font-size="14.00" fill="#666666">[timestamp(0) without time zone]</text>
<polygon fill="none" stroke="black" points="43.2,-782.4 43.2,-813.2 406.61,-813.2 406.61,-782.4 43.2,-782.4"/>
<text text-anchor="start" x="50.2" y="-794.6" font-family="Arial" font-size="14.00">updated_at </text>
<text text-anchor="start" x="124.16" y="-794.6" font-family="Arial" font-size="14.00" fill="#666666">[timestamp(0) without time zone]</text>
<polygon fill="none" stroke="black" points="43.2,-751.6 43.2,-782.4 406.61,-782.4 406.61,-751.6 43.2,-751.6"/>
<text text-anchor="start" x="50.2" y="-763.8" font-family="Arial" font-size="14.00">patient_salutation </text>
<text text-anchor="start" x="163.84" y="-763.8" font-family="Arial" font-size="14.00" fill="#666666">[varchar(100)]</text>
<polygon fill="none" stroke="black" points="43.2,-720.8 43.2,-751.6 406.61,-751.6 406.61,-720.8 43.2,-720.8"/>
<text text-anchor="start" x="50.2" y="-733" font-family="Arial" font-size="14.00">status </text>
<text text-anchor="start" x="91.44" y="-733" font-family="Arial" font-size="14.00" fill="#666666">[varchar(255)]</text>
<polygon fill="none" stroke="black" points="43.2,-690 43.2,-720.8 406.61,-720.8 406.61,-690 43.2,-690"/>
<text text-anchor="start" x="50.2" y="-702.2" font-family="Arial" font-size="14.00">billing_pdf </text>
<text text-anchor="start" x="117.14" y="-702.2" font-family="Arial" font-size="14.00" fill="#666666">[varchar(255)]</text>
<polygon fill="none" stroke="black" points="43.2,-659.2 43.2,-690 406.61,-690 406.61,-659.2 43.2,-659.2"/>
<text text-anchor="start" x="50.2" y="-671.4" font-family="Arial" font-size="14.00">amount_received </text>
<text text-anchor="start" x="161.49" y="-671.4" font-family="Arial" font-size="14.00" fill="#666666">[double precision]</text>
<polygon fill="none" stroke="black" points="43.2,-628.4 43.2,-659.2 406.61,-659.2 406.61,-628.4 43.2,-628.4"/>
<text text-anchor="start" x="50.2" y="-640.6" font-family="Arial" font-size="14.00">patient_insurance_detail_id </text>
<text text-anchor="start" x="224.55" y="-640.6" font-family="Arial" font-size="14.00" fill="#666666">[bigint]</text>
<polygon fill="none" stroke="black" points="43.2,-597.6 43.2,-628.4 406.61,-628.4 406.61,-597.6 43.2,-597.6"/>
<text text-anchor="start" x="50.2" y="-609.8" font-family="Arial" font-size="14.00">direct_insurance_claim </text>
<text text-anchor="start" x="197.27" y="-609.8" font-family="Arial" font-size="14.00" fill="#666666">[boolean]</text>
<polygon fill="none" stroke="black" points="43.2,-566.8 43.2,-597.6 406.61,-597.6 406.61,-566.8 43.2,-566.8"/>
<text text-anchor="start" x="50.2" y="-579" font-family="Arial" font-size="14.00">vat_required </text>
<text text-anchor="start" x="131.92" y="-579" font-family="Arial" font-size="14.00" fill="#666666">[boolean]</text>
<polygon fill="none" stroke="black" points="43.2,-536 43.2,-566.8 406.61,-566.8 406.61,-536 43.2,-536"/>
<text text-anchor="start" x="50.2" y="-548.2" font-family="Arial" font-size="14.00">patient_guardian_info </text>
<text text-anchor="start" x="188.76" y="-548.2" font-family="Arial" font-size="14.00" fill="#666666">[varchar(500)]</text>
<polygon fill="none" stroke="black" points="43.2,-505.2 43.2,-536 406.61,-536 406.61,-505.2 43.2,-505.2"/>
<text text-anchor="start" x="50.2" y="-517.4" font-family="Arial" font-size="14.00">promotions </text>
<text text-anchor="start" x="123.34" y="-517.4" font-family="Arial" font-size="14.00" fill="#666666">[json]</text>
<polygon fill="none" stroke="black" points="43.2,-474.4 43.2,-505.2 406.61,-505.2 406.61,-474.4 43.2,-474.4"/>
<text text-anchor="start" x="50.2" y="-486.6" font-family="Arial" font-size="14.00">order_placed_option </text>
<text text-anchor="start" x="181.74" y="-486.6" font-family="Arial" font-size="14.00" fill="#666666">[varchar(255)]</text>
<polygon fill="none" stroke="black" points="43.2,-443.6 43.2,-474.4 406.61,-474.4 406.61,-443.6 43.2,-443.6"/>
<text text-anchor="start" x="50.2" y="-455.8" font-family="Arial" font-size="14.00">reject_identity_reason </text>
<text text-anchor="start" x="191.06" y="-455.8" font-family="Arial" font-size="14.00" fill="#666666">[text]</text>
<polygon fill="none" stroke="black" points="43.2,-412.8 43.2,-443.6 406.61,-443.6 406.61,-412.8 43.2,-412.8"/>
<text text-anchor="start" x="50.2" y="-425" font-family="Arial" font-size="14.00">otp </text>
<text text-anchor="start" x="73.55" y="-425" font-family="Arial" font-size="14.00" fill="#666666">[text]</text>
<polygon fill="none" stroke="black" points="43.2,-382 43.2,-412.8 406.61,-412.8 406.61,-382 43.2,-382"/>
<text text-anchor="start" x="50.2" y="-394.2" font-family="Arial" font-size="14.00">otp_expired_at </text>
<text text-anchor="start" x="146.72" y="-394.2" font-family="Arial" font-size="14.00" fill="#666666">[timestamp(0) without time zone]</text>
<polygon fill="none" stroke="black" points="43.2,-351.2 43.2,-382 406.61,-382 406.61,-351.2 43.2,-351.2"/>
<text text-anchor="start" x="50.2" y="-363.4" font-family="Arial" font-size="14.00">cancel_reason </text>
<text text-anchor="start" x="145.15" y="-363.4" font-family="Arial" font-size="14.00" fill="#666666">[varchar(255)]</text>
<polygon fill="none" stroke="black" points="43.2,-320.4 43.2,-351.2 406.61,-351.2 406.61,-320.4 43.2,-320.4"/>
<text text-anchor="start" x="50.2" y="-332.6" font-family="Arial" font-size="14.00">emergency_contact </text>
<text text-anchor="start" x="176.27" y="-332.6" font-family="Arial" font-size="14.00" fill="#666666">[boolean]</text>
<polygon fill="none" stroke="black" points="43.2,-289.6 43.2,-320.4 406.61,-320.4 406.61,-289.6 43.2,-289.6"/>
<text text-anchor="start" x="50.2" y="-301.8" font-family="Arial" font-size="14.00">emergency_contact_off_reason </text>
<text text-anchor="start" x="250.21" y="-301.8" font-family="Arial" font-size="14.00" fill="#666666">[varchar(255)]</text>
<polygon fill="none" stroke="black" points="43.2,-258.8 43.2,-289.6 406.61,-289.6 406.61,-258.8 43.2,-258.8"/>
<text text-anchor="start" x="50.2" y="-271" font-family="Arial" font-size="14.00">patient_emergency_contact_id </text>
<text text-anchor="start" x="244.77" y="-271" font-family="Arial" font-size="14.00" fill="#666666">[bigint]</text>
<polygon fill="none" stroke="black" points="43.2,-228 43.2,-258.8 406.61,-258.8 406.61,-228 43.2,-228"/>
<text text-anchor="start" x="50.2" y="-240.2" font-family="Arial" font-size="14.00">billing_last_updated_at </text>
<text text-anchor="start" x="197.32" y="-240.2" font-family="Arial" font-size="14.00" fill="#666666">[timestamp(0) without time zone]</text>
<polygon fill="none" stroke="black" points="43.2,-197.2 43.2,-228 406.61,-228 406.61,-197.2 43.2,-197.2"/>
<text text-anchor="start" x="50.2" y="-209.4" font-family="Arial" font-size="14.00">cancel_by </text>
<text text-anchor="start" x="117.13" y="-209.4" font-family="Arial" font-size="14.00" fill="#666666">[varchar(255)]</text>
<polygon fill="none" stroke="black" points="43.2,-166.4 43.2,-197.2 406.61,-197.2 406.61,-166.4 43.2,-166.4"/>
<text text-anchor="start" x="50.2" y="-178.6" font-family="Arial" font-size="14.00">cancel_time </text>
<text text-anchor="start" x="128.79" y="-178.6" font-family="Arial" font-size="14.00" fill="#666666">[timestamp(0) without time zone]</text>
<polygon fill="none" stroke="black" points="43.2,-135.6 43.2,-166.4 406.61,-166.4 406.61,-135.6 43.2,-135.6"/>
<text text-anchor="start" x="50.2" y="-147.8" font-family="Arial" font-size="14.00">stat </text>
<text text-anchor="start" x="76.66" y="-147.8" font-family="Arial" font-size="14.00" fill="#666666">[boolean]</text>
<polygon fill="none" stroke="black" points="43.2,-104.8 43.2,-135.6 406.61,-135.6 406.61,-104.8 43.2,-104.8"/>
<text text-anchor="start" x="50.2" y="-117" font-family="Arial" font-size="14.00">purchase_order_code </text>
<text text-anchor="start" x="190.3" y="-117" font-family="Arial" font-size="14.00" fill="#666666">[varchar(255)]</text>
<polygon fill="none" stroke="black" points="43.2,-74 43.2,-104.8 406.61,-104.8 406.61,-74 43.2,-74"/>
<text text-anchor="start" x="50.2" y="-86.2" font-family="Arial" font-size="14.00">trashed_booking_code </text>
<text text-anchor="start" x="195.76" y="-86.2" font-family="Arial" font-size="14.00" fill="#666666">[varchar(255)]</text>
<polygon fill="none" stroke="black" points="43.2,-43.2 43.2,-74 406.61,-74 406.61,-43.2 43.2,-43.2"/>
<text text-anchor="start" x="50.2" y="-55.4" font-family="Arial" font-size="14.00">trashed_booking_code_usage_reason </text>
<text text-anchor="start" x="292.28" y="-55.4" font-family="Arial" font-size="14.00" fill="#666666">[varchar(255)]</text>
</g>
<!-- public.order_vat_invoice_details&#45;&gt;public.orders -->
<g id="edge1" class="edge">
<title>public.order_vat_invoice_details:order_id&#45;&gt;public.orders:id</title>
<path fill="none" stroke="black" d="M239.54,-2529.4C-7.83,-2519.56 90.69,-2145.12 250.64,-1944.4 294.98,-1888.76 362.03,-1963.84 406.61,-1908.4 432.85,-1875.77 449.48,-1814.2 407.61,-1814.2"/>
<polygon fill="black" stroke="black" points="239.31,-2529.4 249.22,-2534.09 244.64,-2529.5 248.97,-2529.59 248.97,-2529.59 248.97,-2529.59 244.64,-2529.5 249.4,-2525.09 239.31,-2529.4"/>
<text text-anchor="start" x="11.48" y="-2539.6" font-family="Arial" font-size="10.00">FOREIGN KEY (order_id) REFERENCES orders(id)</text>
</g>
<!-- public.patients -->
<g id="node3" class="node">
<title>public.patients</title>
<polygon fill="#efefef" stroke="none" points="511.21,-1383 511.21,-1418.6 804.61,-1418.6 804.61,-1383 511.21,-1383"/>
<polygon fill="none" stroke="black" points="511.21,-1383 511.21,-1418.6 804.61,-1418.6 804.61,-1383 511.21,-1383"/>
<text text-anchor="start" x="542.92" y="-1396.4" font-family="Arial Bold" font-size="18.00">public.patients</text>
<text text-anchor="start" x="648.4" y="-1396.4" font-family="Arial" font-size="14.00">    </text>
<text text-anchor="start" x="679.52" y="-1396.4" font-family="Arial" font-size="14.00" fill="#666666">[BASE TABLE]</text>
<polygon fill="none" stroke="black" points="511.21,-1352.2 511.21,-1383 804.61,-1383 804.61,-1352.2 511.21,-1352.2"/>
<text text-anchor="start" x="518.21" y="-1364.4" font-family="Arial" font-size="14.00">id </text>
<text text-anchor="start" x="532.99" y="-1364.4" font-family="Arial" font-size="14.00" fill="#666666">[bigint]</text>
<polygon fill="none" stroke="black" points="511.21,-1321.4 511.21,-1352.2 804.61,-1352.2 804.61,-1321.4 511.21,-1321.4"/>
<text text-anchor="start" x="518.21" y="-1333.6" font-family="Arial" font-size="14.00">code </text>
<text text-anchor="start" x="552.45" y="-1333.6" font-family="Arial" font-size="14.00" fill="#666666">[varchar(100)]</text>
<polygon fill="none" stroke="black" points="511.21,-1290.6 511.21,-1321.4 804.61,-1321.4 804.61,-1290.6 511.21,-1290.6"/>
<text text-anchor="start" x="518.21" y="-1302.8" font-family="Arial" font-size="14.00">lis_patient_code </text>
<text text-anchor="start" x="623.28" y="-1302.8" font-family="Arial" font-size="14.00" fill="#666666">[varchar(255)]</text>
<polygon fill="none" stroke="black" points="511.21,-1259.8 511.21,-1290.6 804.61,-1290.6 804.61,-1259.8 511.21,-1259.8"/>
<text text-anchor="start" x="518.21" y="-1272" font-family="Arial" font-size="14.00">client_patient_code </text>
<text text-anchor="start" x="642.74" y="-1272" font-family="Arial" font-size="14.00" fill="#666666">[varchar(255)]</text>
<polygon fill="none" stroke="black" points="511.21,-1229 511.21,-1259.8 804.61,-1259.8 804.61,-1229 511.21,-1229"/>
<text text-anchor="start" x="518.21" y="-1241.2" font-family="Arial" font-size="14.00">full_name </text>
<text text-anchor="start" x="582.8" y="-1241.2" font-family="Arial" font-size="14.00" fill="#666666">[varchar(255)]</text>
<polygon fill="none" stroke="black" points="511.21,-1198.2 511.21,-1229 804.61,-1229 804.61,-1198.2 511.21,-1198.2"/>
<text text-anchor="start" x="518.21" y="-1210.4" font-family="Arial" font-size="14.00">gender </text>
<text text-anchor="start" x="565.69" y="-1210.4" font-family="Arial" font-size="14.00" fill="#666666">[varchar(20)]</text>
<polygon fill="none" stroke="black" points="511.21,-1167.4 511.21,-1198.2 804.61,-1198.2 804.61,-1167.4 511.21,-1167.4"/>
<text text-anchor="start" x="518.21" y="-1179.6" font-family="Arial" font-size="14.00">marital_status </text>
<text text-anchor="start" x="609.24" y="-1179.6" font-family="Arial" font-size="14.00" fill="#666666">[varchar(20)]</text>
<polygon fill="none" stroke="black" points="511.21,-1136.6 511.21,-1167.4 804.61,-1167.4 804.61,-1136.6 511.21,-1136.6"/>
<text text-anchor="start" x="518.21" y="-1148.8" font-family="Arial" font-size="14.00">dob </text>
<text text-anchor="start" x="545.45" y="-1148.8" font-family="Arial" font-size="14.00" fill="#666666">[date]</text>
<polygon fill="none" stroke="black" points="511.21,-1105.8 511.21,-1136.6 804.61,-1136.6 804.61,-1105.8 511.21,-1105.8"/>
<text text-anchor="start" x="518.21" y="-1118" font-family="Arial" font-size="14.00">phone_number </text>
<text text-anchor="start" x="616.28" y="-1118" font-family="Arial" font-size="14.00" fill="#666666">[varchar(20)]</text>
<polygon fill="none" stroke="black" points="511.21,-1075 511.21,-1105.8 804.61,-1105.8 804.61,-1075 511.21,-1075"/>
<text text-anchor="start" x="518.21" y="-1087.2" font-family="Arial" font-size="14.00">email </text>
<text text-anchor="start" x="555.55" y="-1087.2" font-family="Arial" font-size="14.00" fill="#666666">[varchar(255)]</text>
<polygon fill="none" stroke="black" points="511.21,-1044.2 511.21,-1075 804.61,-1075 804.61,-1044.2 511.21,-1044.2"/>
<text text-anchor="start" x="518.21" y="-1056.4" font-family="Arial" font-size="14.00">address </text>
<text text-anchor="start" x="571.9" y="-1056.4" font-family="Arial" font-size="14.00" fill="#666666">[varchar(255)]</text>
<polygon fill="none" stroke="black" points="511.21,-1013.4 511.21,-1044.2 804.61,-1044.2 804.61,-1013.4 511.21,-1013.4"/>
<text text-anchor="start" x="518.21" y="-1025.6" font-family="Arial" font-size="14.00">ward </text>
<text text-anchor="start" x="552.44" y="-1025.6" font-family="Arial" font-size="14.00" fill="#666666">[varchar(255)]</text>
<polygon fill="none" stroke="black" points="511.21,-982.6 511.21,-1013.4 804.61,-1013.4 804.61,-982.6 511.21,-982.6"/>
<text text-anchor="start" x="518.21" y="-994.8" font-family="Arial" font-size="14.00">district </text>
<text text-anchor="start" x="562.54" y="-994.8" font-family="Arial" font-size="14.00" fill="#666666">[varchar(255)]</text>
<polygon fill="none" stroke="black" points="511.21,-951.8 511.21,-982.6 804.61,-982.6 804.61,-951.8 511.21,-951.8"/>
<text text-anchor="start" x="518.21" y="-964" font-family="Arial" font-size="14.00">city </text>
<text text-anchor="start" x="543.1" y="-964" font-family="Arial" font-size="14.00" fill="#666666">[varchar(100)]</text>
<polygon fill="none" stroke="black" points="511.21,-921 511.21,-951.8 804.61,-951.8 804.61,-921 511.21,-921"/>
<text text-anchor="start" x="518.21" y="-933.2" font-family="Arial" font-size="14.00">country </text>
<text text-anchor="start" x="568.01" y="-933.2" font-family="Arial" font-size="14.00" fill="#666666">[varchar(60)]</text>
<polygon fill="none" stroke="black" points="511.21,-890.2 511.21,-921 804.61,-921 804.61,-890.2 511.21,-890.2"/>
<text text-anchor="start" x="518.21" y="-902.4" font-family="Arial" font-size="14.00">nationality </text>
<text text-anchor="start" x="585.14" y="-902.4" font-family="Arial" font-size="14.00" fill="#666666">[varchar(60)]</text>
<polygon fill="none" stroke="black" points="511.21,-859.4 511.21,-890.2 804.61,-890.2 804.61,-859.4 511.21,-859.4"/>
<text text-anchor="start" x="518.21" y="-871.6" font-family="Arial" font-size="14.00">id_number_type </text>
<text text-anchor="start" x="622.5" y="-871.6" font-family="Arial" font-size="14.00" fill="#666666">[varchar(20)]</text>
<polygon fill="none" stroke="black" points="511.21,-828.6 511.21,-859.4 804.61,-859.4 804.61,-828.6 511.21,-828.6"/>
<text text-anchor="start" x="518.21" y="-840.8" font-family="Arial" font-size="14.00">id_number </text>
<text text-anchor="start" x="588.25" y="-840.8" font-family="Arial" font-size="14.00" fill="#666666">[varchar(255)]</text>
<polygon fill="none" stroke="black" points="511.21,-797.8 511.21,-828.6 804.61,-828.6 804.61,-797.8 511.21,-797.8"/>
<text text-anchor="start" x="518.21" y="-810" font-family="Arial" font-size="14.00">created_at </text>
<text text-anchor="start" x="588.25" y="-810" font-family="Arial" font-size="14.00" fill="#666666">[timestamp(0) without time zone]</text>
<polygon fill="none" stroke="black" points="511.21,-767 511.21,-797.8 804.61,-797.8 804.61,-767 511.21,-767"/>
<text text-anchor="start" x="518.21" y="-779.2" font-family="Arial" font-size="14.00">updated_at </text>
<text text-anchor="start" x="592.16" y="-779.2" font-family="Arial" font-size="14.00" fill="#666666">[timestamp(0) without time zone]</text>
<polygon fill="none" stroke="black" points="511.21,-736.2 511.21,-767 804.61,-767 804.61,-736.2 511.21,-736.2"/>
<text text-anchor="start" x="518.21" y="-748.4" font-family="Arial" font-size="14.00">city_code </text>
<text text-anchor="start" x="581.24" y="-748.4" font-family="Arial" font-size="14.00" fill="#666666">[varchar(100)]</text>
<polygon fill="none" stroke="black" points="511.21,-705.4 511.21,-736.2 804.61,-736.2 804.61,-705.4 511.21,-705.4"/>
<text text-anchor="start" x="518.21" y="-717.6" font-family="Arial" font-size="14.00">district_code </text>
<text text-anchor="start" x="600.69" y="-717.6" font-family="Arial" font-size="14.00" fill="#666666">[varchar(100)]</text>
<polygon fill="none" stroke="black" points="511.21,-674.6 511.21,-705.4 804.61,-705.4 804.61,-674.6 511.21,-674.6"/>
<text text-anchor="start" x="518.21" y="-686.8" font-family="Arial" font-size="14.00">ward_code </text>
<text text-anchor="start" x="590.59" y="-686.8" font-family="Arial" font-size="14.00" fill="#666666">[varchar(100)]</text>
<polygon fill="none" stroke="black" points="511.21,-643.8 511.21,-674.6 804.61,-674.6 804.61,-643.8 511.21,-643.8"/>
<text text-anchor="start" x="518.21" y="-656" font-family="Arial" font-size="14.00">bank_account_name </text>
<text text-anchor="start" x="652.08" y="-656" font-family="Arial" font-size="14.00" fill="#666666">[varchar(255)]</text>
<polygon fill="none" stroke="black" points="511.21,-613 511.21,-643.8 804.61,-643.8 804.61,-613 511.21,-613"/>
<text text-anchor="start" x="518.21" y="-625.2" font-family="Arial" font-size="14.00">bank_name </text>
<text text-anchor="start" x="595.26" y="-625.2" font-family="Arial" font-size="14.00" fill="#666666">[varchar(255)]</text>
<polygon fill="none" stroke="black" points="511.21,-582.2 511.21,-613 804.61,-613 804.61,-582.2 511.21,-582.2"/>
<text text-anchor="start" x="518.21" y="-594.4" font-family="Arial" font-size="14.00">bank_account_number </text>
<text text-anchor="start" x="664.53" y="-594.4" font-family="Arial" font-size="14.00" fill="#666666">[varchar(255)]</text>
<polygon fill="none" stroke="black" points="511.21,-551.4 511.21,-582.2 804.61,-582.2 804.61,-551.4 511.21,-551.4"/>
<text text-anchor="start" x="518.21" y="-563.6" font-family="Arial" font-size="14.00">guardian_info </text>
<text text-anchor="start" x="606.94" y="-563.6" font-family="Arial" font-size="14.00" fill="#666666">[varchar(500)]</text>
<polygon fill="none" stroke="black" points="511.21,-520.6 511.21,-551.4 804.61,-551.4 804.61,-520.6 511.21,-520.6"/>
<text text-anchor="start" x="518.21" y="-532.8" font-family="Arial" font-size="14.00">patient_source </text>
<text text-anchor="start" x="613.94" y="-532.8" font-family="Arial" font-size="14.00" fill="#666666">[varchar(255)]</text>
<polygon fill="none" stroke="black" points="511.21,-489.8 511.21,-520.6 804.61,-520.6 804.61,-489.8 511.21,-489.8"/>
<text text-anchor="start" x="518.21" y="-502" font-family="Arial" font-size="14.00">expected_notification_channel </text>
<text text-anchor="start" x="710.46" y="-502" font-family="Arial" font-size="14.00" fill="#666666">[varchar(255)]</text>
</g>
<!-- public.order_vat_invoice_details&#45;&gt;public.patients -->
<g id="edge2" class="edge">
<title>public.order_vat_invoice_details:patient_id&#45;&gt;public.patients:id</title>
<path fill="none" stroke="black" d="M642.54,-2498.7C1088.25,-2490.08 569.59,-1918.59 511.21,-1461.8 505.9,-1420.27 468.34,-1367.6 510.21,-1367.6"/>
<polygon fill="black" stroke="black" points="642.5,-2498.7 632.46,-2494.3 637.17,-2498.75 632.84,-2498.79 632.84,-2498.79 632.84,-2498.79 637.17,-2498.75 632.55,-2503.3 642.5,-2498.7"/>
<text text-anchor="start" x="639.17" y="-2508.8" font-family="Arial" font-size="10.00">FOREIGN KEY (patient_id) REFERENCES patients(id)</text>
</g>
</g>
</svg>
