<?xml version="1.0" encoding="UTF-8" standalone="no"?>
<!DOCTYPE svg PUBLIC "-//W3C//DTD SVG 1.1//EN"
 "http://www.w3.org/Graphics/SVG/1.1/DTD/svg11.dtd">
<!-- Generated by graphviz version 12.1.2 (20240928.0832)
 -->
<!-- Title: public.tat_standards Pages: 1 -->
<svg width="423pt" height="598pt"
 viewBox="0.00 0.00 422.55 598.00" xmlns="http://www.w3.org/2000/svg" xmlns:xlink="http://www.w3.org/1999/xlink">
<g id="graph0" class="graph" transform="scale(1 1) rotate(0) translate(4 594)">
<title>public.tat_standards</title>
<polygon fill="white" stroke="none" points="-4,4 -4,-594 418.55,-594 418.55,4 -4,4"/>
<!-- public.tat_standards -->
<g id="node1" class="node">
<title>public.tat_standards</title>
<polygon fill="#efefef" stroke="none" points="46.2,-508.2 46.2,-543.8 368.35,-543.8 368.35,-508.2 46.2,-508.2"/>
<polygon fill="none" stroke="black" points="46.2,-508.2 46.2,-543.8 368.35,-543.8 368.35,-508.2 46.2,-508.2"/>
<text text-anchor="start" x="72.8" y="-521.6" font-family="Arial Bold" font-size="18.00">public.tat_standards</text>
<text text-anchor="start" x="217.26" y="-521.6" font-family="Arial" font-size="14.00">    </text>
<text text-anchor="start" x="248.38" y="-521.6" font-family="Arial" font-size="14.00" fill="#666666">[BASE TABLE]</text>
<polygon fill="none" stroke="black" points="46.2,-477.4 46.2,-508.2 368.35,-508.2 368.35,-477.4 46.2,-477.4"/>
<text text-anchor="start" x="53.2" y="-489.6" font-family="Arial" font-size="14.00">id </text>
<text text-anchor="start" x="67.99" y="-489.6" font-family="Arial" font-size="14.00" fill="#666666">[bigint]</text>
<polygon fill="none" stroke="black" points="46.2,-446.6 46.2,-477.4 368.35,-477.4 368.35,-446.6 46.2,-446.6"/>
<text text-anchor="start" x="53.2" y="-458.8" font-family="Arial" font-size="14.00">test_code </text>
<text text-anchor="start" x="117.8" y="-458.8" font-family="Arial" font-size="14.00" fill="#666666">[varchar(100)]</text>
<polygon fill="none" stroke="black" points="46.2,-415.8 46.2,-446.6 368.35,-446.6 368.35,-415.8 46.2,-415.8"/>
<text text-anchor="start" x="53.2" y="-428" font-family="Arial" font-size="14.00">test_name </text>
<text text-anchor="start" x="122.46" y="-428" font-family="Arial" font-size="14.00" fill="#666666">[varchar(255)]</text>
<polygon fill="none" stroke="black" points="46.2,-385 46.2,-415.8 368.35,-415.8 368.35,-385 46.2,-385"/>
<text text-anchor="start" x="53.2" y="-397.2" font-family="Arial" font-size="14.00">cut_off_day </text>
<text text-anchor="start" x="129.48" y="-397.2" font-family="Arial" font-size="14.00" fill="#666666">[varchar(255)]</text>
<polygon fill="none" stroke="black" points="46.2,-354.2 46.2,-385 368.35,-385 368.35,-354.2 46.2,-354.2"/>
<text text-anchor="start" x="53.2" y="-366.4" font-family="Arial" font-size="14.00">cut_off_time </text>
<text text-anchor="start" x="133.35" y="-366.4" font-family="Arial" font-size="14.00" fill="#666666">[varchar(100)]</text>
<polygon fill="none" stroke="black" points="46.2,-323.4 46.2,-354.2 368.35,-354.2 368.35,-323.4 46.2,-323.4"/>
<text text-anchor="start" x="53.2" y="-335.6" font-family="Arial" font-size="14.00">sunday_run </text>
<text text-anchor="start" x="130.25" y="-335.6" font-family="Arial" font-size="14.00" fill="#666666">[boolean]</text>
<polygon fill="none" stroke="black" points="46.2,-292.6 46.2,-323.4 368.35,-323.4 368.35,-292.6 46.2,-292.6"/>
<text text-anchor="start" x="53.2" y="-304.8" font-family="Arial" font-size="14.00">cut_off_time_sunday </text>
<text text-anchor="start" x="186.28" y="-304.8" font-family="Arial" font-size="14.00" fill="#666666">[varchar(100)]</text>
<polygon fill="none" stroke="black" points="46.2,-261.8 46.2,-292.6 368.35,-292.6 368.35,-261.8 46.2,-261.8"/>
<text text-anchor="start" x="53.2" y="-274" font-family="Arial" font-size="14.00">result_days </text>
<text text-anchor="start" x="128.68" y="-274" font-family="Arial" font-size="14.00" fill="#666666">[integer]</text>
<polygon fill="none" stroke="black" points="46.2,-231 46.2,-261.8 368.35,-261.8 368.35,-231 46.2,-231"/>
<text text-anchor="start" x="53.2" y="-243.2" font-family="Arial" font-size="14.00">result_time </text>
<text text-anchor="start" x="125.56" y="-243.2" font-family="Arial" font-size="14.00" fill="#666666">[varchar(100)]</text>
<polygon fill="none" stroke="black" points="46.2,-200.2 46.2,-231 368.35,-231 368.35,-200.2 46.2,-200.2"/>
<text text-anchor="start" x="53.2" y="-212.4" font-family="Arial" font-size="14.00">tat_minutes </text>
<text text-anchor="start" x="129.46" y="-212.4" font-family="Arial" font-size="14.00" fill="#666666">[integer]</text>
<polygon fill="none" stroke="black" points="46.2,-169.4 46.2,-200.2 368.35,-200.2 368.35,-169.4 46.2,-169.4"/>
<text text-anchor="start" x="53.2" y="-181.6" font-family="Arial" font-size="14.00">working_opening_time </text>
<text text-anchor="start" x="197.18" y="-181.6" font-family="Arial" font-size="14.00" fill="#666666">[time(0) without time zone]</text>
<polygon fill="none" stroke="black" points="46.2,-138.6 46.2,-169.4 368.35,-169.4 368.35,-138.6 46.2,-138.6"/>
<text text-anchor="start" x="53.2" y="-150.8" font-family="Arial" font-size="14.00">tat_freq_type </text>
<text text-anchor="start" x="138.81" y="-150.8" font-family="Arial" font-size="14.00" fill="#666666">[varchar(50)]</text>
<polygon fill="none" stroke="black" points="46.2,-107.8 46.2,-138.6 368.35,-138.6 368.35,-107.8 46.2,-107.8"/>
<text text-anchor="start" x="53.2" y="-120" font-family="Arial" font-size="14.00">result_time_after_cutoff </text>
<text text-anchor="start" x="203.39" y="-120" font-family="Arial" font-size="14.00" fill="#666666">[varchar(100)]</text>
<polygon fill="none" stroke="black" points="46.2,-77 46.2,-107.8 368.35,-107.8 368.35,-77 46.2,-77"/>
<text text-anchor="start" x="53.2" y="-89.2" font-family="Arial" font-size="14.00">created_at </text>
<text text-anchor="start" x="123.25" y="-89.2" font-family="Arial" font-size="14.00" fill="#666666">[timestamp(0) without time zone]</text>
<polygon fill="none" stroke="black" points="46.2,-46.2 46.2,-77 368.35,-77 368.35,-46.2 46.2,-46.2"/>
<text text-anchor="start" x="53.2" y="-58.4" font-family="Arial" font-size="14.00">updated_at </text>
<text text-anchor="start" x="127.16" y="-58.4" font-family="Arial" font-size="14.00" fill="#666666">[timestamp(0) without time zone]</text>
<polygon fill="none" stroke="black" stroke-width="3" points="44.7,-44.7 44.7,-545.3 369.85,-545.3 369.85,-44.7 44.7,-44.7"/>
</g>
</g>
</svg>
