<?xml version="1.0" encoding="UTF-8" standalone="no"?>
<!DOCTYPE svg PUBLIC "-//W3C//DTD SVG 1.1//EN"
 "http://www.w3.org/Graphics/SVG/1.1/DTD/svg11.dtd">
<!-- Generated by graphviz version 12.1.2 (20240928.0832)
 -->
<!-- Title: public.clients Pages: 1 -->
<svg width="874pt" height="2419pt"
 viewBox="0.00 0.00 873.56 2419.20" xmlns="http://www.w3.org/2000/svg" xmlns:xlink="http://www.w3.org/1999/xlink">
<g id="graph0" class="graph" transform="scale(1 1) rotate(0) translate(4 2415.2)">
<title>public.clients</title>
<polygon fill="white" stroke="none" points="-4,4 -4,-2415.2 869.56,-2415.2 869.56,4 -4,4"/>
<!-- public.clients -->
<g id="node1" class="node">
<title>public.clients</title>
<polygon fill="#efefef" stroke="none" points="300.78,-385 300.78,-420.6 591.03,-420.6 591.03,-385 300.78,-385"/>
<polygon fill="none" stroke="black" points="300.78,-385 300.78,-420.6 591.03,-420.6 591.03,-385 300.78,-385"/>
<text text-anchor="start" x="335.42" y="-398.4" font-family="Arial Bold" font-size="18.00">public.clients</text>
<text text-anchor="start" x="431.9" y="-398.4" font-family="Arial" font-size="14.00">    </text>
<text text-anchor="start" x="463.02" y="-398.4" font-family="Arial" font-size="14.00" fill="#666666">[BASE TABLE]</text>
<polygon fill="none" stroke="black" points="300.78,-354.2 300.78,-385 591.03,-385 591.03,-354.2 300.78,-354.2"/>
<text text-anchor="start" x="307.78" y="-366.4" font-family="Arial" font-size="14.00">id </text>
<text text-anchor="start" x="322.57" y="-366.4" font-family="Arial" font-size="14.00" fill="#666666">[bigint]</text>
<polygon fill="none" stroke="black" points="300.78,-323.4 300.78,-354.2 591.03,-354.2 591.03,-323.4 300.78,-323.4"/>
<text text-anchor="start" x="307.78" y="-335.6" font-family="Arial" font-size="14.00">account_code </text>
<text text-anchor="start" x="398.85" y="-335.6" font-family="Arial" font-size="14.00" fill="#666666">[varchar(100)]</text>
<polygon fill="none" stroke="black" points="300.78,-292.6 300.78,-323.4 591.03,-323.4 591.03,-292.6 300.78,-292.6"/>
<text text-anchor="start" x="307.78" y="-304.8" font-family="Arial" font-size="14.00">legal_name </text>
<text text-anchor="start" x="384.05" y="-304.8" font-family="Arial" font-size="14.00" fill="#666666">[varchar(255)]</text>
<polygon fill="none" stroke="black" points="300.78,-261.8 300.78,-292.6 591.03,-292.6 591.03,-261.8 300.78,-261.8"/>
<text text-anchor="start" x="307.78" y="-274" font-family="Arial" font-size="14.00">address </text>
<text text-anchor="start" x="361.48" y="-274" font-family="Arial" font-size="14.00" fill="#666666">[varchar(255)]</text>
<polygon fill="none" stroke="black" points="300.78,-231 300.78,-261.8 591.03,-261.8 591.03,-231 300.78,-231"/>
<text text-anchor="start" x="307.78" y="-243.2" font-family="Arial" font-size="14.00">created_at </text>
<text text-anchor="start" x="377.83" y="-243.2" font-family="Arial" font-size="14.00" fill="#666666">[timestamp(0) without time zone]</text>
<polygon fill="none" stroke="black" points="300.78,-200.2 300.78,-231 591.03,-231 591.03,-200.2 300.78,-200.2"/>
<text text-anchor="start" x="307.78" y="-212.4" font-family="Arial" font-size="14.00">updated_at </text>
<text text-anchor="start" x="381.74" y="-212.4" font-family="Arial" font-size="14.00" fill="#666666">[timestamp(0) without time zone]</text>
<polygon fill="none" stroke="black" points="300.78,-169.4 300.78,-200.2 591.03,-200.2 591.03,-169.4 300.78,-169.4"/>
<text text-anchor="start" x="307.78" y="-181.6" font-family="Arial" font-size="14.00">status </text>
<text text-anchor="start" x="349.02" y="-181.6" font-family="Arial" font-size="14.00" fill="#666666">[varchar(100)]</text>
<polygon fill="none" stroke="black" points="300.78,-138.6 300.78,-169.4 591.03,-169.4 591.03,-138.6 300.78,-138.6"/>
<text text-anchor="start" x="307.78" y="-150.8" font-family="Arial" font-size="14.00">customer_segment_id </text>
<text text-anchor="start" x="449.41" y="-150.8" font-family="Arial" font-size="14.00" fill="#666666">[varchar(255)]</text>
<polygon fill="none" stroke="black" points="300.78,-107.8 300.78,-138.6 591.03,-138.6 591.03,-107.8 300.78,-107.8"/>
<text text-anchor="start" x="307.78" y="-120" font-family="Arial" font-size="14.00">customer_segment </text>
<text text-anchor="start" x="430.72" y="-120" font-family="Arial" font-size="14.00" fill="#666666">[varchar(255)]</text>
<polygon fill="none" stroke="black" points="300.78,-77 300.78,-107.8 591.03,-107.8 591.03,-77 300.78,-77"/>
<text text-anchor="start" x="307.78" y="-89.2" font-family="Arial" font-size="14.00">client_type </text>
<text text-anchor="start" x="378.6" y="-89.2" font-family="Arial" font-size="14.00" fill="#666666">[varchar(255)]</text>
<polygon fill="none" stroke="black" points="300.78,-46.2 300.78,-77 591.03,-77 591.03,-46.2 300.78,-46.2"/>
<text text-anchor="start" x="307.78" y="-58.4" font-family="Arial" font-size="14.00">discount_value </text>
<text text-anchor="start" x="405.07" y="-58.4" font-family="Arial" font-size="14.00" fill="#666666">[varchar(255)]</text>
<polygon fill="none" stroke="black" stroke-width="3" points="299.28,-44.7 299.28,-422.1 592.53,-422.1 592.53,-44.7 299.28,-44.7"/>
</g>
<!-- public.orders -->
<g id="node2" class="node">
<title>public.orders</title>
<polygon fill="#efefef" stroke="none" points="43.2,-2332.4 43.2,-2368 406.61,-2368 406.61,-2332.4 43.2,-2332.4"/>
<polygon fill="none" stroke="black" points="43.2,-2332.4 43.2,-2368 406.61,-2368 406.61,-2332.4 43.2,-2332.4"/>
<text text-anchor="start" x="115.42" y="-2345.8" font-family="Arial Bold" font-size="18.00">public.orders</text>
<text text-anchor="start" x="209.9" y="-2345.8" font-family="Arial" font-size="14.00">    </text>
<text text-anchor="start" x="241.02" y="-2345.8" font-family="Arial" font-size="14.00" fill="#666666">[BASE TABLE]</text>
<polygon fill="none" stroke="black" points="43.2,-2301.6 43.2,-2332.4 406.61,-2332.4 406.61,-2301.6 43.2,-2301.6"/>
<text text-anchor="start" x="50.2" y="-2313.8" font-family="Arial" font-size="14.00">id </text>
<text text-anchor="start" x="64.99" y="-2313.8" font-family="Arial" font-size="14.00" fill="#666666">[bigint]</text>
<polygon fill="none" stroke="black" points="43.2,-2270.8 43.2,-2301.6 406.61,-2301.6 406.61,-2270.8 43.2,-2270.8"/>
<text text-anchor="start" x="50.2" y="-2283" font-family="Arial" font-size="14.00">code </text>
<text text-anchor="start" x="84.45" y="-2283" font-family="Arial" font-size="14.00" fill="#666666">[varchar(100)]</text>
<polygon fill="none" stroke="black" points="43.2,-2240 43.2,-2270.8 406.61,-2270.8 406.61,-2240 43.2,-2240"/>
<text text-anchor="start" x="50.2" y="-2252.2" font-family="Arial" font-size="14.00">booking_code </text>
<text text-anchor="start" x="141.28" y="-2252.2" font-family="Arial" font-size="14.00" fill="#666666">[varchar(100)]</text>
<polygon fill="none" stroke="black" points="43.2,-2209.2 43.2,-2240 406.61,-2240 406.61,-2209.2 43.2,-2209.2"/>
<text text-anchor="start" x="50.2" y="-2221.4" font-family="Arial" font-size="14.00">patient_id </text>
<text text-anchor="start" x="114.81" y="-2221.4" font-family="Arial" font-size="14.00" fill="#666666">[bigint]</text>
<polygon fill="none" stroke="black" points="43.2,-2178.4 43.2,-2209.2 406.61,-2209.2 406.61,-2178.4 43.2,-2178.4"/>
<text text-anchor="start" x="50.2" y="-2190.6" font-family="Arial" font-size="14.00">client_id </text>
<text text-anchor="start" x="105.45" y="-2190.6" font-family="Arial" font-size="14.00" fill="#666666">[bigint]</text>
<polygon fill="none" stroke="black" points="43.2,-2147.6 43.2,-2178.4 406.61,-2178.4 406.61,-2147.6 43.2,-2147.6"/>
<text text-anchor="start" x="50.2" y="-2159.8" font-family="Arial" font-size="14.00">lis_order_id </text>
<text text-anchor="start" x="126.46" y="-2159.8" font-family="Arial" font-size="14.00" fill="#666666">[varchar(255)]</text>
<polygon fill="none" stroke="black" points="43.2,-2116.8 43.2,-2147.6 406.61,-2147.6 406.61,-2116.8 43.2,-2116.8"/>
<text text-anchor="start" x="50.2" y="-2129" font-family="Arial" font-size="14.00">client_ext_reference_id </text>
<text text-anchor="start" x="198.85" y="-2129" font-family="Arial" font-size="14.00" fill="#666666">[varchar(100)]</text>
<polygon fill="none" stroke="black" points="43.2,-2086 43.2,-2116.8 406.61,-2116.8 406.61,-2086 43.2,-2086"/>
<text text-anchor="start" x="50.2" y="-2098.2" font-family="Arial" font-size="14.00">ex_patient_number </text>
<text text-anchor="start" x="173.95" y="-2098.2" font-family="Arial" font-size="14.00" fill="#666666">[varchar(255)]</text>
<polygon fill="none" stroke="black" points="43.2,-2055.2 43.2,-2086 406.61,-2086 406.61,-2055.2 43.2,-2055.2"/>
<text text-anchor="start" x="50.2" y="-2067.4" font-family="Arial" font-size="14.00">ref_dr </text>
<text text-anchor="start" x="90.66" y="-2067.4" font-family="Arial" font-size="14.00" fill="#666666">[varchar(255)]</text>
<polygon fill="none" stroke="black" points="43.2,-2024.4 43.2,-2055.2 406.61,-2055.2 406.61,-2024.4 43.2,-2024.4"/>
<text text-anchor="start" x="50.2" y="-2036.6" font-family="Arial" font-size="14.00">remarks </text>
<text text-anchor="start" x="104.65" y="-2036.6" font-family="Arial" font-size="14.00" fill="#666666">[text]</text>
<polygon fill="none" stroke="black" points="43.2,-1993.6 43.2,-2024.4 406.61,-2024.4 406.61,-1993.6 43.2,-1993.6"/>
<text text-anchor="start" x="50.2" y="-2005.8" font-family="Arial" font-size="14.00">is_additional_test </text>
<text text-anchor="start" x="162.28" y="-2005.8" font-family="Arial" font-size="14.00" fill="#666666">[boolean]</text>
<polygon fill="none" stroke="black" points="43.2,-1962.8 43.2,-1993.6 406.61,-1993.6 406.61,-1962.8 43.2,-1962.8"/>
<text text-anchor="start" x="50.2" y="-1975" font-family="Arial" font-size="14.00">history </text>
<text text-anchor="start" x="95.32" y="-1975" font-family="Arial" font-size="14.00" fill="#666666">[text]</text>
<polygon fill="none" stroke="black" points="43.2,-1932 43.2,-1962.8 406.61,-1962.8 406.61,-1932 43.2,-1932"/>
<text text-anchor="start" x="50.2" y="-1944.2" font-family="Arial" font-size="14.00">bulk_upload_id </text>
<text text-anchor="start" x="148.28" y="-1944.2" font-family="Arial" font-size="14.00" fill="#666666">[uuid]</text>
<polygon fill="none" stroke="black" points="43.2,-1901.2 43.2,-1932 406.61,-1932 406.61,-1901.2 43.2,-1901.2"/>
<text text-anchor="start" x="50.2" y="-1913.4" font-family="Arial" font-size="14.00">total </text>
<text text-anchor="start" x="80.55" y="-1913.4" font-family="Arial" font-size="14.00" fill="#666666">[double precision]</text>
<polygon fill="none" stroke="black" points="43.2,-1870.4 43.2,-1901.2 406.61,-1901.2 406.61,-1870.4 43.2,-1870.4"/>
<text text-anchor="start" x="50.2" y="-1882.6" font-family="Arial" font-size="14.00">branch_code </text>
<text text-anchor="start" x="135.04" y="-1882.6" font-family="Arial" font-size="14.00" fill="#666666">[varchar(100)]</text>
<polygon fill="none" stroke="black" points="43.2,-1839.6 43.2,-1870.4 406.61,-1870.4 406.61,-1839.6 43.2,-1839.6"/>
<text text-anchor="start" x="50.2" y="-1851.8" font-family="Arial" font-size="14.00">patient_code </text>
<text text-anchor="start" x="134.27" y="-1851.8" font-family="Arial" font-size="14.00" fill="#666666">[varchar(255)]</text>
<polygon fill="none" stroke="black" points="43.2,-1808.8 43.2,-1839.6 406.61,-1839.6 406.61,-1808.8 43.2,-1808.8"/>
<text text-anchor="start" x="50.2" y="-1821" font-family="Arial" font-size="14.00">patient_full_name </text>
<text text-anchor="start" x="164.61" y="-1821" font-family="Arial" font-size="14.00" fill="#666666">[varchar(255)]</text>
<polygon fill="none" stroke="black" points="43.2,-1778 43.2,-1808.8 406.61,-1808.8 406.61,-1778 43.2,-1778"/>
<text text-anchor="start" x="50.2" y="-1790.2" font-family="Arial" font-size="14.00">patient_gender </text>
<text text-anchor="start" x="147.5" y="-1790.2" font-family="Arial" font-size="14.00" fill="#666666">[varchar(20)]</text>
<polygon fill="none" stroke="black" points="43.2,-1747.2 43.2,-1778 406.61,-1778 406.61,-1747.2 43.2,-1747.2"/>
<text text-anchor="start" x="50.2" y="-1759.4" font-family="Arial" font-size="14.00">patient_marital_status </text>
<text text-anchor="start" x="191.05" y="-1759.4" font-family="Arial" font-size="14.00" fill="#666666">[varchar(20)]</text>
<polygon fill="none" stroke="black" points="43.2,-1716.4 43.2,-1747.2 406.61,-1747.2 406.61,-1716.4 43.2,-1716.4"/>
<text text-anchor="start" x="50.2" y="-1728.6" font-family="Arial" font-size="14.00">patient_dob </text>
<text text-anchor="start" x="127.27" y="-1728.6" font-family="Arial" font-size="14.00" fill="#666666">[date]</text>
<polygon fill="none" stroke="black" points="43.2,-1685.6 43.2,-1716.4 406.61,-1716.4 406.61,-1685.6 43.2,-1685.6"/>
<text text-anchor="start" x="50.2" y="-1697.8" font-family="Arial" font-size="14.00">patient_phone_number </text>
<text text-anchor="start" x="198.1" y="-1697.8" font-family="Arial" font-size="14.00" fill="#666666">[varchar(20)]</text>
<polygon fill="none" stroke="black" points="43.2,-1654.8 43.2,-1685.6 406.61,-1685.6 406.61,-1654.8 43.2,-1654.8"/>
<text text-anchor="start" x="50.2" y="-1667" font-family="Arial" font-size="14.00">patient_email </text>
<text text-anchor="start" x="137.37" y="-1667" font-family="Arial" font-size="14.00" fill="#666666">[varchar(255)]</text>
<polygon fill="none" stroke="black" points="43.2,-1624 43.2,-1654.8 406.61,-1654.8 406.61,-1624 43.2,-1624"/>
<text text-anchor="start" x="50.2" y="-1636.2" font-family="Arial" font-size="14.00">patient_address </text>
<text text-anchor="start" x="153.72" y="-1636.2" font-family="Arial" font-size="14.00" fill="#666666">[varchar(255)]</text>
<polygon fill="none" stroke="black" points="43.2,-1593.2 43.2,-1624 406.61,-1624 406.61,-1593.2 43.2,-1593.2"/>
<text text-anchor="start" x="50.2" y="-1605.4" font-family="Arial" font-size="14.00">patient_ward </text>
<text text-anchor="start" x="134.25" y="-1605.4" font-family="Arial" font-size="14.00" fill="#666666">[varchar(255)]</text>
<polygon fill="none" stroke="black" points="43.2,-1562.4 43.2,-1593.2 406.61,-1593.2 406.61,-1562.4 43.2,-1562.4"/>
<text text-anchor="start" x="50.2" y="-1574.6" font-family="Arial" font-size="14.00">patient_district </text>
<text text-anchor="start" x="144.36" y="-1574.6" font-family="Arial" font-size="14.00" fill="#666666">[varchar(255)]</text>
<polygon fill="none" stroke="black" points="43.2,-1531.6 43.2,-1562.4 406.61,-1562.4 406.61,-1531.6 43.2,-1531.6"/>
<text text-anchor="start" x="50.2" y="-1543.8" font-family="Arial" font-size="14.00">patient_city </text>
<text text-anchor="start" x="124.91" y="-1543.8" font-family="Arial" font-size="14.00" fill="#666666">[varchar(100)]</text>
<polygon fill="none" stroke="black" points="43.2,-1500.8 43.2,-1531.6 406.61,-1531.6 406.61,-1500.8 43.2,-1500.8"/>
<text text-anchor="start" x="50.2" y="-1513" font-family="Arial" font-size="14.00">patient_country </text>
<text text-anchor="start" x="149.82" y="-1513" font-family="Arial" font-size="14.00" fill="#666666">[varchar(60)]</text>
<polygon fill="none" stroke="black" points="43.2,-1470 43.2,-1500.8 406.61,-1500.8 406.61,-1470 43.2,-1470"/>
<text text-anchor="start" x="50.2" y="-1482.2" font-family="Arial" font-size="14.00">patient_nationality </text>
<text text-anchor="start" x="166.95" y="-1482.2" font-family="Arial" font-size="14.00" fill="#666666">[varchar(60)]</text>
<polygon fill="none" stroke="black" points="43.2,-1439.2 43.2,-1470 406.61,-1470 406.61,-1439.2 43.2,-1439.2"/>
<text text-anchor="start" x="50.2" y="-1451.4" font-family="Arial" font-size="14.00">patient_id_number_type </text>
<text text-anchor="start" x="204.31" y="-1451.4" font-family="Arial" font-size="14.00" fill="#666666">[varchar(20)]</text>
<polygon fill="none" stroke="black" points="43.2,-1408.4 43.2,-1439.2 406.61,-1439.2 406.61,-1408.4 43.2,-1408.4"/>
<text text-anchor="start" x="50.2" y="-1420.6" font-family="Arial" font-size="14.00">patient_id_number </text>
<text text-anchor="start" x="170.06" y="-1420.6" font-family="Arial" font-size="14.00" fill="#666666">[varchar(255)]</text>
<polygon fill="none" stroke="black" points="43.2,-1377.6 43.2,-1408.4 406.61,-1408.4 406.61,-1377.6 43.2,-1377.6"/>
<text text-anchor="start" x="50.2" y="-1389.8" font-family="Arial" font-size="14.00">created_by_employee_code </text>
<text text-anchor="start" x="229.99" y="-1389.8" font-family="Arial" font-size="14.00" fill="#666666">[varchar(100)]</text>
<polygon fill="none" stroke="black" points="43.2,-1346.8 43.2,-1377.6 406.61,-1377.6 406.61,-1346.8 43.2,-1346.8"/>
<text text-anchor="start" x="50.2" y="-1359" font-family="Arial" font-size="14.00">created_by_employee_email </text>
<text text-anchor="start" x="233.09" y="-1359" font-family="Arial" font-size="14.00" fill="#666666">[varchar(255)]</text>
<polygon fill="none" stroke="black" points="43.2,-1316 43.2,-1346.8 406.61,-1346.8 406.61,-1316 43.2,-1316"/>
<text text-anchor="start" x="50.2" y="-1328.2" font-family="Arial" font-size="14.00">created_at </text>
<text text-anchor="start" x="120.25" y="-1328.2" font-family="Arial" font-size="14.00" fill="#666666">[timestamp(0) without time zone]</text>
<polygon fill="none" stroke="black" points="43.2,-1285.2 43.2,-1316 406.61,-1316 406.61,-1285.2 43.2,-1285.2"/>
<text text-anchor="start" x="50.2" y="-1297.4" font-family="Arial" font-size="14.00">updated_at </text>
<text text-anchor="start" x="124.16" y="-1297.4" font-family="Arial" font-size="14.00" fill="#666666">[timestamp(0) without time zone]</text>
<polygon fill="none" stroke="black" points="43.2,-1254.4 43.2,-1285.2 406.61,-1285.2 406.61,-1254.4 43.2,-1254.4"/>
<text text-anchor="start" x="50.2" y="-1266.6" font-family="Arial" font-size="14.00">patient_salutation </text>
<text text-anchor="start" x="163.84" y="-1266.6" font-family="Arial" font-size="14.00" fill="#666666">[varchar(100)]</text>
<polygon fill="none" stroke="black" points="43.2,-1223.6 43.2,-1254.4 406.61,-1254.4 406.61,-1223.6 43.2,-1223.6"/>
<text text-anchor="start" x="50.2" y="-1235.8" font-family="Arial" font-size="14.00">status </text>
<text text-anchor="start" x="91.44" y="-1235.8" font-family="Arial" font-size="14.00" fill="#666666">[varchar(255)]</text>
<polygon fill="none" stroke="black" points="43.2,-1192.8 43.2,-1223.6 406.61,-1223.6 406.61,-1192.8 43.2,-1192.8"/>
<text text-anchor="start" x="50.2" y="-1205" font-family="Arial" font-size="14.00">billing_pdf </text>
<text text-anchor="start" x="117.14" y="-1205" font-family="Arial" font-size="14.00" fill="#666666">[varchar(255)]</text>
<polygon fill="none" stroke="black" points="43.2,-1162 43.2,-1192.8 406.61,-1192.8 406.61,-1162 43.2,-1162"/>
<text text-anchor="start" x="50.2" y="-1174.2" font-family="Arial" font-size="14.00">amount_received </text>
<text text-anchor="start" x="161.49" y="-1174.2" font-family="Arial" font-size="14.00" fill="#666666">[double precision]</text>
<polygon fill="none" stroke="black" points="43.2,-1131.2 43.2,-1162 406.61,-1162 406.61,-1131.2 43.2,-1131.2"/>
<text text-anchor="start" x="50.2" y="-1143.4" font-family="Arial" font-size="14.00">patient_insurance_detail_id </text>
<text text-anchor="start" x="224.55" y="-1143.4" font-family="Arial" font-size="14.00" fill="#666666">[bigint]</text>
<polygon fill="none" stroke="black" points="43.2,-1100.4 43.2,-1131.2 406.61,-1131.2 406.61,-1100.4 43.2,-1100.4"/>
<text text-anchor="start" x="50.2" y="-1112.6" font-family="Arial" font-size="14.00">direct_insurance_claim </text>
<text text-anchor="start" x="197.27" y="-1112.6" font-family="Arial" font-size="14.00" fill="#666666">[boolean]</text>
<polygon fill="none" stroke="black" points="43.2,-1069.6 43.2,-1100.4 406.61,-1100.4 406.61,-1069.6 43.2,-1069.6"/>
<text text-anchor="start" x="50.2" y="-1081.8" font-family="Arial" font-size="14.00">vat_required </text>
<text text-anchor="start" x="131.92" y="-1081.8" font-family="Arial" font-size="14.00" fill="#666666">[boolean]</text>
<polygon fill="none" stroke="black" points="43.2,-1038.8 43.2,-1069.6 406.61,-1069.6 406.61,-1038.8 43.2,-1038.8"/>
<text text-anchor="start" x="50.2" y="-1051" font-family="Arial" font-size="14.00">patient_guardian_info </text>
<text text-anchor="start" x="188.76" y="-1051" font-family="Arial" font-size="14.00" fill="#666666">[varchar(500)]</text>
<polygon fill="none" stroke="black" points="43.2,-1008 43.2,-1038.8 406.61,-1038.8 406.61,-1008 43.2,-1008"/>
<text text-anchor="start" x="50.2" y="-1020.2" font-family="Arial" font-size="14.00">promotions </text>
<text text-anchor="start" x="123.34" y="-1020.2" font-family="Arial" font-size="14.00" fill="#666666">[json]</text>
<polygon fill="none" stroke="black" points="43.2,-977.2 43.2,-1008 406.61,-1008 406.61,-977.2 43.2,-977.2"/>
<text text-anchor="start" x="50.2" y="-989.4" font-family="Arial" font-size="14.00">order_placed_option </text>
<text text-anchor="start" x="181.74" y="-989.4" font-family="Arial" font-size="14.00" fill="#666666">[varchar(255)]</text>
<polygon fill="none" stroke="black" points="43.2,-946.4 43.2,-977.2 406.61,-977.2 406.61,-946.4 43.2,-946.4"/>
<text text-anchor="start" x="50.2" y="-958.6" font-family="Arial" font-size="14.00">reject_identity_reason </text>
<text text-anchor="start" x="191.06" y="-958.6" font-family="Arial" font-size="14.00" fill="#666666">[text]</text>
<polygon fill="none" stroke="black" points="43.2,-915.6 43.2,-946.4 406.61,-946.4 406.61,-915.6 43.2,-915.6"/>
<text text-anchor="start" x="50.2" y="-927.8" font-family="Arial" font-size="14.00">otp </text>
<text text-anchor="start" x="73.55" y="-927.8" font-family="Arial" font-size="14.00" fill="#666666">[text]</text>
<polygon fill="none" stroke="black" points="43.2,-884.8 43.2,-915.6 406.61,-915.6 406.61,-884.8 43.2,-884.8"/>
<text text-anchor="start" x="50.2" y="-897" font-family="Arial" font-size="14.00">otp_expired_at </text>
<text text-anchor="start" x="146.72" y="-897" font-family="Arial" font-size="14.00" fill="#666666">[timestamp(0) without time zone]</text>
<polygon fill="none" stroke="black" points="43.2,-854 43.2,-884.8 406.61,-884.8 406.61,-854 43.2,-854"/>
<text text-anchor="start" x="50.2" y="-866.2" font-family="Arial" font-size="14.00">cancel_reason </text>
<text text-anchor="start" x="145.15" y="-866.2" font-family="Arial" font-size="14.00" fill="#666666">[varchar(255)]</text>
<polygon fill="none" stroke="black" points="43.2,-823.2 43.2,-854 406.61,-854 406.61,-823.2 43.2,-823.2"/>
<text text-anchor="start" x="50.2" y="-835.4" font-family="Arial" font-size="14.00">emergency_contact </text>
<text text-anchor="start" x="176.27" y="-835.4" font-family="Arial" font-size="14.00" fill="#666666">[boolean]</text>
<polygon fill="none" stroke="black" points="43.2,-792.4 43.2,-823.2 406.61,-823.2 406.61,-792.4 43.2,-792.4"/>
<text text-anchor="start" x="50.2" y="-804.6" font-family="Arial" font-size="14.00">emergency_contact_off_reason </text>
<text text-anchor="start" x="250.21" y="-804.6" font-family="Arial" font-size="14.00" fill="#666666">[varchar(255)]</text>
<polygon fill="none" stroke="black" points="43.2,-761.6 43.2,-792.4 406.61,-792.4 406.61,-761.6 43.2,-761.6"/>
<text text-anchor="start" x="50.2" y="-773.8" font-family="Arial" font-size="14.00">patient_emergency_contact_id </text>
<text text-anchor="start" x="244.77" y="-773.8" font-family="Arial" font-size="14.00" fill="#666666">[bigint]</text>
<polygon fill="none" stroke="black" points="43.2,-730.8 43.2,-761.6 406.61,-761.6 406.61,-730.8 43.2,-730.8"/>
<text text-anchor="start" x="50.2" y="-743" font-family="Arial" font-size="14.00">billing_last_updated_at </text>
<text text-anchor="start" x="197.32" y="-743" font-family="Arial" font-size="14.00" fill="#666666">[timestamp(0) without time zone]</text>
<polygon fill="none" stroke="black" points="43.2,-700 43.2,-730.8 406.61,-730.8 406.61,-700 43.2,-700"/>
<text text-anchor="start" x="50.2" y="-712.2" font-family="Arial" font-size="14.00">cancel_by </text>
<text text-anchor="start" x="117.13" y="-712.2" font-family="Arial" font-size="14.00" fill="#666666">[varchar(255)]</text>
<polygon fill="none" stroke="black" points="43.2,-669.2 43.2,-700 406.61,-700 406.61,-669.2 43.2,-669.2"/>
<text text-anchor="start" x="50.2" y="-681.4" font-family="Arial" font-size="14.00">cancel_time </text>
<text text-anchor="start" x="128.79" y="-681.4" font-family="Arial" font-size="14.00" fill="#666666">[timestamp(0) without time zone]</text>
<polygon fill="none" stroke="black" points="43.2,-638.4 43.2,-669.2 406.61,-669.2 406.61,-638.4 43.2,-638.4"/>
<text text-anchor="start" x="50.2" y="-650.6" font-family="Arial" font-size="14.00">stat </text>
<text text-anchor="start" x="76.66" y="-650.6" font-family="Arial" font-size="14.00" fill="#666666">[boolean]</text>
<polygon fill="none" stroke="black" points="43.2,-607.6 43.2,-638.4 406.61,-638.4 406.61,-607.6 43.2,-607.6"/>
<text text-anchor="start" x="50.2" y="-619.8" font-family="Arial" font-size="14.00">purchase_order_code </text>
<text text-anchor="start" x="190.3" y="-619.8" font-family="Arial" font-size="14.00" fill="#666666">[varchar(255)]</text>
<polygon fill="none" stroke="black" points="43.2,-576.8 43.2,-607.6 406.61,-607.6 406.61,-576.8 43.2,-576.8"/>
<text text-anchor="start" x="50.2" y="-589" font-family="Arial" font-size="14.00">trashed_booking_code </text>
<text text-anchor="start" x="195.76" y="-589" font-family="Arial" font-size="14.00" fill="#666666">[varchar(255)]</text>
<polygon fill="none" stroke="black" points="43.2,-546 43.2,-576.8 406.61,-576.8 406.61,-546 43.2,-546"/>
<text text-anchor="start" x="50.2" y="-558.2" font-family="Arial" font-size="14.00">trashed_booking_code_usage_reason </text>
<text text-anchor="start" x="292.28" y="-558.2" font-family="Arial" font-size="14.00" fill="#666666">[varchar(255)]</text>
</g>
<!-- public.orders&#45;&gt;public.clients -->
<g id="edge1" class="edge">
<title>public.orders:client_id&#45;&gt;public.clients:id</title>
<path fill="none" stroke="black" d="M413.18,-2185.3C452.84,-2057.84 432.82,-539.38 406.61,-502.8 377.67,-462.41 329.91,-507.05 300.78,-466.8 275.45,-431.81 256.58,-369.6 299.78,-369.6"/>
<polygon fill="black" stroke="black" points="413.27,-2185.15 404.03,-2191.06 410.35,-2189.62 407.98,-2193.24 407.98,-2193.24 407.98,-2193.24 410.35,-2189.62 411.56,-2195.98 413.27,-2185.15"/>
<text text-anchor="start" x="414.61" y="-2203.8" font-family="Arial" font-size="10.00">FOREIGN KEY (client_id) REFERENCES clients(id)</text>
</g>
<!-- public.rate_card_clients -->
<g id="node3" class="node">
<title>public.rate_card_clients</title>
<polygon fill="#efefef" stroke="none" points="511.45,-1562.4 511.45,-1598 822.36,-1598 822.36,-1562.4 511.45,-1562.4"/>
<polygon fill="none" stroke="black" points="511.45,-1562.4 511.45,-1598 822.36,-1598 822.36,-1562.4 511.45,-1562.4"/>
<text text-anchor="start" x="518.45" y="-1575.8" font-family="Arial Bold" font-size="18.00">public.rate_card_clients</text>
<text text-anchor="start" x="690.87" y="-1575.8" font-family="Arial" font-size="14.00">    </text>
<text text-anchor="start" x="721.99" y="-1575.8" font-family="Arial" font-size="14.00" fill="#666666">[BASE TABLE]</text>
<polygon fill="none" stroke="black" points="511.45,-1531.6 511.45,-1562.4 822.36,-1562.4 822.36,-1531.6 511.45,-1531.6"/>
<text text-anchor="start" x="518.45" y="-1543.8" font-family="Arial" font-size="14.00">id </text>
<text text-anchor="start" x="533.24" y="-1543.8" font-family="Arial" font-size="14.00" fill="#666666">[bigint]</text>
<polygon fill="none" stroke="black" points="511.45,-1500.8 511.45,-1531.6 822.36,-1531.6 822.36,-1500.8 511.45,-1500.8"/>
<text text-anchor="start" x="518.45" y="-1513" font-family="Arial" font-size="14.00">rate_card_id </text>
<text text-anchor="start" x="600.17" y="-1513" font-family="Arial" font-size="14.00" fill="#666666">[bigint]</text>
<polygon fill="none" stroke="black" points="511.45,-1470 511.45,-1500.8 822.36,-1500.8 822.36,-1470 511.45,-1470"/>
<text text-anchor="start" x="518.45" y="-1482.2" font-family="Arial" font-size="14.00">client_id </text>
<text text-anchor="start" x="573.7" y="-1482.2" font-family="Arial" font-size="14.00" fill="#666666">[bigint]</text>
<polygon fill="none" stroke="black" points="511.45,-1439.2 511.45,-1470 822.36,-1470 822.36,-1439.2 511.45,-1439.2"/>
<text text-anchor="start" x="518.45" y="-1451.4" font-family="Arial" font-size="14.00">priority </text>
<text text-anchor="start" x="564.35" y="-1451.4" font-family="Arial" font-size="14.00" fill="#666666">[integer]</text>
<polygon fill="none" stroke="black" points="511.45,-1408.4 511.45,-1439.2 822.36,-1439.2 822.36,-1408.4 511.45,-1408.4"/>
<text text-anchor="start" x="518.45" y="-1420.6" font-family="Arial" font-size="14.00">apply_from </text>
<text text-anchor="start" x="591.59" y="-1420.6" font-family="Arial" font-size="14.00" fill="#666666">[timestamp(0) without time zone]</text>
<polygon fill="none" stroke="black" points="511.45,-1377.6 511.45,-1408.4 822.36,-1408.4 822.36,-1377.6 511.45,-1377.6"/>
<text text-anchor="start" x="518.45" y="-1389.8" font-family="Arial" font-size="14.00">apply_to </text>
<text text-anchor="start" x="575.27" y="-1389.8" font-family="Arial" font-size="14.00" fill="#666666">[timestamp(0) without time zone]</text>
<polygon fill="none" stroke="black" points="511.45,-1346.8 511.45,-1377.6 822.36,-1377.6 822.36,-1346.8 511.45,-1346.8"/>
<text text-anchor="start" x="518.45" y="-1359" font-family="Arial" font-size="14.00">created_at </text>
<text text-anchor="start" x="588.5" y="-1359" font-family="Arial" font-size="14.00" fill="#666666">[timestamp(0) without time zone]</text>
<polygon fill="none" stroke="black" points="511.45,-1316 511.45,-1346.8 822.36,-1346.8 822.36,-1316 511.45,-1316"/>
<text text-anchor="start" x="518.45" y="-1328.2" font-family="Arial" font-size="14.00">updated_at </text>
<text text-anchor="start" x="592.41" y="-1328.2" font-family="Arial" font-size="14.00" fill="#666666">[timestamp(0) without time zone]</text>
</g>
<!-- public.rate_card_clients&#45;&gt;public.clients -->
<g id="edge2" class="edge">
<title>public.rate_card_clients:client_id&#45;&gt;public.clients:id</title>
<path fill="none" stroke="black" d="M500.67,-1482.58C405.1,-1420.98 712.7,-369.6 592.03,-369.6"/>
<polygon fill="black" stroke="black" points="500.52,-1482.54 508.88,-1489.63 505.64,-1484.02 509.81,-1485.21 509.81,-1485.21 509.81,-1485.21 505.64,-1484.02 511.37,-1480.98 500.52,-1482.54"/>
<text text-anchor="start" x="456.16" y="-1469.4" font-family="Arial" font-size="10.00">FOREIGN KEY (client_id) REFERENCES clients(id)</text>
</g>
</g>
</svg>
