<?xml version="1.0" encoding="UTF-8" standalone="no"?>
<!DOCTYPE svg PUBLIC "-//W3C//DTD SVG 1.1//EN"
 "http://www.w3.org/Graphics/SVG/1.1/DTD/svg11.dtd">
<!-- Generated by graphviz version 12.1.2 (20240928.0832)
 -->
<!-- Title: public.order_bulk_upload_archives Pages: 1 -->
<svg width="944pt" height="2573pt"
 viewBox="0.00 0.00 943.57 2573.20" xmlns="http://www.w3.org/2000/svg" xmlns:xlink="http://www.w3.org/1999/xlink">
<g id="graph0" class="graph" transform="scale(1 1) rotate(0) translate(4 2569.2)">
<title>public.order_bulk_upload_archives</title>
<polygon fill="white" stroke="none" points="-4,4 -4,-2569.2 939.57,-2569.2 939.57,4 -4,4"/>
<!-- public.order_bulk_upload_archives -->
<g id="node1" class="node">
<title>public.order_bulk_upload_archives</title>
<polygon fill="#efefef" stroke="none" points="265.95,-539 265.95,-574.6 659.86,-574.6 659.86,-539 265.95,-539"/>
<polygon fill="none" stroke="black" points="265.95,-539 265.95,-574.6 659.86,-574.6 659.86,-539 265.95,-539"/>
<text text-anchor="start" x="272.95" y="-552.4" font-family="Arial Bold" font-size="18.00">public.order_bulk_upload_archives</text>
<text text-anchor="start" x="528.38" y="-552.4" font-family="Arial" font-size="14.00">    </text>
<text text-anchor="start" x="559.49" y="-552.4" font-family="Arial" font-size="14.00" fill="#666666">[BASE TABLE]</text>
<polygon fill="none" stroke="black" points="265.95,-508.2 265.95,-539 659.86,-539 659.86,-508.2 265.95,-508.2"/>
<text text-anchor="start" x="272.95" y="-520.4" font-family="Arial" font-size="14.00">id </text>
<text text-anchor="start" x="287.73" y="-520.4" font-family="Arial" font-size="14.00" fill="#666666">[uuid]</text>
<polygon fill="none" stroke="black" points="265.95,-477.4 265.95,-508.2 659.86,-508.2 659.86,-477.4 265.95,-477.4"/>
<text text-anchor="start" x="272.95" y="-489.6" font-family="Arial" font-size="14.00">file_path </text>
<text text-anchor="start" x="329.77" y="-489.6" font-family="Arial" font-size="14.00" fill="#666666">[varchar(255)]</text>
<polygon fill="none" stroke="black" points="265.95,-446.6 265.95,-477.4 659.86,-477.4 659.86,-446.6 265.95,-446.6"/>
<text text-anchor="start" x="272.95" y="-458.8" font-family="Arial" font-size="14.00">status </text>
<text text-anchor="start" x="314.19" y="-458.8" font-family="Arial" font-size="14.00" fill="#666666">[varchar(20)]</text>
<polygon fill="none" stroke="black" points="265.95,-415.8 265.95,-446.6 659.86,-446.6 659.86,-415.8 265.95,-415.8"/>
<text text-anchor="start" x="272.95" y="-428" font-family="Arial" font-size="14.00">started_at </text>
<text text-anchor="start" x="339.1" y="-428" font-family="Arial" font-size="14.00" fill="#666666">[timestamp(0) without time zone]</text>
<polygon fill="none" stroke="black" points="265.95,-385 265.95,-415.8 659.86,-415.8 659.86,-385 265.95,-385"/>
<text text-anchor="start" x="272.95" y="-397.2" font-family="Arial" font-size="14.00">completed_at </text>
<text text-anchor="start" x="360.89" y="-397.2" font-family="Arial" font-size="14.00" fill="#666666">[timestamp(0) without time zone]</text>
<polygon fill="none" stroke="black" points="265.95,-354.2 265.95,-385 659.86,-385 659.86,-354.2 265.95,-354.2"/>
<text text-anchor="start" x="272.95" y="-366.4" font-family="Arial" font-size="14.00">error </text>
<text text-anchor="start" x="306.4" y="-366.4" font-family="Arial" font-size="14.00" fill="#666666">[json]</text>
<polygon fill="none" stroke="black" points="265.95,-323.4 265.95,-354.2 659.86,-354.2 659.86,-323.4 265.95,-323.4"/>
<text text-anchor="start" x="272.95" y="-335.6" font-family="Arial" font-size="14.00">created_by_employee_code </text>
<text text-anchor="start" x="452.74" y="-335.6" font-family="Arial" font-size="14.00" fill="#666666">[varchar(100)]</text>
<polygon fill="none" stroke="black" points="265.95,-292.6 265.95,-323.4 659.86,-323.4 659.86,-292.6 265.95,-292.6"/>
<text text-anchor="start" x="272.95" y="-304.8" font-family="Arial" font-size="14.00">created_by_employee_email </text>
<text text-anchor="start" x="455.84" y="-304.8" font-family="Arial" font-size="14.00" fill="#666666">[varchar(255)]</text>
<polygon fill="none" stroke="black" points="265.95,-261.8 265.95,-292.6 659.86,-292.6 659.86,-261.8 265.95,-261.8"/>
<text text-anchor="start" x="272.95" y="-274" font-family="Arial" font-size="14.00">created_at </text>
<text text-anchor="start" x="343" y="-274" font-family="Arial" font-size="14.00" fill="#666666">[timestamp(0) without time zone]</text>
<polygon fill="none" stroke="black" points="265.95,-231 265.95,-261.8 659.86,-261.8 659.86,-231 265.95,-231"/>
<text text-anchor="start" x="272.95" y="-243.2" font-family="Arial" font-size="14.00">updated_at </text>
<text text-anchor="start" x="346.91" y="-243.2" font-family="Arial" font-size="14.00" fill="#666666">[timestamp(0) without time zone]</text>
<polygon fill="none" stroke="black" points="265.95,-200.2 265.95,-231 659.86,-231 659.86,-200.2 265.95,-200.2"/>
<text text-anchor="start" x="272.95" y="-212.4" font-family="Arial" font-size="14.00">run_number </text>
<text text-anchor="start" x="352.33" y="-212.4" font-family="Arial" font-size="14.00" fill="#666666">[integer]</text>
<polygon fill="none" stroke="black" points="265.95,-169.4 265.95,-200.2 659.86,-200.2 659.86,-169.4 265.95,-169.4"/>
<text text-anchor="start" x="272.95" y="-181.6" font-family="Arial" font-size="14.00">bulk_name </text>
<text text-anchor="start" x="345.33" y="-181.6" font-family="Arial" font-size="14.00" fill="#666666">[varchar(255)]</text>
<polygon fill="none" stroke="black" points="265.95,-138.6 265.95,-169.4 659.86,-169.4 659.86,-138.6 265.95,-138.6"/>
<text text-anchor="start" x="272.95" y="-150.8" font-family="Arial" font-size="14.00">bulk_mode </text>
<text text-anchor="start" x="345.33" y="-150.8" font-family="Arial" font-size="14.00" fill="#666666">[varchar(100)]</text>
<polygon fill="none" stroke="black" points="265.95,-107.8 265.95,-138.6 659.86,-138.6 659.86,-107.8 265.95,-107.8"/>
<text text-anchor="start" x="272.95" y="-120" font-family="Arial" font-size="14.00">create_order_type </text>
<text text-anchor="start" x="390.46" y="-120" font-family="Arial" font-size="14.00" fill="#666666">[varchar(100)]</text>
<polygon fill="none" stroke="black" points="265.95,-77 265.95,-107.8 659.86,-107.8 659.86,-77 265.95,-77"/>
<text text-anchor="start" x="272.95" y="-89.2" font-family="Arial" font-size="14.00">client_name </text>
<text text-anchor="start" x="352.33" y="-89.2" font-family="Arial" font-size="14.00" fill="#666666">[varchar(255)]</text>
<polygon fill="none" stroke="black" points="265.95,-46.2 265.95,-77 659.86,-77 659.86,-46.2 265.95,-46.2"/>
<text text-anchor="start" x="272.95" y="-58.4" font-family="Arial" font-size="14.00">client_code </text>
<text text-anchor="start" x="347.66" y="-58.4" font-family="Arial" font-size="14.00" fill="#666666">[varchar(100)]</text>
<polygon fill="none" stroke="black" stroke-width="3" points="264.45,-44.7 264.45,-576.1 661.36,-576.1 661.36,-44.7 264.45,-44.7"/>
</g>
<!-- public.orders -->
<g id="node2" class="node">
<title>public.orders</title>
<polygon fill="#efefef" stroke="none" points="43.2,-2486.4 43.2,-2522 406.61,-2522 406.61,-2486.4 43.2,-2486.4"/>
<polygon fill="none" stroke="black" points="43.2,-2486.4 43.2,-2522 406.61,-2522 406.61,-2486.4 43.2,-2486.4"/>
<text text-anchor="start" x="115.42" y="-2499.8" font-family="Arial Bold" font-size="18.00">public.orders</text>
<text text-anchor="start" x="209.9" y="-2499.8" font-family="Arial" font-size="14.00">    </text>
<text text-anchor="start" x="241.02" y="-2499.8" font-family="Arial" font-size="14.00" fill="#666666">[BASE TABLE]</text>
<polygon fill="none" stroke="black" points="43.2,-2455.6 43.2,-2486.4 406.61,-2486.4 406.61,-2455.6 43.2,-2455.6"/>
<text text-anchor="start" x="50.2" y="-2467.8" font-family="Arial" font-size="14.00">id </text>
<text text-anchor="start" x="64.99" y="-2467.8" font-family="Arial" font-size="14.00" fill="#666666">[bigint]</text>
<polygon fill="none" stroke="black" points="43.2,-2424.8 43.2,-2455.6 406.61,-2455.6 406.61,-2424.8 43.2,-2424.8"/>
<text text-anchor="start" x="50.2" y="-2437" font-family="Arial" font-size="14.00">code </text>
<text text-anchor="start" x="84.45" y="-2437" font-family="Arial" font-size="14.00" fill="#666666">[varchar(100)]</text>
<polygon fill="none" stroke="black" points="43.2,-2394 43.2,-2424.8 406.61,-2424.8 406.61,-2394 43.2,-2394"/>
<text text-anchor="start" x="50.2" y="-2406.2" font-family="Arial" font-size="14.00">booking_code </text>
<text text-anchor="start" x="141.28" y="-2406.2" font-family="Arial" font-size="14.00" fill="#666666">[varchar(100)]</text>
<polygon fill="none" stroke="black" points="43.2,-2363.2 43.2,-2394 406.61,-2394 406.61,-2363.2 43.2,-2363.2"/>
<text text-anchor="start" x="50.2" y="-2375.4" font-family="Arial" font-size="14.00">patient_id </text>
<text text-anchor="start" x="114.81" y="-2375.4" font-family="Arial" font-size="14.00" fill="#666666">[bigint]</text>
<polygon fill="none" stroke="black" points="43.2,-2332.4 43.2,-2363.2 406.61,-2363.2 406.61,-2332.4 43.2,-2332.4"/>
<text text-anchor="start" x="50.2" y="-2344.6" font-family="Arial" font-size="14.00">client_id </text>
<text text-anchor="start" x="105.45" y="-2344.6" font-family="Arial" font-size="14.00" fill="#666666">[bigint]</text>
<polygon fill="none" stroke="black" points="43.2,-2301.6 43.2,-2332.4 406.61,-2332.4 406.61,-2301.6 43.2,-2301.6"/>
<text text-anchor="start" x="50.2" y="-2313.8" font-family="Arial" font-size="14.00">lis_order_id </text>
<text text-anchor="start" x="126.46" y="-2313.8" font-family="Arial" font-size="14.00" fill="#666666">[varchar(255)]</text>
<polygon fill="none" stroke="black" points="43.2,-2270.8 43.2,-2301.6 406.61,-2301.6 406.61,-2270.8 43.2,-2270.8"/>
<text text-anchor="start" x="50.2" y="-2283" font-family="Arial" font-size="14.00">client_ext_reference_id </text>
<text text-anchor="start" x="198.85" y="-2283" font-family="Arial" font-size="14.00" fill="#666666">[varchar(100)]</text>
<polygon fill="none" stroke="black" points="43.2,-2240 43.2,-2270.8 406.61,-2270.8 406.61,-2240 43.2,-2240"/>
<text text-anchor="start" x="50.2" y="-2252.2" font-family="Arial" font-size="14.00">ex_patient_number </text>
<text text-anchor="start" x="173.95" y="-2252.2" font-family="Arial" font-size="14.00" fill="#666666">[varchar(255)]</text>
<polygon fill="none" stroke="black" points="43.2,-2209.2 43.2,-2240 406.61,-2240 406.61,-2209.2 43.2,-2209.2"/>
<text text-anchor="start" x="50.2" y="-2221.4" font-family="Arial" font-size="14.00">ref_dr </text>
<text text-anchor="start" x="90.66" y="-2221.4" font-family="Arial" font-size="14.00" fill="#666666">[varchar(255)]</text>
<polygon fill="none" stroke="black" points="43.2,-2178.4 43.2,-2209.2 406.61,-2209.2 406.61,-2178.4 43.2,-2178.4"/>
<text text-anchor="start" x="50.2" y="-2190.6" font-family="Arial" font-size="14.00">remarks </text>
<text text-anchor="start" x="104.65" y="-2190.6" font-family="Arial" font-size="14.00" fill="#666666">[text]</text>
<polygon fill="none" stroke="black" points="43.2,-2147.6 43.2,-2178.4 406.61,-2178.4 406.61,-2147.6 43.2,-2147.6"/>
<text text-anchor="start" x="50.2" y="-2159.8" font-family="Arial" font-size="14.00">is_additional_test </text>
<text text-anchor="start" x="162.28" y="-2159.8" font-family="Arial" font-size="14.00" fill="#666666">[boolean]</text>
<polygon fill="none" stroke="black" points="43.2,-2116.8 43.2,-2147.6 406.61,-2147.6 406.61,-2116.8 43.2,-2116.8"/>
<text text-anchor="start" x="50.2" y="-2129" font-family="Arial" font-size="14.00">history </text>
<text text-anchor="start" x="95.32" y="-2129" font-family="Arial" font-size="14.00" fill="#666666">[text]</text>
<polygon fill="none" stroke="black" points="43.2,-2086 43.2,-2116.8 406.61,-2116.8 406.61,-2086 43.2,-2086"/>
<text text-anchor="start" x="50.2" y="-2098.2" font-family="Arial" font-size="14.00">bulk_upload_id </text>
<text text-anchor="start" x="148.28" y="-2098.2" font-family="Arial" font-size="14.00" fill="#666666">[uuid]</text>
<polygon fill="none" stroke="black" points="43.2,-2055.2 43.2,-2086 406.61,-2086 406.61,-2055.2 43.2,-2055.2"/>
<text text-anchor="start" x="50.2" y="-2067.4" font-family="Arial" font-size="14.00">total </text>
<text text-anchor="start" x="80.55" y="-2067.4" font-family="Arial" font-size="14.00" fill="#666666">[double precision]</text>
<polygon fill="none" stroke="black" points="43.2,-2024.4 43.2,-2055.2 406.61,-2055.2 406.61,-2024.4 43.2,-2024.4"/>
<text text-anchor="start" x="50.2" y="-2036.6" font-family="Arial" font-size="14.00">branch_code </text>
<text text-anchor="start" x="135.04" y="-2036.6" font-family="Arial" font-size="14.00" fill="#666666">[varchar(100)]</text>
<polygon fill="none" stroke="black" points="43.2,-1993.6 43.2,-2024.4 406.61,-2024.4 406.61,-1993.6 43.2,-1993.6"/>
<text text-anchor="start" x="50.2" y="-2005.8" font-family="Arial" font-size="14.00">patient_code </text>
<text text-anchor="start" x="134.27" y="-2005.8" font-family="Arial" font-size="14.00" fill="#666666">[varchar(255)]</text>
<polygon fill="none" stroke="black" points="43.2,-1962.8 43.2,-1993.6 406.61,-1993.6 406.61,-1962.8 43.2,-1962.8"/>
<text text-anchor="start" x="50.2" y="-1975" font-family="Arial" font-size="14.00">patient_full_name </text>
<text text-anchor="start" x="164.61" y="-1975" font-family="Arial" font-size="14.00" fill="#666666">[varchar(255)]</text>
<polygon fill="none" stroke="black" points="43.2,-1932 43.2,-1962.8 406.61,-1962.8 406.61,-1932 43.2,-1932"/>
<text text-anchor="start" x="50.2" y="-1944.2" font-family="Arial" font-size="14.00">patient_gender </text>
<text text-anchor="start" x="147.5" y="-1944.2" font-family="Arial" font-size="14.00" fill="#666666">[varchar(20)]</text>
<polygon fill="none" stroke="black" points="43.2,-1901.2 43.2,-1932 406.61,-1932 406.61,-1901.2 43.2,-1901.2"/>
<text text-anchor="start" x="50.2" y="-1913.4" font-family="Arial" font-size="14.00">patient_marital_status </text>
<text text-anchor="start" x="191.05" y="-1913.4" font-family="Arial" font-size="14.00" fill="#666666">[varchar(20)]</text>
<polygon fill="none" stroke="black" points="43.2,-1870.4 43.2,-1901.2 406.61,-1901.2 406.61,-1870.4 43.2,-1870.4"/>
<text text-anchor="start" x="50.2" y="-1882.6" font-family="Arial" font-size="14.00">patient_dob </text>
<text text-anchor="start" x="127.27" y="-1882.6" font-family="Arial" font-size="14.00" fill="#666666">[date]</text>
<polygon fill="none" stroke="black" points="43.2,-1839.6 43.2,-1870.4 406.61,-1870.4 406.61,-1839.6 43.2,-1839.6"/>
<text text-anchor="start" x="50.2" y="-1851.8" font-family="Arial" font-size="14.00">patient_phone_number </text>
<text text-anchor="start" x="198.1" y="-1851.8" font-family="Arial" font-size="14.00" fill="#666666">[varchar(20)]</text>
<polygon fill="none" stroke="black" points="43.2,-1808.8 43.2,-1839.6 406.61,-1839.6 406.61,-1808.8 43.2,-1808.8"/>
<text text-anchor="start" x="50.2" y="-1821" font-family="Arial" font-size="14.00">patient_email </text>
<text text-anchor="start" x="137.37" y="-1821" font-family="Arial" font-size="14.00" fill="#666666">[varchar(255)]</text>
<polygon fill="none" stroke="black" points="43.2,-1778 43.2,-1808.8 406.61,-1808.8 406.61,-1778 43.2,-1778"/>
<text text-anchor="start" x="50.2" y="-1790.2" font-family="Arial" font-size="14.00">patient_address </text>
<text text-anchor="start" x="153.72" y="-1790.2" font-family="Arial" font-size="14.00" fill="#666666">[varchar(255)]</text>
<polygon fill="none" stroke="black" points="43.2,-1747.2 43.2,-1778 406.61,-1778 406.61,-1747.2 43.2,-1747.2"/>
<text text-anchor="start" x="50.2" y="-1759.4" font-family="Arial" font-size="14.00">patient_ward </text>
<text text-anchor="start" x="134.25" y="-1759.4" font-family="Arial" font-size="14.00" fill="#666666">[varchar(255)]</text>
<polygon fill="none" stroke="black" points="43.2,-1716.4 43.2,-1747.2 406.61,-1747.2 406.61,-1716.4 43.2,-1716.4"/>
<text text-anchor="start" x="50.2" y="-1728.6" font-family="Arial" font-size="14.00">patient_district </text>
<text text-anchor="start" x="144.36" y="-1728.6" font-family="Arial" font-size="14.00" fill="#666666">[varchar(255)]</text>
<polygon fill="none" stroke="black" points="43.2,-1685.6 43.2,-1716.4 406.61,-1716.4 406.61,-1685.6 43.2,-1685.6"/>
<text text-anchor="start" x="50.2" y="-1697.8" font-family="Arial" font-size="14.00">patient_city </text>
<text text-anchor="start" x="124.91" y="-1697.8" font-family="Arial" font-size="14.00" fill="#666666">[varchar(100)]</text>
<polygon fill="none" stroke="black" points="43.2,-1654.8 43.2,-1685.6 406.61,-1685.6 406.61,-1654.8 43.2,-1654.8"/>
<text text-anchor="start" x="50.2" y="-1667" font-family="Arial" font-size="14.00">patient_country </text>
<text text-anchor="start" x="149.82" y="-1667" font-family="Arial" font-size="14.00" fill="#666666">[varchar(60)]</text>
<polygon fill="none" stroke="black" points="43.2,-1624 43.2,-1654.8 406.61,-1654.8 406.61,-1624 43.2,-1624"/>
<text text-anchor="start" x="50.2" y="-1636.2" font-family="Arial" font-size="14.00">patient_nationality </text>
<text text-anchor="start" x="166.95" y="-1636.2" font-family="Arial" font-size="14.00" fill="#666666">[varchar(60)]</text>
<polygon fill="none" stroke="black" points="43.2,-1593.2 43.2,-1624 406.61,-1624 406.61,-1593.2 43.2,-1593.2"/>
<text text-anchor="start" x="50.2" y="-1605.4" font-family="Arial" font-size="14.00">patient_id_number_type </text>
<text text-anchor="start" x="204.31" y="-1605.4" font-family="Arial" font-size="14.00" fill="#666666">[varchar(20)]</text>
<polygon fill="none" stroke="black" points="43.2,-1562.4 43.2,-1593.2 406.61,-1593.2 406.61,-1562.4 43.2,-1562.4"/>
<text text-anchor="start" x="50.2" y="-1574.6" font-family="Arial" font-size="14.00">patient_id_number </text>
<text text-anchor="start" x="170.06" y="-1574.6" font-family="Arial" font-size="14.00" fill="#666666">[varchar(255)]</text>
<polygon fill="none" stroke="black" points="43.2,-1531.6 43.2,-1562.4 406.61,-1562.4 406.61,-1531.6 43.2,-1531.6"/>
<text text-anchor="start" x="50.2" y="-1543.8" font-family="Arial" font-size="14.00">created_by_employee_code </text>
<text text-anchor="start" x="229.99" y="-1543.8" font-family="Arial" font-size="14.00" fill="#666666">[varchar(100)]</text>
<polygon fill="none" stroke="black" points="43.2,-1500.8 43.2,-1531.6 406.61,-1531.6 406.61,-1500.8 43.2,-1500.8"/>
<text text-anchor="start" x="50.2" y="-1513" font-family="Arial" font-size="14.00">created_by_employee_email </text>
<text text-anchor="start" x="233.09" y="-1513" font-family="Arial" font-size="14.00" fill="#666666">[varchar(255)]</text>
<polygon fill="none" stroke="black" points="43.2,-1470 43.2,-1500.8 406.61,-1500.8 406.61,-1470 43.2,-1470"/>
<text text-anchor="start" x="50.2" y="-1482.2" font-family="Arial" font-size="14.00">created_at </text>
<text text-anchor="start" x="120.25" y="-1482.2" font-family="Arial" font-size="14.00" fill="#666666">[timestamp(0) without time zone]</text>
<polygon fill="none" stroke="black" points="43.2,-1439.2 43.2,-1470 406.61,-1470 406.61,-1439.2 43.2,-1439.2"/>
<text text-anchor="start" x="50.2" y="-1451.4" font-family="Arial" font-size="14.00">updated_at </text>
<text text-anchor="start" x="124.16" y="-1451.4" font-family="Arial" font-size="14.00" fill="#666666">[timestamp(0) without time zone]</text>
<polygon fill="none" stroke="black" points="43.2,-1408.4 43.2,-1439.2 406.61,-1439.2 406.61,-1408.4 43.2,-1408.4"/>
<text text-anchor="start" x="50.2" y="-1420.6" font-family="Arial" font-size="14.00">patient_salutation </text>
<text text-anchor="start" x="163.84" y="-1420.6" font-family="Arial" font-size="14.00" fill="#666666">[varchar(100)]</text>
<polygon fill="none" stroke="black" points="43.2,-1377.6 43.2,-1408.4 406.61,-1408.4 406.61,-1377.6 43.2,-1377.6"/>
<text text-anchor="start" x="50.2" y="-1389.8" font-family="Arial" font-size="14.00">status </text>
<text text-anchor="start" x="91.44" y="-1389.8" font-family="Arial" font-size="14.00" fill="#666666">[varchar(255)]</text>
<polygon fill="none" stroke="black" points="43.2,-1346.8 43.2,-1377.6 406.61,-1377.6 406.61,-1346.8 43.2,-1346.8"/>
<text text-anchor="start" x="50.2" y="-1359" font-family="Arial" font-size="14.00">billing_pdf </text>
<text text-anchor="start" x="117.14" y="-1359" font-family="Arial" font-size="14.00" fill="#666666">[varchar(255)]</text>
<polygon fill="none" stroke="black" points="43.2,-1316 43.2,-1346.8 406.61,-1346.8 406.61,-1316 43.2,-1316"/>
<text text-anchor="start" x="50.2" y="-1328.2" font-family="Arial" font-size="14.00">amount_received </text>
<text text-anchor="start" x="161.49" y="-1328.2" font-family="Arial" font-size="14.00" fill="#666666">[double precision]</text>
<polygon fill="none" stroke="black" points="43.2,-1285.2 43.2,-1316 406.61,-1316 406.61,-1285.2 43.2,-1285.2"/>
<text text-anchor="start" x="50.2" y="-1297.4" font-family="Arial" font-size="14.00">patient_insurance_detail_id </text>
<text text-anchor="start" x="224.55" y="-1297.4" font-family="Arial" font-size="14.00" fill="#666666">[bigint]</text>
<polygon fill="none" stroke="black" points="43.2,-1254.4 43.2,-1285.2 406.61,-1285.2 406.61,-1254.4 43.2,-1254.4"/>
<text text-anchor="start" x="50.2" y="-1266.6" font-family="Arial" font-size="14.00">direct_insurance_claim </text>
<text text-anchor="start" x="197.27" y="-1266.6" font-family="Arial" font-size="14.00" fill="#666666">[boolean]</text>
<polygon fill="none" stroke="black" points="43.2,-1223.6 43.2,-1254.4 406.61,-1254.4 406.61,-1223.6 43.2,-1223.6"/>
<text text-anchor="start" x="50.2" y="-1235.8" font-family="Arial" font-size="14.00">vat_required </text>
<text text-anchor="start" x="131.92" y="-1235.8" font-family="Arial" font-size="14.00" fill="#666666">[boolean]</text>
<polygon fill="none" stroke="black" points="43.2,-1192.8 43.2,-1223.6 406.61,-1223.6 406.61,-1192.8 43.2,-1192.8"/>
<text text-anchor="start" x="50.2" y="-1205" font-family="Arial" font-size="14.00">patient_guardian_info </text>
<text text-anchor="start" x="188.76" y="-1205" font-family="Arial" font-size="14.00" fill="#666666">[varchar(500)]</text>
<polygon fill="none" stroke="black" points="43.2,-1162 43.2,-1192.8 406.61,-1192.8 406.61,-1162 43.2,-1162"/>
<text text-anchor="start" x="50.2" y="-1174.2" font-family="Arial" font-size="14.00">promotions </text>
<text text-anchor="start" x="123.34" y="-1174.2" font-family="Arial" font-size="14.00" fill="#666666">[json]</text>
<polygon fill="none" stroke="black" points="43.2,-1131.2 43.2,-1162 406.61,-1162 406.61,-1131.2 43.2,-1131.2"/>
<text text-anchor="start" x="50.2" y="-1143.4" font-family="Arial" font-size="14.00">order_placed_option </text>
<text text-anchor="start" x="181.74" y="-1143.4" font-family="Arial" font-size="14.00" fill="#666666">[varchar(255)]</text>
<polygon fill="none" stroke="black" points="43.2,-1100.4 43.2,-1131.2 406.61,-1131.2 406.61,-1100.4 43.2,-1100.4"/>
<text text-anchor="start" x="50.2" y="-1112.6" font-family="Arial" font-size="14.00">reject_identity_reason </text>
<text text-anchor="start" x="191.06" y="-1112.6" font-family="Arial" font-size="14.00" fill="#666666">[text]</text>
<polygon fill="none" stroke="black" points="43.2,-1069.6 43.2,-1100.4 406.61,-1100.4 406.61,-1069.6 43.2,-1069.6"/>
<text text-anchor="start" x="50.2" y="-1081.8" font-family="Arial" font-size="14.00">otp </text>
<text text-anchor="start" x="73.55" y="-1081.8" font-family="Arial" font-size="14.00" fill="#666666">[text]</text>
<polygon fill="none" stroke="black" points="43.2,-1038.8 43.2,-1069.6 406.61,-1069.6 406.61,-1038.8 43.2,-1038.8"/>
<text text-anchor="start" x="50.2" y="-1051" font-family="Arial" font-size="14.00">otp_expired_at </text>
<text text-anchor="start" x="146.72" y="-1051" font-family="Arial" font-size="14.00" fill="#666666">[timestamp(0) without time zone]</text>
<polygon fill="none" stroke="black" points="43.2,-1008 43.2,-1038.8 406.61,-1038.8 406.61,-1008 43.2,-1008"/>
<text text-anchor="start" x="50.2" y="-1020.2" font-family="Arial" font-size="14.00">cancel_reason </text>
<text text-anchor="start" x="145.15" y="-1020.2" font-family="Arial" font-size="14.00" fill="#666666">[varchar(255)]</text>
<polygon fill="none" stroke="black" points="43.2,-977.2 43.2,-1008 406.61,-1008 406.61,-977.2 43.2,-977.2"/>
<text text-anchor="start" x="50.2" y="-989.4" font-family="Arial" font-size="14.00">emergency_contact </text>
<text text-anchor="start" x="176.27" y="-989.4" font-family="Arial" font-size="14.00" fill="#666666">[boolean]</text>
<polygon fill="none" stroke="black" points="43.2,-946.4 43.2,-977.2 406.61,-977.2 406.61,-946.4 43.2,-946.4"/>
<text text-anchor="start" x="50.2" y="-958.6" font-family="Arial" font-size="14.00">emergency_contact_off_reason </text>
<text text-anchor="start" x="250.21" y="-958.6" font-family="Arial" font-size="14.00" fill="#666666">[varchar(255)]</text>
<polygon fill="none" stroke="black" points="43.2,-915.6 43.2,-946.4 406.61,-946.4 406.61,-915.6 43.2,-915.6"/>
<text text-anchor="start" x="50.2" y="-927.8" font-family="Arial" font-size="14.00">patient_emergency_contact_id </text>
<text text-anchor="start" x="244.77" y="-927.8" font-family="Arial" font-size="14.00" fill="#666666">[bigint]</text>
<polygon fill="none" stroke="black" points="43.2,-884.8 43.2,-915.6 406.61,-915.6 406.61,-884.8 43.2,-884.8"/>
<text text-anchor="start" x="50.2" y="-897" font-family="Arial" font-size="14.00">billing_last_updated_at </text>
<text text-anchor="start" x="197.32" y="-897" font-family="Arial" font-size="14.00" fill="#666666">[timestamp(0) without time zone]</text>
<polygon fill="none" stroke="black" points="43.2,-854 43.2,-884.8 406.61,-884.8 406.61,-854 43.2,-854"/>
<text text-anchor="start" x="50.2" y="-866.2" font-family="Arial" font-size="14.00">cancel_by </text>
<text text-anchor="start" x="117.13" y="-866.2" font-family="Arial" font-size="14.00" fill="#666666">[varchar(255)]</text>
<polygon fill="none" stroke="black" points="43.2,-823.2 43.2,-854 406.61,-854 406.61,-823.2 43.2,-823.2"/>
<text text-anchor="start" x="50.2" y="-835.4" font-family="Arial" font-size="14.00">cancel_time </text>
<text text-anchor="start" x="128.79" y="-835.4" font-family="Arial" font-size="14.00" fill="#666666">[timestamp(0) without time zone]</text>
<polygon fill="none" stroke="black" points="43.2,-792.4 43.2,-823.2 406.61,-823.2 406.61,-792.4 43.2,-792.4"/>
<text text-anchor="start" x="50.2" y="-804.6" font-family="Arial" font-size="14.00">stat </text>
<text text-anchor="start" x="76.66" y="-804.6" font-family="Arial" font-size="14.00" fill="#666666">[boolean]</text>
<polygon fill="none" stroke="black" points="43.2,-761.6 43.2,-792.4 406.61,-792.4 406.61,-761.6 43.2,-761.6"/>
<text text-anchor="start" x="50.2" y="-773.8" font-family="Arial" font-size="14.00">purchase_order_code </text>
<text text-anchor="start" x="190.3" y="-773.8" font-family="Arial" font-size="14.00" fill="#666666">[varchar(255)]</text>
<polygon fill="none" stroke="black" points="43.2,-730.8 43.2,-761.6 406.61,-761.6 406.61,-730.8 43.2,-730.8"/>
<text text-anchor="start" x="50.2" y="-743" font-family="Arial" font-size="14.00">trashed_booking_code </text>
<text text-anchor="start" x="195.76" y="-743" font-family="Arial" font-size="14.00" fill="#666666">[varchar(255)]</text>
<polygon fill="none" stroke="black" points="43.2,-700 43.2,-730.8 406.61,-730.8 406.61,-700 43.2,-700"/>
<text text-anchor="start" x="50.2" y="-712.2" font-family="Arial" font-size="14.00">trashed_booking_code_usage_reason </text>
<text text-anchor="start" x="292.28" y="-712.2" font-family="Arial" font-size="14.00" fill="#666666">[varchar(255)]</text>
</g>
<!-- public.orders&#45;&gt;public.order_bulk_upload_archives -->
<g id="edge1" class="edge">
<title>public.orders:bulk_upload_id&#45;&gt;public.order_bulk_upload_archives:id</title>
<path fill="none" stroke="black" d="M416.09,-2095.83C485.47,-2000.7 454.02,-717.83 406.61,-656.8 367.02,-605.84 305.78,-671.57 265.95,-620.8 239.28,-586.81 221.75,-523.6 264.95,-523.6"/>
<polygon fill="black" stroke="black" points="416.25,-2095.73 405.42,-2097.46 411.79,-2098.65 408.17,-2101.03 408.17,-2101.03 408.17,-2101.03 411.79,-2098.65 410.36,-2104.98 416.25,-2095.73"/>
<text text-anchor="start" x="414.61" y="-2111.4" font-family="Arial" font-size="10.00">FOREIGN KEY (bulk_upload_id) REFERENCES order_bulk_upload_archives(id)</text>
</g>
<!-- public.order_bulk_upload_details -->
<g id="node3" class="node">
<title>public.order_bulk_upload_details</title>
<polygon fill="#efefef" stroke="none" points="511.44,-1747.2 511.44,-1782.8 892.37,-1782.8 892.37,-1747.2 511.44,-1747.2"/>
<polygon fill="none" stroke="black" points="511.44,-1747.2 511.44,-1782.8 892.37,-1782.8 892.37,-1747.2 511.44,-1747.2"/>
<text text-anchor="start" x="518.44" y="-1760.6" font-family="Arial Bold" font-size="18.00">public.order_bulk_upload_details</text>
<text text-anchor="start" x="760.88" y="-1760.6" font-family="Arial" font-size="14.00">    </text>
<text text-anchor="start" x="792" y="-1760.6" font-family="Arial" font-size="14.00" fill="#666666">[BASE TABLE]</text>
<polygon fill="none" stroke="black" points="511.44,-1716.4 511.44,-1747.2 892.37,-1747.2 892.37,-1716.4 511.44,-1716.4"/>
<text text-anchor="start" x="518.44" y="-1728.6" font-family="Arial" font-size="14.00">id </text>
<text text-anchor="start" x="533.22" y="-1728.6" font-family="Arial" font-size="14.00" fill="#666666">[bigint]</text>
<polygon fill="none" stroke="black" points="511.44,-1685.6 511.44,-1716.4 892.37,-1716.4 892.37,-1685.6 511.44,-1685.6"/>
<text text-anchor="start" x="518.44" y="-1697.8" font-family="Arial" font-size="14.00">row_number </text>
<text text-anchor="start" x="600.14" y="-1697.8" font-family="Arial" font-size="14.00" fill="#666666">[integer]</text>
<polygon fill="none" stroke="black" points="511.44,-1654.8 511.44,-1685.6 892.37,-1685.6 892.37,-1654.8 511.44,-1654.8"/>
<text text-anchor="start" x="518.44" y="-1667" font-family="Arial" font-size="14.00">row_data </text>
<text text-anchor="start" x="579.92" y="-1667" font-family="Arial" font-size="14.00" fill="#666666">[json]</text>
<polygon fill="none" stroke="black" points="511.44,-1624 511.44,-1654.8 892.37,-1654.8 892.37,-1624 511.44,-1624"/>
<text text-anchor="start" x="518.44" y="-1636.2" font-family="Arial" font-size="14.00">bulk_upload_archive_id </text>
<text text-anchor="start" x="669.44" y="-1636.2" font-family="Arial" font-size="14.00" fill="#666666">[uuid]</text>
<polygon fill="none" stroke="black" points="511.44,-1593.2 511.44,-1624 892.37,-1624 892.37,-1593.2 511.44,-1593.2"/>
<text text-anchor="start" x="518.44" y="-1605.4" font-family="Arial" font-size="14.00">status </text>
<text text-anchor="start" x="559.68" y="-1605.4" font-family="Arial" font-size="14.00" fill="#666666">[varchar(20)]</text>
<polygon fill="none" stroke="black" points="511.44,-1562.4 511.44,-1593.2 892.37,-1593.2 892.37,-1562.4 511.44,-1562.4"/>
<text text-anchor="start" x="518.44" y="-1574.6" font-family="Arial" font-size="14.00">error </text>
<text text-anchor="start" x="551.89" y="-1574.6" font-family="Arial" font-size="14.00" fill="#666666">[json]</text>
<polygon fill="none" stroke="black" points="511.44,-1531.6 511.44,-1562.4 892.37,-1562.4 892.37,-1531.6 511.44,-1531.6"/>
<text text-anchor="start" x="518.44" y="-1543.8" font-family="Arial" font-size="14.00">created_at </text>
<text text-anchor="start" x="588.49" y="-1543.8" font-family="Arial" font-size="14.00" fill="#666666">[timestamp(0) without time zone]</text>
<polygon fill="none" stroke="black" points="511.44,-1500.8 511.44,-1531.6 892.37,-1531.6 892.37,-1500.8 511.44,-1500.8"/>
<text text-anchor="start" x="518.44" y="-1513" font-family="Arial" font-size="14.00">updated_at </text>
<text text-anchor="start" x="592.4" y="-1513" font-family="Arial" font-size="14.00" fill="#666666">[timestamp(0) without time zone]</text>
<polygon fill="none" stroke="black" points="511.44,-1470 511.44,-1500.8 892.37,-1500.8 892.37,-1470 511.44,-1470"/>
<text text-anchor="start" x="518.44" y="-1482.2" font-family="Arial" font-size="14.00">deleted_at </text>
<text text-anchor="start" x="587.72" y="-1482.2" font-family="Arial" font-size="14.00" fill="#666666">[timestamp(0) without time zone]</text>
<polygon fill="none" stroke="black" points="511.44,-1439.2 511.44,-1470 892.37,-1470 892.37,-1439.2 511.44,-1439.2"/>
<text text-anchor="start" x="518.44" y="-1451.4" font-family="Arial" font-size="14.00">order_id </text>
<text text-anchor="start" x="573.69" y="-1451.4" font-family="Arial" font-size="14.00" fill="#666666">[varchar(255)]</text>
</g>
<!-- public.order_bulk_upload_details&#45;&gt;public.order_bulk_upload_archives -->
<g id="edge2" class="edge">
<title>public.order_bulk_upload_details:bulk_upload_archive_id&#45;&gt;public.order_bulk_upload_archives:id</title>
<path fill="none" stroke="black" d="M500.06,-1638.93C408.91,-1630.15 501.36,-1499.99 511.44,-1396 549.4,-1004.46 1054.24,-523.6 660.86,-523.6"/>
<polygon fill="black" stroke="black" points="500.11,-1638.93 509.9,-1643.88 505.44,-1639.17 509.77,-1639.37 509.77,-1639.37 509.77,-1639.37 505.44,-1639.17 510.31,-1634.89 500.11,-1638.93"/>
<text text-anchor="start" x="517.44" y="-1649.4" font-family="Arial" font-size="10.00">FOREIGN KEY (bulk_upload_archive_id) REFERENCES order_bulk_upload_archives(id)</text>
</g>
</g>
</svg>
