<?xml version="1.0" encoding="UTF-8" standalone="no"?>
<!DOCTYPE svg PUBLIC "-//W3C//DTD SVG 1.1//EN"
 "http://www.w3.org/Graphics/SVG/1.1/DTD/svg11.dtd">
<!-- Generated by graphviz version 12.1.2 (20240928.0832)
 -->
<!-- Title: public.patient_identity_mappings Pages: 1 -->
<svg width="984pt" height="1372pt"
 viewBox="0.00 0.00 984.27 1372.00" xmlns="http://www.w3.org/2000/svg" xmlns:xlink="http://www.w3.org/1999/xlink">
<g id="graph0" class="graph" transform="scale(1 1) rotate(0) translate(4 1368)">
<title>public.patient_identity_mappings</title>
<polygon fill="white" stroke="none" points="-4,4 -4,-1368 980.27,-1368 980.27,4 -4,4"/>
<!-- public.patient_identity_mappings -->
<g id="node1" class="node">
<title>public.patient_identity_mappings</title>
<polygon fill="#efefef" stroke="none" points="259.52,-1282.2 259.52,-1317.8 639.47,-1317.8 639.47,-1282.2 259.52,-1282.2"/>
<polygon fill="none" stroke="black" points="259.52,-1282.2 259.52,-1317.8 639.47,-1317.8 639.47,-1282.2 259.52,-1282.2"/>
<text text-anchor="start" x="266.52" y="-1295.6" font-family="Arial Bold" font-size="18.00">public.patient_identity_mappings</text>
<text text-anchor="start" x="507.98" y="-1295.6" font-family="Arial" font-size="14.00">    </text>
<text text-anchor="start" x="539.1" y="-1295.6" font-family="Arial" font-size="14.00" fill="#666666">[BASE TABLE]</text>
<polygon fill="none" stroke="black" points="259.52,-1251.4 259.52,-1282.2 639.47,-1282.2 639.47,-1251.4 259.52,-1251.4"/>
<text text-anchor="start" x="266.52" y="-1263.6" font-family="Arial" font-size="14.00">id </text>
<text text-anchor="start" x="281.31" y="-1263.6" font-family="Arial" font-size="14.00" fill="#666666">[bigint]</text>
<polygon fill="none" stroke="black" points="259.52,-1220.6 259.52,-1251.4 639.47,-1251.4 639.47,-1220.6 259.52,-1220.6"/>
<text text-anchor="start" x="266.52" y="-1232.8" font-family="Arial" font-size="14.00">patient_id </text>
<text text-anchor="start" x="331.13" y="-1232.8" font-family="Arial" font-size="14.00" fill="#666666">[bigint]</text>
<polygon fill="none" stroke="black" points="259.52,-1189.8 259.52,-1220.6 639.47,-1220.6 639.47,-1189.8 259.52,-1189.8"/>
<text text-anchor="start" x="266.52" y="-1202" font-family="Arial" font-size="14.00">patient_identity_id </text>
<text text-anchor="start" x="383.27" y="-1202" font-family="Arial" font-size="14.00" fill="#666666">[bigint]</text>
<polygon fill="none" stroke="black" points="259.52,-1159 259.52,-1189.8 639.47,-1189.8 639.47,-1159 259.52,-1159"/>
<text text-anchor="start" x="266.52" y="-1171.2" font-family="Arial" font-size="14.00">is_active </text>
<text text-anchor="start" x="324.88" y="-1171.2" font-family="Arial" font-size="14.00" fill="#666666">[boolean]</text>
<polygon fill="none" stroke="black" points="259.52,-1128.2 259.52,-1159 639.47,-1159 639.47,-1128.2 259.52,-1128.2"/>
<text text-anchor="start" x="266.52" y="-1140.4" font-family="Arial" font-size="14.00">created_at </text>
<text text-anchor="start" x="336.57" y="-1140.4" font-family="Arial" font-size="14.00" fill="#666666">[timestamp(0) without time zone]</text>
<polygon fill="none" stroke="black" points="259.52,-1097.4 259.52,-1128.2 639.47,-1128.2 639.47,-1097.4 259.52,-1097.4"/>
<text text-anchor="start" x="266.52" y="-1109.6" font-family="Arial" font-size="14.00">updated_at </text>
<text text-anchor="start" x="340.48" y="-1109.6" font-family="Arial" font-size="14.00" fill="#666666">[timestamp(0) without time zone]</text>
<polygon fill="none" stroke="black" stroke-width="3" points="258.02,-1095.9 258.02,-1319.3 640.97,-1319.3 640.97,-1095.9 258.02,-1095.9"/>
</g>
<!-- public.patients -->
<g id="node2" class="node">
<title>public.patients</title>
<polygon fill="#efefef" stroke="none" points="99.8,-936.4 99.8,-972 393.2,-972 393.2,-936.4 99.8,-936.4"/>
<polygon fill="none" stroke="black" points="99.8,-936.4 99.8,-972 393.2,-972 393.2,-936.4 99.8,-936.4"/>
<text text-anchor="start" x="131.51" y="-949.8" font-family="Arial Bold" font-size="18.00">public.patients</text>
<text text-anchor="start" x="236.99" y="-949.8" font-family="Arial" font-size="14.00">    </text>
<text text-anchor="start" x="268.11" y="-949.8" font-family="Arial" font-size="14.00" fill="#666666">[BASE TABLE]</text>
<polygon fill="none" stroke="black" points="99.8,-905.6 99.8,-936.4 393.2,-936.4 393.2,-905.6 99.8,-905.6"/>
<text text-anchor="start" x="106.8" y="-917.8" font-family="Arial" font-size="14.00">id </text>
<text text-anchor="start" x="121.58" y="-917.8" font-family="Arial" font-size="14.00" fill="#666666">[bigint]</text>
<polygon fill="none" stroke="black" points="99.8,-874.8 99.8,-905.6 393.2,-905.6 393.2,-874.8 99.8,-874.8"/>
<text text-anchor="start" x="106.8" y="-887" font-family="Arial" font-size="14.00">code </text>
<text text-anchor="start" x="141.05" y="-887" font-family="Arial" font-size="14.00" fill="#666666">[varchar(100)]</text>
<polygon fill="none" stroke="black" points="99.8,-844 99.8,-874.8 393.2,-874.8 393.2,-844 99.8,-844"/>
<text text-anchor="start" x="106.8" y="-856.2" font-family="Arial" font-size="14.00">lis_patient_code </text>
<text text-anchor="start" x="211.87" y="-856.2" font-family="Arial" font-size="14.00" fill="#666666">[varchar(255)]</text>
<polygon fill="none" stroke="black" points="99.8,-813.2 99.8,-844 393.2,-844 393.2,-813.2 99.8,-813.2"/>
<text text-anchor="start" x="106.8" y="-825.4" font-family="Arial" font-size="14.00">client_patient_code </text>
<text text-anchor="start" x="231.33" y="-825.4" font-family="Arial" font-size="14.00" fill="#666666">[varchar(255)]</text>
<polygon fill="none" stroke="black" points="99.8,-782.4 99.8,-813.2 393.2,-813.2 393.2,-782.4 99.8,-782.4"/>
<text text-anchor="start" x="106.8" y="-794.6" font-family="Arial" font-size="14.00">full_name </text>
<text text-anchor="start" x="171.39" y="-794.6" font-family="Arial" font-size="14.00" fill="#666666">[varchar(255)]</text>
<polygon fill="none" stroke="black" points="99.8,-751.6 99.8,-782.4 393.2,-782.4 393.2,-751.6 99.8,-751.6"/>
<text text-anchor="start" x="106.8" y="-763.8" font-family="Arial" font-size="14.00">gender </text>
<text text-anchor="start" x="154.28" y="-763.8" font-family="Arial" font-size="14.00" fill="#666666">[varchar(20)]</text>
<polygon fill="none" stroke="black" points="99.8,-720.8 99.8,-751.6 393.2,-751.6 393.2,-720.8 99.8,-720.8"/>
<text text-anchor="start" x="106.8" y="-733" font-family="Arial" font-size="14.00">marital_status </text>
<text text-anchor="start" x="197.83" y="-733" font-family="Arial" font-size="14.00" fill="#666666">[varchar(20)]</text>
<polygon fill="none" stroke="black" points="99.8,-690 99.8,-720.8 393.2,-720.8 393.2,-690 99.8,-690"/>
<text text-anchor="start" x="106.8" y="-702.2" font-family="Arial" font-size="14.00">dob </text>
<text text-anchor="start" x="134.05" y="-702.2" font-family="Arial" font-size="14.00" fill="#666666">[date]</text>
<polygon fill="none" stroke="black" points="99.8,-659.2 99.8,-690 393.2,-690 393.2,-659.2 99.8,-659.2"/>
<text text-anchor="start" x="106.8" y="-671.4" font-family="Arial" font-size="14.00">phone_number </text>
<text text-anchor="start" x="204.87" y="-671.4" font-family="Arial" font-size="14.00" fill="#666666">[varchar(20)]</text>
<polygon fill="none" stroke="black" points="99.8,-628.4 99.8,-659.2 393.2,-659.2 393.2,-628.4 99.8,-628.4"/>
<text text-anchor="start" x="106.8" y="-640.6" font-family="Arial" font-size="14.00">email </text>
<text text-anchor="start" x="144.14" y="-640.6" font-family="Arial" font-size="14.00" fill="#666666">[varchar(255)]</text>
<polygon fill="none" stroke="black" points="99.8,-597.6 99.8,-628.4 393.2,-628.4 393.2,-597.6 99.8,-597.6"/>
<text text-anchor="start" x="106.8" y="-609.8" font-family="Arial" font-size="14.00">address </text>
<text text-anchor="start" x="160.49" y="-609.8" font-family="Arial" font-size="14.00" fill="#666666">[varchar(255)]</text>
<polygon fill="none" stroke="black" points="99.8,-566.8 99.8,-597.6 393.2,-597.6 393.2,-566.8 99.8,-566.8"/>
<text text-anchor="start" x="106.8" y="-579" font-family="Arial" font-size="14.00">ward </text>
<text text-anchor="start" x="141.03" y="-579" font-family="Arial" font-size="14.00" fill="#666666">[varchar(255)]</text>
<polygon fill="none" stroke="black" points="99.8,-536 99.8,-566.8 393.2,-566.8 393.2,-536 99.8,-536"/>
<text text-anchor="start" x="106.8" y="-548.2" font-family="Arial" font-size="14.00">district </text>
<text text-anchor="start" x="151.14" y="-548.2" font-family="Arial" font-size="14.00" fill="#666666">[varchar(255)]</text>
<polygon fill="none" stroke="black" points="99.8,-505.2 99.8,-536 393.2,-536 393.2,-505.2 99.8,-505.2"/>
<text text-anchor="start" x="106.8" y="-517.4" font-family="Arial" font-size="14.00">city </text>
<text text-anchor="start" x="131.69" y="-517.4" font-family="Arial" font-size="14.00" fill="#666666">[varchar(100)]</text>
<polygon fill="none" stroke="black" points="99.8,-474.4 99.8,-505.2 393.2,-505.2 393.2,-474.4 99.8,-474.4"/>
<text text-anchor="start" x="106.8" y="-486.6" font-family="Arial" font-size="14.00">country </text>
<text text-anchor="start" x="156.6" y="-486.6" font-family="Arial" font-size="14.00" fill="#666666">[varchar(60)]</text>
<polygon fill="none" stroke="black" points="99.8,-443.6 99.8,-474.4 393.2,-474.4 393.2,-443.6 99.8,-443.6"/>
<text text-anchor="start" x="106.8" y="-455.8" font-family="Arial" font-size="14.00">nationality </text>
<text text-anchor="start" x="173.73" y="-455.8" font-family="Arial" font-size="14.00" fill="#666666">[varchar(60)]</text>
<polygon fill="none" stroke="black" points="99.8,-412.8 99.8,-443.6 393.2,-443.6 393.2,-412.8 99.8,-412.8"/>
<text text-anchor="start" x="106.8" y="-425" font-family="Arial" font-size="14.00">id_number_type </text>
<text text-anchor="start" x="211.09" y="-425" font-family="Arial" font-size="14.00" fill="#666666">[varchar(20)]</text>
<polygon fill="none" stroke="black" points="99.8,-382 99.8,-412.8 393.2,-412.8 393.2,-382 99.8,-382"/>
<text text-anchor="start" x="106.8" y="-394.2" font-family="Arial" font-size="14.00">id_number </text>
<text text-anchor="start" x="176.84" y="-394.2" font-family="Arial" font-size="14.00" fill="#666666">[varchar(255)]</text>
<polygon fill="none" stroke="black" points="99.8,-351.2 99.8,-382 393.2,-382 393.2,-351.2 99.8,-351.2"/>
<text text-anchor="start" x="106.8" y="-363.4" font-family="Arial" font-size="14.00">created_at </text>
<text text-anchor="start" x="176.85" y="-363.4" font-family="Arial" font-size="14.00" fill="#666666">[timestamp(0) without time zone]</text>
<polygon fill="none" stroke="black" points="99.8,-320.4 99.8,-351.2 393.2,-351.2 393.2,-320.4 99.8,-320.4"/>
<text text-anchor="start" x="106.8" y="-332.6" font-family="Arial" font-size="14.00">updated_at </text>
<text text-anchor="start" x="180.76" y="-332.6" font-family="Arial" font-size="14.00" fill="#666666">[timestamp(0) without time zone]</text>
<polygon fill="none" stroke="black" points="99.8,-289.6 99.8,-320.4 393.2,-320.4 393.2,-289.6 99.8,-289.6"/>
<text text-anchor="start" x="106.8" y="-301.8" font-family="Arial" font-size="14.00">city_code </text>
<text text-anchor="start" x="169.83" y="-301.8" font-family="Arial" font-size="14.00" fill="#666666">[varchar(100)]</text>
<polygon fill="none" stroke="black" points="99.8,-258.8 99.8,-289.6 393.2,-289.6 393.2,-258.8 99.8,-258.8"/>
<text text-anchor="start" x="106.8" y="-271" font-family="Arial" font-size="14.00">district_code </text>
<text text-anchor="start" x="189.28" y="-271" font-family="Arial" font-size="14.00" fill="#666666">[varchar(100)]</text>
<polygon fill="none" stroke="black" points="99.8,-228 99.8,-258.8 393.2,-258.8 393.2,-228 99.8,-228"/>
<text text-anchor="start" x="106.8" y="-240.2" font-family="Arial" font-size="14.00">ward_code </text>
<text text-anchor="start" x="179.18" y="-240.2" font-family="Arial" font-size="14.00" fill="#666666">[varchar(100)]</text>
<polygon fill="none" stroke="black" points="99.8,-197.2 99.8,-228 393.2,-228 393.2,-197.2 99.8,-197.2"/>
<text text-anchor="start" x="106.8" y="-209.4" font-family="Arial" font-size="14.00">bank_account_name </text>
<text text-anchor="start" x="240.67" y="-209.4" font-family="Arial" font-size="14.00" fill="#666666">[varchar(255)]</text>
<polygon fill="none" stroke="black" points="99.8,-166.4 99.8,-197.2 393.2,-197.2 393.2,-166.4 99.8,-166.4"/>
<text text-anchor="start" x="106.8" y="-178.6" font-family="Arial" font-size="14.00">bank_name </text>
<text text-anchor="start" x="183.85" y="-178.6" font-family="Arial" font-size="14.00" fill="#666666">[varchar(255)]</text>
<polygon fill="none" stroke="black" points="99.8,-135.6 99.8,-166.4 393.2,-166.4 393.2,-135.6 99.8,-135.6"/>
<text text-anchor="start" x="106.8" y="-147.8" font-family="Arial" font-size="14.00">bank_account_number </text>
<text text-anchor="start" x="253.12" y="-147.8" font-family="Arial" font-size="14.00" fill="#666666">[varchar(255)]</text>
<polygon fill="none" stroke="black" points="99.8,-104.8 99.8,-135.6 393.2,-135.6 393.2,-104.8 99.8,-104.8"/>
<text text-anchor="start" x="106.8" y="-117" font-family="Arial" font-size="14.00">guardian_info </text>
<text text-anchor="start" x="195.54" y="-117" font-family="Arial" font-size="14.00" fill="#666666">[varchar(500)]</text>
<polygon fill="none" stroke="black" points="99.8,-74 99.8,-104.8 393.2,-104.8 393.2,-74 99.8,-74"/>
<text text-anchor="start" x="106.8" y="-86.2" font-family="Arial" font-size="14.00">patient_source </text>
<text text-anchor="start" x="202.53" y="-86.2" font-family="Arial" font-size="14.00" fill="#666666">[varchar(255)]</text>
<polygon fill="none" stroke="black" points="99.8,-43.2 99.8,-74 393.2,-74 393.2,-43.2 99.8,-43.2"/>
<text text-anchor="start" x="106.8" y="-55.4" font-family="Arial" font-size="14.00">expected_notification_channel </text>
<text text-anchor="start" x="299.05" y="-55.4" font-family="Arial" font-size="14.00" fill="#666666">[varchar(255)]</text>
</g>
<!-- public.patient_identity_mappings&#45;&gt;public.patients -->
<g id="edge1" class="edge">
<title>public.patient_identity_mappings:patient_id&#45;&gt;public.patients:id</title>
<path fill="none" stroke="black" d="M248.14,-1235.29C179.39,-1225.35 211.64,-1113.34 259.52,-1051.2 297.08,-1002.46 355.51,-1063.84 393.2,-1015.2 418.84,-982.1 436.07,-921 394.2,-921"/>
<polygon fill="black" stroke="black" points="248.21,-1235.3 257.88,-1240.47 253.53,-1235.66 257.85,-1235.95 257.85,-1235.95 257.85,-1235.95 253.53,-1235.66 258.49,-1231.49 248.21,-1235.3"/>
<text text-anchor="start" x="7" y="-1246" font-family="Arial" font-size="10.00">FOREIGN KEY (patient_id) REFERENCES patients(id)</text>
</g>
<!-- public.patient_identities -->
<g id="node3" class="node">
<title>public.patient_identities</title>
<polygon fill="#efefef" stroke="none" points="497.52,-797.8 497.52,-833.4 809.47,-833.4 809.47,-797.8 497.52,-797.8"/>
<polygon fill="none" stroke="black" points="497.52,-797.8 497.52,-833.4 809.47,-833.4 809.47,-797.8 497.52,-797.8"/>
<text text-anchor="start" x="504.52" y="-811.2" font-family="Arial Bold" font-size="18.00">public.patient_identities</text>
<text text-anchor="start" x="677.98" y="-811.2" font-family="Arial" font-size="14.00">    </text>
<text text-anchor="start" x="709.1" y="-811.2" font-family="Arial" font-size="14.00" fill="#666666">[BASE TABLE]</text>
<polygon fill="none" stroke="black" points="497.52,-767 497.52,-797.8 809.47,-797.8 809.47,-767 497.52,-767"/>
<text text-anchor="start" x="504.52" y="-779.2" font-family="Arial" font-size="14.00">id </text>
<text text-anchor="start" x="519.31" y="-779.2" font-family="Arial" font-size="14.00" fill="#666666">[bigint]</text>
<polygon fill="none" stroke="black" points="497.52,-736.2 497.52,-767 809.47,-767 809.47,-736.2 497.52,-736.2"/>
<text text-anchor="start" x="504.52" y="-748.4" font-family="Arial" font-size="14.00">full_name </text>
<text text-anchor="start" x="569.11" y="-748.4" font-family="Arial" font-size="14.00" fill="#666666">[varchar(255)]</text>
<polygon fill="none" stroke="black" points="497.52,-705.4 497.52,-736.2 809.47,-736.2 809.47,-705.4 497.52,-705.4"/>
<text text-anchor="start" x="504.52" y="-717.6" font-family="Arial" font-size="14.00">gender </text>
<text text-anchor="start" x="552" y="-717.6" font-family="Arial" font-size="14.00" fill="#666666">[varchar(255)]</text>
<polygon fill="none" stroke="black" points="497.52,-674.6 497.52,-705.4 809.47,-705.4 809.47,-674.6 497.52,-674.6"/>
<text text-anchor="start" x="504.52" y="-686.8" font-family="Arial" font-size="14.00">date_of_birth </text>
<text text-anchor="start" x="590.14" y="-686.8" font-family="Arial" font-size="14.00" fill="#666666">[date]</text>
<polygon fill="none" stroke="black" points="497.52,-643.8 497.52,-674.6 809.47,-674.6 809.47,-643.8 497.52,-643.8"/>
<text text-anchor="start" x="504.52" y="-656" font-family="Arial" font-size="14.00">identity_type </text>
<text text-anchor="start" x="587.02" y="-656" font-family="Arial" font-size="14.00" fill="#666666">[varchar(255)]</text>
<polygon fill="none" stroke="black" points="497.52,-613 497.52,-643.8 809.47,-643.8 809.47,-613 497.52,-613"/>
<text text-anchor="start" x="504.52" y="-625.2" font-family="Arial" font-size="14.00">identity_number </text>
<text text-anchor="start" x="608.02" y="-625.2" font-family="Arial" font-size="14.00" fill="#666666">[varchar(255)]</text>
<polygon fill="none" stroke="black" points="497.52,-582.2 497.52,-613 809.47,-613 809.47,-582.2 497.52,-582.2"/>
<text text-anchor="start" x="504.52" y="-594.4" font-family="Arial" font-size="14.00">nationality_code </text>
<text text-anchor="start" x="609.6" y="-594.4" font-family="Arial" font-size="14.00" fill="#666666">[varchar(255)]</text>
<polygon fill="none" stroke="black" points="497.52,-551.4 497.52,-582.2 809.47,-582.2 809.47,-551.4 497.52,-551.4"/>
<text text-anchor="start" x="504.52" y="-563.6" font-family="Arial" font-size="14.00">permanent_address </text>
<text text-anchor="start" x="632.94" y="-563.6" font-family="Arial" font-size="14.00" fill="#666666">[text]</text>
<polygon fill="none" stroke="black" points="497.52,-520.6 497.52,-551.4 809.47,-551.4 809.47,-520.6 497.52,-520.6"/>
<text text-anchor="start" x="504.52" y="-532.8" font-family="Arial" font-size="14.00">registered_date </text>
<text text-anchor="start" x="605.7" y="-532.8" font-family="Arial" font-size="14.00" fill="#666666">[date]</text>
<polygon fill="none" stroke="black" points="497.52,-489.8 497.52,-520.6 809.47,-520.6 809.47,-489.8 497.52,-489.8"/>
<text text-anchor="start" x="504.52" y="-502" font-family="Arial" font-size="14.00">expired_date </text>
<text text-anchor="start" x="589.36" y="-502" font-family="Arial" font-size="14.00" fill="#666666">[date]</text>
<polygon fill="none" stroke="black" points="497.52,-459 497.52,-489.8 809.47,-489.8 809.47,-459 497.52,-459"/>
<text text-anchor="start" x="504.52" y="-471.2" font-family="Arial" font-size="14.00">is_expired </text>
<text text-anchor="start" x="572.23" y="-471.2" font-family="Arial" font-size="14.00" fill="#666666">[boolean]</text>
<polygon fill="none" stroke="black" points="497.52,-428.2 497.52,-459 809.47,-459 809.47,-428.2 497.52,-428.2"/>
<text text-anchor="start" x="504.52" y="-440.4" font-family="Arial" font-size="14.00">identity_card_front </text>
<text text-anchor="start" x="623.59" y="-440.4" font-family="Arial" font-size="14.00" fill="#666666">[varchar(255)]</text>
<polygon fill="none" stroke="black" points="497.52,-397.4 497.52,-428.2 809.47,-428.2 809.47,-397.4 497.52,-397.4"/>
<text text-anchor="start" x="504.52" y="-409.6" font-family="Arial" font-size="14.00">identity_card_back </text>
<text text-anchor="start" x="625.15" y="-409.6" font-family="Arial" font-size="14.00" fill="#666666">[varchar(255)]</text>
<polygon fill="none" stroke="black" points="497.52,-366.6 497.52,-397.4 809.47,-397.4 809.47,-366.6 497.52,-366.6"/>
<text text-anchor="start" x="504.52" y="-378.8" font-family="Arial" font-size="14.00">status </text>
<text text-anchor="start" x="545.76" y="-378.8" font-family="Arial" font-size="14.00" fill="#666666">[varchar(255)]</text>
<polygon fill="none" stroke="black" points="497.52,-335.8 497.52,-366.6 809.47,-366.6 809.47,-335.8 497.52,-335.8"/>
<text text-anchor="start" x="504.52" y="-348" font-family="Arial" font-size="14.00">captured_by </text>
<text text-anchor="start" x="585.47" y="-348" font-family="Arial" font-size="14.00" fill="#666666">[varchar(255)]</text>
<polygon fill="none" stroke="black" points="497.52,-305 497.52,-335.8 809.47,-335.8 809.47,-305 497.52,-305"/>
<text text-anchor="start" x="504.52" y="-317.2" font-family="Arial" font-size="14.00">is_verified </text>
<text text-anchor="start" x="571.44" y="-317.2" font-family="Arial" font-size="14.00" fill="#666666">[boolean]</text>
<polygon fill="none" stroke="black" points="497.52,-274.2 497.52,-305 809.47,-305 809.47,-274.2 497.52,-274.2"/>
<text text-anchor="start" x="504.52" y="-286.4" font-family="Arial" font-size="14.00">verified_by </text>
<text text-anchor="start" x="576.11" y="-286.4" font-family="Arial" font-size="14.00" fill="#666666">[varchar(255)]</text>
<polygon fill="none" stroke="black" points="497.52,-243.4 497.52,-274.2 809.47,-274.2 809.47,-243.4 497.52,-243.4"/>
<text text-anchor="start" x="504.52" y="-255.6" font-family="Arial" font-size="14.00">verified_at </text>
<text text-anchor="start" x="573" y="-255.6" font-family="Arial" font-size="14.00" fill="#666666">[timestamp(0) without time zone]</text>
<polygon fill="none" stroke="black" points="497.52,-212.6 497.52,-243.4 809.47,-243.4 809.47,-212.6 497.52,-212.6"/>
<text text-anchor="start" x="504.52" y="-224.8" font-family="Arial" font-size="14.00">created_at </text>
<text text-anchor="start" x="574.57" y="-224.8" font-family="Arial" font-size="14.00" fill="#666666">[timestamp(0) without time zone]</text>
<polygon fill="none" stroke="black" points="497.52,-181.8 497.52,-212.6 809.47,-212.6 809.47,-181.8 497.52,-181.8"/>
<text text-anchor="start" x="504.52" y="-194" font-family="Arial" font-size="14.00">updated_at </text>
<text text-anchor="start" x="578.48" y="-194" font-family="Arial" font-size="14.00" fill="#666666">[timestamp(0) without time zone]</text>
</g>
<!-- public.patient_identity_mappings&#45;&gt;public.patient_identities -->
<g id="edge2" class="edge">
<title>public.patient_identity_mappings:patient_identity_id&#45;&gt;public.patient_identities:id</title>
<path fill="none" stroke="black" d="M650.69,-1204.42C703.92,-1195.48 661.33,-1112.1 639.47,-1051.2 605.69,-957.07 531.5,-970.66 497.52,-876.6 483.3,-837.22 454.65,-782.4 496.52,-782.4"/>
<polygon fill="black" stroke="black" points="650.78,-1204.41 640.46,-1200.69 645.46,-1204.82 641.14,-1205.15 641.14,-1205.15 641.14,-1205.15 645.46,-1204.82 641.15,-1209.66 650.78,-1204.41"/>
<text text-anchor="start" x="647.47" y="-1215.2" font-family="Arial" font-size="10.00">FOREIGN KEY (patient_identity_id) REFERENCES patient_identities(id)</text>
</g>
</g>
</svg>
