<?xml version="1.0" encoding="UTF-8" standalone="no"?>
<!DOCTYPE svg PUBLIC "-//W3C//DTD SVG 1.1//EN"
 "http://www.w3.org/Graphics/SVG/1.1/DTD/svg11.dtd">
<!-- Generated by graphviz version 12.1.2 (20240928.0832)
 -->
<!-- Title: public.my_table Pages: 1 -->
<svg width="355pt" height="198pt"
 viewBox="0.00 0.00 355.36 197.60" xmlns="http://www.w3.org/2000/svg" xmlns:xlink="http://www.w3.org/1999/xlink">
<g id="graph0" class="graph" transform="scale(1 1) rotate(0) translate(4 193.6)">
<title>public.my_table</title>
<polygon fill="white" stroke="none" points="-4,4 -4,-193.6 351.36,-193.6 351.36,4 -4,4"/>
<!-- public.my_table -->
<g id="node1" class="node">
<title>public.my_table</title>
<polygon fill="#efefef" stroke="none" points="46.2,-107.8 46.2,-143.4 301.16,-143.4 301.16,-107.8 46.2,-107.8"/>
<polygon fill="none" stroke="black" points="46.2,-107.8 46.2,-143.4 301.16,-143.4 301.16,-107.8 46.2,-107.8"/>
<text text-anchor="start" x="53.2" y="-121.2" font-family="Arial Bold" font-size="18.00">public.my_table</text>
<text text-anchor="start" x="169.67" y="-121.2" font-family="Arial" font-size="14.00">    </text>
<text text-anchor="start" x="200.79" y="-121.2" font-family="Arial" font-size="14.00" fill="#666666">[BASE TABLE]</text>
<polygon fill="none" stroke="black" points="46.2,-77 46.2,-107.8 301.16,-107.8 301.16,-77 46.2,-77"/>
<text text-anchor="start" x="53.2" y="-89.2" font-family="Arial" font-size="14.00">id </text>
<text text-anchor="start" x="67.99" y="-89.2" font-family="Arial" font-size="14.00" fill="#666666">[integer]</text>
<polygon fill="none" stroke="black" points="46.2,-46.2 46.2,-77 301.16,-77 301.16,-46.2 46.2,-46.2"/>
<text text-anchor="start" x="53.2" y="-58.4" font-family="Arial" font-size="14.00">data_column </text>
<text text-anchor="start" x="137.25" y="-58.4" font-family="Arial" font-size="14.00" fill="#666666">[jsonb]</text>
<polygon fill="none" stroke="black" stroke-width="3" points="44.7,-44.7 44.7,-144.9 302.66,-144.9 302.66,-44.7 44.7,-44.7"/>
</g>
</g>
</svg>
