<?xml version="1.0" encoding="UTF-8" standalone="no"?>
<!DOCTYPE svg PUBLIC "-//W3C//DTD SVG 1.1//EN"
 "http://www.w3.org/Graphics/SVG/1.1/DTD/svg11.dtd">
<!-- Generated by graphviz version 12.1.2 (20240928.0832)
 -->
<!-- Title: public.rate_card_bulk_upload_details Pages: 1 -->
<svg width="930pt" height="818pt"
 viewBox="0.00 0.00 929.84 817.60" xmlns="http://www.w3.org/2000/svg" xmlns:xlink="http://www.w3.org/1999/xlink">
<g id="graph0" class="graph" transform="scale(1 1) rotate(0) translate(4 813.6)">
<title>public.rate_card_bulk_upload_details</title>
<polygon fill="white" stroke="none" points="-4,4 -4,-813.6 925.84,-813.6 925.84,4 -4,4"/>
<!-- public.rate_card_bulk_upload_details -->
<g id="node1" class="node">
<title>public.rate_card_bulk_upload_details</title>
<polygon fill="#efefef" stroke="none" points="46.2,-727.8 46.2,-763.4 456.1,-763.4 456.1,-727.8 46.2,-727.8"/>
<polygon fill="none" stroke="black" points="46.2,-727.8 46.2,-763.4 456.1,-763.4 456.1,-727.8 46.2,-727.8"/>
<text text-anchor="start" x="53.2" y="-741.2" font-family="Arial Bold" font-size="18.00">public.rate_card_bulk_upload_details</text>
<text text-anchor="start" x="324.62" y="-741.2" font-family="Arial" font-size="14.00">    </text>
<text text-anchor="start" x="355.73" y="-741.2" font-family="Arial" font-size="14.00" fill="#666666">[BASE TABLE]</text>
<polygon fill="none" stroke="black" points="46.2,-697 46.2,-727.8 456.1,-727.8 456.1,-697 46.2,-697"/>
<text text-anchor="start" x="53.2" y="-709.2" font-family="Arial" font-size="14.00">id </text>
<text text-anchor="start" x="67.99" y="-709.2" font-family="Arial" font-size="14.00" fill="#666666">[bigint]</text>
<polygon fill="none" stroke="black" points="46.2,-666.2 46.2,-697 456.1,-697 456.1,-666.2 46.2,-666.2"/>
<text text-anchor="start" x="53.2" y="-678.4" font-family="Arial" font-size="14.00">bulk_upload_id </text>
<text text-anchor="start" x="151.28" y="-678.4" font-family="Arial" font-size="14.00" fill="#666666">[bigint]</text>
<polygon fill="none" stroke="black" points="46.2,-635.4 46.2,-666.2 456.1,-666.2 456.1,-635.4 46.2,-635.4"/>
<text text-anchor="start" x="53.2" y="-647.6" font-family="Arial" font-size="14.00">row_number </text>
<text text-anchor="start" x="134.9" y="-647.6" font-family="Arial" font-size="14.00" fill="#666666">[integer]</text>
<polygon fill="none" stroke="black" points="46.2,-604.6 46.2,-635.4 456.1,-635.4 456.1,-604.6 46.2,-604.6"/>
<text text-anchor="start" x="53.2" y="-616.8" font-family="Arial" font-size="14.00">row_data </text>
<text text-anchor="start" x="114.68" y="-616.8" font-family="Arial" font-size="14.00" fill="#666666">[json]</text>
<polygon fill="none" stroke="black" points="46.2,-573.8 46.2,-604.6 456.1,-604.6 456.1,-573.8 46.2,-573.8"/>
<text text-anchor="start" x="53.2" y="-586" font-family="Arial" font-size="14.00">status </text>
<text text-anchor="start" x="94.44" y="-586" font-family="Arial" font-size="14.00" fill="#666666">[varchar(255)]</text>
<polygon fill="none" stroke="black" points="46.2,-543 46.2,-573.8 456.1,-573.8 456.1,-543 46.2,-543"/>
<text text-anchor="start" x="53.2" y="-555.2" font-family="Arial" font-size="14.00">error </text>
<text text-anchor="start" x="86.65" y="-555.2" font-family="Arial" font-size="14.00" fill="#666666">[json]</text>
<polygon fill="none" stroke="black" points="46.2,-512.2 46.2,-543 456.1,-543 456.1,-512.2 46.2,-512.2"/>
<text text-anchor="start" x="53.2" y="-524.4" font-family="Arial" font-size="14.00">created_at </text>
<text text-anchor="start" x="123.25" y="-524.4" font-family="Arial" font-size="14.00" fill="#666666">[timestamp(0) without time zone]</text>
<polygon fill="none" stroke="black" points="46.2,-481.4 46.2,-512.2 456.1,-512.2 456.1,-481.4 46.2,-481.4"/>
<text text-anchor="start" x="53.2" y="-493.6" font-family="Arial" font-size="14.00">updated_at </text>
<text text-anchor="start" x="127.16" y="-493.6" font-family="Arial" font-size="14.00" fill="#666666">[timestamp(0) without time zone]</text>
<polygon fill="none" stroke="black" points="46.2,-450.6 46.2,-481.4 456.1,-481.4 456.1,-450.6 46.2,-450.6"/>
<text text-anchor="start" x="53.2" y="-462.8" font-family="Arial" font-size="14.00">deleted_at </text>
<text text-anchor="start" x="122.48" y="-462.8" font-family="Arial" font-size="14.00" fill="#666666">[timestamp(0) without time zone]</text>
<polygon fill="none" stroke="black" stroke-width="3" points="44.7,-449.1 44.7,-764.9 457.6,-764.9 457.6,-449.1 44.7,-449.1"/>
</g>
<!-- public.rate_card_bulk_uploads -->
<g id="node2" class="node">
<title>public.rate_card_bulk_uploads</title>
<polygon fill="#efefef" stroke="none" points="70.69,-289.6 70.69,-325.2 431.61,-325.2 431.61,-289.6 70.69,-289.6"/>
<polygon fill="none" stroke="black" points="70.69,-289.6 70.69,-325.2 431.61,-325.2 431.61,-289.6 70.69,-289.6"/>
<text text-anchor="start" x="77.69" y="-303" font-family="Arial Bold" font-size="18.00">public.rate_card_bulk_uploads</text>
<text text-anchor="start" x="300.12" y="-303" font-family="Arial" font-size="14.00">    </text>
<text text-anchor="start" x="331.24" y="-303" font-family="Arial" font-size="14.00" fill="#666666">[BASE TABLE]</text>
<polygon fill="none" stroke="black" points="70.69,-258.8 70.69,-289.6 431.61,-289.6 431.61,-258.8 70.69,-258.8"/>
<text text-anchor="start" x="77.69" y="-271" font-family="Arial" font-size="14.00">id </text>
<text text-anchor="start" x="92.48" y="-271" font-family="Arial" font-size="14.00" fill="#666666">[bigint]</text>
<polygon fill="none" stroke="black" points="70.69,-228 70.69,-258.8 431.61,-258.8 431.61,-228 70.69,-228"/>
<text text-anchor="start" x="77.69" y="-240.2" font-family="Arial" font-size="14.00">file_path </text>
<text text-anchor="start" x="134.51" y="-240.2" font-family="Arial" font-size="14.00" fill="#666666">[varchar(255)]</text>
<polygon fill="none" stroke="black" points="70.69,-197.2 70.69,-228 431.61,-228 431.61,-197.2 70.69,-197.2"/>
<text text-anchor="start" x="77.69" y="-209.4" font-family="Arial" font-size="14.00">status </text>
<text text-anchor="start" x="118.93" y="-209.4" font-family="Arial" font-size="14.00" fill="#666666">[varchar(255)]</text>
<polygon fill="none" stroke="black" points="70.69,-166.4 70.69,-197.2 431.61,-197.2 431.61,-166.4 70.69,-166.4"/>
<text text-anchor="start" x="77.69" y="-178.6" font-family="Arial" font-size="14.00">created_by </text>
<text text-anchor="start" x="150.85" y="-178.6" font-family="Arial" font-size="14.00" fill="#666666">[varchar(255)]</text>
<polygon fill="none" stroke="black" points="70.69,-135.6 70.69,-166.4 431.61,-166.4 431.61,-135.6 70.69,-135.6"/>
<text text-anchor="start" x="77.69" y="-147.8" font-family="Arial" font-size="14.00">created_at </text>
<text text-anchor="start" x="147.74" y="-147.8" font-family="Arial" font-size="14.00" fill="#666666">[timestamp(0) without time zone]</text>
<polygon fill="none" stroke="black" points="70.69,-104.8 70.69,-135.6 431.61,-135.6 431.61,-104.8 70.69,-104.8"/>
<text text-anchor="start" x="77.69" y="-117" font-family="Arial" font-size="14.00">updated_at </text>
<text text-anchor="start" x="151.65" y="-117" font-family="Arial" font-size="14.00" fill="#666666">[timestamp(0) without time zone]</text>
<polygon fill="none" stroke="black" points="70.69,-74 70.69,-104.8 431.61,-104.8 431.61,-74 70.69,-74"/>
<text text-anchor="start" x="77.69" y="-86.2" font-family="Arial" font-size="14.00">deleted_at </text>
<text text-anchor="start" x="146.97" y="-86.2" font-family="Arial" font-size="14.00" fill="#666666">[timestamp(0) without time zone]</text>
<polygon fill="none" stroke="black" points="70.69,-43.2 70.69,-74 431.61,-74 431.61,-43.2 70.69,-43.2"/>
<text text-anchor="start" x="77.69" y="-55.4" font-family="Arial" font-size="14.00">type </text>
<text text-anchor="start" x="108.04" y="-55.4" font-family="Arial" font-size="14.00" fill="#666666">[varchar(255)]</text>
</g>
<!-- public.rate_card_bulk_upload_details&#45;&gt;public.rate_card_bulk_uploads -->
<g id="edge1" class="edge">
<title>public.rate_card_bulk_upload_details:bulk_upload_id&#45;&gt;public.rate_card_bulk_uploads:id</title>
<path fill="none" stroke="black" d="M467.21,-679.78C545.79,-650.39 519.77,-274.2 432.61,-274.2"/>
<polygon fill="black" stroke="black" points="467.28,-679.77 456.64,-677.11 462.03,-680.72 457.76,-681.48 457.76,-681.48 457.76,-681.48 462.03,-680.72 458.23,-685.97 467.28,-679.77"/>
<text text-anchor="start" x="464.1" y="-691.6" font-family="Arial" font-size="10.00">FOREIGN KEY (bulk_upload_id) REFERENCES rate_card_bulk_uploads(id) ON DELETE CASCADE</text>
</g>
</g>
</svg>
