<?xml version="1.0" encoding="UTF-8" standalone="no"?>
<!DOCTYPE svg PUBLIC "-//W3C//DTD SVG 1.1//EN"
 "http://www.w3.org/Graphics/SVG/1.1/DTD/svg11.dtd">
<!-- Generated by graphviz version 12.1.2 (20240928.0832)
 -->
<!-- Title: public.rate_card_clients Pages: 1 -->
<svg width="849pt" height="879pt"
 viewBox="0.00 0.00 849.04 879.20" xmlns="http://www.w3.org/2000/svg" xmlns:xlink="http://www.w3.org/1999/xlink">
<g id="graph0" class="graph" transform="scale(1 1) rotate(0) translate(4 875.2)">
<title>public.rate_card_clients</title>
<polygon fill="white" stroke="none" points="-4,4 -4,-875.2 845.04,-875.2 845.04,4 -4,4"/>
<!-- public.rate_card_clients -->
<g id="node1" class="node">
<title>public.rate_card_clients</title>
<polygon fill="#efefef" stroke="none" points="283.96,-789.4 283.96,-825 594.88,-825 594.88,-789.4 283.96,-789.4"/>
<polygon fill="none" stroke="black" points="283.96,-789.4 283.96,-825 594.88,-825 594.88,-789.4 283.96,-789.4"/>
<text text-anchor="start" x="290.96" y="-802.8" font-family="Arial Bold" font-size="18.00">public.rate_card_clients</text>
<text text-anchor="start" x="463.39" y="-802.8" font-family="Arial" font-size="14.00">    </text>
<text text-anchor="start" x="494.51" y="-802.8" font-family="Arial" font-size="14.00" fill="#666666">[BASE TABLE]</text>
<polygon fill="none" stroke="black" points="283.96,-758.6 283.96,-789.4 594.88,-789.4 594.88,-758.6 283.96,-758.6"/>
<text text-anchor="start" x="290.96" y="-770.8" font-family="Arial" font-size="14.00">id </text>
<text text-anchor="start" x="305.75" y="-770.8" font-family="Arial" font-size="14.00" fill="#666666">[bigint]</text>
<polygon fill="none" stroke="black" points="283.96,-727.8 283.96,-758.6 594.88,-758.6 594.88,-727.8 283.96,-727.8"/>
<text text-anchor="start" x="290.96" y="-740" font-family="Arial" font-size="14.00">rate_card_id </text>
<text text-anchor="start" x="372.68" y="-740" font-family="Arial" font-size="14.00" fill="#666666">[bigint]</text>
<polygon fill="none" stroke="black" points="283.96,-697 283.96,-727.8 594.88,-727.8 594.88,-697 283.96,-697"/>
<text text-anchor="start" x="290.96" y="-709.2" font-family="Arial" font-size="14.00">client_id </text>
<text text-anchor="start" x="346.22" y="-709.2" font-family="Arial" font-size="14.00" fill="#666666">[bigint]</text>
<polygon fill="none" stroke="black" points="283.96,-666.2 283.96,-697 594.88,-697 594.88,-666.2 283.96,-666.2"/>
<text text-anchor="start" x="290.96" y="-678.4" font-family="Arial" font-size="14.00">priority </text>
<text text-anchor="start" x="336.86" y="-678.4" font-family="Arial" font-size="14.00" fill="#666666">[integer]</text>
<polygon fill="none" stroke="black" points="283.96,-635.4 283.96,-666.2 594.88,-666.2 594.88,-635.4 283.96,-635.4"/>
<text text-anchor="start" x="290.96" y="-647.6" font-family="Arial" font-size="14.00">apply_from </text>
<text text-anchor="start" x="364.11" y="-647.6" font-family="Arial" font-size="14.00" fill="#666666">[timestamp(0) without time zone]</text>
<polygon fill="none" stroke="black" points="283.96,-604.6 283.96,-635.4 594.88,-635.4 594.88,-604.6 283.96,-604.6"/>
<text text-anchor="start" x="290.96" y="-616.8" font-family="Arial" font-size="14.00">apply_to </text>
<text text-anchor="start" x="347.79" y="-616.8" font-family="Arial" font-size="14.00" fill="#666666">[timestamp(0) without time zone]</text>
<polygon fill="none" stroke="black" points="283.96,-573.8 283.96,-604.6 594.88,-604.6 594.88,-573.8 283.96,-573.8"/>
<text text-anchor="start" x="290.96" y="-586" font-family="Arial" font-size="14.00">created_at </text>
<text text-anchor="start" x="361.01" y="-586" font-family="Arial" font-size="14.00" fill="#666666">[timestamp(0) without time zone]</text>
<polygon fill="none" stroke="black" points="283.96,-543 283.96,-573.8 594.88,-573.8 594.88,-543 283.96,-543"/>
<text text-anchor="start" x="290.96" y="-555.2" font-family="Arial" font-size="14.00">updated_at </text>
<text text-anchor="start" x="364.92" y="-555.2" font-family="Arial" font-size="14.00" fill="#666666">[timestamp(0) without time zone]</text>
<polygon fill="none" stroke="black" stroke-width="3" points="282.46,-541.5 282.46,-826.5 596.38,-826.5 596.38,-541.5 282.46,-541.5"/>
</g>
<!-- public.rate_cards -->
<g id="node2" class="node">
<title>public.rate_cards</title>
<polygon fill="#efefef" stroke="none" points="97.29,-289.6 97.29,-325.2 387.55,-325.2 387.55,-289.6 97.29,-289.6"/>
<polygon fill="none" stroke="black" points="97.29,-289.6 97.29,-325.2 387.55,-325.2 387.55,-289.6 97.29,-289.6"/>
<text text-anchor="start" x="118.46" y="-303" font-family="Arial Bold" font-size="18.00">public.rate_cards</text>
<text text-anchor="start" x="241.9" y="-303" font-family="Arial" font-size="14.00">    </text>
<text text-anchor="start" x="273.02" y="-303" font-family="Arial" font-size="14.00" fill="#666666">[BASE TABLE]</text>
<polygon fill="none" stroke="black" points="97.29,-258.8 97.29,-289.6 387.55,-289.6 387.55,-258.8 97.29,-258.8"/>
<text text-anchor="start" x="104.29" y="-271" font-family="Arial" font-size="14.00">id </text>
<text text-anchor="start" x="119.08" y="-271" font-family="Arial" font-size="14.00" fill="#666666">[bigint]</text>
<polygon fill="none" stroke="black" points="97.29,-228 97.29,-258.8 387.55,-258.8 387.55,-228 97.29,-228"/>
<text text-anchor="start" x="104.29" y="-240.2" font-family="Arial" font-size="14.00">created_at </text>
<text text-anchor="start" x="174.34" y="-240.2" font-family="Arial" font-size="14.00" fill="#666666">[timestamp(0) without time zone]</text>
<polygon fill="none" stroke="black" points="97.29,-197.2 97.29,-228 387.55,-228 387.55,-197.2 97.29,-197.2"/>
<text text-anchor="start" x="104.29" y="-209.4" font-family="Arial" font-size="14.00">updated_at </text>
<text text-anchor="start" x="178.25" y="-209.4" font-family="Arial" font-size="14.00" fill="#666666">[timestamp(0) without time zone]</text>
<polygon fill="none" stroke="black" points="97.29,-166.4 97.29,-197.2 387.55,-197.2 387.55,-166.4 97.29,-166.4"/>
<text text-anchor="start" x="104.29" y="-178.6" font-family="Arial" font-size="14.00">code </text>
<text text-anchor="start" x="138.54" y="-178.6" font-family="Arial" font-size="14.00" fill="#666666">[varchar(255)]</text>
<polygon fill="none" stroke="black" points="97.29,-135.6 97.29,-166.4 387.55,-166.4 387.55,-135.6 97.29,-135.6"/>
<text text-anchor="start" x="104.29" y="-147.8" font-family="Arial" font-size="14.00">description </text>
<text text-anchor="start" x="175.89" y="-147.8" font-family="Arial" font-size="14.00" fill="#666666">[text]</text>
</g>
<!-- public.rate_card_clients&#45;&gt;public.rate_cards -->
<g id="edge1" class="edge">
<title>public.rate_card_clients:rate_card_id&#45;&gt;public.rate_cards:id</title>
<path fill="none" stroke="black" d="M272.65,-742.73C178.32,-733.73 248.51,-596.56 283.96,-496.8 308.52,-427.71 362.77,-437.41 387.55,-368.4 401.7,-328.99 430.42,-274.2 388.55,-274.2"/>
<polygon fill="black" stroke="black" points="272.64,-742.73 282.43,-747.68 277.97,-742.97 282.3,-743.17 282.3,-743.17 282.3,-743.17 277.97,-742.97 282.83,-738.69 272.64,-742.73"/>
<text text-anchor="start" x="7" y="-753.2" font-family="Arial" font-size="10.00">FOREIGN KEY (rate_card_id) REFERENCES rate_cards(id)</text>
</g>
<!-- public.clients -->
<g id="node3" class="node">
<title>public.clients</title>
<polygon fill="#efefef" stroke="none" points="492.29,-382 492.29,-417.6 782.55,-417.6 782.55,-382 492.29,-382"/>
<polygon fill="none" stroke="black" points="492.29,-382 492.29,-417.6 782.55,-417.6 782.55,-382 492.29,-382"/>
<text text-anchor="start" x="526.94" y="-395.4" font-family="Arial Bold" font-size="18.00">public.clients</text>
<text text-anchor="start" x="623.42" y="-395.4" font-family="Arial" font-size="14.00">    </text>
<text text-anchor="start" x="654.53" y="-395.4" font-family="Arial" font-size="14.00" fill="#666666">[BASE TABLE]</text>
<polygon fill="none" stroke="black" points="492.29,-351.2 492.29,-382 782.55,-382 782.55,-351.2 492.29,-351.2"/>
<text text-anchor="start" x="499.29" y="-363.4" font-family="Arial" font-size="14.00">id </text>
<text text-anchor="start" x="514.08" y="-363.4" font-family="Arial" font-size="14.00" fill="#666666">[bigint]</text>
<polygon fill="none" stroke="black" points="492.29,-320.4 492.29,-351.2 782.55,-351.2 782.55,-320.4 492.29,-320.4"/>
<text text-anchor="start" x="499.29" y="-332.6" font-family="Arial" font-size="14.00">account_code </text>
<text text-anchor="start" x="590.36" y="-332.6" font-family="Arial" font-size="14.00" fill="#666666">[varchar(100)]</text>
<polygon fill="none" stroke="black" points="492.29,-289.6 492.29,-320.4 782.55,-320.4 782.55,-289.6 492.29,-289.6"/>
<text text-anchor="start" x="499.29" y="-301.8" font-family="Arial" font-size="14.00">legal_name </text>
<text text-anchor="start" x="575.57" y="-301.8" font-family="Arial" font-size="14.00" fill="#666666">[varchar(255)]</text>
<polygon fill="none" stroke="black" points="492.29,-258.8 492.29,-289.6 782.55,-289.6 782.55,-258.8 492.29,-258.8"/>
<text text-anchor="start" x="499.29" y="-271" font-family="Arial" font-size="14.00">address </text>
<text text-anchor="start" x="552.99" y="-271" font-family="Arial" font-size="14.00" fill="#666666">[varchar(255)]</text>
<polygon fill="none" stroke="black" points="492.29,-228 492.29,-258.8 782.55,-258.8 782.55,-228 492.29,-228"/>
<text text-anchor="start" x="499.29" y="-240.2" font-family="Arial" font-size="14.00">created_at </text>
<text text-anchor="start" x="569.34" y="-240.2" font-family="Arial" font-size="14.00" fill="#666666">[timestamp(0) without time zone]</text>
<polygon fill="none" stroke="black" points="492.29,-197.2 492.29,-228 782.55,-228 782.55,-197.2 492.29,-197.2"/>
<text text-anchor="start" x="499.29" y="-209.4" font-family="Arial" font-size="14.00">updated_at </text>
<text text-anchor="start" x="573.25" y="-209.4" font-family="Arial" font-size="14.00" fill="#666666">[timestamp(0) without time zone]</text>
<polygon fill="none" stroke="black" points="492.29,-166.4 492.29,-197.2 782.55,-197.2 782.55,-166.4 492.29,-166.4"/>
<text text-anchor="start" x="499.29" y="-178.6" font-family="Arial" font-size="14.00">status </text>
<text text-anchor="start" x="540.54" y="-178.6" font-family="Arial" font-size="14.00" fill="#666666">[varchar(100)]</text>
<polygon fill="none" stroke="black" points="492.29,-135.6 492.29,-166.4 782.55,-166.4 782.55,-135.6 492.29,-135.6"/>
<text text-anchor="start" x="499.29" y="-147.8" font-family="Arial" font-size="14.00">customer_segment_id </text>
<text text-anchor="start" x="640.92" y="-147.8" font-family="Arial" font-size="14.00" fill="#666666">[varchar(255)]</text>
<polygon fill="none" stroke="black" points="492.29,-104.8 492.29,-135.6 782.55,-135.6 782.55,-104.8 492.29,-104.8"/>
<text text-anchor="start" x="499.29" y="-117" font-family="Arial" font-size="14.00">customer_segment </text>
<text text-anchor="start" x="622.24" y="-117" font-family="Arial" font-size="14.00" fill="#666666">[varchar(255)]</text>
<polygon fill="none" stroke="black" points="492.29,-74 492.29,-104.8 782.55,-104.8 782.55,-74 492.29,-74"/>
<text text-anchor="start" x="499.29" y="-86.2" font-family="Arial" font-size="14.00">client_type </text>
<text text-anchor="start" x="570.11" y="-86.2" font-family="Arial" font-size="14.00" fill="#666666">[varchar(255)]</text>
<polygon fill="none" stroke="black" points="492.29,-43.2 492.29,-74 782.55,-74 782.55,-43.2 492.29,-43.2"/>
<text text-anchor="start" x="499.29" y="-55.4" font-family="Arial" font-size="14.00">discount_value </text>
<text text-anchor="start" x="596.58" y="-55.4" font-family="Arial" font-size="14.00" fill="#666666">[varchar(255)]</text>
</g>
<!-- public.rate_card_clients&#45;&gt;public.clients -->
<g id="edge2" class="edge">
<title>public.rate_card_clients:client_id&#45;&gt;public.clients:id</title>
<path fill="none" stroke="black" d="M606.24,-711.81C688.54,-702.01 648.36,-571.87 594.88,-496.8 566.84,-457.45 520.45,-500.07 492.29,-460.8 467.9,-426.77 449.43,-366.6 491.29,-366.6"/>
<polygon fill="black" stroke="black" points="606.2,-711.81 595.96,-707.89 600.87,-712.12 596.55,-712.36 596.55,-712.36 596.55,-712.36 600.87,-712.12 596.47,-716.87 606.2,-711.81"/>
<text text-anchor="start" x="602.88" y="-722.4" font-family="Arial" font-size="10.00">FOREIGN KEY (client_id) REFERENCES clients(id)</text>
</g>
</g>
</svg>
