<?xml version="1.0" encoding="UTF-8" standalone="no"?>
<!DOCTYPE svg PUBLIC "-//W3C//DTD SVG 1.1//EN"
 "http://www.w3.org/Graphics/SVG/1.1/DTD/svg11.dtd">
<!-- Generated by graphviz version 12.1.2 (20240928.0832)
 -->
<!-- Title: public.order_payment_details Pages: 1 -->
<svg width="656pt" height="2542pt"
 viewBox="0.00 0.00 655.53 2542.40" xmlns="http://www.w3.org/2000/svg" xmlns:xlink="http://www.w3.org/1999/xlink">
<g id="graph0" class="graph" transform="scale(1 1) rotate(0) translate(4 2538.4)">
<title>public.order_payment_details</title>
<polygon fill="white" stroke="none" points="-4,4 -4,-2538.4 651.53,-2538.4 651.53,4 -4,4"/>
<!-- public.order_payment_details -->
<g id="node1" class="node">
<title>public.order_payment_details</title>
<polygon fill="#efefef" stroke="none" points="48.44,-2452.6 48.44,-2488.2 401.37,-2488.2 401.37,-2452.6 48.44,-2452.6"/>
<polygon fill="none" stroke="black" points="48.44,-2452.6 48.44,-2488.2 401.37,-2488.2 401.37,-2452.6 48.44,-2452.6"/>
<text text-anchor="start" x="55.44" y="-2466" font-family="Arial Bold" font-size="18.00">public.order_payment_details</text>
<text text-anchor="start" x="269.88" y="-2466" font-family="Arial" font-size="14.00">    </text>
<text text-anchor="start" x="301" y="-2466" font-family="Arial" font-size="14.00" fill="#666666">[BASE TABLE]</text>
<polygon fill="none" stroke="black" points="48.44,-2421.8 48.44,-2452.6 401.37,-2452.6 401.37,-2421.8 48.44,-2421.8"/>
<text text-anchor="start" x="55.44" y="-2434" font-family="Arial" font-size="14.00">id </text>
<text text-anchor="start" x="70.23" y="-2434" font-family="Arial" font-size="14.00" fill="#666666">[bigint]</text>
<polygon fill="none" stroke="black" points="48.44,-2391 48.44,-2421.8 401.37,-2421.8 401.37,-2391 48.44,-2391"/>
<text text-anchor="start" x="55.44" y="-2403.2" font-family="Arial" font-size="14.00">order_id </text>
<text text-anchor="start" x="110.7" y="-2403.2" font-family="Arial" font-size="14.00" fill="#666666">[bigint]</text>
<polygon fill="none" stroke="black" points="48.44,-2360.2 48.44,-2391 401.37,-2391 401.37,-2360.2 48.44,-2360.2"/>
<text text-anchor="start" x="55.44" y="-2372.4" font-family="Arial" font-size="14.00">payment_type </text>
<text text-anchor="start" x="147.28" y="-2372.4" font-family="Arial" font-size="14.00" fill="#666666">[varchar(100)]</text>
<polygon fill="none" stroke="black" points="48.44,-2329.4 48.44,-2360.2 401.37,-2360.2 401.37,-2329.4 48.44,-2329.4"/>
<text text-anchor="start" x="55.44" y="-2341.6" font-family="Arial" font-size="14.00">amount </text>
<text text-anchor="start" x="106.03" y="-2341.6" font-family="Arial" font-size="14.00" fill="#666666">[double precision]</text>
<polygon fill="none" stroke="black" points="48.44,-2298.6 48.44,-2329.4 401.37,-2329.4 401.37,-2298.6 48.44,-2298.6"/>
<text text-anchor="start" x="55.44" y="-2310.8" font-family="Arial" font-size="14.00">amount_received </text>
<text text-anchor="start" x="166.73" y="-2310.8" font-family="Arial" font-size="14.00" fill="#666666">[double precision]</text>
<polygon fill="none" stroke="black" points="48.44,-2267.8 48.44,-2298.6 401.37,-2298.6 401.37,-2267.8 48.44,-2267.8"/>
<text text-anchor="start" x="55.44" y="-2280" font-family="Arial" font-size="14.00">status </text>
<text text-anchor="start" x="96.68" y="-2280" font-family="Arial" font-size="14.00" fill="#666666">[varchar(100)]</text>
<polygon fill="none" stroke="black" points="48.44,-2237 48.44,-2267.8 401.37,-2267.8 401.37,-2237 48.44,-2237"/>
<text text-anchor="start" x="55.44" y="-2249.2" font-family="Arial" font-size="14.00">ext_transaction_id </text>
<text text-anchor="start" x="172.96" y="-2249.2" font-family="Arial" font-size="14.00" fill="#666666">[varchar(255)]</text>
<polygon fill="none" stroke="black" points="48.44,-2206.2 48.44,-2237 401.37,-2237 401.37,-2206.2 48.44,-2206.2"/>
<text text-anchor="start" x="55.44" y="-2218.4" font-family="Arial" font-size="14.00">currency </text>
<text text-anchor="start" x="113.02" y="-2218.4" font-family="Arial" font-size="14.00" fill="#666666">[varchar(255)]</text>
<polygon fill="none" stroke="black" points="48.44,-2175.4 48.44,-2206.2 401.37,-2206.2 401.37,-2175.4 48.44,-2175.4"/>
<text text-anchor="start" x="55.44" y="-2187.6" font-family="Arial" font-size="14.00">created_at </text>
<text text-anchor="start" x="125.49" y="-2187.6" font-family="Arial" font-size="14.00" fill="#666666">[timestamp(0) without time zone]</text>
<polygon fill="none" stroke="black" points="48.44,-2144.6 48.44,-2175.4 401.37,-2175.4 401.37,-2144.6 48.44,-2144.6"/>
<text text-anchor="start" x="55.44" y="-2156.8" font-family="Arial" font-size="14.00">updated_at </text>
<text text-anchor="start" x="129.4" y="-2156.8" font-family="Arial" font-size="14.00" fill="#666666">[timestamp(0) without time zone]</text>
<polygon fill="none" stroke="black" points="48.44,-2113.8 48.44,-2144.6 401.37,-2144.6 401.37,-2113.8 48.44,-2113.8"/>
<text text-anchor="start" x="55.44" y="-2126" font-family="Arial" font-size="14.00">bank_card_type </text>
<text text-anchor="start" x="158.96" y="-2126" font-family="Arial" font-size="14.00" fill="#666666">[varchar(100)]</text>
<polygon fill="none" stroke="black" points="48.44,-2083 48.44,-2113.8 401.37,-2113.8 401.37,-2083 48.44,-2083"/>
<text text-anchor="start" x="55.44" y="-2095.2" font-family="Arial" font-size="14.00">card_number </text>
<text text-anchor="start" x="141.82" y="-2095.2" font-family="Arial" font-size="14.00" fill="#666666">[varchar(100)]</text>
<polygon fill="none" stroke="black" points="48.44,-2052.2 48.44,-2083 401.37,-2083 401.37,-2052.2 48.44,-2052.2"/>
<text text-anchor="start" x="55.44" y="-2064.4" font-family="Arial" font-size="14.00">card_holder_name </text>
<text text-anchor="start" x="176.08" y="-2064.4" font-family="Arial" font-size="14.00" fill="#666666">[varchar(100)]</text>
<polygon fill="none" stroke="black" points="48.44,-2021.4 48.44,-2052.2 401.37,-2052.2 401.37,-2021.4 48.44,-2021.4"/>
<text text-anchor="start" x="55.44" y="-2033.6" font-family="Arial" font-size="14.00">coupon_name </text>
<text text-anchor="start" x="148.07" y="-2033.6" font-family="Arial" font-size="14.00" fill="#666666">[varchar(100)]</text>
<polygon fill="none" stroke="black" points="48.44,-1990.6 48.44,-2021.4 401.37,-2021.4 401.37,-1990.6 48.44,-1990.6"/>
<text text-anchor="start" x="55.44" y="-2002.8" font-family="Arial" font-size="14.00">coupon_number </text>
<text text-anchor="start" x="160.52" y="-2002.8" font-family="Arial" font-size="14.00" fill="#666666">[varchar(100)]</text>
<polygon fill="none" stroke="black" stroke-width="3" points="46.94,-1989.1 46.94,-2489.7 402.87,-2489.7 402.87,-1989.1 46.94,-1989.1"/>
</g>
<!-- public.orders -->
<g id="node2" class="node">
<title>public.orders</title>
<polygon fill="#efefef" stroke="none" points="43.2,-1829.6 43.2,-1865.2 406.61,-1865.2 406.61,-1829.6 43.2,-1829.6"/>
<polygon fill="none" stroke="black" points="43.2,-1829.6 43.2,-1865.2 406.61,-1865.2 406.61,-1829.6 43.2,-1829.6"/>
<text text-anchor="start" x="115.42" y="-1843" font-family="Arial Bold" font-size="18.00">public.orders</text>
<text text-anchor="start" x="209.9" y="-1843" font-family="Arial" font-size="14.00">    </text>
<text text-anchor="start" x="241.02" y="-1843" font-family="Arial" font-size="14.00" fill="#666666">[BASE TABLE]</text>
<polygon fill="none" stroke="black" points="43.2,-1798.8 43.2,-1829.6 406.61,-1829.6 406.61,-1798.8 43.2,-1798.8"/>
<text text-anchor="start" x="50.2" y="-1811" font-family="Arial" font-size="14.00">id </text>
<text text-anchor="start" x="64.99" y="-1811" font-family="Arial" font-size="14.00" fill="#666666">[bigint]</text>
<polygon fill="none" stroke="black" points="43.2,-1768 43.2,-1798.8 406.61,-1798.8 406.61,-1768 43.2,-1768"/>
<text text-anchor="start" x="50.2" y="-1780.2" font-family="Arial" font-size="14.00">code </text>
<text text-anchor="start" x="84.45" y="-1780.2" font-family="Arial" font-size="14.00" fill="#666666">[varchar(100)]</text>
<polygon fill="none" stroke="black" points="43.2,-1737.2 43.2,-1768 406.61,-1768 406.61,-1737.2 43.2,-1737.2"/>
<text text-anchor="start" x="50.2" y="-1749.4" font-family="Arial" font-size="14.00">booking_code </text>
<text text-anchor="start" x="141.28" y="-1749.4" font-family="Arial" font-size="14.00" fill="#666666">[varchar(100)]</text>
<polygon fill="none" stroke="black" points="43.2,-1706.4 43.2,-1737.2 406.61,-1737.2 406.61,-1706.4 43.2,-1706.4"/>
<text text-anchor="start" x="50.2" y="-1718.6" font-family="Arial" font-size="14.00">patient_id </text>
<text text-anchor="start" x="114.81" y="-1718.6" font-family="Arial" font-size="14.00" fill="#666666">[bigint]</text>
<polygon fill="none" stroke="black" points="43.2,-1675.6 43.2,-1706.4 406.61,-1706.4 406.61,-1675.6 43.2,-1675.6"/>
<text text-anchor="start" x="50.2" y="-1687.8" font-family="Arial" font-size="14.00">client_id </text>
<text text-anchor="start" x="105.45" y="-1687.8" font-family="Arial" font-size="14.00" fill="#666666">[bigint]</text>
<polygon fill="none" stroke="black" points="43.2,-1644.8 43.2,-1675.6 406.61,-1675.6 406.61,-1644.8 43.2,-1644.8"/>
<text text-anchor="start" x="50.2" y="-1657" font-family="Arial" font-size="14.00">lis_order_id </text>
<text text-anchor="start" x="126.46" y="-1657" font-family="Arial" font-size="14.00" fill="#666666">[varchar(255)]</text>
<polygon fill="none" stroke="black" points="43.2,-1614 43.2,-1644.8 406.61,-1644.8 406.61,-1614 43.2,-1614"/>
<text text-anchor="start" x="50.2" y="-1626.2" font-family="Arial" font-size="14.00">client_ext_reference_id </text>
<text text-anchor="start" x="198.85" y="-1626.2" font-family="Arial" font-size="14.00" fill="#666666">[varchar(100)]</text>
<polygon fill="none" stroke="black" points="43.2,-1583.2 43.2,-1614 406.61,-1614 406.61,-1583.2 43.2,-1583.2"/>
<text text-anchor="start" x="50.2" y="-1595.4" font-family="Arial" font-size="14.00">ex_patient_number </text>
<text text-anchor="start" x="173.95" y="-1595.4" font-family="Arial" font-size="14.00" fill="#666666">[varchar(255)]</text>
<polygon fill="none" stroke="black" points="43.2,-1552.4 43.2,-1583.2 406.61,-1583.2 406.61,-1552.4 43.2,-1552.4"/>
<text text-anchor="start" x="50.2" y="-1564.6" font-family="Arial" font-size="14.00">ref_dr </text>
<text text-anchor="start" x="90.66" y="-1564.6" font-family="Arial" font-size="14.00" fill="#666666">[varchar(255)]</text>
<polygon fill="none" stroke="black" points="43.2,-1521.6 43.2,-1552.4 406.61,-1552.4 406.61,-1521.6 43.2,-1521.6"/>
<text text-anchor="start" x="50.2" y="-1533.8" font-family="Arial" font-size="14.00">remarks </text>
<text text-anchor="start" x="104.65" y="-1533.8" font-family="Arial" font-size="14.00" fill="#666666">[text]</text>
<polygon fill="none" stroke="black" points="43.2,-1490.8 43.2,-1521.6 406.61,-1521.6 406.61,-1490.8 43.2,-1490.8"/>
<text text-anchor="start" x="50.2" y="-1503" font-family="Arial" font-size="14.00">is_additional_test </text>
<text text-anchor="start" x="162.28" y="-1503" font-family="Arial" font-size="14.00" fill="#666666">[boolean]</text>
<polygon fill="none" stroke="black" points="43.2,-1460 43.2,-1490.8 406.61,-1490.8 406.61,-1460 43.2,-1460"/>
<text text-anchor="start" x="50.2" y="-1472.2" font-family="Arial" font-size="14.00">history </text>
<text text-anchor="start" x="95.32" y="-1472.2" font-family="Arial" font-size="14.00" fill="#666666">[text]</text>
<polygon fill="none" stroke="black" points="43.2,-1429.2 43.2,-1460 406.61,-1460 406.61,-1429.2 43.2,-1429.2"/>
<text text-anchor="start" x="50.2" y="-1441.4" font-family="Arial" font-size="14.00">bulk_upload_id </text>
<text text-anchor="start" x="148.28" y="-1441.4" font-family="Arial" font-size="14.00" fill="#666666">[uuid]</text>
<polygon fill="none" stroke="black" points="43.2,-1398.4 43.2,-1429.2 406.61,-1429.2 406.61,-1398.4 43.2,-1398.4"/>
<text text-anchor="start" x="50.2" y="-1410.6" font-family="Arial" font-size="14.00">total </text>
<text text-anchor="start" x="80.55" y="-1410.6" font-family="Arial" font-size="14.00" fill="#666666">[double precision]</text>
<polygon fill="none" stroke="black" points="43.2,-1367.6 43.2,-1398.4 406.61,-1398.4 406.61,-1367.6 43.2,-1367.6"/>
<text text-anchor="start" x="50.2" y="-1379.8" font-family="Arial" font-size="14.00">branch_code </text>
<text text-anchor="start" x="135.04" y="-1379.8" font-family="Arial" font-size="14.00" fill="#666666">[varchar(100)]</text>
<polygon fill="none" stroke="black" points="43.2,-1336.8 43.2,-1367.6 406.61,-1367.6 406.61,-1336.8 43.2,-1336.8"/>
<text text-anchor="start" x="50.2" y="-1349" font-family="Arial" font-size="14.00">patient_code </text>
<text text-anchor="start" x="134.27" y="-1349" font-family="Arial" font-size="14.00" fill="#666666">[varchar(255)]</text>
<polygon fill="none" stroke="black" points="43.2,-1306 43.2,-1336.8 406.61,-1336.8 406.61,-1306 43.2,-1306"/>
<text text-anchor="start" x="50.2" y="-1318.2" font-family="Arial" font-size="14.00">patient_full_name </text>
<text text-anchor="start" x="164.61" y="-1318.2" font-family="Arial" font-size="14.00" fill="#666666">[varchar(255)]</text>
<polygon fill="none" stroke="black" points="43.2,-1275.2 43.2,-1306 406.61,-1306 406.61,-1275.2 43.2,-1275.2"/>
<text text-anchor="start" x="50.2" y="-1287.4" font-family="Arial" font-size="14.00">patient_gender </text>
<text text-anchor="start" x="147.5" y="-1287.4" font-family="Arial" font-size="14.00" fill="#666666">[varchar(20)]</text>
<polygon fill="none" stroke="black" points="43.2,-1244.4 43.2,-1275.2 406.61,-1275.2 406.61,-1244.4 43.2,-1244.4"/>
<text text-anchor="start" x="50.2" y="-1256.6" font-family="Arial" font-size="14.00">patient_marital_status </text>
<text text-anchor="start" x="191.05" y="-1256.6" font-family="Arial" font-size="14.00" fill="#666666">[varchar(20)]</text>
<polygon fill="none" stroke="black" points="43.2,-1213.6 43.2,-1244.4 406.61,-1244.4 406.61,-1213.6 43.2,-1213.6"/>
<text text-anchor="start" x="50.2" y="-1225.8" font-family="Arial" font-size="14.00">patient_dob </text>
<text text-anchor="start" x="127.27" y="-1225.8" font-family="Arial" font-size="14.00" fill="#666666">[date]</text>
<polygon fill="none" stroke="black" points="43.2,-1182.8 43.2,-1213.6 406.61,-1213.6 406.61,-1182.8 43.2,-1182.8"/>
<text text-anchor="start" x="50.2" y="-1195" font-family="Arial" font-size="14.00">patient_phone_number </text>
<text text-anchor="start" x="198.1" y="-1195" font-family="Arial" font-size="14.00" fill="#666666">[varchar(20)]</text>
<polygon fill="none" stroke="black" points="43.2,-1152 43.2,-1182.8 406.61,-1182.8 406.61,-1152 43.2,-1152"/>
<text text-anchor="start" x="50.2" y="-1164.2" font-family="Arial" font-size="14.00">patient_email </text>
<text text-anchor="start" x="137.37" y="-1164.2" font-family="Arial" font-size="14.00" fill="#666666">[varchar(255)]</text>
<polygon fill="none" stroke="black" points="43.2,-1121.2 43.2,-1152 406.61,-1152 406.61,-1121.2 43.2,-1121.2"/>
<text text-anchor="start" x="50.2" y="-1133.4" font-family="Arial" font-size="14.00">patient_address </text>
<text text-anchor="start" x="153.72" y="-1133.4" font-family="Arial" font-size="14.00" fill="#666666">[varchar(255)]</text>
<polygon fill="none" stroke="black" points="43.2,-1090.4 43.2,-1121.2 406.61,-1121.2 406.61,-1090.4 43.2,-1090.4"/>
<text text-anchor="start" x="50.2" y="-1102.6" font-family="Arial" font-size="14.00">patient_ward </text>
<text text-anchor="start" x="134.25" y="-1102.6" font-family="Arial" font-size="14.00" fill="#666666">[varchar(255)]</text>
<polygon fill="none" stroke="black" points="43.2,-1059.6 43.2,-1090.4 406.61,-1090.4 406.61,-1059.6 43.2,-1059.6"/>
<text text-anchor="start" x="50.2" y="-1071.8" font-family="Arial" font-size="14.00">patient_district </text>
<text text-anchor="start" x="144.36" y="-1071.8" font-family="Arial" font-size="14.00" fill="#666666">[varchar(255)]</text>
<polygon fill="none" stroke="black" points="43.2,-1028.8 43.2,-1059.6 406.61,-1059.6 406.61,-1028.8 43.2,-1028.8"/>
<text text-anchor="start" x="50.2" y="-1041" font-family="Arial" font-size="14.00">patient_city </text>
<text text-anchor="start" x="124.91" y="-1041" font-family="Arial" font-size="14.00" fill="#666666">[varchar(100)]</text>
<polygon fill="none" stroke="black" points="43.2,-998 43.2,-1028.8 406.61,-1028.8 406.61,-998 43.2,-998"/>
<text text-anchor="start" x="50.2" y="-1010.2" font-family="Arial" font-size="14.00">patient_country </text>
<text text-anchor="start" x="149.82" y="-1010.2" font-family="Arial" font-size="14.00" fill="#666666">[varchar(60)]</text>
<polygon fill="none" stroke="black" points="43.2,-967.2 43.2,-998 406.61,-998 406.61,-967.2 43.2,-967.2"/>
<text text-anchor="start" x="50.2" y="-979.4" font-family="Arial" font-size="14.00">patient_nationality </text>
<text text-anchor="start" x="166.95" y="-979.4" font-family="Arial" font-size="14.00" fill="#666666">[varchar(60)]</text>
<polygon fill="none" stroke="black" points="43.2,-936.4 43.2,-967.2 406.61,-967.2 406.61,-936.4 43.2,-936.4"/>
<text text-anchor="start" x="50.2" y="-948.6" font-family="Arial" font-size="14.00">patient_id_number_type </text>
<text text-anchor="start" x="204.31" y="-948.6" font-family="Arial" font-size="14.00" fill="#666666">[varchar(20)]</text>
<polygon fill="none" stroke="black" points="43.2,-905.6 43.2,-936.4 406.61,-936.4 406.61,-905.6 43.2,-905.6"/>
<text text-anchor="start" x="50.2" y="-917.8" font-family="Arial" font-size="14.00">patient_id_number </text>
<text text-anchor="start" x="170.06" y="-917.8" font-family="Arial" font-size="14.00" fill="#666666">[varchar(255)]</text>
<polygon fill="none" stroke="black" points="43.2,-874.8 43.2,-905.6 406.61,-905.6 406.61,-874.8 43.2,-874.8"/>
<text text-anchor="start" x="50.2" y="-887" font-family="Arial" font-size="14.00">created_by_employee_code </text>
<text text-anchor="start" x="229.99" y="-887" font-family="Arial" font-size="14.00" fill="#666666">[varchar(100)]</text>
<polygon fill="none" stroke="black" points="43.2,-844 43.2,-874.8 406.61,-874.8 406.61,-844 43.2,-844"/>
<text text-anchor="start" x="50.2" y="-856.2" font-family="Arial" font-size="14.00">created_by_employee_email </text>
<text text-anchor="start" x="233.09" y="-856.2" font-family="Arial" font-size="14.00" fill="#666666">[varchar(255)]</text>
<polygon fill="none" stroke="black" points="43.2,-813.2 43.2,-844 406.61,-844 406.61,-813.2 43.2,-813.2"/>
<text text-anchor="start" x="50.2" y="-825.4" font-family="Arial" font-size="14.00">created_at </text>
<text text-anchor="start" x="120.25" y="-825.4" font-family="Arial" font-size="14.00" fill="#666666">[timestamp(0) without time zone]</text>
<polygon fill="none" stroke="black" points="43.2,-782.4 43.2,-813.2 406.61,-813.2 406.61,-782.4 43.2,-782.4"/>
<text text-anchor="start" x="50.2" y="-794.6" font-family="Arial" font-size="14.00">updated_at </text>
<text text-anchor="start" x="124.16" y="-794.6" font-family="Arial" font-size="14.00" fill="#666666">[timestamp(0) without time zone]</text>
<polygon fill="none" stroke="black" points="43.2,-751.6 43.2,-782.4 406.61,-782.4 406.61,-751.6 43.2,-751.6"/>
<text text-anchor="start" x="50.2" y="-763.8" font-family="Arial" font-size="14.00">patient_salutation </text>
<text text-anchor="start" x="163.84" y="-763.8" font-family="Arial" font-size="14.00" fill="#666666">[varchar(100)]</text>
<polygon fill="none" stroke="black" points="43.2,-720.8 43.2,-751.6 406.61,-751.6 406.61,-720.8 43.2,-720.8"/>
<text text-anchor="start" x="50.2" y="-733" font-family="Arial" font-size="14.00">status </text>
<text text-anchor="start" x="91.44" y="-733" font-family="Arial" font-size="14.00" fill="#666666">[varchar(255)]</text>
<polygon fill="none" stroke="black" points="43.2,-690 43.2,-720.8 406.61,-720.8 406.61,-690 43.2,-690"/>
<text text-anchor="start" x="50.2" y="-702.2" font-family="Arial" font-size="14.00">billing_pdf </text>
<text text-anchor="start" x="117.14" y="-702.2" font-family="Arial" font-size="14.00" fill="#666666">[varchar(255)]</text>
<polygon fill="none" stroke="black" points="43.2,-659.2 43.2,-690 406.61,-690 406.61,-659.2 43.2,-659.2"/>
<text text-anchor="start" x="50.2" y="-671.4" font-family="Arial" font-size="14.00">amount_received </text>
<text text-anchor="start" x="161.49" y="-671.4" font-family="Arial" font-size="14.00" fill="#666666">[double precision]</text>
<polygon fill="none" stroke="black" points="43.2,-628.4 43.2,-659.2 406.61,-659.2 406.61,-628.4 43.2,-628.4"/>
<text text-anchor="start" x="50.2" y="-640.6" font-family="Arial" font-size="14.00">patient_insurance_detail_id </text>
<text text-anchor="start" x="224.55" y="-640.6" font-family="Arial" font-size="14.00" fill="#666666">[bigint]</text>
<polygon fill="none" stroke="black" points="43.2,-597.6 43.2,-628.4 406.61,-628.4 406.61,-597.6 43.2,-597.6"/>
<text text-anchor="start" x="50.2" y="-609.8" font-family="Arial" font-size="14.00">direct_insurance_claim </text>
<text text-anchor="start" x="197.27" y="-609.8" font-family="Arial" font-size="14.00" fill="#666666">[boolean]</text>
<polygon fill="none" stroke="black" points="43.2,-566.8 43.2,-597.6 406.61,-597.6 406.61,-566.8 43.2,-566.8"/>
<text text-anchor="start" x="50.2" y="-579" font-family="Arial" font-size="14.00">vat_required </text>
<text text-anchor="start" x="131.92" y="-579" font-family="Arial" font-size="14.00" fill="#666666">[boolean]</text>
<polygon fill="none" stroke="black" points="43.2,-536 43.2,-566.8 406.61,-566.8 406.61,-536 43.2,-536"/>
<text text-anchor="start" x="50.2" y="-548.2" font-family="Arial" font-size="14.00">patient_guardian_info </text>
<text text-anchor="start" x="188.76" y="-548.2" font-family="Arial" font-size="14.00" fill="#666666">[varchar(500)]</text>
<polygon fill="none" stroke="black" points="43.2,-505.2 43.2,-536 406.61,-536 406.61,-505.2 43.2,-505.2"/>
<text text-anchor="start" x="50.2" y="-517.4" font-family="Arial" font-size="14.00">promotions </text>
<text text-anchor="start" x="123.34" y="-517.4" font-family="Arial" font-size="14.00" fill="#666666">[json]</text>
<polygon fill="none" stroke="black" points="43.2,-474.4 43.2,-505.2 406.61,-505.2 406.61,-474.4 43.2,-474.4"/>
<text text-anchor="start" x="50.2" y="-486.6" font-family="Arial" font-size="14.00">order_placed_option </text>
<text text-anchor="start" x="181.74" y="-486.6" font-family="Arial" font-size="14.00" fill="#666666">[varchar(255)]</text>
<polygon fill="none" stroke="black" points="43.2,-443.6 43.2,-474.4 406.61,-474.4 406.61,-443.6 43.2,-443.6"/>
<text text-anchor="start" x="50.2" y="-455.8" font-family="Arial" font-size="14.00">reject_identity_reason </text>
<text text-anchor="start" x="191.06" y="-455.8" font-family="Arial" font-size="14.00" fill="#666666">[text]</text>
<polygon fill="none" stroke="black" points="43.2,-412.8 43.2,-443.6 406.61,-443.6 406.61,-412.8 43.2,-412.8"/>
<text text-anchor="start" x="50.2" y="-425" font-family="Arial" font-size="14.00">otp </text>
<text text-anchor="start" x="73.55" y="-425" font-family="Arial" font-size="14.00" fill="#666666">[text]</text>
<polygon fill="none" stroke="black" points="43.2,-382 43.2,-412.8 406.61,-412.8 406.61,-382 43.2,-382"/>
<text text-anchor="start" x="50.2" y="-394.2" font-family="Arial" font-size="14.00">otp_expired_at </text>
<text text-anchor="start" x="146.72" y="-394.2" font-family="Arial" font-size="14.00" fill="#666666">[timestamp(0) without time zone]</text>
<polygon fill="none" stroke="black" points="43.2,-351.2 43.2,-382 406.61,-382 406.61,-351.2 43.2,-351.2"/>
<text text-anchor="start" x="50.2" y="-363.4" font-family="Arial" font-size="14.00">cancel_reason </text>
<text text-anchor="start" x="145.15" y="-363.4" font-family="Arial" font-size="14.00" fill="#666666">[varchar(255)]</text>
<polygon fill="none" stroke="black" points="43.2,-320.4 43.2,-351.2 406.61,-351.2 406.61,-320.4 43.2,-320.4"/>
<text text-anchor="start" x="50.2" y="-332.6" font-family="Arial" font-size="14.00">emergency_contact </text>
<text text-anchor="start" x="176.27" y="-332.6" font-family="Arial" font-size="14.00" fill="#666666">[boolean]</text>
<polygon fill="none" stroke="black" points="43.2,-289.6 43.2,-320.4 406.61,-320.4 406.61,-289.6 43.2,-289.6"/>
<text text-anchor="start" x="50.2" y="-301.8" font-family="Arial" font-size="14.00">emergency_contact_off_reason </text>
<text text-anchor="start" x="250.21" y="-301.8" font-family="Arial" font-size="14.00" fill="#666666">[varchar(255)]</text>
<polygon fill="none" stroke="black" points="43.2,-258.8 43.2,-289.6 406.61,-289.6 406.61,-258.8 43.2,-258.8"/>
<text text-anchor="start" x="50.2" y="-271" font-family="Arial" font-size="14.00">patient_emergency_contact_id </text>
<text text-anchor="start" x="244.77" y="-271" font-family="Arial" font-size="14.00" fill="#666666">[bigint]</text>
<polygon fill="none" stroke="black" points="43.2,-228 43.2,-258.8 406.61,-258.8 406.61,-228 43.2,-228"/>
<text text-anchor="start" x="50.2" y="-240.2" font-family="Arial" font-size="14.00">billing_last_updated_at </text>
<text text-anchor="start" x="197.32" y="-240.2" font-family="Arial" font-size="14.00" fill="#666666">[timestamp(0) without time zone]</text>
<polygon fill="none" stroke="black" points="43.2,-197.2 43.2,-228 406.61,-228 406.61,-197.2 43.2,-197.2"/>
<text text-anchor="start" x="50.2" y="-209.4" font-family="Arial" font-size="14.00">cancel_by </text>
<text text-anchor="start" x="117.13" y="-209.4" font-family="Arial" font-size="14.00" fill="#666666">[varchar(255)]</text>
<polygon fill="none" stroke="black" points="43.2,-166.4 43.2,-197.2 406.61,-197.2 406.61,-166.4 43.2,-166.4"/>
<text text-anchor="start" x="50.2" y="-178.6" font-family="Arial" font-size="14.00">cancel_time </text>
<text text-anchor="start" x="128.79" y="-178.6" font-family="Arial" font-size="14.00" fill="#666666">[timestamp(0) without time zone]</text>
<polygon fill="none" stroke="black" points="43.2,-135.6 43.2,-166.4 406.61,-166.4 406.61,-135.6 43.2,-135.6"/>
<text text-anchor="start" x="50.2" y="-147.8" font-family="Arial" font-size="14.00">stat </text>
<text text-anchor="start" x="76.66" y="-147.8" font-family="Arial" font-size="14.00" fill="#666666">[boolean]</text>
<polygon fill="none" stroke="black" points="43.2,-104.8 43.2,-135.6 406.61,-135.6 406.61,-104.8 43.2,-104.8"/>
<text text-anchor="start" x="50.2" y="-117" font-family="Arial" font-size="14.00">purchase_order_code </text>
<text text-anchor="start" x="190.3" y="-117" font-family="Arial" font-size="14.00" fill="#666666">[varchar(255)]</text>
<polygon fill="none" stroke="black" points="43.2,-74 43.2,-104.8 406.61,-104.8 406.61,-74 43.2,-74"/>
<text text-anchor="start" x="50.2" y="-86.2" font-family="Arial" font-size="14.00">trashed_booking_code </text>
<text text-anchor="start" x="195.76" y="-86.2" font-family="Arial" font-size="14.00" fill="#666666">[varchar(255)]</text>
<polygon fill="none" stroke="black" points="43.2,-43.2 43.2,-74 406.61,-74 406.61,-43.2 43.2,-43.2"/>
<text text-anchor="start" x="50.2" y="-55.4" font-family="Arial" font-size="14.00">trashed_booking_code_usage_reason </text>
<text text-anchor="start" x="292.28" y="-55.4" font-family="Arial" font-size="14.00" fill="#666666">[varchar(255)]</text>
</g>
<!-- public.order_payment_details&#45;&gt;public.orders -->
<g id="edge1" class="edge">
<title>public.order_payment_details:order_id&#45;&gt;public.orders:id</title>
<path fill="none" stroke="black" d="M411.57,-2402.3C468.51,-2349.98 470.2,-1814.2 407.61,-1814.2"/>
<polygon fill="black" stroke="black" points="411.81,-2402.2 400.84,-2402.15 406.94,-2404.37 402.98,-2406.13 402.98,-2406.13 402.98,-2406.13 406.94,-2404.37 404.5,-2410.37 411.81,-2402.2"/>
<text text-anchor="start" x="409.37" y="-2416.4" font-family="Arial" font-size="10.00">FOREIGN KEY (order_id) REFERENCES orders(id)</text>
</g>
</g>
</svg>
