<?xml version="1.0" encoding="UTF-8" standalone="no"?>
<!DOCTYPE svg PUBLIC "-//W3C//DTD SVG 1.1//EN"
 "http://www.w3.org/Graphics/SVG/1.1/DTD/svg11.dtd">
<!-- Generated by graphviz version 12.1.2 (20240928.0832)
 -->
<!-- Title: public.patient_historical_questions_answers Pages: 1 -->
<svg width="557pt" height="444pt"
 viewBox="0.00 0.00 557.33 444.00" xmlns="http://www.w3.org/2000/svg" xmlns:xlink="http://www.w3.org/1999/xlink">
<g id="graph0" class="graph" transform="scale(1 1) rotate(0) translate(4 440)">
<title>public.patient_historical_questions_answers</title>
<polygon fill="white" stroke="none" points="-4,4 -4,-440 553.33,-440 553.33,4 -4,4"/>
<!-- public.patient_historical_questions_answers -->
<g id="node1" class="node">
<title>public.patient_historical_questions_answers</title>
<polygon fill="#efefef" stroke="none" points="46.2,-354.2 46.2,-389.8 503.13,-389.8 503.13,-354.2 46.2,-354.2"/>
<polygon fill="none" stroke="black" points="46.2,-354.2 46.2,-389.8 503.13,-389.8 503.13,-354.2 46.2,-354.2"/>
<text text-anchor="start" x="53.2" y="-367.6" font-family="Arial Bold" font-size="18.00">public.patient_historical_questions_answers</text>
<text text-anchor="start" x="371.64" y="-367.6" font-family="Arial" font-size="14.00">    </text>
<text text-anchor="start" x="402.75" y="-367.6" font-family="Arial" font-size="14.00" fill="#666666">[BASE TABLE]</text>
<polygon fill="none" stroke="black" points="46.2,-323.4 46.2,-354.2 503.13,-354.2 503.13,-323.4 46.2,-323.4"/>
<text text-anchor="start" x="53.2" y="-335.6" font-family="Arial" font-size="14.00">id </text>
<text text-anchor="start" x="67.99" y="-335.6" font-family="Arial" font-size="14.00" fill="#666666">[bigint]</text>
<polygon fill="none" stroke="black" points="46.2,-292.6 46.2,-323.4 503.13,-323.4 503.13,-292.6 46.2,-292.6"/>
<text text-anchor="start" x="53.2" y="-304.8" font-family="Arial" font-size="14.00">test_code </text>
<text text-anchor="start" x="117.8" y="-304.8" font-family="Arial" font-size="14.00" fill="#666666">[varchar(255)]</text>
<polygon fill="none" stroke="black" points="46.2,-261.8 46.2,-292.6 503.13,-292.6 503.13,-261.8 46.2,-261.8"/>
<text text-anchor="start" x="53.2" y="-274" font-family="Arial" font-size="14.00">test_name </text>
<text text-anchor="start" x="122.46" y="-274" font-family="Arial" font-size="14.00" fill="#666666">[varchar(255)]</text>
<polygon fill="none" stroke="black" points="46.2,-231 46.2,-261.8 503.13,-261.8 503.13,-231 46.2,-231"/>
<text text-anchor="start" x="53.2" y="-243.2" font-family="Arial" font-size="14.00">test_name_vi </text>
<text text-anchor="start" x="140.36" y="-243.2" font-family="Arial" font-size="14.00" fill="#666666">[varchar(255)]</text>
<polygon fill="none" stroke="black" points="46.2,-200.2 46.2,-231 503.13,-231 503.13,-200.2 46.2,-200.2"/>
<text text-anchor="start" x="53.2" y="-212.4" font-family="Arial" font-size="14.00">test_question </text>
<text text-anchor="start" x="140.37" y="-212.4" font-family="Arial" font-size="14.00" fill="#666666">[varchar(255)]</text>
<polygon fill="none" stroke="black" points="46.2,-169.4 46.2,-200.2 503.13,-200.2 503.13,-169.4 46.2,-169.4"/>
<text text-anchor="start" x="53.2" y="-181.6" font-family="Arial" font-size="14.00">test_question_vi </text>
<text text-anchor="start" x="158.27" y="-181.6" font-family="Arial" font-size="14.00" fill="#666666">[varchar(255)]</text>
<polygon fill="none" stroke="black" points="46.2,-138.6 46.2,-169.4 503.13,-169.4 503.13,-138.6 46.2,-138.6"/>
<text text-anchor="start" x="53.2" y="-150.8" font-family="Arial" font-size="14.00">test_answer </text>
<text text-anchor="start" x="132.57" y="-150.8" font-family="Arial" font-size="14.00" fill="#666666">[varchar(255)]</text>
<polygon fill="none" stroke="black" points="46.2,-107.8 46.2,-138.6 503.13,-138.6 503.13,-107.8 46.2,-107.8"/>
<text text-anchor="start" x="53.2" y="-120" font-family="Arial" font-size="14.00">test_answer_vi </text>
<text text-anchor="start" x="150.47" y="-120" font-family="Arial" font-size="14.00" fill="#666666">[varchar(255)]</text>
<polygon fill="none" stroke="black" points="46.2,-77 46.2,-107.8 503.13,-107.8 503.13,-77 46.2,-77"/>
<text text-anchor="start" x="53.2" y="-89.2" font-family="Arial" font-size="14.00">created_at </text>
<text text-anchor="start" x="123.25" y="-89.2" font-family="Arial" font-size="14.00" fill="#666666">[timestamp(0) without time zone]</text>
<polygon fill="none" stroke="black" points="46.2,-46.2 46.2,-77 503.13,-77 503.13,-46.2 46.2,-46.2"/>
<text text-anchor="start" x="53.2" y="-58.4" font-family="Arial" font-size="14.00">updated_at </text>
<text text-anchor="start" x="127.16" y="-58.4" font-family="Arial" font-size="14.00" fill="#666666">[timestamp(0) without time zone]</text>
<polygon fill="none" stroke="black" stroke-width="3" points="44.7,-44.7 44.7,-391.3 504.63,-391.3 504.63,-44.7 44.7,-44.7"/>
</g>
</g>
</svg>
