<?xml version="1.0" encoding="UTF-8" standalone="no"?>
<!DOCTYPE svg PUBLIC "-//W3C//DTD SVG 1.1//EN"
 "http://www.w3.org/Graphics/SVG/1.1/DTD/svg11.dtd">
<!-- Generated by graphviz version 12.1.2 (20240928.0832)
 -->
<!-- Title: public.order_bulk_upload_details Pages: 1 -->
<svg width="850pt" height="1095pt"
 viewBox="0.00 0.00 850.47 1094.80" xmlns="http://www.w3.org/2000/svg" xmlns:xlink="http://www.w3.org/1999/xlink">
<g id="graph0" class="graph" transform="scale(1 1) rotate(0) translate(4 1090.8)">
<title>public.order_bulk_upload_details</title>
<polygon fill="white" stroke="none" points="-4,4 -4,-1090.8 846.47,-1090.8 846.47,4 -4,4"/>
<!-- public.order_bulk_upload_details -->
<g id="node1" class="node">
<title>public.order_bulk_upload_details</title>
<polygon fill="#efefef" stroke="none" points="49.69,-1005 49.69,-1040.6 430.63,-1040.6 430.63,-1005 49.69,-1005"/>
<polygon fill="none" stroke="black" points="49.69,-1005 49.69,-1040.6 430.63,-1040.6 430.63,-1005 49.69,-1005"/>
<text text-anchor="start" x="56.69" y="-1018.4" font-family="Arial Bold" font-size="18.00">public.order_bulk_upload_details</text>
<text text-anchor="start" x="299.14" y="-1018.4" font-family="Arial" font-size="14.00">    </text>
<text text-anchor="start" x="330.25" y="-1018.4" font-family="Arial" font-size="14.00" fill="#666666">[BASE TABLE]</text>
<polygon fill="none" stroke="black" points="49.69,-974.2 49.69,-1005 430.63,-1005 430.63,-974.2 49.69,-974.2"/>
<text text-anchor="start" x="56.69" y="-986.4" font-family="Arial" font-size="14.00">id </text>
<text text-anchor="start" x="71.48" y="-986.4" font-family="Arial" font-size="14.00" fill="#666666">[bigint]</text>
<polygon fill="none" stroke="black" points="49.69,-943.4 49.69,-974.2 430.63,-974.2 430.63,-943.4 49.69,-943.4"/>
<text text-anchor="start" x="56.69" y="-955.6" font-family="Arial" font-size="14.00">row_number </text>
<text text-anchor="start" x="138.39" y="-955.6" font-family="Arial" font-size="14.00" fill="#666666">[integer]</text>
<polygon fill="none" stroke="black" points="49.69,-912.6 49.69,-943.4 430.63,-943.4 430.63,-912.6 49.69,-912.6"/>
<text text-anchor="start" x="56.69" y="-924.8" font-family="Arial" font-size="14.00">row_data </text>
<text text-anchor="start" x="118.17" y="-924.8" font-family="Arial" font-size="14.00" fill="#666666">[json]</text>
<polygon fill="none" stroke="black" points="49.69,-881.8 49.69,-912.6 430.63,-912.6 430.63,-881.8 49.69,-881.8"/>
<text text-anchor="start" x="56.69" y="-894" font-family="Arial" font-size="14.00">bulk_upload_archive_id </text>
<text text-anchor="start" x="207.69" y="-894" font-family="Arial" font-size="14.00" fill="#666666">[uuid]</text>
<polygon fill="none" stroke="black" points="49.69,-851 49.69,-881.8 430.63,-881.8 430.63,-851 49.69,-851"/>
<text text-anchor="start" x="56.69" y="-863.2" font-family="Arial" font-size="14.00">status </text>
<text text-anchor="start" x="97.93" y="-863.2" font-family="Arial" font-size="14.00" fill="#666666">[varchar(20)]</text>
<polygon fill="none" stroke="black" points="49.69,-820.2 49.69,-851 430.63,-851 430.63,-820.2 49.69,-820.2"/>
<text text-anchor="start" x="56.69" y="-832.4" font-family="Arial" font-size="14.00">error </text>
<text text-anchor="start" x="90.14" y="-832.4" font-family="Arial" font-size="14.00" fill="#666666">[json]</text>
<polygon fill="none" stroke="black" points="49.69,-789.4 49.69,-820.2 430.63,-820.2 430.63,-789.4 49.69,-789.4"/>
<text text-anchor="start" x="56.69" y="-801.6" font-family="Arial" font-size="14.00">created_at </text>
<text text-anchor="start" x="126.74" y="-801.6" font-family="Arial" font-size="14.00" fill="#666666">[timestamp(0) without time zone]</text>
<polygon fill="none" stroke="black" points="49.69,-758.6 49.69,-789.4 430.63,-789.4 430.63,-758.6 49.69,-758.6"/>
<text text-anchor="start" x="56.69" y="-770.8" font-family="Arial" font-size="14.00">updated_at </text>
<text text-anchor="start" x="130.65" y="-770.8" font-family="Arial" font-size="14.00" fill="#666666">[timestamp(0) without time zone]</text>
<polygon fill="none" stroke="black" points="49.69,-727.8 49.69,-758.6 430.63,-758.6 430.63,-727.8 49.69,-727.8"/>
<text text-anchor="start" x="56.69" y="-740" font-family="Arial" font-size="14.00">deleted_at </text>
<text text-anchor="start" x="125.97" y="-740" font-family="Arial" font-size="14.00" fill="#666666">[timestamp(0) without time zone]</text>
<polygon fill="none" stroke="black" points="49.69,-697 49.69,-727.8 430.63,-727.8 430.63,-697 49.69,-697"/>
<text text-anchor="start" x="56.69" y="-709.2" font-family="Arial" font-size="14.00">order_id </text>
<text text-anchor="start" x="111.95" y="-709.2" font-family="Arial" font-size="14.00" fill="#666666">[varchar(255)]</text>
<polygon fill="none" stroke="black" stroke-width="3" points="48.19,-695.5 48.19,-1042.1 432.13,-1042.1 432.13,-695.5 48.19,-695.5"/>
</g>
<!-- public.order_bulk_upload_archives -->
<g id="node2" class="node">
<title>public.order_bulk_upload_archives</title>
<polygon fill="#efefef" stroke="none" points="43.2,-536 43.2,-571.6 437.12,-571.6 437.12,-536 43.2,-536"/>
<polygon fill="none" stroke="black" points="43.2,-536 43.2,-571.6 437.12,-571.6 437.12,-536 43.2,-536"/>
<text text-anchor="start" x="50.2" y="-549.4" font-family="Arial Bold" font-size="18.00">public.order_bulk_upload_archives</text>
<text text-anchor="start" x="305.63" y="-549.4" font-family="Arial" font-size="14.00">    </text>
<text text-anchor="start" x="336.74" y="-549.4" font-family="Arial" font-size="14.00" fill="#666666">[BASE TABLE]</text>
<polygon fill="none" stroke="black" points="43.2,-505.2 43.2,-536 437.12,-536 437.12,-505.2 43.2,-505.2"/>
<text text-anchor="start" x="50.2" y="-517.4" font-family="Arial" font-size="14.00">id </text>
<text text-anchor="start" x="64.99" y="-517.4" font-family="Arial" font-size="14.00" fill="#666666">[uuid]</text>
<polygon fill="none" stroke="black" points="43.2,-474.4 43.2,-505.2 437.12,-505.2 437.12,-474.4 43.2,-474.4"/>
<text text-anchor="start" x="50.2" y="-486.6" font-family="Arial" font-size="14.00">file_path </text>
<text text-anchor="start" x="107.02" y="-486.6" font-family="Arial" font-size="14.00" fill="#666666">[varchar(255)]</text>
<polygon fill="none" stroke="black" points="43.2,-443.6 43.2,-474.4 437.12,-474.4 437.12,-443.6 43.2,-443.6"/>
<text text-anchor="start" x="50.2" y="-455.8" font-family="Arial" font-size="14.00">status </text>
<text text-anchor="start" x="91.44" y="-455.8" font-family="Arial" font-size="14.00" fill="#666666">[varchar(20)]</text>
<polygon fill="none" stroke="black" points="43.2,-412.8 43.2,-443.6 437.12,-443.6 437.12,-412.8 43.2,-412.8"/>
<text text-anchor="start" x="50.2" y="-425" font-family="Arial" font-size="14.00">started_at </text>
<text text-anchor="start" x="116.35" y="-425" font-family="Arial" font-size="14.00" fill="#666666">[timestamp(0) without time zone]</text>
<polygon fill="none" stroke="black" points="43.2,-382 43.2,-412.8 437.12,-412.8 437.12,-382 43.2,-382"/>
<text text-anchor="start" x="50.2" y="-394.2" font-family="Arial" font-size="14.00">completed_at </text>
<text text-anchor="start" x="138.14" y="-394.2" font-family="Arial" font-size="14.00" fill="#666666">[timestamp(0) without time zone]</text>
<polygon fill="none" stroke="black" points="43.2,-351.2 43.2,-382 437.12,-382 437.12,-351.2 43.2,-351.2"/>
<text text-anchor="start" x="50.2" y="-363.4" font-family="Arial" font-size="14.00">error </text>
<text text-anchor="start" x="83.65" y="-363.4" font-family="Arial" font-size="14.00" fill="#666666">[json]</text>
<polygon fill="none" stroke="black" points="43.2,-320.4 43.2,-351.2 437.12,-351.2 437.12,-320.4 43.2,-320.4"/>
<text text-anchor="start" x="50.2" y="-332.6" font-family="Arial" font-size="14.00">created_by_employee_code </text>
<text text-anchor="start" x="229.99" y="-332.6" font-family="Arial" font-size="14.00" fill="#666666">[varchar(100)]</text>
<polygon fill="none" stroke="black" points="43.2,-289.6 43.2,-320.4 437.12,-320.4 437.12,-289.6 43.2,-289.6"/>
<text text-anchor="start" x="50.2" y="-301.8" font-family="Arial" font-size="14.00">created_by_employee_email </text>
<text text-anchor="start" x="233.09" y="-301.8" font-family="Arial" font-size="14.00" fill="#666666">[varchar(255)]</text>
<polygon fill="none" stroke="black" points="43.2,-258.8 43.2,-289.6 437.12,-289.6 437.12,-258.8 43.2,-258.8"/>
<text text-anchor="start" x="50.2" y="-271" font-family="Arial" font-size="14.00">created_at </text>
<text text-anchor="start" x="120.25" y="-271" font-family="Arial" font-size="14.00" fill="#666666">[timestamp(0) without time zone]</text>
<polygon fill="none" stroke="black" points="43.2,-228 43.2,-258.8 437.12,-258.8 437.12,-228 43.2,-228"/>
<text text-anchor="start" x="50.2" y="-240.2" font-family="Arial" font-size="14.00">updated_at </text>
<text text-anchor="start" x="124.16" y="-240.2" font-family="Arial" font-size="14.00" fill="#666666">[timestamp(0) without time zone]</text>
<polygon fill="none" stroke="black" points="43.2,-197.2 43.2,-228 437.12,-228 437.12,-197.2 43.2,-197.2"/>
<text text-anchor="start" x="50.2" y="-209.4" font-family="Arial" font-size="14.00">run_number </text>
<text text-anchor="start" x="129.58" y="-209.4" font-family="Arial" font-size="14.00" fill="#666666">[integer]</text>
<polygon fill="none" stroke="black" points="43.2,-166.4 43.2,-197.2 437.12,-197.2 437.12,-166.4 43.2,-166.4"/>
<text text-anchor="start" x="50.2" y="-178.6" font-family="Arial" font-size="14.00">bulk_name </text>
<text text-anchor="start" x="122.58" y="-178.6" font-family="Arial" font-size="14.00" fill="#666666">[varchar(255)]</text>
<polygon fill="none" stroke="black" points="43.2,-135.6 43.2,-166.4 437.12,-166.4 437.12,-135.6 43.2,-135.6"/>
<text text-anchor="start" x="50.2" y="-147.8" font-family="Arial" font-size="14.00">bulk_mode </text>
<text text-anchor="start" x="122.58" y="-147.8" font-family="Arial" font-size="14.00" fill="#666666">[varchar(100)]</text>
<polygon fill="none" stroke="black" points="43.2,-104.8 43.2,-135.6 437.12,-135.6 437.12,-104.8 43.2,-104.8"/>
<text text-anchor="start" x="50.2" y="-117" font-family="Arial" font-size="14.00">create_order_type </text>
<text text-anchor="start" x="167.72" y="-117" font-family="Arial" font-size="14.00" fill="#666666">[varchar(100)]</text>
<polygon fill="none" stroke="black" points="43.2,-74 43.2,-104.8 437.12,-104.8 437.12,-74 43.2,-74"/>
<text text-anchor="start" x="50.2" y="-86.2" font-family="Arial" font-size="14.00">client_name </text>
<text text-anchor="start" x="129.58" y="-86.2" font-family="Arial" font-size="14.00" fill="#666666">[varchar(255)]</text>
<polygon fill="none" stroke="black" points="43.2,-43.2 43.2,-74 437.12,-74 437.12,-43.2 43.2,-43.2"/>
<text text-anchor="start" x="50.2" y="-55.4" font-family="Arial" font-size="14.00">client_code </text>
<text text-anchor="start" x="124.92" y="-55.4" font-family="Arial" font-size="14.00" fill="#666666">[varchar(100)]</text>
</g>
<!-- public.order_bulk_upload_details&#45;&gt;public.order_bulk_upload_archives -->
<g id="edge1" class="edge">
<title>public.order_bulk_upload_details:bulk_upload_archive_id&#45;&gt;public.order_bulk_upload_archives:id</title>
<path fill="none" stroke="black" d="M441.53,-895.35C515.71,-866.94 518.39,-520.6 438.12,-520.6"/>
<polygon fill="black" stroke="black" points="441.79,-895.3 431.13,-892.71 436.54,-896.28 432.28,-897.08 432.28,-897.08 432.28,-897.08 436.54,-896.28 432.78,-901.56 441.79,-895.3"/>
<text text-anchor="start" x="438.63" y="-907.2" font-family="Arial" font-size="10.00">FOREIGN KEY (bulk_upload_archive_id) REFERENCES order_bulk_upload_archives(id)</text>
</g>
</g>
</svg>
