<?xml version="1.0" encoding="UTF-8" standalone="no"?>
<!DOCTYPE svg PUBLIC "-//W3C//DTD SVG 1.1//EN"
 "http://www.w3.org/Graphics/SVG/1.1/DTD/svg11.dtd">
<!-- Generated by graphviz version 12.1.2 (20240928.0832)
 -->
<!-- Title: public.category_package Pages: 1 -->
<svg width="3479pt" height="623pt"
 viewBox="0.00 0.00 3479.31 623.35" xmlns="http://www.w3.org/2000/svg" xmlns:xlink="http://www.w3.org/1999/xlink">
<g id="graph0" class="graph" transform="scale(1 1) rotate(0) translate(4 619.35)">
<title>public.category_package</title>
<polygon fill="white" stroke="none" points="-4,4 -4,-619.35 3475.31,-619.35 3475.31,4 -4,4"/>
<!-- public.category_package -->
<g id="node1" class="node">
<title>public.category_package</title>
<polygon fill="#efefef" stroke="none" points="2227.7,-533.55 2227.7,-569.15 2545.6,-569.15 2545.6,-533.55 2227.7,-533.55"/>
<polygon fill="none" stroke="black" points="2227.7,-533.55 2227.7,-569.15 2545.6,-569.15 2545.6,-533.55 2227.7,-533.55"/>
<text text-anchor="start" x="2234.7" y="-546.95" font-family="Arial Bold" font-size="18.00">public.category_package</text>
<text text-anchor="start" x="2414.11" y="-546.95" font-family="Arial" font-size="14.00">    </text>
<text text-anchor="start" x="2445.23" y="-546.95" font-family="Arial" font-size="14.00" fill="#666666">[BASE TABLE]</text>
<polygon fill="none" stroke="black" points="2227.7,-502.75 2227.7,-533.55 2545.6,-533.55 2545.6,-502.75 2227.7,-502.75"/>
<text text-anchor="start" x="2234.7" y="-514.95" font-family="Arial" font-size="14.00">package_id </text>
<text text-anchor="start" x="2310.21" y="-514.95" font-family="Arial" font-size="14.00" fill="#666666">[integer]</text>
<polygon fill="none" stroke="black" points="2227.7,-471.95 2227.7,-502.75 2545.6,-502.75 2545.6,-471.95 2227.7,-471.95"/>
<text text-anchor="start" x="2234.7" y="-484.15" font-family="Arial" font-size="14.00">category_id </text>
<text text-anchor="start" x="2310.97" y="-484.15" font-family="Arial" font-size="14.00" fill="#666666">[integer]</text>
<polygon fill="none" stroke="black" stroke-width="3" points="2226.2,-470.45 2226.2,-570.65 2547.1,-570.65 2547.1,-470.45 2226.2,-470.45"/>
</g>
<!-- public.packages -->
<g id="node2" class="node">
<title>public.packages</title>
<polygon fill="#efefef" stroke="none" points="1171.68,-310.95 1171.68,-346.55 1425.62,-346.55 1425.62,-310.95 1171.68,-310.95"/>
<polygon fill="none" stroke="black" points="1171.68,-310.95 1171.68,-346.55 1425.62,-346.55 1425.62,-310.95 1171.68,-310.95"/>
<text text-anchor="start" x="1178.68" y="-324.35" font-family="Arial Bold" font-size="18.00">public.packages</text>
<text text-anchor="start" x="1294.13" y="-324.35" font-family="Arial" font-size="14.00">    </text>
<text text-anchor="start" x="1325.25" y="-324.35" font-family="Arial" font-size="14.00" fill="#666666">[BASE TABLE]</text>
<polygon fill="none" stroke="black" points="1171.68,-280.15 1171.68,-310.95 1425.62,-310.95 1425.62,-280.15 1171.68,-280.15"/>
<text text-anchor="start" x="1178.68" y="-292.35" font-family="Arial" font-size="14.00">id </text>
<text text-anchor="start" x="1193.47" y="-292.35" font-family="Arial" font-size="14.00" fill="#666666">[bigint]</text>
<polygon fill="none" stroke="black" points="1171.68,-249.35 1171.68,-280.15 1425.62,-280.15 1425.62,-249.35 1171.68,-249.35"/>
<text text-anchor="start" x="1178.68" y="-261.55" font-family="Arial" font-size="14.00">attune_department_id </text>
<text text-anchor="start" x="1318.78" y="-261.55" font-family="Arial" font-size="14.00" fill="#666666">[bigint]</text>
</g>
<!-- public.category_package&#45;&gt;public.packages -->
<g id="edge1" class="edge">
<title>public.category_package:package_id&#45;&gt;public.packages:id</title>
<path fill="none" stroke="black" d="M2216.53,-516.89C2183.99,-507.7 2208.52,-450.66 2172.65,-425.75 2034.44,-329.73 1594.91,-295.55 1426.62,-295.55"/>
<polygon fill="black" stroke="black" points="2216.45,-516.88 2225.82,-522.57 2221.74,-517.53 2226.04,-518.06 2226.04,-518.06 2226.04,-518.06 2221.74,-517.53 2226.92,-513.64 2216.45,-516.88"/>
</g>
<!-- public.categories -->
<g id="node9" class="node">
<title>public.categories</title>
<polygon fill="#efefef" stroke="none" points="2677.18,-295.55 2677.18,-331.15 2938.12,-331.15 2938.12,-295.55 2677.18,-295.55"/>
<polygon fill="none" stroke="black" points="2677.18,-295.55 2677.18,-331.15 2938.12,-331.15 2938.12,-295.55 2677.18,-295.55"/>
<text text-anchor="start" x="2684.18" y="-308.95" font-family="Arial Bold" font-size="18.00">public.categories</text>
<text text-anchor="start" x="2806.63" y="-308.95" font-family="Arial" font-size="14.00">    </text>
<text text-anchor="start" x="2837.75" y="-308.95" font-family="Arial" font-size="14.00" fill="#666666">[BASE TABLE]</text>
<polygon fill="none" stroke="black" points="2677.18,-264.75 2677.18,-295.55 2938.12,-295.55 2938.12,-264.75 2677.18,-264.75"/>
<text text-anchor="start" x="2684.18" y="-276.95" font-family="Arial" font-size="14.00">id </text>
<text text-anchor="start" x="2698.97" y="-276.95" font-family="Arial" font-size="14.00" fill="#666666">[bigint]</text>
</g>
<!-- public.category_package&#45;&gt;public.categories -->
<g id="edge8" class="edge">
<title>public.category_package:category_id&#45;&gt;public.categories:id</title>
<path fill="none" stroke="black" d="M2556.71,-484.88C2603.75,-461.5 2625.38,-280.15 2676.18,-280.15"/>
<polygon fill="black" stroke="black" points="2556.64,-484.89 2545.86,-482.9 2551.46,-486.16 2547.25,-487.19 2547.25,-487.19 2547.25,-487.19 2551.46,-486.16 2548,-491.64 2556.64,-484.89"/>
</g>
<!-- public.attune_departments -->
<g id="node8" class="node">
<title>public.attune_departments</title>
<polygon fill="#efefef" stroke="none" points="1134.19,-91.35 1134.19,-126.95 1463.12,-126.95 1463.12,-91.35 1134.19,-91.35"/>
<polygon fill="none" stroke="black" points="1134.19,-91.35 1134.19,-126.95 1463.12,-126.95 1463.12,-91.35 1134.19,-91.35"/>
<text text-anchor="start" x="1141.19" y="-104.75" font-family="Arial Bold" font-size="18.00">public.attune_departments</text>
<text text-anchor="start" x="1331.63" y="-104.75" font-family="Arial" font-size="14.00">    </text>
<text text-anchor="start" x="1362.75" y="-104.75" font-family="Arial" font-size="14.00" fill="#666666">[BASE TABLE]</text>
<polygon fill="none" stroke="black" points="1134.19,-60.55 1134.19,-91.35 1463.12,-91.35 1463.12,-60.55 1134.19,-60.55"/>
<text text-anchor="start" x="1141.19" y="-72.75" font-family="Arial" font-size="14.00">id </text>
<text text-anchor="start" x="1155.97" y="-72.75" font-family="Arial" font-size="14.00" fill="#666666">[bigint]</text>
</g>
<!-- public.packages&#45;&gt;public.attune_departments -->
<g id="edge7" class="edge">
<title>public.packages:attune_department_id&#45;&gt;public.attune_departments:id</title>
<path fill="none" stroke="black" d="M1299.27,-238.17C1309.77,-157.01 1452.28,-248.24 1506.32,-170.15 1534.04,-130.09 1540.68,-95.07 1506.32,-60.55 1441.21,4.87 1298.65,32.75 1298.65,-59.55"/>
<polygon fill="black" stroke="black" points="1299.27,-238.03 1294.18,-247.74 1298.95,-243.36 1298.69,-247.68 1298.69,-247.68 1298.69,-247.68 1298.95,-243.36 1303.16,-248.28 1299.27,-238.03"/>
</g>
<!-- public.package_service -->
<g id="node3" class="node">
<title>public.package_service</title>
<polygon fill="#efefef" stroke="none" points="43.2,-533.55 43.2,-569.15 350.11,-569.15 350.11,-533.55 43.2,-533.55"/>
<polygon fill="none" stroke="black" points="43.2,-533.55 43.2,-569.15 350.11,-569.15 350.11,-533.55 43.2,-533.55"/>
<text text-anchor="start" x="50.2" y="-546.95" font-family="Arial Bold" font-size="18.00">public.package_service</text>
<text text-anchor="start" x="218.62" y="-546.95" font-family="Arial" font-size="14.00">    </text>
<text text-anchor="start" x="249.73" y="-546.95" font-family="Arial" font-size="14.00" fill="#666666">[BASE TABLE]</text>
<polygon fill="none" stroke="black" points="43.2,-502.75 43.2,-533.55 350.11,-533.55 350.11,-502.75 43.2,-502.75"/>
<text text-anchor="start" x="50.2" y="-514.95" font-family="Arial" font-size="14.00">package_id </text>
<text text-anchor="start" x="125.7" y="-514.95" font-family="Arial" font-size="14.00" fill="#666666">[bigint]</text>
<polygon fill="none" stroke="black" points="43.2,-471.95 43.2,-502.75 350.11,-502.75 350.11,-471.95 43.2,-471.95"/>
<text text-anchor="start" x="50.2" y="-484.15" font-family="Arial" font-size="14.00">service_id </text>
<text text-anchor="start" x="117.12" y="-484.15" font-family="Arial" font-size="14.00" fill="#666666">[bigint]</text>
</g>
<!-- public.package_service&#45;&gt;public.packages -->
<g id="edge2" class="edge">
<title>public.package_service:package_id&#45;&gt;public.packages:id</title>
<path fill="none" stroke="black" d="M361.13,-516.89C393.06,-507.69 367.39,-450.65 402.65,-425.75 544.05,-325.88 997.57,-295.55 1170.68,-295.55"/>
<polygon fill="black" stroke="black" points="361.36,-516.86 350.88,-513.64 356.07,-517.52 351.77,-518.06 351.77,-518.06 351.77,-518.06 356.07,-517.52 352,-522.57 361.36,-516.86"/>
</g>
<!-- public.package_service_group -->
<g id="node4" class="node">
<title>public.package_service_group</title>
<polygon fill="#efefef" stroke="none" points="454.7,-533.55 454.7,-569.15 812.6,-569.15 812.6,-533.55 454.7,-533.55"/>
<polygon fill="none" stroke="black" points="454.7,-533.55 454.7,-569.15 812.6,-569.15 812.6,-533.55 454.7,-533.55"/>
<text text-anchor="start" x="461.7" y="-546.95" font-family="Arial Bold" font-size="18.00">public.package_service_group</text>
<text text-anchor="start" x="681.11" y="-546.95" font-family="Arial" font-size="14.00">    </text>
<text text-anchor="start" x="712.23" y="-546.95" font-family="Arial" font-size="14.00" fill="#666666">[BASE TABLE]</text>
<polygon fill="none" stroke="black" points="454.7,-502.75 454.7,-533.55 812.6,-533.55 812.6,-502.75 454.7,-502.75"/>
<text text-anchor="start" x="461.7" y="-514.95" font-family="Arial" font-size="14.00">package_id </text>
<text text-anchor="start" x="537.21" y="-514.95" font-family="Arial" font-size="14.00" fill="#666666">[bigint]</text>
<polygon fill="none" stroke="black" points="454.7,-471.95 454.7,-502.75 812.6,-502.75 812.6,-471.95 454.7,-471.95"/>
<text text-anchor="start" x="461.7" y="-484.15" font-family="Arial" font-size="14.00">service_group_id </text>
<text text-anchor="start" x="572.21" y="-484.15" font-family="Arial" font-size="14.00" fill="#666666">[bigint]</text>
</g>
<!-- public.package_service_group&#45;&gt;public.packages -->
<g id="edge3" class="edge">
<title>public.package_service_group:package_id&#45;&gt;public.packages:id</title>
<path fill="none" stroke="black" d="M823.66,-516.97C855.92,-508.34 832.68,-454.6 864.65,-425.75 974.39,-326.72 1022.87,-295.55 1170.68,-295.55"/>
<polygon fill="black" stroke="black" points="823.87,-516.94 813.41,-513.64 818.57,-517.56 814.27,-518.07 814.27,-518.07 814.27,-518.07 818.57,-517.56 814.46,-522.58 823.87,-516.94"/>
</g>
<!-- public.checkup_package -->
<g id="node5" class="node">
<title>public.checkup_package</title>
<polygon fill="#efefef" stroke="none" points="916.7,-533.55 916.7,-569.15 1232.61,-569.15 1232.61,-533.55 916.7,-533.55"/>
<polygon fill="none" stroke="black" points="916.7,-533.55 916.7,-569.15 1232.61,-569.15 1232.61,-533.55 916.7,-533.55"/>
<text text-anchor="start" x="923.7" y="-546.95" font-family="Arial Bold" font-size="18.00">public.checkup_package</text>
<text text-anchor="start" x="1101.12" y="-546.95" font-family="Arial" font-size="14.00">    </text>
<text text-anchor="start" x="1132.23" y="-546.95" font-family="Arial" font-size="14.00" fill="#666666">[BASE TABLE]</text>
<polygon fill="none" stroke="black" points="916.7,-502.75 916.7,-533.55 1232.61,-533.55 1232.61,-502.75 916.7,-502.75"/>
<text text-anchor="start" x="923.7" y="-514.95" font-family="Arial" font-size="14.00">checkup_id </text>
<text text-anchor="start" x="998.42" y="-514.95" font-family="Arial" font-size="14.00" fill="#666666">[bigint]</text>
<polygon fill="none" stroke="black" points="916.7,-471.95 916.7,-502.75 1232.61,-502.75 1232.61,-471.95 916.7,-471.95"/>
<text text-anchor="start" x="923.7" y="-484.15" font-family="Arial" font-size="14.00">package_id </text>
<text text-anchor="start" x="999.2" y="-484.15" font-family="Arial" font-size="14.00" fill="#666666">[bigint]</text>
</g>
<!-- public.checkup_package&#45;&gt;public.packages -->
<g id="edge4" class="edge">
<title>public.checkup_package:package_id&#45;&gt;public.packages:id</title>
<path fill="none" stroke="black" d="M1243.35,-484.67C1254.99,-475.93 1243.22,-447.76 1232.61,-428.75 1216.93,-400.68 1187.26,-417.87 1171.68,-389.75 1151.39,-353.12 1128.81,-295.55 1170.68,-295.55"/>
<polygon fill="black" stroke="black" points="1243.57,-484.61 1232.73,-482.92 1238.43,-486.02 1234.25,-487.17 1234.25,-487.17 1234.25,-487.17 1238.43,-486.02 1235.12,-491.6 1243.57,-484.61"/>
</g>
<!-- public.company_order_package -->
<g id="node6" class="node">
<title>public.company_order_package</title>
<polygon fill="#efefef" stroke="none" points="1337.21,-533.55 1337.21,-569.15 1706.1,-569.15 1706.1,-533.55 1337.21,-533.55"/>
<polygon fill="none" stroke="black" points="1337.21,-533.55 1337.21,-569.15 1706.1,-569.15 1706.1,-533.55 1337.21,-533.55"/>
<text text-anchor="start" x="1344.21" y="-546.95" font-family="Arial Bold" font-size="18.00">public.company_order_package</text>
<text text-anchor="start" x="1574.61" y="-546.95" font-family="Arial" font-size="14.00">    </text>
<text text-anchor="start" x="1605.73" y="-546.95" font-family="Arial" font-size="14.00" fill="#666666">[BASE TABLE]</text>
<polygon fill="none" stroke="black" points="1337.21,-502.75 1337.21,-533.55 1706.1,-533.55 1706.1,-502.75 1337.21,-502.75"/>
<text text-anchor="start" x="1344.21" y="-514.95" font-family="Arial" font-size="14.00">company_order_id </text>
<text text-anchor="start" x="1464.05" y="-514.95" font-family="Arial" font-size="14.00" fill="#666666">[bigint]</text>
<polygon fill="none" stroke="black" points="1337.21,-471.95 1337.21,-502.75 1706.1,-502.75 1706.1,-471.95 1337.21,-471.95"/>
<text text-anchor="start" x="1344.21" y="-484.15" font-family="Arial" font-size="14.00">package_id </text>
<text text-anchor="start" x="1419.71" y="-484.15" font-family="Arial" font-size="14.00" fill="#666666">[bigint]</text>
</g>
<!-- public.company_order_package&#45;&gt;public.packages -->
<g id="edge5" class="edge">
<title>public.company_order_package:package_id&#45;&gt;public.packages:id</title>
<path fill="none" stroke="black" d="M1326.35,-484.6C1314.35,-475.65 1325.16,-446.89 1337.21,-428.75 1360.97,-392.97 1401.98,-425.6 1425.62,-389.75 1448.67,-354.79 1468.49,-295.55 1426.62,-295.55"/>
<polygon fill="black" stroke="black" points="1326.25,-484.57 1334.67,-491.59 1331.39,-486 1335.56,-487.17 1335.56,-487.17 1335.56,-487.17 1331.39,-486 1337.09,-482.92 1326.25,-484.57"/>
</g>
<!-- public.package_test_set -->
<g id="node7" class="node">
<title>public.package_test_set</title>
<polygon fill="#efefef" stroke="none" points="1810.69,-533.55 1810.69,-569.15 2120.62,-569.15 2120.62,-533.55 1810.69,-533.55"/>
<polygon fill="none" stroke="black" points="1810.69,-533.55 1810.69,-569.15 2120.62,-569.15 2120.62,-533.55 1810.69,-533.55"/>
<text text-anchor="start" x="1817.69" y="-546.95" font-family="Arial Bold" font-size="18.00">public.package_test_set</text>
<text text-anchor="start" x="1989.13" y="-546.95" font-family="Arial" font-size="14.00">    </text>
<text text-anchor="start" x="2020.24" y="-546.95" font-family="Arial" font-size="14.00" fill="#666666">[BASE TABLE]</text>
<polygon fill="none" stroke="black" points="1810.69,-502.75 1810.69,-533.55 2120.62,-533.55 2120.62,-502.75 1810.69,-502.75"/>
<text text-anchor="start" x="1817.69" y="-514.95" font-family="Arial" font-size="14.00">test_set_id </text>
<text text-anchor="start" x="1889.29" y="-514.95" font-family="Arial" font-size="14.00" fill="#666666">[bigint]</text>
<polygon fill="none" stroke="black" points="1810.69,-471.95 1810.69,-502.75 2120.62,-502.75 2120.62,-471.95 1810.69,-471.95"/>
<text text-anchor="start" x="1817.69" y="-484.15" font-family="Arial" font-size="14.00">package_id </text>
<text text-anchor="start" x="1893.19" y="-484.15" font-family="Arial" font-size="14.00" fill="#666666">[bigint]</text>
</g>
<!-- public.package_test_set&#45;&gt;public.packages -->
<g id="edge6" class="edge">
<title>public.package_test_set:package_id&#45;&gt;public.packages:id</title>
<path fill="none" stroke="black" d="M1799.36,-485.87C1776.61,-478.37 1784.19,-444.23 1758.65,-425.75 1630.23,-332.83 1585.13,-295.55 1426.62,-295.55"/>
<polygon fill="black" stroke="black" points="1799.46,-485.88 1808.72,-491.75 1804.74,-486.64 1809.03,-487.25 1809.03,-487.25 1809.03,-487.25 1804.74,-486.64 1810,-482.84 1799.46,-485.88"/>
</g>
<!-- public.category_service -->
<g id="node10" class="node">
<title>public.category_service</title>
<polygon fill="#efefef" stroke="none" points="2652.7,-533.55 2652.7,-569.15 2962.61,-569.15 2962.61,-533.55 2652.7,-533.55"/>
<polygon fill="none" stroke="black" points="2652.7,-533.55 2652.7,-569.15 2962.61,-569.15 2962.61,-533.55 2652.7,-533.55"/>
<text text-anchor="start" x="2659.7" y="-546.95" font-family="Arial Bold" font-size="18.00">public.category_service</text>
<text text-anchor="start" x="2831.12" y="-546.95" font-family="Arial" font-size="14.00">    </text>
<text text-anchor="start" x="2862.24" y="-546.95" font-family="Arial" font-size="14.00" fill="#666666">[BASE TABLE]</text>
<polygon fill="none" stroke="black" points="2652.7,-502.75 2652.7,-533.55 2962.61,-533.55 2962.61,-502.75 2652.7,-502.75"/>
<text text-anchor="start" x="2659.7" y="-514.95" font-family="Arial" font-size="14.00">service_id </text>
<text text-anchor="start" x="2726.61" y="-514.95" font-family="Arial" font-size="14.00" fill="#666666">[bigint]</text>
<polygon fill="none" stroke="black" points="2652.7,-471.95 2652.7,-502.75 2962.61,-502.75 2962.61,-471.95 2652.7,-471.95"/>
<text text-anchor="start" x="2659.7" y="-484.15" font-family="Arial" font-size="14.00">category_id </text>
<text text-anchor="start" x="2735.97" y="-484.15" font-family="Arial" font-size="14.00" fill="#666666">[integer]</text>
</g>
<!-- public.category_service&#45;&gt;public.categories -->
<g id="edge9" class="edge">
<title>public.category_service:category_id&#45;&gt;public.categories:id</title>
<path fill="none" stroke="black" d="M2808.29,-460.85C2818.08,-387.95 2938.39,-447.36 2981.32,-374.35 3006.01,-332.36 3015.67,-299.29 2981.32,-264.75 2926.9,-210.01 2807.65,-186.56 2807.65,-263.75"/>
<polygon fill="black" stroke="black" points="2808.3,-460.63 2803.18,-470.33 2807.97,-465.96 2807.69,-470.28 2807.69,-470.28 2807.69,-470.28 2807.97,-465.96 2812.16,-470.9 2808.3,-460.63"/>
</g>
<!-- public.category_service_group -->
<g id="node11" class="node">
<title>public.category_service_group</title>
<polygon fill="#efefef" stroke="none" points="3067.2,-533.55 3067.2,-569.15 3428.11,-569.15 3428.11,-533.55 3067.2,-533.55"/>
<polygon fill="none" stroke="black" points="3067.2,-533.55 3067.2,-569.15 3428.11,-569.15 3428.11,-533.55 3067.2,-533.55"/>
<text text-anchor="start" x="3074.2" y="-546.95" font-family="Arial Bold" font-size="18.00">public.category_service_group</text>
<text text-anchor="start" x="3296.62" y="-546.95" font-family="Arial" font-size="14.00">    </text>
<text text-anchor="start" x="3327.73" y="-546.95" font-family="Arial" font-size="14.00" fill="#666666">[BASE TABLE]</text>
<polygon fill="none" stroke="black" points="3067.2,-502.75 3067.2,-533.55 3428.11,-533.55 3428.11,-502.75 3067.2,-502.75"/>
<text text-anchor="start" x="3074.2" y="-514.95" font-family="Arial" font-size="14.00">service_group_id </text>
<text text-anchor="start" x="3184.71" y="-514.95" font-family="Arial" font-size="14.00" fill="#666666">[integer]</text>
<polygon fill="none" stroke="black" points="3067.2,-471.95 3067.2,-502.75 3428.11,-502.75 3428.11,-471.95 3067.2,-471.95"/>
<text text-anchor="start" x="3074.2" y="-484.15" font-family="Arial" font-size="14.00">category_id </text>
<text text-anchor="start" x="3150.47" y="-484.15" font-family="Arial" font-size="14.00" fill="#666666">[integer]</text>
</g>
<!-- public.category_service_group&#45;&gt;public.categories -->
<g id="edge10" class="edge">
<title>public.category_service_group:category_id&#45;&gt;public.categories:id</title>
<path fill="none" stroke="black" d="M3056.17,-484.88C3009.58,-461.5 2989.65,-280.15 2939.12,-280.15"/>
<polygon fill="black" stroke="black" points="3056.17,-484.87 3064.8,-491.64 3061.35,-486.15 3065.55,-487.19 3065.55,-487.19 3065.55,-487.19 3061.35,-486.15 3066.95,-482.9 3056.17,-484.87"/>
</g>
</g>
</svg>
