<?xml version="1.0" encoding="UTF-8" standalone="no"?>
<!DOCTYPE svg PUBLIC "-//W3C//DTD SVG 1.1//EN"
 "http://www.w3.org/Graphics/SVG/1.1/DTD/svg11.dtd">
<!-- Generated by graphviz version 12.1.2 (20240928.0832)
 -->
<!-- Title: public.package_service Pages: 1 -->
<svg width="6590pt" height="708pt"
 viewBox="0.00 0.00 6589.81 708.16" xmlns="http://www.w3.org/2000/svg" xmlns:xlink="http://www.w3.org/1999/xlink">
<g id="graph0" class="graph" transform="scale(1 1) rotate(0) translate(4 704.16)">
<title>public.package_service</title>
<polygon fill="white" stroke="none" points="-4,4 -4,-704.16 6585.81,-704.16 6585.81,4 -4,4"/>
<!-- public.package_service -->
<g id="node1" class="node">
<title>public.package_service</title>
<polygon fill="#efefef" stroke="none" points="4036.2,-590.56 4036.2,-626.16 4343.11,-626.16 4343.11,-590.56 4036.2,-590.56"/>
<polygon fill="none" stroke="black" points="4036.2,-590.56 4036.2,-626.16 4343.11,-626.16 4343.11,-590.56 4036.2,-590.56"/>
<text text-anchor="start" x="4043.2" y="-603.96" font-family="Arial Bold" font-size="18.00">public.package_service</text>
<text text-anchor="start" x="4211.62" y="-603.96" font-family="Arial" font-size="14.00">    </text>
<text text-anchor="start" x="4242.74" y="-603.96" font-family="Arial" font-size="14.00" fill="#666666">[BASE TABLE]</text>
<polygon fill="none" stroke="black" points="4036.2,-559.76 4036.2,-590.56 4343.11,-590.56 4343.11,-559.76 4036.2,-559.76"/>
<text text-anchor="start" x="4043.2" y="-571.96" font-family="Arial" font-size="14.00">package_id </text>
<text text-anchor="start" x="4118.71" y="-571.96" font-family="Arial" font-size="14.00" fill="#666666">[bigint]</text>
<polygon fill="none" stroke="black" points="4036.2,-528.96 4036.2,-559.76 4343.11,-559.76 4343.11,-528.96 4036.2,-528.96"/>
<text text-anchor="start" x="4043.2" y="-541.16" font-family="Arial" font-size="14.00">service_id </text>
<text text-anchor="start" x="4110.12" y="-541.16" font-family="Arial" font-size="14.00" fill="#666666">[bigint]</text>
<polygon fill="none" stroke="black" stroke-width="3" points="4034.7,-527.46 4034.7,-627.66 4344.61,-627.66 4344.61,-527.46 4034.7,-527.46"/>
</g>
<!-- public.packages -->
<g id="node2" class="node">
<title>public.packages</title>
<polygon fill="#efefef" stroke="none" points="4943.69,-324.76 4943.69,-360.36 5197.63,-360.36 5197.63,-324.76 4943.69,-324.76"/>
<polygon fill="none" stroke="black" points="4943.69,-324.76 4943.69,-360.36 5197.63,-360.36 5197.63,-324.76 4943.69,-324.76"/>
<text text-anchor="start" x="4950.69" y="-338.16" font-family="Arial Bold" font-size="18.00">public.packages</text>
<text text-anchor="start" x="5066.14" y="-338.16" font-family="Arial" font-size="14.00">    </text>
<text text-anchor="start" x="5097.26" y="-338.16" font-family="Arial" font-size="14.00" fill="#666666">[BASE TABLE]</text>
<polygon fill="none" stroke="black" points="4943.69,-293.96 4943.69,-324.76 5197.63,-324.76 5197.63,-293.96 4943.69,-293.96"/>
<text text-anchor="start" x="4950.69" y="-306.16" font-family="Arial" font-size="14.00">id </text>
<text text-anchor="start" x="4965.47" y="-306.16" font-family="Arial" font-size="14.00" fill="#666666">[bigint]</text>
<polygon fill="none" stroke="black" points="4943.69,-263.16 4943.69,-293.96 5197.63,-293.96 5197.63,-263.16 4943.69,-263.16"/>
<text text-anchor="start" x="4950.69" y="-275.36" font-family="Arial" font-size="14.00">attune_department_id </text>
<text text-anchor="start" x="5090.79" y="-275.36" font-family="Arial" font-size="14.00" fill="#666666">[bigint]</text>
</g>
<!-- public.package_service&#45;&gt;public.packages -->
<g id="edge1" class="edge">
<title>public.package_service:package_id&#45;&gt;public.packages:id</title>
<path fill="none" stroke="black" d="M4354.43,-574.11C4396.7,-564.43 4356.88,-490.38 4398.66,-454.96 4494.12,-374.04 4817.54,-309.36 4942.69,-309.36"/>
<polygon fill="black" stroke="black" points="4354.39,-574.11 4343.99,-570.65 4349.08,-574.65 4344.77,-575.09 4344.77,-575.09 4344.77,-575.09 4349.08,-574.65 4344.9,-579.6 4354.39,-574.11"/>
</g>
<!-- public.services -->
<g id="node9" class="node">
<title>public.services</title>
<polygon fill="#efefef" stroke="none" points="2194.68,-340.16 2194.68,-375.76 2440.63,-375.76 2440.63,-340.16 2194.68,-340.16"/>
<polygon fill="none" stroke="black" points="2194.68,-340.16 2194.68,-375.76 2440.63,-375.76 2440.63,-340.16 2194.68,-340.16"/>
<text text-anchor="start" x="2201.68" y="-353.56" font-family="Arial Bold" font-size="18.00">public.services</text>
<text text-anchor="start" x="2309.14" y="-353.56" font-family="Arial" font-size="14.00">    </text>
<text text-anchor="start" x="2340.26" y="-353.56" font-family="Arial" font-size="14.00" fill="#666666">[BASE TABLE]</text>
<polygon fill="none" stroke="black" points="2194.68,-309.36 2194.68,-340.16 2440.63,-340.16 2440.63,-309.36 2194.68,-309.36"/>
<text text-anchor="start" x="2201.68" y="-321.56" font-family="Arial" font-size="14.00">id </text>
<text text-anchor="start" x="2216.47" y="-321.56" font-family="Arial" font-size="14.00" fill="#666666">[bigint]</text>
<polygon fill="none" stroke="black" points="2194.68,-278.56 2194.68,-309.36 2440.63,-309.36 2440.63,-278.56 2194.68,-278.56"/>
<text text-anchor="start" x="2201.68" y="-290.76" font-family="Arial" font-size="14.00">attune_department_id </text>
<text text-anchor="start" x="2341.78" y="-290.76" font-family="Arial" font-size="14.00" fill="#666666">[bigint]</text>
<polygon fill="none" stroke="black" points="2194.68,-247.76 2194.68,-278.56 2440.63,-278.56 2440.63,-247.76 2194.68,-247.76"/>
<text text-anchor="start" x="2201.68" y="-259.96" font-family="Arial" font-size="14.00">simple_cate_id </text>
<text text-anchor="start" x="2298.96" y="-259.96" font-family="Arial" font-size="14.00" fill="#666666">[bigint]</text>
</g>
<!-- public.package_service&#45;&gt;public.services -->
<g id="edge8" class="edge">
<title>public.package_service:service_id&#45;&gt;public.services:id</title>
<path fill="none" stroke="black" d="M4025.24,-543.11C3993.36,-533.98 4017,-477.43 3980.66,-454.96 3834.68,-364.72 2613.25,-324.76 2441.63,-324.76"/>
<polygon fill="black" stroke="black" points="4024.95,-543.07 4034.31,-548.78 4030.24,-543.74 4034.54,-544.28 4034.54,-544.28 4034.54,-544.28 4030.24,-543.74 4035.43,-539.85 4024.95,-543.07"/>
</g>
<!-- public.attune_departments -->
<g id="node8" class="node">
<title>public.attune_departments</title>
<polygon fill="#efefef" stroke="none" points="3744.19,-89.76 3744.19,-125.36 4073.12,-125.36 4073.12,-89.76 3744.19,-89.76"/>
<polygon fill="none" stroke="black" points="3744.19,-89.76 3744.19,-125.36 4073.12,-125.36 4073.12,-89.76 3744.19,-89.76"/>
<text text-anchor="start" x="3751.19" y="-103.16" font-family="Arial Bold" font-size="18.00">public.attune_departments</text>
<text text-anchor="start" x="3941.63" y="-103.16" font-family="Arial" font-size="14.00">    </text>
<text text-anchor="start" x="3972.75" y="-103.16" font-family="Arial" font-size="14.00" fill="#666666">[BASE TABLE]</text>
<polygon fill="none" stroke="black" points="3744.19,-58.96 3744.19,-89.76 4073.12,-89.76 4073.12,-58.96 3744.19,-58.96"/>
<text text-anchor="start" x="3751.19" y="-71.16" font-family="Arial" font-size="14.00">id </text>
<text text-anchor="start" x="3765.98" y="-71.16" font-family="Arial" font-size="14.00" fill="#666666">[bigint]</text>
</g>
<!-- public.packages&#45;&gt;public.attune_departments -->
<g id="edge7" class="edge">
<title>public.packages:attune_department_id&#45;&gt;public.attune_departments:id</title>
<path fill="none" stroke="black" d="M4932.3,-278.51C4544.78,-274.99 4467.19,-74.36 4074.12,-74.36"/>
<polygon fill="black" stroke="black" points="4932.35,-278.51 4942.33,-283.06 4937.69,-278.54 4942.02,-278.56 4942.02,-278.56 4942.02,-278.56 4937.69,-278.54 4942.37,-274.06 4932.35,-278.51"/>
</g>
<!-- public.package_service_group -->
<g id="node3" class="node">
<title>public.package_service_group</title>
<polygon fill="#efefef" stroke="none" points="4450.71,-590.56 4450.71,-626.16 4808.61,-626.16 4808.61,-590.56 4450.71,-590.56"/>
<polygon fill="none" stroke="black" points="4450.71,-590.56 4450.71,-626.16 4808.61,-626.16 4808.61,-590.56 4450.71,-590.56"/>
<text text-anchor="start" x="4457.71" y="-603.96" font-family="Arial Bold" font-size="18.00">public.package_service_group</text>
<text text-anchor="start" x="4677.12" y="-603.96" font-family="Arial" font-size="14.00">    </text>
<text text-anchor="start" x="4708.23" y="-603.96" font-family="Arial" font-size="14.00" fill="#666666">[BASE TABLE]</text>
<polygon fill="none" stroke="black" points="4450.71,-559.76 4450.71,-590.56 4808.61,-590.56 4808.61,-559.76 4450.71,-559.76"/>
<text text-anchor="start" x="4457.71" y="-571.96" font-family="Arial" font-size="14.00">package_id </text>
<text text-anchor="start" x="4533.21" y="-571.96" font-family="Arial" font-size="14.00" fill="#666666">[bigint]</text>
<polygon fill="none" stroke="black" points="4450.71,-528.96 4450.71,-559.76 4808.61,-559.76 4808.61,-528.96 4450.71,-528.96"/>
<text text-anchor="start" x="4457.71" y="-541.16" font-family="Arial" font-size="14.00">service_group_id </text>
<text text-anchor="start" x="4568.22" y="-541.16" font-family="Arial" font-size="14.00" fill="#666666">[bigint]</text>
</g>
<!-- public.package_service_group&#45;&gt;public.packages -->
<g id="edge2" class="edge">
<title>public.package_service_group:package_id&#45;&gt;public.packages:id</title>
<path fill="none" stroke="black" d="M4819.74,-574.33C4863.68,-566.44 4836.68,-503.68 4860.66,-454.96 4893.45,-388.32 4868.41,-309.36 4942.69,-309.36"/>
<polygon fill="black" stroke="black" points="4819.91,-574.32 4809.57,-570.65 4814.59,-574.75 4810.27,-575.11 4810.27,-575.11 4810.27,-575.11 4814.59,-574.75 4810.31,-579.62 4819.91,-574.32"/>
</g>
<!-- public.checkup_package -->
<g id="node4" class="node">
<title>public.checkup_package</title>
<polygon fill="#efefef" stroke="none" points="4912.7,-590.56 4912.7,-626.16 5228.61,-626.16 5228.61,-590.56 4912.7,-590.56"/>
<polygon fill="none" stroke="black" points="4912.7,-590.56 4912.7,-626.16 5228.61,-626.16 5228.61,-590.56 4912.7,-590.56"/>
<text text-anchor="start" x="4919.7" y="-603.96" font-family="Arial Bold" font-size="18.00">public.checkup_package</text>
<text text-anchor="start" x="5097.12" y="-603.96" font-family="Arial" font-size="14.00">    </text>
<text text-anchor="start" x="5128.24" y="-603.96" font-family="Arial" font-size="14.00" fill="#666666">[BASE TABLE]</text>
<polygon fill="none" stroke="black" points="4912.7,-559.76 4912.7,-590.56 5228.61,-590.56 5228.61,-559.76 4912.7,-559.76"/>
<text text-anchor="start" x="4919.7" y="-571.96" font-family="Arial" font-size="14.00">checkup_id </text>
<text text-anchor="start" x="4994.42" y="-571.96" font-family="Arial" font-size="14.00" fill="#666666">[bigint]</text>
<polygon fill="none" stroke="black" points="4912.7,-528.96 4912.7,-559.76 5228.61,-559.76 5228.61,-528.96 4912.7,-528.96"/>
<text text-anchor="start" x="4919.7" y="-541.16" font-family="Arial" font-size="14.00">package_id </text>
<text text-anchor="start" x="4995.21" y="-541.16" font-family="Arial" font-size="14.00" fill="#666666">[bigint]</text>
</g>
<!-- public.checkup_package&#45;&gt;public.packages -->
<g id="edge3" class="edge">
<title>public.checkup_package:package_id&#45;&gt;public.packages:id</title>
<path fill="none" stroke="black" d="M5071.22,-517.94C5079.15,-451.21 5168.03,-472.97 5197.63,-403.56 5214.05,-365.05 5240.5,-309.36 5198.63,-309.36"/>
<polygon fill="black" stroke="black" points="5071.24,-517.64 5066.18,-527.37 5070.94,-522.97 5070.69,-527.29 5070.69,-527.29 5070.69,-527.29 5070.94,-522.97 5075.17,-527.88 5071.24,-517.64"/>
</g>
<!-- public.company_order_package -->
<g id="node5" class="node">
<title>public.company_order_package</title>
<polygon fill="#efefef" stroke="none" points="5333.21,-590.56 5333.21,-626.16 5702.1,-626.16 5702.1,-590.56 5333.21,-590.56"/>
<polygon fill="none" stroke="black" points="5333.21,-590.56 5333.21,-626.16 5702.1,-626.16 5702.1,-590.56 5333.21,-590.56"/>
<text text-anchor="start" x="5340.21" y="-603.96" font-family="Arial Bold" font-size="18.00">public.company_order_package</text>
<text text-anchor="start" x="5570.61" y="-603.96" font-family="Arial" font-size="14.00">    </text>
<text text-anchor="start" x="5601.73" y="-603.96" font-family="Arial" font-size="14.00" fill="#666666">[BASE TABLE]</text>
<polygon fill="none" stroke="black" points="5333.21,-559.76 5333.21,-590.56 5702.1,-590.56 5702.1,-559.76 5333.21,-559.76"/>
<text text-anchor="start" x="5340.21" y="-571.96" font-family="Arial" font-size="14.00">company_order_id </text>
<text text-anchor="start" x="5460.06" y="-571.96" font-family="Arial" font-size="14.00" fill="#666666">[bigint]</text>
<polygon fill="none" stroke="black" points="5333.21,-528.96 5333.21,-559.76 5702.1,-559.76 5702.1,-528.96 5333.21,-528.96"/>
<text text-anchor="start" x="5340.21" y="-541.16" font-family="Arial" font-size="14.00">package_id </text>
<text text-anchor="start" x="5415.71" y="-541.16" font-family="Arial" font-size="14.00" fill="#666666">[bigint]</text>
</g>
<!-- public.company_order_package&#45;&gt;public.packages -->
<g id="edge4" class="edge">
<title>public.company_order_package:package_id&#45;&gt;public.packages:id</title>
<path fill="none" stroke="black" d="M5326.41,-535.72C5301.02,-493.32 5201.95,-309.36 5198.63,-309.36"/>
<polygon fill="black" stroke="black" points="5326.45,-535.78 5328.29,-546.59 5329.42,-540.21 5331.84,-543.8 5331.84,-543.8 5331.84,-543.8 5329.42,-540.21 5335.76,-541.58 5326.45,-535.78"/>
</g>
<!-- public.package_test_set -->
<g id="node6" class="node">
<title>public.package_test_set</title>
<polygon fill="#efefef" stroke="none" points="5806.69,-590.56 5806.69,-626.16 6116.62,-626.16 6116.62,-590.56 5806.69,-590.56"/>
<polygon fill="none" stroke="black" points="5806.69,-590.56 5806.69,-626.16 6116.62,-626.16 6116.62,-590.56 5806.69,-590.56"/>
<text text-anchor="start" x="5813.69" y="-603.96" font-family="Arial Bold" font-size="18.00">public.package_test_set</text>
<text text-anchor="start" x="5985.13" y="-603.96" font-family="Arial" font-size="14.00">    </text>
<text text-anchor="start" x="6016.25" y="-603.96" font-family="Arial" font-size="14.00" fill="#666666">[BASE TABLE]</text>
<polygon fill="none" stroke="black" points="5806.69,-559.76 5806.69,-590.56 6116.62,-590.56 6116.62,-559.76 5806.69,-559.76"/>
<text text-anchor="start" x="5813.69" y="-571.96" font-family="Arial" font-size="14.00">test_set_id </text>
<text text-anchor="start" x="5885.29" y="-571.96" font-family="Arial" font-size="14.00" fill="#666666">[bigint]</text>
<polygon fill="none" stroke="black" points="5806.69,-528.96 5806.69,-559.76 6116.62,-559.76 6116.62,-528.96 5806.69,-528.96"/>
<text text-anchor="start" x="5813.69" y="-541.16" font-family="Arial" font-size="14.00">package_id </text>
<text text-anchor="start" x="5889.2" y="-541.16" font-family="Arial" font-size="14.00" fill="#666666">[bigint]</text>
</g>
<!-- public.package_test_set&#45;&gt;public.packages -->
<g id="edge5" class="edge">
<title>public.package_test_set:package_id&#45;&gt;public.packages:id</title>
<path fill="none" stroke="black" d="M5795.51,-543.06C5764.78,-534.03 5787.85,-480.4 5754.66,-454.96 5653.29,-377.25 5326.36,-309.36 5198.63,-309.36"/>
<polygon fill="black" stroke="black" points="5795.44,-543.05 5804.79,-548.78 5800.73,-543.73 5805.03,-544.27 5805.03,-544.27 5805.03,-544.27 5800.73,-543.73 5805.93,-539.85 5795.44,-543.05"/>
</g>
<!-- public.category_package -->
<g id="node7" class="node">
<title>public.category_package</title>
<polygon fill="#efefef" stroke="none" points="6220.71,-590.56 6220.71,-626.16 6538.61,-626.16 6538.61,-590.56 6220.71,-590.56"/>
<polygon fill="none" stroke="black" points="6220.71,-590.56 6220.71,-626.16 6538.61,-626.16 6538.61,-590.56 6220.71,-590.56"/>
<text text-anchor="start" x="6227.71" y="-603.96" font-family="Arial Bold" font-size="18.00">public.category_package</text>
<text text-anchor="start" x="6407.12" y="-603.96" font-family="Arial" font-size="14.00">    </text>
<text text-anchor="start" x="6438.23" y="-603.96" font-family="Arial" font-size="14.00" fill="#666666">[BASE TABLE]</text>
<polygon fill="none" stroke="black" points="6220.71,-559.76 6220.71,-590.56 6538.61,-590.56 6538.61,-559.76 6220.71,-559.76"/>
<text text-anchor="start" x="6227.71" y="-571.96" font-family="Arial" font-size="14.00">package_id </text>
<text text-anchor="start" x="6303.21" y="-571.96" font-family="Arial" font-size="14.00" fill="#666666">[integer]</text>
<polygon fill="none" stroke="black" points="6220.71,-528.96 6220.71,-559.76 6538.61,-559.76 6538.61,-528.96 6220.71,-528.96"/>
<text text-anchor="start" x="6227.71" y="-541.16" font-family="Arial" font-size="14.00">category_id </text>
<text text-anchor="start" x="6303.97" y="-541.16" font-family="Arial" font-size="14.00" fill="#666666">[integer]</text>
</g>
<!-- public.category_package&#45;&gt;public.packages -->
<g id="edge6" class="edge">
<title>public.category_package:package_id&#45;&gt;public.packages:id</title>
<path fill="none" stroke="black" d="M6209.55,-574.08C6168.25,-564.13 6211.49,-488.14 6168.66,-454.96 5996.33,-321.47 5416.6,-309.36 5198.63,-309.36"/>
<polygon fill="black" stroke="black" points="6209.43,-574.07 6218.9,-579.6 6214.73,-574.63 6219.04,-575.09 6219.04,-575.09 6219.04,-575.09 6214.73,-574.63 6219.85,-570.65 6209.43,-574.07"/>
</g>
<!-- public.services&#45;&gt;public.attune_departments -->
<g id="edge18" class="edge">
<title>public.services:attune_department_id&#45;&gt;public.attune_departments:id</title>
<path fill="none" stroke="black" d="M2451.9,-293.94C3029.8,-291.39 3159.98,-74.36 3743.19,-74.36"/>
<polygon fill="black" stroke="black" points="2451.97,-293.94 2441.96,-289.46 2446.63,-293.95 2442.3,-293.96 2442.3,-293.96 2442.3,-293.96 2446.63,-293.95 2441.98,-298.46 2451.97,-293.94"/>
</g>
<!-- public.simple_categories -->
<g id="node19" class="node">
<title>public.simple_categories</title>
<polygon fill="#efefef" stroke="none" points="2158.69,-89.76 2158.69,-125.36 2476.62,-125.36 2476.62,-89.76 2158.69,-89.76"/>
<polygon fill="none" stroke="black" points="2158.69,-89.76 2158.69,-125.36 2476.62,-125.36 2476.62,-89.76 2158.69,-89.76"/>
<text text-anchor="start" x="2165.69" y="-103.16" font-family="Arial Bold" font-size="18.00">public.simple_categories</text>
<text text-anchor="start" x="2345.14" y="-103.16" font-family="Arial" font-size="14.00">    </text>
<text text-anchor="start" x="2376.25" y="-103.16" font-family="Arial" font-size="14.00" fill="#666666">[BASE TABLE]</text>
<polygon fill="none" stroke="black" points="2158.69,-58.96 2158.69,-89.76 2476.62,-89.76 2476.62,-58.96 2158.69,-58.96"/>
<text text-anchor="start" x="2165.69" y="-71.16" font-family="Arial" font-size="14.00">id </text>
<text text-anchor="start" x="2180.47" y="-71.16" font-family="Arial" font-size="14.00" fill="#666666">[bigint]</text>
</g>
<!-- public.services&#45;&gt;public.simple_categories -->
<g id="edge19" class="edge">
<title>public.services:simple_cate_id&#45;&gt;public.simple_categories:id</title>
<path fill="none" stroke="black" d="M2318.25,-236.82C2328.49,-157.42 2467.38,-245.08 2519.82,-168.56 2547.36,-128.38 2554.18,-93.49 2519.82,-58.96 2456.45,4.73 2317.66,31.89 2317.66,-57.96"/>
<polygon fill="black" stroke="black" points="2318.28,-236.44 2313.18,-246.16 2317.96,-241.77 2317.7,-246.09 2317.7,-246.09 2317.7,-246.09 2317.96,-241.77 2322.17,-246.7 2318.28,-236.44"/>
</g>
<!-- public.department_service -->
<g id="node10" class="node">
<title>public.department_service</title>
<polygon fill="#efefef" stroke="none" points="43.2,-590.56 43.2,-626.16 372.11,-626.16 372.11,-590.56 43.2,-590.56"/>
<polygon fill="none" stroke="black" points="43.2,-590.56 43.2,-626.16 372.11,-626.16 372.11,-590.56 43.2,-590.56"/>
<text text-anchor="start" x="50.2" y="-603.96" font-family="Arial Bold" font-size="18.00">public.department_service</text>
<text text-anchor="start" x="240.62" y="-603.96" font-family="Arial" font-size="14.00">    </text>
<text text-anchor="start" x="271.74" y="-603.96" font-family="Arial" font-size="14.00" fill="#666666">[BASE TABLE]</text>
<polygon fill="none" stroke="black" points="43.2,-559.76 43.2,-590.56 372.11,-590.56 372.11,-559.76 43.2,-559.76"/>
<text text-anchor="start" x="50.2" y="-571.96" font-family="Arial" font-size="14.00">department_id </text>
<text text-anchor="start" x="143.59" y="-571.96" font-family="Arial" font-size="14.00" fill="#666666">[bigint]</text>
<polygon fill="none" stroke="black" points="43.2,-528.96 43.2,-559.76 372.11,-559.76 372.11,-528.96 43.2,-528.96"/>
<text text-anchor="start" x="50.2" y="-541.16" font-family="Arial" font-size="14.00">service_id </text>
<text text-anchor="start" x="117.12" y="-541.16" font-family="Arial" font-size="14.00" fill="#666666">[bigint]</text>
</g>
<!-- public.department_service&#45;&gt;public.services -->
<g id="edge9" class="edge">
<title>public.department_service:service_id&#45;&gt;public.services:id</title>
<path fill="none" stroke="black" d="M383.28,-542.99C413.81,-533.49 389.15,-477.25 424.66,-454.96 591.58,-350.16 1996.59,-324.76 2193.68,-324.76"/>
<polygon fill="black" stroke="black" points="383.35,-542.98 372.84,-539.86 378.07,-543.69 373.78,-544.27 373.78,-544.27 373.78,-544.27 378.07,-543.69 374.05,-548.77 383.35,-542.98"/>
</g>
<!-- public.service_service_group -->
<g id="node11" class="node">
<title>public.service_service_group</title>
<polygon fill="#efefef" stroke="none" points="476.7,-590.56 476.7,-626.16 826.61,-626.16 826.61,-590.56 476.7,-590.56"/>
<polygon fill="none" stroke="black" points="476.7,-590.56 476.7,-626.16 826.61,-626.16 826.61,-590.56 476.7,-590.56"/>
<text text-anchor="start" x="483.7" y="-603.96" font-family="Arial Bold" font-size="18.00">public.service_service_group</text>
<text text-anchor="start" x="695.12" y="-603.96" font-family="Arial" font-size="14.00">    </text>
<text text-anchor="start" x="726.24" y="-603.96" font-family="Arial" font-size="14.00" fill="#666666">[BASE TABLE]</text>
<polygon fill="none" stroke="black" points="476.7,-559.76 476.7,-590.56 826.61,-590.56 826.61,-559.76 476.7,-559.76"/>
<text text-anchor="start" x="483.7" y="-571.96" font-family="Arial" font-size="14.00">service_id </text>
<text text-anchor="start" x="550.62" y="-571.96" font-family="Arial" font-size="14.00" fill="#666666">[bigint]</text>
<polygon fill="none" stroke="black" points="476.7,-528.96 476.7,-559.76 826.61,-559.76 826.61,-528.96 476.7,-528.96"/>
<text text-anchor="start" x="483.7" y="-541.16" font-family="Arial" font-size="14.00">service_group_id </text>
<text text-anchor="start" x="594.21" y="-541.16" font-family="Arial" font-size="14.00" fill="#666666">[bigint]</text>
</g>
<!-- public.service_service_group&#45;&gt;public.services -->
<g id="edge10" class="edge">
<title>public.service_service_group:service_id&#45;&gt;public.services:id</title>
<path fill="none" stroke="black" d="M837.76,-574.06C878.96,-563.99 835,-487.06 878.66,-454.96 996.96,-367.99 2046.85,-324.76 2193.68,-324.76"/>
<polygon fill="black" stroke="black" points="837.89,-574.05 827.46,-570.65 832.58,-574.62 828.28,-575.09 828.28,-575.09 828.28,-575.09 832.58,-574.62 828.43,-579.6 837.89,-574.05"/>
</g>
<!-- public.form_service -->
<g id="node12" class="node">
<title>public.form_service</title>
<polygon fill="#efefef" stroke="none" points="931.19,-590.56 931.19,-626.16 1214.13,-626.16 1214.13,-590.56 931.19,-590.56"/>
<polygon fill="none" stroke="black" points="931.19,-590.56 931.19,-626.16 1214.13,-626.16 1214.13,-590.56 931.19,-590.56"/>
<text text-anchor="start" x="938.19" y="-603.96" font-family="Arial Bold" font-size="18.00">public.form_service</text>
<text text-anchor="start" x="1082.64" y="-603.96" font-family="Arial" font-size="14.00">    </text>
<text text-anchor="start" x="1113.75" y="-603.96" font-family="Arial" font-size="14.00" fill="#666666">[BASE TABLE]</text>
<polygon fill="none" stroke="black" points="931.19,-559.76 931.19,-590.56 1214.13,-590.56 1214.13,-559.76 931.19,-559.76"/>
<text text-anchor="start" x="938.19" y="-571.96" font-family="Arial" font-size="14.00">form_id </text>
<text text-anchor="start" x="988.76" y="-571.96" font-family="Arial" font-size="14.00" fill="#666666">[bigint]</text>
<polygon fill="none" stroke="black" points="931.19,-528.96 931.19,-559.76 1214.13,-559.76 1214.13,-528.96 931.19,-528.96"/>
<text text-anchor="start" x="938.19" y="-541.16" font-family="Arial" font-size="14.00">service_id </text>
<text text-anchor="start" x="1005.1" y="-541.16" font-family="Arial" font-size="14.00" fill="#666666">[bigint]</text>
</g>
<!-- public.form_service&#45;&gt;public.services -->
<g id="edge11" class="edge">
<title>public.form_service:service_id&#45;&gt;public.services:id</title>
<path fill="none" stroke="black" d="M1225.31,-543.01C1255.95,-533.69 1231.91,-478.41 1266.66,-454.96 1439.08,-338.58 1985.65,-324.76 2193.68,-324.76"/>
<polygon fill="black" stroke="black" points="1225.37,-543 1214.87,-539.85 1220.08,-543.7 1215.79,-544.27 1215.79,-544.27 1215.79,-544.27 1220.08,-543.7 1216.05,-548.78 1225.37,-543"/>
</g>
<!-- public.checkup_service -->
<g id="node13" class="node">
<title>public.checkup_service</title>
<polygon fill="#efefef" stroke="none" points="1318.7,-590.56 1318.7,-626.16 1626.61,-626.16 1626.61,-590.56 1318.7,-590.56"/>
<polygon fill="none" stroke="black" points="1318.7,-590.56 1318.7,-626.16 1626.61,-626.16 1626.61,-590.56 1318.7,-590.56"/>
<text text-anchor="start" x="1325.7" y="-603.96" font-family="Arial Bold" font-size="18.00">public.checkup_service</text>
<text text-anchor="start" x="1495.13" y="-603.96" font-family="Arial" font-size="14.00">    </text>
<text text-anchor="start" x="1526.24" y="-603.96" font-family="Arial" font-size="14.00" fill="#666666">[BASE TABLE]</text>
<polygon fill="none" stroke="black" points="1318.7,-559.76 1318.7,-590.56 1626.61,-590.56 1626.61,-559.76 1318.7,-559.76"/>
<text text-anchor="start" x="1325.7" y="-571.96" font-family="Arial" font-size="14.00">checkup_id </text>
<text text-anchor="start" x="1400.42" y="-571.96" font-family="Arial" font-size="14.00" fill="#666666">[bigint]</text>
<polygon fill="none" stroke="black" points="1318.7,-528.96 1318.7,-559.76 1626.61,-559.76 1626.61,-528.96 1318.7,-528.96"/>
<text text-anchor="start" x="1325.7" y="-541.16" font-family="Arial" font-size="14.00">service_id </text>
<text text-anchor="start" x="1392.62" y="-541.16" font-family="Arial" font-size="14.00" fill="#666666">[bigint]</text>
</g>
<!-- public.checkup_service&#45;&gt;public.services -->
<g id="edge12" class="edge">
<title>public.checkup_service:service_id&#45;&gt;public.services:id</title>
<path fill="none" stroke="black" d="M1637.8,-543.05C1668.51,-534 1645.36,-480.26 1678.66,-454.96 1772.65,-383.53 2075.63,-324.76 2193.68,-324.76"/>
<polygon fill="black" stroke="black" points="1637.87,-543.04 1627.37,-539.85 1632.57,-543.72 1628.28,-544.27 1628.28,-544.27 1628.28,-544.27 1632.57,-543.72 1628.52,-548.78 1637.87,-543.04"/>
</g>
<!-- public.service_test_set -->
<g id="node14" class="node">
<title>public.service_test_set</title>
<polygon fill="#efefef" stroke="none" points="1730.69,-590.56 1730.69,-626.16 2032.63,-626.16 2032.63,-590.56 1730.69,-590.56"/>
<polygon fill="none" stroke="black" points="1730.69,-590.56 1730.69,-626.16 2032.63,-626.16 2032.63,-590.56 1730.69,-590.56"/>
<text text-anchor="start" x="1737.69" y="-603.96" font-family="Arial Bold" font-size="18.00">public.service_test_set</text>
<text text-anchor="start" x="1901.14" y="-603.96" font-family="Arial" font-size="14.00">    </text>
<text text-anchor="start" x="1932.25" y="-603.96" font-family="Arial" font-size="14.00" fill="#666666">[BASE TABLE]</text>
<polygon fill="none" stroke="black" points="1730.69,-559.76 1730.69,-590.56 2032.63,-590.56 2032.63,-559.76 1730.69,-559.76"/>
<text text-anchor="start" x="1737.69" y="-571.96" font-family="Arial" font-size="14.00">service_id </text>
<text text-anchor="start" x="1804.6" y="-571.96" font-family="Arial" font-size="14.00" fill="#666666">[bigint]</text>
<polygon fill="none" stroke="black" points="1730.69,-528.96 1730.69,-559.76 2032.63,-559.76 2032.63,-528.96 1730.69,-528.96"/>
<text text-anchor="start" x="1737.69" y="-541.16" font-family="Arial" font-size="14.00">test_set_id </text>
<text text-anchor="start" x="1809.29" y="-541.16" font-family="Arial" font-size="14.00" fill="#666666">[bigint]</text>
</g>
<!-- public.service_test_set&#45;&gt;public.services -->
<g id="edge13" class="edge">
<title>public.service_test_set:service_id&#45;&gt;public.services:id</title>
<path fill="none" stroke="black" d="M2043.97,-574.25C2087.01,-565.86 2056.37,-501.17 2084.66,-454.96 2124.06,-390.59 2118.21,-324.76 2193.68,-324.76"/>
<polygon fill="black" stroke="black" points="2043.92,-574.26 2033.57,-570.65 2038.61,-574.72 2034.29,-575.1 2034.29,-575.1 2034.29,-575.1 2038.61,-574.72 2034.35,-579.61 2043.92,-574.26"/>
</g>
<!-- public.company_order_service -->
<g id="node15" class="node">
<title>public.company_order_service</title>
<polygon fill="#efefef" stroke="none" points="2137.2,-590.56 2137.2,-626.16 2498.11,-626.16 2498.11,-590.56 2137.2,-590.56"/>
<polygon fill="none" stroke="black" points="2137.2,-590.56 2137.2,-626.16 2498.11,-626.16 2498.11,-590.56 2137.2,-590.56"/>
<text text-anchor="start" x="2144.2" y="-603.96" font-family="Arial Bold" font-size="18.00">public.company_order_service</text>
<text text-anchor="start" x="2366.62" y="-603.96" font-family="Arial" font-size="14.00">    </text>
<text text-anchor="start" x="2397.74" y="-603.96" font-family="Arial" font-size="14.00" fill="#666666">[BASE TABLE]</text>
<polygon fill="none" stroke="black" points="2137.2,-559.76 2137.2,-590.56 2498.11,-590.56 2498.11,-559.76 2137.2,-559.76"/>
<text text-anchor="start" x="2144.2" y="-571.96" font-family="Arial" font-size="14.00">service_id </text>
<text text-anchor="start" x="2211.12" y="-571.96" font-family="Arial" font-size="14.00" fill="#666666">[bigint]</text>
<polygon fill="none" stroke="black" points="2137.2,-528.96 2137.2,-559.76 2498.11,-559.76 2498.11,-528.96 2137.2,-528.96"/>
<text text-anchor="start" x="2144.2" y="-541.16" font-family="Arial" font-size="14.00">company_order_id </text>
<text text-anchor="start" x="2264.05" y="-541.16" font-family="Arial" font-size="14.00" fill="#666666">[bigint]</text>
</g>
<!-- public.company_order_service&#45;&gt;public.services -->
<g id="edge14" class="edge">
<title>public.company_order_service:service_id&#45;&gt;public.services:id</title>
<path fill="none" stroke="black" d="M2509,-571.99C2548.57,-543.01 2494.93,-324.76 2441.63,-324.76"/>
<polygon fill="black" stroke="black" points="2508.95,-572.01 2498.06,-570.77 2503.87,-573.64 2499.75,-574.96 2499.75,-574.96 2499.75,-574.96 2503.87,-573.64 2500.8,-579.34 2508.95,-572.01"/>
</g>
<!-- public.imaging_diagnostic_data -->
<g id="node16" class="node">
<title>public.imaging_diagnostic_data</title>
<polygon fill="#efefef" stroke="none" points="2602.19,-621.36 2602.19,-656.96 2971.13,-656.96 2971.13,-621.36 2602.19,-621.36"/>
<polygon fill="none" stroke="black" points="2602.19,-621.36 2602.19,-656.96 2971.13,-656.96 2971.13,-621.36 2602.19,-621.36"/>
<text text-anchor="start" x="2609.19" y="-634.76" font-family="Arial Bold" font-size="18.00">public.imaging_diagnostic_data</text>
<text text-anchor="start" x="2839.64" y="-634.76" font-family="Arial" font-size="14.00">    </text>
<text text-anchor="start" x="2870.75" y="-634.76" font-family="Arial" font-size="14.00" fill="#666666">[BASE TABLE]</text>
<polygon fill="none" stroke="black" points="2602.19,-590.56 2602.19,-621.36 2971.13,-621.36 2971.13,-590.56 2602.19,-590.56"/>
<text text-anchor="start" x="2609.19" y="-602.76" font-family="Arial" font-size="14.00">id </text>
<text text-anchor="start" x="2623.97" y="-602.76" font-family="Arial" font-size="14.00" fill="#666666">[bigint]</text>
<polygon fill="none" stroke="black" points="2602.19,-559.76 2602.19,-590.56 2971.13,-590.56 2971.13,-559.76 2602.19,-559.76"/>
<text text-anchor="start" x="2609.19" y="-571.96" font-family="Arial" font-size="14.00">checkup_id </text>
<text text-anchor="start" x="2683.9" y="-571.96" font-family="Arial" font-size="14.00" fill="#666666">[bigint]</text>
<polygon fill="none" stroke="black" points="2602.19,-528.96 2602.19,-559.76 2971.13,-559.76 2971.13,-528.96 2602.19,-528.96"/>
<text text-anchor="start" x="2609.19" y="-541.16" font-family="Arial" font-size="14.00">service_id </text>
<text text-anchor="start" x="2676.1" y="-541.16" font-family="Arial" font-size="14.00" fill="#666666">[bigint]</text>
<polygon fill="none" stroke="black" points="2602.19,-498.16 2602.19,-528.96 2971.13,-528.96 2971.13,-498.16 2602.19,-498.16"/>
<text text-anchor="start" x="2609.19" y="-510.36" font-family="Arial" font-size="14.00">updated_by </text>
<text text-anchor="start" x="2686.26" y="-510.36" font-family="Arial" font-size="14.00" fill="#666666">[bigint]</text>
</g>
<!-- public.imaging_diagnostic_data&#45;&gt;public.services -->
<g id="edge15" class="edge">
<title>public.imaging_diagnostic_data:service_id&#45;&gt;public.services:id</title>
<path fill="none" stroke="black" d="M2590.83,-543.25C2558.82,-535.55 2574.41,-489.26 2550.66,-454.96 2507.68,-392.92 2517.11,-324.76 2441.63,-324.76"/>
<polygon fill="black" stroke="black" points="2590.91,-543.26 2600.38,-548.8 2596.22,-543.83 2600.52,-544.29 2600.52,-544.29 2600.52,-544.29 2596.22,-543.83 2601.33,-539.85 2590.91,-543.26"/>
</g>
<!-- public.imaging_diagnostic_data_histories -->
<g id="node17" class="node">
<title>public.imaging_diagnostic_data_histories</title>
<polygon fill="#efefef" stroke="none" points="3075.19,-621.36 3075.19,-656.96 3514.12,-656.96 3514.12,-621.36 3075.19,-621.36"/>
<polygon fill="none" stroke="black" points="3075.19,-621.36 3075.19,-656.96 3514.12,-656.96 3514.12,-621.36 3075.19,-621.36"/>
<text text-anchor="start" x="3082.19" y="-634.76" font-family="Arial Bold" font-size="18.00">public.imaging_diagnostic_data_histories</text>
<text text-anchor="start" x="3382.63" y="-634.76" font-family="Arial" font-size="14.00">    </text>
<text text-anchor="start" x="3413.75" y="-634.76" font-family="Arial" font-size="14.00" fill="#666666">[BASE TABLE]</text>
<polygon fill="none" stroke="black" points="3075.19,-590.56 3075.19,-621.36 3514.12,-621.36 3514.12,-590.56 3075.19,-590.56"/>
<text text-anchor="start" x="3082.19" y="-602.76" font-family="Arial" font-size="14.00">imaging_diagnostic_data_id </text>
<text text-anchor="start" x="3259.65" y="-602.76" font-family="Arial" font-size="14.00" fill="#666666">[bigint]</text>
<polygon fill="none" stroke="black" points="3075.19,-559.76 3075.19,-590.56 3514.12,-590.56 3514.12,-559.76 3075.19,-559.76"/>
<text text-anchor="start" x="3082.19" y="-571.96" font-family="Arial" font-size="14.00">checkup_id </text>
<text text-anchor="start" x="3156.91" y="-571.96" font-family="Arial" font-size="14.00" fill="#666666">[bigint]</text>
<polygon fill="none" stroke="black" points="3075.19,-528.96 3075.19,-559.76 3514.12,-559.76 3514.12,-528.96 3075.19,-528.96"/>
<text text-anchor="start" x="3082.19" y="-541.16" font-family="Arial" font-size="14.00">service_id </text>
<text text-anchor="start" x="3149.11" y="-541.16" font-family="Arial" font-size="14.00" fill="#666666">[bigint]</text>
<polygon fill="none" stroke="black" points="3075.19,-498.16 3075.19,-528.96 3514.12,-528.96 3514.12,-498.16 3075.19,-498.16"/>
<text text-anchor="start" x="3082.19" y="-510.36" font-family="Arial" font-size="14.00">updated_by </text>
<text text-anchor="start" x="3159.26" y="-510.36" font-family="Arial" font-size="14.00" fill="#666666">[bigint]</text>
</g>
<!-- public.imaging_diagnostic_data_histories&#45;&gt;public.services -->
<g id="edge16" class="edge">
<title>public.imaging_diagnostic_data_histories:service_id&#45;&gt;public.services:id</title>
<path fill="none" stroke="black" d="M3064.04,-543.04C3033.5,-533.93 3057.16,-479.81 3023.66,-454.96 2917.21,-376 2574.17,-324.76 2441.63,-324.76"/>
<polygon fill="black" stroke="black" points="3063.94,-543.03 3073.28,-548.78 3069.23,-543.72 3073.53,-544.27 3073.53,-544.27 3073.53,-544.27 3069.23,-543.72 3074.44,-539.85 3063.94,-543.03"/>
</g>
<!-- public.category_service -->
<g id="node18" class="node">
<title>public.category_service</title>
<polygon fill="#efefef" stroke="none" points="3618.7,-590.56 3618.7,-626.16 3928.61,-626.16 3928.61,-590.56 3618.7,-590.56"/>
<polygon fill="none" stroke="black" points="3618.7,-590.56 3618.7,-626.16 3928.61,-626.16 3928.61,-590.56 3618.7,-590.56"/>
<text text-anchor="start" x="3625.7" y="-603.96" font-family="Arial Bold" font-size="18.00">public.category_service</text>
<text text-anchor="start" x="3797.12" y="-603.96" font-family="Arial" font-size="14.00">    </text>
<text text-anchor="start" x="3828.24" y="-603.96" font-family="Arial" font-size="14.00" fill="#666666">[BASE TABLE]</text>
<polygon fill="none" stroke="black" points="3618.7,-559.76 3618.7,-590.56 3928.61,-590.56 3928.61,-559.76 3618.7,-559.76"/>
<text text-anchor="start" x="3625.7" y="-571.96" font-family="Arial" font-size="14.00">service_id </text>
<text text-anchor="start" x="3692.62" y="-571.96" font-family="Arial" font-size="14.00" fill="#666666">[bigint]</text>
<polygon fill="none" stroke="black" points="3618.7,-528.96 3618.7,-559.76 3928.61,-559.76 3928.61,-528.96 3618.7,-528.96"/>
<text text-anchor="start" x="3625.7" y="-541.16" font-family="Arial" font-size="14.00">category_id </text>
<text text-anchor="start" x="3701.97" y="-541.16" font-family="Arial" font-size="14.00" fill="#666666">[integer]</text>
</g>
<!-- public.category_service&#45;&gt;public.services -->
<g id="edge17" class="edge">
<title>public.category_service:service_id&#45;&gt;public.services:id</title>
<path fill="none" stroke="black" d="M3607.55,-574.07C3566.32,-564.04 3610.05,-487.42 3566.66,-454.96 3465.89,-379.59 2567.47,-324.76 2441.63,-324.76"/>
<polygon fill="black" stroke="black" points="3607.43,-574.06 3616.89,-579.6 3612.73,-574.63 3617.04,-575.09 3617.04,-575.09 3617.04,-575.09 3612.73,-574.63 3617.85,-570.65 3607.43,-574.06"/>
</g>
</g>
</svg>
