<?xml version="1.0" encoding="UTF-8" standalone="no"?>
<!DOCTYPE svg PUBLIC "-//W3C//DTD SVG 1.1//EN"
 "http://www.w3.org/Graphics/SVG/1.1/DTD/svg11.dtd">
<!-- Generated by graphviz version 12.1.2 (20240928.0832)
 -->
<!-- Title: public.service_service_group Pages: 1 -->
<svg width="7265pt" height="692pt"
 viewBox="0.00 0.00 7265.31 692.40" xmlns="http://www.w3.org/2000/svg" xmlns:xlink="http://www.w3.org/1999/xlink">
<g id="graph0" class="graph" transform="scale(1 1) rotate(0) translate(4 688.4)">
<title>public.service_service_group</title>
<polygon fill="white" stroke="none" points="-4,4 -4,-688.4 7261.31,-688.4 7261.31,4 -4,4"/>
<!-- public.service_service_group -->
<g id="node1" class="node">
<title>public.service_service_group</title>
<polygon fill="#efefef" stroke="none" points="3991.7,-574.8 3991.7,-610.4 4341.61,-610.4 4341.61,-574.8 3991.7,-574.8"/>
<polygon fill="none" stroke="black" points="3991.7,-574.8 3991.7,-610.4 4341.61,-610.4 4341.61,-574.8 3991.7,-574.8"/>
<text text-anchor="start" x="3998.7" y="-588.2" font-family="Arial Bold" font-size="18.00">public.service_service_group</text>
<text text-anchor="start" x="4210.12" y="-588.2" font-family="Arial" font-size="14.00">    </text>
<text text-anchor="start" x="4241.24" y="-588.2" font-family="Arial" font-size="14.00" fill="#666666">[BASE TABLE]</text>
<polygon fill="none" stroke="black" points="3991.7,-544 3991.7,-574.8 4341.61,-574.8 4341.61,-544 3991.7,-544"/>
<text text-anchor="start" x="3998.7" y="-556.2" font-family="Arial" font-size="14.00">service_id </text>
<text text-anchor="start" x="4065.62" y="-556.2" font-family="Arial" font-size="14.00" fill="#666666">[bigint]</text>
<polygon fill="none" stroke="black" points="3991.7,-513.2 3991.7,-544 4341.61,-544 4341.61,-513.2 3991.7,-513.2"/>
<text text-anchor="start" x="3998.7" y="-525.4" font-family="Arial" font-size="14.00">service_group_id </text>
<text text-anchor="start" x="4109.21" y="-525.4" font-family="Arial" font-size="14.00" fill="#666666">[bigint]</text>
<polygon fill="none" stroke="black" stroke-width="3" points="3990.2,-511.7 3990.2,-611.9 4343.11,-611.9 4343.11,-511.7 3990.2,-511.7"/>
</g>
<!-- public.services -->
<g id="node2" class="node">
<title>public.services</title>
<polygon fill="#efefef" stroke="none" points="1958.68,-324.4 1958.68,-360 2204.63,-360 2204.63,-324.4 1958.68,-324.4"/>
<polygon fill="none" stroke="black" points="1958.68,-324.4 1958.68,-360 2204.63,-360 2204.63,-324.4 1958.68,-324.4"/>
<text text-anchor="start" x="1965.68" y="-337.8" font-family="Arial Bold" font-size="18.00">public.services</text>
<text text-anchor="start" x="2073.14" y="-337.8" font-family="Arial" font-size="14.00">    </text>
<text text-anchor="start" x="2104.26" y="-337.8" font-family="Arial" font-size="14.00" fill="#666666">[BASE TABLE]</text>
<polygon fill="none" stroke="black" points="1958.68,-293.6 1958.68,-324.4 2204.63,-324.4 2204.63,-293.6 1958.68,-293.6"/>
<text text-anchor="start" x="1965.68" y="-305.8" font-family="Arial" font-size="14.00">id </text>
<text text-anchor="start" x="1980.47" y="-305.8" font-family="Arial" font-size="14.00" fill="#666666">[bigint]</text>
<polygon fill="none" stroke="black" points="1958.68,-262.8 1958.68,-293.6 2204.63,-293.6 2204.63,-262.8 1958.68,-262.8"/>
<text text-anchor="start" x="1965.68" y="-275" font-family="Arial" font-size="14.00">attune_department_id </text>
<text text-anchor="start" x="2105.78" y="-275" font-family="Arial" font-size="14.00" fill="#666666">[bigint]</text>
<polygon fill="none" stroke="black" points="1958.68,-232 1958.68,-262.8 2204.63,-262.8 2204.63,-232 1958.68,-232"/>
<text text-anchor="start" x="1965.68" y="-244.2" font-family="Arial" font-size="14.00">simple_cate_id </text>
<text text-anchor="start" x="2062.96" y="-244.2" font-family="Arial" font-size="14.00" fill="#666666">[bigint]</text>
</g>
<!-- public.service_service_group&#45;&gt;public.services -->
<g id="edge1" class="edge">
<title>public.service_service_group:service_id&#45;&gt;public.services:id</title>
<path fill="none" stroke="black" d="M3980.44,-558.3C3938.66,-548.14 3981.43,-470.6 3936.66,-439.2 3778.75,-328.44 2398.51,-309 2205.63,-309"/>
<polygon fill="black" stroke="black" points="3980.43,-558.29 3989.89,-563.84 3985.73,-558.86 3990.04,-559.33 3990.04,-559.33 3990.04,-559.33 3985.73,-558.86 3990.85,-554.89 3980.43,-558.29"/>
</g>
<!-- public.service_groups -->
<g id="node14" class="node">
<title>public.service_groups</title>
<polygon fill="#efefef" stroke="none" points="5215.18,-293.6 5215.18,-329.2 5512.13,-329.2 5512.13,-293.6 5215.18,-293.6"/>
<polygon fill="none" stroke="black" points="5215.18,-293.6 5215.18,-329.2 5512.13,-329.2 5512.13,-293.6 5215.18,-293.6"/>
<text text-anchor="start" x="5222.18" y="-307" font-family="Arial Bold" font-size="18.00">public.service_groups</text>
<text text-anchor="start" x="5380.64" y="-307" font-family="Arial" font-size="14.00">    </text>
<text text-anchor="start" x="5411.76" y="-307" font-family="Arial" font-size="14.00" fill="#666666">[BASE TABLE]</text>
<polygon fill="none" stroke="black" points="5215.18,-262.8 5215.18,-293.6 5512.13,-293.6 5512.13,-262.8 5215.18,-262.8"/>
<text text-anchor="start" x="5222.18" y="-275" font-family="Arial" font-size="14.00">id </text>
<text text-anchor="start" x="5236.97" y="-275" font-family="Arial" font-size="14.00" fill="#666666">[bigint]</text>
</g>
<!-- public.service_service_group&#45;&gt;public.service_groups -->
<g id="edge13" class="edge">
<title>public.service_service_group:service_group_id&#45;&gt;public.service_groups:id</title>
<path fill="none" stroke="black" d="M4352.57,-527.39C4384.51,-518.54 4361.74,-463.64 4396.66,-439.2 4548.34,-333.01 5029.02,-278.2 5214.18,-278.2"/>
<polygon fill="black" stroke="black" points="4352.87,-527.35 4342.4,-524.09 4347.57,-528 4343.28,-528.52 4343.28,-528.52 4343.28,-528.52 4347.57,-528 4343.49,-533.03 4352.87,-527.35"/>
</g>
<!-- public.attune_departments -->
<g id="node12" class="node">
<title>public.attune_departments</title>
<polygon fill="#efefef" stroke="none" points="1703.19,-74 1703.19,-109.6 2032.12,-109.6 2032.12,-74 1703.19,-74"/>
<polygon fill="none" stroke="black" points="1703.19,-74 1703.19,-109.6 2032.12,-109.6 2032.12,-74 1703.19,-74"/>
<text text-anchor="start" x="1710.19" y="-87.4" font-family="Arial Bold" font-size="18.00">public.attune_departments</text>
<text text-anchor="start" x="1900.63" y="-87.4" font-family="Arial" font-size="14.00">    </text>
<text text-anchor="start" x="1931.75" y="-87.4" font-family="Arial" font-size="14.00" fill="#666666">[BASE TABLE]</text>
<polygon fill="none" stroke="black" points="1703.19,-43.2 1703.19,-74 2032.12,-74 2032.12,-43.2 1703.19,-43.2"/>
<text text-anchor="start" x="1710.19" y="-55.4" font-family="Arial" font-size="14.00">id </text>
<text text-anchor="start" x="1724.98" y="-55.4" font-family="Arial" font-size="14.00" fill="#666666">[bigint]</text>
</g>
<!-- public.services&#45;&gt;public.attune_departments -->
<g id="edge11" class="edge">
<title>public.services:attune_department_id&#45;&gt;public.attune_departments:id</title>
<path fill="none" stroke="black" d="M1947.68,-276.68C1921.77,-267.51 1939.54,-219.12 1958.68,-188.8 1978.09,-158.06 2012.73,-183.54 2032.12,-152.8 2054.46,-117.39 2074.99,-58.6 2033.12,-58.6"/>
<polygon fill="black" stroke="black" points="1947.46,-276.64 1956.67,-282.6 1952.74,-277.45 1957.02,-278.1 1957.02,-278.1 1957.02,-278.1 1952.74,-277.45 1958.03,-273.7 1947.46,-276.64"/>
</g>
<!-- public.simple_categories -->
<g id="node13" class="node">
<title>public.simple_categories</title>
<polygon fill="#efefef" stroke="none" points="2136.69,-74 2136.69,-109.6 2454.62,-109.6 2454.62,-74 2136.69,-74"/>
<polygon fill="none" stroke="black" points="2136.69,-74 2136.69,-109.6 2454.62,-109.6 2454.62,-74 2136.69,-74"/>
<text text-anchor="start" x="2143.69" y="-87.4" font-family="Arial Bold" font-size="18.00">public.simple_categories</text>
<text text-anchor="start" x="2323.14" y="-87.4" font-family="Arial" font-size="14.00">    </text>
<text text-anchor="start" x="2354.25" y="-87.4" font-family="Arial" font-size="14.00" fill="#666666">[BASE TABLE]</text>
<polygon fill="none" stroke="black" points="2136.69,-43.2 2136.69,-74 2454.62,-74 2454.62,-43.2 2136.69,-43.2"/>
<text text-anchor="start" x="2143.69" y="-55.4" font-family="Arial" font-size="14.00">id </text>
<text text-anchor="start" x="2158.47" y="-55.4" font-family="Arial" font-size="14.00" fill="#666666">[bigint]</text>
</g>
<!-- public.services&#45;&gt;public.simple_categories -->
<g id="edge12" class="edge">
<title>public.services:simple_cate_id&#45;&gt;public.simple_categories:id</title>
<path fill="none" stroke="black" d="M2215.44,-244.68C2227.27,-235.84 2216.02,-207.36 2204.63,-188.8 2186.76,-159.67 2154.47,-181.99 2136.69,-152.8 2114.91,-117.04 2093.82,-58.6 2135.69,-58.6"/>
<polygon fill="black" stroke="black" points="2215.59,-244.64 2204.75,-242.97 2210.45,-246.07 2206.28,-247.22 2206.28,-247.22 2206.28,-247.22 2210.45,-246.07 2207.16,-251.65 2215.59,-244.64"/>
</g>
<!-- public.department_service -->
<g id="node3" class="node">
<title>public.department_service</title>
<polygon fill="#efefef" stroke="none" points="43.2,-574.8 43.2,-610.4 372.11,-610.4 372.11,-574.8 43.2,-574.8"/>
<polygon fill="none" stroke="black" points="43.2,-574.8 43.2,-610.4 372.11,-610.4 372.11,-574.8 43.2,-574.8"/>
<text text-anchor="start" x="50.2" y="-588.2" font-family="Arial Bold" font-size="18.00">public.department_service</text>
<text text-anchor="start" x="240.62" y="-588.2" font-family="Arial" font-size="14.00">    </text>
<text text-anchor="start" x="271.74" y="-588.2" font-family="Arial" font-size="14.00" fill="#666666">[BASE TABLE]</text>
<polygon fill="none" stroke="black" points="43.2,-544 43.2,-574.8 372.11,-574.8 372.11,-544 43.2,-544"/>
<text text-anchor="start" x="50.2" y="-556.2" font-family="Arial" font-size="14.00">department_id </text>
<text text-anchor="start" x="143.59" y="-556.2" font-family="Arial" font-size="14.00" fill="#666666">[bigint]</text>
<polygon fill="none" stroke="black" points="43.2,-513.2 43.2,-544 372.11,-544 372.11,-513.2 43.2,-513.2"/>
<text text-anchor="start" x="50.2" y="-525.4" font-family="Arial" font-size="14.00">service_id </text>
<text text-anchor="start" x="117.12" y="-525.4" font-family="Arial" font-size="14.00" fill="#666666">[bigint]</text>
</g>
<!-- public.department_service&#45;&gt;public.services -->
<g id="edge2" class="edge">
<title>public.department_service:service_id&#45;&gt;public.services:id</title>
<path fill="none" stroke="black" d="M383.22,-527.23C413.53,-517.77 388.54,-461.73 423.66,-439.2 567.63,-346.83 1786.62,-309 1957.68,-309"/>
<polygon fill="black" stroke="black" points="383.35,-527.21 372.84,-524.1 378.07,-527.93 373.78,-528.51 373.78,-528.51 373.78,-528.51 378.07,-527.93 374.05,-533.01 383.35,-527.21"/>
</g>
<!-- public.form_service -->
<g id="node4" class="node">
<title>public.form_service</title>
<polygon fill="#efefef" stroke="none" points="476.19,-574.8 476.19,-610.4 759.13,-610.4 759.13,-574.8 476.19,-574.8"/>
<polygon fill="none" stroke="black" points="476.19,-574.8 476.19,-610.4 759.13,-610.4 759.13,-574.8 476.19,-574.8"/>
<text text-anchor="start" x="483.19" y="-588.2" font-family="Arial Bold" font-size="18.00">public.form_service</text>
<text text-anchor="start" x="627.64" y="-588.2" font-family="Arial" font-size="14.00">    </text>
<text text-anchor="start" x="658.75" y="-588.2" font-family="Arial" font-size="14.00" fill="#666666">[BASE TABLE]</text>
<polygon fill="none" stroke="black" points="476.19,-544 476.19,-574.8 759.13,-574.8 759.13,-544 476.19,-544"/>
<text text-anchor="start" x="483.19" y="-556.2" font-family="Arial" font-size="14.00">form_id </text>
<text text-anchor="start" x="533.76" y="-556.2" font-family="Arial" font-size="14.00" fill="#666666">[bigint]</text>
<polygon fill="none" stroke="black" points="476.19,-513.2 476.19,-544 759.13,-544 759.13,-513.2 476.19,-513.2"/>
<text text-anchor="start" x="483.19" y="-525.4" font-family="Arial" font-size="14.00">service_id </text>
<text text-anchor="start" x="550.1" y="-525.4" font-family="Arial" font-size="14.00" fill="#666666">[bigint]</text>
</g>
<!-- public.form_service&#45;&gt;public.services -->
<g id="edge3" class="edge">
<title>public.form_service:service_id&#45;&gt;public.services:id</title>
<path fill="none" stroke="black" d="M770.3,-527.24C800.89,-517.85 776.6,-462.19 811.66,-439.2 918.82,-368.91 1829.52,-309 1957.68,-309"/>
<polygon fill="black" stroke="black" points="770.37,-527.23 759.86,-524.1 765.08,-527.94 760.79,-528.51 760.79,-528.51 760.79,-528.51 765.08,-527.94 761.05,-533.02 770.37,-527.23"/>
</g>
<!-- public.checkup_service -->
<g id="node5" class="node">
<title>public.checkup_service</title>
<polygon fill="#efefef" stroke="none" points="863.7,-574.8 863.7,-610.4 1171.61,-610.4 1171.61,-574.8 863.7,-574.8"/>
<polygon fill="none" stroke="black" points="863.7,-574.8 863.7,-610.4 1171.61,-610.4 1171.61,-574.8 863.7,-574.8"/>
<text text-anchor="start" x="870.7" y="-588.2" font-family="Arial Bold" font-size="18.00">public.checkup_service</text>
<text text-anchor="start" x="1040.13" y="-588.2" font-family="Arial" font-size="14.00">    </text>
<text text-anchor="start" x="1071.24" y="-588.2" font-family="Arial" font-size="14.00" fill="#666666">[BASE TABLE]</text>
<polygon fill="none" stroke="black" points="863.7,-544 863.7,-574.8 1171.61,-574.8 1171.61,-544 863.7,-544"/>
<text text-anchor="start" x="870.7" y="-556.2" font-family="Arial" font-size="14.00">checkup_id </text>
<text text-anchor="start" x="945.42" y="-556.2" font-family="Arial" font-size="14.00" fill="#666666">[bigint]</text>
<polygon fill="none" stroke="black" points="863.7,-513.2 863.7,-544 1171.61,-544 1171.61,-513.2 863.7,-513.2"/>
<text text-anchor="start" x="870.7" y="-525.4" font-family="Arial" font-size="14.00">service_id </text>
<text text-anchor="start" x="937.62" y="-525.4" font-family="Arial" font-size="14.00" fill="#666666">[bigint]</text>
</g>
<!-- public.checkup_service&#45;&gt;public.services -->
<g id="edge4" class="edge">
<title>public.checkup_service:service_id&#45;&gt;public.services:id</title>
<path fill="none" stroke="black" d="M1182.78,-527.27C1213.36,-518.03 1189.47,-463.29 1223.66,-439.2 1359.08,-343.78 1792.02,-309 1957.68,-309"/>
<polygon fill="black" stroke="black" points="1182.86,-527.26 1172.36,-524.09 1177.57,-527.95 1173.28,-528.51 1173.28,-528.51 1173.28,-528.51 1177.57,-527.95 1173.53,-533.02 1182.86,-527.26"/>
</g>
<!-- public.service_test_set -->
<g id="node6" class="node">
<title>public.service_test_set</title>
<polygon fill="#efefef" stroke="none" points="1275.69,-574.8 1275.69,-610.4 1577.63,-610.4 1577.63,-574.8 1275.69,-574.8"/>
<polygon fill="none" stroke="black" points="1275.69,-574.8 1275.69,-610.4 1577.63,-610.4 1577.63,-574.8 1275.69,-574.8"/>
<text text-anchor="start" x="1282.69" y="-588.2" font-family="Arial Bold" font-size="18.00">public.service_test_set</text>
<text text-anchor="start" x="1446.14" y="-588.2" font-family="Arial" font-size="14.00">    </text>
<text text-anchor="start" x="1477.25" y="-588.2" font-family="Arial" font-size="14.00" fill="#666666">[BASE TABLE]</text>
<polygon fill="none" stroke="black" points="1275.69,-544 1275.69,-574.8 1577.63,-574.8 1577.63,-544 1275.69,-544"/>
<text text-anchor="start" x="1282.69" y="-556.2" font-family="Arial" font-size="14.00">service_id </text>
<text text-anchor="start" x="1349.6" y="-556.2" font-family="Arial" font-size="14.00" fill="#666666">[bigint]</text>
<polygon fill="none" stroke="black" points="1275.69,-513.2 1275.69,-544 1577.63,-544 1577.63,-513.2 1275.69,-513.2"/>
<text text-anchor="start" x="1282.69" y="-525.4" font-family="Arial" font-size="14.00">test_set_id </text>
<text text-anchor="start" x="1354.29" y="-525.4" font-family="Arial" font-size="14.00" fill="#666666">[bigint]</text>
</g>
<!-- public.service_test_set&#45;&gt;public.services -->
<g id="edge5" class="edge">
<title>public.service_test_set:service_id&#45;&gt;public.services:id</title>
<path fill="none" stroke="black" d="M1588.84,-558.38C1630.62,-548.99 1590.89,-477.06 1629.66,-439.2 1741.87,-329.61 1800.83,-309 1957.68,-309"/>
<polygon fill="black" stroke="black" points="1588.91,-558.37 1578.51,-554.89 1583.6,-558.9 1579.29,-559.33 1579.29,-559.33 1579.29,-559.33 1583.6,-558.9 1579.41,-563.84 1588.91,-558.37"/>
</g>
<!-- public.company_order_service -->
<g id="node7" class="node">
<title>public.company_order_service</title>
<polygon fill="#efefef" stroke="none" points="1682.2,-574.8 1682.2,-610.4 2043.11,-610.4 2043.11,-574.8 1682.2,-574.8"/>
<polygon fill="none" stroke="black" points="1682.2,-574.8 1682.2,-610.4 2043.11,-610.4 2043.11,-574.8 1682.2,-574.8"/>
<text text-anchor="start" x="1689.2" y="-588.2" font-family="Arial Bold" font-size="18.00">public.company_order_service</text>
<text text-anchor="start" x="1911.62" y="-588.2" font-family="Arial" font-size="14.00">    </text>
<text text-anchor="start" x="1942.74" y="-588.2" font-family="Arial" font-size="14.00" fill="#666666">[BASE TABLE]</text>
<polygon fill="none" stroke="black" points="1682.2,-544 1682.2,-574.8 2043.11,-574.8 2043.11,-544 1682.2,-544"/>
<text text-anchor="start" x="1689.2" y="-556.2" font-family="Arial" font-size="14.00">service_id </text>
<text text-anchor="start" x="1756.12" y="-556.2" font-family="Arial" font-size="14.00" fill="#666666">[bigint]</text>
<polygon fill="none" stroke="black" points="1682.2,-513.2 1682.2,-544 2043.11,-544 2043.11,-513.2 1682.2,-513.2"/>
<text text-anchor="start" x="1689.2" y="-525.4" font-family="Arial" font-size="14.00">company_order_id </text>
<text text-anchor="start" x="1809.05" y="-525.4" font-family="Arial" font-size="14.00" fill="#666666">[bigint]</text>
</g>
<!-- public.company_order_service&#45;&gt;public.services -->
<g id="edge6" class="edge">
<title>public.company_order_service:service_id&#45;&gt;public.services:id</title>
<path fill="none" stroke="black" d="M2054.34,-557.81C2079.19,-548.67 2058.84,-502.05 2043.11,-470 2022.02,-427.05 1979.75,-446.16 1958.68,-403.2 1940.24,-365.61 1915.81,-309 1957.68,-309"/>
<polygon fill="black" stroke="black" points="2054.32,-557.82 2043.75,-554.9 2049.05,-558.63 2044.77,-559.3 2044.77,-559.3 2044.77,-559.3 2049.05,-558.63 2045.13,-563.8 2054.32,-557.82"/>
</g>
<!-- public.package_service -->
<g id="node8" class="node">
<title>public.package_service</title>
<polygon fill="#efefef" stroke="none" points="2147.2,-574.8 2147.2,-610.4 2454.11,-610.4 2454.11,-574.8 2147.2,-574.8"/>
<polygon fill="none" stroke="black" points="2147.2,-574.8 2147.2,-610.4 2454.11,-610.4 2454.11,-574.8 2147.2,-574.8"/>
<text text-anchor="start" x="2154.2" y="-588.2" font-family="Arial Bold" font-size="18.00">public.package_service</text>
<text text-anchor="start" x="2322.62" y="-588.2" font-family="Arial" font-size="14.00">    </text>
<text text-anchor="start" x="2353.74" y="-588.2" font-family="Arial" font-size="14.00" fill="#666666">[BASE TABLE]</text>
<polygon fill="none" stroke="black" points="2147.2,-544 2147.2,-574.8 2454.11,-574.8 2454.11,-544 2147.2,-544"/>
<text text-anchor="start" x="2154.2" y="-556.2" font-family="Arial" font-size="14.00">package_id </text>
<text text-anchor="start" x="2229.71" y="-556.2" font-family="Arial" font-size="14.00" fill="#666666">[bigint]</text>
<polygon fill="none" stroke="black" points="2147.2,-513.2 2147.2,-544 2454.11,-544 2454.11,-513.2 2147.2,-513.2"/>
<text text-anchor="start" x="2154.2" y="-525.4" font-family="Arial" font-size="14.00">service_id </text>
<text text-anchor="start" x="2221.12" y="-525.4" font-family="Arial" font-size="14.00" fill="#666666">[bigint]</text>
</g>
<!-- public.package_service&#45;&gt;public.services -->
<g id="edge7" class="edge">
<title>public.package_service:service_id&#45;&gt;public.services:id</title>
<path fill="none" stroke="black" d="M2136.39,-525.79C2126.02,-517.12 2139.53,-490.16 2147.2,-470 2161.13,-433.41 2190.83,-439.84 2204.63,-403.2 2219.4,-364.02 2247.5,-309 2205.63,-309"/>
<polygon fill="black" stroke="black" points="2136.27,-525.75 2144.64,-532.83 2141.4,-527.22 2145.56,-528.42 2145.56,-528.42 2145.56,-528.42 2141.4,-527.22 2147.12,-524.18 2136.27,-525.75"/>
</g>
<!-- public.imaging_diagnostic_data -->
<g id="node9" class="node">
<title>public.imaging_diagnostic_data</title>
<polygon fill="#efefef" stroke="none" points="2558.19,-605.6 2558.19,-641.2 2927.13,-641.2 2927.13,-605.6 2558.19,-605.6"/>
<polygon fill="none" stroke="black" points="2558.19,-605.6 2558.19,-641.2 2927.13,-641.2 2927.13,-605.6 2558.19,-605.6"/>
<text text-anchor="start" x="2565.19" y="-619" font-family="Arial Bold" font-size="18.00">public.imaging_diagnostic_data</text>
<text text-anchor="start" x="2795.64" y="-619" font-family="Arial" font-size="14.00">    </text>
<text text-anchor="start" x="2826.75" y="-619" font-family="Arial" font-size="14.00" fill="#666666">[BASE TABLE]</text>
<polygon fill="none" stroke="black" points="2558.19,-574.8 2558.19,-605.6 2927.13,-605.6 2927.13,-574.8 2558.19,-574.8"/>
<text text-anchor="start" x="2565.19" y="-587" font-family="Arial" font-size="14.00">id </text>
<text text-anchor="start" x="2579.97" y="-587" font-family="Arial" font-size="14.00" fill="#666666">[bigint]</text>
<polygon fill="none" stroke="black" points="2558.19,-544 2558.19,-574.8 2927.13,-574.8 2927.13,-544 2558.19,-544"/>
<text text-anchor="start" x="2565.19" y="-556.2" font-family="Arial" font-size="14.00">checkup_id </text>
<text text-anchor="start" x="2639.9" y="-556.2" font-family="Arial" font-size="14.00" fill="#666666">[bigint]</text>
<polygon fill="none" stroke="black" points="2558.19,-513.2 2558.19,-544 2927.13,-544 2927.13,-513.2 2558.19,-513.2"/>
<text text-anchor="start" x="2565.19" y="-525.4" font-family="Arial" font-size="14.00">service_id </text>
<text text-anchor="start" x="2632.1" y="-525.4" font-family="Arial" font-size="14.00" fill="#666666">[bigint]</text>
<polygon fill="none" stroke="black" points="2558.19,-482.4 2558.19,-513.2 2927.13,-513.2 2927.13,-482.4 2558.19,-482.4"/>
<text text-anchor="start" x="2565.19" y="-494.6" font-family="Arial" font-size="14.00">updated_by </text>
<text text-anchor="start" x="2642.26" y="-494.6" font-family="Arial" font-size="14.00" fill="#666666">[bigint]</text>
</g>
<!-- public.imaging_diagnostic_data&#45;&gt;public.services -->
<g id="edge8" class="edge">
<title>public.imaging_diagnostic_data:service_id&#45;&gt;public.services:id</title>
<path fill="none" stroke="black" d="M2546.99,-527.35C2516.07,-518.69 2537.68,-467.09 2506.66,-439.2 2398.26,-341.74 2351.4,-309 2205.63,-309"/>
<polygon fill="black" stroke="black" points="2546.93,-527.34 2556.31,-533.03 2552.22,-527.99 2556.52,-528.52 2556.52,-528.52 2556.52,-528.52 2552.22,-527.99 2557.4,-524.09 2546.93,-527.34"/>
</g>
<!-- public.imaging_diagnostic_data_histories -->
<g id="node10" class="node">
<title>public.imaging_diagnostic_data_histories</title>
<polygon fill="#efefef" stroke="none" points="3031.19,-605.6 3031.19,-641.2 3470.12,-641.2 3470.12,-605.6 3031.19,-605.6"/>
<polygon fill="none" stroke="black" points="3031.19,-605.6 3031.19,-641.2 3470.12,-641.2 3470.12,-605.6 3031.19,-605.6"/>
<text text-anchor="start" x="3038.19" y="-619" font-family="Arial Bold" font-size="18.00">public.imaging_diagnostic_data_histories</text>
<text text-anchor="start" x="3338.63" y="-619" font-family="Arial" font-size="14.00">    </text>
<text text-anchor="start" x="3369.75" y="-619" font-family="Arial" font-size="14.00" fill="#666666">[BASE TABLE]</text>
<polygon fill="none" stroke="black" points="3031.19,-574.8 3031.19,-605.6 3470.12,-605.6 3470.12,-574.8 3031.19,-574.8"/>
<text text-anchor="start" x="3038.19" y="-587" font-family="Arial" font-size="14.00">imaging_diagnostic_data_id </text>
<text text-anchor="start" x="3215.65" y="-587" font-family="Arial" font-size="14.00" fill="#666666">[bigint]</text>
<polygon fill="none" stroke="black" points="3031.19,-544 3031.19,-574.8 3470.12,-574.8 3470.12,-544 3031.19,-544"/>
<text text-anchor="start" x="3038.19" y="-556.2" font-family="Arial" font-size="14.00">checkup_id </text>
<text text-anchor="start" x="3112.91" y="-556.2" font-family="Arial" font-size="14.00" fill="#666666">[bigint]</text>
<polygon fill="none" stroke="black" points="3031.19,-513.2 3031.19,-544 3470.12,-544 3470.12,-513.2 3031.19,-513.2"/>
<text text-anchor="start" x="3038.19" y="-525.4" font-family="Arial" font-size="14.00">service_id </text>
<text text-anchor="start" x="3105.11" y="-525.4" font-family="Arial" font-size="14.00" fill="#666666">[bigint]</text>
<polygon fill="none" stroke="black" points="3031.19,-482.4 3031.19,-513.2 3470.12,-513.2 3470.12,-482.4 3031.19,-482.4"/>
<text text-anchor="start" x="3038.19" y="-494.6" font-family="Arial" font-size="14.00">updated_by </text>
<text text-anchor="start" x="3115.26" y="-494.6" font-family="Arial" font-size="14.00" fill="#666666">[bigint]</text>
</g>
<!-- public.imaging_diagnostic_data_histories&#45;&gt;public.services -->
<g id="edge9" class="edge">
<title>public.imaging_diagnostic_data_histories:service_id&#45;&gt;public.services:id</title>
<path fill="none" stroke="black" d="M3020.06,-527.26C2989.61,-518.01 3013.82,-463.15 2979.66,-439.2 2836.84,-339.07 2380.05,-309 2205.63,-309"/>
<polygon fill="black" stroke="black" points="3019.94,-527.25 3029.27,-533.02 3025.23,-527.95 3029.53,-528.51 3029.53,-528.51 3029.53,-528.51 3025.23,-527.95 3030.45,-524.09 3019.94,-527.25"/>
</g>
<!-- public.category_service -->
<g id="node11" class="node">
<title>public.category_service</title>
<polygon fill="#efefef" stroke="none" points="3574.7,-574.8 3574.7,-610.4 3884.61,-610.4 3884.61,-574.8 3574.7,-574.8"/>
<polygon fill="none" stroke="black" points="3574.7,-574.8 3574.7,-610.4 3884.61,-610.4 3884.61,-574.8 3574.7,-574.8"/>
<text text-anchor="start" x="3581.7" y="-588.2" font-family="Arial Bold" font-size="18.00">public.category_service</text>
<text text-anchor="start" x="3753.12" y="-588.2" font-family="Arial" font-size="14.00">    </text>
<text text-anchor="start" x="3784.24" y="-588.2" font-family="Arial" font-size="14.00" fill="#666666">[BASE TABLE]</text>
<polygon fill="none" stroke="black" points="3574.7,-544 3574.7,-574.8 3884.61,-574.8 3884.61,-544 3574.7,-544"/>
<text text-anchor="start" x="3581.7" y="-556.2" font-family="Arial" font-size="14.00">service_id </text>
<text text-anchor="start" x="3648.62" y="-556.2" font-family="Arial" font-size="14.00" fill="#666666">[bigint]</text>
<polygon fill="none" stroke="black" points="3574.7,-513.2 3574.7,-544 3884.61,-544 3884.61,-513.2 3574.7,-513.2"/>
<text text-anchor="start" x="3581.7" y="-525.4" font-family="Arial" font-size="14.00">category_id </text>
<text text-anchor="start" x="3657.97" y="-525.4" font-family="Arial" font-size="14.00" fill="#666666">[integer]</text>
</g>
<!-- public.category_service&#45;&gt;public.services -->
<g id="edge10" class="edge">
<title>public.category_service:service_id&#45;&gt;public.services:id</title>
<path fill="none" stroke="black" d="M3563.56,-558.3C3522.36,-548.23 3566.32,-471.29 3522.66,-439.2 3404.17,-352.11 2352.68,-309 2205.63,-309"/>
<polygon fill="black" stroke="black" points="3563.43,-558.29 3572.89,-563.84 3568.73,-558.86 3573.04,-559.33 3573.04,-559.33 3573.04,-559.33 3568.73,-558.86 3573.85,-554.89 3563.43,-558.29"/>
</g>
<!-- public.service_group_service_group -->
<g id="node15" class="node">
<title>public.service_group_service_group</title>
<polygon fill="#efefef" stroke="none" points="4449.2,-574.8 4449.2,-610.4 4850.11,-610.4 4850.11,-574.8 4449.2,-574.8"/>
<polygon fill="none" stroke="black" points="4449.2,-574.8 4449.2,-610.4 4850.11,-610.4 4850.11,-574.8 4449.2,-574.8"/>
<text text-anchor="start" x="4456.2" y="-588.2" font-family="Arial Bold" font-size="18.00">public.service_group_service_group</text>
<text text-anchor="start" x="4718.62" y="-588.2" font-family="Arial" font-size="14.00">    </text>
<text text-anchor="start" x="4749.74" y="-588.2" font-family="Arial" font-size="14.00" fill="#666666">[BASE TABLE]</text>
<polygon fill="none" stroke="black" points="4449.2,-544 4449.2,-574.8 4850.11,-574.8 4850.11,-544 4449.2,-544"/>
<text text-anchor="start" x="4456.2" y="-556.2" font-family="Arial" font-size="14.00">parent_id </text>
<text text-anchor="start" x="4518.47" y="-556.2" font-family="Arial" font-size="14.00" fill="#666666">[bigint]</text>
<polygon fill="none" stroke="black" points="4449.2,-513.2 4449.2,-544 4850.11,-544 4850.11,-513.2 4449.2,-513.2"/>
<text text-anchor="start" x="4456.2" y="-525.4" font-family="Arial" font-size="14.00">child_id </text>
<text text-anchor="start" x="4507.57" y="-525.4" font-family="Arial" font-size="14.00" fill="#666666">[bigint]</text>
</g>
<!-- public.service_group_service_group&#45;&gt;public.service_groups -->
<g id="edge14" class="edge">
<title>public.service_group_service_group:child_id&#45;&gt;public.service_groups:id</title>
<path fill="none" stroke="black" d="M4861.33,-527.37C4892.39,-518.87 4871.59,-468.12 4901.66,-439.2 5014.27,-330.89 5057.93,-278.2 5214.18,-278.2"/>
<polygon fill="black" stroke="black" points="4861.37,-527.37 4850.9,-524.09 4856.07,-528 4851.77,-528.52 4851.77,-528.52 4851.77,-528.52 4856.07,-528 4851.98,-533.03 4861.37,-527.37"/>
</g>
<!-- public.service_group_service_group&#45;&gt;public.service_groups -->
<g id="edge15" class="edge">
<title>public.service_group_service_group:parent_id&#45;&gt;public.service_groups:id</title>
<path fill="none" stroke="black" d="M4861.32,-558.41C4903.23,-549.24 4864.91,-478.91 4901.66,-439.2 5007.77,-324.51 5057.93,-278.2 5214.18,-278.2"/>
<polygon fill="black" stroke="black" points="4861.39,-558.4 4851.01,-554.89 4856.09,-558.92 4851.77,-559.34 4851.77,-559.34 4851.77,-559.34 4856.09,-558.92 4851.88,-563.85 4861.39,-558.4"/>
</g>
<!-- public.checkup_service_group -->
<g id="node16" class="node">
<title>public.checkup_service_group</title>
<polygon fill="#efefef" stroke="none" points="4954.2,-574.8 4954.2,-610.4 5313.11,-610.4 5313.11,-574.8 4954.2,-574.8"/>
<polygon fill="none" stroke="black" points="4954.2,-574.8 4954.2,-610.4 5313.11,-610.4 5313.11,-574.8 4954.2,-574.8"/>
<text text-anchor="start" x="4961.2" y="-588.2" font-family="Arial Bold" font-size="18.00">public.checkup_service_group</text>
<text text-anchor="start" x="5181.62" y="-588.2" font-family="Arial" font-size="14.00">    </text>
<text text-anchor="start" x="5212.74" y="-588.2" font-family="Arial" font-size="14.00" fill="#666666">[BASE TABLE]</text>
<polygon fill="none" stroke="black" points="4954.2,-544 4954.2,-574.8 5313.11,-574.8 5313.11,-544 4954.2,-544"/>
<text text-anchor="start" x="4961.2" y="-556.2" font-family="Arial" font-size="14.00">checkup_id </text>
<text text-anchor="start" x="5035.92" y="-556.2" font-family="Arial" font-size="14.00" fill="#666666">[bigint]</text>
<polygon fill="none" stroke="black" points="4954.2,-513.2 4954.2,-544 5313.11,-544 5313.11,-513.2 4954.2,-513.2"/>
<text text-anchor="start" x="4961.2" y="-525.4" font-family="Arial" font-size="14.00">service_group_id </text>
<text text-anchor="start" x="5071.71" y="-525.4" font-family="Arial" font-size="14.00" fill="#666666">[bigint]</text>
</g>
<!-- public.checkup_service_group&#45;&gt;public.service_groups -->
<g id="edge16" class="edge">
<title>public.checkup_service_group:service_group_id&#45;&gt;public.service_groups:id</title>
<path fill="none" stroke="black" d="M5323.99,-525.76C5334.56,-517.01 5321.55,-489.85 5313.11,-470 5289.07,-413.45 5239.05,-429.03 5215.18,-372.4 5198.92,-333.82 5172.31,-278.2 5214.18,-278.2"/>
<polygon fill="black" stroke="black" points="5324.04,-525.75 5313.19,-524.18 5318.92,-527.22 5314.75,-528.42 5314.75,-528.42 5314.75,-528.42 5318.92,-527.22 5315.68,-532.83 5324.04,-525.75"/>
</g>
<!-- public.service_group_test_set -->
<g id="node17" class="node">
<title>public.service_group_test_set</title>
<polygon fill="#efefef" stroke="none" points="5417.19,-574.8 5417.19,-610.4 5770.12,-610.4 5770.12,-574.8 5417.19,-574.8"/>
<polygon fill="none" stroke="black" points="5417.19,-574.8 5417.19,-610.4 5770.12,-610.4 5770.12,-574.8 5417.19,-574.8"/>
<text text-anchor="start" x="5424.19" y="-588.2" font-family="Arial Bold" font-size="18.00">public.service_group_test_set</text>
<text text-anchor="start" x="5638.63" y="-588.2" font-family="Arial" font-size="14.00">    </text>
<text text-anchor="start" x="5669.75" y="-588.2" font-family="Arial" font-size="14.00" fill="#666666">[BASE TABLE]</text>
<polygon fill="none" stroke="black" points="5417.19,-544 5417.19,-574.8 5770.12,-574.8 5770.12,-544 5417.19,-544"/>
<text text-anchor="start" x="5424.19" y="-556.2" font-family="Arial" font-size="14.00">service_group_id </text>
<text text-anchor="start" x="5534.7" y="-556.2" font-family="Arial" font-size="14.00" fill="#666666">[bigint]</text>
<polygon fill="none" stroke="black" points="5417.19,-513.2 5417.19,-544 5770.12,-544 5770.12,-513.2 5417.19,-513.2"/>
<text text-anchor="start" x="5424.19" y="-525.4" font-family="Arial" font-size="14.00">test_set_id </text>
<text text-anchor="start" x="5495.79" y="-525.4" font-family="Arial" font-size="14.00" fill="#666666">[bigint]</text>
</g>
<!-- public.service_group_test_set&#45;&gt;public.service_groups -->
<g id="edge17" class="edge">
<title>public.service_group_test_set:service_group_id&#45;&gt;public.service_groups:id</title>
<path fill="none" stroke="black" d="M5406.02,-557.84C5381.54,-548.87 5403.57,-503 5417.19,-470 5440.27,-414.06 5489.06,-428.35 5512.13,-372.4 5528.09,-333.69 5555,-278.2 5513.13,-278.2"/>
<polygon fill="black" stroke="black" points="5405.97,-557.83 5415.18,-563.8 5411.25,-558.64 5415.53,-559.3 5415.53,-559.3 5415.53,-559.3 5411.25,-558.64 5416.54,-554.9 5405.97,-557.83"/>
</g>
<!-- public.company_order_service_group -->
<g id="node18" class="node">
<title>public.company_order_service_group</title>
<polygon fill="#efefef" stroke="none" points="5874.71,-574.8 5874.71,-610.4 6286.61,-610.4 6286.61,-574.8 5874.71,-574.8"/>
<polygon fill="none" stroke="black" points="5874.71,-574.8 5874.71,-610.4 6286.61,-610.4 6286.61,-574.8 5874.71,-574.8"/>
<text text-anchor="start" x="5881.71" y="-588.2" font-family="Arial Bold" font-size="18.00">public.company_order_service_group</text>
<text text-anchor="start" x="6155.12" y="-588.2" font-family="Arial" font-size="14.00">    </text>
<text text-anchor="start" x="6186.23" y="-588.2" font-family="Arial" font-size="14.00" fill="#666666">[BASE TABLE]</text>
<polygon fill="none" stroke="black" points="5874.71,-544 5874.71,-574.8 6286.61,-574.8 6286.61,-544 5874.71,-544"/>
<text text-anchor="start" x="5881.71" y="-556.2" font-family="Arial" font-size="14.00">service_group_id </text>
<text text-anchor="start" x="5992.22" y="-556.2" font-family="Arial" font-size="14.00" fill="#666666">[bigint]</text>
<polygon fill="none" stroke="black" points="5874.71,-513.2 5874.71,-544 6286.61,-544 6286.61,-513.2 5874.71,-513.2"/>
<text text-anchor="start" x="5881.71" y="-525.4" font-family="Arial" font-size="14.00">company_order_id </text>
<text text-anchor="start" x="6001.55" y="-525.4" font-family="Arial" font-size="14.00" fill="#666666">[bigint]</text>
</g>
<!-- public.company_order_service_group&#45;&gt;public.service_groups -->
<g id="edge18" class="edge">
<title>public.company_order_service_group:service_group_id&#45;&gt;public.service_groups:id</title>
<path fill="none" stroke="black" d="M5863.47,-558.41C5821.45,-549.25 5859.45,-478.98 5822.66,-439.2 5717.37,-325.36 5668.19,-278.2 5513.13,-278.2"/>
<polygon fill="black" stroke="black" points="5863.42,-558.4 5872.94,-563.85 5868.73,-558.92 5873.04,-559.34 5873.04,-559.34 5873.04,-559.34 5868.73,-558.92 5873.81,-554.89 5863.42,-558.4"/>
</g>
<!-- public.package_service_group -->
<g id="node19" class="node">
<title>public.package_service_group</title>
<polygon fill="#efefef" stroke="none" points="6390.71,-574.8 6390.71,-610.4 6748.61,-610.4 6748.61,-574.8 6390.71,-574.8"/>
<polygon fill="none" stroke="black" points="6390.71,-574.8 6390.71,-610.4 6748.61,-610.4 6748.61,-574.8 6390.71,-574.8"/>
<text text-anchor="start" x="6397.71" y="-588.2" font-family="Arial Bold" font-size="18.00">public.package_service_group</text>
<text text-anchor="start" x="6617.12" y="-588.2" font-family="Arial" font-size="14.00">    </text>
<text text-anchor="start" x="6648.23" y="-588.2" font-family="Arial" font-size="14.00" fill="#666666">[BASE TABLE]</text>
<polygon fill="none" stroke="black" points="6390.71,-544 6390.71,-574.8 6748.61,-574.8 6748.61,-544 6390.71,-544"/>
<text text-anchor="start" x="6397.71" y="-556.2" font-family="Arial" font-size="14.00">package_id </text>
<text text-anchor="start" x="6473.21" y="-556.2" font-family="Arial" font-size="14.00" fill="#666666">[bigint]</text>
<polygon fill="none" stroke="black" points="6390.71,-513.2 6390.71,-544 6748.61,-544 6748.61,-513.2 6390.71,-513.2"/>
<text text-anchor="start" x="6397.71" y="-525.4" font-family="Arial" font-size="14.00">service_group_id </text>
<text text-anchor="start" x="6508.22" y="-525.4" font-family="Arial" font-size="14.00" fill="#666666">[bigint]</text>
</g>
<!-- public.package_service_group&#45;&gt;public.service_groups -->
<g id="edge19" class="edge">
<title>public.package_service_group:service_group_id&#45;&gt;public.service_groups:id</title>
<path fill="none" stroke="black" d="M6379.54,-527.27C6348.92,-518.08 6372.64,-463.58 6338.66,-439.2 6186.79,-330.25 5700.04,-278.2 5513.13,-278.2"/>
<polygon fill="black" stroke="black" points="6379.46,-527.26 6388.79,-533.02 6384.75,-527.95 6389.04,-528.51 6389.04,-528.51 6389.04,-528.51 6384.75,-527.95 6389.96,-524.09 6379.46,-527.26"/>
</g>
<!-- public.category_service_group -->
<g id="node20" class="node">
<title>public.category_service_group</title>
<polygon fill="#efefef" stroke="none" points="6853.2,-574.8 6853.2,-610.4 7214.11,-610.4 7214.11,-574.8 6853.2,-574.8"/>
<polygon fill="none" stroke="black" points="6853.2,-574.8 6853.2,-610.4 7214.11,-610.4 7214.11,-574.8 6853.2,-574.8"/>
<text text-anchor="start" x="6860.2" y="-588.2" font-family="Arial Bold" font-size="18.00">public.category_service_group</text>
<text text-anchor="start" x="7082.62" y="-588.2" font-family="Arial" font-size="14.00">    </text>
<text text-anchor="start" x="7113.74" y="-588.2" font-family="Arial" font-size="14.00" fill="#666666">[BASE TABLE]</text>
<polygon fill="none" stroke="black" points="6853.2,-544 6853.2,-574.8 7214.11,-574.8 7214.11,-544 6853.2,-544"/>
<text text-anchor="start" x="6860.2" y="-556.2" font-family="Arial" font-size="14.00">service_group_id </text>
<text text-anchor="start" x="6970.71" y="-556.2" font-family="Arial" font-size="14.00" fill="#666666">[integer]</text>
<polygon fill="none" stroke="black" points="6853.2,-513.2 6853.2,-544 7214.11,-544 7214.11,-513.2 6853.2,-513.2"/>
<text text-anchor="start" x="6860.2" y="-525.4" font-family="Arial" font-size="14.00">category_id </text>
<text text-anchor="start" x="6936.47" y="-525.4" font-family="Arial" font-size="14.00" fill="#666666">[integer]</text>
</g>
<!-- public.category_service_group&#45;&gt;public.service_groups -->
<g id="edge20" class="edge">
<title>public.category_service_group:service_group_id&#45;&gt;public.service_groups:id</title>
<path fill="none" stroke="black" d="M6842.03,-558.31C6800.68,-548.3 6844.02,-471.83 6800.66,-439.2 6685.45,-352.52 5657.3,-278.2 5513.13,-278.2"/>
<polygon fill="black" stroke="black" points="6841.93,-558.3 6851.39,-563.84 6847.23,-558.87 6851.54,-559.33 6851.54,-559.33 6851.54,-559.33 6847.23,-558.87 6852.35,-554.89 6841.93,-558.3"/>
</g>
</g>
</svg>
