<?xml version="1.0" encoding="UTF-8" standalone="no"?>
<!DOCTYPE svg PUBLIC "-//W3C//DTD SVG 1.1//EN"
 "http://www.w3.org/Graphics/SVG/1.1/DTD/svg11.dtd">
<!-- Generated by graphviz version 12.1.2 (20240928.0832)
 -->
<!-- Title: public.category_service_group Pages: 1 -->
<svg width="4156pt" height="394pt"
 viewBox="0.00 0.00 4156.31 393.94" xmlns="http://www.w3.org/2000/svg" xmlns:xlink="http://www.w3.org/1999/xlink">
<g id="graph0" class="graph" transform="scale(1 1) rotate(0) translate(4 389.94)">
<title>public.category_service_group</title>
<polygon fill="white" stroke="none" points="-4,4 -4,-389.94 4152.31,-389.94 4152.31,4 -4,4"/>
<!-- public.category_service_group -->
<g id="node1" class="node">
<title>public.category_service_group</title>
<polygon fill="#efefef" stroke="none" points="2904.7,-304.14 2904.7,-339.74 3265.61,-339.74 3265.61,-304.14 2904.7,-304.14"/>
<polygon fill="none" stroke="black" points="2904.7,-304.14 2904.7,-339.74 3265.61,-339.74 3265.61,-304.14 2904.7,-304.14"/>
<text text-anchor="start" x="2911.7" y="-317.54" font-family="Arial Bold" font-size="18.00">public.category_service_group</text>
<text text-anchor="start" x="3134.12" y="-317.54" font-family="Arial" font-size="14.00">    </text>
<text text-anchor="start" x="3165.24" y="-317.54" font-family="Arial" font-size="14.00" fill="#666666">[BASE TABLE]</text>
<polygon fill="none" stroke="black" points="2904.7,-273.34 2904.7,-304.14 3265.61,-304.14 3265.61,-273.34 2904.7,-273.34"/>
<text text-anchor="start" x="2911.7" y="-285.54" font-family="Arial" font-size="14.00">service_group_id </text>
<text text-anchor="start" x="3022.21" y="-285.54" font-family="Arial" font-size="14.00" fill="#666666">[integer]</text>
<polygon fill="none" stroke="black" points="2904.7,-242.54 2904.7,-273.34 3265.61,-273.34 3265.61,-242.54 2904.7,-242.54"/>
<text text-anchor="start" x="2911.7" y="-254.74" font-family="Arial" font-size="14.00">category_id </text>
<text text-anchor="start" x="2987.97" y="-254.74" font-family="Arial" font-size="14.00" fill="#666666">[integer]</text>
<polygon fill="none" stroke="black" stroke-width="3" points="2903.2,-241.04 2903.2,-341.24 3267.11,-341.24 3267.11,-241.04 2903.2,-241.04"/>
</g>
<!-- public.service_groups -->
<g id="node2" class="node">
<title>public.service_groups</title>
<polygon fill="#efefef" stroke="none" points="1263.68,-81.54 1263.68,-117.14 1560.63,-117.14 1560.63,-81.54 1263.68,-81.54"/>
<polygon fill="none" stroke="black" points="1263.68,-81.54 1263.68,-117.14 1560.63,-117.14 1560.63,-81.54 1263.68,-81.54"/>
<text text-anchor="start" x="1270.68" y="-94.94" font-family="Arial Bold" font-size="18.00">public.service_groups</text>
<text text-anchor="start" x="1429.14" y="-94.94" font-family="Arial" font-size="14.00">    </text>
<text text-anchor="start" x="1460.26" y="-94.94" font-family="Arial" font-size="14.00" fill="#666666">[BASE TABLE]</text>
<polygon fill="none" stroke="black" points="1263.68,-50.74 1263.68,-81.54 1560.63,-81.54 1560.63,-50.74 1263.68,-50.74"/>
<text text-anchor="start" x="1270.68" y="-62.94" font-family="Arial" font-size="14.00">id </text>
<text text-anchor="start" x="1285.47" y="-62.94" font-family="Arial" font-size="14.00" fill="#666666">[bigint]</text>
</g>
<!-- public.category_service_group&#45;&gt;public.service_groups -->
<g id="edge1" class="edge">
<title>public.category_service_group:service_group_id&#45;&gt;public.service_groups:id</title>
<path fill="none" stroke="black" d="M2893.52,-287.45C2860.98,-278.07 2886.03,-219.93 2849.16,-196.34 2728.03,-118.85 1705.42,-66.14 1561.63,-66.14"/>
<polygon fill="black" stroke="black" points="2893.45,-287.44 2902.81,-293.16 2898.74,-288.11 2903.04,-288.65 2903.04,-288.65 2903.04,-288.65 2898.74,-288.11 2903.93,-284.23 2893.45,-287.44"/>
</g>
<!-- public.categories -->
<g id="node9" class="node">
<title>public.categories</title>
<polygon fill="#efefef" stroke="none" points="3397.69,-81.54 3397.69,-117.14 3658.62,-117.14 3658.62,-81.54 3397.69,-81.54"/>
<polygon fill="none" stroke="black" points="3397.69,-81.54 3397.69,-117.14 3658.62,-117.14 3658.62,-81.54 3397.69,-81.54"/>
<text text-anchor="start" x="3404.69" y="-94.94" font-family="Arial Bold" font-size="18.00">public.categories</text>
<text text-anchor="start" x="3527.14" y="-94.94" font-family="Arial" font-size="14.00">    </text>
<text text-anchor="start" x="3558.25" y="-94.94" font-family="Arial" font-size="14.00" fill="#666666">[BASE TABLE]</text>
<polygon fill="none" stroke="black" points="3397.69,-50.74 3397.69,-81.54 3658.62,-81.54 3658.62,-50.74 3397.69,-50.74"/>
<text text-anchor="start" x="3404.69" y="-62.94" font-family="Arial" font-size="14.00">id </text>
<text text-anchor="start" x="3419.47" y="-62.94" font-family="Arial" font-size="14.00" fill="#666666">[bigint]</text>
</g>
<!-- public.category_service_group&#45;&gt;public.categories -->
<g id="edge9" class="edge">
<title>public.category_service_group:category_id&#45;&gt;public.categories:id</title>
<path fill="none" stroke="black" d="M3276.56,-255.51C3321.81,-233.31 3348.61,-66.14 3396.69,-66.14"/>
<polygon fill="black" stroke="black" points="3276.65,-255.49 3265.87,-253.48 3271.47,-256.75 3267.26,-257.78 3267.26,-257.78 3267.26,-257.78 3271.47,-256.75 3268,-262.23 3276.65,-255.49"/>
</g>
<!-- public.service_service_group -->
<g id="node3" class="node">
<title>public.service_service_group</title>
<polygon fill="#efefef" stroke="none" points="43.2,-304.14 43.2,-339.74 393.11,-339.74 393.11,-304.14 43.2,-304.14"/>
<polygon fill="none" stroke="black" points="43.2,-304.14 43.2,-339.74 393.11,-339.74 393.11,-304.14 43.2,-304.14"/>
<text text-anchor="start" x="50.2" y="-317.54" font-family="Arial Bold" font-size="18.00">public.service_service_group</text>
<text text-anchor="start" x="261.62" y="-317.54" font-family="Arial" font-size="14.00">    </text>
<text text-anchor="start" x="292.74" y="-317.54" font-family="Arial" font-size="14.00" fill="#666666">[BASE TABLE]</text>
<polygon fill="none" stroke="black" points="43.2,-273.34 43.2,-304.14 393.11,-304.14 393.11,-273.34 43.2,-273.34"/>
<text text-anchor="start" x="50.2" y="-285.54" font-family="Arial" font-size="14.00">service_id </text>
<text text-anchor="start" x="117.12" y="-285.54" font-family="Arial" font-size="14.00" fill="#666666">[bigint]</text>
<polygon fill="none" stroke="black" points="43.2,-242.54 43.2,-273.34 393.11,-273.34 393.11,-242.54 43.2,-242.54"/>
<text text-anchor="start" x="50.2" y="-254.74" font-family="Arial" font-size="14.00">service_group_id </text>
<text text-anchor="start" x="160.71" y="-254.74" font-family="Arial" font-size="14.00" fill="#666666">[bigint]</text>
</g>
<!-- public.service_service_group&#45;&gt;public.service_groups -->
<g id="edge2" class="edge">
<title>public.service_service_group:service_group_id&#45;&gt;public.service_groups:id</title>
<path fill="none" stroke="black" d="M404.37,-256.34C426.77,-248.31 417.77,-211.96 445.16,-196.34 604.95,-105.19 1078.72,-66.14 1262.68,-66.14"/>
<polygon fill="black" stroke="black" points="404.32,-256.35 393.75,-253.44 399.05,-257.17 394.77,-257.83 394.77,-257.83 394.77,-257.83 399.05,-257.17 395.13,-262.33 404.32,-256.35"/>
</g>
<!-- public.service_group_service_group -->
<g id="node4" class="node">
<title>public.service_group_service_group</title>
<polygon fill="#efefef" stroke="none" points="497.7,-304.14 497.7,-339.74 898.61,-339.74 898.61,-304.14 497.7,-304.14"/>
<polygon fill="none" stroke="black" points="497.7,-304.14 497.7,-339.74 898.61,-339.74 898.61,-304.14 497.7,-304.14"/>
<text text-anchor="start" x="504.7" y="-317.54" font-family="Arial Bold" font-size="18.00">public.service_group_service_group</text>
<text text-anchor="start" x="767.12" y="-317.54" font-family="Arial" font-size="14.00">    </text>
<text text-anchor="start" x="798.24" y="-317.54" font-family="Arial" font-size="14.00" fill="#666666">[BASE TABLE]</text>
<polygon fill="none" stroke="black" points="497.7,-273.34 497.7,-304.14 898.61,-304.14 898.61,-273.34 497.7,-273.34"/>
<text text-anchor="start" x="504.7" y="-285.54" font-family="Arial" font-size="14.00">parent_id </text>
<text text-anchor="start" x="566.97" y="-285.54" font-family="Arial" font-size="14.00" fill="#666666">[bigint]</text>
<polygon fill="none" stroke="black" points="497.7,-242.54 497.7,-273.34 898.61,-273.34 898.61,-242.54 497.7,-242.54"/>
<text text-anchor="start" x="504.7" y="-254.74" font-family="Arial" font-size="14.00">child_id </text>
<text text-anchor="start" x="556.07" y="-254.74" font-family="Arial" font-size="14.00" fill="#666666">[bigint]</text>
</g>
<!-- public.service_group_service_group&#45;&gt;public.service_groups -->
<g id="edge3" class="edge">
<title>public.service_group_service_group:child_id&#45;&gt;public.service_groups:id</title>
<path fill="none" stroke="black" d="M909.9,-256.46C932.55,-249.01 924.95,-215.07 950.16,-196.34 1070.92,-106.57 1112.21,-66.14 1262.68,-66.14"/>
<polygon fill="black" stroke="black" points="909.84,-256.47 899.3,-253.43 904.56,-257.23 900.27,-257.84 900.27,-257.84 900.27,-257.84 904.56,-257.23 900.58,-262.34 909.84,-256.47"/>
</g>
<!-- public.service_group_service_group&#45;&gt;public.service_groups -->
<g id="edge4" class="edge">
<title>public.service_group_service_group:parent_id&#45;&gt;public.service_groups:id</title>
<path fill="none" stroke="black" d="M909.63,-287.55C941.76,-278.91 918.21,-225.07 950.16,-196.34 1062.03,-95.71 1112.21,-66.14 1262.68,-66.14"/>
<polygon fill="black" stroke="black" points="909.87,-287.52 899.41,-284.23 904.57,-288.15 900.27,-288.66 900.27,-288.66 900.27,-288.66 904.57,-288.15 900.47,-293.17 909.87,-287.52"/>
</g>
<!-- public.checkup_service_group -->
<g id="node5" class="node">
<title>public.checkup_service_group</title>
<polygon fill="#efefef" stroke="none" points="1002.7,-304.14 1002.7,-339.74 1361.61,-339.74 1361.61,-304.14 1002.7,-304.14"/>
<polygon fill="none" stroke="black" points="1002.7,-304.14 1002.7,-339.74 1361.61,-339.74 1361.61,-304.14 1002.7,-304.14"/>
<text text-anchor="start" x="1009.7" y="-317.54" font-family="Arial Bold" font-size="18.00">public.checkup_service_group</text>
<text text-anchor="start" x="1230.12" y="-317.54" font-family="Arial" font-size="14.00">    </text>
<text text-anchor="start" x="1261.24" y="-317.54" font-family="Arial" font-size="14.00" fill="#666666">[BASE TABLE]</text>
<polygon fill="none" stroke="black" points="1002.7,-273.34 1002.7,-304.14 1361.61,-304.14 1361.61,-273.34 1002.7,-273.34"/>
<text text-anchor="start" x="1009.7" y="-285.54" font-family="Arial" font-size="14.00">checkup_id </text>
<text text-anchor="start" x="1084.42" y="-285.54" font-family="Arial" font-size="14.00" fill="#666666">[bigint]</text>
<polygon fill="none" stroke="black" points="1002.7,-242.54 1002.7,-273.34 1361.61,-273.34 1361.61,-242.54 1002.7,-242.54"/>
<text text-anchor="start" x="1009.7" y="-254.74" font-family="Arial" font-size="14.00">service_group_id </text>
<text text-anchor="start" x="1120.21" y="-254.74" font-family="Arial" font-size="14.00" fill="#666666">[bigint]</text>
</g>
<!-- public.checkup_service_group&#45;&gt;public.service_groups -->
<g id="edge5" class="edge">
<title>public.checkup_service_group:service_group_id&#45;&gt;public.service_groups:id</title>
<path fill="none" stroke="black" d="M1372.5,-255.17C1384.57,-246.16 1373.98,-217.25 1361.61,-199.34 1334.99,-160.79 1290.18,-198.97 1263.68,-160.34 1240,-125.81 1220.81,-66.14 1262.68,-66.14"/>
<polygon fill="black" stroke="black" points="1372.56,-255.15 1361.72,-253.51 1367.43,-256.59 1363.25,-257.76 1363.25,-257.76 1363.25,-257.76 1367.43,-256.59 1364.15,-262.18 1372.56,-255.15"/>
</g>
<!-- public.service_group_test_set -->
<g id="node6" class="node">
<title>public.service_group_test_set</title>
<polygon fill="#efefef" stroke="none" points="1465.69,-304.14 1465.69,-339.74 1818.62,-339.74 1818.62,-304.14 1465.69,-304.14"/>
<polygon fill="none" stroke="black" points="1465.69,-304.14 1465.69,-339.74 1818.62,-339.74 1818.62,-304.14 1465.69,-304.14"/>
<text text-anchor="start" x="1472.69" y="-317.54" font-family="Arial Bold" font-size="18.00">public.service_group_test_set</text>
<text text-anchor="start" x="1687.13" y="-317.54" font-family="Arial" font-size="14.00">    </text>
<text text-anchor="start" x="1718.25" y="-317.54" font-family="Arial" font-size="14.00" fill="#666666">[BASE TABLE]</text>
<polygon fill="none" stroke="black" points="1465.69,-273.34 1465.69,-304.14 1818.62,-304.14 1818.62,-273.34 1465.69,-273.34"/>
<text text-anchor="start" x="1472.69" y="-285.54" font-family="Arial" font-size="14.00">service_group_id </text>
<text text-anchor="start" x="1583.2" y="-285.54" font-family="Arial" font-size="14.00" fill="#666666">[bigint]</text>
<polygon fill="none" stroke="black" points="1465.69,-242.54 1465.69,-273.34 1818.62,-273.34 1818.62,-242.54 1465.69,-242.54"/>
<text text-anchor="start" x="1472.69" y="-254.74" font-family="Arial" font-size="14.00">test_set_id </text>
<text text-anchor="start" x="1544.29" y="-254.74" font-family="Arial" font-size="14.00" fill="#666666">[bigint]</text>
</g>
<!-- public.service_group_test_set&#45;&gt;public.service_groups -->
<g id="edge6" class="edge">
<title>public.service_group_test_set:service_group_id&#45;&gt;public.service_groups:id</title>
<path fill="none" stroke="black" d="M1454.66,-287.19C1428.59,-277.92 1445.56,-229.01 1465.69,-199.34 1491.3,-161.59 1535.03,-198.09 1560.63,-160.34 1584.13,-125.68 1603.5,-66.14 1561.63,-66.14"/>
<polygon fill="black" stroke="black" points="1454.47,-287.16 1463.67,-293.13 1459.75,-287.98 1464.03,-288.63 1464.03,-288.63 1464.03,-288.63 1459.75,-287.98 1465.04,-284.24 1454.47,-287.16"/>
</g>
<!-- public.company_order_service_group -->
<g id="node7" class="node">
<title>public.company_order_service_group</title>
<polygon fill="#efefef" stroke="none" points="1923.21,-304.14 1923.21,-339.74 2335.1,-339.74 2335.1,-304.14 1923.21,-304.14"/>
<polygon fill="none" stroke="black" points="1923.21,-304.14 1923.21,-339.74 2335.1,-339.74 2335.1,-304.14 1923.21,-304.14"/>
<text text-anchor="start" x="1930.21" y="-317.54" font-family="Arial Bold" font-size="18.00">public.company_order_service_group</text>
<text text-anchor="start" x="2203.62" y="-317.54" font-family="Arial" font-size="14.00">    </text>
<text text-anchor="start" x="2234.73" y="-317.54" font-family="Arial" font-size="14.00" fill="#666666">[BASE TABLE]</text>
<polygon fill="none" stroke="black" points="1923.21,-273.34 1923.21,-304.14 2335.1,-304.14 2335.1,-273.34 1923.21,-273.34"/>
<text text-anchor="start" x="1930.21" y="-285.54" font-family="Arial" font-size="14.00">service_group_id </text>
<text text-anchor="start" x="2040.72" y="-285.54" font-family="Arial" font-size="14.00" fill="#666666">[bigint]</text>
<polygon fill="none" stroke="black" points="1923.21,-242.54 1923.21,-273.34 2335.1,-273.34 2335.1,-242.54 1923.21,-242.54"/>
<text text-anchor="start" x="1930.21" y="-254.74" font-family="Arial" font-size="14.00">company_order_id </text>
<text text-anchor="start" x="2050.05" y="-254.74" font-family="Arial" font-size="14.00" fill="#666666">[bigint]</text>
</g>
<!-- public.company_order_service_group&#45;&gt;public.service_groups -->
<g id="edge7" class="edge">
<title>public.company_order_service_group:service_group_id&#45;&gt;public.service_groups:id</title>
<path fill="none" stroke="black" d="M1912.15,-287.55C1879.89,-278.92 1903.19,-225.12 1871.16,-196.34 1760.15,-96.58 1710.87,-66.14 1561.63,-66.14"/>
<polygon fill="black" stroke="black" points="1911.94,-287.53 1921.35,-293.17 1917.24,-288.15 1921.54,-288.66 1921.54,-288.66 1921.54,-288.66 1917.24,-288.15 1922.4,-284.23 1911.94,-287.53"/>
</g>
<!-- public.package_service_group -->
<g id="node8" class="node">
<title>public.package_service_group</title>
<polygon fill="#efefef" stroke="none" points="2439.21,-304.14 2439.21,-339.74 2797.1,-339.74 2797.1,-304.14 2439.21,-304.14"/>
<polygon fill="none" stroke="black" points="2439.21,-304.14 2439.21,-339.74 2797.1,-339.74 2797.1,-304.14 2439.21,-304.14"/>
<text text-anchor="start" x="2446.21" y="-317.54" font-family="Arial Bold" font-size="18.00">public.package_service_group</text>
<text text-anchor="start" x="2665.62" y="-317.54" font-family="Arial" font-size="14.00">    </text>
<text text-anchor="start" x="2696.73" y="-317.54" font-family="Arial" font-size="14.00" fill="#666666">[BASE TABLE]</text>
<polygon fill="none" stroke="black" points="2439.21,-273.34 2439.21,-304.14 2797.1,-304.14 2797.1,-273.34 2439.21,-273.34"/>
<text text-anchor="start" x="2446.21" y="-285.54" font-family="Arial" font-size="14.00">package_id </text>
<text text-anchor="start" x="2521.71" y="-285.54" font-family="Arial" font-size="14.00" fill="#666666">[bigint]</text>
<polygon fill="none" stroke="black" points="2439.21,-242.54 2439.21,-273.34 2797.1,-273.34 2797.1,-242.54 2439.21,-242.54"/>
<text text-anchor="start" x="2446.21" y="-254.74" font-family="Arial" font-size="14.00">service_group_id </text>
<text text-anchor="start" x="2556.72" y="-254.74" font-family="Arial" font-size="14.00" fill="#666666">[bigint]</text>
</g>
<!-- public.package_service_group&#45;&gt;public.service_groups -->
<g id="edge8" class="edge">
<title>public.package_service_group:service_group_id&#45;&gt;public.service_groups:id</title>
<path fill="none" stroke="black" d="M2427.94,-256.34C2405.54,-248.3 2414.55,-211.94 2387.16,-196.34 2225.76,-104.44 1747.35,-66.14 1561.63,-66.14"/>
<polygon fill="black" stroke="black" points="2427.99,-256.35 2437.19,-262.33 2433.26,-257.17 2437.54,-257.83 2437.54,-257.83 2437.54,-257.83 2433.26,-257.17 2438.56,-253.44 2427.99,-256.35"/>
</g>
<!-- public.category_service -->
<g id="node10" class="node">
<title>public.category_service</title>
<polygon fill="#efefef" stroke="none" points="3373.2,-304.14 3373.2,-339.74 3683.11,-339.74 3683.11,-304.14 3373.2,-304.14"/>
<polygon fill="none" stroke="black" points="3373.2,-304.14 3373.2,-339.74 3683.11,-339.74 3683.11,-304.14 3373.2,-304.14"/>
<text text-anchor="start" x="3380.2" y="-317.54" font-family="Arial Bold" font-size="18.00">public.category_service</text>
<text text-anchor="start" x="3551.62" y="-317.54" font-family="Arial" font-size="14.00">    </text>
<text text-anchor="start" x="3582.74" y="-317.54" font-family="Arial" font-size="14.00" fill="#666666">[BASE TABLE]</text>
<polygon fill="none" stroke="black" points="3373.2,-273.34 3373.2,-304.14 3683.11,-304.14 3683.11,-273.34 3373.2,-273.34"/>
<text text-anchor="start" x="3380.2" y="-285.54" font-family="Arial" font-size="14.00">service_id </text>
<text text-anchor="start" x="3447.12" y="-285.54" font-family="Arial" font-size="14.00" fill="#666666">[bigint]</text>
<polygon fill="none" stroke="black" points="3373.2,-242.54 3373.2,-273.34 3683.11,-273.34 3683.11,-242.54 3373.2,-242.54"/>
<text text-anchor="start" x="3380.2" y="-254.74" font-family="Arial" font-size="14.00">category_id </text>
<text text-anchor="start" x="3456.47" y="-254.74" font-family="Arial" font-size="14.00" fill="#666666">[integer]</text>
</g>
<!-- public.category_service&#45;&gt;public.categories -->
<g id="edge10" class="edge">
<title>public.category_service:category_id&#45;&gt;public.categories:id</title>
<path fill="none" stroke="black" d="M3528.85,-231.42C3539,-162.58 3658.05,-229.13 3701.82,-160.34 3727.98,-119.24 3736.17,-85.28 3701.82,-50.74 3647.4,4 3528.16,27.45 3528.16,-49.74"/>
<polygon fill="black" stroke="black" points="3528.86,-231.23 3523.69,-240.89 3528.5,-236.55 3528.2,-240.87 3528.2,-240.87 3528.2,-240.87 3528.5,-236.55 3532.67,-241.51 3528.86,-231.23"/>
</g>
<!-- public.category_package -->
<g id="node11" class="node">
<title>public.category_package</title>
<polygon fill="#efefef" stroke="none" points="3787.2,-304.14 3787.2,-339.74 4105.11,-339.74 4105.11,-304.14 3787.2,-304.14"/>
<polygon fill="none" stroke="black" points="3787.2,-304.14 3787.2,-339.74 4105.11,-339.74 4105.11,-304.14 3787.2,-304.14"/>
<text text-anchor="start" x="3794.2" y="-317.54" font-family="Arial Bold" font-size="18.00">public.category_package</text>
<text text-anchor="start" x="3973.62" y="-317.54" font-family="Arial" font-size="14.00">    </text>
<text text-anchor="start" x="4004.73" y="-317.54" font-family="Arial" font-size="14.00" fill="#666666">[BASE TABLE]</text>
<polygon fill="none" stroke="black" points="3787.2,-273.34 3787.2,-304.14 4105.11,-304.14 4105.11,-273.34 3787.2,-273.34"/>
<text text-anchor="start" x="3794.2" y="-285.54" font-family="Arial" font-size="14.00">package_id </text>
<text text-anchor="start" x="3869.71" y="-285.54" font-family="Arial" font-size="14.00" fill="#666666">[integer]</text>
<polygon fill="none" stroke="black" points="3787.2,-242.54 3787.2,-273.34 4105.11,-273.34 4105.11,-242.54 3787.2,-242.54"/>
<text text-anchor="start" x="3794.2" y="-254.74" font-family="Arial" font-size="14.00">category_id </text>
<text text-anchor="start" x="3870.47" y="-254.74" font-family="Arial" font-size="14.00" fill="#666666">[integer]</text>
</g>
<!-- public.category_package&#45;&gt;public.categories -->
<g id="edge11" class="edge">
<title>public.category_package:category_id&#45;&gt;public.categories:id</title>
<path fill="none" stroke="black" d="M3776.09,-255.37C3731.67,-232.61 3707.2,-66.14 3659.62,-66.14"/>
<polygon fill="black" stroke="black" points="3776.19,-255.39 3784.77,-262.22 3781.36,-256.71 3785.56,-257.77 3785.56,-257.77 3785.56,-257.77 3781.36,-256.71 3786.99,-253.49 3776.19,-255.39"/>
</g>
</g>
</svg>
