<?xml version="1.0" encoding="UTF-8" standalone="no"?>
<!DOCTYPE svg PUBLIC "-//W3C//DTD SVG 1.1//EN"
 "http://www.w3.org/Graphics/SVG/1.1/DTD/svg11.dtd">
<!-- Generated by graphviz version 12.1.2 (20240928.0832)
 -->
<!-- Title: public.category_service Pages: 1 -->
<svg width="5285pt" height="692pt"
 viewBox="0.00 0.00 5284.81 692.40" xmlns="http://www.w3.org/2000/svg" xmlns:xlink="http://www.w3.org/1999/xlink">
<g id="graph0" class="graph" transform="scale(1 1) rotate(0) translate(4 688.4)">
<title>public.category_service</title>
<polygon fill="white" stroke="none" points="-4,4 -4,-688.4 5280.81,-688.4 5280.81,4 -4,4"/>
<!-- public.category_service -->
<g id="node1" class="node">
<title>public.category_service</title>
<polygon fill="#efefef" stroke="none" points="4032.7,-574.8 4032.7,-610.4 4342.61,-610.4 4342.61,-574.8 4032.7,-574.8"/>
<polygon fill="none" stroke="black" points="4032.7,-574.8 4032.7,-610.4 4342.61,-610.4 4342.61,-574.8 4032.7,-574.8"/>
<text text-anchor="start" x="4039.7" y="-588.2" font-family="Arial Bold" font-size="18.00">public.category_service</text>
<text text-anchor="start" x="4211.12" y="-588.2" font-family="Arial" font-size="14.00">    </text>
<text text-anchor="start" x="4242.24" y="-588.2" font-family="Arial" font-size="14.00" fill="#666666">[BASE TABLE]</text>
<polygon fill="none" stroke="black" points="4032.7,-544 4032.7,-574.8 4342.61,-574.8 4342.61,-544 4032.7,-544"/>
<text text-anchor="start" x="4039.7" y="-556.2" font-family="Arial" font-size="14.00">service_id </text>
<text text-anchor="start" x="4106.62" y="-556.2" font-family="Arial" font-size="14.00" fill="#666666">[bigint]</text>
<polygon fill="none" stroke="black" points="4032.7,-513.2 4032.7,-544 4342.61,-544 4342.61,-513.2 4032.7,-513.2"/>
<text text-anchor="start" x="4039.7" y="-525.4" font-family="Arial" font-size="14.00">category_id </text>
<text text-anchor="start" x="4115.97" y="-525.4" font-family="Arial" font-size="14.00" fill="#666666">[integer]</text>
<polygon fill="none" stroke="black" stroke-width="3" points="4031.2,-511.7 4031.2,-611.9 4344.11,-611.9 4344.11,-511.7 4031.2,-511.7"/>
</g>
<!-- public.services -->
<g id="node2" class="node">
<title>public.services</title>
<polygon fill="#efefef" stroke="none" points="1976.68,-324.4 1976.68,-360 2222.63,-360 2222.63,-324.4 1976.68,-324.4"/>
<polygon fill="none" stroke="black" points="1976.68,-324.4 1976.68,-360 2222.63,-360 2222.63,-324.4 1976.68,-324.4"/>
<text text-anchor="start" x="1983.68" y="-337.8" font-family="Arial Bold" font-size="18.00">public.services</text>
<text text-anchor="start" x="2091.14" y="-337.8" font-family="Arial" font-size="14.00">    </text>
<text text-anchor="start" x="2122.26" y="-337.8" font-family="Arial" font-size="14.00" fill="#666666">[BASE TABLE]</text>
<polygon fill="none" stroke="black" points="1976.68,-293.6 1976.68,-324.4 2222.63,-324.4 2222.63,-293.6 1976.68,-293.6"/>
<text text-anchor="start" x="1983.68" y="-305.8" font-family="Arial" font-size="14.00">id </text>
<text text-anchor="start" x="1998.47" y="-305.8" font-family="Arial" font-size="14.00" fill="#666666">[bigint]</text>
<polygon fill="none" stroke="black" points="1976.68,-262.8 1976.68,-293.6 2222.63,-293.6 2222.63,-262.8 1976.68,-262.8"/>
<text text-anchor="start" x="1983.68" y="-275" font-family="Arial" font-size="14.00">attune_department_id </text>
<text text-anchor="start" x="2123.78" y="-275" font-family="Arial" font-size="14.00" fill="#666666">[bigint]</text>
<polygon fill="none" stroke="black" points="1976.68,-232 1976.68,-262.8 2222.63,-262.8 2222.63,-232 1976.68,-232"/>
<text text-anchor="start" x="1983.68" y="-244.2" font-family="Arial" font-size="14.00">simple_cate_id </text>
<text text-anchor="start" x="2080.96" y="-244.2" font-family="Arial" font-size="14.00" fill="#666666">[bigint]</text>
</g>
<!-- public.category_service&#45;&gt;public.services -->
<g id="edge1" class="edge">
<title>public.category_service:service_id&#45;&gt;public.services:id</title>
<path fill="none" stroke="black" d="M4021.44,-558.3C3979.66,-548.13 4022.44,-470.58 3977.66,-439.2 3817.61,-327.06 2419.06,-309 2223.63,-309"/>
<polygon fill="black" stroke="black" points="4021.43,-558.29 4030.89,-563.84 4026.73,-558.86 4031.04,-559.33 4031.04,-559.33 4031.04,-559.33 4026.73,-558.86 4031.85,-554.89 4021.43,-558.29"/>
</g>
<!-- public.categories -->
<g id="node14" class="node">
<title>public.categories</title>
<polygon fill="#efefef" stroke="none" points="4500.19,-293.6 4500.19,-329.2 4761.13,-329.2 4761.13,-293.6 4500.19,-293.6"/>
<polygon fill="none" stroke="black" points="4500.19,-293.6 4500.19,-329.2 4761.13,-329.2 4761.13,-293.6 4500.19,-293.6"/>
<text text-anchor="start" x="4507.19" y="-307" font-family="Arial Bold" font-size="18.00">public.categories</text>
<text text-anchor="start" x="4629.64" y="-307" font-family="Arial" font-size="14.00">    </text>
<text text-anchor="start" x="4660.75" y="-307" font-family="Arial" font-size="14.00" fill="#666666">[BASE TABLE]</text>
<polygon fill="none" stroke="black" points="4500.19,-262.8 4500.19,-293.6 4761.13,-293.6 4761.13,-262.8 4500.19,-262.8"/>
<text text-anchor="start" x="4507.19" y="-275" font-family="Arial" font-size="14.00">id </text>
<text text-anchor="start" x="4521.97" y="-275" font-family="Arial" font-size="14.00" fill="#666666">[bigint]</text>
</g>
<!-- public.category_service&#45;&gt;public.categories -->
<g id="edge13" class="edge">
<title>public.category_service:category_id&#45;&gt;public.categories:id</title>
<path fill="none" stroke="black" d="M4353.82,-527.63C4387.57,-520.48 4375.26,-475.46 4397.66,-439.2 4442.1,-367.22 4414.59,-278.2 4499.19,-278.2"/>
<polygon fill="black" stroke="black" points="4353.9,-527.62 4343.52,-524.09 4348.59,-528.13 4344.28,-528.54 4344.28,-528.54 4344.28,-528.54 4348.59,-528.13 4344.37,-533.05 4353.9,-527.62"/>
</g>
<!-- public.attune_departments -->
<g id="node12" class="node">
<title>public.attune_departments</title>
<polygon fill="#efefef" stroke="none" points="1721.19,-74 1721.19,-109.6 2050.12,-109.6 2050.12,-74 1721.19,-74"/>
<polygon fill="none" stroke="black" points="1721.19,-74 1721.19,-109.6 2050.12,-109.6 2050.12,-74 1721.19,-74"/>
<text text-anchor="start" x="1728.19" y="-87.4" font-family="Arial Bold" font-size="18.00">public.attune_departments</text>
<text text-anchor="start" x="1918.63" y="-87.4" font-family="Arial" font-size="14.00">    </text>
<text text-anchor="start" x="1949.75" y="-87.4" font-family="Arial" font-size="14.00" fill="#666666">[BASE TABLE]</text>
<polygon fill="none" stroke="black" points="1721.19,-43.2 1721.19,-74 2050.12,-74 2050.12,-43.2 1721.19,-43.2"/>
<text text-anchor="start" x="1728.19" y="-55.4" font-family="Arial" font-size="14.00">id </text>
<text text-anchor="start" x="1742.98" y="-55.4" font-family="Arial" font-size="14.00" fill="#666666">[bigint]</text>
</g>
<!-- public.services&#45;&gt;public.attune_departments -->
<g id="edge11" class="edge">
<title>public.services:attune_department_id&#45;&gt;public.attune_departments:id</title>
<path fill="none" stroke="black" d="M1965.68,-276.68C1939.77,-267.51 1957.54,-219.12 1976.68,-188.8 1996.09,-158.06 2030.73,-183.54 2050.12,-152.8 2072.46,-117.39 2092.99,-58.6 2051.12,-58.6"/>
<polygon fill="black" stroke="black" points="1965.46,-276.64 1974.67,-282.6 1970.74,-277.45 1975.02,-278.1 1975.02,-278.1 1975.02,-278.1 1970.74,-277.45 1976.03,-273.7 1965.46,-276.64"/>
</g>
<!-- public.simple_categories -->
<g id="node13" class="node">
<title>public.simple_categories</title>
<polygon fill="#efefef" stroke="none" points="2154.69,-74 2154.69,-109.6 2472.62,-109.6 2472.62,-74 2154.69,-74"/>
<polygon fill="none" stroke="black" points="2154.69,-74 2154.69,-109.6 2472.62,-109.6 2472.62,-74 2154.69,-74"/>
<text text-anchor="start" x="2161.69" y="-87.4" font-family="Arial Bold" font-size="18.00">public.simple_categories</text>
<text text-anchor="start" x="2341.14" y="-87.4" font-family="Arial" font-size="14.00">    </text>
<text text-anchor="start" x="2372.25" y="-87.4" font-family="Arial" font-size="14.00" fill="#666666">[BASE TABLE]</text>
<polygon fill="none" stroke="black" points="2154.69,-43.2 2154.69,-74 2472.62,-74 2472.62,-43.2 2154.69,-43.2"/>
<text text-anchor="start" x="2161.69" y="-55.4" font-family="Arial" font-size="14.00">id </text>
<text text-anchor="start" x="2176.47" y="-55.4" font-family="Arial" font-size="14.00" fill="#666666">[bigint]</text>
</g>
<!-- public.services&#45;&gt;public.simple_categories -->
<g id="edge12" class="edge">
<title>public.services:simple_cate_id&#45;&gt;public.simple_categories:id</title>
<path fill="none" stroke="black" d="M2233.44,-244.68C2245.27,-235.84 2234.02,-207.36 2222.63,-188.8 2204.76,-159.67 2172.47,-181.99 2154.69,-152.8 2132.91,-117.04 2111.82,-58.6 2153.69,-58.6"/>
<polygon fill="black" stroke="black" points="2233.59,-244.64 2222.75,-242.97 2228.45,-246.07 2224.28,-247.22 2224.28,-247.22 2224.28,-247.22 2228.45,-246.07 2225.16,-251.65 2233.59,-244.64"/>
</g>
<!-- public.department_service -->
<g id="node3" class="node">
<title>public.department_service</title>
<polygon fill="#efefef" stroke="none" points="43.2,-574.8 43.2,-610.4 372.11,-610.4 372.11,-574.8 43.2,-574.8"/>
<polygon fill="none" stroke="black" points="43.2,-574.8 43.2,-610.4 372.11,-610.4 372.11,-574.8 43.2,-574.8"/>
<text text-anchor="start" x="50.2" y="-588.2" font-family="Arial Bold" font-size="18.00">public.department_service</text>
<text text-anchor="start" x="240.62" y="-588.2" font-family="Arial" font-size="14.00">    </text>
<text text-anchor="start" x="271.74" y="-588.2" font-family="Arial" font-size="14.00" fill="#666666">[BASE TABLE]</text>
<polygon fill="none" stroke="black" points="43.2,-544 43.2,-574.8 372.11,-574.8 372.11,-544 43.2,-544"/>
<text text-anchor="start" x="50.2" y="-556.2" font-family="Arial" font-size="14.00">department_id </text>
<text text-anchor="start" x="143.59" y="-556.2" font-family="Arial" font-size="14.00" fill="#666666">[bigint]</text>
<polygon fill="none" stroke="black" points="43.2,-513.2 43.2,-544 372.11,-544 372.11,-513.2 43.2,-513.2"/>
<text text-anchor="start" x="50.2" y="-525.4" font-family="Arial" font-size="14.00">service_id </text>
<text text-anchor="start" x="117.12" y="-525.4" font-family="Arial" font-size="14.00" fill="#666666">[bigint]</text>
</g>
<!-- public.department_service&#45;&gt;public.services -->
<g id="edge2" class="edge">
<title>public.department_service:service_id&#45;&gt;public.services:id</title>
<path fill="none" stroke="black" d="M383.28,-527.23C413.83,-517.76 389.27,-461.67 424.66,-439.2 570.65,-346.49 1802.74,-309 1975.68,-309"/>
<polygon fill="black" stroke="black" points="383.36,-527.22 372.84,-524.1 378.07,-527.93 373.78,-528.51 373.78,-528.51 373.78,-528.51 378.07,-527.93 374.04,-533.02 383.36,-527.22"/>
</g>
<!-- public.service_service_group -->
<g id="node4" class="node">
<title>public.service_service_group</title>
<polygon fill="#efefef" stroke="none" points="476.7,-574.8 476.7,-610.4 826.61,-610.4 826.61,-574.8 476.7,-574.8"/>
<polygon fill="none" stroke="black" points="476.7,-574.8 476.7,-610.4 826.61,-610.4 826.61,-574.8 476.7,-574.8"/>
<text text-anchor="start" x="483.7" y="-588.2" font-family="Arial Bold" font-size="18.00">public.service_service_group</text>
<text text-anchor="start" x="695.12" y="-588.2" font-family="Arial" font-size="14.00">    </text>
<text text-anchor="start" x="726.24" y="-588.2" font-family="Arial" font-size="14.00" fill="#666666">[BASE TABLE]</text>
<polygon fill="none" stroke="black" points="476.7,-544 476.7,-574.8 826.61,-574.8 826.61,-544 476.7,-544"/>
<text text-anchor="start" x="483.7" y="-556.2" font-family="Arial" font-size="14.00">service_id </text>
<text text-anchor="start" x="550.62" y="-556.2" font-family="Arial" font-size="14.00" fill="#666666">[bigint]</text>
<polygon fill="none" stroke="black" points="476.7,-513.2 476.7,-544 826.61,-544 826.61,-513.2 476.7,-513.2"/>
<text text-anchor="start" x="483.7" y="-525.4" font-family="Arial" font-size="14.00">service_group_id </text>
<text text-anchor="start" x="594.21" y="-525.4" font-family="Arial" font-size="14.00" fill="#666666">[bigint]</text>
</g>
<!-- public.service_service_group&#45;&gt;public.services -->
<g id="edge3" class="edge">
<title>public.service_service_group:service_id&#45;&gt;public.services:id</title>
<path fill="none" stroke="black" d="M837.76,-558.31C879,-548.28 835.31,-471.72 878.66,-439.2 976.84,-365.54 1852.93,-309 1975.68,-309"/>
<polygon fill="black" stroke="black" points="837.89,-558.3 827.46,-554.89 832.58,-558.87 828.28,-559.33 828.28,-559.33 828.28,-559.33 832.58,-558.87 828.42,-563.84 837.89,-558.3"/>
</g>
<!-- public.form_service -->
<g id="node5" class="node">
<title>public.form_service</title>
<polygon fill="#efefef" stroke="none" points="931.19,-574.8 931.19,-610.4 1214.13,-610.4 1214.13,-574.8 931.19,-574.8"/>
<polygon fill="none" stroke="black" points="931.19,-574.8 931.19,-610.4 1214.13,-610.4 1214.13,-574.8 931.19,-574.8"/>
<text text-anchor="start" x="938.19" y="-588.2" font-family="Arial Bold" font-size="18.00">public.form_service</text>
<text text-anchor="start" x="1082.64" y="-588.2" font-family="Arial" font-size="14.00">    </text>
<text text-anchor="start" x="1113.75" y="-588.2" font-family="Arial" font-size="14.00" fill="#666666">[BASE TABLE]</text>
<polygon fill="none" stroke="black" points="931.19,-544 931.19,-574.8 1214.13,-574.8 1214.13,-544 931.19,-544"/>
<text text-anchor="start" x="938.19" y="-556.2" font-family="Arial" font-size="14.00">form_id </text>
<text text-anchor="start" x="988.76" y="-556.2" font-family="Arial" font-size="14.00" fill="#666666">[bigint]</text>
<polygon fill="none" stroke="black" points="931.19,-513.2 931.19,-544 1214.13,-544 1214.13,-513.2 931.19,-513.2"/>
<text text-anchor="start" x="938.19" y="-525.4" font-family="Arial" font-size="14.00">service_id </text>
<text text-anchor="start" x="1005.1" y="-525.4" font-family="Arial" font-size="14.00" fill="#666666">[bigint]</text>
</g>
<!-- public.form_service&#45;&gt;public.services -->
<g id="edge4" class="edge">
<title>public.form_service:service_id&#45;&gt;public.services:id</title>
<path fill="none" stroke="black" d="M1225.32,-527.27C1256.03,-518.05 1232.41,-463.38 1266.66,-439.2 1397.52,-346.81 1815.48,-309 1975.68,-309"/>
<polygon fill="black" stroke="black" points="1225.37,-527.26 1214.87,-524.09 1220.08,-527.95 1215.79,-528.51 1215.79,-528.51 1215.79,-528.51 1220.08,-527.95 1216.04,-533.02 1225.37,-527.26"/>
</g>
<!-- public.checkup_service -->
<g id="node6" class="node">
<title>public.checkup_service</title>
<polygon fill="#efefef" stroke="none" points="1318.7,-574.8 1318.7,-610.4 1626.61,-610.4 1626.61,-574.8 1318.7,-574.8"/>
<polygon fill="none" stroke="black" points="1318.7,-574.8 1318.7,-610.4 1626.61,-610.4 1626.61,-574.8 1318.7,-574.8"/>
<text text-anchor="start" x="1325.7" y="-588.2" font-family="Arial Bold" font-size="18.00">public.checkup_service</text>
<text text-anchor="start" x="1495.13" y="-588.2" font-family="Arial" font-size="14.00">    </text>
<text text-anchor="start" x="1526.24" y="-588.2" font-family="Arial" font-size="14.00" fill="#666666">[BASE TABLE]</text>
<polygon fill="none" stroke="black" points="1318.7,-544 1318.7,-574.8 1626.61,-574.8 1626.61,-544 1318.7,-544"/>
<text text-anchor="start" x="1325.7" y="-556.2" font-family="Arial" font-size="14.00">checkup_id </text>
<text text-anchor="start" x="1400.42" y="-556.2" font-family="Arial" font-size="14.00" fill="#666666">[bigint]</text>
<polygon fill="none" stroke="black" points="1318.7,-513.2 1318.7,-544 1626.61,-544 1626.61,-513.2 1318.7,-513.2"/>
<text text-anchor="start" x="1325.7" y="-525.4" font-family="Arial" font-size="14.00">service_id </text>
<text text-anchor="start" x="1392.62" y="-525.4" font-family="Arial" font-size="14.00" fill="#666666">[bigint]</text>
</g>
<!-- public.checkup_service&#45;&gt;public.services -->
<g id="edge5" class="edge">
<title>public.checkup_service:service_id&#45;&gt;public.services:id</title>
<path fill="none" stroke="black" d="M1637.85,-527.35C1668.89,-518.7 1647.56,-467.17 1678.66,-439.2 1785.82,-342.8 1831.54,-309 1975.68,-309"/>
<polygon fill="black" stroke="black" points="1637.87,-527.35 1627.4,-524.09 1632.58,-527.99 1628.28,-528.52 1628.28,-528.52 1628.28,-528.52 1632.58,-527.99 1628.49,-533.03 1637.87,-527.35"/>
</g>
<!-- public.service_test_set -->
<g id="node7" class="node">
<title>public.service_test_set</title>
<polygon fill="#efefef" stroke="none" points="1730.69,-574.8 1730.69,-610.4 2032.63,-610.4 2032.63,-574.8 1730.69,-574.8"/>
<polygon fill="none" stroke="black" points="1730.69,-574.8 1730.69,-610.4 2032.63,-610.4 2032.63,-574.8 1730.69,-574.8"/>
<text text-anchor="start" x="1737.69" y="-588.2" font-family="Arial Bold" font-size="18.00">public.service_test_set</text>
<text text-anchor="start" x="1901.14" y="-588.2" font-family="Arial" font-size="14.00">    </text>
<text text-anchor="start" x="1932.25" y="-588.2" font-family="Arial" font-size="14.00" fill="#666666">[BASE TABLE]</text>
<polygon fill="none" stroke="black" points="1730.69,-544 1730.69,-574.8 2032.63,-574.8 2032.63,-544 1730.69,-544"/>
<text text-anchor="start" x="1737.69" y="-556.2" font-family="Arial" font-size="14.00">service_id </text>
<text text-anchor="start" x="1804.6" y="-556.2" font-family="Arial" font-size="14.00" fill="#666666">[bigint]</text>
<polygon fill="none" stroke="black" points="1730.69,-513.2 1730.69,-544 2032.63,-544 2032.63,-513.2 1730.69,-513.2"/>
<text text-anchor="start" x="1737.69" y="-525.4" font-family="Arial" font-size="14.00">test_set_id </text>
<text text-anchor="start" x="1809.29" y="-525.4" font-family="Arial" font-size="14.00" fill="#666666">[bigint]</text>
</g>
<!-- public.service_test_set&#45;&gt;public.services -->
<g id="edge6" class="edge">
<title>public.service_test_set:service_id&#45;&gt;public.services:id</title>
<path fill="none" stroke="black" d="M2043.75,-557.86C2068.02,-548.96 2045.01,-503.48 2032.63,-470 2019.19,-433.68 1990.1,-439.53 1976.68,-403.2 1962.17,-363.93 1933.81,-309 1975.68,-309"/>
<polygon fill="black" stroke="black" points="2043.84,-557.84 2033.28,-554.9 2038.57,-558.65 2034.29,-559.3 2034.29,-559.3 2034.29,-559.3 2038.57,-558.65 2034.63,-563.8 2043.84,-557.84"/>
</g>
<!-- public.company_order_service -->
<g id="node8" class="node">
<title>public.company_order_service</title>
<polygon fill="#efefef" stroke="none" points="2137.2,-574.8 2137.2,-610.4 2498.11,-610.4 2498.11,-574.8 2137.2,-574.8"/>
<polygon fill="none" stroke="black" points="2137.2,-574.8 2137.2,-610.4 2498.11,-610.4 2498.11,-574.8 2137.2,-574.8"/>
<text text-anchor="start" x="2144.2" y="-588.2" font-family="Arial Bold" font-size="18.00">public.company_order_service</text>
<text text-anchor="start" x="2366.62" y="-588.2" font-family="Arial" font-size="14.00">    </text>
<text text-anchor="start" x="2397.74" y="-588.2" font-family="Arial" font-size="14.00" fill="#666666">[BASE TABLE]</text>
<polygon fill="none" stroke="black" points="2137.2,-544 2137.2,-574.8 2498.11,-574.8 2498.11,-544 2137.2,-544"/>
<text text-anchor="start" x="2144.2" y="-556.2" font-family="Arial" font-size="14.00">service_id </text>
<text text-anchor="start" x="2211.12" y="-556.2" font-family="Arial" font-size="14.00" fill="#666666">[bigint]</text>
<polygon fill="none" stroke="black" points="2137.2,-513.2 2137.2,-544 2498.11,-544 2498.11,-513.2 2137.2,-513.2"/>
<text text-anchor="start" x="2144.2" y="-525.4" font-family="Arial" font-size="14.00">company_order_id </text>
<text text-anchor="start" x="2264.05" y="-525.4" font-family="Arial" font-size="14.00" fill="#666666">[bigint]</text>
</g>
<!-- public.company_order_service&#45;&gt;public.services -->
<g id="edge7" class="edge">
<title>public.company_order_service:service_id&#45;&gt;public.services:id</title>
<path fill="none" stroke="black" d="M2125.97,-557.81C2101.11,-548.66 2121.38,-502 2137.2,-470 2158.57,-426.79 2201.28,-446.41 2222.63,-403.2 2241.18,-365.66 2265.5,-309 2223.63,-309"/>
<polygon fill="black" stroke="black" points="2125.99,-557.81 2135.18,-563.8 2131.26,-558.63 2135.54,-559.3 2135.54,-559.3 2135.54,-559.3 2131.26,-558.63 2136.56,-554.9 2125.99,-557.81"/>
</g>
<!-- public.package_service -->
<g id="node9" class="node">
<title>public.package_service</title>
<polygon fill="#efefef" stroke="none" points="2602.2,-574.8 2602.2,-610.4 2909.11,-610.4 2909.11,-574.8 2602.2,-574.8"/>
<polygon fill="none" stroke="black" points="2602.2,-574.8 2602.2,-610.4 2909.11,-610.4 2909.11,-574.8 2602.2,-574.8"/>
<text text-anchor="start" x="2609.2" y="-588.2" font-family="Arial Bold" font-size="18.00">public.package_service</text>
<text text-anchor="start" x="2777.62" y="-588.2" font-family="Arial" font-size="14.00">    </text>
<text text-anchor="start" x="2808.74" y="-588.2" font-family="Arial" font-size="14.00" fill="#666666">[BASE TABLE]</text>
<polygon fill="none" stroke="black" points="2602.2,-544 2602.2,-574.8 2909.11,-574.8 2909.11,-544 2602.2,-544"/>
<text text-anchor="start" x="2609.2" y="-556.2" font-family="Arial" font-size="14.00">package_id </text>
<text text-anchor="start" x="2684.71" y="-556.2" font-family="Arial" font-size="14.00" fill="#666666">[bigint]</text>
<polygon fill="none" stroke="black" points="2602.2,-513.2 2602.2,-544 2909.11,-544 2909.11,-513.2 2602.2,-513.2"/>
<text text-anchor="start" x="2609.2" y="-525.4" font-family="Arial" font-size="14.00">service_id </text>
<text text-anchor="start" x="2676.12" y="-525.4" font-family="Arial" font-size="14.00" fill="#666666">[bigint]</text>
</g>
<!-- public.package_service&#45;&gt;public.services -->
<g id="edge8" class="edge">
<title>public.package_service:service_id&#45;&gt;public.services:id</title>
<path fill="none" stroke="black" d="M2591.01,-527.34C2560.16,-518.61 2582.09,-466.63 2550.66,-439.2 2432.79,-336.33 2380.07,-309 2223.63,-309"/>
<polygon fill="black" stroke="black" points="2590.95,-527.33 2600.32,-533.03 2596.24,-527.99 2600.54,-528.52 2600.54,-528.52 2600.54,-528.52 2596.24,-527.99 2601.42,-524.09 2590.95,-527.33"/>
</g>
<!-- public.imaging_diagnostic_data -->
<g id="node10" class="node">
<title>public.imaging_diagnostic_data</title>
<polygon fill="#efefef" stroke="none" points="3013.19,-605.6 3013.19,-641.2 3382.13,-641.2 3382.13,-605.6 3013.19,-605.6"/>
<polygon fill="none" stroke="black" points="3013.19,-605.6 3013.19,-641.2 3382.13,-641.2 3382.13,-605.6 3013.19,-605.6"/>
<text text-anchor="start" x="3020.19" y="-619" font-family="Arial Bold" font-size="18.00">public.imaging_diagnostic_data</text>
<text text-anchor="start" x="3250.64" y="-619" font-family="Arial" font-size="14.00">    </text>
<text text-anchor="start" x="3281.75" y="-619" font-family="Arial" font-size="14.00" fill="#666666">[BASE TABLE]</text>
<polygon fill="none" stroke="black" points="3013.19,-574.8 3013.19,-605.6 3382.13,-605.6 3382.13,-574.8 3013.19,-574.8"/>
<text text-anchor="start" x="3020.19" y="-587" font-family="Arial" font-size="14.00">id </text>
<text text-anchor="start" x="3034.97" y="-587" font-family="Arial" font-size="14.00" fill="#666666">[bigint]</text>
<polygon fill="none" stroke="black" points="3013.19,-544 3013.19,-574.8 3382.13,-574.8 3382.13,-544 3013.19,-544"/>
<text text-anchor="start" x="3020.19" y="-556.2" font-family="Arial" font-size="14.00">checkup_id </text>
<text text-anchor="start" x="3094.9" y="-556.2" font-family="Arial" font-size="14.00" fill="#666666">[bigint]</text>
<polygon fill="none" stroke="black" points="3013.19,-513.2 3013.19,-544 3382.13,-544 3382.13,-513.2 3013.19,-513.2"/>
<text text-anchor="start" x="3020.19" y="-525.4" font-family="Arial" font-size="14.00">service_id </text>
<text text-anchor="start" x="3087.1" y="-525.4" font-family="Arial" font-size="14.00" fill="#666666">[bigint]</text>
<polygon fill="none" stroke="black" points="3013.19,-482.4 3013.19,-513.2 3382.13,-513.2 3382.13,-482.4 3013.19,-482.4"/>
<text text-anchor="start" x="3020.19" y="-494.6" font-family="Arial" font-size="14.00">updated_by </text>
<text text-anchor="start" x="3097.26" y="-494.6" font-family="Arial" font-size="14.00" fill="#666666">[bigint]</text>
</g>
<!-- public.imaging_diagnostic_data&#45;&gt;public.services -->
<g id="edge9" class="edge">
<title>public.imaging_diagnostic_data:service_id&#45;&gt;public.services:id</title>
<path fill="none" stroke="black" d="M3002.06,-527.27C2971.6,-518.03 2995.72,-463.29 2961.66,-439.2 2825.68,-343.05 2390.17,-309 2223.63,-309"/>
<polygon fill="black" stroke="black" points="3001.94,-527.25 3011.27,-533.02 3007.23,-527.95 3011.52,-528.51 3011.52,-528.51 3011.52,-528.51 3007.23,-527.95 3012.44,-524.09 3001.94,-527.25"/>
</g>
<!-- public.imaging_diagnostic_data_histories -->
<g id="node11" class="node">
<title>public.imaging_diagnostic_data_histories</title>
<polygon fill="#efefef" stroke="none" points="3486.19,-605.6 3486.19,-641.2 3925.12,-641.2 3925.12,-605.6 3486.19,-605.6"/>
<polygon fill="none" stroke="black" points="3486.19,-605.6 3486.19,-641.2 3925.12,-641.2 3925.12,-605.6 3486.19,-605.6"/>
<text text-anchor="start" x="3493.19" y="-619" font-family="Arial Bold" font-size="18.00">public.imaging_diagnostic_data_histories</text>
<text text-anchor="start" x="3793.63" y="-619" font-family="Arial" font-size="14.00">    </text>
<text text-anchor="start" x="3824.75" y="-619" font-family="Arial" font-size="14.00" fill="#666666">[BASE TABLE]</text>
<polygon fill="none" stroke="black" points="3486.19,-574.8 3486.19,-605.6 3925.12,-605.6 3925.12,-574.8 3486.19,-574.8"/>
<text text-anchor="start" x="3493.19" y="-587" font-family="Arial" font-size="14.00">imaging_diagnostic_data_id </text>
<text text-anchor="start" x="3670.65" y="-587" font-family="Arial" font-size="14.00" fill="#666666">[bigint]</text>
<polygon fill="none" stroke="black" points="3486.19,-544 3486.19,-574.8 3925.12,-574.8 3925.12,-544 3486.19,-544"/>
<text text-anchor="start" x="3493.19" y="-556.2" font-family="Arial" font-size="14.00">checkup_id </text>
<text text-anchor="start" x="3567.91" y="-556.2" font-family="Arial" font-size="14.00" fill="#666666">[bigint]</text>
<polygon fill="none" stroke="black" points="3486.19,-513.2 3486.19,-544 3925.12,-544 3925.12,-513.2 3486.19,-513.2"/>
<text text-anchor="start" x="3493.19" y="-525.4" font-family="Arial" font-size="14.00">service_id </text>
<text text-anchor="start" x="3560.11" y="-525.4" font-family="Arial" font-size="14.00" fill="#666666">[bigint]</text>
<polygon fill="none" stroke="black" points="3486.19,-482.4 3486.19,-513.2 3925.12,-513.2 3925.12,-482.4 3486.19,-482.4"/>
<text text-anchor="start" x="3493.19" y="-494.6" font-family="Arial" font-size="14.00">updated_by </text>
<text text-anchor="start" x="3570.26" y="-494.6" font-family="Arial" font-size="14.00" fill="#666666">[bigint]</text>
</g>
<!-- public.imaging_diagnostic_data_histories&#45;&gt;public.services -->
<g id="edge10" class="edge">
<title>public.imaging_diagnostic_data_histories:service_id&#45;&gt;public.services:id</title>
<path fill="none" stroke="black" d="M3475.07,-527.24C3444.73,-517.83 3469.51,-462.12 3434.66,-439.2 3321.58,-364.84 2358.97,-309 2223.63,-309"/>
<polygon fill="black" stroke="black" points="3474.95,-527.22 3484.26,-533.02 3480.23,-527.93 3484.53,-528.51 3484.53,-528.51 3484.53,-528.51 3480.23,-527.93 3485.46,-524.1 3474.95,-527.22"/>
</g>
<!-- public.category_service_group -->
<g id="node15" class="node">
<title>public.category_service_group</title>
<polygon fill="#efefef" stroke="none" points="4450.2,-574.8 4450.2,-610.4 4811.11,-610.4 4811.11,-574.8 4450.2,-574.8"/>
<polygon fill="none" stroke="black" points="4450.2,-574.8 4450.2,-610.4 4811.11,-610.4 4811.11,-574.8 4450.2,-574.8"/>
<text text-anchor="start" x="4457.2" y="-588.2" font-family="Arial Bold" font-size="18.00">public.category_service_group</text>
<text text-anchor="start" x="4679.62" y="-588.2" font-family="Arial" font-size="14.00">    </text>
<text text-anchor="start" x="4710.74" y="-588.2" font-family="Arial" font-size="14.00" fill="#666666">[BASE TABLE]</text>
<polygon fill="none" stroke="black" points="4450.2,-544 4450.2,-574.8 4811.11,-574.8 4811.11,-544 4450.2,-544"/>
<text text-anchor="start" x="4457.2" y="-556.2" font-family="Arial" font-size="14.00">service_group_id </text>
<text text-anchor="start" x="4567.71" y="-556.2" font-family="Arial" font-size="14.00" fill="#666666">[integer]</text>
<polygon fill="none" stroke="black" points="4450.2,-513.2 4450.2,-544 4811.11,-544 4811.11,-513.2 4450.2,-513.2"/>
<text text-anchor="start" x="4457.2" y="-525.4" font-family="Arial" font-size="14.00">category_id </text>
<text text-anchor="start" x="4533.47" y="-525.4" font-family="Arial" font-size="14.00" fill="#666666">[integer]</text>
</g>
<!-- public.category_service_group&#45;&gt;public.categories -->
<g id="edge14" class="edge">
<title>public.category_service_group:category_id&#45;&gt;public.categories:id</title>
<path fill="none" stroke="black" d="M4631.16,-502.02C4640,-416.45 4763.08,-458.54 4804.33,-372.4 4825.36,-328.46 4838.67,-297.34 4804.33,-262.8 4749.9,-208.06 4630.66,-184.61 4630.66,-261.8"/>
<polygon fill="black" stroke="black" points="4631.17,-501.88 4626.18,-511.64 4630.9,-507.21 4630.69,-511.53 4630.69,-511.53 4630.69,-511.53 4630.9,-507.21 4635.17,-512.09 4631.17,-501.88"/>
</g>
<!-- public.category_package -->
<g id="node16" class="node">
<title>public.category_package</title>
<polygon fill="#efefef" stroke="none" points="4915.71,-574.8 4915.71,-610.4 5233.61,-610.4 5233.61,-574.8 4915.71,-574.8"/>
<polygon fill="none" stroke="black" points="4915.71,-574.8 4915.71,-610.4 5233.61,-610.4 5233.61,-574.8 4915.71,-574.8"/>
<text text-anchor="start" x="4922.71" y="-588.2" font-family="Arial Bold" font-size="18.00">public.category_package</text>
<text text-anchor="start" x="5102.12" y="-588.2" font-family="Arial" font-size="14.00">    </text>
<text text-anchor="start" x="5133.23" y="-588.2" font-family="Arial" font-size="14.00" fill="#666666">[BASE TABLE]</text>
<polygon fill="none" stroke="black" points="4915.71,-544 4915.71,-574.8 5233.61,-574.8 5233.61,-544 4915.71,-544"/>
<text text-anchor="start" x="4922.71" y="-556.2" font-family="Arial" font-size="14.00">package_id </text>
<text text-anchor="start" x="4998.21" y="-556.2" font-family="Arial" font-size="14.00" fill="#666666">[integer]</text>
<polygon fill="none" stroke="black" points="4915.71,-513.2 4915.71,-544 5233.61,-544 5233.61,-513.2 4915.71,-513.2"/>
<text text-anchor="start" x="4922.71" y="-525.4" font-family="Arial" font-size="14.00">category_id </text>
<text text-anchor="start" x="4998.97" y="-525.4" font-family="Arial" font-size="14.00" fill="#666666">[integer]</text>
</g>
<!-- public.category_package&#45;&gt;public.categories -->
<g id="edge15" class="edge">
<title>public.category_package:category_id&#45;&gt;public.categories:id</title>
<path fill="none" stroke="black" d="M4904.68,-527.62C4871.67,-520.44 4885.28,-475.21 4863.66,-439.2 4820.11,-366.67 4846.72,-278.2 4762.13,-278.2"/>
<polygon fill="black" stroke="black" points="4904.42,-527.6 4913.94,-533.05 4909.73,-528.11 4914.04,-528.53 4914.04,-528.53 4914.04,-528.53 4909.73,-528.11 4914.81,-524.09 4904.42,-527.6"/>
</g>
</g>
</svg>
