<?xml version="1.0" encoding="UTF-8" standalone="no"?>
<!DOCTYPE svg PUBLIC "-//W3C//DTD SVG 1.1//EN"
 "http://www.w3.org/Graphics/SVG/1.1/DTD/svg11.dtd">
<!-- Generated by graphviz version 12.1.2 (20240928.0832)
 -->
<!-- Title: public.form_speciality Pages: 1 -->
<svg width="1957pt" height="481pt"
 viewBox="0.00 0.00 1957.33 481.35" xmlns="http://www.w3.org/2000/svg" xmlns:xlink="http://www.w3.org/1999/xlink">
<g id="graph0" class="graph" transform="scale(1 1) rotate(0) translate(4 477.35)">
<title>public.form_speciality</title>
<polygon fill="white" stroke="none" points="-4,4 -4,-477.35 1953.33,-477.35 1953.33,4 -4,4"/>
<!-- public.form_speciality -->
<g id="node1" class="node">
<title>public.form_speciality</title>
<polygon fill="#efefef" stroke="none" points="782.2,-348.35 782.2,-383.95 1083.14,-383.95 1083.14,-348.35 782.2,-348.35"/>
<polygon fill="none" stroke="black" points="782.2,-348.35 782.2,-383.95 1083.14,-383.95 1083.14,-348.35 782.2,-348.35"/>
<text text-anchor="start" x="789.2" y="-361.75" font-family="Arial Bold" font-size="18.00">public.form_speciality</text>
<text text-anchor="start" x="951.65" y="-361.75" font-family="Arial" font-size="14.00">    </text>
<text text-anchor="start" x="982.77" y="-361.75" font-family="Arial" font-size="14.00" fill="#666666">[BASE TABLE]</text>
<polygon fill="none" stroke="black" points="782.2,-317.55 782.2,-348.35 1083.14,-348.35 1083.14,-317.55 782.2,-317.55"/>
<text text-anchor="start" x="789.2" y="-329.75" font-family="Arial" font-size="14.00">form_id </text>
<text text-anchor="start" x="839.77" y="-329.75" font-family="Arial" font-size="14.00" fill="#666666">[bigint]</text>
<polygon fill="none" stroke="black" points="782.2,-286.75 782.2,-317.55 1083.14,-317.55 1083.14,-286.75 782.2,-286.75"/>
<text text-anchor="start" x="789.2" y="-298.95" font-family="Arial" font-size="14.00">speciality_id </text>
<text text-anchor="start" x="869.35" y="-298.95" font-family="Arial" font-size="14.00" fill="#666666">[bigint]</text>
<polygon fill="none" stroke="black" stroke-width="3" points="780.7,-285.25 780.7,-385.45 1084.64,-385.45 1084.64,-285.25 780.7,-285.25"/>
</g>
<!-- public.forms -->
<g id="node2" class="node">
<title>public.forms</title>
<polygon fill="#efefef" stroke="none" points="437.68,-82.55 437.68,-118.15 667.66,-118.15 667.66,-82.55 437.68,-82.55"/>
<polygon fill="none" stroke="black" points="437.68,-82.55 437.68,-118.15 667.66,-118.15 667.66,-82.55 437.68,-82.55"/>
<text text-anchor="start" x="444.68" y="-95.95" font-family="Arial Bold" font-size="18.00">public.forms</text>
<text text-anchor="start" x="536.17" y="-95.95" font-family="Arial" font-size="14.00">    </text>
<text text-anchor="start" x="567.28" y="-95.95" font-family="Arial" font-size="14.00" fill="#666666">[BASE TABLE]</text>
<polygon fill="none" stroke="black" points="437.68,-51.75 437.68,-82.55 667.66,-82.55 667.66,-51.75 437.68,-51.75"/>
<text text-anchor="start" x="444.68" y="-63.95" font-family="Arial" font-size="14.00">id </text>
<text text-anchor="start" x="459.47" y="-63.95" font-family="Arial" font-size="14.00" fill="#666666">[bigint]</text>
</g>
<!-- public.form_speciality&#45;&gt;public.forms -->
<g id="edge1" class="edge">
<title>public.form_speciality:form_id&#45;&gt;public.forms:id</title>
<path fill="none" stroke="black" d="M770.82,-332.18C720.47,-324.1 751.46,-253.51 727.67,-197.35 702.88,-138.85 732.19,-67.15 668.66,-67.15"/>
<polygon fill="black" stroke="black" points="770.89,-332.19 780.53,-337.41 776.21,-332.58 780.53,-332.9 780.53,-332.9 780.53,-332.9 776.21,-332.58 781.19,-328.44 770.89,-332.19"/>
</g>
<!-- public.specialities -->
<g id="node5" class="node">
<title>public.specialities</title>
<polygon fill="#efefef" stroke="none" points="1204.69,-82.55 1204.69,-118.15 1472.64,-118.15 1472.64,-82.55 1204.69,-82.55"/>
<polygon fill="none" stroke="black" points="1204.69,-82.55 1204.69,-118.15 1472.64,-118.15 1472.64,-82.55 1204.69,-82.55"/>
<text text-anchor="start" x="1211.69" y="-95.95" font-family="Arial Bold" font-size="18.00">public.specialities</text>
<text text-anchor="start" x="1341.16" y="-95.95" font-family="Arial" font-size="14.00">    </text>
<text text-anchor="start" x="1372.27" y="-95.95" font-family="Arial" font-size="14.00" fill="#666666">[BASE TABLE]</text>
<polygon fill="none" stroke="black" points="1204.69,-51.75 1204.69,-82.55 1472.64,-82.55 1472.64,-51.75 1204.69,-51.75"/>
<text text-anchor="start" x="1211.69" y="-63.95" font-family="Arial" font-size="14.00">id </text>
<text text-anchor="start" x="1226.48" y="-63.95" font-family="Arial" font-size="14.00" fill="#666666">[bigint]</text>
</g>
<!-- public.form_speciality&#45;&gt;public.specialities -->
<g id="edge4" class="edge">
<title>public.form_speciality:speciality_id&#45;&gt;public.specialities:id</title>
<path fill="none" stroke="black" d="M1091.29,-294.6C1117.31,-254.37 1190.62,-67.15 1203.69,-67.15"/>
<polygon fill="black" stroke="black" points="1091.25,-294.64 1081.1,-298.81 1087.58,-298.52 1084.6,-301.66 1084.6,-301.66 1084.6,-301.66 1087.58,-298.52 1087.64,-305 1091.25,-294.64"/>
</g>
<!-- public.form_service -->
<g id="node3" class="node">
<title>public.form_service</title>
<polygon fill="#efefef" stroke="none" points="43.2,-348.35 43.2,-383.95 326.14,-383.95 326.14,-348.35 43.2,-348.35"/>
<polygon fill="none" stroke="black" points="43.2,-348.35 43.2,-383.95 326.14,-383.95 326.14,-348.35 43.2,-348.35"/>
<text text-anchor="start" x="50.2" y="-361.75" font-family="Arial Bold" font-size="18.00">public.form_service</text>
<text text-anchor="start" x="194.65" y="-361.75" font-family="Arial" font-size="14.00">    </text>
<text text-anchor="start" x="225.77" y="-361.75" font-family="Arial" font-size="14.00" fill="#666666">[BASE TABLE]</text>
<polygon fill="none" stroke="black" points="43.2,-317.55 43.2,-348.35 326.14,-348.35 326.14,-317.55 43.2,-317.55"/>
<text text-anchor="start" x="50.2" y="-329.75" font-family="Arial" font-size="14.00">form_id </text>
<text text-anchor="start" x="100.77" y="-329.75" font-family="Arial" font-size="14.00" fill="#666666">[bigint]</text>
<polygon fill="none" stroke="black" points="43.2,-286.75 43.2,-317.55 326.14,-317.55 326.14,-286.75 43.2,-286.75"/>
<text text-anchor="start" x="50.2" y="-298.95" font-family="Arial" font-size="14.00">service_id </text>
<text text-anchor="start" x="117.12" y="-298.95" font-family="Arial" font-size="14.00" fill="#666666">[bigint]</text>
</g>
<!-- public.form_service&#45;&gt;public.forms -->
<g id="edge2" class="edge">
<title>public.form_service:form_id&#45;&gt;public.forms:id</title>
<path fill="none" stroke="black" d="M337.42,-332.18C387.18,-324.08 354.59,-253.32 377.67,-197.35 401.89,-138.61 373.15,-67.15 436.68,-67.15"/>
<polygon fill="black" stroke="black" points="337.44,-332.18 327.14,-328.44 332.12,-332.58 327.8,-332.9 327.8,-332.9 327.8,-332.9 332.12,-332.58 327.81,-337.41 337.44,-332.18"/>
</g>
<!-- public.reports -->
<g id="node4" class="node">
<title>public.reports</title>
<polygon fill="#efefef" stroke="none" points="430.1,-394.55 430.1,-430.15 675.24,-430.15 675.24,-394.55 430.1,-394.55"/>
<polygon fill="none" stroke="black" points="430.1,-394.55 430.1,-430.15 675.24,-430.15 675.24,-394.55 430.1,-394.55"/>
<text text-anchor="start" x="440.69" y="-407.95" font-family="Arial Bold" font-size="18.00">public.reports</text>
<text text-anchor="start" x="540.16" y="-407.95" font-family="Arial" font-size="14.00">    </text>
<text text-anchor="start" x="571.28" y="-407.95" font-family="Arial" font-size="14.00" fill="#666666">[BASE TABLE]</text>
<polygon fill="none" stroke="black" points="430.1,-363.75 430.1,-394.55 675.24,-394.55 675.24,-363.75 430.1,-363.75"/>
<text text-anchor="start" x="437.1" y="-375.95" font-family="Arial" font-size="14.00">id </text>
<text text-anchor="start" x="451.89" y="-375.95" font-family="Arial" font-size="14.00" fill="#666666">[bigint]</text>
<polygon fill="none" stroke="black" points="430.1,-332.95 430.1,-363.75 675.24,-363.75 675.24,-332.95 430.1,-332.95"/>
<text text-anchor="start" x="437.1" y="-345.15" font-family="Arial" font-size="14.00">user_id </text>
<text text-anchor="start" x="486.91" y="-345.15" font-family="Arial" font-size="14.00" fill="#666666">[bigint]</text>
<polygon fill="none" stroke="black" points="430.1,-302.15 430.1,-332.95 675.24,-332.95 675.24,-302.15 430.1,-302.15"/>
<text text-anchor="start" x="437.1" y="-314.35" font-family="Arial" font-size="14.00">checkup_id </text>
<text text-anchor="start" x="511.82" y="-314.35" font-family="Arial" font-size="14.00" fill="#666666">[bigint]</text>
<polygon fill="none" stroke="black" points="430.1,-271.35 430.1,-302.15 675.24,-302.15 675.24,-271.35 430.1,-271.35"/>
<text text-anchor="start" x="437.1" y="-283.55" font-family="Arial" font-size="14.00">form_id </text>
<text text-anchor="start" x="487.67" y="-283.55" font-family="Arial" font-size="14.00" fill="#666666">[bigint]</text>
<polygon fill="none" stroke="black" points="430.1,-240.55 430.1,-271.35 675.24,-271.35 675.24,-240.55 430.1,-240.55"/>
<text text-anchor="start" x="437.1" y="-252.75" font-family="Arial" font-size="14.00">examination_refuse_waver_id </text>
<text text-anchor="start" x="626.99" y="-252.75" font-family="Arial" font-size="14.00" fill="#666666">[bigint]</text>
</g>
<!-- public.reports&#45;&gt;public.forms -->
<g id="edge3" class="edge">
<title>public.reports:form_id&#45;&gt;public.forms:id</title>
<path fill="none" stroke="black" d="M686.3,-284.24C731.3,-261.22 745.59,-86.7 710.86,-51.75 661.3,-1.88 552.67,19.56 552.67,-50.75"/>
<polygon fill="black" stroke="black" points="686.26,-284.25 675.47,-282.3 681.09,-285.54 676.89,-286.59 676.89,-286.59 676.89,-286.59 681.09,-285.54 677.65,-291.03 686.26,-284.25"/>
</g>
<!-- public.speciality_user -->
<g id="node6" class="node">
<title>public.speciality_user</title>
<polygon fill="#efefef" stroke="none" points="1190.7,-348.35 1190.7,-383.95 1486.64,-383.95 1486.64,-348.35 1190.7,-348.35"/>
<polygon fill="none" stroke="black" points="1190.7,-348.35 1190.7,-383.95 1486.64,-383.95 1486.64,-348.35 1190.7,-348.35"/>
<text text-anchor="start" x="1197.7" y="-361.75" font-family="Arial Bold" font-size="18.00">public.speciality_user</text>
<text text-anchor="start" x="1355.15" y="-361.75" font-family="Arial" font-size="14.00">    </text>
<text text-anchor="start" x="1386.27" y="-361.75" font-family="Arial" font-size="14.00" fill="#666666">[BASE TABLE]</text>
<polygon fill="none" stroke="black" points="1190.7,-317.55 1190.7,-348.35 1486.64,-348.35 1486.64,-317.55 1190.7,-317.55"/>
<text text-anchor="start" x="1197.7" y="-329.75" font-family="Arial" font-size="14.00">speciality_id </text>
<text text-anchor="start" x="1277.85" y="-329.75" font-family="Arial" font-size="14.00" fill="#666666">[bigint]</text>
<polygon fill="none" stroke="black" points="1190.7,-286.75 1190.7,-317.55 1486.64,-317.55 1486.64,-286.75 1190.7,-286.75"/>
<text text-anchor="start" x="1197.7" y="-298.95" font-family="Arial" font-size="14.00">user_id </text>
<text text-anchor="start" x="1247.5" y="-298.95" font-family="Arial" font-size="14.00" fill="#666666">[bigint]</text>
</g>
<!-- public.speciality_user&#45;&gt;public.specialities -->
<g id="edge5" class="edge">
<title>public.speciality_user:speciality_id&#45;&gt;public.specialities:id</title>
<path fill="none" stroke="black" d="M1495.78,-327.04C1522.11,-288.33 1536,-72.01 1515.84,-51.75 1460.32,4.09 1338.67,28 1338.67,-50.75"/>
<polygon fill="black" stroke="black" points="1496,-326.88 1485.27,-329.11 1491.69,-330.01 1488.18,-332.55 1488.18,-332.55 1488.18,-332.55 1491.69,-330.01 1490.56,-336.39 1496,-326.88"/>
</g>
<!-- public.branch_speciality -->
<g id="node7" class="node">
<title>public.branch_speciality</title>
<polygon fill="#efefef" stroke="none" points="1591.2,-348.35 1591.2,-383.95 1906.13,-383.95 1906.13,-348.35 1591.2,-348.35"/>
<polygon fill="none" stroke="black" points="1591.2,-348.35 1591.2,-383.95 1906.13,-383.95 1906.13,-348.35 1591.2,-348.35"/>
<text text-anchor="start" x="1598.2" y="-361.75" font-family="Arial Bold" font-size="18.00">public.branch_speciality</text>
<text text-anchor="start" x="1774.64" y="-361.75" font-family="Arial" font-size="14.00">    </text>
<text text-anchor="start" x="1805.76" y="-361.75" font-family="Arial" font-size="14.00" fill="#666666">[BASE TABLE]</text>
<polygon fill="none" stroke="black" points="1591.2,-317.55 1591.2,-348.35 1906.13,-348.35 1906.13,-317.55 1591.2,-317.55"/>
<text text-anchor="start" x="1598.2" y="-329.75" font-family="Arial" font-size="14.00">branch_id </text>
<text text-anchor="start" x="1663.58" y="-329.75" font-family="Arial" font-size="14.00" fill="#666666">[bigint]</text>
<polygon fill="none" stroke="black" points="1591.2,-286.75 1591.2,-317.55 1906.13,-317.55 1906.13,-286.75 1591.2,-286.75"/>
<text text-anchor="start" x="1598.2" y="-298.95" font-family="Arial" font-size="14.00">speciality_id </text>
<text text-anchor="start" x="1678.36" y="-298.95" font-family="Arial" font-size="14.00" fill="#666666">[bigint]</text>
</g>
<!-- public.branch_speciality&#45;&gt;public.specialities -->
<g id="edge6" class="edge">
<title>public.branch_speciality:speciality_id&#45;&gt;public.specialities:id</title>
<path fill="none" stroke="black" d="M1579.84,-301.21C1541.52,-293.56 1560.01,-240.4 1538.67,-197.35 1509.95,-139.39 1538.33,-67.15 1473.64,-67.15"/>
<polygon fill="black" stroke="black" points="1579.91,-301.22 1589.47,-306.6 1585.22,-301.7 1589.54,-302.09 1589.54,-302.09 1589.54,-302.09 1585.22,-301.7 1590.28,-297.64 1579.91,-301.22"/>
</g>
</g>
</svg>
