<?xml version="1.0" encoding="UTF-8" standalone="no"?>
<!DOCTYPE svg PUBLIC "-//W3C//DTD SVG 1.1//EN"
 "http://www.w3.org/Graphics/SVG/1.1/DTD/svg11.dtd">
<!-- Generated by graphviz version 12.1.2 (20240928.0832)
 -->
<!-- Title: public.organizations Pages: 1 -->
<svg width="2324pt" height="1015pt"
 viewBox="0.00 0.00 2324.36 1015.27" xmlns="http://www.w3.org/2000/svg" xmlns:xlink="http://www.w3.org/1999/xlink">
<g id="graph0" class="graph" transform="scale(1 1) rotate(0) translate(4 1011.27)">
<title>public.organizations</title>
<polygon fill="white" stroke="none" points="-4,4 -4,-1011.27 2320.36,-1011.27 2320.36,4 -4,4"/>
<!-- public.organizations -->
<g id="node1" class="node">
<title>public.organizations</title>
<polygon fill="#efefef" stroke="none" points="1013.21,-85.87 1013.21,-121.47 1298.16,-121.47 1298.16,-85.87 1013.21,-85.87"/>
<polygon fill="none" stroke="black" points="1013.21,-85.87 1013.21,-121.47 1298.16,-121.47 1298.16,-85.87 1013.21,-85.87"/>
<text text-anchor="start" x="1020.21" y="-99.27" font-family="Arial Bold" font-size="18.00">public.organizations</text>
<text text-anchor="start" x="1166.67" y="-99.27" font-family="Arial" font-size="14.00">    </text>
<text text-anchor="start" x="1197.79" y="-99.27" font-family="Arial" font-size="14.00" fill="#666666">[BASE TABLE]</text>
<polygon fill="none" stroke="black" points="1013.21,-55.07 1013.21,-85.87 1298.16,-85.87 1298.16,-55.07 1013.21,-55.07"/>
<text text-anchor="start" x="1020.21" y="-67.27" font-family="Arial" font-size="14.00">id </text>
<text text-anchor="start" x="1035" y="-67.27" font-family="Arial" font-size="14.00" fill="#666666">[bigint]</text>
<polygon fill="none" stroke="black" stroke-width="3" points="1011.71,-53.57 1011.71,-122.97 1299.66,-122.97 1299.66,-53.57 1011.71,-53.57"/>
</g>
<!-- public.branches -->
<g id="node2" class="node">
<title>public.branches</title>
<polygon fill="#efefef" stroke="none" points="1029.71,-308.47 1029.71,-344.07 1281.66,-344.07 1281.66,-308.47 1029.71,-308.47"/>
<polygon fill="none" stroke="black" points="1029.71,-308.47 1029.71,-344.07 1281.66,-344.07 1281.66,-308.47 1029.71,-308.47"/>
<text text-anchor="start" x="1036.71" y="-321.87" font-family="Arial Bold" font-size="18.00">public.branches</text>
<text text-anchor="start" x="1150.17" y="-321.87" font-family="Arial" font-size="14.00">    </text>
<text text-anchor="start" x="1181.29" y="-321.87" font-family="Arial" font-size="14.00" fill="#666666">[BASE TABLE]</text>
<polygon fill="none" stroke="black" points="1029.71,-277.67 1029.71,-308.47 1281.66,-308.47 1281.66,-277.67 1029.71,-277.67"/>
<text text-anchor="start" x="1036.71" y="-289.87" font-family="Arial" font-size="14.00">id </text>
<text text-anchor="start" x="1051.5" y="-289.87" font-family="Arial" font-size="14.00" fill="#666666">[bigint]</text>
<polygon fill="none" stroke="black" points="1029.71,-246.87 1029.71,-277.67 1281.66,-277.67 1281.66,-246.87 1029.71,-246.87"/>
<text text-anchor="start" x="1036.71" y="-259.07" font-family="Arial" font-size="14.00">organization_id </text>
<text text-anchor="start" x="1135.56" y="-259.07" font-family="Arial" font-size="14.00" fill="#666666">[bigint]</text>
</g>
<!-- public.branches&#45;&gt;public.organizations -->
<g id="edge1" class="edge">
<title>public.branches:organization_id&#45;&gt;public.organizations:id</title>
<path fill="none" stroke="black" d="M1156.37,-235.58C1166.88,-162.04 1296.01,-240.05 1344.36,-167.67 1372.16,-126.05 1379.65,-90.55 1344.36,-55.07 1285.22,4.39 1155.69,29.79 1155.69,-54.07"/>
<polygon fill="black" stroke="black" points="1156.37,-235.55 1151.22,-245.23 1156.02,-240.88 1155.73,-245.2 1155.73,-245.2 1155.73,-245.2 1156.02,-240.88 1160.2,-245.83 1156.37,-235.55"/>
</g>
<!-- public.users -->
<g id="node3" class="node">
<title>public.users</title>
<polygon fill="#efefef" stroke="none" points="43.2,-928.47 43.2,-964.07 268.17,-964.07 268.17,-928.47 43.2,-928.47"/>
<polygon fill="none" stroke="black" points="43.2,-928.47 43.2,-964.07 268.17,-964.07 268.17,-928.47 43.2,-928.47"/>
<text text-anchor="start" x="50.2" y="-941.87" font-family="Arial Bold" font-size="18.00">public.users</text>
<text text-anchor="start" x="136.68" y="-941.87" font-family="Arial" font-size="14.00">    </text>
<text text-anchor="start" x="167.8" y="-941.87" font-family="Arial" font-size="14.00" fill="#666666">[BASE TABLE]</text>
<polygon fill="none" stroke="black" points="43.2,-897.67 43.2,-928.47 268.17,-928.47 268.17,-897.67 43.2,-897.67"/>
<text text-anchor="start" x="50.2" y="-909.87" font-family="Arial" font-size="14.00">id </text>
<text text-anchor="start" x="64.99" y="-909.87" font-family="Arial" font-size="14.00" fill="#666666">[bigint]</text>
<polygon fill="none" stroke="black" points="43.2,-866.87 43.2,-897.67 268.17,-897.67 268.17,-866.87 43.2,-866.87"/>
<text text-anchor="start" x="50.2" y="-879.07" font-family="Arial" font-size="14.00">email </text>
<text text-anchor="start" x="87.54" y="-879.07" font-family="Arial" font-size="14.00" fill="#666666">[varchar(255)]</text>
<polygon fill="none" stroke="black" points="43.2,-836.07 43.2,-866.87 268.17,-866.87 268.17,-836.07 43.2,-836.07"/>
<text text-anchor="start" x="50.2" y="-848.27" font-family="Arial" font-size="14.00">branch_id </text>
<text text-anchor="start" x="115.58" y="-848.27" font-family="Arial" font-size="14.00" fill="#666666">[bigint]</text>
<polygon fill="none" stroke="black" points="43.2,-805.27 43.2,-836.07 268.17,-836.07 268.17,-805.27 43.2,-805.27"/>
<text text-anchor="start" x="50.2" y="-817.47" font-family="Arial" font-size="14.00">sex_id </text>
<text text-anchor="start" x="94.56" y="-817.47" font-family="Arial" font-size="14.00" fill="#666666">[bigint]</text>
<polygon fill="none" stroke="black" points="43.2,-774.47 43.2,-805.27 268.17,-805.27 268.17,-774.47 43.2,-774.47"/>
<text text-anchor="start" x="50.2" y="-786.67" font-family="Arial" font-size="14.00">user_status_id </text>
<text text-anchor="start" x="145.14" y="-786.67" font-family="Arial" font-size="14.00" fill="#666666">[bigint]</text>
<polygon fill="none" stroke="black" points="43.2,-743.67 43.2,-774.47 268.17,-774.47 268.17,-743.67 43.2,-743.67"/>
<text text-anchor="start" x="50.2" y="-755.87" font-family="Arial" font-size="14.00">nationality_id </text>
<text text-anchor="start" x="135.81" y="-755.87" font-family="Arial" font-size="14.00" fill="#666666">[bigint]</text>
<polygon fill="none" stroke="black" points="43.2,-712.87 43.2,-743.67 268.17,-743.67 268.17,-712.87 43.2,-712.87"/>
<text text-anchor="start" x="50.2" y="-725.07" font-family="Arial" font-size="14.00">city_id </text>
<text text-anchor="start" x="93.77" y="-725.07" font-family="Arial" font-size="14.00" fill="#666666">[bigint]</text>
<polygon fill="none" stroke="black" points="43.2,-682.07 43.2,-712.87 268.17,-712.87 268.17,-682.07 43.2,-682.07"/>
<text text-anchor="start" x="50.2" y="-694.27" font-family="Arial" font-size="14.00">image_id </text>
<text text-anchor="start" x="110.9" y="-694.27" font-family="Arial" font-size="14.00" fill="#666666">[bigint]</text>
<polygon fill="none" stroke="black" points="43.2,-651.27 43.2,-682.07 268.17,-682.07 268.17,-651.27 43.2,-651.27"/>
<text text-anchor="start" x="50.2" y="-663.47" font-family="Arial" font-size="14.00">signature_image_id </text>
<text text-anchor="start" x="176.28" y="-663.47" font-family="Arial" font-size="14.00" fill="#666666">[bigint]</text>
<polygon fill="none" stroke="black" points="43.2,-620.47 43.2,-651.27 268.17,-651.27 268.17,-620.47 43.2,-620.47"/>
<text text-anchor="start" x="50.2" y="-632.67" font-family="Arial" font-size="14.00">position_id </text>
<text text-anchor="start" x="121.03" y="-632.67" font-family="Arial" font-size="14.00" fill="#666666">[bigint]</text>
<polygon fill="none" stroke="black" points="43.2,-589.67 43.2,-620.47 268.17,-620.47 268.17,-589.67 43.2,-589.67"/>
<text text-anchor="start" x="50.2" y="-601.87" font-family="Arial" font-size="14.00">mobile_number_id </text>
<text text-anchor="start" x="169.27" y="-601.87" font-family="Arial" font-size="14.00" fill="#666666">[bigint]</text>
<polygon fill="none" stroke="black" points="43.2,-558.87 43.2,-589.67 268.17,-589.67 268.17,-558.87 43.2,-558.87"/>
<text text-anchor="start" x="50.2" y="-571.07" font-family="Arial" font-size="14.00">home_number_id </text>
<text text-anchor="start" x="163.05" y="-571.07" font-family="Arial" font-size="14.00" fill="#666666">[bigint]</text>
<polygon fill="none" stroke="black" points="43.2,-528.07 43.2,-558.87 268.17,-558.87 268.17,-528.07 43.2,-528.07"/>
<text text-anchor="start" x="50.2" y="-540.27" font-family="Arial" font-size="14.00">bank_id </text>
<text text-anchor="start" x="103.13" y="-540.27" font-family="Arial" font-size="14.00" fill="#666666">[bigint]</text>
<polygon fill="none" stroke="black" points="43.2,-497.27 43.2,-528.07 268.17,-528.07 268.17,-497.27 43.2,-497.27"/>
<text text-anchor="start" x="50.2" y="-509.47" font-family="Arial" font-size="14.00">created_by_user_id </text>
<text text-anchor="start" x="177.06" y="-509.47" font-family="Arial" font-size="14.00" fill="#666666">[bigint]</text>
<polygon fill="none" stroke="black" points="43.2,-466.47 43.2,-497.27 268.17,-497.27 268.17,-466.47 43.2,-466.47"/>
<text text-anchor="start" x="50.2" y="-478.67" font-family="Arial" font-size="14.00">profile_status_id </text>
<text text-anchor="start" x="156.04" y="-478.67" font-family="Arial" font-size="14.00" fill="#666666">[bigint]</text>
</g>
<!-- public.users&#45;&gt;public.branches -->
<g id="edge2" class="edge">
<title>public.users:branch_id&#45;&gt;public.branches:id</title>
<path fill="none" stroke="black" d="M279.49,-849.86C356.69,-823.91 257.62,-490.38 320.69,-423.27 430.24,-306.69 868.74,-293.07 1028.71,-293.07"/>
<polygon fill="black" stroke="black" points="279.39,-849.88 268.81,-846.97 274.11,-850.7 269.83,-851.36 269.83,-851.36 269.83,-851.36 274.11,-850.7 270.19,-855.86 279.39,-849.88"/>
</g>
<!-- public.branch_position -->
<g id="node4" class="node">
<title>public.branch_position</title>
<polygon fill="#efefef" stroke="none" points="372.71,-728.27 372.71,-763.87 676.67,-763.87 676.67,-728.27 372.71,-728.27"/>
<polygon fill="none" stroke="black" points="372.71,-728.27 372.71,-763.87 676.67,-763.87 676.67,-728.27 372.71,-728.27"/>
<text text-anchor="start" x="379.71" y="-741.67" font-family="Arial Bold" font-size="18.00">public.branch_position</text>
<text text-anchor="start" x="545.18" y="-741.67" font-family="Arial" font-size="14.00">    </text>
<text text-anchor="start" x="576.3" y="-741.67" font-family="Arial" font-size="14.00" fill="#666666">[BASE TABLE]</text>
<polygon fill="none" stroke="black" points="372.71,-697.47 372.71,-728.27 676.67,-728.27 676.67,-697.47 372.71,-697.47"/>
<text text-anchor="start" x="379.71" y="-709.67" font-family="Arial" font-size="14.00">branch_id </text>
<text text-anchor="start" x="445.09" y="-709.67" font-family="Arial" font-size="14.00" fill="#666666">[bigint]</text>
<polygon fill="none" stroke="black" points="372.71,-666.67 372.71,-697.47 676.67,-697.47 676.67,-666.67 372.71,-666.67"/>
<text text-anchor="start" x="379.71" y="-678.87" font-family="Arial" font-size="14.00">position_id </text>
<text text-anchor="start" x="450.53" y="-678.87" font-family="Arial" font-size="14.00" fill="#666666">[bigint]</text>
</g>
<!-- public.branch_position&#45;&gt;public.branches -->
<g id="edge3" class="edge">
<title>public.branch_position:branch_id&#45;&gt;public.branches:id</title>
<path fill="none" stroke="black" d="M687.65,-710.65C737.11,-686.47 690.51,-471.67 728.69,-423.27 818.71,-309.14 883.35,-293.07 1028.71,-293.07"/>
<polygon fill="black" stroke="black" points="687.76,-710.63 677.02,-708.4 682.55,-711.78 678.32,-712.72 678.32,-712.72 678.32,-712.72 682.55,-711.78 678.97,-717.19 687.76,-710.63"/>
</g>
<!-- public.branch_speciality -->
<g id="node5" class="node">
<title>public.branch_speciality</title>
<polygon fill="#efefef" stroke="none" points="781.22,-728.27 781.22,-763.87 1096.15,-763.87 1096.15,-728.27 781.22,-728.27"/>
<polygon fill="none" stroke="black" points="781.22,-728.27 781.22,-763.87 1096.15,-763.87 1096.15,-728.27 781.22,-728.27"/>
<text text-anchor="start" x="788.22" y="-741.67" font-family="Arial Bold" font-size="18.00">public.branch_speciality</text>
<text text-anchor="start" x="964.66" y="-741.67" font-family="Arial" font-size="14.00">    </text>
<text text-anchor="start" x="995.78" y="-741.67" font-family="Arial" font-size="14.00" fill="#666666">[BASE TABLE]</text>
<polygon fill="none" stroke="black" points="781.22,-697.47 781.22,-728.27 1096.15,-728.27 1096.15,-697.47 781.22,-697.47"/>
<text text-anchor="start" x="788.22" y="-709.67" font-family="Arial" font-size="14.00">branch_id </text>
<text text-anchor="start" x="853.6" y="-709.67" font-family="Arial" font-size="14.00" fill="#666666">[bigint]</text>
<polygon fill="none" stroke="black" points="781.22,-666.67 781.22,-697.47 1096.15,-697.47 1096.15,-666.67 781.22,-666.67"/>
<text text-anchor="start" x="788.22" y="-678.87" font-family="Arial" font-size="14.00">speciality_id </text>
<text text-anchor="start" x="868.37" y="-678.87" font-family="Arial" font-size="14.00" fill="#666666">[bigint]</text>
</g>
<!-- public.branch_speciality&#45;&gt;public.branches -->
<g id="edge4" class="edge">
<title>public.branch_speciality:branch_id&#45;&gt;public.branches:id</title>
<path fill="none" stroke="black" d="M1107.51,-712.39C1268.99,-696.63 843.36,-293.07 1028.71,-293.07"/>
<polygon fill="black" stroke="black" points="1107.48,-712.39 1097.28,-708.36 1102.15,-712.64 1097.82,-712.84 1097.82,-712.84 1097.82,-712.84 1102.15,-712.64 1097.69,-717.35 1107.48,-712.39"/>
</g>
<!-- public.branch_contract_type -->
<g id="node6" class="node">
<title>public.branch_contract_type</title>
<polygon fill="#efefef" stroke="none" points="1200.73,-728.27 1200.73,-763.87 1544.64,-763.87 1544.64,-728.27 1200.73,-728.27"/>
<polygon fill="none" stroke="black" points="1200.73,-728.27 1200.73,-763.87 1544.64,-763.87 1544.64,-728.27 1200.73,-728.27"/>
<text text-anchor="start" x="1207.73" y="-741.67" font-family="Arial Bold" font-size="18.00">public.branch_contract_type</text>
<text text-anchor="start" x="1413.15" y="-741.67" font-family="Arial" font-size="14.00">    </text>
<text text-anchor="start" x="1444.27" y="-741.67" font-family="Arial" font-size="14.00" fill="#666666">[BASE TABLE]</text>
<polygon fill="none" stroke="black" points="1200.73,-697.47 1200.73,-728.27 1544.64,-728.27 1544.64,-697.47 1200.73,-697.47"/>
<text text-anchor="start" x="1207.73" y="-709.67" font-family="Arial" font-size="14.00">branch_id </text>
<text text-anchor="start" x="1273.11" y="-709.67" font-family="Arial" font-size="14.00" fill="#666666">[bigint]</text>
<polygon fill="none" stroke="black" points="1200.73,-666.67 1200.73,-697.47 1544.64,-697.47 1544.64,-666.67 1200.73,-666.67"/>
<text text-anchor="start" x="1207.73" y="-678.87" font-family="Arial" font-size="14.00">contract_type_id </text>
<text text-anchor="start" x="1314.35" y="-678.87" font-family="Arial" font-size="14.00" fill="#666666">[bigint]</text>
</g>
<!-- public.branch_contract_type&#45;&gt;public.branches -->
<g id="edge5" class="edge">
<title>public.branch_contract_type:branch_id&#45;&gt;public.branches:id</title>
<path fill="none" stroke="black" d="M1189.33,-712.39C1027.4,-696.63 1469.13,-293.07 1282.66,-293.07"/>
<polygon fill="black" stroke="black" points="1189.41,-712.4 1199.19,-717.35 1194.74,-712.64 1199.06,-712.84 1199.06,-712.84 1199.06,-712.84 1194.74,-712.64 1199.6,-708.36 1189.41,-712.4"/>
</g>
<!-- public.companies -->
<g id="node7" class="node">
<title>public.companies</title>
<polygon fill="#efefef" stroke="none" points="1649.21,-820.67 1649.21,-856.27 1914.16,-856.27 1914.16,-820.67 1649.21,-820.67"/>
<polygon fill="none" stroke="black" points="1649.21,-820.67 1649.21,-856.27 1914.16,-856.27 1914.16,-820.67 1649.21,-820.67"/>
<text text-anchor="start" x="1656.21" y="-834.07" font-family="Arial Bold" font-size="18.00">public.companies</text>
<text text-anchor="start" x="1782.68" y="-834.07" font-family="Arial" font-size="14.00">    </text>
<text text-anchor="start" x="1813.79" y="-834.07" font-family="Arial" font-size="14.00" fill="#666666">[BASE TABLE]</text>
<polygon fill="none" stroke="black" points="1649.21,-789.87 1649.21,-820.67 1914.16,-820.67 1914.16,-789.87 1649.21,-789.87"/>
<text text-anchor="start" x="1656.21" y="-802.07" font-family="Arial" font-size="14.00">id </text>
<text text-anchor="start" x="1671" y="-802.07" font-family="Arial" font-size="14.00" fill="#666666">[bigint]</text>
<polygon fill="none" stroke="black" points="1649.21,-759.07 1649.21,-789.87 1914.16,-789.87 1914.16,-759.07 1649.21,-759.07"/>
<text text-anchor="start" x="1656.21" y="-771.27" font-family="Arial" font-size="14.00">branch_id </text>
<text text-anchor="start" x="1721.59" y="-771.27" font-family="Arial" font-size="14.00" fill="#666666">[integer]</text>
<polygon fill="none" stroke="black" points="1649.21,-728.27 1649.21,-759.07 1914.16,-759.07 1914.16,-728.27 1649.21,-728.27"/>
<text text-anchor="start" x="1656.21" y="-740.47" font-family="Arial" font-size="14.00">logo_id </text>
<text text-anchor="start" x="1705.25" y="-740.47" font-family="Arial" font-size="14.00" fill="#666666">[bigint]</text>
<polygon fill="none" stroke="black" points="1649.21,-697.47 1649.21,-728.27 1914.16,-728.27 1914.16,-697.47 1649.21,-697.47"/>
<text text-anchor="start" x="1656.21" y="-709.67" font-family="Arial" font-size="14.00">city_id </text>
<text text-anchor="start" x="1699.78" y="-709.67" font-family="Arial" font-size="14.00" fill="#666666">[bigint]</text>
<polygon fill="none" stroke="black" points="1649.21,-666.67 1649.21,-697.47 1914.16,-697.47 1914.16,-666.67 1649.21,-666.67"/>
<text text-anchor="start" x="1656.21" y="-678.87" font-family="Arial" font-size="14.00">phone_number_id </text>
<text text-anchor="start" x="1772.97" y="-678.87" font-family="Arial" font-size="14.00" fill="#666666">[bigint]</text>
<polygon fill="none" stroke="black" points="1649.21,-635.87 1649.21,-666.67 1914.16,-666.67 1914.16,-635.87 1649.21,-635.87"/>
<text text-anchor="start" x="1656.21" y="-648.07" font-family="Arial" font-size="14.00">created_by_user_id </text>
<text text-anchor="start" x="1783.07" y="-648.07" font-family="Arial" font-size="14.00" fill="#666666">[integer]</text>
<polygon fill="none" stroke="black" points="1649.21,-605.07 1649.21,-635.87 1914.16,-635.87 1914.16,-605.07 1649.21,-605.07"/>
<text text-anchor="start" x="1656.21" y="-617.27" font-family="Arial" font-size="14.00">owned_by_user_id </text>
<text text-anchor="start" x="1777.63" y="-617.27" font-family="Arial" font-size="14.00" fill="#666666">[integer]</text>
<polygon fill="none" stroke="black" points="1649.21,-574.27 1649.21,-605.07 1914.16,-605.07 1914.16,-574.27 1649.21,-574.27"/>
<text text-anchor="start" x="1656.21" y="-586.47" font-family="Arial" font-size="14.00">supervisor_user_id </text>
<text text-anchor="start" x="1778.38" y="-586.47" font-family="Arial" font-size="14.00" fill="#666666">[bigint]</text>
</g>
<!-- public.companies&#45;&gt;public.branches -->
<g id="edge6" class="edge">
<title>public.companies:branch_id&#45;&gt;public.branches:id</title>
<path fill="none" stroke="black" d="M1638.11,-772.61C1576.17,-747.87 1642.88,-482.58 1596.69,-423.27 1503.85,-304.07 1433.75,-293.07 1282.66,-293.07"/>
<polygon fill="black" stroke="black" points="1638.04,-772.6 1647.07,-778.83 1643.29,-773.56 1647.55,-774.35 1647.55,-774.35 1647.55,-774.35 1643.29,-773.56 1648.69,-769.98 1638.04,-772.6"/>
</g>
<!-- public.checkups -->
<g id="node8" class="node">
<title>public.checkups</title>
<polygon fill="#efefef" stroke="none" points="2018.21,-789.87 2018.21,-825.47 2273.16,-825.47 2273.16,-789.87 2018.21,-789.87"/>
<polygon fill="none" stroke="black" points="2018.21,-789.87 2018.21,-825.47 2273.16,-825.47 2273.16,-789.87 2018.21,-789.87"/>
<text text-anchor="start" x="2025.21" y="-803.27" font-family="Arial Bold" font-size="18.00">public.checkups</text>
<text text-anchor="start" x="2141.67" y="-803.27" font-family="Arial" font-size="14.00">    </text>
<text text-anchor="start" x="2172.79" y="-803.27" font-family="Arial" font-size="14.00" fill="#666666">[BASE TABLE]</text>
<polygon fill="none" stroke="black" points="2018.21,-759.07 2018.21,-789.87 2273.16,-789.87 2273.16,-759.07 2018.21,-759.07"/>
<text text-anchor="start" x="2025.21" y="-771.27" font-family="Arial" font-size="14.00">id </text>
<text text-anchor="start" x="2040" y="-771.27" font-family="Arial" font-size="14.00" fill="#666666">[bigint]</text>
<polygon fill="none" stroke="black" points="2018.21,-728.27 2018.21,-759.07 2273.16,-759.07 2273.16,-728.27 2018.21,-728.27"/>
<text text-anchor="start" x="2025.21" y="-740.47" font-family="Arial" font-size="14.00">patient_id </text>
<text text-anchor="start" x="2089.82" y="-740.47" font-family="Arial" font-size="14.00" fill="#666666">[bigint]</text>
<polygon fill="none" stroke="black" points="2018.21,-697.47 2018.21,-728.27 2273.16,-728.27 2273.16,-697.47 2018.21,-697.47"/>
<text text-anchor="start" x="2025.21" y="-709.67" font-family="Arial" font-size="14.00">branch_id </text>
<text text-anchor="start" x="2090.59" y="-709.67" font-family="Arial" font-size="14.00" fill="#666666">[bigint]</text>
<polygon fill="none" stroke="black" points="2018.21,-666.67 2018.21,-697.47 2273.16,-697.47 2273.16,-666.67 2018.21,-666.67"/>
<text text-anchor="start" x="2025.21" y="-678.87" font-family="Arial" font-size="14.00">created_by_user_id </text>
<text text-anchor="start" x="2152.07" y="-678.87" font-family="Arial" font-size="14.00" fill="#666666">[bigint]</text>
<polygon fill="none" stroke="black" points="2018.21,-635.87 2018.21,-666.67 2273.16,-666.67 2273.16,-635.87 2018.21,-635.87"/>
<text text-anchor="start" x="2025.21" y="-648.07" font-family="Arial" font-size="14.00">company_lot_id </text>
<text text-anchor="start" x="2127.16" y="-648.07" font-family="Arial" font-size="14.00" fill="#666666">[bigint]</text>
<polygon fill="none" stroke="black" points="2018.21,-605.07 2018.21,-635.87 2273.16,-635.87 2273.16,-605.07 2018.21,-605.07"/>
<text text-anchor="start" x="2025.21" y="-617.27" font-family="Arial" font-size="14.00">company_id </text>
<text text-anchor="start" x="2104.59" y="-617.27" font-family="Arial" font-size="14.00" fill="#666666">[bigint]</text>
</g>
<!-- public.checkups&#45;&gt;public.branches -->
<g id="edge7" class="edge">
<title>public.checkups:branch_id&#45;&gt;public.branches:id</title>
<path fill="none" stroke="black" d="M2007.28,-710.61C1958.41,-685.96 2009.93,-467.18 1966.69,-423.27 1858.12,-313.01 1437.4,-293.07 1282.66,-293.07"/>
<polygon fill="black" stroke="black" points="2007.13,-710.57 2015.89,-717.18 2012.33,-711.76 2016.56,-712.72 2016.56,-712.72 2016.56,-712.72 2012.33,-711.76 2017.88,-708.4 2007.13,-710.57"/>
</g>
</g>
</svg>
