<?xml version="1.0" encoding="UTF-8" standalone="no"?>
<!DOCTYPE svg PUBLIC "-//W3C//DTD SVG 1.1//EN"
 "http://www.w3.org/Graphics/SVG/1.1/DTD/svg11.dtd">
<!-- Generated by graphviz version 12.1.2 (20240928.0832)
 -->
<!-- Title: public.home_kits Pages: 1 -->
<svg width="716pt" height="386pt"
 viewBox="0.00 0.00 715.88 386.40" xmlns="http://www.w3.org/2000/svg" xmlns:xlink="http://www.w3.org/1999/xlink">
<g id="graph0" class="graph" transform="scale(1 1) rotate(0) translate(4 382.4)">
<title>public.home_kits</title>
<polygon fill="white" stroke="none" points="-4,4 -4,-382.4 711.88,-382.4 711.88,4 -4,4"/>
<!-- public.home_kits -->
<g id="node1" class="node">
<title>public.home_kits</title>
<polygon fill="#efefef" stroke="none" points="46.2,-77 46.2,-112.6 309.18,-112.6 309.18,-77 46.2,-77"/>
<polygon fill="none" stroke="black" points="46.2,-77 46.2,-112.6 309.18,-112.6 309.18,-77 46.2,-77"/>
<text text-anchor="start" x="53.2" y="-90.4" font-family="Arial Bold" font-size="18.00">public.home_kits</text>
<text text-anchor="start" x="177.69" y="-90.4" font-family="Arial" font-size="14.00">    </text>
<text text-anchor="start" x="208.81" y="-90.4" font-family="Arial" font-size="14.00" fill="#666666">[BASE TABLE]</text>
<polygon fill="none" stroke="black" points="46.2,-46.2 46.2,-77 309.18,-77 309.18,-46.2 46.2,-46.2"/>
<text text-anchor="start" x="53.2" y="-58.4" font-family="Arial" font-size="14.00">id </text>
<text text-anchor="start" x="67.99" y="-58.4" font-family="Arial" font-size="14.00" fill="#666666">[bigint]</text>
<polygon fill="none" stroke="black" stroke-width="3" points="44.7,-44.7 44.7,-114.1 310.68,-114.1 310.68,-44.7 44.7,-44.7"/>
</g>
<!-- public.test_kit_home_kit -->
<g id="node2" class="node">
<title>public.test_kit_home_kit</title>
<polygon fill="#efefef" stroke="none" points="199.7,-299.6 199.7,-335.2 517.67,-335.2 517.67,-299.6 199.7,-299.6"/>
<polygon fill="none" stroke="black" points="199.7,-299.6 199.7,-335.2 517.67,-335.2 517.67,-299.6 199.7,-299.6"/>
<text text-anchor="start" x="206.7" y="-313" font-family="Arial Bold" font-size="18.00">public.test_kit_home_kit</text>
<text text-anchor="start" x="386.18" y="-313" font-family="Arial" font-size="14.00">    </text>
<text text-anchor="start" x="417.3" y="-313" font-family="Arial" font-size="14.00" fill="#666666">[BASE TABLE]</text>
<polygon fill="none" stroke="black" points="199.7,-268.8 199.7,-299.6 517.67,-299.6 517.67,-268.8 199.7,-268.8"/>
<text text-anchor="start" x="206.7" y="-281" font-family="Arial" font-size="14.00">test_kit_id </text>
<text text-anchor="start" x="273.63" y="-281" font-family="Arial" font-size="14.00" fill="#666666">[bigint]</text>
<polygon fill="none" stroke="black" points="199.7,-238 199.7,-268.8 517.67,-268.8 517.67,-238 199.7,-238"/>
<text text-anchor="start" x="206.7" y="-250.2" font-family="Arial" font-size="14.00">home_kit_id </text>
<text text-anchor="start" x="286.08" y="-250.2" font-family="Arial" font-size="14.00" fill="#666666">[bigint]</text>
</g>
<!-- public.test_kit_home_kit&#45;&gt;public.home_kits -->
<g id="edge1" class="edge">
<title>public.test_kit_home_kit:home_kit_id&#45;&gt;public.home_kits:id</title>
<path fill="none" stroke="black" d="M188.77,-250.6C176.56,-241.5 186.79,-212.33 199.7,-194.8 230.09,-153.57 278.93,-200.13 309.18,-158.8 334.69,-123.93 353.38,-61.6 310.18,-61.6"/>
<polygon fill="black" stroke="black" points="188.76,-250.6 197.16,-257.64 193.89,-252.04 198.06,-253.22 198.06,-253.22 198.06,-253.22 193.89,-252.04 199.6,-248.98 188.76,-250.6"/>
</g>
<!-- public.test_kits -->
<g id="node3" class="node">
<title>public.test_kits</title>
<polygon fill="#efefef" stroke="none" points="416.7,-77 416.7,-112.6 664.68,-112.6 664.68,-77 416.7,-77"/>
<polygon fill="none" stroke="black" points="416.7,-77 416.7,-112.6 664.68,-112.6 664.68,-77 416.7,-77"/>
<text text-anchor="start" x="423.7" y="-90.4" font-family="Arial Bold" font-size="18.00">public.test_kits</text>
<text text-anchor="start" x="533.19" y="-90.4" font-family="Arial" font-size="14.00">    </text>
<text text-anchor="start" x="564.31" y="-90.4" font-family="Arial" font-size="14.00" fill="#666666">[BASE TABLE]</text>
<polygon fill="none" stroke="black" points="416.7,-46.2 416.7,-77 664.68,-77 664.68,-46.2 416.7,-46.2"/>
<text text-anchor="start" x="423.7" y="-58.4" font-family="Arial" font-size="14.00">id </text>
<text text-anchor="start" x="438.48" y="-58.4" font-family="Arial" font-size="14.00" fill="#666666">[bigint]</text>
</g>
<!-- public.test_kit_home_kit&#45;&gt;public.test_kits -->
<g id="edge2" class="edge">
<title>public.test_kit_home_kit:test_kit_id&#45;&gt;public.test_kits:id</title>
<path fill="none" stroke="black" d="M528.71,-282.65C554.84,-273.34 538.12,-224.26 517.67,-194.8 490.24,-155.28 444.12,-195.33 416.7,-155.8 392.83,-121.4 373.83,-61.6 415.7,-61.6"/>
<polygon fill="black" stroke="black" points="528.89,-282.62 518.32,-279.7 523.62,-283.44 519.34,-284.1 519.34,-284.1 519.34,-284.1 523.62,-283.44 519.69,-288.6 528.89,-282.62"/>
</g>
</g>
</svg>
