<?xml version="1.0" encoding="UTF-8" standalone="no"?>
<!DOCTYPE svg PUBLIC "-//W3C//DTD SVG 1.1//EN"
 "http://www.w3.org/Graphics/SVG/1.1/DTD/svg11.dtd">
<!-- Generated by graphviz version 12.1.2 (20240928.0832)
 -->
<!-- Title: public.model_has_roles Pages: 1 -->
<svg width="1216pt" height="380pt"
 viewBox="0.00 0.00 1215.85 380.40" xmlns="http://www.w3.org/2000/svg" xmlns:xlink="http://www.w3.org/1999/xlink">
<g id="graph0" class="graph" transform="scale(1 1) rotate(0) translate(4 376.4)">
<title>public.model_has_roles</title>
<polygon fill="white" stroke="none" points="-4,4 -4,-376.4 1211.85,-376.4 1211.85,4 -4,4"/>
<!-- public.model_has_roles -->
<g id="node1" class="node">
<title>public.model_has_roles</title>
<polygon fill="#efefef" stroke="none" points="46.2,-278.2 46.2,-313.8 356.16,-313.8 356.16,-278.2 46.2,-278.2"/>
<polygon fill="none" stroke="black" points="46.2,-278.2 46.2,-313.8 356.16,-313.8 356.16,-278.2 46.2,-278.2"/>
<text text-anchor="start" x="53.2" y="-291.6" font-family="Arial Bold" font-size="18.00">public.model_has_roles</text>
<text text-anchor="start" x="224.67" y="-291.6" font-family="Arial" font-size="14.00">    </text>
<text text-anchor="start" x="255.78" y="-291.6" font-family="Arial" font-size="14.00" fill="#666666">[BASE TABLE]</text>
<polygon fill="none" stroke="black" points="46.2,-247.4 46.2,-278.2 356.16,-278.2 356.16,-247.4 46.2,-247.4"/>
<text text-anchor="start" x="53.2" y="-259.6" font-family="Arial" font-size="14.00">role_id </text>
<text text-anchor="start" x="99.12" y="-259.6" font-family="Arial" font-size="14.00" fill="#666666">[bigint]</text>
<polygon fill="none" stroke="black" stroke-width="3" points="44.7,-245.9 44.7,-315.3 357.66,-315.3 357.66,-245.9 44.7,-245.9"/>
</g>
<!-- public.roles -->
<g id="node2" class="node">
<title>public.roles</title>
<polygon fill="#efefef" stroke="none" points="724.69,-74 724.69,-109.6 947.66,-109.6 947.66,-74 724.69,-74"/>
<polygon fill="none" stroke="black" points="724.69,-74 724.69,-109.6 947.66,-109.6 947.66,-74 724.69,-74"/>
<text text-anchor="start" x="731.69" y="-87.4" font-family="Arial Bold" font-size="18.00">public.roles</text>
<text text-anchor="start" x="816.17" y="-87.4" font-family="Arial" font-size="14.00">    </text>
<text text-anchor="start" x="847.29" y="-87.4" font-family="Arial" font-size="14.00" fill="#666666">[BASE TABLE]</text>
<polygon fill="none" stroke="black" points="724.69,-43.2 724.69,-74 947.66,-74 947.66,-43.2 724.69,-43.2"/>
<text text-anchor="start" x="731.69" y="-55.4" font-family="Arial" font-size="14.00">id </text>
<text text-anchor="start" x="746.48" y="-55.4" font-family="Arial" font-size="14.00" fill="#666666">[bigint]</text>
</g>
<!-- public.model_has_roles&#45;&gt;public.roles -->
<g id="edge1" class="edge">
<title>public.model_has_roles:role_id&#45;&gt;public.roles:id</title>
<path fill="none" stroke="black" d="M367.49,-261.47C394.71,-253.49 382.32,-211.54 411.18,-188.8 529.35,-95.66 573.22,-58.6 723.69,-58.6"/>
<polygon fill="black" stroke="black" points="367.41,-261.48 356.91,-258.29 362.11,-262.16 357.82,-262.71 357.82,-262.71 357.82,-262.71 362.11,-262.16 358.06,-267.22 367.41,-261.48"/>
</g>
<!-- public.role_has_permissions -->
<g id="node3" class="node">
<title>public.role_has_permissions</title>
<polygon fill="#efefef" stroke="none" points="463.2,-293.6 463.2,-329.2 807.16,-329.2 807.16,-293.6 463.2,-293.6"/>
<polygon fill="none" stroke="black" points="463.2,-293.6 463.2,-329.2 807.16,-329.2 807.16,-293.6 463.2,-293.6"/>
<text text-anchor="start" x="470.2" y="-307" font-family="Arial Bold" font-size="18.00">public.role_has_permissions</text>
<text text-anchor="start" x="675.67" y="-307" font-family="Arial" font-size="14.00">    </text>
<text text-anchor="start" x="706.79" y="-307" font-family="Arial" font-size="14.00" fill="#666666">[BASE TABLE]</text>
<polygon fill="none" stroke="black" points="463.2,-262.8 463.2,-293.6 807.16,-293.6 807.16,-262.8 463.2,-262.8"/>
<text text-anchor="start" x="470.2" y="-275" font-family="Arial" font-size="14.00">permission_id </text>
<text text-anchor="start" x="560.46" y="-275" font-family="Arial" font-size="14.00" fill="#666666">[bigint]</text>
<polygon fill="none" stroke="black" points="463.2,-232 463.2,-262.8 807.16,-262.8 807.16,-232 463.2,-232"/>
<text text-anchor="start" x="470.2" y="-244.2" font-family="Arial" font-size="14.00">role_id </text>
<text text-anchor="start" x="516.11" y="-244.2" font-family="Arial" font-size="14.00" fill="#666666">[bigint]</text>
</g>
<!-- public.role_has_permissions&#45;&gt;public.roles -->
<g id="edge2" class="edge">
<title>public.role_has_permissions:role_id&#45;&gt;public.roles:id</title>
<path fill="none" stroke="black" d="M818.02,-244.65C830.02,-235.69 819.24,-206.92 807.16,-188.8 784.97,-155.53 746.77,-186.14 724.69,-152.8 701.58,-117.89 681.82,-58.6 723.69,-58.6"/>
<polygon fill="black" stroke="black" points="818.11,-244.62 807.27,-242.98 812.97,-246.06 808.8,-247.22 808.8,-247.22 808.8,-247.22 812.97,-246.06 809.69,-251.64 818.11,-244.62"/>
</g>
<!-- public.role_role -->
<g id="node4" class="node">
<title>public.role_role</title>
<polygon fill="#efefef" stroke="none" points="911.7,-293.6 911.7,-329.2 1164.65,-329.2 1164.65,-293.6 911.7,-293.6"/>
<polygon fill="none" stroke="black" points="911.7,-293.6 911.7,-329.2 1164.65,-329.2 1164.65,-293.6 911.7,-293.6"/>
<text text-anchor="start" x="918.7" y="-307" font-family="Arial Bold" font-size="18.00">public.role_role</text>
<text text-anchor="start" x="1033.16" y="-307" font-family="Arial" font-size="14.00">    </text>
<text text-anchor="start" x="1064.28" y="-307" font-family="Arial" font-size="14.00" fill="#666666">[BASE TABLE]</text>
<polygon fill="none" stroke="black" points="911.7,-262.8 911.7,-293.6 1164.65,-293.6 1164.65,-262.8 911.7,-262.8"/>
<text text-anchor="start" x="918.7" y="-275" font-family="Arial" font-size="14.00">role_id </text>
<text text-anchor="start" x="964.62" y="-275" font-family="Arial" font-size="14.00" fill="#666666">[bigint]</text>
<polygon fill="none" stroke="black" points="911.7,-232 911.7,-262.8 1164.65,-262.8 1164.65,-232 911.7,-232"/>
<text text-anchor="start" x="918.7" y="-244.2" font-family="Arial" font-size="14.00">role_to_assign_id </text>
<text text-anchor="start" x="1032.34" y="-244.2" font-family="Arial" font-size="14.00" fill="#666666">[bigint]</text>
</g>
<!-- public.role_role&#45;&gt;public.roles -->
<g id="edge3" class="edge">
<title>public.role_role:role_id&#45;&gt;public.roles:id</title>
<path fill="none" stroke="black" d="M900.53,-276.64C876.01,-267.65 897.87,-221.71 911.7,-188.8 920.47,-167.95 938.9,-173.65 947.66,-152.8 963.88,-114.2 990.53,-58.6 948.66,-58.6"/>
<polygon fill="black" stroke="black" points="900.49,-276.63 909.69,-282.6 905.76,-277.44 910.04,-278.1 910.04,-278.1 910.04,-278.1 905.76,-277.44 911.05,-273.7 900.49,-276.63"/>
</g>
<!-- public.role_role&#45;&gt;public.roles -->
<g id="edge4" class="edge">
<title>public.role_role:role_to_assign_id&#45;&gt;public.roles:id</title>
<path fill="none" stroke="black" d="M900.82,-244.56C890.26,-235.81 903.28,-208.66 911.7,-188.8 920.53,-167.98 938.9,-173.65 947.66,-152.8 963.88,-114.2 990.53,-58.6 948.66,-58.6"/>
<polygon fill="black" stroke="black" points="900.77,-244.55 909.14,-251.63 905.9,-246.02 910.06,-247.22 910.06,-247.22 910.06,-247.22 905.9,-246.02 911.62,-242.98 900.77,-244.55"/>
</g>
</g>
</svg>
