<?xml version="1.0" encoding="UTF-8" standalone="no"?>
<!DOCTYPE svg PUBLIC "-//W3C//DTD SVG 1.1//EN"
 "http://www.w3.org/Graphics/SVG/1.1/DTD/svg11.dtd">
<!-- Generated by graphviz version 12.1.2 (20240928.0832)
 -->
<!-- Title: public.simple_categories Pages: 1 -->
<svg width="4391pt" height="698pt"
 viewBox="0.00 0.00 4390.81 698.40" xmlns="http://www.w3.org/2000/svg" xmlns:xlink="http://www.w3.org/1999/xlink">
<g id="graph0" class="graph" transform="scale(1 1) rotate(0) translate(4 694.4)">
<title>public.simple_categories</title>
<polygon fill="white" stroke="none" points="-4,4 -4,-694.4 4386.81,-694.4 4386.81,4 -4,4"/>
<!-- public.simple_categories -->
<g id="node1" class="node">
<title>public.simple_categories</title>
<polygon fill="#efefef" stroke="none" points="1725.69,-77 1725.69,-112.6 2043.62,-112.6 2043.62,-77 1725.69,-77"/>
<polygon fill="none" stroke="black" points="1725.69,-77 1725.69,-112.6 2043.62,-112.6 2043.62,-77 1725.69,-77"/>
<text text-anchor="start" x="1732.69" y="-90.4" font-family="Arial Bold" font-size="18.00">public.simple_categories</text>
<text text-anchor="start" x="1912.14" y="-90.4" font-family="Arial" font-size="14.00">    </text>
<text text-anchor="start" x="1943.25" y="-90.4" font-family="Arial" font-size="14.00" fill="#666666">[BASE TABLE]</text>
<polygon fill="none" stroke="black" points="1725.69,-46.2 1725.69,-77 2043.62,-77 2043.62,-46.2 1725.69,-46.2"/>
<text text-anchor="start" x="1732.69" y="-58.4" font-family="Arial" font-size="14.00">id </text>
<text text-anchor="start" x="1747.47" y="-58.4" font-family="Arial" font-size="14.00" fill="#666666">[bigint]</text>
<polygon fill="none" stroke="black" stroke-width="3" points="1724.19,-44.7 1724.19,-114.1 2045.12,-114.1 2045.12,-44.7 1724.19,-44.7"/>
</g>
<!-- public.services -->
<g id="node2" class="node">
<title>public.services</title>
<polygon fill="#efefef" stroke="none" points="1976.68,-330.4 1976.68,-366 2222.63,-366 2222.63,-330.4 1976.68,-330.4"/>
<polygon fill="none" stroke="black" points="1976.68,-330.4 1976.68,-366 2222.63,-366 2222.63,-330.4 1976.68,-330.4"/>
<text text-anchor="start" x="1983.68" y="-343.8" font-family="Arial Bold" font-size="18.00">public.services</text>
<text text-anchor="start" x="2091.14" y="-343.8" font-family="Arial" font-size="14.00">    </text>
<text text-anchor="start" x="2122.26" y="-343.8" font-family="Arial" font-size="14.00" fill="#666666">[BASE TABLE]</text>
<polygon fill="none" stroke="black" points="1976.68,-299.6 1976.68,-330.4 2222.63,-330.4 2222.63,-299.6 1976.68,-299.6"/>
<text text-anchor="start" x="1983.68" y="-311.8" font-family="Arial" font-size="14.00">id </text>
<text text-anchor="start" x="1998.47" y="-311.8" font-family="Arial" font-size="14.00" fill="#666666">[bigint]</text>
<polygon fill="none" stroke="black" points="1976.68,-268.8 1976.68,-299.6 2222.63,-299.6 2222.63,-268.8 1976.68,-268.8"/>
<text text-anchor="start" x="1983.68" y="-281" font-family="Arial" font-size="14.00">attune_department_id </text>
<text text-anchor="start" x="2123.78" y="-281" font-family="Arial" font-size="14.00" fill="#666666">[bigint]</text>
<polygon fill="none" stroke="black" points="1976.68,-238 1976.68,-268.8 2222.63,-268.8 2222.63,-238 1976.68,-238"/>
<text text-anchor="start" x="1983.68" y="-250.2" font-family="Arial" font-size="14.00">simple_cate_id </text>
<text text-anchor="start" x="2080.96" y="-250.2" font-family="Arial" font-size="14.00" fill="#666666">[bigint]</text>
</g>
<!-- public.services&#45;&gt;public.simple_categories -->
<g id="edge1" class="edge">
<title>public.services:simple_cate_id&#45;&gt;public.simple_categories:id</title>
<path fill="none" stroke="black" d="M1965.88,-250.69C1954.06,-241.85 1965.35,-213.39 1976.68,-194.8 1994.26,-165.95 2026.14,-187.71 2043.62,-158.8 2065.98,-121.83 2087.83,-61.6 2044.62,-61.6"/>
<polygon fill="black" stroke="black" points="1965.72,-250.64 1974.16,-257.65 1970.86,-252.07 1975.04,-253.22 1975.04,-253.22 1975.04,-253.22 1970.86,-252.07 1976.56,-248.97 1965.72,-250.64"/>
</g>
<!-- public.attune_departments -->
<g id="node13" class="node">
<title>public.attune_departments</title>
<polygon fill="#efefef" stroke="none" points="2151.19,-77 2151.19,-112.6 2480.12,-112.6 2480.12,-77 2151.19,-77"/>
<polygon fill="none" stroke="black" points="2151.19,-77 2151.19,-112.6 2480.12,-112.6 2480.12,-77 2151.19,-77"/>
<text text-anchor="start" x="2158.19" y="-90.4" font-family="Arial Bold" font-size="18.00">public.attune_departments</text>
<text text-anchor="start" x="2348.63" y="-90.4" font-family="Arial" font-size="14.00">    </text>
<text text-anchor="start" x="2379.75" y="-90.4" font-family="Arial" font-size="14.00" fill="#666666">[BASE TABLE]</text>
<polygon fill="none" stroke="black" points="2151.19,-46.2 2151.19,-77 2480.12,-77 2480.12,-46.2 2151.19,-46.2"/>
<text text-anchor="start" x="2158.19" y="-58.4" font-family="Arial" font-size="14.00">id </text>
<text text-anchor="start" x="2172.98" y="-58.4" font-family="Arial" font-size="14.00" fill="#666666">[bigint]</text>
</g>
<!-- public.services&#45;&gt;public.attune_departments -->
<g id="edge12" class="edge">
<title>public.services:attune_department_id&#45;&gt;public.attune_departments:id</title>
<path fill="none" stroke="black" d="M2233.95,-282.57C2259.25,-273.18 2241.02,-225.4 2222.63,-194.8 2204,-163.79 2169.82,-186.81 2151.19,-155.8 2129.63,-119.91 2108.32,-61.6 2150.19,-61.6"/>
<polygon fill="black" stroke="black" points="2233.84,-282.58 2223.26,-279.7 2228.57,-283.42 2224.29,-284.1 2224.29,-284.1 2224.29,-284.1 2228.57,-283.42 2224.67,-288.59 2233.84,-282.58"/>
</g>
<!-- public.department_service -->
<g id="node3" class="node">
<title>public.department_service</title>
<polygon fill="#efefef" stroke="none" points="43.2,-580.8 43.2,-616.4 372.11,-616.4 372.11,-580.8 43.2,-580.8"/>
<polygon fill="none" stroke="black" points="43.2,-580.8 43.2,-616.4 372.11,-616.4 372.11,-580.8 43.2,-580.8"/>
<text text-anchor="start" x="50.2" y="-594.2" font-family="Arial Bold" font-size="18.00">public.department_service</text>
<text text-anchor="start" x="240.62" y="-594.2" font-family="Arial" font-size="14.00">    </text>
<text text-anchor="start" x="271.74" y="-594.2" font-family="Arial" font-size="14.00" fill="#666666">[BASE TABLE]</text>
<polygon fill="none" stroke="black" points="43.2,-550 43.2,-580.8 372.11,-580.8 372.11,-550 43.2,-550"/>
<text text-anchor="start" x="50.2" y="-562.2" font-family="Arial" font-size="14.00">department_id </text>
<text text-anchor="start" x="143.59" y="-562.2" font-family="Arial" font-size="14.00" fill="#666666">[bigint]</text>
<polygon fill="none" stroke="black" points="43.2,-519.2 43.2,-550 372.11,-550 372.11,-519.2 43.2,-519.2"/>
<text text-anchor="start" x="50.2" y="-531.4" font-family="Arial" font-size="14.00">service_id </text>
<text text-anchor="start" x="117.12" y="-531.4" font-family="Arial" font-size="14.00" fill="#666666">[bigint]</text>
</g>
<!-- public.department_service&#45;&gt;public.services -->
<g id="edge2" class="edge">
<title>public.department_service:service_id&#45;&gt;public.services:id</title>
<path fill="none" stroke="black" d="M383.28,-533.23C413.83,-523.76 389.27,-467.67 424.66,-445.2 570.65,-352.49 1802.74,-315 1975.68,-315"/>
<polygon fill="black" stroke="black" points="383.36,-533.22 372.84,-530.1 378.07,-533.93 373.78,-534.51 373.78,-534.51 373.78,-534.51 378.07,-533.93 374.04,-539.02 383.36,-533.22"/>
</g>
<!-- public.service_service_group -->
<g id="node4" class="node">
<title>public.service_service_group</title>
<polygon fill="#efefef" stroke="none" points="476.7,-580.8 476.7,-616.4 826.61,-616.4 826.61,-580.8 476.7,-580.8"/>
<polygon fill="none" stroke="black" points="476.7,-580.8 476.7,-616.4 826.61,-616.4 826.61,-580.8 476.7,-580.8"/>
<text text-anchor="start" x="483.7" y="-594.2" font-family="Arial Bold" font-size="18.00">public.service_service_group</text>
<text text-anchor="start" x="695.12" y="-594.2" font-family="Arial" font-size="14.00">    </text>
<text text-anchor="start" x="726.24" y="-594.2" font-family="Arial" font-size="14.00" fill="#666666">[BASE TABLE]</text>
<polygon fill="none" stroke="black" points="476.7,-550 476.7,-580.8 826.61,-580.8 826.61,-550 476.7,-550"/>
<text text-anchor="start" x="483.7" y="-562.2" font-family="Arial" font-size="14.00">service_id </text>
<text text-anchor="start" x="550.62" y="-562.2" font-family="Arial" font-size="14.00" fill="#666666">[bigint]</text>
<polygon fill="none" stroke="black" points="476.7,-519.2 476.7,-550 826.61,-550 826.61,-519.2 476.7,-519.2"/>
<text text-anchor="start" x="483.7" y="-531.4" font-family="Arial" font-size="14.00">service_group_id </text>
<text text-anchor="start" x="594.21" y="-531.4" font-family="Arial" font-size="14.00" fill="#666666">[bigint]</text>
</g>
<!-- public.service_service_group&#45;&gt;public.services -->
<g id="edge3" class="edge">
<title>public.service_service_group:service_id&#45;&gt;public.services:id</title>
<path fill="none" stroke="black" d="M837.76,-564.31C879,-554.28 835.31,-477.72 878.66,-445.2 976.84,-371.54 1852.93,-315 1975.68,-315"/>
<polygon fill="black" stroke="black" points="837.89,-564.3 827.46,-560.89 832.58,-564.87 828.28,-565.33 828.28,-565.33 828.28,-565.33 832.58,-564.87 828.42,-569.84 837.89,-564.3"/>
</g>
<!-- public.form_service -->
<g id="node5" class="node">
<title>public.form_service</title>
<polygon fill="#efefef" stroke="none" points="931.19,-580.8 931.19,-616.4 1214.13,-616.4 1214.13,-580.8 931.19,-580.8"/>
<polygon fill="none" stroke="black" points="931.19,-580.8 931.19,-616.4 1214.13,-616.4 1214.13,-580.8 931.19,-580.8"/>
<text text-anchor="start" x="938.19" y="-594.2" font-family="Arial Bold" font-size="18.00">public.form_service</text>
<text text-anchor="start" x="1082.64" y="-594.2" font-family="Arial" font-size="14.00">    </text>
<text text-anchor="start" x="1113.75" y="-594.2" font-family="Arial" font-size="14.00" fill="#666666">[BASE TABLE]</text>
<polygon fill="none" stroke="black" points="931.19,-550 931.19,-580.8 1214.13,-580.8 1214.13,-550 931.19,-550"/>
<text text-anchor="start" x="938.19" y="-562.2" font-family="Arial" font-size="14.00">form_id </text>
<text text-anchor="start" x="988.76" y="-562.2" font-family="Arial" font-size="14.00" fill="#666666">[bigint]</text>
<polygon fill="none" stroke="black" points="931.19,-519.2 931.19,-550 1214.13,-550 1214.13,-519.2 931.19,-519.2"/>
<text text-anchor="start" x="938.19" y="-531.4" font-family="Arial" font-size="14.00">service_id </text>
<text text-anchor="start" x="1005.1" y="-531.4" font-family="Arial" font-size="14.00" fill="#666666">[bigint]</text>
</g>
<!-- public.form_service&#45;&gt;public.services -->
<g id="edge4" class="edge">
<title>public.form_service:service_id&#45;&gt;public.services:id</title>
<path fill="none" stroke="black" d="M1225.32,-533.27C1256.03,-524.05 1232.41,-469.38 1266.66,-445.2 1397.52,-352.81 1815.48,-315 1975.68,-315"/>
<polygon fill="black" stroke="black" points="1225.37,-533.26 1214.87,-530.09 1220.08,-533.95 1215.79,-534.51 1215.79,-534.51 1215.79,-534.51 1220.08,-533.95 1216.04,-539.02 1225.37,-533.26"/>
</g>
<!-- public.checkup_service -->
<g id="node6" class="node">
<title>public.checkup_service</title>
<polygon fill="#efefef" stroke="none" points="1318.7,-580.8 1318.7,-616.4 1626.61,-616.4 1626.61,-580.8 1318.7,-580.8"/>
<polygon fill="none" stroke="black" points="1318.7,-580.8 1318.7,-616.4 1626.61,-616.4 1626.61,-580.8 1318.7,-580.8"/>
<text text-anchor="start" x="1325.7" y="-594.2" font-family="Arial Bold" font-size="18.00">public.checkup_service</text>
<text text-anchor="start" x="1495.13" y="-594.2" font-family="Arial" font-size="14.00">    </text>
<text text-anchor="start" x="1526.24" y="-594.2" font-family="Arial" font-size="14.00" fill="#666666">[BASE TABLE]</text>
<polygon fill="none" stroke="black" points="1318.7,-550 1318.7,-580.8 1626.61,-580.8 1626.61,-550 1318.7,-550"/>
<text text-anchor="start" x="1325.7" y="-562.2" font-family="Arial" font-size="14.00">checkup_id </text>
<text text-anchor="start" x="1400.42" y="-562.2" font-family="Arial" font-size="14.00" fill="#666666">[bigint]</text>
<polygon fill="none" stroke="black" points="1318.7,-519.2 1318.7,-550 1626.61,-550 1626.61,-519.2 1318.7,-519.2"/>
<text text-anchor="start" x="1325.7" y="-531.4" font-family="Arial" font-size="14.00">service_id </text>
<text text-anchor="start" x="1392.62" y="-531.4" font-family="Arial" font-size="14.00" fill="#666666">[bigint]</text>
</g>
<!-- public.checkup_service&#45;&gt;public.services -->
<g id="edge5" class="edge">
<title>public.checkup_service:service_id&#45;&gt;public.services:id</title>
<path fill="none" stroke="black" d="M1637.85,-533.35C1668.89,-524.7 1647.56,-473.17 1678.66,-445.2 1785.82,-348.8 1831.54,-315 1975.68,-315"/>
<polygon fill="black" stroke="black" points="1637.87,-533.35 1627.4,-530.09 1632.58,-533.99 1628.28,-534.52 1628.28,-534.52 1628.28,-534.52 1632.58,-533.99 1628.49,-539.03 1637.87,-533.35"/>
</g>
<!-- public.service_test_set -->
<g id="node7" class="node">
<title>public.service_test_set</title>
<polygon fill="#efefef" stroke="none" points="1730.69,-580.8 1730.69,-616.4 2032.63,-616.4 2032.63,-580.8 1730.69,-580.8"/>
<polygon fill="none" stroke="black" points="1730.69,-580.8 1730.69,-616.4 2032.63,-616.4 2032.63,-580.8 1730.69,-580.8"/>
<text text-anchor="start" x="1737.69" y="-594.2" font-family="Arial Bold" font-size="18.00">public.service_test_set</text>
<text text-anchor="start" x="1901.14" y="-594.2" font-family="Arial" font-size="14.00">    </text>
<text text-anchor="start" x="1932.25" y="-594.2" font-family="Arial" font-size="14.00" fill="#666666">[BASE TABLE]</text>
<polygon fill="none" stroke="black" points="1730.69,-550 1730.69,-580.8 2032.63,-580.8 2032.63,-550 1730.69,-550"/>
<text text-anchor="start" x="1737.69" y="-562.2" font-family="Arial" font-size="14.00">service_id </text>
<text text-anchor="start" x="1804.6" y="-562.2" font-family="Arial" font-size="14.00" fill="#666666">[bigint]</text>
<polygon fill="none" stroke="black" points="1730.69,-519.2 1730.69,-550 2032.63,-550 2032.63,-519.2 1730.69,-519.2"/>
<text text-anchor="start" x="1737.69" y="-531.4" font-family="Arial" font-size="14.00">test_set_id </text>
<text text-anchor="start" x="1809.29" y="-531.4" font-family="Arial" font-size="14.00" fill="#666666">[bigint]</text>
</g>
<!-- public.service_test_set&#45;&gt;public.services -->
<g id="edge6" class="edge">
<title>public.service_test_set:service_id&#45;&gt;public.services:id</title>
<path fill="none" stroke="black" d="M2043.75,-563.86C2068.02,-554.96 2045.01,-509.48 2032.63,-476 2019.19,-439.68 1990.1,-445.53 1976.68,-409.2 1962.17,-369.93 1933.81,-315 1975.68,-315"/>
<polygon fill="black" stroke="black" points="2043.84,-563.84 2033.28,-560.9 2038.57,-564.65 2034.29,-565.3 2034.29,-565.3 2034.29,-565.3 2038.57,-564.65 2034.63,-569.8 2043.84,-563.84"/>
</g>
<!-- public.company_order_service -->
<g id="node8" class="node">
<title>public.company_order_service</title>
<polygon fill="#efefef" stroke="none" points="2137.2,-580.8 2137.2,-616.4 2498.11,-616.4 2498.11,-580.8 2137.2,-580.8"/>
<polygon fill="none" stroke="black" points="2137.2,-580.8 2137.2,-616.4 2498.11,-616.4 2498.11,-580.8 2137.2,-580.8"/>
<text text-anchor="start" x="2144.2" y="-594.2" font-family="Arial Bold" font-size="18.00">public.company_order_service</text>
<text text-anchor="start" x="2366.62" y="-594.2" font-family="Arial" font-size="14.00">    </text>
<text text-anchor="start" x="2397.74" y="-594.2" font-family="Arial" font-size="14.00" fill="#666666">[BASE TABLE]</text>
<polygon fill="none" stroke="black" points="2137.2,-550 2137.2,-580.8 2498.11,-580.8 2498.11,-550 2137.2,-550"/>
<text text-anchor="start" x="2144.2" y="-562.2" font-family="Arial" font-size="14.00">service_id </text>
<text text-anchor="start" x="2211.12" y="-562.2" font-family="Arial" font-size="14.00" fill="#666666">[bigint]</text>
<polygon fill="none" stroke="black" points="2137.2,-519.2 2137.2,-550 2498.11,-550 2498.11,-519.2 2137.2,-519.2"/>
<text text-anchor="start" x="2144.2" y="-531.4" font-family="Arial" font-size="14.00">company_order_id </text>
<text text-anchor="start" x="2264.05" y="-531.4" font-family="Arial" font-size="14.00" fill="#666666">[bigint]</text>
</g>
<!-- public.company_order_service&#45;&gt;public.services -->
<g id="edge7" class="edge">
<title>public.company_order_service:service_id&#45;&gt;public.services:id</title>
<path fill="none" stroke="black" d="M2125.97,-563.81C2101.11,-554.66 2121.38,-508 2137.2,-476 2158.57,-432.79 2201.28,-452.41 2222.63,-409.2 2241.18,-371.66 2265.5,-315 2223.63,-315"/>
<polygon fill="black" stroke="black" points="2125.99,-563.81 2135.18,-569.8 2131.26,-564.63 2135.54,-565.3 2135.54,-565.3 2135.54,-565.3 2131.26,-564.63 2136.56,-560.9 2125.99,-563.81"/>
</g>
<!-- public.package_service -->
<g id="node9" class="node">
<title>public.package_service</title>
<polygon fill="#efefef" stroke="none" points="2602.2,-580.8 2602.2,-616.4 2909.11,-616.4 2909.11,-580.8 2602.2,-580.8"/>
<polygon fill="none" stroke="black" points="2602.2,-580.8 2602.2,-616.4 2909.11,-616.4 2909.11,-580.8 2602.2,-580.8"/>
<text text-anchor="start" x="2609.2" y="-594.2" font-family="Arial Bold" font-size="18.00">public.package_service</text>
<text text-anchor="start" x="2777.62" y="-594.2" font-family="Arial" font-size="14.00">    </text>
<text text-anchor="start" x="2808.74" y="-594.2" font-family="Arial" font-size="14.00" fill="#666666">[BASE TABLE]</text>
<polygon fill="none" stroke="black" points="2602.2,-550 2602.2,-580.8 2909.11,-580.8 2909.11,-550 2602.2,-550"/>
<text text-anchor="start" x="2609.2" y="-562.2" font-family="Arial" font-size="14.00">package_id </text>
<text text-anchor="start" x="2684.71" y="-562.2" font-family="Arial" font-size="14.00" fill="#666666">[bigint]</text>
<polygon fill="none" stroke="black" points="2602.2,-519.2 2602.2,-550 2909.11,-550 2909.11,-519.2 2602.2,-519.2"/>
<text text-anchor="start" x="2609.2" y="-531.4" font-family="Arial" font-size="14.00">service_id </text>
<text text-anchor="start" x="2676.12" y="-531.4" font-family="Arial" font-size="14.00" fill="#666666">[bigint]</text>
</g>
<!-- public.package_service&#45;&gt;public.services -->
<g id="edge8" class="edge">
<title>public.package_service:service_id&#45;&gt;public.services:id</title>
<path fill="none" stroke="black" d="M2591.01,-533.34C2560.16,-524.61 2582.09,-472.63 2550.66,-445.2 2432.79,-342.33 2380.07,-315 2223.63,-315"/>
<polygon fill="black" stroke="black" points="2590.95,-533.33 2600.32,-539.03 2596.24,-533.99 2600.54,-534.52 2600.54,-534.52 2600.54,-534.52 2596.24,-533.99 2601.42,-530.09 2590.95,-533.33"/>
</g>
<!-- public.imaging_diagnostic_data -->
<g id="node10" class="node">
<title>public.imaging_diagnostic_data</title>
<polygon fill="#efefef" stroke="none" points="3013.19,-611.6 3013.19,-647.2 3382.13,-647.2 3382.13,-611.6 3013.19,-611.6"/>
<polygon fill="none" stroke="black" points="3013.19,-611.6 3013.19,-647.2 3382.13,-647.2 3382.13,-611.6 3013.19,-611.6"/>
<text text-anchor="start" x="3020.19" y="-625" font-family="Arial Bold" font-size="18.00">public.imaging_diagnostic_data</text>
<text text-anchor="start" x="3250.64" y="-625" font-family="Arial" font-size="14.00">    </text>
<text text-anchor="start" x="3281.75" y="-625" font-family="Arial" font-size="14.00" fill="#666666">[BASE TABLE]</text>
<polygon fill="none" stroke="black" points="3013.19,-580.8 3013.19,-611.6 3382.13,-611.6 3382.13,-580.8 3013.19,-580.8"/>
<text text-anchor="start" x="3020.19" y="-593" font-family="Arial" font-size="14.00">id </text>
<text text-anchor="start" x="3034.97" y="-593" font-family="Arial" font-size="14.00" fill="#666666">[bigint]</text>
<polygon fill="none" stroke="black" points="3013.19,-550 3013.19,-580.8 3382.13,-580.8 3382.13,-550 3013.19,-550"/>
<text text-anchor="start" x="3020.19" y="-562.2" font-family="Arial" font-size="14.00">checkup_id </text>
<text text-anchor="start" x="3094.9" y="-562.2" font-family="Arial" font-size="14.00" fill="#666666">[bigint]</text>
<polygon fill="none" stroke="black" points="3013.19,-519.2 3013.19,-550 3382.13,-550 3382.13,-519.2 3013.19,-519.2"/>
<text text-anchor="start" x="3020.19" y="-531.4" font-family="Arial" font-size="14.00">service_id </text>
<text text-anchor="start" x="3087.1" y="-531.4" font-family="Arial" font-size="14.00" fill="#666666">[bigint]</text>
<polygon fill="none" stroke="black" points="3013.19,-488.4 3013.19,-519.2 3382.13,-519.2 3382.13,-488.4 3013.19,-488.4"/>
<text text-anchor="start" x="3020.19" y="-500.6" font-family="Arial" font-size="14.00">updated_by </text>
<text text-anchor="start" x="3097.26" y="-500.6" font-family="Arial" font-size="14.00" fill="#666666">[bigint]</text>
</g>
<!-- public.imaging_diagnostic_data&#45;&gt;public.services -->
<g id="edge9" class="edge">
<title>public.imaging_diagnostic_data:service_id&#45;&gt;public.services:id</title>
<path fill="none" stroke="black" d="M3002.06,-533.27C2971.6,-524.03 2995.72,-469.29 2961.66,-445.2 2825.68,-349.05 2390.17,-315 2223.63,-315"/>
<polygon fill="black" stroke="black" points="3001.94,-533.25 3011.27,-539.02 3007.23,-533.95 3011.52,-534.51 3011.52,-534.51 3011.52,-534.51 3007.23,-533.95 3012.44,-530.09 3001.94,-533.25"/>
</g>
<!-- public.imaging_diagnostic_data_histories -->
<g id="node11" class="node">
<title>public.imaging_diagnostic_data_histories</title>
<polygon fill="#efefef" stroke="none" points="3486.19,-611.6 3486.19,-647.2 3925.12,-647.2 3925.12,-611.6 3486.19,-611.6"/>
<polygon fill="none" stroke="black" points="3486.19,-611.6 3486.19,-647.2 3925.12,-647.2 3925.12,-611.6 3486.19,-611.6"/>
<text text-anchor="start" x="3493.19" y="-625" font-family="Arial Bold" font-size="18.00">public.imaging_diagnostic_data_histories</text>
<text text-anchor="start" x="3793.63" y="-625" font-family="Arial" font-size="14.00">    </text>
<text text-anchor="start" x="3824.75" y="-625" font-family="Arial" font-size="14.00" fill="#666666">[BASE TABLE]</text>
<polygon fill="none" stroke="black" points="3486.19,-580.8 3486.19,-611.6 3925.12,-611.6 3925.12,-580.8 3486.19,-580.8"/>
<text text-anchor="start" x="3493.19" y="-593" font-family="Arial" font-size="14.00">imaging_diagnostic_data_id </text>
<text text-anchor="start" x="3670.65" y="-593" font-family="Arial" font-size="14.00" fill="#666666">[bigint]</text>
<polygon fill="none" stroke="black" points="3486.19,-550 3486.19,-580.8 3925.12,-580.8 3925.12,-550 3486.19,-550"/>
<text text-anchor="start" x="3493.19" y="-562.2" font-family="Arial" font-size="14.00">checkup_id </text>
<text text-anchor="start" x="3567.91" y="-562.2" font-family="Arial" font-size="14.00" fill="#666666">[bigint]</text>
<polygon fill="none" stroke="black" points="3486.19,-519.2 3486.19,-550 3925.12,-550 3925.12,-519.2 3486.19,-519.2"/>
<text text-anchor="start" x="3493.19" y="-531.4" font-family="Arial" font-size="14.00">service_id </text>
<text text-anchor="start" x="3560.11" y="-531.4" font-family="Arial" font-size="14.00" fill="#666666">[bigint]</text>
<polygon fill="none" stroke="black" points="3486.19,-488.4 3486.19,-519.2 3925.12,-519.2 3925.12,-488.4 3486.19,-488.4"/>
<text text-anchor="start" x="3493.19" y="-500.6" font-family="Arial" font-size="14.00">updated_by </text>
<text text-anchor="start" x="3570.26" y="-500.6" font-family="Arial" font-size="14.00" fill="#666666">[bigint]</text>
</g>
<!-- public.imaging_diagnostic_data_histories&#45;&gt;public.services -->
<g id="edge10" class="edge">
<title>public.imaging_diagnostic_data_histories:service_id&#45;&gt;public.services:id</title>
<path fill="none" stroke="black" d="M3475.07,-533.24C3444.73,-523.83 3469.51,-468.12 3434.66,-445.2 3321.58,-370.84 2358.97,-315 2223.63,-315"/>
<polygon fill="black" stroke="black" points="3474.95,-533.22 3484.26,-539.02 3480.23,-533.93 3484.53,-534.51 3484.53,-534.51 3484.53,-534.51 3480.23,-533.93 3485.46,-530.1 3474.95,-533.22"/>
</g>
<!-- public.category_service -->
<g id="node12" class="node">
<title>public.category_service</title>
<polygon fill="#efefef" stroke="none" points="4029.7,-580.8 4029.7,-616.4 4339.61,-616.4 4339.61,-580.8 4029.7,-580.8"/>
<polygon fill="none" stroke="black" points="4029.7,-580.8 4029.7,-616.4 4339.61,-616.4 4339.61,-580.8 4029.7,-580.8"/>
<text text-anchor="start" x="4036.7" y="-594.2" font-family="Arial Bold" font-size="18.00">public.category_service</text>
<text text-anchor="start" x="4208.12" y="-594.2" font-family="Arial" font-size="14.00">    </text>
<text text-anchor="start" x="4239.24" y="-594.2" font-family="Arial" font-size="14.00" fill="#666666">[BASE TABLE]</text>
<polygon fill="none" stroke="black" points="4029.7,-550 4029.7,-580.8 4339.61,-580.8 4339.61,-550 4029.7,-550"/>
<text text-anchor="start" x="4036.7" y="-562.2" font-family="Arial" font-size="14.00">service_id </text>
<text text-anchor="start" x="4103.62" y="-562.2" font-family="Arial" font-size="14.00" fill="#666666">[bigint]</text>
<polygon fill="none" stroke="black" points="4029.7,-519.2 4029.7,-550 4339.61,-550 4339.61,-519.2 4029.7,-519.2"/>
<text text-anchor="start" x="4036.7" y="-531.4" font-family="Arial" font-size="14.00">category_id </text>
<text text-anchor="start" x="4112.97" y="-531.4" font-family="Arial" font-size="14.00" fill="#666666">[integer]</text>
</g>
<!-- public.category_service&#45;&gt;public.services -->
<g id="edge11" class="edge">
<title>public.category_service:service_id&#45;&gt;public.services:id</title>
<path fill="none" stroke="black" d="M4018.56,-564.3C3977.41,-554.16 4021.7,-476.76 3977.66,-445.2 3818.79,-331.39 2419.06,-315 2223.63,-315"/>
<polygon fill="black" stroke="black" points="4018.43,-564.28 4027.88,-569.84 4023.73,-564.86 4028.04,-565.33 4028.04,-565.33 4028.04,-565.33 4023.73,-564.86 4028.85,-560.89 4018.43,-564.28"/>
</g>
</g>
</svg>
