<?xml version="1.0" encoding="UTF-8" standalone="no"?>
<!DOCTYPE svg PUBLIC "-//W3C//DTD SVG 1.1//EN"
 "http://www.w3.org/Graphics/SVG/1.1/DTD/svg11.dtd">
<!-- Generated by graphviz version 12.1.2 (20240928.0832)
 -->
<!-- Title: public.form_service Pages: 1 -->
<svg width="5150pt" height="723pt"
 viewBox="0.00 0.00 5149.83 723.20" xmlns="http://www.w3.org/2000/svg" xmlns:xlink="http://www.w3.org/1999/xlink">
<g id="graph0" class="graph" transform="scale(1 1) rotate(0) translate(4 719.2)">
<title>public.form_service</title>
<polygon fill="white" stroke="none" points="-4,4 -4,-719.2 5145.83,-719.2 5145.83,4 -4,4"/>
<!-- public.form_service -->
<g id="node1" class="node">
<title>public.form_service</title>
<polygon fill="#efefef" stroke="none" points="800.2,-590.2 800.2,-625.8 1083.14,-625.8 1083.14,-590.2 800.2,-590.2"/>
<polygon fill="none" stroke="black" points="800.2,-590.2 800.2,-625.8 1083.14,-625.8 1083.14,-590.2 800.2,-590.2"/>
<text text-anchor="start" x="807.2" y="-603.6" font-family="Arial Bold" font-size="18.00">public.form_service</text>
<text text-anchor="start" x="951.65" y="-603.6" font-family="Arial" font-size="14.00">    </text>
<text text-anchor="start" x="982.77" y="-603.6" font-family="Arial" font-size="14.00" fill="#666666">[BASE TABLE]</text>
<polygon fill="none" stroke="black" points="800.2,-559.4 800.2,-590.2 1083.14,-590.2 1083.14,-559.4 800.2,-559.4"/>
<text text-anchor="start" x="807.2" y="-571.6" font-family="Arial" font-size="14.00">form_id </text>
<text text-anchor="start" x="857.78" y="-571.6" font-family="Arial" font-size="14.00" fill="#666666">[bigint]</text>
<polygon fill="none" stroke="black" points="800.2,-528.6 800.2,-559.4 1083.14,-559.4 1083.14,-528.6 800.2,-528.6"/>
<text text-anchor="start" x="807.2" y="-540.8" font-family="Arial" font-size="14.00">service_id </text>
<text text-anchor="start" x="874.12" y="-540.8" font-family="Arial" font-size="14.00" fill="#666666">[bigint]</text>
<polygon fill="none" stroke="black" stroke-width="3" points="798.7,-527.1 798.7,-627.3 1084.64,-627.3 1084.64,-527.1 798.7,-527.1"/>
</g>
<!-- public.forms -->
<g id="node2" class="node">
<title>public.forms</title>
<polygon fill="#efefef" stroke="none" points="455.69,-293.6 455.69,-329.2 685.66,-329.2 685.66,-293.6 455.69,-293.6"/>
<polygon fill="none" stroke="black" points="455.69,-293.6 455.69,-329.2 685.66,-329.2 685.66,-293.6 455.69,-293.6"/>
<text text-anchor="start" x="462.69" y="-307" font-family="Arial Bold" font-size="18.00">public.forms</text>
<text text-anchor="start" x="554.17" y="-307" font-family="Arial" font-size="14.00">    </text>
<text text-anchor="start" x="585.29" y="-307" font-family="Arial" font-size="14.00" fill="#666666">[BASE TABLE]</text>
<polygon fill="none" stroke="black" points="455.69,-262.8 455.69,-293.6 685.66,-293.6 685.66,-262.8 455.69,-262.8"/>
<text text-anchor="start" x="462.69" y="-275" font-family="Arial" font-size="14.00">id </text>
<text text-anchor="start" x="477.47" y="-275" font-family="Arial" font-size="14.00" fill="#666666">[bigint]</text>
</g>
<!-- public.form_service&#45;&gt;public.forms -->
<g id="edge1" class="edge">
<title>public.form_service:form_id&#45;&gt;public.forms:id</title>
<path fill="none" stroke="black" d="M790.61,-569.4C757.27,-529.2 719.09,-278.2 686.66,-278.2"/>
<polygon fill="black" stroke="black" points="790.46,-569.3 796.53,-578.43 794.97,-572.14 798.64,-574.44 798.64,-574.44 798.64,-574.44 794.97,-572.14 801.32,-570.81 790.46,-569.3"/>
</g>
<!-- public.services -->
<g id="node5" class="node">
<title>public.services</title>
<polygon fill="#efefef" stroke="none" points="2735.7,-324.4 2735.7,-360 2981.65,-360 2981.65,-324.4 2735.7,-324.4"/>
<polygon fill="none" stroke="black" points="2735.7,-324.4 2735.7,-360 2981.65,-360 2981.65,-324.4 2735.7,-324.4"/>
<text text-anchor="start" x="2742.7" y="-337.8" font-family="Arial Bold" font-size="18.00">public.services</text>
<text text-anchor="start" x="2850.16" y="-337.8" font-family="Arial" font-size="14.00">    </text>
<text text-anchor="start" x="2881.28" y="-337.8" font-family="Arial" font-size="14.00" fill="#666666">[BASE TABLE]</text>
<polygon fill="none" stroke="black" points="2735.7,-293.6 2735.7,-324.4 2981.65,-324.4 2981.65,-293.6 2735.7,-293.6"/>
<text text-anchor="start" x="2742.7" y="-305.8" font-family="Arial" font-size="14.00">id </text>
<text text-anchor="start" x="2757.48" y="-305.8" font-family="Arial" font-size="14.00" fill="#666666">[bigint]</text>
<polygon fill="none" stroke="black" points="2735.7,-262.8 2735.7,-293.6 2981.65,-293.6 2981.65,-262.8 2735.7,-262.8"/>
<text text-anchor="start" x="2742.7" y="-275" font-family="Arial" font-size="14.00">attune_department_id </text>
<text text-anchor="start" x="2882.8" y="-275" font-family="Arial" font-size="14.00" fill="#666666">[bigint]</text>
<polygon fill="none" stroke="black" points="2735.7,-232 2735.7,-262.8 2981.65,-262.8 2981.65,-232 2735.7,-232"/>
<text text-anchor="start" x="2742.7" y="-244.2" font-family="Arial" font-size="14.00">simple_cate_id </text>
<text text-anchor="start" x="2839.97" y="-244.2" font-family="Arial" font-size="14.00" fill="#666666">[bigint]</text>
</g>
<!-- public.form_service&#45;&gt;public.services -->
<g id="edge4" class="edge">
<title>public.form_service:service_id&#45;&gt;public.services:id</title>
<path fill="none" stroke="black" d="M1094.3,-542.8C1130.65,-533.02 1097.44,-466.14 1137.67,-439.2 1285.62,-340.16 2556.66,-309 2734.7,-309"/>
<polygon fill="black" stroke="black" points="1094.4,-542.79 1083.95,-539.49 1089.11,-543.41 1084.81,-543.92 1084.81,-543.92 1084.81,-543.92 1089.11,-543.41 1085,-548.43 1094.4,-542.79"/>
</g>
<!-- public.form_speciality -->
<g id="node3" class="node">
<title>public.form_speciality</title>
<polygon fill="#efefef" stroke="none" points="43.2,-590.2 43.2,-625.8 344.15,-625.8 344.15,-590.2 43.2,-590.2"/>
<polygon fill="none" stroke="black" points="43.2,-590.2 43.2,-625.8 344.15,-625.8 344.15,-590.2 43.2,-590.2"/>
<text text-anchor="start" x="50.2" y="-603.6" font-family="Arial Bold" font-size="18.00">public.form_speciality</text>
<text text-anchor="start" x="212.66" y="-603.6" font-family="Arial" font-size="14.00">    </text>
<text text-anchor="start" x="243.77" y="-603.6" font-family="Arial" font-size="14.00" fill="#666666">[BASE TABLE]</text>
<polygon fill="none" stroke="black" points="43.2,-559.4 43.2,-590.2 344.15,-590.2 344.15,-559.4 43.2,-559.4"/>
<text text-anchor="start" x="50.2" y="-571.6" font-family="Arial" font-size="14.00">form_id </text>
<text text-anchor="start" x="100.77" y="-571.6" font-family="Arial" font-size="14.00" fill="#666666">[bigint]</text>
<polygon fill="none" stroke="black" points="43.2,-528.6 43.2,-559.4 344.15,-559.4 344.15,-528.6 43.2,-528.6"/>
<text text-anchor="start" x="50.2" y="-540.8" font-family="Arial" font-size="14.00">speciality_id </text>
<text text-anchor="start" x="130.35" y="-540.8" font-family="Arial" font-size="14.00" fill="#666666">[bigint]</text>
</g>
<!-- public.form_speciality&#45;&gt;public.forms -->
<g id="edge2" class="edge">
<title>public.form_speciality:form_id&#45;&gt;public.forms:id</title>
<path fill="none" stroke="black" d="M350.36,-565.92C372.08,-516.57 446.81,-278.2 454.69,-278.2"/>
<polygon fill="black" stroke="black" points="350.38,-565.89 341.44,-572.23 347.68,-570.49 345.49,-574.22 345.49,-574.22 345.49,-574.22 347.68,-570.49 349.2,-576.79 350.38,-565.89"/>
</g>
<!-- public.reports -->
<g id="node4" class="node">
<title>public.reports</title>
<polygon fill="#efefef" stroke="none" points="448.1,-636.4 448.1,-672 693.24,-672 693.24,-636.4 448.1,-636.4"/>
<polygon fill="none" stroke="black" points="448.1,-636.4 448.1,-672 693.24,-672 693.24,-636.4 448.1,-636.4"/>
<text text-anchor="start" x="458.69" y="-649.8" font-family="Arial Bold" font-size="18.00">public.reports</text>
<text text-anchor="start" x="558.17" y="-649.8" font-family="Arial" font-size="14.00">    </text>
<text text-anchor="start" x="589.28" y="-649.8" font-family="Arial" font-size="14.00" fill="#666666">[BASE TABLE]</text>
<polygon fill="none" stroke="black" points="448.1,-605.6 448.1,-636.4 693.24,-636.4 693.24,-605.6 448.1,-605.6"/>
<text text-anchor="start" x="455.1" y="-617.8" font-family="Arial" font-size="14.00">id </text>
<text text-anchor="start" x="469.89" y="-617.8" font-family="Arial" font-size="14.00" fill="#666666">[bigint]</text>
<polygon fill="none" stroke="black" points="448.1,-574.8 448.1,-605.6 693.24,-605.6 693.24,-574.8 448.1,-574.8"/>
<text text-anchor="start" x="455.1" y="-587" font-family="Arial" font-size="14.00">user_id </text>
<text text-anchor="start" x="504.91" y="-587" font-family="Arial" font-size="14.00" fill="#666666">[bigint]</text>
<polygon fill="none" stroke="black" points="448.1,-544 448.1,-574.8 693.24,-574.8 693.24,-544 448.1,-544"/>
<text text-anchor="start" x="455.1" y="-556.2" font-family="Arial" font-size="14.00">checkup_id </text>
<text text-anchor="start" x="529.82" y="-556.2" font-family="Arial" font-size="14.00" fill="#666666">[bigint]</text>
<polygon fill="none" stroke="black" points="448.1,-513.2 448.1,-544 693.24,-544 693.24,-513.2 448.1,-513.2"/>
<text text-anchor="start" x="455.1" y="-525.4" font-family="Arial" font-size="14.00">form_id </text>
<text text-anchor="start" x="505.68" y="-525.4" font-family="Arial" font-size="14.00" fill="#666666">[bigint]</text>
<polygon fill="none" stroke="black" points="448.1,-482.4 448.1,-513.2 693.24,-513.2 693.24,-482.4 448.1,-482.4"/>
<text text-anchor="start" x="455.1" y="-494.6" font-family="Arial" font-size="14.00">examination_refuse_waver_id </text>
<text text-anchor="start" x="644.99" y="-494.6" font-family="Arial" font-size="14.00" fill="#666666">[bigint]</text>
</g>
<!-- public.reports&#45;&gt;public.forms -->
<g id="edge3" class="edge">
<title>public.reports:form_id&#45;&gt;public.forms:id</title>
<path fill="none" stroke="black" d="M702.48,-522.53C728.46,-484.69 747.89,-281.95 728.86,-262.8 679.3,-212.93 570.67,-191.49 570.67,-261.8"/>
<polygon fill="black" stroke="black" points="702.56,-522.47 691.84,-524.78 698.27,-525.64 694.78,-528.2 694.78,-528.2 694.78,-528.2 698.27,-525.64 697.18,-532.03 702.56,-522.47"/>
</g>
<!-- public.attune_departments -->
<g id="node15" class="node">
<title>public.attune_departments</title>
<polygon fill="#efefef" stroke="none" points="2480.21,-74 2480.21,-109.6 2809.14,-109.6 2809.14,-74 2480.21,-74"/>
<polygon fill="none" stroke="black" points="2480.21,-74 2480.21,-109.6 2809.14,-109.6 2809.14,-74 2480.21,-74"/>
<text text-anchor="start" x="2487.21" y="-87.4" font-family="Arial Bold" font-size="18.00">public.attune_departments</text>
<text text-anchor="start" x="2677.65" y="-87.4" font-family="Arial" font-size="14.00">    </text>
<text text-anchor="start" x="2708.77" y="-87.4" font-family="Arial" font-size="14.00" fill="#666666">[BASE TABLE]</text>
<polygon fill="none" stroke="black" points="2480.21,-43.2 2480.21,-74 2809.14,-74 2809.14,-43.2 2480.21,-43.2"/>
<text text-anchor="start" x="2487.21" y="-55.4" font-family="Arial" font-size="14.00">id </text>
<text text-anchor="start" x="2501.99" y="-55.4" font-family="Arial" font-size="14.00" fill="#666666">[bigint]</text>
</g>
<!-- public.services&#45;&gt;public.attune_departments -->
<g id="edge14" class="edge">
<title>public.services:attune_department_id&#45;&gt;public.attune_departments:id</title>
<path fill="none" stroke="black" d="M2724.7,-276.68C2698.79,-267.51 2716.56,-219.12 2735.7,-188.8 2755.1,-158.06 2789.74,-183.54 2809.14,-152.8 2831.48,-117.39 2852.01,-58.6 2810.14,-58.6"/>
<polygon fill="black" stroke="black" points="2724.48,-276.64 2733.69,-282.6 2729.75,-277.45 2734.04,-278.1 2734.04,-278.1 2734.04,-278.1 2729.75,-277.45 2735.04,-273.7 2724.48,-276.64"/>
</g>
<!-- public.simple_categories -->
<g id="node16" class="node">
<title>public.simple_categories</title>
<polygon fill="#efefef" stroke="none" points="2913.71,-74 2913.71,-109.6 3231.64,-109.6 3231.64,-74 2913.71,-74"/>
<polygon fill="none" stroke="black" points="2913.71,-74 2913.71,-109.6 3231.64,-109.6 3231.64,-74 2913.71,-74"/>
<text text-anchor="start" x="2920.71" y="-87.4" font-family="Arial Bold" font-size="18.00">public.simple_categories</text>
<text text-anchor="start" x="3100.15" y="-87.4" font-family="Arial" font-size="14.00">    </text>
<text text-anchor="start" x="3131.27" y="-87.4" font-family="Arial" font-size="14.00" fill="#666666">[BASE TABLE]</text>
<polygon fill="none" stroke="black" points="2913.71,-43.2 2913.71,-74 3231.64,-74 3231.64,-43.2 2913.71,-43.2"/>
<text text-anchor="start" x="2920.71" y="-55.4" font-family="Arial" font-size="14.00">id </text>
<text text-anchor="start" x="2935.49" y="-55.4" font-family="Arial" font-size="14.00" fill="#666666">[bigint]</text>
</g>
<!-- public.services&#45;&gt;public.simple_categories -->
<g id="edge15" class="edge">
<title>public.services:simple_cate_id&#45;&gt;public.simple_categories:id</title>
<path fill="none" stroke="black" d="M2992.46,-244.68C3004.29,-235.84 2993.04,-207.36 2981.65,-188.8 2963.78,-159.67 2931.48,-181.99 2913.71,-152.8 2891.93,-117.04 2870.84,-58.6 2912.71,-58.6"/>
<polygon fill="black" stroke="black" points="2992.61,-244.64 2981.77,-242.97 2987.47,-246.07 2983.29,-247.22 2983.29,-247.22 2983.29,-247.22 2987.47,-246.07 2984.17,-251.65 2992.61,-244.64"/>
</g>
<!-- public.department_service -->
<g id="node6" class="node">
<title>public.department_service</title>
<polygon fill="#efefef" stroke="none" points="1190.22,-590.2 1190.22,-625.8 1519.13,-625.8 1519.13,-590.2 1190.22,-590.2"/>
<polygon fill="none" stroke="black" points="1190.22,-590.2 1190.22,-625.8 1519.13,-625.8 1519.13,-590.2 1190.22,-590.2"/>
<text text-anchor="start" x="1197.22" y="-603.6" font-family="Arial Bold" font-size="18.00">public.department_service</text>
<text text-anchor="start" x="1387.64" y="-603.6" font-family="Arial" font-size="14.00">    </text>
<text text-anchor="start" x="1418.76" y="-603.6" font-family="Arial" font-size="14.00" fill="#666666">[BASE TABLE]</text>
<polygon fill="none" stroke="black" points="1190.22,-559.4 1190.22,-590.2 1519.13,-590.2 1519.13,-559.4 1190.22,-559.4"/>
<text text-anchor="start" x="1197.22" y="-571.6" font-family="Arial" font-size="14.00">department_id </text>
<text text-anchor="start" x="1290.61" y="-571.6" font-family="Arial" font-size="14.00" fill="#666666">[bigint]</text>
<polygon fill="none" stroke="black" points="1190.22,-528.6 1190.22,-559.4 1519.13,-559.4 1519.13,-528.6 1190.22,-528.6"/>
<text text-anchor="start" x="1197.22" y="-540.8" font-family="Arial" font-size="14.00">service_id </text>
<text text-anchor="start" x="1264.13" y="-540.8" font-family="Arial" font-size="14.00" fill="#666666">[bigint]</text>
</g>
<!-- public.department_service&#45;&gt;public.services -->
<g id="edge5" class="edge">
<title>public.department_service:service_id&#45;&gt;public.services:id</title>
<path fill="none" stroke="black" d="M1530.2,-542.81C1566.15,-533.12 1532.36,-466.83 1571.67,-439.2 1678.06,-364.43 2604.66,-309 2734.7,-309"/>
<polygon fill="black" stroke="black" points="1530.39,-542.79 1519.93,-539.49 1525.1,-543.41 1520.79,-543.92 1520.79,-543.92 1520.79,-543.92 1525.1,-543.41 1520.99,-548.43 1530.39,-542.79"/>
</g>
<!-- public.service_service_group -->
<g id="node7" class="node">
<title>public.service_service_group</title>
<polygon fill="#efefef" stroke="none" points="1623.72,-590.2 1623.72,-625.8 1973.63,-625.8 1973.63,-590.2 1623.72,-590.2"/>
<polygon fill="none" stroke="black" points="1623.72,-590.2 1623.72,-625.8 1973.63,-625.8 1973.63,-590.2 1623.72,-590.2"/>
<text text-anchor="start" x="1630.72" y="-603.6" font-family="Arial Bold" font-size="18.00">public.service_service_group</text>
<text text-anchor="start" x="1842.14" y="-603.6" font-family="Arial" font-size="14.00">    </text>
<text text-anchor="start" x="1873.26" y="-603.6" font-family="Arial" font-size="14.00" fill="#666666">[BASE TABLE]</text>
<polygon fill="none" stroke="black" points="1623.72,-559.4 1623.72,-590.2 1973.63,-590.2 1973.63,-559.4 1623.72,-559.4"/>
<text text-anchor="start" x="1630.72" y="-571.6" font-family="Arial" font-size="14.00">service_id </text>
<text text-anchor="start" x="1697.64" y="-571.6" font-family="Arial" font-size="14.00" fill="#666666">[bigint]</text>
<polygon fill="none" stroke="black" points="1623.72,-528.6 1623.72,-559.4 1973.63,-559.4 1973.63,-528.6 1623.72,-528.6"/>
<text text-anchor="start" x="1630.72" y="-540.8" font-family="Arial" font-size="14.00">service_group_id </text>
<text text-anchor="start" x="1741.23" y="-540.8" font-family="Arial" font-size="14.00" fill="#666666">[bigint]</text>
</g>
<!-- public.service_service_group&#45;&gt;public.services -->
<g id="edge6" class="edge">
<title>public.service_service_group:service_id&#45;&gt;public.services:id</title>
<path fill="none" stroke="black" d="M1984.98,-573.8C2031.83,-563.57 1979.25,-478 2025.67,-439.2 2148.59,-336.47 2574.5,-309 2734.7,-309"/>
<polygon fill="black" stroke="black" points="1984.91,-573.8 1974.53,-570.29 1979.6,-574.32 1975.29,-574.74 1975.29,-574.74 1975.29,-574.74 1979.6,-574.32 1975.4,-579.25 1984.91,-573.8"/>
</g>
<!-- public.checkup_service -->
<g id="node8" class="node">
<title>public.checkup_service</title>
<polygon fill="#efefef" stroke="none" points="2077.72,-590.2 2077.72,-625.8 2385.63,-625.8 2385.63,-590.2 2077.72,-590.2"/>
<polygon fill="none" stroke="black" points="2077.72,-590.2 2077.72,-625.8 2385.63,-625.8 2385.63,-590.2 2077.72,-590.2"/>
<text text-anchor="start" x="2084.72" y="-603.6" font-family="Arial Bold" font-size="18.00">public.checkup_service</text>
<text text-anchor="start" x="2254.14" y="-603.6" font-family="Arial" font-size="14.00">    </text>
<text text-anchor="start" x="2285.26" y="-603.6" font-family="Arial" font-size="14.00" fill="#666666">[BASE TABLE]</text>
<polygon fill="none" stroke="black" points="2077.72,-559.4 2077.72,-590.2 2385.63,-590.2 2385.63,-559.4 2077.72,-559.4"/>
<text text-anchor="start" x="2084.72" y="-571.6" font-family="Arial" font-size="14.00">checkup_id </text>
<text text-anchor="start" x="2159.43" y="-571.6" font-family="Arial" font-size="14.00" fill="#666666">[bigint]</text>
<polygon fill="none" stroke="black" points="2077.72,-528.6 2077.72,-559.4 2385.63,-559.4 2385.63,-528.6 2077.72,-528.6"/>
<text text-anchor="start" x="2084.72" y="-540.8" font-family="Arial" font-size="14.00">service_id </text>
<text text-anchor="start" x="2151.63" y="-540.8" font-family="Arial" font-size="14.00" fill="#666666">[bigint]</text>
</g>
<!-- public.checkup_service&#45;&gt;public.services -->
<g id="edge7" class="edge">
<title>public.checkup_service:service_id&#45;&gt;public.services:id</title>
<path fill="none" stroke="black" d="M2396.75,-542.9C2433.2,-533.95 2403.08,-472.43 2437.67,-439.2 2541.62,-339.34 2590.56,-309 2734.7,-309"/>
<polygon fill="black" stroke="black" points="2396.91,-542.89 2386.48,-539.49 2391.6,-543.46 2387.3,-543.93 2387.3,-543.93 2387.3,-543.93 2391.6,-543.46 2387.45,-548.44 2396.91,-542.89"/>
</g>
<!-- public.service_test_set -->
<g id="node9" class="node">
<title>public.service_test_set</title>
<polygon fill="#efefef" stroke="none" points="2489.7,-590.2 2489.7,-625.8 2791.64,-625.8 2791.64,-590.2 2489.7,-590.2"/>
<polygon fill="none" stroke="black" points="2489.7,-590.2 2489.7,-625.8 2791.64,-625.8 2791.64,-590.2 2489.7,-590.2"/>
<text text-anchor="start" x="2496.7" y="-603.6" font-family="Arial Bold" font-size="18.00">public.service_test_set</text>
<text text-anchor="start" x="2660.15" y="-603.6" font-family="Arial" font-size="14.00">    </text>
<text text-anchor="start" x="2691.27" y="-603.6" font-family="Arial" font-size="14.00" fill="#666666">[BASE TABLE]</text>
<polygon fill="none" stroke="black" points="2489.7,-559.4 2489.7,-590.2 2791.64,-590.2 2791.64,-559.4 2489.7,-559.4"/>
<text text-anchor="start" x="2496.7" y="-571.6" font-family="Arial" font-size="14.00">service_id </text>
<text text-anchor="start" x="2563.62" y="-571.6" font-family="Arial" font-size="14.00" fill="#666666">[bigint]</text>
<polygon fill="none" stroke="black" points="2489.7,-528.6 2489.7,-559.4 2791.64,-559.4 2791.64,-528.6 2489.7,-528.6"/>
<text text-anchor="start" x="2496.7" y="-540.8" font-family="Arial" font-size="14.00">test_set_id </text>
<text text-anchor="start" x="2568.3" y="-540.8" font-family="Arial" font-size="14.00" fill="#666666">[bigint]</text>
</g>
<!-- public.service_test_set&#45;&gt;public.services -->
<g id="edge8" class="edge">
<title>public.service_test_set:service_id&#45;&gt;public.services:id</title>
<path fill="none" stroke="black" d="M2802.72,-573.27C2826.7,-564.48 2802.34,-519.46 2791.64,-485.4 2778.4,-443.24 2748.93,-445.36 2735.7,-403.2 2723.16,-363.25 2692.83,-309 2734.7,-309"/>
<polygon fill="black" stroke="black" points="2802.86,-573.25 2792.3,-570.3 2797.59,-574.05 2793.3,-574.7 2793.3,-574.7 2793.3,-574.7 2797.59,-574.05 2793.65,-579.2 2802.86,-573.25"/>
</g>
<!-- public.company_order_service -->
<g id="node10" class="node">
<title>public.company_order_service</title>
<polygon fill="#efefef" stroke="none" points="2896.22,-590.2 2896.22,-625.8 3257.13,-625.8 3257.13,-590.2 2896.22,-590.2"/>
<polygon fill="none" stroke="black" points="2896.22,-590.2 2896.22,-625.8 3257.13,-625.8 3257.13,-590.2 2896.22,-590.2"/>
<text text-anchor="start" x="2903.22" y="-603.6" font-family="Arial Bold" font-size="18.00">public.company_order_service</text>
<text text-anchor="start" x="3125.64" y="-603.6" font-family="Arial" font-size="14.00">    </text>
<text text-anchor="start" x="3156.75" y="-603.6" font-family="Arial" font-size="14.00" fill="#666666">[BASE TABLE]</text>
<polygon fill="none" stroke="black" points="2896.22,-559.4 2896.22,-590.2 3257.13,-590.2 3257.13,-559.4 2896.22,-559.4"/>
<text text-anchor="start" x="2903.22" y="-571.6" font-family="Arial" font-size="14.00">service_id </text>
<text text-anchor="start" x="2970.14" y="-571.6" font-family="Arial" font-size="14.00" fill="#666666">[bigint]</text>
<polygon fill="none" stroke="black" points="2896.22,-528.6 2896.22,-559.4 3257.13,-559.4 3257.13,-528.6 2896.22,-528.6"/>
<text text-anchor="start" x="2903.22" y="-540.8" font-family="Arial" font-size="14.00">company_order_id </text>
<text text-anchor="start" x="3023.07" y="-540.8" font-family="Arial" font-size="14.00" fill="#666666">[bigint]</text>
</g>
<!-- public.company_order_service&#45;&gt;public.services -->
<g id="edge9" class="edge">
<title>public.company_order_service:service_id&#45;&gt;public.services:id</title>
<path fill="none" stroke="black" d="M2885.04,-573.23C2860.46,-564.22 2882.06,-518.17 2896.22,-485.4 2917.12,-437.03 2960.76,-451.57 2981.65,-403.2 2998.25,-364.76 3024.52,-309 2982.65,-309"/>
<polygon fill="black" stroke="black" points="2885.01,-573.23 2894.21,-579.2 2890.28,-574.04 2894.56,-574.7 2894.56,-574.7 2894.56,-574.7 2890.28,-574.04 2895.57,-570.3 2885.01,-573.23"/>
</g>
<!-- public.package_service -->
<g id="node11" class="node">
<title>public.package_service</title>
<polygon fill="#efefef" stroke="none" points="3361.22,-590.2 3361.22,-625.8 3668.13,-625.8 3668.13,-590.2 3361.22,-590.2"/>
<polygon fill="none" stroke="black" points="3361.22,-590.2 3361.22,-625.8 3668.13,-625.8 3668.13,-590.2 3361.22,-590.2"/>
<text text-anchor="start" x="3368.22" y="-603.6" font-family="Arial Bold" font-size="18.00">public.package_service</text>
<text text-anchor="start" x="3536.64" y="-603.6" font-family="Arial" font-size="14.00">    </text>
<text text-anchor="start" x="3567.75" y="-603.6" font-family="Arial" font-size="14.00" fill="#666666">[BASE TABLE]</text>
<polygon fill="none" stroke="black" points="3361.22,-559.4 3361.22,-590.2 3668.13,-590.2 3668.13,-559.4 3361.22,-559.4"/>
<text text-anchor="start" x="3368.22" y="-571.6" font-family="Arial" font-size="14.00">package_id </text>
<text text-anchor="start" x="3443.72" y="-571.6" font-family="Arial" font-size="14.00" fill="#666666">[bigint]</text>
<polygon fill="none" stroke="black" points="3361.22,-528.6 3361.22,-559.4 3668.13,-559.4 3668.13,-528.6 3361.22,-528.6"/>
<text text-anchor="start" x="3368.22" y="-540.8" font-family="Arial" font-size="14.00">service_id </text>
<text text-anchor="start" x="3435.14" y="-540.8" font-family="Arial" font-size="14.00" fill="#666666">[bigint]</text>
</g>
<!-- public.package_service&#45;&gt;public.services -->
<g id="edge10" class="edge">
<title>public.package_service:service_id&#45;&gt;public.services:id</title>
<path fill="none" stroke="black" d="M3350.14,-542.89C3313.87,-533.87 3344.7,-471.84 3309.67,-439.2 3195.22,-332.55 3139.09,-309 2982.65,-309"/>
<polygon fill="black" stroke="black" points="3349.95,-542.87 3359.4,-548.44 3355.25,-543.45 3359.56,-543.93 3359.56,-543.93 3359.56,-543.93 3355.25,-543.45 3360.38,-539.49 3349.95,-542.87"/>
</g>
<!-- public.imaging_diagnostic_data -->
<g id="node12" class="node">
<title>public.imaging_diagnostic_data</title>
<polygon fill="#efefef" stroke="none" points="3772.2,-621 3772.2,-656.6 4141.14,-656.6 4141.14,-621 3772.2,-621"/>
<polygon fill="none" stroke="black" points="3772.2,-621 3772.2,-656.6 4141.14,-656.6 4141.14,-621 3772.2,-621"/>
<text text-anchor="start" x="3779.2" y="-634.4" font-family="Arial Bold" font-size="18.00">public.imaging_diagnostic_data</text>
<text text-anchor="start" x="4009.65" y="-634.4" font-family="Arial" font-size="14.00">    </text>
<text text-anchor="start" x="4040.77" y="-634.4" font-family="Arial" font-size="14.00" fill="#666666">[BASE TABLE]</text>
<polygon fill="none" stroke="black" points="3772.2,-590.2 3772.2,-621 4141.14,-621 4141.14,-590.2 3772.2,-590.2"/>
<text text-anchor="start" x="3779.2" y="-602.4" font-family="Arial" font-size="14.00">id </text>
<text text-anchor="start" x="3793.99" y="-602.4" font-family="Arial" font-size="14.00" fill="#666666">[bigint]</text>
<polygon fill="none" stroke="black" points="3772.2,-559.4 3772.2,-590.2 4141.14,-590.2 4141.14,-559.4 3772.2,-559.4"/>
<text text-anchor="start" x="3779.2" y="-571.6" font-family="Arial" font-size="14.00">checkup_id </text>
<text text-anchor="start" x="3853.92" y="-571.6" font-family="Arial" font-size="14.00" fill="#666666">[bigint]</text>
<polygon fill="none" stroke="black" points="3772.2,-528.6 3772.2,-559.4 4141.14,-559.4 4141.14,-528.6 3772.2,-528.6"/>
<text text-anchor="start" x="3779.2" y="-540.8" font-family="Arial" font-size="14.00">service_id </text>
<text text-anchor="start" x="3846.12" y="-540.8" font-family="Arial" font-size="14.00" fill="#666666">[bigint]</text>
<polygon fill="none" stroke="black" points="3772.2,-497.8 3772.2,-528.6 4141.14,-528.6 4141.14,-497.8 3772.2,-497.8"/>
<text text-anchor="start" x="3779.2" y="-510" font-family="Arial" font-size="14.00">updated_by </text>
<text text-anchor="start" x="3856.27" y="-510" font-family="Arial" font-size="14.00" fill="#666666">[bigint]</text>
</g>
<!-- public.imaging_diagnostic_data&#45;&gt;public.services -->
<g id="edge11" class="edge">
<title>public.imaging_diagnostic_data:service_id&#45;&gt;public.services:id</title>
<path fill="none" stroke="black" d="M3761.17,-542.83C3725.33,-533.31 3758.84,-468.1 3720.67,-439.2 3587.9,-338.67 3149.19,-309 2982.65,-309"/>
<polygon fill="black" stroke="black" points="3760.94,-542.8 3770.35,-548.43 3766.24,-543.42 3770.54,-543.92 3770.54,-543.92 3770.54,-543.92 3766.24,-543.42 3771.39,-539.49 3760.94,-542.8"/>
</g>
<!-- public.imaging_diagnostic_data_histories -->
<g id="node13" class="node">
<title>public.imaging_diagnostic_data_histories</title>
<polygon fill="#efefef" stroke="none" points="4245.21,-621 4245.21,-656.6 4684.14,-656.6 4684.14,-621 4245.21,-621"/>
<polygon fill="none" stroke="black" points="4245.21,-621 4245.21,-656.6 4684.14,-656.6 4684.14,-621 4245.21,-621"/>
<text text-anchor="start" x="4252.21" y="-634.4" font-family="Arial Bold" font-size="18.00">public.imaging_diagnostic_data_histories</text>
<text text-anchor="start" x="4552.65" y="-634.4" font-family="Arial" font-size="14.00">    </text>
<text text-anchor="start" x="4583.77" y="-634.4" font-family="Arial" font-size="14.00" fill="#666666">[BASE TABLE]</text>
<polygon fill="none" stroke="black" points="4245.21,-590.2 4245.21,-621 4684.14,-621 4684.14,-590.2 4245.21,-590.2"/>
<text text-anchor="start" x="4252.21" y="-602.4" font-family="Arial" font-size="14.00">imaging_diagnostic_data_id </text>
<text text-anchor="start" x="4429.67" y="-602.4" font-family="Arial" font-size="14.00" fill="#666666">[bigint]</text>
<polygon fill="none" stroke="black" points="4245.21,-559.4 4245.21,-590.2 4684.14,-590.2 4684.14,-559.4 4245.21,-559.4"/>
<text text-anchor="start" x="4252.21" y="-571.6" font-family="Arial" font-size="14.00">checkup_id </text>
<text text-anchor="start" x="4326.92" y="-571.6" font-family="Arial" font-size="14.00" fill="#666666">[bigint]</text>
<polygon fill="none" stroke="black" points="4245.21,-528.6 4245.21,-559.4 4684.14,-559.4 4684.14,-528.6 4245.21,-528.6"/>
<text text-anchor="start" x="4252.21" y="-540.8" font-family="Arial" font-size="14.00">service_id </text>
<text text-anchor="start" x="4319.12" y="-540.8" font-family="Arial" font-size="14.00" fill="#666666">[bigint]</text>
<polygon fill="none" stroke="black" points="4245.21,-497.8 4245.21,-528.6 4684.14,-528.6 4684.14,-497.8 4245.21,-497.8"/>
<text text-anchor="start" x="4252.21" y="-510" font-family="Arial" font-size="14.00">updated_by </text>
<text text-anchor="start" x="4329.27" y="-510" font-family="Arial" font-size="14.00" fill="#666666">[bigint]</text>
</g>
<!-- public.imaging_diagnostic_data_histories&#45;&gt;public.services -->
<g id="edge12" class="edge">
<title>public.imaging_diagnostic_data_histories:service_id&#45;&gt;public.services:id</title>
<path fill="none" stroke="black" d="M4234.19,-542.81C4198.47,-533.12 4232.79,-466.79 4193.67,-439.2 4083.08,-361.2 3117.98,-309 2982.65,-309"/>
<polygon fill="black" stroke="black" points="4233.94,-542.78 4243.34,-548.43 4239.24,-543.41 4243.54,-543.92 4243.54,-543.92 4243.54,-543.92 4239.24,-543.41 4244.4,-539.49 4233.94,-542.78"/>
</g>
<!-- public.category_service -->
<g id="node14" class="node">
<title>public.category_service</title>
<polygon fill="#efefef" stroke="none" points="4788.72,-590.2 4788.72,-625.8 5098.63,-625.8 5098.63,-590.2 4788.72,-590.2"/>
<polygon fill="none" stroke="black" points="4788.72,-590.2 4788.72,-625.8 5098.63,-625.8 5098.63,-590.2 4788.72,-590.2"/>
<text text-anchor="start" x="4795.72" y="-603.6" font-family="Arial Bold" font-size="18.00">public.category_service</text>
<text text-anchor="start" x="4967.14" y="-603.6" font-family="Arial" font-size="14.00">    </text>
<text text-anchor="start" x="4998.26" y="-603.6" font-family="Arial" font-size="14.00" fill="#666666">[BASE TABLE]</text>
<polygon fill="none" stroke="black" points="4788.72,-559.4 4788.72,-590.2 5098.63,-590.2 5098.63,-559.4 4788.72,-559.4"/>
<text text-anchor="start" x="4795.72" y="-571.6" font-family="Arial" font-size="14.00">service_id </text>
<text text-anchor="start" x="4862.63" y="-571.6" font-family="Arial" font-size="14.00" fill="#666666">[bigint]</text>
<polygon fill="none" stroke="black" points="4788.72,-528.6 4788.72,-559.4 5098.63,-559.4 5098.63,-528.6 4788.72,-528.6"/>
<text text-anchor="start" x="4795.72" y="-540.8" font-family="Arial" font-size="14.00">category_id </text>
<text text-anchor="start" x="4871.99" y="-540.8" font-family="Arial" font-size="14.00" fill="#666666">[integer]</text>
</g>
<!-- public.category_service&#45;&gt;public.services -->
<g id="edge13" class="edge">
<title>public.category_service:service_id&#45;&gt;public.services:id</title>
<path fill="none" stroke="black" d="M4777.39,-573.77C4730.76,-563.27 4785.11,-475.45 4736.67,-439.2 4580.21,-322.11 3178.08,-309 2982.65,-309"/>
<polygon fill="black" stroke="black" points="4777.43,-573.77 4786.94,-579.24 4782.74,-574.3 4787.05,-574.73 4787.05,-574.73 4787.05,-574.73 4782.74,-574.3 4787.83,-570.29 4777.43,-573.77"/>
</g>
</g>
</svg>
