<?xml version="1.0" encoding="UTF-8" standalone="no"?>
<!DOCTYPE svg PUBLIC "-//W3C//DTD SVG 1.1//EN"
 "http://www.w3.org/Graphics/SVG/1.1/DTD/svg11.dtd">
<!-- Generated by graphviz version 12.1.2 (20240928.0832)
 -->
<!-- Title: public.attune_departments Pages: 1 -->
<svg width="6584pt" height="711pt"
 viewBox="0.00 0.00 6583.81 711.16" xmlns="http://www.w3.org/2000/svg" xmlns:xlink="http://www.w3.org/1999/xlink">
<g id="graph0" class="graph" transform="scale(1 1) rotate(0) translate(4 707.16)">
<title>public.attune_departments</title>
<polygon fill="white" stroke="none" points="-4,4 -4,-707.16 6579.81,-707.16 6579.81,4 -4,4"/>
<!-- public.attune_departments -->
<g id="node1" class="node">
<title>public.attune_departments</title>
<polygon fill="#efefef" stroke="none" points="3742.19,-89.76 3742.19,-125.36 4071.12,-125.36 4071.12,-89.76 3742.19,-89.76"/>
<polygon fill="none" stroke="black" points="3742.19,-89.76 3742.19,-125.36 4071.12,-125.36 4071.12,-89.76 3742.19,-89.76"/>
<text text-anchor="start" x="3749.19" y="-103.16" font-family="Arial Bold" font-size="18.00">public.attune_departments</text>
<text text-anchor="start" x="3939.63" y="-103.16" font-family="Arial" font-size="14.00">    </text>
<text text-anchor="start" x="3970.75" y="-103.16" font-family="Arial" font-size="14.00" fill="#666666">[BASE TABLE]</text>
<polygon fill="none" stroke="black" points="3742.19,-58.96 3742.19,-89.76 4071.12,-89.76 4071.12,-58.96 3742.19,-58.96"/>
<text text-anchor="start" x="3749.19" y="-71.16" font-family="Arial" font-size="14.00">id </text>
<text text-anchor="start" x="3763.98" y="-71.16" font-family="Arial" font-size="14.00" fill="#666666">[bigint]</text>
<polygon fill="none" stroke="black" stroke-width="3" points="3740.69,-57.46 3740.69,-126.86 4072.62,-126.86 4072.62,-57.46 3740.69,-57.46"/>
</g>
<!-- public.services -->
<g id="node2" class="node">
<title>public.services</title>
<polygon fill="#efefef" stroke="none" points="2194.68,-343.16 2194.68,-378.76 2440.63,-378.76 2440.63,-343.16 2194.68,-343.16"/>
<polygon fill="none" stroke="black" points="2194.68,-343.16 2194.68,-378.76 2440.63,-378.76 2440.63,-343.16 2194.68,-343.16"/>
<text text-anchor="start" x="2201.68" y="-356.56" font-family="Arial Bold" font-size="18.00">public.services</text>
<text text-anchor="start" x="2309.14" y="-356.56" font-family="Arial" font-size="14.00">    </text>
<text text-anchor="start" x="2340.26" y="-356.56" font-family="Arial" font-size="14.00" fill="#666666">[BASE TABLE]</text>
<polygon fill="none" stroke="black" points="2194.68,-312.36 2194.68,-343.16 2440.63,-343.16 2440.63,-312.36 2194.68,-312.36"/>
<text text-anchor="start" x="2201.68" y="-324.56" font-family="Arial" font-size="14.00">id </text>
<text text-anchor="start" x="2216.47" y="-324.56" font-family="Arial" font-size="14.00" fill="#666666">[bigint]</text>
<polygon fill="none" stroke="black" points="2194.68,-281.56 2194.68,-312.36 2440.63,-312.36 2440.63,-281.56 2194.68,-281.56"/>
<text text-anchor="start" x="2201.68" y="-293.76" font-family="Arial" font-size="14.00">attune_department_id </text>
<text text-anchor="start" x="2341.78" y="-293.76" font-family="Arial" font-size="14.00" fill="#666666">[bigint]</text>
<polygon fill="none" stroke="black" points="2194.68,-250.76 2194.68,-281.56 2440.63,-281.56 2440.63,-250.76 2194.68,-250.76"/>
<text text-anchor="start" x="2201.68" y="-262.96" font-family="Arial" font-size="14.00">simple_cate_id </text>
<text text-anchor="start" x="2298.96" y="-262.96" font-family="Arial" font-size="14.00" fill="#666666">[bigint]</text>
</g>
<!-- public.services&#45;&gt;public.attune_departments -->
<g id="edge1" class="edge">
<title>public.services:attune_department_id&#45;&gt;public.attune_departments:id</title>
<path fill="none" stroke="black" d="M2451.89,-296.94C3029.14,-294.36 3158.63,-74.36 3741.19,-74.36"/>
<polygon fill="black" stroke="black" points="2451.97,-296.94 2441.96,-292.46 2446.63,-296.95 2442.3,-296.96 2442.3,-296.96 2442.3,-296.96 2446.63,-296.95 2441.98,-301.46 2451.97,-296.94"/>
</g>
<!-- public.simple_categories -->
<g id="node13" class="node">
<title>public.simple_categories</title>
<polygon fill="#efefef" stroke="none" points="2158.69,-89.76 2158.69,-125.36 2476.62,-125.36 2476.62,-89.76 2158.69,-89.76"/>
<polygon fill="none" stroke="black" points="2158.69,-89.76 2158.69,-125.36 2476.62,-125.36 2476.62,-89.76 2158.69,-89.76"/>
<text text-anchor="start" x="2165.69" y="-103.16" font-family="Arial Bold" font-size="18.00">public.simple_categories</text>
<text text-anchor="start" x="2345.14" y="-103.16" font-family="Arial" font-size="14.00">    </text>
<text text-anchor="start" x="2376.25" y="-103.16" font-family="Arial" font-size="14.00" fill="#666666">[BASE TABLE]</text>
<polygon fill="none" stroke="black" points="2158.69,-58.96 2158.69,-89.76 2476.62,-89.76 2476.62,-58.96 2158.69,-58.96"/>
<text text-anchor="start" x="2165.69" y="-71.16" font-family="Arial" font-size="14.00">id </text>
<text text-anchor="start" x="2180.47" y="-71.16" font-family="Arial" font-size="14.00" fill="#666666">[bigint]</text>
</g>
<!-- public.services&#45;&gt;public.simple_categories -->
<g id="edge12" class="edge">
<title>public.services:simple_cate_id&#45;&gt;public.simple_categories:id</title>
<path fill="none" stroke="black" d="M2318.26,-239.76C2328.51,-159.8 2467.61,-245.8 2519.82,-168.56 2547.1,-128.2 2554.18,-93.49 2519.82,-58.96 2456.45,4.73 2317.66,31.89 2317.66,-57.96"/>
<polygon fill="black" stroke="black" points="2318.27,-239.44 2313.18,-249.16 2317.96,-244.77 2317.7,-249.09 2317.7,-249.09 2317.7,-249.09 2317.96,-244.77 2322.17,-249.69 2318.27,-239.44"/>
</g>
<!-- public.department_service -->
<g id="node3" class="node">
<title>public.department_service</title>
<polygon fill="#efefef" stroke="none" points="43.2,-593.56 43.2,-629.16 372.11,-629.16 372.11,-593.56 43.2,-593.56"/>
<polygon fill="none" stroke="black" points="43.2,-593.56 43.2,-629.16 372.11,-629.16 372.11,-593.56 43.2,-593.56"/>
<text text-anchor="start" x="50.2" y="-606.96" font-family="Arial Bold" font-size="18.00">public.department_service</text>
<text text-anchor="start" x="240.62" y="-606.96" font-family="Arial" font-size="14.00">    </text>
<text text-anchor="start" x="271.74" y="-606.96" font-family="Arial" font-size="14.00" fill="#666666">[BASE TABLE]</text>
<polygon fill="none" stroke="black" points="43.2,-562.76 43.2,-593.56 372.11,-593.56 372.11,-562.76 43.2,-562.76"/>
<text text-anchor="start" x="50.2" y="-574.96" font-family="Arial" font-size="14.00">department_id </text>
<text text-anchor="start" x="143.59" y="-574.96" font-family="Arial" font-size="14.00" fill="#666666">[bigint]</text>
<polygon fill="none" stroke="black" points="43.2,-531.96 43.2,-562.76 372.11,-562.76 372.11,-531.96 43.2,-531.96"/>
<text text-anchor="start" x="50.2" y="-544.16" font-family="Arial" font-size="14.00">service_id </text>
<text text-anchor="start" x="117.12" y="-544.16" font-family="Arial" font-size="14.00" fill="#666666">[bigint]</text>
</g>
<!-- public.department_service&#45;&gt;public.services -->
<g id="edge2" class="edge">
<title>public.department_service:service_id&#45;&gt;public.services:id</title>
<path fill="none" stroke="black" d="M383.28,-545.99C413.81,-536.49 389.15,-480.25 424.66,-457.96 591.58,-353.16 1996.59,-327.76 2193.68,-327.76"/>
<polygon fill="black" stroke="black" points="383.35,-545.98 372.84,-542.86 378.07,-546.69 373.78,-547.27 373.78,-547.27 373.78,-547.27 378.07,-546.69 374.05,-551.77 383.35,-545.98"/>
</g>
<!-- public.service_service_group -->
<g id="node4" class="node">
<title>public.service_service_group</title>
<polygon fill="#efefef" stroke="none" points="476.7,-593.56 476.7,-629.16 826.61,-629.16 826.61,-593.56 476.7,-593.56"/>
<polygon fill="none" stroke="black" points="476.7,-593.56 476.7,-629.16 826.61,-629.16 826.61,-593.56 476.7,-593.56"/>
<text text-anchor="start" x="483.7" y="-606.96" font-family="Arial Bold" font-size="18.00">public.service_service_group</text>
<text text-anchor="start" x="695.12" y="-606.96" font-family="Arial" font-size="14.00">    </text>
<text text-anchor="start" x="726.24" y="-606.96" font-family="Arial" font-size="14.00" fill="#666666">[BASE TABLE]</text>
<polygon fill="none" stroke="black" points="476.7,-562.76 476.7,-593.56 826.61,-593.56 826.61,-562.76 476.7,-562.76"/>
<text text-anchor="start" x="483.7" y="-574.96" font-family="Arial" font-size="14.00">service_id </text>
<text text-anchor="start" x="550.62" y="-574.96" font-family="Arial" font-size="14.00" fill="#666666">[bigint]</text>
<polygon fill="none" stroke="black" points="476.7,-531.96 476.7,-562.76 826.61,-562.76 826.61,-531.96 476.7,-531.96"/>
<text text-anchor="start" x="483.7" y="-544.16" font-family="Arial" font-size="14.00">service_group_id </text>
<text text-anchor="start" x="594.21" y="-544.16" font-family="Arial" font-size="14.00" fill="#666666">[bigint]</text>
</g>
<!-- public.service_service_group&#45;&gt;public.services -->
<g id="edge3" class="edge">
<title>public.service_service_group:service_id&#45;&gt;public.services:id</title>
<path fill="none" stroke="black" d="M837.76,-577.06C878.96,-566.99 835,-490.06 878.66,-457.96 996.96,-370.99 2046.85,-327.76 2193.68,-327.76"/>
<polygon fill="black" stroke="black" points="837.89,-577.05 827.46,-573.65 832.58,-577.62 828.28,-578.09 828.28,-578.09 828.28,-578.09 832.58,-577.62 828.43,-582.6 837.89,-577.05"/>
</g>
<!-- public.form_service -->
<g id="node5" class="node">
<title>public.form_service</title>
<polygon fill="#efefef" stroke="none" points="931.19,-593.56 931.19,-629.16 1214.13,-629.16 1214.13,-593.56 931.19,-593.56"/>
<polygon fill="none" stroke="black" points="931.19,-593.56 931.19,-629.16 1214.13,-629.16 1214.13,-593.56 931.19,-593.56"/>
<text text-anchor="start" x="938.19" y="-606.96" font-family="Arial Bold" font-size="18.00">public.form_service</text>
<text text-anchor="start" x="1082.64" y="-606.96" font-family="Arial" font-size="14.00">    </text>
<text text-anchor="start" x="1113.75" y="-606.96" font-family="Arial" font-size="14.00" fill="#666666">[BASE TABLE]</text>
<polygon fill="none" stroke="black" points="931.19,-562.76 931.19,-593.56 1214.13,-593.56 1214.13,-562.76 931.19,-562.76"/>
<text text-anchor="start" x="938.19" y="-574.96" font-family="Arial" font-size="14.00">form_id </text>
<text text-anchor="start" x="988.76" y="-574.96" font-family="Arial" font-size="14.00" fill="#666666">[bigint]</text>
<polygon fill="none" stroke="black" points="931.19,-531.96 931.19,-562.76 1214.13,-562.76 1214.13,-531.96 931.19,-531.96"/>
<text text-anchor="start" x="938.19" y="-544.16" font-family="Arial" font-size="14.00">service_id </text>
<text text-anchor="start" x="1005.1" y="-544.16" font-family="Arial" font-size="14.00" fill="#666666">[bigint]</text>
</g>
<!-- public.form_service&#45;&gt;public.services -->
<g id="edge4" class="edge">
<title>public.form_service:service_id&#45;&gt;public.services:id</title>
<path fill="none" stroke="black" d="M1225.31,-546.01C1255.95,-536.69 1231.91,-481.41 1266.66,-457.96 1439.08,-341.58 1985.65,-327.76 2193.68,-327.76"/>
<polygon fill="black" stroke="black" points="1225.37,-546 1214.87,-542.85 1220.08,-546.7 1215.79,-547.27 1215.79,-547.27 1215.79,-547.27 1220.08,-546.7 1216.05,-551.78 1225.37,-546"/>
</g>
<!-- public.checkup_service -->
<g id="node6" class="node">
<title>public.checkup_service</title>
<polygon fill="#efefef" stroke="none" points="1318.7,-593.56 1318.7,-629.16 1626.61,-629.16 1626.61,-593.56 1318.7,-593.56"/>
<polygon fill="none" stroke="black" points="1318.7,-593.56 1318.7,-629.16 1626.61,-629.16 1626.61,-593.56 1318.7,-593.56"/>
<text text-anchor="start" x="1325.7" y="-606.96" font-family="Arial Bold" font-size="18.00">public.checkup_service</text>
<text text-anchor="start" x="1495.13" y="-606.96" font-family="Arial" font-size="14.00">    </text>
<text text-anchor="start" x="1526.24" y="-606.96" font-family="Arial" font-size="14.00" fill="#666666">[BASE TABLE]</text>
<polygon fill="none" stroke="black" points="1318.7,-562.76 1318.7,-593.56 1626.61,-593.56 1626.61,-562.76 1318.7,-562.76"/>
<text text-anchor="start" x="1325.7" y="-574.96" font-family="Arial" font-size="14.00">checkup_id </text>
<text text-anchor="start" x="1400.42" y="-574.96" font-family="Arial" font-size="14.00" fill="#666666">[bigint]</text>
<polygon fill="none" stroke="black" points="1318.7,-531.96 1318.7,-562.76 1626.61,-562.76 1626.61,-531.96 1318.7,-531.96"/>
<text text-anchor="start" x="1325.7" y="-544.16" font-family="Arial" font-size="14.00">service_id </text>
<text text-anchor="start" x="1392.62" y="-544.16" font-family="Arial" font-size="14.00" fill="#666666">[bigint]</text>
</g>
<!-- public.checkup_service&#45;&gt;public.services -->
<g id="edge5" class="edge">
<title>public.checkup_service:service_id&#45;&gt;public.services:id</title>
<path fill="none" stroke="black" d="M1637.8,-546.05C1668.51,-537 1645.36,-483.26 1678.66,-457.96 1772.65,-386.53 2075.63,-327.76 2193.68,-327.76"/>
<polygon fill="black" stroke="black" points="1637.87,-546.04 1627.37,-542.85 1632.57,-546.72 1628.28,-547.27 1628.28,-547.27 1628.28,-547.27 1632.57,-546.72 1628.52,-551.78 1637.87,-546.04"/>
</g>
<!-- public.service_test_set -->
<g id="node7" class="node">
<title>public.service_test_set</title>
<polygon fill="#efefef" stroke="none" points="1730.69,-593.56 1730.69,-629.16 2032.63,-629.16 2032.63,-593.56 1730.69,-593.56"/>
<polygon fill="none" stroke="black" points="1730.69,-593.56 1730.69,-629.16 2032.63,-629.16 2032.63,-593.56 1730.69,-593.56"/>
<text text-anchor="start" x="1737.69" y="-606.96" font-family="Arial Bold" font-size="18.00">public.service_test_set</text>
<text text-anchor="start" x="1901.14" y="-606.96" font-family="Arial" font-size="14.00">    </text>
<text text-anchor="start" x="1932.25" y="-606.96" font-family="Arial" font-size="14.00" fill="#666666">[BASE TABLE]</text>
<polygon fill="none" stroke="black" points="1730.69,-562.76 1730.69,-593.56 2032.63,-593.56 2032.63,-562.76 1730.69,-562.76"/>
<text text-anchor="start" x="1737.69" y="-574.96" font-family="Arial" font-size="14.00">service_id </text>
<text text-anchor="start" x="1804.6" y="-574.96" font-family="Arial" font-size="14.00" fill="#666666">[bigint]</text>
<polygon fill="none" stroke="black" points="1730.69,-531.96 1730.69,-562.76 2032.63,-562.76 2032.63,-531.96 1730.69,-531.96"/>
<text text-anchor="start" x="1737.69" y="-544.16" font-family="Arial" font-size="14.00">test_set_id </text>
<text text-anchor="start" x="1809.29" y="-544.16" font-family="Arial" font-size="14.00" fill="#666666">[bigint]</text>
</g>
<!-- public.service_test_set&#45;&gt;public.services -->
<g id="edge6" class="edge">
<title>public.service_test_set:service_id&#45;&gt;public.services:id</title>
<path fill="none" stroke="black" d="M2043.97,-577.25C2087.01,-568.86 2056.37,-504.17 2084.66,-457.96 2124.06,-393.59 2118.21,-327.76 2193.68,-327.76"/>
<polygon fill="black" stroke="black" points="2043.92,-577.26 2033.57,-573.65 2038.61,-577.72 2034.29,-578.1 2034.29,-578.1 2034.29,-578.1 2038.61,-577.72 2034.35,-582.61 2043.92,-577.26"/>
</g>
<!-- public.company_order_service -->
<g id="node8" class="node">
<title>public.company_order_service</title>
<polygon fill="#efefef" stroke="none" points="2137.2,-593.56 2137.2,-629.16 2498.11,-629.16 2498.11,-593.56 2137.2,-593.56"/>
<polygon fill="none" stroke="black" points="2137.2,-593.56 2137.2,-629.16 2498.11,-629.16 2498.11,-593.56 2137.2,-593.56"/>
<text text-anchor="start" x="2144.2" y="-606.96" font-family="Arial Bold" font-size="18.00">public.company_order_service</text>
<text text-anchor="start" x="2366.62" y="-606.96" font-family="Arial" font-size="14.00">    </text>
<text text-anchor="start" x="2397.74" y="-606.96" font-family="Arial" font-size="14.00" fill="#666666">[BASE TABLE]</text>
<polygon fill="none" stroke="black" points="2137.2,-562.76 2137.2,-593.56 2498.11,-593.56 2498.11,-562.76 2137.2,-562.76"/>
<text text-anchor="start" x="2144.2" y="-574.96" font-family="Arial" font-size="14.00">service_id </text>
<text text-anchor="start" x="2211.12" y="-574.96" font-family="Arial" font-size="14.00" fill="#666666">[bigint]</text>
<polygon fill="none" stroke="black" points="2137.2,-531.96 2137.2,-562.76 2498.11,-562.76 2498.11,-531.96 2137.2,-531.96"/>
<text text-anchor="start" x="2144.2" y="-544.16" font-family="Arial" font-size="14.00">company_order_id </text>
<text text-anchor="start" x="2264.05" y="-544.16" font-family="Arial" font-size="14.00" fill="#666666">[bigint]</text>
</g>
<!-- public.company_order_service&#45;&gt;public.services -->
<g id="edge7" class="edge">
<title>public.company_order_service:service_id&#45;&gt;public.services:id</title>
<path fill="none" stroke="black" d="M2509,-574.99C2548.57,-546.01 2494.93,-327.76 2441.63,-327.76"/>
<polygon fill="black" stroke="black" points="2508.95,-575.01 2498.06,-573.77 2503.87,-576.64 2499.75,-577.96 2499.75,-577.96 2499.75,-577.96 2503.87,-576.64 2500.8,-582.34 2508.95,-575.01"/>
</g>
<!-- public.package_service -->
<g id="node9" class="node">
<title>public.package_service</title>
<polygon fill="#efefef" stroke="none" points="4033.2,-593.56 4033.2,-629.16 4340.11,-629.16 4340.11,-593.56 4033.2,-593.56"/>
<polygon fill="none" stroke="black" points="4033.2,-593.56 4033.2,-629.16 4340.11,-629.16 4340.11,-593.56 4033.2,-593.56"/>
<text text-anchor="start" x="4040.2" y="-606.96" font-family="Arial Bold" font-size="18.00">public.package_service</text>
<text text-anchor="start" x="4208.62" y="-606.96" font-family="Arial" font-size="14.00">    </text>
<text text-anchor="start" x="4239.74" y="-606.96" font-family="Arial" font-size="14.00" fill="#666666">[BASE TABLE]</text>
<polygon fill="none" stroke="black" points="4033.2,-562.76 4033.2,-593.56 4340.11,-593.56 4340.11,-562.76 4033.2,-562.76"/>
<text text-anchor="start" x="4040.2" y="-574.96" font-family="Arial" font-size="14.00">package_id </text>
<text text-anchor="start" x="4115.71" y="-574.96" font-family="Arial" font-size="14.00" fill="#666666">[bigint]</text>
<polygon fill="none" stroke="black" points="4033.2,-531.96 4033.2,-562.76 4340.11,-562.76 4340.11,-531.96 4033.2,-531.96"/>
<text text-anchor="start" x="4040.2" y="-544.16" font-family="Arial" font-size="14.00">service_id </text>
<text text-anchor="start" x="4107.12" y="-544.16" font-family="Arial" font-size="14.00" fill="#666666">[bigint]</text>
</g>
<!-- public.package_service&#45;&gt;public.services -->
<g id="edge8" class="edge">
<title>public.package_service:service_id&#45;&gt;public.services:id</title>
<path fill="none" stroke="black" d="M4022.03,-545.99C3991.49,-536.52 4016.04,-480.44 3980.66,-457.96 3835.81,-365.92 2613.25,-327.76 2441.63,-327.76"/>
<polygon fill="black" stroke="black" points="4021.96,-545.98 4031.27,-551.78 4027.25,-546.69 4031.54,-547.27 4031.54,-547.27 4031.54,-547.27 4027.25,-546.69 4032.47,-542.86 4021.96,-545.98"/>
</g>
<!-- public.packages -->
<g id="node14" class="node">
<title>public.packages</title>
<polygon fill="#efefef" stroke="none" points="4937.69,-327.76 4937.69,-363.36 5191.63,-363.36 5191.63,-327.76 4937.69,-327.76"/>
<polygon fill="none" stroke="black" points="4937.69,-327.76 4937.69,-363.36 5191.63,-363.36 5191.63,-327.76 4937.69,-327.76"/>
<text text-anchor="start" x="4944.69" y="-341.16" font-family="Arial Bold" font-size="18.00">public.packages</text>
<text text-anchor="start" x="5060.14" y="-341.16" font-family="Arial" font-size="14.00">    </text>
<text text-anchor="start" x="5091.26" y="-341.16" font-family="Arial" font-size="14.00" fill="#666666">[BASE TABLE]</text>
<polygon fill="none" stroke="black" points="4937.69,-296.96 4937.69,-327.76 5191.63,-327.76 5191.63,-296.96 4937.69,-296.96"/>
<text text-anchor="start" x="4944.69" y="-309.16" font-family="Arial" font-size="14.00">id </text>
<text text-anchor="start" x="4959.47" y="-309.16" font-family="Arial" font-size="14.00" fill="#666666">[bigint]</text>
<polygon fill="none" stroke="black" points="4937.69,-266.16 4937.69,-296.96 5191.63,-296.96 5191.63,-266.16 4937.69,-266.16"/>
<text text-anchor="start" x="4944.69" y="-278.36" font-family="Arial" font-size="14.00">attune_department_id </text>
<text text-anchor="start" x="5084.79" y="-278.36" font-family="Arial" font-size="14.00" fill="#666666">[bigint]</text>
</g>
<!-- public.package_service&#45;&gt;public.packages -->
<g id="edge14" class="edge">
<title>public.package_service:package_id&#45;&gt;public.packages:id</title>
<path fill="none" stroke="black" d="M4351.31,-577.11C4392.94,-567.44 4351.63,-493.48 4392.66,-457.96 4487.27,-376.04 4811.54,-312.36 4936.69,-312.36"/>
<polygon fill="black" stroke="black" points="4351.39,-577.1 4340.98,-573.65 4346.08,-577.65 4341.77,-578.09 4341.77,-578.09 4341.77,-578.09 4346.08,-577.65 4341.9,-582.6 4351.39,-577.1"/>
</g>
<!-- public.imaging_diagnostic_data -->
<g id="node10" class="node">
<title>public.imaging_diagnostic_data</title>
<polygon fill="#efefef" stroke="none" points="2602.19,-624.36 2602.19,-659.96 2971.13,-659.96 2971.13,-624.36 2602.19,-624.36"/>
<polygon fill="none" stroke="black" points="2602.19,-624.36 2602.19,-659.96 2971.13,-659.96 2971.13,-624.36 2602.19,-624.36"/>
<text text-anchor="start" x="2609.19" y="-637.76" font-family="Arial Bold" font-size="18.00">public.imaging_diagnostic_data</text>
<text text-anchor="start" x="2839.64" y="-637.76" font-family="Arial" font-size="14.00">    </text>
<text text-anchor="start" x="2870.75" y="-637.76" font-family="Arial" font-size="14.00" fill="#666666">[BASE TABLE]</text>
<polygon fill="none" stroke="black" points="2602.19,-593.56 2602.19,-624.36 2971.13,-624.36 2971.13,-593.56 2602.19,-593.56"/>
<text text-anchor="start" x="2609.19" y="-605.76" font-family="Arial" font-size="14.00">id </text>
<text text-anchor="start" x="2623.97" y="-605.76" font-family="Arial" font-size="14.00" fill="#666666">[bigint]</text>
<polygon fill="none" stroke="black" points="2602.19,-562.76 2602.19,-593.56 2971.13,-593.56 2971.13,-562.76 2602.19,-562.76"/>
<text text-anchor="start" x="2609.19" y="-574.96" font-family="Arial" font-size="14.00">checkup_id </text>
<text text-anchor="start" x="2683.9" y="-574.96" font-family="Arial" font-size="14.00" fill="#666666">[bigint]</text>
<polygon fill="none" stroke="black" points="2602.19,-531.96 2602.19,-562.76 2971.13,-562.76 2971.13,-531.96 2602.19,-531.96"/>
<text text-anchor="start" x="2609.19" y="-544.16" font-family="Arial" font-size="14.00">service_id </text>
<text text-anchor="start" x="2676.1" y="-544.16" font-family="Arial" font-size="14.00" fill="#666666">[bigint]</text>
<polygon fill="none" stroke="black" points="2602.19,-501.16 2602.19,-531.96 2971.13,-531.96 2971.13,-501.16 2602.19,-501.16"/>
<text text-anchor="start" x="2609.19" y="-513.36" font-family="Arial" font-size="14.00">updated_by </text>
<text text-anchor="start" x="2686.26" y="-513.36" font-family="Arial" font-size="14.00" fill="#666666">[bigint]</text>
</g>
<!-- public.imaging_diagnostic_data&#45;&gt;public.services -->
<g id="edge9" class="edge">
<title>public.imaging_diagnostic_data:service_id&#45;&gt;public.services:id</title>
<path fill="none" stroke="black" d="M2590.83,-546.25C2558.82,-538.55 2574.41,-492.26 2550.66,-457.96 2507.68,-395.92 2517.11,-327.76 2441.63,-327.76"/>
<polygon fill="black" stroke="black" points="2590.91,-546.26 2600.38,-551.8 2596.22,-546.83 2600.52,-547.29 2600.52,-547.29 2600.52,-547.29 2596.22,-546.83 2601.33,-542.85 2590.91,-546.26"/>
</g>
<!-- public.imaging_diagnostic_data_histories -->
<g id="node11" class="node">
<title>public.imaging_diagnostic_data_histories</title>
<polygon fill="#efefef" stroke="none" points="3075.19,-624.36 3075.19,-659.96 3514.12,-659.96 3514.12,-624.36 3075.19,-624.36"/>
<polygon fill="none" stroke="black" points="3075.19,-624.36 3075.19,-659.96 3514.12,-659.96 3514.12,-624.36 3075.19,-624.36"/>
<text text-anchor="start" x="3082.19" y="-637.76" font-family="Arial Bold" font-size="18.00">public.imaging_diagnostic_data_histories</text>
<text text-anchor="start" x="3382.63" y="-637.76" font-family="Arial" font-size="14.00">    </text>
<text text-anchor="start" x="3413.75" y="-637.76" font-family="Arial" font-size="14.00" fill="#666666">[BASE TABLE]</text>
<polygon fill="none" stroke="black" points="3075.19,-593.56 3075.19,-624.36 3514.12,-624.36 3514.12,-593.56 3075.19,-593.56"/>
<text text-anchor="start" x="3082.19" y="-605.76" font-family="Arial" font-size="14.00">imaging_diagnostic_data_id </text>
<text text-anchor="start" x="3259.65" y="-605.76" font-family="Arial" font-size="14.00" fill="#666666">[bigint]</text>
<polygon fill="none" stroke="black" points="3075.19,-562.76 3075.19,-593.56 3514.12,-593.56 3514.12,-562.76 3075.19,-562.76"/>
<text text-anchor="start" x="3082.19" y="-574.96" font-family="Arial" font-size="14.00">checkup_id </text>
<text text-anchor="start" x="3156.91" y="-574.96" font-family="Arial" font-size="14.00" fill="#666666">[bigint]</text>
<polygon fill="none" stroke="black" points="3075.19,-531.96 3075.19,-562.76 3514.12,-562.76 3514.12,-531.96 3075.19,-531.96"/>
<text text-anchor="start" x="3082.19" y="-544.16" font-family="Arial" font-size="14.00">service_id </text>
<text text-anchor="start" x="3149.11" y="-544.16" font-family="Arial" font-size="14.00" fill="#666666">[bigint]</text>
<polygon fill="none" stroke="black" points="3075.19,-501.16 3075.19,-531.96 3514.12,-531.96 3514.12,-501.16 3075.19,-501.16"/>
<text text-anchor="start" x="3082.19" y="-513.36" font-family="Arial" font-size="14.00">updated_by </text>
<text text-anchor="start" x="3159.26" y="-513.36" font-family="Arial" font-size="14.00" fill="#666666">[bigint]</text>
</g>
<!-- public.imaging_diagnostic_data_histories&#45;&gt;public.services -->
<g id="edge10" class="edge">
<title>public.imaging_diagnostic_data_histories:service_id&#45;&gt;public.services:id</title>
<path fill="none" stroke="black" d="M3064.04,-546.04C3033.5,-536.93 3057.16,-482.81 3023.66,-457.96 2917.21,-379 2574.17,-327.76 2441.63,-327.76"/>
<polygon fill="black" stroke="black" points="3063.94,-546.03 3073.28,-551.78 3069.23,-546.72 3073.53,-547.27 3073.53,-547.27 3073.53,-547.27 3069.23,-546.72 3074.44,-542.85 3063.94,-546.03"/>
</g>
<!-- public.category_service -->
<g id="node12" class="node">
<title>public.category_service</title>
<polygon fill="#efefef" stroke="none" points="3618.7,-593.56 3618.7,-629.16 3928.61,-629.16 3928.61,-593.56 3618.7,-593.56"/>
<polygon fill="none" stroke="black" points="3618.7,-593.56 3618.7,-629.16 3928.61,-629.16 3928.61,-593.56 3618.7,-593.56"/>
<text text-anchor="start" x="3625.7" y="-606.96" font-family="Arial Bold" font-size="18.00">public.category_service</text>
<text text-anchor="start" x="3797.12" y="-606.96" font-family="Arial" font-size="14.00">    </text>
<text text-anchor="start" x="3828.24" y="-606.96" font-family="Arial" font-size="14.00" fill="#666666">[BASE TABLE]</text>
<polygon fill="none" stroke="black" points="3618.7,-562.76 3618.7,-593.56 3928.61,-593.56 3928.61,-562.76 3618.7,-562.76"/>
<text text-anchor="start" x="3625.7" y="-574.96" font-family="Arial" font-size="14.00">service_id </text>
<text text-anchor="start" x="3692.62" y="-574.96" font-family="Arial" font-size="14.00" fill="#666666">[bigint]</text>
<polygon fill="none" stroke="black" points="3618.7,-531.96 3618.7,-562.76 3928.61,-562.76 3928.61,-531.96 3618.7,-531.96"/>
<text text-anchor="start" x="3625.7" y="-544.16" font-family="Arial" font-size="14.00">category_id </text>
<text text-anchor="start" x="3701.97" y="-544.16" font-family="Arial" font-size="14.00" fill="#666666">[integer]</text>
</g>
<!-- public.category_service&#45;&gt;public.services -->
<g id="edge11" class="edge">
<title>public.category_service:service_id&#45;&gt;public.services:id</title>
<path fill="none" stroke="black" d="M3607.55,-577.07C3566.32,-567.04 3610.05,-490.42 3566.66,-457.96 3465.89,-382.59 2567.47,-327.76 2441.63,-327.76"/>
<polygon fill="black" stroke="black" points="3607.43,-577.06 3616.89,-582.6 3612.73,-577.63 3617.04,-578.09 3617.04,-578.09 3617.04,-578.09 3612.73,-577.63 3617.85,-573.65 3607.43,-577.06"/>
</g>
<!-- public.packages&#45;&gt;public.attune_departments -->
<g id="edge13" class="edge">
<title>public.packages:attune_department_id&#45;&gt;public.attune_departments:id</title>
<path fill="none" stroke="black" d="M4926.34,-281.51C4540.22,-277.93 4463.78,-74.36 4072.12,-74.36"/>
<polygon fill="black" stroke="black" points="4926.35,-281.51 4936.33,-286.06 4931.69,-281.54 4936.02,-281.56 4936.02,-281.56 4936.02,-281.56 4931.69,-281.54 4936.37,-277.06 4926.35,-281.51"/>
</g>
<!-- public.package_service_group -->
<g id="node15" class="node">
<title>public.package_service_group</title>
<polygon fill="#efefef" stroke="none" points="4444.71,-593.56 4444.71,-629.16 4802.61,-629.16 4802.61,-593.56 4444.71,-593.56"/>
<polygon fill="none" stroke="black" points="4444.71,-593.56 4444.71,-629.16 4802.61,-629.16 4802.61,-593.56 4444.71,-593.56"/>
<text text-anchor="start" x="4451.71" y="-606.96" font-family="Arial Bold" font-size="18.00">public.package_service_group</text>
<text text-anchor="start" x="4671.12" y="-606.96" font-family="Arial" font-size="14.00">    </text>
<text text-anchor="start" x="4702.23" y="-606.96" font-family="Arial" font-size="14.00" fill="#666666">[BASE TABLE]</text>
<polygon fill="none" stroke="black" points="4444.71,-562.76 4444.71,-593.56 4802.61,-593.56 4802.61,-562.76 4444.71,-562.76"/>
<text text-anchor="start" x="4451.71" y="-574.96" font-family="Arial" font-size="14.00">package_id </text>
<text text-anchor="start" x="4527.21" y="-574.96" font-family="Arial" font-size="14.00" fill="#666666">[bigint]</text>
<polygon fill="none" stroke="black" points="4444.71,-531.96 4444.71,-562.76 4802.61,-562.76 4802.61,-531.96 4444.71,-531.96"/>
<text text-anchor="start" x="4451.71" y="-544.16" font-family="Arial" font-size="14.00">service_group_id </text>
<text text-anchor="start" x="4562.22" y="-544.16" font-family="Arial" font-size="14.00" fill="#666666">[bigint]</text>
</g>
<!-- public.package_service_group&#45;&gt;public.packages -->
<g id="edge15" class="edge">
<title>public.package_service_group:package_id&#45;&gt;public.packages:id</title>
<path fill="none" stroke="black" d="M4813.74,-577.33C4857.68,-569.44 4830.68,-506.68 4854.66,-457.96 4887.45,-391.32 4862.41,-312.36 4936.69,-312.36"/>
<polygon fill="black" stroke="black" points="4813.91,-577.32 4803.57,-573.65 4808.59,-577.75 4804.27,-578.11 4804.27,-578.11 4804.27,-578.11 4808.59,-577.75 4804.31,-582.62 4813.91,-577.32"/>
</g>
<!-- public.checkup_package -->
<g id="node16" class="node">
<title>public.checkup_package</title>
<polygon fill="#efefef" stroke="none" points="4906.7,-593.56 4906.7,-629.16 5222.61,-629.16 5222.61,-593.56 4906.7,-593.56"/>
<polygon fill="none" stroke="black" points="4906.7,-593.56 4906.7,-629.16 5222.61,-629.16 5222.61,-593.56 4906.7,-593.56"/>
<text text-anchor="start" x="4913.7" y="-606.96" font-family="Arial Bold" font-size="18.00">public.checkup_package</text>
<text text-anchor="start" x="5091.12" y="-606.96" font-family="Arial" font-size="14.00">    </text>
<text text-anchor="start" x="5122.24" y="-606.96" font-family="Arial" font-size="14.00" fill="#666666">[BASE TABLE]</text>
<polygon fill="none" stroke="black" points="4906.7,-562.76 4906.7,-593.56 5222.61,-593.56 5222.61,-562.76 4906.7,-562.76"/>
<text text-anchor="start" x="4913.7" y="-574.96" font-family="Arial" font-size="14.00">checkup_id </text>
<text text-anchor="start" x="4988.42" y="-574.96" font-family="Arial" font-size="14.00" fill="#666666">[bigint]</text>
<polygon fill="none" stroke="black" points="4906.7,-531.96 4906.7,-562.76 5222.61,-562.76 5222.61,-531.96 4906.7,-531.96"/>
<text text-anchor="start" x="4913.7" y="-544.16" font-family="Arial" font-size="14.00">package_id </text>
<text text-anchor="start" x="4989.21" y="-544.16" font-family="Arial" font-size="14.00" fill="#666666">[bigint]</text>
</g>
<!-- public.checkup_package&#45;&gt;public.packages -->
<g id="edge16" class="edge">
<title>public.checkup_package:package_id&#45;&gt;public.packages:id</title>
<path fill="none" stroke="black" d="M5065.22,-520.94C5073.15,-454.21 5162.03,-475.97 5191.63,-406.56 5208.05,-368.05 5234.5,-312.36 5192.63,-312.36"/>
<polygon fill="black" stroke="black" points="5065.24,-520.64 5060.18,-530.37 5064.94,-525.97 5064.69,-530.29 5064.69,-530.29 5064.69,-530.29 5064.94,-525.97 5069.17,-530.88 5065.24,-520.64"/>
</g>
<!-- public.company_order_package -->
<g id="node17" class="node">
<title>public.company_order_package</title>
<polygon fill="#efefef" stroke="none" points="5327.21,-593.56 5327.21,-629.16 5696.1,-629.16 5696.1,-593.56 5327.21,-593.56"/>
<polygon fill="none" stroke="black" points="5327.21,-593.56 5327.21,-629.16 5696.1,-629.16 5696.1,-593.56 5327.21,-593.56"/>
<text text-anchor="start" x="5334.21" y="-606.96" font-family="Arial Bold" font-size="18.00">public.company_order_package</text>
<text text-anchor="start" x="5564.61" y="-606.96" font-family="Arial" font-size="14.00">    </text>
<text text-anchor="start" x="5595.73" y="-606.96" font-family="Arial" font-size="14.00" fill="#666666">[BASE TABLE]</text>
<polygon fill="none" stroke="black" points="5327.21,-562.76 5327.21,-593.56 5696.1,-593.56 5696.1,-562.76 5327.21,-562.76"/>
<text text-anchor="start" x="5334.21" y="-574.96" font-family="Arial" font-size="14.00">company_order_id </text>
<text text-anchor="start" x="5454.06" y="-574.96" font-family="Arial" font-size="14.00" fill="#666666">[bigint]</text>
<polygon fill="none" stroke="black" points="5327.21,-531.96 5327.21,-562.76 5696.1,-562.76 5696.1,-531.96 5327.21,-531.96"/>
<text text-anchor="start" x="5334.21" y="-544.16" font-family="Arial" font-size="14.00">package_id </text>
<text text-anchor="start" x="5409.71" y="-544.16" font-family="Arial" font-size="14.00" fill="#666666">[bigint]</text>
</g>
<!-- public.company_order_package&#45;&gt;public.packages -->
<g id="edge17" class="edge">
<title>public.company_order_package:package_id&#45;&gt;public.packages:id</title>
<path fill="none" stroke="black" d="M5320.41,-538.72C5295.02,-496.32 5195.95,-312.36 5192.63,-312.36"/>
<polygon fill="black" stroke="black" points="5320.45,-538.78 5322.29,-549.59 5323.42,-543.21 5325.84,-546.8 5325.84,-546.8 5325.84,-546.8 5323.42,-543.21 5329.76,-544.58 5320.45,-538.78"/>
</g>
<!-- public.package_test_set -->
<g id="node18" class="node">
<title>public.package_test_set</title>
<polygon fill="#efefef" stroke="none" points="5800.69,-593.56 5800.69,-629.16 6110.62,-629.16 6110.62,-593.56 5800.69,-593.56"/>
<polygon fill="none" stroke="black" points="5800.69,-593.56 5800.69,-629.16 6110.62,-629.16 6110.62,-593.56 5800.69,-593.56"/>
<text text-anchor="start" x="5807.69" y="-606.96" font-family="Arial Bold" font-size="18.00">public.package_test_set</text>
<text text-anchor="start" x="5979.13" y="-606.96" font-family="Arial" font-size="14.00">    </text>
<text text-anchor="start" x="6010.25" y="-606.96" font-family="Arial" font-size="14.00" fill="#666666">[BASE TABLE]</text>
<polygon fill="none" stroke="black" points="5800.69,-562.76 5800.69,-593.56 6110.62,-593.56 6110.62,-562.76 5800.69,-562.76"/>
<text text-anchor="start" x="5807.69" y="-574.96" font-family="Arial" font-size="14.00">test_set_id </text>
<text text-anchor="start" x="5879.29" y="-574.96" font-family="Arial" font-size="14.00" fill="#666666">[bigint]</text>
<polygon fill="none" stroke="black" points="5800.69,-531.96 5800.69,-562.76 6110.62,-562.76 6110.62,-531.96 5800.69,-531.96"/>
<text text-anchor="start" x="5807.69" y="-544.16" font-family="Arial" font-size="14.00">package_id </text>
<text text-anchor="start" x="5883.2" y="-544.16" font-family="Arial" font-size="14.00" fill="#666666">[bigint]</text>
</g>
<!-- public.package_test_set&#45;&gt;public.packages -->
<g id="edge18" class="edge">
<title>public.package_test_set:package_id&#45;&gt;public.packages:id</title>
<path fill="none" stroke="black" d="M5789.51,-546.06C5758.78,-537.03 5781.85,-483.4 5748.66,-457.96 5647.29,-380.25 5320.36,-312.36 5192.63,-312.36"/>
<polygon fill="black" stroke="black" points="5789.44,-546.05 5798.79,-551.78 5794.73,-546.73 5799.03,-547.27 5799.03,-547.27 5799.03,-547.27 5794.73,-546.73 5799.93,-542.85 5789.44,-546.05"/>
</g>
<!-- public.category_package -->
<g id="node19" class="node">
<title>public.category_package</title>
<polygon fill="#efefef" stroke="none" points="6214.71,-593.56 6214.71,-629.16 6532.61,-629.16 6532.61,-593.56 6214.71,-593.56"/>
<polygon fill="none" stroke="black" points="6214.71,-593.56 6214.71,-629.16 6532.61,-629.16 6532.61,-593.56 6214.71,-593.56"/>
<text text-anchor="start" x="6221.71" y="-606.96" font-family="Arial Bold" font-size="18.00">public.category_package</text>
<text text-anchor="start" x="6401.12" y="-606.96" font-family="Arial" font-size="14.00">    </text>
<text text-anchor="start" x="6432.23" y="-606.96" font-family="Arial" font-size="14.00" fill="#666666">[BASE TABLE]</text>
<polygon fill="none" stroke="black" points="6214.71,-562.76 6214.71,-593.56 6532.61,-593.56 6532.61,-562.76 6214.71,-562.76"/>
<text text-anchor="start" x="6221.71" y="-574.96" font-family="Arial" font-size="14.00">package_id </text>
<text text-anchor="start" x="6297.21" y="-574.96" font-family="Arial" font-size="14.00" fill="#666666">[integer]</text>
<polygon fill="none" stroke="black" points="6214.71,-531.96 6214.71,-562.76 6532.61,-562.76 6532.61,-531.96 6214.71,-531.96"/>
<text text-anchor="start" x="6221.71" y="-544.16" font-family="Arial" font-size="14.00">category_id </text>
<text text-anchor="start" x="6297.97" y="-544.16" font-family="Arial" font-size="14.00" fill="#666666">[integer]</text>
</g>
<!-- public.category_package&#45;&gt;public.packages -->
<g id="edge19" class="edge">
<title>public.category_package:package_id&#45;&gt;public.packages:id</title>
<path fill="none" stroke="black" d="M6203.55,-577.08C6162.25,-567.13 6205.49,-491.14 6162.66,-457.96 5990.33,-324.47 5410.6,-312.36 5192.63,-312.36"/>
<polygon fill="black" stroke="black" points="6203.43,-577.07 6212.9,-582.6 6208.73,-577.63 6213.04,-578.09 6213.04,-578.09 6213.04,-578.09 6208.73,-577.63 6213.85,-573.65 6203.43,-577.07"/>
</g>
</g>
</svg>
