<?xml version="1.0" encoding="UTF-8" standalone="no"?>
<!DOCTYPE svg PUBLIC "-//W3C//DTD SVG 1.1//EN"
 "http://www.w3.org/Graphics/SVG/1.1/DTD/svg11.dtd">
<!-- Generated by graphviz version 12.1.2 (20240928.0832)
 -->
<!-- Title: public.specialities Pages: 1 -->
<svg width="1395pt" height="812pt"
 viewBox="0.00 0.00 1395.09 811.60" xmlns="http://www.w3.org/2000/svg" xmlns:xlink="http://www.w3.org/1999/xlink">
<g id="graph0" class="graph" transform="scale(1 1) rotate(0) translate(4 807.6)">
<title>public.specialities</title>
<polygon fill="white" stroke="none" points="-4,4 -4,-807.6 1391.09,-807.6 1391.09,4 -4,4"/>
<!-- public.specialities -->
<g id="node1" class="node">
<title>public.specialities</title>
<polygon fill="#efefef" stroke="none" points="375.71,-289.6 375.71,-325.2 643.66,-325.2 643.66,-289.6 375.71,-289.6"/>
<polygon fill="none" stroke="black" points="375.71,-289.6 375.71,-325.2 643.66,-325.2 643.66,-289.6 375.71,-289.6"/>
<text text-anchor="start" x="382.71" y="-303" font-family="Arial Bold" font-size="18.00">public.specialities</text>
<text text-anchor="start" x="512.17" y="-303" font-family="Arial" font-size="14.00">    </text>
<text text-anchor="start" x="543.29" y="-303" font-family="Arial" font-size="14.00" fill="#666666">[BASE TABLE]</text>
<polygon fill="none" stroke="black" points="375.71,-258.8 375.71,-289.6 643.66,-289.6 643.66,-258.8 375.71,-258.8"/>
<text text-anchor="start" x="382.71" y="-271" font-family="Arial" font-size="14.00">id </text>
<text text-anchor="start" x="397.5" y="-271" font-family="Arial" font-size="14.00" fill="#666666">[bigint]</text>
<polygon fill="none" stroke="black" stroke-width="3" points="374.21,-257.3 374.21,-326.7 645.16,-326.7 645.16,-257.3 374.21,-257.3"/>
</g>
<!-- public.speciality_user -->
<g id="node2" class="node">
<title>public.speciality_user</title>
<polygon fill="#efefef" stroke="none" points="129.71,-724.8 129.71,-760.4 425.66,-760.4 425.66,-724.8 129.71,-724.8"/>
<polygon fill="none" stroke="black" points="129.71,-724.8 129.71,-760.4 425.66,-760.4 425.66,-724.8 129.71,-724.8"/>
<text text-anchor="start" x="136.71" y="-738.2" font-family="Arial Bold" font-size="18.00">public.speciality_user</text>
<text text-anchor="start" x="294.17" y="-738.2" font-family="Arial" font-size="14.00">    </text>
<text text-anchor="start" x="325.29" y="-738.2" font-family="Arial" font-size="14.00" fill="#666666">[BASE TABLE]</text>
<polygon fill="none" stroke="black" points="129.71,-694 129.71,-724.8 425.66,-724.8 425.66,-694 129.71,-694"/>
<text text-anchor="start" x="136.71" y="-706.2" font-family="Arial" font-size="14.00">speciality_id </text>
<text text-anchor="start" x="216.87" y="-706.2" font-family="Arial" font-size="14.00" fill="#666666">[bigint]</text>
<polygon fill="none" stroke="black" points="129.71,-663.2 129.71,-694 425.66,-694 425.66,-663.2 129.71,-663.2"/>
<text text-anchor="start" x="136.71" y="-675.4" font-family="Arial" font-size="14.00">user_id </text>
<text text-anchor="start" x="186.52" y="-675.4" font-family="Arial" font-size="14.00" fill="#666666">[bigint]</text>
</g>
<!-- public.speciality_user&#45;&gt;public.specialities -->
<g id="edge1" class="edge">
<title>public.speciality_user:speciality_id&#45;&gt;public.specialities:id</title>
<path fill="none" stroke="black" d="M436.85,-708.96C605.29,-693.4 183.53,-274.2 374.71,-274.2"/>
<polygon fill="black" stroke="black" points="436.98,-708.95 426.8,-704.89 431.65,-709.18 427.33,-709.37 427.33,-709.37 427.33,-709.37 431.65,-709.18 427.19,-713.88 436.98,-708.95"/>
</g>
<!-- public.users -->
<g id="node3" class="node">
<title>public.users</title>
<polygon fill="#efefef" stroke="none" points="43.2,-505.2 43.2,-540.8 268.17,-540.8 268.17,-505.2 43.2,-505.2"/>
<polygon fill="none" stroke="black" points="43.2,-505.2 43.2,-540.8 268.17,-540.8 268.17,-505.2 43.2,-505.2"/>
<text text-anchor="start" x="50.2" y="-518.6" font-family="Arial Bold" font-size="18.00">public.users</text>
<text text-anchor="start" x="136.68" y="-518.6" font-family="Arial" font-size="14.00">    </text>
<text text-anchor="start" x="167.8" y="-518.6" font-family="Arial" font-size="14.00" fill="#666666">[BASE TABLE]</text>
<polygon fill="none" stroke="black" points="43.2,-474.4 43.2,-505.2 268.17,-505.2 268.17,-474.4 43.2,-474.4"/>
<text text-anchor="start" x="50.2" y="-486.6" font-family="Arial" font-size="14.00">id </text>
<text text-anchor="start" x="64.99" y="-486.6" font-family="Arial" font-size="14.00" fill="#666666">[bigint]</text>
<polygon fill="none" stroke="black" points="43.2,-443.6 43.2,-474.4 268.17,-474.4 268.17,-443.6 43.2,-443.6"/>
<text text-anchor="start" x="50.2" y="-455.8" font-family="Arial" font-size="14.00">email </text>
<text text-anchor="start" x="87.54" y="-455.8" font-family="Arial" font-size="14.00" fill="#666666">[varchar(255)]</text>
<polygon fill="none" stroke="black" points="43.2,-412.8 43.2,-443.6 268.17,-443.6 268.17,-412.8 43.2,-412.8"/>
<text text-anchor="start" x="50.2" y="-425" font-family="Arial" font-size="14.00">branch_id </text>
<text text-anchor="start" x="115.58" y="-425" font-family="Arial" font-size="14.00" fill="#666666">[bigint]</text>
<polygon fill="none" stroke="black" points="43.2,-382 43.2,-412.8 268.17,-412.8 268.17,-382 43.2,-382"/>
<text text-anchor="start" x="50.2" y="-394.2" font-family="Arial" font-size="14.00">sex_id </text>
<text text-anchor="start" x="94.56" y="-394.2" font-family="Arial" font-size="14.00" fill="#666666">[bigint]</text>
<polygon fill="none" stroke="black" points="43.2,-351.2 43.2,-382 268.17,-382 268.17,-351.2 43.2,-351.2"/>
<text text-anchor="start" x="50.2" y="-363.4" font-family="Arial" font-size="14.00">user_status_id </text>
<text text-anchor="start" x="145.14" y="-363.4" font-family="Arial" font-size="14.00" fill="#666666">[bigint]</text>
<polygon fill="none" stroke="black" points="43.2,-320.4 43.2,-351.2 268.17,-351.2 268.17,-320.4 43.2,-320.4"/>
<text text-anchor="start" x="50.2" y="-332.6" font-family="Arial" font-size="14.00">nationality_id </text>
<text text-anchor="start" x="135.81" y="-332.6" font-family="Arial" font-size="14.00" fill="#666666">[bigint]</text>
<polygon fill="none" stroke="black" points="43.2,-289.6 43.2,-320.4 268.17,-320.4 268.17,-289.6 43.2,-289.6"/>
<text text-anchor="start" x="50.2" y="-301.8" font-family="Arial" font-size="14.00">city_id </text>
<text text-anchor="start" x="93.77" y="-301.8" font-family="Arial" font-size="14.00" fill="#666666">[bigint]</text>
<polygon fill="none" stroke="black" points="43.2,-258.8 43.2,-289.6 268.17,-289.6 268.17,-258.8 43.2,-258.8"/>
<text text-anchor="start" x="50.2" y="-271" font-family="Arial" font-size="14.00">image_id </text>
<text text-anchor="start" x="110.9" y="-271" font-family="Arial" font-size="14.00" fill="#666666">[bigint]</text>
<polygon fill="none" stroke="black" points="43.2,-228 43.2,-258.8 268.17,-258.8 268.17,-228 43.2,-228"/>
<text text-anchor="start" x="50.2" y="-240.2" font-family="Arial" font-size="14.00">signature_image_id </text>
<text text-anchor="start" x="176.28" y="-240.2" font-family="Arial" font-size="14.00" fill="#666666">[bigint]</text>
<polygon fill="none" stroke="black" points="43.2,-197.2 43.2,-228 268.17,-228 268.17,-197.2 43.2,-197.2"/>
<text text-anchor="start" x="50.2" y="-209.4" font-family="Arial" font-size="14.00">position_id </text>
<text text-anchor="start" x="121.03" y="-209.4" font-family="Arial" font-size="14.00" fill="#666666">[bigint]</text>
<polygon fill="none" stroke="black" points="43.2,-166.4 43.2,-197.2 268.17,-197.2 268.17,-166.4 43.2,-166.4"/>
<text text-anchor="start" x="50.2" y="-178.6" font-family="Arial" font-size="14.00">mobile_number_id </text>
<text text-anchor="start" x="169.27" y="-178.6" font-family="Arial" font-size="14.00" fill="#666666">[bigint]</text>
<polygon fill="none" stroke="black" points="43.2,-135.6 43.2,-166.4 268.17,-166.4 268.17,-135.6 43.2,-135.6"/>
<text text-anchor="start" x="50.2" y="-147.8" font-family="Arial" font-size="14.00">home_number_id </text>
<text text-anchor="start" x="163.05" y="-147.8" font-family="Arial" font-size="14.00" fill="#666666">[bigint]</text>
<polygon fill="none" stroke="black" points="43.2,-104.8 43.2,-135.6 268.17,-135.6 268.17,-104.8 43.2,-104.8"/>
<text text-anchor="start" x="50.2" y="-117" font-family="Arial" font-size="14.00">bank_id </text>
<text text-anchor="start" x="103.13" y="-117" font-family="Arial" font-size="14.00" fill="#666666">[bigint]</text>
<polygon fill="none" stroke="black" points="43.2,-74 43.2,-104.8 268.17,-104.8 268.17,-74 43.2,-74"/>
<text text-anchor="start" x="50.2" y="-86.2" font-family="Arial" font-size="14.00">created_by_user_id </text>
<text text-anchor="start" x="177.06" y="-86.2" font-family="Arial" font-size="14.00" fill="#666666">[bigint]</text>
<polygon fill="none" stroke="black" points="43.2,-43.2 43.2,-74 268.17,-74 268.17,-43.2 43.2,-43.2"/>
<text text-anchor="start" x="50.2" y="-55.4" font-family="Arial" font-size="14.00">profile_status_id </text>
<text text-anchor="start" x="156.04" y="-55.4" font-family="Arial" font-size="14.00" fill="#666666">[bigint]</text>
</g>
<!-- public.speciality_user&#45;&gt;public.users -->
<g id="edge2" class="edge">
<title>public.speciality_user:user_id&#45;&gt;public.users:id</title>
<path fill="none" stroke="black" d="M118.74,-675.77C106.39,-666.56 116.25,-637.11 129.71,-620 169.04,-570.03 229.01,-634.09 268.17,-584 293.96,-551.01 311.04,-489.8 269.17,-489.8"/>
<polygon fill="black" stroke="black" points="118.77,-675.78 127.16,-682.84 123.9,-677.23 128.07,-678.42 128.07,-678.42 128.07,-678.42 123.9,-677.23 129.62,-674.18 118.77,-675.78"/>
</g>
<!-- public.branch_speciality -->
<g id="node4" class="node">
<title>public.branch_speciality</title>
<polygon fill="#efefef" stroke="none" points="591.22,-724.8 591.22,-760.4 906.15,-760.4 906.15,-724.8 591.22,-724.8"/>
<polygon fill="none" stroke="black" points="591.22,-724.8 591.22,-760.4 906.15,-760.4 906.15,-724.8 591.22,-724.8"/>
<text text-anchor="start" x="598.22" y="-738.2" font-family="Arial Bold" font-size="18.00">public.branch_speciality</text>
<text text-anchor="start" x="774.66" y="-738.2" font-family="Arial" font-size="14.00">    </text>
<text text-anchor="start" x="805.78" y="-738.2" font-family="Arial" font-size="14.00" fill="#666666">[BASE TABLE]</text>
<polygon fill="none" stroke="black" points="591.22,-694 591.22,-724.8 906.15,-724.8 906.15,-694 591.22,-694"/>
<text text-anchor="start" x="598.22" y="-706.2" font-family="Arial" font-size="14.00">branch_id </text>
<text text-anchor="start" x="663.6" y="-706.2" font-family="Arial" font-size="14.00" fill="#666666">[bigint]</text>
<polygon fill="none" stroke="black" points="591.22,-663.2 591.22,-694 906.15,-694 906.15,-663.2 591.22,-663.2"/>
<text text-anchor="start" x="598.22" y="-675.4" font-family="Arial" font-size="14.00">speciality_id </text>
<text text-anchor="start" x="678.37" y="-675.4" font-family="Arial" font-size="14.00" fill="#666666">[bigint]</text>
</g>
<!-- public.branch_speciality&#45;&gt;public.specialities -->
<g id="edge3" class="edge">
<title>public.branch_speciality:speciality_id&#45;&gt;public.specialities:id</title>
<path fill="none" stroke="black" d="M579.81,-678.1C425.73,-662.18 822.3,-274.2 644.66,-274.2"/>
<polygon fill="black" stroke="black" points="579.9,-678.1 589.67,-683.08 585.23,-678.36 589.55,-678.57 589.55,-678.57 589.55,-678.57 585.23,-678.36 590.11,-674.09 579.9,-678.1"/>
</g>
<!-- public.branches -->
<g id="node5" class="node">
<title>public.branches</title>
<polygon fill="#efefef" stroke="none" points="750.71,-305 750.71,-340.6 1002.66,-340.6 1002.66,-305 750.71,-305"/>
<polygon fill="none" stroke="black" points="750.71,-305 750.71,-340.6 1002.66,-340.6 1002.66,-305 750.71,-305"/>
<text text-anchor="start" x="757.71" y="-318.4" font-family="Arial Bold" font-size="18.00">public.branches</text>
<text text-anchor="start" x="871.17" y="-318.4" font-family="Arial" font-size="14.00">    </text>
<text text-anchor="start" x="902.29" y="-318.4" font-family="Arial" font-size="14.00" fill="#666666">[BASE TABLE]</text>
<polygon fill="none" stroke="black" points="750.71,-274.2 750.71,-305 1002.66,-305 1002.66,-274.2 750.71,-274.2"/>
<text text-anchor="start" x="757.71" y="-286.4" font-family="Arial" font-size="14.00">id </text>
<text text-anchor="start" x="772.5" y="-286.4" font-family="Arial" font-size="14.00" fill="#666666">[bigint]</text>
<polygon fill="none" stroke="black" points="750.71,-243.4 750.71,-274.2 1002.66,-274.2 1002.66,-243.4 750.71,-243.4"/>
<text text-anchor="start" x="757.71" y="-255.6" font-family="Arial" font-size="14.00">organization_id </text>
<text text-anchor="start" x="856.56" y="-255.6" font-family="Arial" font-size="14.00" fill="#666666">[bigint]</text>
</g>
<!-- public.branch_speciality&#45;&gt;public.branches -->
<g id="edge4" class="edge">
<title>public.branch_speciality:branch_id&#45;&gt;public.branches:id</title>
<path fill="none" stroke="black" d="M917.47,-708.97C1086.05,-693.97 554.14,-289.6 749.71,-289.6"/>
<polygon fill="black" stroke="black" points="917.48,-708.97 907.3,-704.89 912.15,-709.19 907.82,-709.37 907.82,-709.37 907.82,-709.37 912.15,-709.19 907.67,-713.88 917.48,-708.97"/>
</g>
<!-- public.form_speciality -->
<g id="node6" class="node">
<title>public.form_speciality</title>
<polygon fill="#efefef" stroke="none" points="1040.21,-724.8 1040.21,-760.4 1341.16,-760.4 1341.16,-724.8 1040.21,-724.8"/>
<polygon fill="none" stroke="black" points="1040.21,-724.8 1040.21,-760.4 1341.16,-760.4 1341.16,-724.8 1040.21,-724.8"/>
<text text-anchor="start" x="1047.21" y="-738.2" font-family="Arial Bold" font-size="18.00">public.form_speciality</text>
<text text-anchor="start" x="1209.67" y="-738.2" font-family="Arial" font-size="14.00">    </text>
<text text-anchor="start" x="1240.79" y="-738.2" font-family="Arial" font-size="14.00" fill="#666666">[BASE TABLE]</text>
<polygon fill="none" stroke="black" points="1040.21,-694 1040.21,-724.8 1341.16,-724.8 1341.16,-694 1040.21,-694"/>
<text text-anchor="start" x="1047.21" y="-706.2" font-family="Arial" font-size="14.00">form_id </text>
<text text-anchor="start" x="1097.79" y="-706.2" font-family="Arial" font-size="14.00" fill="#666666">[bigint]</text>
<polygon fill="none" stroke="black" points="1040.21,-663.2 1040.21,-694 1341.16,-694 1341.16,-663.2 1040.21,-663.2"/>
<text text-anchor="start" x="1047.21" y="-675.4" font-family="Arial" font-size="14.00">speciality_id </text>
<text text-anchor="start" x="1127.37" y="-675.4" font-family="Arial" font-size="14.00" fill="#666666">[bigint]</text>
</g>
<!-- public.form_speciality&#45;&gt;public.specialities -->
<g id="edge5" class="edge">
<title>public.form_speciality:speciality_id&#45;&gt;public.specialities:id</title>
<path fill="none" stroke="black" d="M1028.83,-677.71C995.43,-671.56 996.21,-635.13 958.69,-620 850.5,-576.37 782.61,-665.03 698.69,-584 648.41,-535.46 714.55,-274.2 644.66,-274.2"/>
<polygon fill="black" stroke="black" points="1028.92,-677.72 1038.5,-683.06 1034.23,-678.17 1038.55,-678.54 1038.55,-678.54 1038.55,-678.54 1034.23,-678.17 1039.26,-674.09 1028.92,-677.72"/>
</g>
<!-- public.forms -->
<g id="node7" class="node">
<title>public.forms</title>
<polygon fill="#efefef" stroke="none" points="1106.7,-289.6 1106.7,-325.2 1336.67,-325.2 1336.67,-289.6 1106.7,-289.6"/>
<polygon fill="none" stroke="black" points="1106.7,-289.6 1106.7,-325.2 1336.67,-325.2 1336.67,-289.6 1106.7,-289.6"/>
<text text-anchor="start" x="1113.7" y="-303" font-family="Arial Bold" font-size="18.00">public.forms</text>
<text text-anchor="start" x="1205.18" y="-303" font-family="Arial" font-size="14.00">    </text>
<text text-anchor="start" x="1236.3" y="-303" font-family="Arial" font-size="14.00" fill="#666666">[BASE TABLE]</text>
<polygon fill="none" stroke="black" points="1106.7,-258.8 1106.7,-289.6 1336.67,-289.6 1336.67,-258.8 1106.7,-258.8"/>
<text text-anchor="start" x="1113.7" y="-271" font-family="Arial" font-size="14.00">id </text>
<text text-anchor="start" x="1128.49" y="-271" font-family="Arial" font-size="14.00" fill="#666666">[bigint]</text>
</g>
<!-- public.form_speciality&#45;&gt;public.forms -->
<g id="edge6" class="edge">
<title>public.form_speciality:form_id&#45;&gt;public.forms:id</title>
<path fill="none" stroke="black" d="M1352.39,-709.04C1540.07,-695.07 889.22,-274.2 1105.7,-274.2"/>
<polygon fill="black" stroke="black" points="1352.49,-709.04 1342.34,-704.89 1347.16,-709.23 1342.83,-709.38 1342.83,-709.38 1342.83,-709.38 1347.16,-709.23 1342.65,-713.89 1352.49,-709.04"/>
</g>
</g>
</svg>
