<?xml version="1.0" encoding="UTF-8" standalone="no"?>
<!DOCTYPE svg PUBLIC "-//W3C//DTD SVG 1.1//EN"
 "http://www.w3.org/Graphics/SVG/1.1/DTD/svg11.dtd">
<!-- Generated by graphviz version 12.1.2 (20240928.0832)
 -->
<!-- Title: public.role_has_permissions Pages: 1 -->
<svg width="1681pt" height="386pt"
 viewBox="0.00 0.00 1681.36 386.40" xmlns="http://www.w3.org/2000/svg" xmlns:xlink="http://www.w3.org/1999/xlink">
<g id="graph0" class="graph" transform="scale(1 1) rotate(0) translate(4 382.4)">
<title>public.role_has_permissions</title>
<polygon fill="white" stroke="none" points="-4,4 -4,-382.4 1677.36,-382.4 1677.36,4 -4,4"/>
<!-- public.role_has_permissions -->
<g id="node1" class="node">
<title>public.role_has_permissions</title>
<polygon fill="#efefef" stroke="none" points="511.7,-296.6 511.7,-332.2 855.66,-332.2 855.66,-296.6 511.7,-296.6"/>
<polygon fill="none" stroke="black" points="511.7,-296.6 511.7,-332.2 855.66,-332.2 855.66,-296.6 511.7,-296.6"/>
<text text-anchor="start" x="518.7" y="-310" font-family="Arial Bold" font-size="18.00">public.role_has_permissions</text>
<text text-anchor="start" x="724.17" y="-310" font-family="Arial" font-size="14.00">    </text>
<text text-anchor="start" x="755.29" y="-310" font-family="Arial" font-size="14.00" fill="#666666">[BASE TABLE]</text>
<polygon fill="none" stroke="black" points="511.7,-265.8 511.7,-296.6 855.66,-296.6 855.66,-265.8 511.7,-265.8"/>
<text text-anchor="start" x="518.7" y="-278" font-family="Arial" font-size="14.00">permission_id </text>
<text text-anchor="start" x="608.97" y="-278" font-family="Arial" font-size="14.00" fill="#666666">[bigint]</text>
<polygon fill="none" stroke="black" points="511.7,-235 511.7,-265.8 855.66,-265.8 855.66,-235 511.7,-235"/>
<text text-anchor="start" x="518.7" y="-247.2" font-family="Arial" font-size="14.00">role_id </text>
<text text-anchor="start" x="564.62" y="-247.2" font-family="Arial" font-size="14.00" fill="#666666">[bigint]</text>
<polygon fill="none" stroke="black" stroke-width="3" points="510.2,-233.5 510.2,-333.7 857.16,-333.7 857.16,-233.5 510.2,-233.5"/>
</g>
<!-- public.permissions -->
<g id="node2" class="node">
<title>public.permissions</title>
<polygon fill="#efefef" stroke="none" points="316.69,-74 316.69,-109.6 590.67,-109.6 590.67,-74 316.69,-74"/>
<polygon fill="none" stroke="black" points="316.69,-74 316.69,-109.6 590.67,-109.6 590.67,-74 316.69,-74"/>
<text text-anchor="start" x="323.69" y="-87.4" font-family="Arial Bold" font-size="18.00">public.permissions</text>
<text text-anchor="start" x="459.18" y="-87.4" font-family="Arial" font-size="14.00">    </text>
<text text-anchor="start" x="490.3" y="-87.4" font-family="Arial" font-size="14.00" fill="#666666">[BASE TABLE]</text>
<polygon fill="none" stroke="black" points="316.69,-43.2 316.69,-74 590.67,-74 590.67,-43.2 316.69,-43.2"/>
<text text-anchor="start" x="323.69" y="-55.4" font-family="Arial" font-size="14.00">id </text>
<text text-anchor="start" x="338.48" y="-55.4" font-family="Arial" font-size="14.00" fill="#666666">[bigint]</text>
</g>
<!-- public.role_has_permissions&#45;&gt;public.permissions -->
<g id="edge1" class="edge">
<title>public.role_has_permissions:permission_id&#45;&gt;public.permissions:id</title>
<path fill="none" stroke="black" d="M500.71,-279.74C473.35,-270.54 491.4,-219.99 511.7,-188.8 532.74,-156.47 569.64,-185.13 590.67,-152.8 613.51,-117.71 633.54,-58.6 591.67,-58.6"/>
<polygon fill="black" stroke="black" points="500.48,-279.7 509.72,-285.6 505.76,-280.48 510.04,-281.1 510.04,-281.1 510.04,-281.1 505.76,-280.48 511.02,-276.7 500.48,-279.7"/>
</g>
<!-- public.roles -->
<g id="node4" class="node">
<title>public.roles</title>
<polygon fill="#efefef" stroke="none" points="1199.2,-74 1199.2,-109.6 1422.17,-109.6 1422.17,-74 1199.2,-74"/>
<polygon fill="none" stroke="black" points="1199.2,-74 1199.2,-109.6 1422.17,-109.6 1422.17,-74 1199.2,-74"/>
<text text-anchor="start" x="1206.2" y="-87.4" font-family="Arial Bold" font-size="18.00">public.roles</text>
<text text-anchor="start" x="1290.68" y="-87.4" font-family="Arial" font-size="14.00">    </text>
<text text-anchor="start" x="1321.8" y="-87.4" font-family="Arial" font-size="14.00" fill="#666666">[BASE TABLE]</text>
<polygon fill="none" stroke="black" points="1199.2,-43.2 1199.2,-74 1422.17,-74 1422.17,-43.2 1199.2,-43.2"/>
<text text-anchor="start" x="1206.2" y="-55.4" font-family="Arial" font-size="14.00">id </text>
<text text-anchor="start" x="1220.98" y="-55.4" font-family="Arial" font-size="14.00" fill="#666666">[bigint]</text>
</g>
<!-- public.role_has_permissions&#45;&gt;public.roles -->
<g id="edge3" class="edge">
<title>public.role_has_permissions:role_id&#45;&gt;public.roles:id</title>
<path fill="none" stroke="black" d="M867,-249.04C891.02,-241.89 884.63,-208.12 910.68,-188.8 1023.36,-105.25 1057.92,-58.6 1198.2,-58.6"/>
<polygon fill="black" stroke="black" points="866.91,-249.06 856.41,-245.89 861.62,-249.75 857.33,-250.31 857.33,-250.31 857.33,-250.31 861.62,-249.75 857.58,-254.82 866.91,-249.06"/>
</g>
<!-- public.model_has_permissions -->
<g id="node3" class="node">
<title>public.model_has_permissions</title>
<polygon fill="#efefef" stroke="none" points="43.2,-281.2 43.2,-316.8 404.17,-316.8 404.17,-281.2 43.2,-281.2"/>
<polygon fill="none" stroke="black" points="43.2,-281.2 43.2,-316.8 404.17,-316.8 404.17,-281.2 43.2,-281.2"/>
<text text-anchor="start" x="50.2" y="-294.6" font-family="Arial Bold" font-size="18.00">public.model_has_permissions</text>
<text text-anchor="start" x="272.68" y="-294.6" font-family="Arial" font-size="14.00">    </text>
<text text-anchor="start" x="303.79" y="-294.6" font-family="Arial" font-size="14.00" fill="#666666">[BASE TABLE]</text>
<polygon fill="none" stroke="black" points="43.2,-250.4 43.2,-281.2 404.17,-281.2 404.17,-250.4 43.2,-250.4"/>
<text text-anchor="start" x="50.2" y="-262.6" font-family="Arial" font-size="14.00">permission_id </text>
<text text-anchor="start" x="140.46" y="-262.6" font-family="Arial" font-size="14.00" fill="#666666">[bigint]</text>
</g>
<!-- public.model_has_permissions&#45;&gt;public.permissions -->
<g id="edge2" class="edge">
<title>public.model_has_permissions:permission_id&#45;&gt;public.permissions:id</title>
<path fill="none" stroke="black" d="M414.92,-263.12C426.59,-254.36 414.91,-226.14 404.17,-207.2 381.59,-167.37 339.14,-192.7 316.69,-152.8 296.16,-116.31 273.82,-58.6 315.69,-58.6"/>
<polygon fill="black" stroke="black" points="415.13,-263.06 404.3,-261.37 409.99,-264.47 405.81,-265.62 405.81,-265.62 405.81,-265.62 409.99,-264.47 406.68,-270.05 415.13,-263.06"/>
</g>
<!-- public.model_has_roles -->
<g id="node5" class="node">
<title>public.model_has_roles</title>
<polygon fill="#efefef" stroke="none" points="962.71,-281.2 962.71,-316.8 1272.66,-316.8 1272.66,-281.2 962.71,-281.2"/>
<polygon fill="none" stroke="black" points="962.71,-281.2 962.71,-316.8 1272.66,-316.8 1272.66,-281.2 962.71,-281.2"/>
<text text-anchor="start" x="969.71" y="-294.6" font-family="Arial Bold" font-size="18.00">public.model_has_roles</text>
<text text-anchor="start" x="1141.17" y="-294.6" font-family="Arial" font-size="14.00">    </text>
<text text-anchor="start" x="1172.29" y="-294.6" font-family="Arial" font-size="14.00" fill="#666666">[BASE TABLE]</text>
<polygon fill="none" stroke="black" points="962.71,-250.4 962.71,-281.2 1272.66,-281.2 1272.66,-250.4 962.71,-250.4"/>
<text text-anchor="start" x="969.71" y="-262.6" font-family="Arial" font-size="14.00">role_id </text>
<text text-anchor="start" x="1015.62" y="-262.6" font-family="Arial" font-size="14.00" fill="#666666">[bigint]</text>
</g>
<!-- public.model_has_roles&#45;&gt;public.roles -->
<g id="edge4" class="edge">
<title>public.model_has_roles:role_id&#45;&gt;public.roles:id</title>
<path fill="none" stroke="black" d="M1283.67,-262.9C1294.6,-253.98 1282.53,-226.38 1272.66,-207.2 1254.07,-171.07 1217.67,-188.99 1199.2,-152.8 1180.16,-115.51 1156.33,-58.6 1198.2,-58.6"/>
<polygon fill="black" stroke="black" points="1283.59,-262.92 1272.73,-261.38 1278.46,-264.41 1274.3,-265.61 1274.3,-265.61 1274.3,-265.61 1278.46,-264.41 1275.23,-270.03 1283.59,-262.92"/>
</g>
<!-- public.role_role -->
<g id="node6" class="node">
<title>public.role_role</title>
<polygon fill="#efefef" stroke="none" points="1377.21,-296.6 1377.21,-332.2 1630.16,-332.2 1630.16,-296.6 1377.21,-296.6"/>
<polygon fill="none" stroke="black" points="1377.21,-296.6 1377.21,-332.2 1630.16,-332.2 1630.16,-296.6 1377.21,-296.6"/>
<text text-anchor="start" x="1384.21" y="-310" font-family="Arial Bold" font-size="18.00">public.role_role</text>
<text text-anchor="start" x="1498.67" y="-310" font-family="Arial" font-size="14.00">    </text>
<text text-anchor="start" x="1529.79" y="-310" font-family="Arial" font-size="14.00" fill="#666666">[BASE TABLE]</text>
<polygon fill="none" stroke="black" points="1377.21,-265.8 1377.21,-296.6 1630.16,-296.6 1630.16,-265.8 1377.21,-265.8"/>
<text text-anchor="start" x="1384.21" y="-278" font-family="Arial" font-size="14.00">role_id </text>
<text text-anchor="start" x="1430.13" y="-278" font-family="Arial" font-size="14.00" fill="#666666">[bigint]</text>
<polygon fill="none" stroke="black" points="1377.21,-235 1377.21,-265.8 1630.16,-265.8 1630.16,-235 1377.21,-235"/>
<text text-anchor="start" x="1384.21" y="-247.2" font-family="Arial" font-size="14.00">role_to_assign_id </text>
<text text-anchor="start" x="1497.84" y="-247.2" font-family="Arial" font-size="14.00" fill="#666666">[bigint]</text>
</g>
<!-- public.role_role&#45;&gt;public.roles -->
<g id="edge5" class="edge">
<title>public.role_role:role_id&#45;&gt;public.roles:id</title>
<path fill="none" stroke="black" d="M1366,-279.62C1341.28,-270.54 1362.21,-224.19 1377.21,-191.8 1388.33,-167.8 1411.06,-176.81 1422.17,-152.8 1439.75,-114.8 1465.04,-58.6 1423.17,-58.6"/>
<polygon fill="black" stroke="black" points="1366,-279.62 1375.19,-285.6 1371.27,-280.44 1375.55,-281.1 1375.55,-281.1 1375.55,-281.1 1371.27,-280.44 1376.57,-276.7 1366,-279.62"/>
</g>
<!-- public.role_role&#45;&gt;public.roles -->
<g id="edge6" class="edge">
<title>public.role_role:role_to_assign_id&#45;&gt;public.roles:id</title>
<path fill="none" stroke="black" d="M1366.27,-247.53C1355.52,-238.71 1368.09,-211.35 1377.21,-191.8 1388.4,-167.83 1411.06,-176.81 1422.17,-152.8 1439.75,-114.8 1465.04,-58.6 1423.17,-58.6"/>
<polygon fill="black" stroke="black" points="1366.28,-247.54 1374.64,-254.63 1371.4,-249.01 1375.57,-250.21 1375.57,-250.21 1375.57,-250.21 1371.4,-249.01 1377.13,-245.98 1366.28,-247.54"/>
</g>
</g>
</svg>
