<?xml version="1.0" encoding="UTF-8" standalone="no"?>
<!DOCTYPE svg PUBLIC "-//W3C//DTD SVG 1.1//EN"
 "http://www.w3.org/Graphics/SVG/1.1/DTD/svg11.dtd">
<!-- Generated by graphviz version 12.1.2 (20240928.0832)
 -->
<!-- Title: public.branch_contract_type Pages: 1 -->
<svg width="2687pt" height="1011pt"
 viewBox="0.00 0.00 2687.36 1011.40" xmlns="http://www.w3.org/2000/svg" xmlns:xlink="http://www.w3.org/1999/xlink">
<g id="graph0" class="graph" transform="scale(1 1) rotate(0) translate(4 1007.4)">
<title>public.branch_contract_type</title>
<polygon fill="white" stroke="none" points="-4,4 -4,-1007.4 2683.36,-1007.4 2683.36,4 -4,4"/>
<!-- public.branch_contract_type -->
<g id="node1" class="node">
<title>public.branch_contract_type</title>
<polygon fill="#efefef" stroke="none" points="1931.73,-724.4 1931.73,-760 2275.64,-760 2275.64,-724.4 1931.73,-724.4"/>
<polygon fill="none" stroke="black" points="1931.73,-724.4 1931.73,-760 2275.64,-760 2275.64,-724.4 1931.73,-724.4"/>
<text text-anchor="start" x="1938.73" y="-737.8" font-family="Arial Bold" font-size="18.00">public.branch_contract_type</text>
<text text-anchor="start" x="2144.15" y="-737.8" font-family="Arial" font-size="14.00">    </text>
<text text-anchor="start" x="2175.27" y="-737.8" font-family="Arial" font-size="14.00" fill="#666666">[BASE TABLE]</text>
<polygon fill="none" stroke="black" points="1931.73,-693.6 1931.73,-724.4 2275.64,-724.4 2275.64,-693.6 1931.73,-693.6"/>
<text text-anchor="start" x="1938.73" y="-705.8" font-family="Arial" font-size="14.00">branch_id </text>
<text text-anchor="start" x="2004.11" y="-705.8" font-family="Arial" font-size="14.00" fill="#666666">[bigint]</text>
<polygon fill="none" stroke="black" points="1931.73,-662.8 1931.73,-693.6 2275.64,-693.6 2275.64,-662.8 1931.73,-662.8"/>
<text text-anchor="start" x="1938.73" y="-675" font-family="Arial" font-size="14.00">contract_type_id </text>
<text text-anchor="start" x="2045.35" y="-675" font-family="Arial" font-size="14.00" fill="#666666">[bigint]</text>
<polygon fill="none" stroke="black" stroke-width="3" points="1930.23,-661.3 1930.23,-761.5 2277.14,-761.5 2277.14,-661.3 1930.23,-661.3"/>
</g>
<!-- public.branches -->
<g id="node2" class="node">
<title>public.branches</title>
<polygon fill="#efefef" stroke="none" points="1009.71,-304.6 1009.71,-340.2 1261.66,-340.2 1261.66,-304.6 1009.71,-304.6"/>
<polygon fill="none" stroke="black" points="1009.71,-304.6 1009.71,-340.2 1261.66,-340.2 1261.66,-304.6 1009.71,-304.6"/>
<text text-anchor="start" x="1016.71" y="-318" font-family="Arial Bold" font-size="18.00">public.branches</text>
<text text-anchor="start" x="1130.17" y="-318" font-family="Arial" font-size="14.00">    </text>
<text text-anchor="start" x="1161.29" y="-318" font-family="Arial" font-size="14.00" fill="#666666">[BASE TABLE]</text>
<polygon fill="none" stroke="black" points="1009.71,-273.8 1009.71,-304.6 1261.66,-304.6 1261.66,-273.8 1009.71,-273.8"/>
<text text-anchor="start" x="1016.71" y="-286" font-family="Arial" font-size="14.00">id </text>
<text text-anchor="start" x="1031.5" y="-286" font-family="Arial" font-size="14.00" fill="#666666">[bigint]</text>
<polygon fill="none" stroke="black" points="1009.71,-243 1009.71,-273.8 1261.66,-273.8 1261.66,-243 1009.71,-243"/>
<text text-anchor="start" x="1016.71" y="-255.2" font-family="Arial" font-size="14.00">organization_id </text>
<text text-anchor="start" x="1115.56" y="-255.2" font-family="Arial" font-size="14.00" fill="#666666">[bigint]</text>
</g>
<!-- public.branch_contract_type&#45;&gt;public.branches -->
<g id="edge1" class="edge">
<title>public.branch_contract_type:branch_id&#45;&gt;public.branches:id</title>
<path fill="none" stroke="black" d="M1920.32,-708.54C1809.13,-697.99 1965.54,-510.46 1876.69,-419.4 1779.27,-319.57 1402.14,-289.2 1262.66,-289.2"/>
<polygon fill="black" stroke="black" points="1920.41,-708.54 1930.2,-713.48 1925.74,-708.78 1930.06,-708.97 1930.06,-708.97 1930.06,-708.97 1925.74,-708.78 1930.6,-704.49 1920.41,-708.54"/>
</g>
<!-- public.contract_types -->
<g id="node9" class="node">
<title>public.contract_types</title>
<polygon fill="#efefef" stroke="none" points="2160.22,-289.2 2160.22,-324.8 2453.16,-324.8 2453.16,-289.2 2160.22,-289.2"/>
<polygon fill="none" stroke="black" points="2160.22,-289.2 2160.22,-324.8 2453.16,-324.8 2453.16,-289.2 2160.22,-289.2"/>
<text text-anchor="start" x="2167.22" y="-302.6" font-family="Arial Bold" font-size="18.00">public.contract_types</text>
<text text-anchor="start" x="2321.67" y="-302.6" font-family="Arial" font-size="14.00">    </text>
<text text-anchor="start" x="2352.78" y="-302.6" font-family="Arial" font-size="14.00" fill="#666666">[BASE TABLE]</text>
<polygon fill="none" stroke="black" points="2160.22,-258.4 2160.22,-289.2 2453.16,-289.2 2453.16,-258.4 2160.22,-258.4"/>
<text text-anchor="start" x="2167.22" y="-270.6" font-family="Arial" font-size="14.00">id </text>
<text text-anchor="start" x="2182" y="-270.6" font-family="Arial" font-size="14.00" fill="#666666">[bigint]</text>
</g>
<!-- public.branch_contract_type&#45;&gt;public.contract_types -->
<g id="edge8" class="edge">
<title>public.branch_contract_type:contract_type_id&#45;&gt;public.contract_types:id</title>
<path fill="none" stroke="black" d="M2286.84,-677.74C2444.85,-662.56 1975.72,-273.8 2159.22,-273.8"/>
<polygon fill="black" stroke="black" points="2286.96,-677.74 2276.77,-673.69 2281.64,-677.98 2277.31,-678.17 2277.31,-678.17 2277.31,-678.17 2281.64,-677.98 2277.18,-682.68 2286.96,-677.74"/>
</g>
<!-- public.organizations -->
<g id="node8" class="node">
<title>public.organizations</title>
<polygon fill="#efefef" stroke="none" points="993.21,-85 993.21,-120.6 1278.16,-120.6 1278.16,-85 993.21,-85"/>
<polygon fill="none" stroke="black" points="993.21,-85 993.21,-120.6 1278.16,-120.6 1278.16,-85 993.21,-85"/>
<text text-anchor="start" x="1000.21" y="-98.4" font-family="Arial Bold" font-size="18.00">public.organizations</text>
<text text-anchor="start" x="1146.67" y="-98.4" font-family="Arial" font-size="14.00">    </text>
<text text-anchor="start" x="1177.79" y="-98.4" font-family="Arial" font-size="14.00" fill="#666666">[BASE TABLE]</text>
<polygon fill="none" stroke="black" points="993.21,-54.2 993.21,-85 1278.16,-85 1278.16,-54.2 993.21,-54.2"/>
<text text-anchor="start" x="1000.21" y="-66.4" font-family="Arial" font-size="14.00">id </text>
<text text-anchor="start" x="1015" y="-66.4" font-family="Arial" font-size="14.00" fill="#666666">[bigint]</text>
</g>
<!-- public.branches&#45;&gt;public.organizations -->
<g id="edge7" class="edge">
<title>public.branches:organization_id&#45;&gt;public.organizations:id</title>
<path fill="none" stroke="black" d="M1136.36,-231.84C1146.71,-159.24 1273.87,-235.34 1321.36,-163.8 1348.3,-123.22 1355.71,-88.74 1321.36,-54.2 1263.17,4.31 1135.69,29.32 1135.69,-53.2"/>
<polygon fill="black" stroke="black" points="1136.37,-231.69 1131.22,-241.37 1136.02,-237.01 1135.73,-241.33 1135.73,-241.33 1135.73,-241.33 1136.02,-237.01 1140.2,-241.96 1136.37,-231.69"/>
</g>
<!-- public.users -->
<g id="node3" class="node">
<title>public.users</title>
<polygon fill="#efefef" stroke="none" points="43.2,-924.6 43.2,-960.2 268.17,-960.2 268.17,-924.6 43.2,-924.6"/>
<polygon fill="none" stroke="black" points="43.2,-924.6 43.2,-960.2 268.17,-960.2 268.17,-924.6 43.2,-924.6"/>
<text text-anchor="start" x="50.2" y="-938" font-family="Arial Bold" font-size="18.00">public.users</text>
<text text-anchor="start" x="136.68" y="-938" font-family="Arial" font-size="14.00">    </text>
<text text-anchor="start" x="167.8" y="-938" font-family="Arial" font-size="14.00" fill="#666666">[BASE TABLE]</text>
<polygon fill="none" stroke="black" points="43.2,-893.8 43.2,-924.6 268.17,-924.6 268.17,-893.8 43.2,-893.8"/>
<text text-anchor="start" x="50.2" y="-906" font-family="Arial" font-size="14.00">id </text>
<text text-anchor="start" x="64.99" y="-906" font-family="Arial" font-size="14.00" fill="#666666">[bigint]</text>
<polygon fill="none" stroke="black" points="43.2,-863 43.2,-893.8 268.17,-893.8 268.17,-863 43.2,-863"/>
<text text-anchor="start" x="50.2" y="-875.2" font-family="Arial" font-size="14.00">email </text>
<text text-anchor="start" x="87.54" y="-875.2" font-family="Arial" font-size="14.00" fill="#666666">[varchar(255)]</text>
<polygon fill="none" stroke="black" points="43.2,-832.2 43.2,-863 268.17,-863 268.17,-832.2 43.2,-832.2"/>
<text text-anchor="start" x="50.2" y="-844.4" font-family="Arial" font-size="14.00">branch_id </text>
<text text-anchor="start" x="115.58" y="-844.4" font-family="Arial" font-size="14.00" fill="#666666">[bigint]</text>
<polygon fill="none" stroke="black" points="43.2,-801.4 43.2,-832.2 268.17,-832.2 268.17,-801.4 43.2,-801.4"/>
<text text-anchor="start" x="50.2" y="-813.6" font-family="Arial" font-size="14.00">sex_id </text>
<text text-anchor="start" x="94.56" y="-813.6" font-family="Arial" font-size="14.00" fill="#666666">[bigint]</text>
<polygon fill="none" stroke="black" points="43.2,-770.6 43.2,-801.4 268.17,-801.4 268.17,-770.6 43.2,-770.6"/>
<text text-anchor="start" x="50.2" y="-782.8" font-family="Arial" font-size="14.00">user_status_id </text>
<text text-anchor="start" x="145.14" y="-782.8" font-family="Arial" font-size="14.00" fill="#666666">[bigint]</text>
<polygon fill="none" stroke="black" points="43.2,-739.8 43.2,-770.6 268.17,-770.6 268.17,-739.8 43.2,-739.8"/>
<text text-anchor="start" x="50.2" y="-752" font-family="Arial" font-size="14.00">nationality_id </text>
<text text-anchor="start" x="135.81" y="-752" font-family="Arial" font-size="14.00" fill="#666666">[bigint]</text>
<polygon fill="none" stroke="black" points="43.2,-709 43.2,-739.8 268.17,-739.8 268.17,-709 43.2,-709"/>
<text text-anchor="start" x="50.2" y="-721.2" font-family="Arial" font-size="14.00">city_id </text>
<text text-anchor="start" x="93.77" y="-721.2" font-family="Arial" font-size="14.00" fill="#666666">[bigint]</text>
<polygon fill="none" stroke="black" points="43.2,-678.2 43.2,-709 268.17,-709 268.17,-678.2 43.2,-678.2"/>
<text text-anchor="start" x="50.2" y="-690.4" font-family="Arial" font-size="14.00">image_id </text>
<text text-anchor="start" x="110.9" y="-690.4" font-family="Arial" font-size="14.00" fill="#666666">[bigint]</text>
<polygon fill="none" stroke="black" points="43.2,-647.4 43.2,-678.2 268.17,-678.2 268.17,-647.4 43.2,-647.4"/>
<text text-anchor="start" x="50.2" y="-659.6" font-family="Arial" font-size="14.00">signature_image_id </text>
<text text-anchor="start" x="176.28" y="-659.6" font-family="Arial" font-size="14.00" fill="#666666">[bigint]</text>
<polygon fill="none" stroke="black" points="43.2,-616.6 43.2,-647.4 268.17,-647.4 268.17,-616.6 43.2,-616.6"/>
<text text-anchor="start" x="50.2" y="-628.8" font-family="Arial" font-size="14.00">position_id </text>
<text text-anchor="start" x="121.03" y="-628.8" font-family="Arial" font-size="14.00" fill="#666666">[bigint]</text>
<polygon fill="none" stroke="black" points="43.2,-585.8 43.2,-616.6 268.17,-616.6 268.17,-585.8 43.2,-585.8"/>
<text text-anchor="start" x="50.2" y="-598" font-family="Arial" font-size="14.00">mobile_number_id </text>
<text text-anchor="start" x="169.27" y="-598" font-family="Arial" font-size="14.00" fill="#666666">[bigint]</text>
<polygon fill="none" stroke="black" points="43.2,-555 43.2,-585.8 268.17,-585.8 268.17,-555 43.2,-555"/>
<text text-anchor="start" x="50.2" y="-567.2" font-family="Arial" font-size="14.00">home_number_id </text>
<text text-anchor="start" x="163.05" y="-567.2" font-family="Arial" font-size="14.00" fill="#666666">[bigint]</text>
<polygon fill="none" stroke="black" points="43.2,-524.2 43.2,-555 268.17,-555 268.17,-524.2 43.2,-524.2"/>
<text text-anchor="start" x="50.2" y="-536.4" font-family="Arial" font-size="14.00">bank_id </text>
<text text-anchor="start" x="103.13" y="-536.4" font-family="Arial" font-size="14.00" fill="#666666">[bigint]</text>
<polygon fill="none" stroke="black" points="43.2,-493.4 43.2,-524.2 268.17,-524.2 268.17,-493.4 43.2,-493.4"/>
<text text-anchor="start" x="50.2" y="-505.6" font-family="Arial" font-size="14.00">created_by_user_id </text>
<text text-anchor="start" x="177.06" y="-505.6" font-family="Arial" font-size="14.00" fill="#666666">[bigint]</text>
<polygon fill="none" stroke="black" points="43.2,-462.6 43.2,-493.4 268.17,-493.4 268.17,-462.6 43.2,-462.6"/>
<text text-anchor="start" x="50.2" y="-474.8" font-family="Arial" font-size="14.00">profile_status_id </text>
<text text-anchor="start" x="156.04" y="-474.8" font-family="Arial" font-size="14.00" fill="#666666">[bigint]</text>
</g>
<!-- public.users&#45;&gt;public.branches -->
<g id="edge2" class="edge">
<title>public.users:branch_id&#45;&gt;public.branches:id</title>
<path fill="none" stroke="black" d="M279.49,-846C356.71,-820.06 257.79,-486.68 320.69,-419.4 426.95,-305.73 853.1,-289.2 1008.71,-289.2"/>
<polygon fill="black" stroke="black" points="279.39,-846.01 268.81,-843.1 274.11,-846.83 269.83,-847.5 269.83,-847.5 269.83,-847.5 274.11,-846.83 270.19,-852 279.39,-846.01"/>
</g>
<!-- public.branch_position -->
<g id="node4" class="node">
<title>public.branch_position</title>
<polygon fill="#efefef" stroke="none" points="372.71,-724.4 372.71,-760 676.67,-760 676.67,-724.4 372.71,-724.4"/>
<polygon fill="none" stroke="black" points="372.71,-724.4 372.71,-760 676.67,-760 676.67,-724.4 372.71,-724.4"/>
<text text-anchor="start" x="379.71" y="-737.8" font-family="Arial Bold" font-size="18.00">public.branch_position</text>
<text text-anchor="start" x="545.18" y="-737.8" font-family="Arial" font-size="14.00">    </text>
<text text-anchor="start" x="576.3" y="-737.8" font-family="Arial" font-size="14.00" fill="#666666">[BASE TABLE]</text>
<polygon fill="none" stroke="black" points="372.71,-693.6 372.71,-724.4 676.67,-724.4 676.67,-693.6 372.71,-693.6"/>
<text text-anchor="start" x="379.71" y="-705.8" font-family="Arial" font-size="14.00">branch_id </text>
<text text-anchor="start" x="445.09" y="-705.8" font-family="Arial" font-size="14.00" fill="#666666">[bigint]</text>
<polygon fill="none" stroke="black" points="372.71,-662.8 372.71,-693.6 676.67,-693.6 676.67,-662.8 372.71,-662.8"/>
<text text-anchor="start" x="379.71" y="-675" font-family="Arial" font-size="14.00">position_id </text>
<text text-anchor="start" x="450.53" y="-675" font-family="Arial" font-size="14.00" fill="#666666">[bigint]</text>
</g>
<!-- public.branch_position&#45;&gt;public.branches -->
<g id="edge3" class="edge">
<title>public.branch_position:branch_id&#45;&gt;public.branches:id</title>
<path fill="none" stroke="black" d="M687.66,-706.79C737.18,-682.66 691.14,-468.29 728.69,-419.4 812.29,-310.55 871.46,-289.2 1008.71,-289.2"/>
<polygon fill="black" stroke="black" points="687.76,-706.77 677.02,-704.53 682.55,-707.92 678.32,-708.86 678.32,-708.86 678.32,-708.86 682.55,-707.92 678.97,-713.32 687.76,-706.77"/>
</g>
<!-- public.branch_speciality -->
<g id="node5" class="node">
<title>public.branch_speciality</title>
<polygon fill="#efefef" stroke="none" points="781.22,-724.4 781.22,-760 1096.15,-760 1096.15,-724.4 781.22,-724.4"/>
<polygon fill="none" stroke="black" points="781.22,-724.4 781.22,-760 1096.15,-760 1096.15,-724.4 781.22,-724.4"/>
<text text-anchor="start" x="788.22" y="-737.8" font-family="Arial Bold" font-size="18.00">public.branch_speciality</text>
<text text-anchor="start" x="964.66" y="-737.8" font-family="Arial" font-size="14.00">    </text>
<text text-anchor="start" x="995.78" y="-737.8" font-family="Arial" font-size="14.00" fill="#666666">[BASE TABLE]</text>
<polygon fill="none" stroke="black" points="781.22,-693.6 781.22,-724.4 1096.15,-724.4 1096.15,-693.6 781.22,-693.6"/>
<text text-anchor="start" x="788.22" y="-705.8" font-family="Arial" font-size="14.00">branch_id </text>
<text text-anchor="start" x="853.6" y="-705.8" font-family="Arial" font-size="14.00" fill="#666666">[bigint]</text>
<polygon fill="none" stroke="black" points="781.22,-662.8 781.22,-693.6 1096.15,-693.6 1096.15,-662.8 781.22,-662.8"/>
<text text-anchor="start" x="788.22" y="-675" font-family="Arial" font-size="14.00">speciality_id </text>
<text text-anchor="start" x="868.37" y="-675" font-family="Arial" font-size="14.00" fill="#666666">[bigint]</text>
</g>
<!-- public.branch_speciality&#45;&gt;public.branches -->
<g id="edge4" class="edge">
<title>public.branch_speciality:branch_id&#45;&gt;public.branches:id</title>
<path fill="none" stroke="black" d="M1107.58,-708.53C1269.73,-692.76 821.76,-289.2 1008.71,-289.2"/>
<polygon fill="black" stroke="black" points="1107.48,-708.53 1097.28,-704.49 1102.15,-708.77 1097.82,-708.97 1097.82,-708.97 1097.82,-708.97 1102.15,-708.77 1097.69,-713.48 1107.48,-708.53"/>
</g>
<!-- public.companies -->
<g id="node6" class="node">
<title>public.companies</title>
<polygon fill="#efefef" stroke="none" points="1200.21,-816.8 1200.21,-852.4 1465.16,-852.4 1465.16,-816.8 1200.21,-816.8"/>
<polygon fill="none" stroke="black" points="1200.21,-816.8 1200.21,-852.4 1465.16,-852.4 1465.16,-816.8 1200.21,-816.8"/>
<text text-anchor="start" x="1207.21" y="-830.2" font-family="Arial Bold" font-size="18.00">public.companies</text>
<text text-anchor="start" x="1333.68" y="-830.2" font-family="Arial" font-size="14.00">    </text>
<text text-anchor="start" x="1364.79" y="-830.2" font-family="Arial" font-size="14.00" fill="#666666">[BASE TABLE]</text>
<polygon fill="none" stroke="black" points="1200.21,-786 1200.21,-816.8 1465.16,-816.8 1465.16,-786 1200.21,-786"/>
<text text-anchor="start" x="1207.21" y="-798.2" font-family="Arial" font-size="14.00">id </text>
<text text-anchor="start" x="1222" y="-798.2" font-family="Arial" font-size="14.00" fill="#666666">[bigint]</text>
<polygon fill="none" stroke="black" points="1200.21,-755.2 1200.21,-786 1465.16,-786 1465.16,-755.2 1200.21,-755.2"/>
<text text-anchor="start" x="1207.21" y="-767.4" font-family="Arial" font-size="14.00">branch_id </text>
<text text-anchor="start" x="1272.59" y="-767.4" font-family="Arial" font-size="14.00" fill="#666666">[integer]</text>
<polygon fill="none" stroke="black" points="1200.21,-724.4 1200.21,-755.2 1465.16,-755.2 1465.16,-724.4 1200.21,-724.4"/>
<text text-anchor="start" x="1207.21" y="-736.6" font-family="Arial" font-size="14.00">logo_id </text>
<text text-anchor="start" x="1256.25" y="-736.6" font-family="Arial" font-size="14.00" fill="#666666">[bigint]</text>
<polygon fill="none" stroke="black" points="1200.21,-693.6 1200.21,-724.4 1465.16,-724.4 1465.16,-693.6 1200.21,-693.6"/>
<text text-anchor="start" x="1207.21" y="-705.8" font-family="Arial" font-size="14.00">city_id </text>
<text text-anchor="start" x="1250.78" y="-705.8" font-family="Arial" font-size="14.00" fill="#666666">[bigint]</text>
<polygon fill="none" stroke="black" points="1200.21,-662.8 1200.21,-693.6 1465.16,-693.6 1465.16,-662.8 1200.21,-662.8"/>
<text text-anchor="start" x="1207.21" y="-675" font-family="Arial" font-size="14.00">phone_number_id </text>
<text text-anchor="start" x="1323.97" y="-675" font-family="Arial" font-size="14.00" fill="#666666">[bigint]</text>
<polygon fill="none" stroke="black" points="1200.21,-632 1200.21,-662.8 1465.16,-662.8 1465.16,-632 1200.21,-632"/>
<text text-anchor="start" x="1207.21" y="-644.2" font-family="Arial" font-size="14.00">created_by_user_id </text>
<text text-anchor="start" x="1334.07" y="-644.2" font-family="Arial" font-size="14.00" fill="#666666">[integer]</text>
<polygon fill="none" stroke="black" points="1200.21,-601.2 1200.21,-632 1465.16,-632 1465.16,-601.2 1200.21,-601.2"/>
<text text-anchor="start" x="1207.21" y="-613.4" font-family="Arial" font-size="14.00">owned_by_user_id </text>
<text text-anchor="start" x="1328.63" y="-613.4" font-family="Arial" font-size="14.00" fill="#666666">[integer]</text>
<polygon fill="none" stroke="black" points="1200.21,-570.4 1200.21,-601.2 1465.16,-601.2 1465.16,-570.4 1200.21,-570.4"/>
<text text-anchor="start" x="1207.21" y="-582.6" font-family="Arial" font-size="14.00">supervisor_user_id </text>
<text text-anchor="start" x="1329.38" y="-582.6" font-family="Arial" font-size="14.00" fill="#666666">[bigint]</text>
</g>
<!-- public.companies&#45;&gt;public.branches -->
<g id="edge5" class="edge">
<title>public.companies:branch_id&#45;&gt;public.branches:id</title>
<path fill="none" stroke="black" d="M1189.21,-767.89C1151.16,-744.5 1190.02,-576.44 1200.21,-527.2 1214.29,-459.14 1247.36,-451.42 1261.66,-383.4 1270.28,-342.43 1304.53,-289.2 1262.66,-289.2"/>
<polygon fill="black" stroke="black" points="1189.23,-767.9 1197.71,-774.86 1194.38,-769.29 1198.56,-770.43 1198.56,-770.43 1198.56,-770.43 1194.38,-769.29 1200.06,-766.17 1189.23,-767.9"/>
</g>
<!-- public.checkups -->
<g id="node7" class="node">
<title>public.checkups</title>
<polygon fill="#efefef" stroke="none" points="1569.21,-786 1569.21,-821.6 1824.16,-821.6 1824.16,-786 1569.21,-786"/>
<polygon fill="none" stroke="black" points="1569.21,-786 1569.21,-821.6 1824.16,-821.6 1824.16,-786 1569.21,-786"/>
<text text-anchor="start" x="1576.21" y="-799.4" font-family="Arial Bold" font-size="18.00">public.checkups</text>
<text text-anchor="start" x="1692.67" y="-799.4" font-family="Arial" font-size="14.00">    </text>
<text text-anchor="start" x="1723.79" y="-799.4" font-family="Arial" font-size="14.00" fill="#666666">[BASE TABLE]</text>
<polygon fill="none" stroke="black" points="1569.21,-755.2 1569.21,-786 1824.16,-786 1824.16,-755.2 1569.21,-755.2"/>
<text text-anchor="start" x="1576.21" y="-767.4" font-family="Arial" font-size="14.00">id </text>
<text text-anchor="start" x="1591" y="-767.4" font-family="Arial" font-size="14.00" fill="#666666">[bigint]</text>
<polygon fill="none" stroke="black" points="1569.21,-724.4 1569.21,-755.2 1824.16,-755.2 1824.16,-724.4 1569.21,-724.4"/>
<text text-anchor="start" x="1576.21" y="-736.6" font-family="Arial" font-size="14.00">patient_id </text>
<text text-anchor="start" x="1640.82" y="-736.6" font-family="Arial" font-size="14.00" fill="#666666">[bigint]</text>
<polygon fill="none" stroke="black" points="1569.21,-693.6 1569.21,-724.4 1824.16,-724.4 1824.16,-693.6 1569.21,-693.6"/>
<text text-anchor="start" x="1576.21" y="-705.8" font-family="Arial" font-size="14.00">branch_id </text>
<text text-anchor="start" x="1641.59" y="-705.8" font-family="Arial" font-size="14.00" fill="#666666">[bigint]</text>
<polygon fill="none" stroke="black" points="1569.21,-662.8 1569.21,-693.6 1824.16,-693.6 1824.16,-662.8 1569.21,-662.8"/>
<text text-anchor="start" x="1576.21" y="-675" font-family="Arial" font-size="14.00">created_by_user_id </text>
<text text-anchor="start" x="1703.07" y="-675" font-family="Arial" font-size="14.00" fill="#666666">[bigint]</text>
<polygon fill="none" stroke="black" points="1569.21,-632 1569.21,-662.8 1824.16,-662.8 1824.16,-632 1569.21,-632"/>
<text text-anchor="start" x="1576.21" y="-644.2" font-family="Arial" font-size="14.00">company_lot_id </text>
<text text-anchor="start" x="1678.16" y="-644.2" font-family="Arial" font-size="14.00" fill="#666666">[bigint]</text>
<polygon fill="none" stroke="black" points="1569.21,-601.2 1569.21,-632 1824.16,-632 1824.16,-601.2 1569.21,-601.2"/>
<text text-anchor="start" x="1576.21" y="-613.4" font-family="Arial" font-size="14.00">company_id </text>
<text text-anchor="start" x="1655.59" y="-613.4" font-family="Arial" font-size="14.00" fill="#666666">[bigint]</text>
</g>
<!-- public.checkups&#45;&gt;public.branches -->
<g id="edge6" class="edge">
<title>public.checkups:branch_id&#45;&gt;public.branches:id</title>
<path fill="none" stroke="black" d="M1558.22,-706.8C1508.66,-682.74 1554.28,-468.99 1517.69,-419.4 1442.12,-317 1389.92,-289.2 1262.66,-289.2"/>
<polygon fill="black" stroke="black" points="1558.12,-706.77 1566.91,-713.32 1563.33,-707.92 1567.56,-708.86 1567.56,-708.86 1567.56,-708.86 1563.33,-707.92 1568.85,-704.53 1558.12,-706.77"/>
</g>
<!-- public.contracts -->
<g id="node10" class="node">
<title>public.contracts</title>
<polygon fill="#efefef" stroke="none" points="2383.21,-724.4 2383.21,-760 2636.16,-760 2636.16,-724.4 2383.21,-724.4"/>
<polygon fill="none" stroke="black" points="2383.21,-724.4 2383.21,-760 2636.16,-760 2636.16,-724.4 2383.21,-724.4"/>
<text text-anchor="start" x="2390.21" y="-737.8" font-family="Arial Bold" font-size="18.00">public.contracts</text>
<text text-anchor="start" x="2504.67" y="-737.8" font-family="Arial" font-size="14.00">    </text>
<text text-anchor="start" x="2535.79" y="-737.8" font-family="Arial" font-size="14.00" fill="#666666">[BASE TABLE]</text>
<polygon fill="none" stroke="black" points="2383.21,-693.6 2383.21,-724.4 2636.16,-724.4 2636.16,-693.6 2383.21,-693.6"/>
<text text-anchor="start" x="2390.21" y="-705.8" font-family="Arial" font-size="14.00">contract_type_id </text>
<text text-anchor="start" x="2496.83" y="-705.8" font-family="Arial" font-size="14.00" fill="#666666">[bigint]</text>
<polygon fill="none" stroke="black" points="2383.21,-662.8 2383.21,-693.6 2636.16,-693.6 2636.16,-662.8 2383.21,-662.8"/>
<text text-anchor="start" x="2390.21" y="-675" font-family="Arial" font-size="14.00">user_id </text>
<text text-anchor="start" x="2440.02" y="-675" font-family="Arial" font-size="14.00" fill="#666666">[bigint]</text>
</g>
<!-- public.contracts&#45;&gt;public.contract_types -->
<g id="edge9" class="edge">
<title>public.contracts:contract_type_id&#45;&gt;public.contract_types:id</title>
<path fill="none" stroke="black" d="M2371.97,-708.56C2203.16,-693 2646.57,-273.8 2454.16,-273.8"/>
<polygon fill="black" stroke="black" points="2371.89,-708.55 2381.68,-713.48 2377.22,-708.78 2381.54,-708.97 2381.54,-708.97 2381.54,-708.97 2377.22,-708.78 2382.07,-704.49 2371.89,-708.55"/>
</g>
</g>
</svg>
