<?xml version="1.0" encoding="UTF-8" standalone="no"?>
<!DOCTYPE svg PUBLIC "-//W3C//DTD SVG 1.1//EN"
 "http://www.w3.org/Graphics/SVG/1.1/DTD/svg11.dtd">
<!-- Generated by graphviz version 12.1.2 (20240928.0832)
 -->
<!-- Title: public.rewards Pages: 1 -->
<svg width="782pt" height="380pt"
 viewBox="0.00 0.00 782.34 380.40" xmlns="http://www.w3.org/2000/svg" xmlns:xlink="http://www.w3.org/1999/xlink">
<g id="graph0" class="graph" transform="scale(1 1) rotate(0) translate(4 376.4)">
<title>public.rewards</title>
<polygon fill="white" stroke="none" points="-4,4 -4,-376.4 778.34,-376.4 778.34,4 -4,4"/>
<!-- public.rewards -->
<g id="node1" class="node">
<title>public.rewards</title>
<polygon fill="#efefef" stroke="none" points="46.2,-278.2 46.2,-313.8 291.15,-313.8 291.15,-278.2 46.2,-278.2"/>
<polygon fill="none" stroke="black" points="46.2,-278.2 46.2,-313.8 291.15,-313.8 291.15,-278.2 46.2,-278.2"/>
<text text-anchor="start" x="53.2" y="-291.6" font-family="Arial Bold" font-size="18.00">public.rewards</text>
<text text-anchor="start" x="159.66" y="-291.6" font-family="Arial" font-size="14.00">    </text>
<text text-anchor="start" x="190.78" y="-291.6" font-family="Arial" font-size="14.00" fill="#666666">[BASE TABLE]</text>
<polygon fill="none" stroke="black" points="46.2,-247.4 46.2,-278.2 291.15,-278.2 291.15,-247.4 46.2,-247.4"/>
<text text-anchor="start" x="53.2" y="-259.6" font-family="Arial" font-size="14.00">campaign_id </text>
<text text-anchor="start" x="136.48" y="-259.6" font-family="Arial" font-size="14.00" fill="#666666">[bigint]</text>
<polygon fill="none" stroke="black" stroke-width="3" points="44.7,-245.9 44.7,-315.3 292.65,-315.3 292.65,-245.9 44.7,-245.9"/>
</g>
<!-- public.campaigns -->
<g id="node2" class="node">
<title>public.campaigns</title>
<polygon fill="#efefef" stroke="none" points="234.2,-74 234.2,-109.6 499.15,-109.6 499.15,-74 234.2,-74"/>
<polygon fill="none" stroke="black" points="234.2,-74 234.2,-109.6 499.15,-109.6 499.15,-74 234.2,-74"/>
<text text-anchor="start" x="241.2" y="-87.4" font-family="Arial Bold" font-size="18.00">public.campaigns</text>
<text text-anchor="start" x="367.66" y="-87.4" font-family="Arial" font-size="14.00">    </text>
<text text-anchor="start" x="398.78" y="-87.4" font-family="Arial" font-size="14.00" fill="#666666">[BASE TABLE]</text>
<polygon fill="none" stroke="black" points="234.2,-43.2 234.2,-74 499.15,-74 499.15,-43.2 234.2,-43.2"/>
<text text-anchor="start" x="241.2" y="-55.4" font-family="Arial" font-size="14.00">id </text>
<text text-anchor="start" x="255.98" y="-55.4" font-family="Arial" font-size="14.00" fill="#666666">[bigint]</text>
</g>
<!-- public.rewards&#45;&gt;public.campaigns -->
<g id="edge1" class="edge">
<title>public.rewards:campaign_id&#45;&gt;public.campaigns:id</title>
<path fill="none" stroke="black" d="M301.95,-260.29C314.44,-251.58 301.02,-222.09 291.15,-201.2 276.96,-171.16 248.3,-182.88 234.2,-152.8 216.42,-114.89 191.33,-58.6 233.2,-58.6"/>
<polygon fill="black" stroke="black" points="302.16,-260.23 291.36,-258.36 296.99,-261.56 292.8,-262.63 292.8,-262.63 292.8,-262.63 296.99,-261.56 293.59,-267.08 302.16,-260.23"/>
</g>
<!-- public.campaign_company -->
<g id="node3" class="node">
<title>public.campaign_company</title>
<polygon fill="#efefef" stroke="none" points="398.21,-293.6 398.21,-329.2 731.14,-329.2 731.14,-293.6 398.21,-293.6"/>
<polygon fill="none" stroke="black" points="398.21,-293.6 398.21,-329.2 731.14,-329.2 731.14,-293.6 398.21,-293.6"/>
<text text-anchor="start" x="405.21" y="-307" font-family="Arial Bold" font-size="18.00">public.campaign_company</text>
<text text-anchor="start" x="599.65" y="-307" font-family="Arial" font-size="14.00">    </text>
<text text-anchor="start" x="630.77" y="-307" font-family="Arial" font-size="14.00" fill="#666666">[BASE TABLE]</text>
<polygon fill="none" stroke="black" points="398.21,-262.8 398.21,-293.6 731.14,-293.6 731.14,-262.8 398.21,-262.8"/>
<text text-anchor="start" x="405.21" y="-275" font-family="Arial" font-size="14.00">campaign_id </text>
<text text-anchor="start" x="488.49" y="-275" font-family="Arial" font-size="14.00" fill="#666666">[bigint]</text>
<polygon fill="none" stroke="black" points="398.21,-232 398.21,-262.8 731.14,-262.8 731.14,-232 398.21,-232"/>
<text text-anchor="start" x="405.21" y="-244.2" font-family="Arial" font-size="14.00">company_id </text>
<text text-anchor="start" x="484.59" y="-244.2" font-family="Arial" font-size="14.00" fill="#666666">[bigint]</text>
</g>
<!-- public.campaign_company&#45;&gt;public.campaigns -->
<g id="edge2" class="edge">
<title>public.campaign_company:campaign_id&#45;&gt;public.campaigns:id</title>
<path fill="none" stroke="black" d="M387.16,-276.64C360.98,-267.29 377.39,-217.99 398.21,-188.8 425.87,-150.03 471.5,-191.58 499.15,-152.8 523.46,-118.71 542.02,-58.6 500.15,-58.6"/>
<polygon fill="black" stroke="black" points="387,-276.62 396.19,-282.6 392.27,-277.43 396.55,-278.1 396.55,-278.1 396.55,-278.1 392.27,-277.43 397.57,-273.7 387,-276.62"/>
</g>
</g>
</svg>
