<?xml version="1.0" encoding="UTF-8" standalone="no"?>
<!DOCTYPE svg PUBLIC "-//W3C//DTD SVG 1.1//EN"
 "http://www.w3.org/Graphics/SVG/1.1/DTD/svg11.dtd">
<!-- Generated by graphviz version 12.1.2 (20240928.0832)
 -->
<!-- Title: public.psc_branches Pages: 1 -->
<svg width="1418pt" height="1031pt"
 viewBox="0.00 0.00 1418.35 1031.20" xmlns="http://www.w3.org/2000/svg" xmlns:xlink="http://www.w3.org/1999/xlink">
<g id="graph0" class="graph" transform="scale(1 1) rotate(0) translate(4 1027.2)">
<title>public.psc_branches</title>
<polygon fill="white" stroke="none" points="-4,4 -4,-1027.2 1414.35,-1027.2 1414.35,4 -4,4"/>
<!-- public.psc_branches -->
<g id="node1" class="node">
<title>public.psc_branches</title>
<polygon fill="#efefef" stroke="none" points="46.2,-744.2 46.2,-779.8 331.14,-779.8 331.14,-744.2 46.2,-744.2"/>
<polygon fill="none" stroke="black" points="46.2,-744.2 46.2,-779.8 331.14,-779.8 331.14,-744.2 46.2,-744.2"/>
<text text-anchor="start" x="53.2" y="-757.6" font-family="Arial Bold" font-size="18.00">public.psc_branches</text>
<text text-anchor="start" x="199.65" y="-757.6" font-family="Arial" font-size="14.00">    </text>
<text text-anchor="start" x="230.77" y="-757.6" font-family="Arial" font-size="14.00" fill="#666666">[BASE TABLE]</text>
<polygon fill="none" stroke="black" points="46.2,-713.4 46.2,-744.2 331.14,-744.2 331.14,-713.4 46.2,-713.4"/>
<text text-anchor="start" x="53.2" y="-725.6" font-family="Arial" font-size="14.00">city_id </text>
<text text-anchor="start" x="96.77" y="-725.6" font-family="Arial" font-size="14.00" fill="#666666">[bigint]</text>
<polygon fill="none" stroke="black" points="46.2,-682.6 46.2,-713.4 331.14,-713.4 331.14,-682.6 46.2,-682.6"/>
<text text-anchor="start" x="53.2" y="-694.8" font-family="Arial" font-size="14.00">city_vi_id </text>
<text text-anchor="start" x="114.67" y="-694.8" font-family="Arial" font-size="14.00" fill="#666666">[bigint]</text>
<polygon fill="none" stroke="black" stroke-width="3" points="44.7,-681.1 44.7,-781.3 332.64,-781.3 332.64,-681.1 44.7,-681.1"/>
</g>
<!-- public.cities -->
<g id="node2" class="node">
<title>public.cities</title>
<polygon fill="#efefef" stroke="none" points="437.69,-324.4 437.69,-360 663.65,-360 663.65,-324.4 437.69,-324.4"/>
<polygon fill="none" stroke="black" points="437.69,-324.4 437.69,-360 663.65,-360 663.65,-324.4 437.69,-324.4"/>
<text text-anchor="start" x="444.69" y="-337.8" font-family="Arial Bold" font-size="18.00">public.cities</text>
<text text-anchor="start" x="532.16" y="-337.8" font-family="Arial" font-size="14.00">    </text>
<text text-anchor="start" x="563.28" y="-337.8" font-family="Arial" font-size="14.00" fill="#666666">[BASE TABLE]</text>
<polygon fill="none" stroke="black" points="437.69,-293.6 437.69,-324.4 663.65,-324.4 663.65,-293.6 437.69,-293.6"/>
<text text-anchor="start" x="444.69" y="-305.8" font-family="Arial" font-size="14.00">id </text>
<text text-anchor="start" x="459.47" y="-305.8" font-family="Arial" font-size="14.00" fill="#666666">[bigint]</text>
<polygon fill="none" stroke="black" points="437.69,-262.8 437.69,-293.6 663.65,-293.6 663.65,-262.8 437.69,-262.8"/>
<text text-anchor="start" x="444.69" y="-275" font-family="Arial" font-size="14.00">state_id </text>
<text text-anchor="start" x="497.61" y="-275" font-family="Arial" font-size="14.00" fill="#666666">[bigint]</text>
</g>
<!-- public.psc_branches&#45;&gt;public.cities -->
<g id="edge1" class="edge">
<title>public.psc_branches:city_id&#45;&gt;public.cities:id</title>
<path fill="none" stroke="black" d="M342.05,-726.83C394.46,-704.5 368.69,-498.69 385.67,-439.2 402.73,-379.44 374.54,-309 436.69,-309"/>
<polygon fill="black" stroke="black" points="342.28,-726.78 331.59,-724.32 337.05,-727.82 332.8,-728.67 332.8,-728.67 332.8,-728.67 337.05,-727.82 333.35,-733.15 342.28,-726.78"/>
</g>
<!-- public.psc_branches&#45;&gt;public.cities -->
<g id="edge5" class="edge">
<title>public.psc_branches:city_vi_id&#45;&gt;public.cities:id</title>
<path fill="none" stroke="black" d="M342.24,-695.71C388.28,-673.26 370,-491.98 385.67,-439.2 403.37,-379.62 374.54,-309 436.69,-309"/>
<polygon fill="black" stroke="black" points="342.22,-695.72 331.47,-693.54 337.02,-696.89 332.79,-697.85 332.79,-697.85 332.79,-697.85 337.02,-696.89 333.46,-702.31 342.22,-695.72"/>
</g>
<!-- public.states -->
<g id="node6" class="node">
<title>public.states</title>
<polygon fill="#efefef" stroke="none" points="436.69,-104.8 436.69,-140.4 664.66,-140.4 664.66,-104.8 436.69,-104.8"/>
<polygon fill="none" stroke="black" points="436.69,-104.8 436.69,-140.4 664.66,-140.4 664.66,-104.8 436.69,-104.8"/>
<text text-anchor="start" x="443.69" y="-118.2" font-family="Arial Bold" font-size="18.00">public.states</text>
<text text-anchor="start" x="533.17" y="-118.2" font-family="Arial" font-size="14.00">    </text>
<text text-anchor="start" x="564.28" y="-118.2" font-family="Arial" font-size="14.00" fill="#666666">[BASE TABLE]</text>
<polygon fill="none" stroke="black" points="436.69,-74 436.69,-104.8 664.66,-104.8 664.66,-74 436.69,-74"/>
<text text-anchor="start" x="443.69" y="-86.2" font-family="Arial" font-size="14.00">id </text>
<text text-anchor="start" x="458.47" y="-86.2" font-family="Arial" font-size="14.00" fill="#666666">[bigint]</text>
<polygon fill="none" stroke="black" points="436.69,-43.2 436.69,-74 664.66,-74 664.66,-43.2 436.69,-43.2"/>
<text text-anchor="start" x="443.69" y="-55.4" font-family="Arial" font-size="14.00">country_id </text>
<text text-anchor="start" x="512.17" y="-55.4" font-family="Arial" font-size="14.00" fill="#666666">[bigint]</text>
</g>
<!-- public.cities&#45;&gt;public.states -->
<g id="edge6" class="edge">
<title>public.cities:state_id&#45;&gt;public.states:id</title>
<path fill="none" stroke="black" d="M551.57,-251.69C560.77,-204.56 637.49,-234.52 664.66,-183.6 684.36,-146.66 707.53,-89.4 665.66,-89.4"/>
<polygon fill="black" stroke="black" points="551.59,-251.51 546.22,-261.07 551.12,-256.82 550.73,-261.13 550.73,-261.13 550.73,-261.13 551.12,-256.82 555.18,-261.87 551.59,-251.51"/>
</g>
<!-- public.users -->
<g id="node3" class="node">
<title>public.users</title>
<polygon fill="#efefef" stroke="none" points="438.18,-944.4 438.18,-980 663.16,-980 663.16,-944.4 438.18,-944.4"/>
<polygon fill="none" stroke="black" points="438.18,-944.4 438.18,-980 663.16,-980 663.16,-944.4 438.18,-944.4"/>
<text text-anchor="start" x="445.18" y="-957.8" font-family="Arial Bold" font-size="18.00">public.users</text>
<text text-anchor="start" x="531.67" y="-957.8" font-family="Arial" font-size="14.00">    </text>
<text text-anchor="start" x="562.79" y="-957.8" font-family="Arial" font-size="14.00" fill="#666666">[BASE TABLE]</text>
<polygon fill="none" stroke="black" points="438.18,-913.6 438.18,-944.4 663.16,-944.4 663.16,-913.6 438.18,-913.6"/>
<text text-anchor="start" x="445.18" y="-925.8" font-family="Arial" font-size="14.00">id </text>
<text text-anchor="start" x="459.97" y="-925.8" font-family="Arial" font-size="14.00" fill="#666666">[bigint]</text>
<polygon fill="none" stroke="black" points="438.18,-882.8 438.18,-913.6 663.16,-913.6 663.16,-882.8 438.18,-882.8"/>
<text text-anchor="start" x="445.18" y="-895" font-family="Arial" font-size="14.00">email </text>
<text text-anchor="start" x="482.53" y="-895" font-family="Arial" font-size="14.00" fill="#666666">[varchar(255)]</text>
<polygon fill="none" stroke="black" points="438.18,-852 438.18,-882.8 663.16,-882.8 663.16,-852 438.18,-852"/>
<text text-anchor="start" x="445.18" y="-864.2" font-family="Arial" font-size="14.00">branch_id </text>
<text text-anchor="start" x="510.56" y="-864.2" font-family="Arial" font-size="14.00" fill="#666666">[bigint]</text>
<polygon fill="none" stroke="black" points="438.18,-821.2 438.18,-852 663.16,-852 663.16,-821.2 438.18,-821.2"/>
<text text-anchor="start" x="445.18" y="-833.4" font-family="Arial" font-size="14.00">sex_id </text>
<text text-anchor="start" x="489.54" y="-833.4" font-family="Arial" font-size="14.00" fill="#666666">[bigint]</text>
<polygon fill="none" stroke="black" points="438.18,-790.4 438.18,-821.2 663.16,-821.2 663.16,-790.4 438.18,-790.4"/>
<text text-anchor="start" x="445.18" y="-802.6" font-family="Arial" font-size="14.00">user_status_id </text>
<text text-anchor="start" x="540.13" y="-802.6" font-family="Arial" font-size="14.00" fill="#666666">[bigint]</text>
<polygon fill="none" stroke="black" points="438.18,-759.6 438.18,-790.4 663.16,-790.4 663.16,-759.6 438.18,-759.6"/>
<text text-anchor="start" x="445.18" y="-771.8" font-family="Arial" font-size="14.00">nationality_id </text>
<text text-anchor="start" x="530.8" y="-771.8" font-family="Arial" font-size="14.00" fill="#666666">[bigint]</text>
<polygon fill="none" stroke="black" points="438.18,-728.8 438.18,-759.6 663.16,-759.6 663.16,-728.8 438.18,-728.8"/>
<text text-anchor="start" x="445.18" y="-741" font-family="Arial" font-size="14.00">city_id </text>
<text text-anchor="start" x="488.76" y="-741" font-family="Arial" font-size="14.00" fill="#666666">[bigint]</text>
<polygon fill="none" stroke="black" points="438.18,-698 438.18,-728.8 663.16,-728.8 663.16,-698 438.18,-698"/>
<text text-anchor="start" x="445.18" y="-710.2" font-family="Arial" font-size="14.00">image_id </text>
<text text-anchor="start" x="505.89" y="-710.2" font-family="Arial" font-size="14.00" fill="#666666">[bigint]</text>
<polygon fill="none" stroke="black" points="438.18,-667.2 438.18,-698 663.16,-698 663.16,-667.2 438.18,-667.2"/>
<text text-anchor="start" x="445.18" y="-679.4" font-family="Arial" font-size="14.00">signature_image_id </text>
<text text-anchor="start" x="571.27" y="-679.4" font-family="Arial" font-size="14.00" fill="#666666">[bigint]</text>
<polygon fill="none" stroke="black" points="438.18,-636.4 438.18,-667.2 663.16,-667.2 663.16,-636.4 438.18,-636.4"/>
<text text-anchor="start" x="445.18" y="-648.6" font-family="Arial" font-size="14.00">position_id </text>
<text text-anchor="start" x="516.01" y="-648.6" font-family="Arial" font-size="14.00" fill="#666666">[bigint]</text>
<polygon fill="none" stroke="black" points="438.18,-605.6 438.18,-636.4 663.16,-636.4 663.16,-605.6 438.18,-605.6"/>
<text text-anchor="start" x="445.18" y="-617.8" font-family="Arial" font-size="14.00">mobile_number_id </text>
<text text-anchor="start" x="564.25" y="-617.8" font-family="Arial" font-size="14.00" fill="#666666">[bigint]</text>
<polygon fill="none" stroke="black" points="438.18,-574.8 438.18,-605.6 663.16,-605.6 663.16,-574.8 438.18,-574.8"/>
<text text-anchor="start" x="445.18" y="-587" font-family="Arial" font-size="14.00">home_number_id </text>
<text text-anchor="start" x="558.03" y="-587" font-family="Arial" font-size="14.00" fill="#666666">[bigint]</text>
<polygon fill="none" stroke="black" points="438.18,-544 438.18,-574.8 663.16,-574.8 663.16,-544 438.18,-544"/>
<text text-anchor="start" x="445.18" y="-556.2" font-family="Arial" font-size="14.00">bank_id </text>
<text text-anchor="start" x="498.11" y="-556.2" font-family="Arial" font-size="14.00" fill="#666666">[bigint]</text>
<polygon fill="none" stroke="black" points="438.18,-513.2 438.18,-544 663.16,-544 663.16,-513.2 438.18,-513.2"/>
<text text-anchor="start" x="445.18" y="-525.4" font-family="Arial" font-size="14.00">created_by_user_id </text>
<text text-anchor="start" x="572.05" y="-525.4" font-family="Arial" font-size="14.00" fill="#666666">[bigint]</text>
<polygon fill="none" stroke="black" points="438.18,-482.4 438.18,-513.2 663.16,-513.2 663.16,-482.4 438.18,-482.4"/>
<text text-anchor="start" x="445.18" y="-494.6" font-family="Arial" font-size="14.00">profile_status_id </text>
<text text-anchor="start" x="551.02" y="-494.6" font-family="Arial" font-size="14.00" fill="#666666">[bigint]</text>
</g>
<!-- public.users&#45;&gt;public.cities -->
<g id="edge2" class="edge">
<title>public.users:city_id&#45;&gt;public.cities:id</title>
<path fill="none" stroke="black" d="M672.91,-739.01C712.37,-689.91 709.89,-309 664.65,-309"/>
<polygon fill="black" stroke="black" points="673.05,-738.93 662.15,-740.16 668.46,-741.65 664.73,-743.86 664.73,-743.86 664.73,-743.86 668.46,-741.65 666.74,-747.9 673.05,-738.93"/>
</g>
<!-- public.companies -->
<g id="node4" class="node">
<title>public.companies</title>
<polygon fill="#efefef" stroke="none" points="767.19,-836.6 767.19,-872.2 1032.15,-872.2 1032.15,-836.6 767.19,-836.6"/>
<polygon fill="none" stroke="black" points="767.19,-836.6 767.19,-872.2 1032.15,-872.2 1032.15,-836.6 767.19,-836.6"/>
<text text-anchor="start" x="774.19" y="-850" font-family="Arial Bold" font-size="18.00">public.companies</text>
<text text-anchor="start" x="900.66" y="-850" font-family="Arial" font-size="14.00">    </text>
<text text-anchor="start" x="931.78" y="-850" font-family="Arial" font-size="14.00" fill="#666666">[BASE TABLE]</text>
<polygon fill="none" stroke="black" points="767.19,-805.8 767.19,-836.6 1032.15,-836.6 1032.15,-805.8 767.19,-805.8"/>
<text text-anchor="start" x="774.19" y="-818" font-family="Arial" font-size="14.00">id </text>
<text text-anchor="start" x="788.98" y="-818" font-family="Arial" font-size="14.00" fill="#666666">[bigint]</text>
<polygon fill="none" stroke="black" points="767.19,-775 767.19,-805.8 1032.15,-805.8 1032.15,-775 767.19,-775"/>
<text text-anchor="start" x="774.19" y="-787.2" font-family="Arial" font-size="14.00">branch_id </text>
<text text-anchor="start" x="839.57" y="-787.2" font-family="Arial" font-size="14.00" fill="#666666">[integer]</text>
<polygon fill="none" stroke="black" points="767.19,-744.2 767.19,-775 1032.15,-775 1032.15,-744.2 767.19,-744.2"/>
<text text-anchor="start" x="774.19" y="-756.4" font-family="Arial" font-size="14.00">logo_id </text>
<text text-anchor="start" x="823.23" y="-756.4" font-family="Arial" font-size="14.00" fill="#666666">[bigint]</text>
<polygon fill="none" stroke="black" points="767.19,-713.4 767.19,-744.2 1032.15,-744.2 1032.15,-713.4 767.19,-713.4"/>
<text text-anchor="start" x="774.19" y="-725.6" font-family="Arial" font-size="14.00">city_id </text>
<text text-anchor="start" x="817.77" y="-725.6" font-family="Arial" font-size="14.00" fill="#666666">[bigint]</text>
<polygon fill="none" stroke="black" points="767.19,-682.6 767.19,-713.4 1032.15,-713.4 1032.15,-682.6 767.19,-682.6"/>
<text text-anchor="start" x="774.19" y="-694.8" font-family="Arial" font-size="14.00">phone_number_id </text>
<text text-anchor="start" x="890.95" y="-694.8" font-family="Arial" font-size="14.00" fill="#666666">[bigint]</text>
<polygon fill="none" stroke="black" points="767.19,-651.8 767.19,-682.6 1032.15,-682.6 1032.15,-651.8 767.19,-651.8"/>
<text text-anchor="start" x="774.19" y="-664" font-family="Arial" font-size="14.00">created_by_user_id </text>
<text text-anchor="start" x="901.05" y="-664" font-family="Arial" font-size="14.00" fill="#666666">[integer]</text>
<polygon fill="none" stroke="black" points="767.19,-621 767.19,-651.8 1032.15,-651.8 1032.15,-621 767.19,-621"/>
<text text-anchor="start" x="774.19" y="-633.2" font-family="Arial" font-size="14.00">owned_by_user_id </text>
<text text-anchor="start" x="895.61" y="-633.2" font-family="Arial" font-size="14.00" fill="#666666">[integer]</text>
<polygon fill="none" stroke="black" points="767.19,-590.2 767.19,-621 1032.15,-621 1032.15,-590.2 767.19,-590.2"/>
<text text-anchor="start" x="774.19" y="-602.4" font-family="Arial" font-size="14.00">supervisor_user_id </text>
<text text-anchor="start" x="896.37" y="-602.4" font-family="Arial" font-size="14.00" fill="#666666">[bigint]</text>
</g>
<!-- public.companies&#45;&gt;public.cities -->
<g id="edge3" class="edge">
<title>public.companies:city_id&#45;&gt;public.cities:id</title>
<path fill="none" stroke="black" d="M756.01,-726.69C704.38,-703.65 732.29,-498.54 715.67,-439.2 698.91,-379.35 726.8,-309 664.65,-309"/>
<polygon fill="black" stroke="black" points="756.07,-726.7 764.95,-733.14 761.3,-727.79 765.54,-728.66 765.54,-728.66 765.54,-728.66 761.3,-727.79 766.78,-724.33 756.07,-726.7"/>
</g>
<!-- public.wards -->
<g id="node5" class="node">
<title>public.wards</title>
<polygon fill="#efefef" stroke="none" points="1136.19,-728.8 1136.19,-764.4 1367.15,-764.4 1367.15,-728.8 1136.19,-728.8"/>
<polygon fill="none" stroke="black" points="1136.19,-728.8 1136.19,-764.4 1367.15,-764.4 1367.15,-728.8 1136.19,-728.8"/>
<text text-anchor="start" x="1143.19" y="-742.2" font-family="Arial Bold" font-size="18.00">public.wards</text>
<text text-anchor="start" x="1235.67" y="-742.2" font-family="Arial" font-size="14.00">    </text>
<text text-anchor="start" x="1266.78" y="-742.2" font-family="Arial" font-size="14.00" fill="#666666">[BASE TABLE]</text>
<polygon fill="none" stroke="black" points="1136.19,-698 1136.19,-728.8 1367.15,-728.8 1367.15,-698 1136.19,-698"/>
<text text-anchor="start" x="1143.19" y="-710.2" font-family="Arial" font-size="14.00">city_id </text>
<text text-anchor="start" x="1186.76" y="-710.2" font-family="Arial" font-size="14.00" fill="#666666">[bigint]</text>
</g>
<!-- public.wards&#45;&gt;public.cities -->
<g id="edge4" class="edge">
<title>public.wards:city_id&#45;&gt;public.cities:id</title>
<path fill="none" stroke="black" d="M1125,-712.94C1020.19,-702.84 1164.54,-529.14 1084.67,-439.2 1019.78,-366.14 762.37,-309 664.65,-309"/>
<polygon fill="black" stroke="black" points="1124.86,-712.93 1134.65,-717.88 1130.19,-713.17 1134.52,-713.37 1134.52,-713.37 1134.52,-713.37 1130.19,-713.17 1135.06,-708.89 1124.86,-712.93"/>
</g>
</g>
</svg>
