<?xml version="1.0" encoding="UTF-8" standalone="no"?>
<!DOCTYPE svg PUBLIC "-//W3C//DTD SVG 1.1//EN"
 "http://www.w3.org/Graphics/SVG/1.1/DTD/svg11.dtd">
<!-- Generated by graphviz version 12.1.2 (20240928.0832)
 -->
<!-- Title: public.documents Pages: 1 -->
<svg width="4368pt" height="904pt"
 viewBox="0.00 0.00 4368.34 904.00" xmlns="http://www.w3.org/2000/svg" xmlns:xlink="http://www.w3.org/1999/xlink">
<g id="graph0" class="graph" transform="scale(1 1) rotate(0) translate(4 900)">
<title>public.documents</title>
<polygon fill="white" stroke="none" points="-4,4 -4,-900 4364.34,-900 4364.34,4 -4,4"/>
<!-- public.documents -->
<g id="node1" class="node">
<title>public.documents</title>
<polygon fill="#efefef" stroke="none" points="46.2,-555.4 46.2,-591 312.17,-591 312.17,-555.4 46.2,-555.4"/>
<polygon fill="none" stroke="black" points="46.2,-555.4 46.2,-591 312.17,-591 312.17,-555.4 46.2,-555.4"/>
<text text-anchor="start" x="53.2" y="-568.8" font-family="Arial Bold" font-size="18.00">public.documents</text>
<text text-anchor="start" x="180.68" y="-568.8" font-family="Arial" font-size="14.00">    </text>
<text text-anchor="start" x="211.79" y="-568.8" font-family="Arial" font-size="14.00" fill="#666666">[BASE TABLE]</text>
<polygon fill="none" stroke="black" points="46.2,-524.6 46.2,-555.4 312.17,-555.4 312.17,-524.6 46.2,-524.6"/>
<text text-anchor="start" x="53.2" y="-536.8" font-family="Arial" font-size="14.00">document_type_id </text>
<text text-anchor="start" x="171.5" y="-536.8" font-family="Arial" font-size="14.00" fill="#666666">[bigint]</text>
<polygon fill="none" stroke="black" points="46.2,-493.8 46.2,-524.6 312.17,-524.6 312.17,-493.8 46.2,-493.8"/>
<text text-anchor="start" x="53.2" y="-506" font-family="Arial" font-size="14.00">file_id </text>
<text text-anchor="start" x="93.67" y="-506" font-family="Arial" font-size="14.00" fill="#666666">[bigint]</text>
<polygon fill="none" stroke="black" stroke-width="3" points="44.7,-492.3 44.7,-592.5 313.67,-592.5 313.67,-492.3 44.7,-492.3"/>
</g>
<!-- public.document_types -->
<g id="node2" class="node">
<title>public.document_types</title>
<polygon fill="#efefef" stroke="none" points="207.2,-74 207.2,-109.6 513.16,-109.6 513.16,-74 207.2,-74"/>
<polygon fill="none" stroke="black" points="207.2,-74 207.2,-109.6 513.16,-109.6 513.16,-74 207.2,-74"/>
<text text-anchor="start" x="214.2" y="-87.4" font-family="Arial Bold" font-size="18.00">public.document_types</text>
<text text-anchor="start" x="381.67" y="-87.4" font-family="Arial" font-size="14.00">    </text>
<text text-anchor="start" x="412.79" y="-87.4" font-family="Arial" font-size="14.00" fill="#666666">[BASE TABLE]</text>
<polygon fill="none" stroke="black" points="207.2,-43.2 207.2,-74 513.16,-74 513.16,-43.2 207.2,-43.2"/>
<text text-anchor="start" x="214.2" y="-55.4" font-family="Arial" font-size="14.00">id </text>
<text text-anchor="start" x="228.99" y="-55.4" font-family="Arial" font-size="14.00" fill="#666666">[bigint]</text>
</g>
<!-- public.documents&#45;&gt;public.document_types -->
<g id="edge1" class="edge">
<title>public.documents:document_type_id&#45;&gt;public.document_types:id</title>
<path fill="none" stroke="black" d="M323.46,-539.61C514.44,-524.15 -9.33,-58.6 206.2,-58.6"/>
<polygon fill="black" stroke="black" points="323.49,-539.6 313.33,-535.49 318.16,-539.81 313.83,-539.97 313.83,-539.97 313.83,-539.97 318.16,-539.81 313.67,-544.48 323.49,-539.6"/>
</g>
<!-- public.files -->
<g id="node4" class="node">
<title>public.files</title>
<polygon fill="#efefef" stroke="none" points="1329.7,-74 1329.7,-109.6 1548.67,-109.6 1548.67,-74 1329.7,-74"/>
<polygon fill="none" stroke="black" points="1329.7,-74 1329.7,-109.6 1548.67,-109.6 1548.67,-74 1329.7,-74"/>
<text text-anchor="start" x="1336.7" y="-87.4" font-family="Arial Bold" font-size="18.00">public.files</text>
<text text-anchor="start" x="1417.18" y="-87.4" font-family="Arial" font-size="14.00">    </text>
<text text-anchor="start" x="1448.3" y="-87.4" font-family="Arial" font-size="14.00" fill="#666666">[BASE TABLE]</text>
<polygon fill="none" stroke="black" points="1329.7,-43.2 1329.7,-74 1548.67,-74 1548.67,-43.2 1329.7,-43.2"/>
<text text-anchor="start" x="1336.7" y="-55.4" font-family="Arial" font-size="14.00">id </text>
<text text-anchor="start" x="1351.48" y="-55.4" font-family="Arial" font-size="14.00" fill="#666666">[bigint]</text>
</g>
<!-- public.documents&#45;&gt;public.files -->
<g id="edge3" class="edge">
<title>public.documents:file_id&#45;&gt;public.files:id</title>
<path fill="none" stroke="black" d="M323.1,-507.17C378.57,-482.33 317.94,-236.47 367.18,-188.8 386.55,-170.05 1301.75,-58.6 1328.7,-58.6"/>
<polygon fill="black" stroke="black" points="323.29,-507.13 312.59,-504.72 318.06,-508.2 313.82,-509.07 313.82,-509.07 313.82,-509.07 318.06,-508.2 314.39,-513.54 323.29,-507.13"/>
</g>
<!-- public.patients -->
<g id="node3" class="node">
<title>public.patients</title>
<polygon fill="#efefef" stroke="none" points="419.2,-817.2 419.2,-852.8 663.17,-852.8 663.17,-817.2 419.2,-817.2"/>
<polygon fill="none" stroke="black" points="419.2,-817.2 419.2,-852.8 663.17,-852.8 663.17,-817.2 419.2,-817.2"/>
<text text-anchor="start" x="426.2" y="-830.6" font-family="Arial Bold" font-size="18.00">public.patients</text>
<text text-anchor="start" x="531.68" y="-830.6" font-family="Arial" font-size="14.00">    </text>
<text text-anchor="start" x="562.79" y="-830.6" font-family="Arial" font-size="14.00" fill="#666666">[BASE TABLE]</text>
<polygon fill="none" stroke="black" points="419.2,-786.4 419.2,-817.2 663.17,-817.2 663.17,-786.4 419.2,-786.4"/>
<text text-anchor="start" x="426.2" y="-798.6" font-family="Arial" font-size="14.00">id </text>
<text text-anchor="start" x="440.99" y="-798.6" font-family="Arial" font-size="14.00" fill="#666666">[bigint]</text>
<polygon fill="none" stroke="black" points="419.2,-755.6 419.2,-786.4 663.17,-786.4 663.17,-755.6 419.2,-755.6"/>
<text text-anchor="start" x="426.2" y="-767.8" font-family="Arial" font-size="14.00">user_id </text>
<text text-anchor="start" x="476.01" y="-767.8" font-family="Arial" font-size="14.00" fill="#666666">[bigint]</text>
<polygon fill="none" stroke="black" points="419.2,-724.8 419.2,-755.6 663.17,-755.6 663.17,-724.8 419.2,-724.8"/>
<text text-anchor="start" x="426.2" y="-737" font-family="Arial" font-size="14.00">sex_id </text>
<text text-anchor="start" x="470.56" y="-737" font-family="Arial" font-size="14.00" fill="#666666">[bigint]</text>
<polygon fill="none" stroke="black" points="419.2,-694 419.2,-724.8 663.17,-724.8 663.17,-694 419.2,-694"/>
<text text-anchor="start" x="426.2" y="-706.2" font-family="Arial" font-size="14.00">document_type_id </text>
<text text-anchor="start" x="544.5" y="-706.2" font-family="Arial" font-size="14.00" fill="#666666">[bigint]</text>
<polygon fill="none" stroke="black" points="419.2,-663.2 419.2,-694 663.17,-694 663.17,-663.2 419.2,-663.2"/>
<text text-anchor="start" x="426.2" y="-675.4" font-family="Arial" font-size="14.00">bank_id </text>
<text text-anchor="start" x="479.13" y="-675.4" font-family="Arial" font-size="14.00" fill="#666666">[bigint]</text>
<polygon fill="none" stroke="black" points="419.2,-632.4 419.2,-663.2 663.17,-663.2 663.17,-632.4 419.2,-632.4"/>
<text text-anchor="start" x="426.2" y="-644.6" font-family="Arial" font-size="14.00">phone_number_id </text>
<text text-anchor="start" x="542.96" y="-644.6" font-family="Arial" font-size="14.00" fill="#666666">[bigint]</text>
<polygon fill="none" stroke="black" points="419.2,-601.6 419.2,-632.4 663.17,-632.4 663.17,-601.6 419.2,-601.6"/>
<text text-anchor="start" x="426.2" y="-613.8" font-family="Arial" font-size="14.00">home_number_id </text>
<text text-anchor="start" x="539.05" y="-613.8" font-family="Arial" font-size="14.00" fill="#666666">[bigint]</text>
<polygon fill="none" stroke="black" points="419.2,-570.8 419.2,-601.6 663.17,-601.6 663.17,-570.8 419.2,-570.8"/>
<text text-anchor="start" x="426.2" y="-583" font-family="Arial" font-size="14.00">image_id </text>
<text text-anchor="start" x="486.9" y="-583" font-family="Arial" font-size="14.00" fill="#666666">[bigint]</text>
<polygon fill="none" stroke="black" points="419.2,-540 419.2,-570.8 663.17,-570.8 663.17,-540 419.2,-540"/>
<text text-anchor="start" x="426.2" y="-552.2" font-family="Arial" font-size="14.00">nationality_id </text>
<text text-anchor="start" x="511.81" y="-552.2" font-family="Arial" font-size="14.00" fill="#666666">[bigint]</text>
<polygon fill="none" stroke="black" points="419.2,-509.2 419.2,-540 663.17,-540 663.17,-509.2 419.2,-509.2"/>
<text text-anchor="start" x="426.2" y="-521.4" font-family="Arial" font-size="14.00">created_by_user_id </text>
<text text-anchor="start" x="553.06" y="-521.4" font-family="Arial" font-size="14.00" fill="#666666">[bigint]</text>
<polygon fill="none" stroke="black" points="419.2,-478.4 419.2,-509.2 663.17,-509.2 663.17,-478.4 419.2,-478.4"/>
<text text-anchor="start" x="426.2" y="-490.6" font-family="Arial" font-size="14.00">company_id </text>
<text text-anchor="start" x="505.58" y="-490.6" font-family="Arial" font-size="14.00" fill="#666666">[bigint]</text>
<polygon fill="none" stroke="black" points="419.2,-447.6 419.2,-478.4 663.17,-478.4 663.17,-447.6 419.2,-447.6"/>
<text text-anchor="start" x="426.2" y="-459.8" font-family="Arial" font-size="14.00">salutation_id </text>
<text text-anchor="start" x="508.7" y="-459.8" font-family="Arial" font-size="14.00" fill="#666666">[integer]</text>
<polygon fill="none" stroke="black" points="419.2,-416.8 419.2,-447.6 663.17,-447.6 663.17,-416.8 419.2,-416.8"/>
<text text-anchor="start" x="426.2" y="-429" font-family="Arial" font-size="14.00">marital_status_id </text>
<text text-anchor="start" x="535.92" y="-429" font-family="Arial" font-size="14.00" fill="#666666">[integer]</text>
<polygon fill="none" stroke="black" points="419.2,-386 419.2,-416.8 663.17,-416.8 663.17,-386 419.2,-386"/>
<text text-anchor="start" x="426.2" y="-398.2" font-family="Arial" font-size="14.00">document_of_id </text>
<text text-anchor="start" x="529.72" y="-398.2" font-family="Arial" font-size="14.00" fill="#666666">[integer]</text>
<polygon fill="none" stroke="black" points="419.2,-355.2 419.2,-386 663.17,-386 663.17,-355.2 419.2,-355.2"/>
<text text-anchor="start" x="426.2" y="-367.4" font-family="Arial" font-size="14.00">country_id </text>
<text text-anchor="start" x="494.68" y="-367.4" font-family="Arial" font-size="14.00" fill="#666666">[integer]</text>
<polygon fill="none" stroke="black" points="419.2,-324.4 419.2,-355.2 663.17,-355.2 663.17,-324.4 419.2,-324.4"/>
<text text-anchor="start" x="426.2" y="-336.6" font-family="Arial" font-size="14.00">state_id </text>
<text text-anchor="start" x="479.12" y="-336.6" font-family="Arial" font-size="14.00" fill="#666666">[integer]</text>
<polygon fill="none" stroke="black" points="419.2,-293.6 419.2,-324.4 663.17,-324.4 663.17,-293.6 419.2,-293.6"/>
<text text-anchor="start" x="426.2" y="-305.8" font-family="Arial" font-size="14.00">current_company_id </text>
<text text-anchor="start" x="556.94" y="-305.8" font-family="Arial" font-size="14.00" fill="#666666">[bigint]</text>
<polygon fill="none" stroke="black" points="419.2,-262.8 419.2,-293.6 663.17,-293.6 663.17,-262.8 419.2,-262.8"/>
<text text-anchor="start" x="426.2" y="-275" font-family="Arial" font-size="14.00">signature_file_id </text>
<text text-anchor="start" x="532.05" y="-275" font-family="Arial" font-size="14.00" fill="#666666">[bigint]</text>
<polygon fill="none" stroke="black" points="419.2,-232 419.2,-262.8 663.17,-262.8 663.17,-232 419.2,-232"/>
<text text-anchor="start" x="426.2" y="-244.2" font-family="Arial" font-size="14.00">qr_code_id </text>
<text text-anchor="start" x="499.36" y="-244.2" font-family="Arial" font-size="14.00" fill="#666666">[bigint]</text>
</g>
<!-- public.patients&#45;&gt;public.document_types -->
<g id="edge2" class="edge">
<title>public.patients:document_type_id&#45;&gt;public.document_types:id</title>
<path fill="none" stroke="black" d="M408.88,-704.71C363.43,-655.43 388.3,-233.64 419.2,-188.8 444.58,-151.98 487.62,-189.51 513.16,-152.8 537.07,-118.43 556.03,-58.6 514.16,-58.6"/>
<polygon fill="black" stroke="black" points="408.97,-704.75 415.88,-713.27 413.73,-707.15 417.6,-709.1 417.6,-709.1 417.6,-709.1 413.73,-707.15 419.92,-705.23 408.97,-704.75"/>
</g>
<!-- public.patients&#45;&gt;public.files -->
<g id="edge10" class="edge">
<title>public.patients:image_id&#45;&gt;public.files:id</title>
<path fill="none" stroke="black" d="M674.2,-584.57C745.4,-559.42 657.32,-251.58 715.18,-188.8 809.64,-86.32 1189.32,-58.6 1328.7,-58.6"/>
<polygon fill="black" stroke="black" points="674.37,-584.54 663.77,-581.7 669.1,-585.4 664.83,-586.09 664.83,-586.09 664.83,-586.09 669.1,-585.4 665.22,-590.59 674.37,-584.54"/>
</g>
<!-- public.patients&#45;&gt;public.files -->
<g id="edge11" class="edge">
<title>public.patients:qr_code_id&#45;&gt;public.files:id</title>
<path fill="none" stroke="black" d="M674.48,-245.81C696.18,-238.09 688.91,-204.26 715.18,-188.8 835.31,-118.13 1189.32,-58.6 1328.7,-58.6"/>
<polygon fill="black" stroke="black" points="674.38,-245.83 663.81,-242.9 669.11,-246.64 664.83,-247.3 664.83,-247.3 664.83,-247.3 669.11,-246.64 665.18,-251.8 674.38,-245.83"/>
</g>
<!-- public.patients&#45;&gt;public.files -->
<g id="edge12" class="edge">
<title>public.patients:signature_file_id&#45;&gt;public.files:id</title>
<path fill="none" stroke="black" d="M674.34,-276.88C704.98,-267.73 681.41,-213.46 715.18,-188.8 827.74,-106.61 1189.32,-58.6 1328.7,-58.6"/>
<polygon fill="black" stroke="black" points="674.41,-276.87 663.92,-273.69 669.12,-277.56 664.83,-278.11 664.83,-278.11 664.83,-278.11 669.12,-277.56 665.08,-282.62 674.41,-276.87"/>
</g>
<!-- public.users -->
<g id="node5" class="node">
<title>public.users</title>
<polygon fill="#efefef" stroke="none" points="767.7,-755.6 767.7,-791.2 992.67,-791.2 992.67,-755.6 767.7,-755.6"/>
<polygon fill="none" stroke="black" points="767.7,-755.6 767.7,-791.2 992.67,-791.2 992.67,-755.6 767.7,-755.6"/>
<text text-anchor="start" x="774.7" y="-769" font-family="Arial Bold" font-size="18.00">public.users</text>
<text text-anchor="start" x="861.18" y="-769" font-family="Arial" font-size="14.00">    </text>
<text text-anchor="start" x="892.3" y="-769" font-family="Arial" font-size="14.00" fill="#666666">[BASE TABLE]</text>
<polygon fill="none" stroke="black" points="767.7,-724.8 767.7,-755.6 992.67,-755.6 992.67,-724.8 767.7,-724.8"/>
<text text-anchor="start" x="774.7" y="-737" font-family="Arial" font-size="14.00">id </text>
<text text-anchor="start" x="789.48" y="-737" font-family="Arial" font-size="14.00" fill="#666666">[bigint]</text>
<polygon fill="none" stroke="black" points="767.7,-694 767.7,-724.8 992.67,-724.8 992.67,-694 767.7,-694"/>
<text text-anchor="start" x="774.7" y="-706.2" font-family="Arial" font-size="14.00">email </text>
<text text-anchor="start" x="812.04" y="-706.2" font-family="Arial" font-size="14.00" fill="#666666">[varchar(255)]</text>
<polygon fill="none" stroke="black" points="767.7,-663.2 767.7,-694 992.67,-694 992.67,-663.2 767.7,-663.2"/>
<text text-anchor="start" x="774.7" y="-675.4" font-family="Arial" font-size="14.00">branch_id </text>
<text text-anchor="start" x="840.08" y="-675.4" font-family="Arial" font-size="14.00" fill="#666666">[bigint]</text>
<polygon fill="none" stroke="black" points="767.7,-632.4 767.7,-663.2 992.67,-663.2 992.67,-632.4 767.7,-632.4"/>
<text text-anchor="start" x="774.7" y="-644.6" font-family="Arial" font-size="14.00">sex_id </text>
<text text-anchor="start" x="819.05" y="-644.6" font-family="Arial" font-size="14.00" fill="#666666">[bigint]</text>
<polygon fill="none" stroke="black" points="767.7,-601.6 767.7,-632.4 992.67,-632.4 992.67,-601.6 767.7,-601.6"/>
<text text-anchor="start" x="774.7" y="-613.8" font-family="Arial" font-size="14.00">user_status_id </text>
<text text-anchor="start" x="869.64" y="-613.8" font-family="Arial" font-size="14.00" fill="#666666">[bigint]</text>
<polygon fill="none" stroke="black" points="767.7,-570.8 767.7,-601.6 992.67,-601.6 992.67,-570.8 767.7,-570.8"/>
<text text-anchor="start" x="774.7" y="-583" font-family="Arial" font-size="14.00">nationality_id </text>
<text text-anchor="start" x="860.31" y="-583" font-family="Arial" font-size="14.00" fill="#666666">[bigint]</text>
<polygon fill="none" stroke="black" points="767.7,-540 767.7,-570.8 992.67,-570.8 992.67,-540 767.7,-540"/>
<text text-anchor="start" x="774.7" y="-552.2" font-family="Arial" font-size="14.00">city_id </text>
<text text-anchor="start" x="818.27" y="-552.2" font-family="Arial" font-size="14.00" fill="#666666">[bigint]</text>
<polygon fill="none" stroke="black" points="767.7,-509.2 767.7,-540 992.67,-540 992.67,-509.2 767.7,-509.2"/>
<text text-anchor="start" x="774.7" y="-521.4" font-family="Arial" font-size="14.00">image_id </text>
<text text-anchor="start" x="835.4" y="-521.4" font-family="Arial" font-size="14.00" fill="#666666">[bigint]</text>
<polygon fill="none" stroke="black" points="767.7,-478.4 767.7,-509.2 992.67,-509.2 992.67,-478.4 767.7,-478.4"/>
<text text-anchor="start" x="774.7" y="-490.6" font-family="Arial" font-size="14.00">signature_image_id </text>
<text text-anchor="start" x="900.78" y="-490.6" font-family="Arial" font-size="14.00" fill="#666666">[bigint]</text>
<polygon fill="none" stroke="black" points="767.7,-447.6 767.7,-478.4 992.67,-478.4 992.67,-447.6 767.7,-447.6"/>
<text text-anchor="start" x="774.7" y="-459.8" font-family="Arial" font-size="14.00">position_id </text>
<text text-anchor="start" x="845.52" y="-459.8" font-family="Arial" font-size="14.00" fill="#666666">[bigint]</text>
<polygon fill="none" stroke="black" points="767.7,-416.8 767.7,-447.6 992.67,-447.6 992.67,-416.8 767.7,-416.8"/>
<text text-anchor="start" x="774.7" y="-429" font-family="Arial" font-size="14.00">mobile_number_id </text>
<text text-anchor="start" x="893.76" y="-429" font-family="Arial" font-size="14.00" fill="#666666">[bigint]</text>
<polygon fill="none" stroke="black" points="767.7,-386 767.7,-416.8 992.67,-416.8 992.67,-386 767.7,-386"/>
<text text-anchor="start" x="774.7" y="-398.2" font-family="Arial" font-size="14.00">home_number_id </text>
<text text-anchor="start" x="887.54" y="-398.2" font-family="Arial" font-size="14.00" fill="#666666">[bigint]</text>
<polygon fill="none" stroke="black" points="767.7,-355.2 767.7,-386 992.67,-386 992.67,-355.2 767.7,-355.2"/>
<text text-anchor="start" x="774.7" y="-367.4" font-family="Arial" font-size="14.00">bank_id </text>
<text text-anchor="start" x="827.63" y="-367.4" font-family="Arial" font-size="14.00" fill="#666666">[bigint]</text>
<polygon fill="none" stroke="black" points="767.7,-324.4 767.7,-355.2 992.67,-355.2 992.67,-324.4 767.7,-324.4"/>
<text text-anchor="start" x="774.7" y="-336.6" font-family="Arial" font-size="14.00">created_by_user_id </text>
<text text-anchor="start" x="901.56" y="-336.6" font-family="Arial" font-size="14.00" fill="#666666">[bigint]</text>
<polygon fill="none" stroke="black" points="767.7,-293.6 767.7,-324.4 992.67,-324.4 992.67,-293.6 767.7,-293.6"/>
<text text-anchor="start" x="774.7" y="-305.8" font-family="Arial" font-size="14.00">profile_status_id </text>
<text text-anchor="start" x="880.54" y="-305.8" font-family="Arial" font-size="14.00" fill="#666666">[bigint]</text>
</g>
<!-- public.users&#45;&gt;public.files -->
<g id="edge4" class="edge">
<title>public.users:image_id&#45;&gt;public.files:id</title>
<path fill="none" stroke="black" d="M1003.72,-522.69C1062.66,-498.21 1001.94,-246.13 1045.18,-188.8 1128.68,-78.1 1190.04,-58.6 1328.7,-58.6"/>
<polygon fill="black" stroke="black" points="1003.82,-522.67 993.16,-520.12 998.58,-523.66 994.33,-524.47 994.33,-524.47 994.33,-524.47 998.58,-523.66 994.84,-528.96 1003.82,-522.67"/>
</g>
<!-- public.users&#45;&gt;public.files -->
<g id="edge5" class="edge">
<title>public.users:signature_image_id&#45;&gt;public.files:id</title>
<path fill="none" stroke="black" d="M1003.84,-491.63C1056.25,-466.99 1005.66,-240.38 1045.18,-188.8 1129.52,-78.74 1190.04,-58.6 1328.7,-58.6"/>
<polygon fill="black" stroke="black" points="1003.78,-491.64 993.06,-489.33 998.56,-492.75 994.32,-493.66 994.32,-493.66 994.32,-493.66 998.56,-492.75 994.94,-498.13 1003.78,-491.64"/>
</g>
<!-- public.certifications -->
<g id="node6" class="node">
<title>public.certifications</title>
<polygon fill="#efefef" stroke="none" points="1097.22,-555.4 1097.22,-591 1379.15,-591 1379.15,-555.4 1097.22,-555.4"/>
<polygon fill="none" stroke="black" points="1097.22,-555.4 1097.22,-591 1379.15,-591 1379.15,-555.4 1097.22,-555.4"/>
<text text-anchor="start" x="1104.22" y="-568.8" font-family="Arial Bold" font-size="18.00">public.certifications</text>
<text text-anchor="start" x="1247.66" y="-568.8" font-family="Arial" font-size="14.00">    </text>
<text text-anchor="start" x="1278.78" y="-568.8" font-family="Arial" font-size="14.00" fill="#666666">[BASE TABLE]</text>
<polygon fill="none" stroke="black" points="1097.22,-524.6 1097.22,-555.4 1379.15,-555.4 1379.15,-524.6 1097.22,-524.6"/>
<text text-anchor="start" x="1104.22" y="-536.8" font-family="Arial" font-size="14.00">user_id </text>
<text text-anchor="start" x="1154.02" y="-536.8" font-family="Arial" font-size="14.00" fill="#666666">[bigint]</text>
<polygon fill="none" stroke="black" points="1097.22,-493.8 1097.22,-524.6 1379.15,-524.6 1379.15,-493.8 1097.22,-493.8"/>
<text text-anchor="start" x="1104.22" y="-506" font-family="Arial" font-size="14.00">file_id </text>
<text text-anchor="start" x="1144.68" y="-506" font-family="Arial" font-size="14.00" fill="#666666">[bigint]</text>
</g>
<!-- public.certifications&#45;&gt;public.files -->
<g id="edge6" class="edge">
<title>public.certifications:file_id&#45;&gt;public.files:id</title>
<path fill="none" stroke="black" d="M1390.38,-507.19C1461.71,-474.68 1231.85,-58.6 1328.7,-58.6"/>
<polygon fill="black" stroke="black" points="1390.29,-507.21 1379.61,-504.72 1385.06,-508.24 1380.81,-509.07 1380.81,-509.07 1380.81,-509.07 1385.06,-508.24 1381.35,-513.55 1390.29,-507.21"/>
</g>
<!-- public.imaging_licenses -->
<g id="node7" class="node">
<title>public.imaging_licenses</title>
<polygon fill="#efefef" stroke="none" points="1483.71,-555.4 1483.71,-591 1796.66,-591 1796.66,-555.4 1483.71,-555.4"/>
<polygon fill="none" stroke="black" points="1483.71,-555.4 1483.71,-591 1796.66,-591 1796.66,-555.4 1483.71,-555.4"/>
<text text-anchor="start" x="1490.71" y="-568.8" font-family="Arial Bold" font-size="18.00">public.imaging_licenses</text>
<text text-anchor="start" x="1665.17" y="-568.8" font-family="Arial" font-size="14.00">    </text>
<text text-anchor="start" x="1696.29" y="-568.8" font-family="Arial" font-size="14.00" fill="#666666">[BASE TABLE]</text>
<polygon fill="none" stroke="black" points="1483.71,-524.6 1483.71,-555.4 1796.66,-555.4 1796.66,-524.6 1483.71,-524.6"/>
<text text-anchor="start" x="1490.71" y="-536.8" font-family="Arial" font-size="14.00">user_id </text>
<text text-anchor="start" x="1540.51" y="-536.8" font-family="Arial" font-size="14.00" fill="#666666">[bigint]</text>
<polygon fill="none" stroke="black" points="1483.71,-493.8 1483.71,-524.6 1796.66,-524.6 1796.66,-493.8 1483.71,-493.8"/>
<text text-anchor="start" x="1490.71" y="-506" font-family="Arial" font-size="14.00">file_id </text>
<text text-anchor="start" x="1531.18" y="-506" font-family="Arial" font-size="14.00" fill="#666666">[bigint]</text>
</g>
<!-- public.imaging_licenses&#45;&gt;public.files -->
<g id="edge7" class="edge">
<title>public.imaging_licenses:file_id&#45;&gt;public.files:id</title>
<path fill="none" stroke="black" d="M1472.5,-507.19C1401.96,-474.68 1646.95,-58.6 1549.67,-58.6"/>
<polygon fill="black" stroke="black" points="1472.57,-507.2 1481.51,-513.55 1477.8,-508.23 1482.05,-509.07 1482.05,-509.07 1482.05,-509.07 1477.8,-508.23 1483.25,-504.72 1472.57,-507.2"/>
</g>
<!-- public.doctor_licenses -->
<g id="node8" class="node">
<title>public.doctor_licenses</title>
<polygon fill="#efefef" stroke="none" points="1901.21,-555.4 1901.21,-591 2201.16,-591 2201.16,-555.4 1901.21,-555.4"/>
<polygon fill="none" stroke="black" points="1901.21,-555.4 1901.21,-591 2201.16,-591 2201.16,-555.4 1901.21,-555.4"/>
<text text-anchor="start" x="1908.21" y="-568.8" font-family="Arial Bold" font-size="18.00">public.doctor_licenses</text>
<text text-anchor="start" x="2069.67" y="-568.8" font-family="Arial" font-size="14.00">    </text>
<text text-anchor="start" x="2100.78" y="-568.8" font-family="Arial" font-size="14.00" fill="#666666">[BASE TABLE]</text>
<polygon fill="none" stroke="black" points="1901.21,-524.6 1901.21,-555.4 2201.16,-555.4 2201.16,-524.6 1901.21,-524.6"/>
<text text-anchor="start" x="1908.21" y="-536.8" font-family="Arial" font-size="14.00">user_id </text>
<text text-anchor="start" x="1958.02" y="-536.8" font-family="Arial" font-size="14.00" fill="#666666">[bigint]</text>
<polygon fill="none" stroke="black" points="1901.21,-493.8 1901.21,-524.6 2201.16,-524.6 2201.16,-493.8 1901.21,-493.8"/>
<text text-anchor="start" x="1908.21" y="-506" font-family="Arial" font-size="14.00">file_id </text>
<text text-anchor="start" x="1948.68" y="-506" font-family="Arial" font-size="14.00" fill="#666666">[bigint]</text>
</g>
<!-- public.doctor_licenses&#45;&gt;public.files -->
<g id="edge8" class="edge">
<title>public.doctor_licenses:file_id&#45;&gt;public.files:id</title>
<path fill="none" stroke="black" d="M1890.26,-507.22C1834.46,-482.98 1891.11,-242.89 1849.18,-188.8 1760.26,-74.07 1694.82,-58.6 1549.67,-58.6"/>
<polygon fill="black" stroke="black" points="1890.07,-507.19 1899.01,-513.55 1895.31,-508.23 1899.55,-509.07 1899.55,-509.07 1899.55,-509.07 1895.31,-508.23 1900.76,-504.72 1890.07,-507.19"/>
</g>
<!-- public.companies -->
<g id="node9" class="node">
<title>public.companies</title>
<polygon fill="#efefef" stroke="none" points="2305.71,-647.8 2305.71,-683.4 2570.66,-683.4 2570.66,-647.8 2305.71,-647.8"/>
<polygon fill="none" stroke="black" points="2305.71,-647.8 2305.71,-683.4 2570.66,-683.4 2570.66,-647.8 2305.71,-647.8"/>
<text text-anchor="start" x="2312.71" y="-661.2" font-family="Arial Bold" font-size="18.00">public.companies</text>
<text text-anchor="start" x="2439.17" y="-661.2" font-family="Arial" font-size="14.00">    </text>
<text text-anchor="start" x="2470.29" y="-661.2" font-family="Arial" font-size="14.00" fill="#666666">[BASE TABLE]</text>
<polygon fill="none" stroke="black" points="2305.71,-617 2305.71,-647.8 2570.66,-647.8 2570.66,-617 2305.71,-617"/>
<text text-anchor="start" x="2312.71" y="-629.2" font-family="Arial" font-size="14.00">id </text>
<text text-anchor="start" x="2327.49" y="-629.2" font-family="Arial" font-size="14.00" fill="#666666">[bigint]</text>
<polygon fill="none" stroke="black" points="2305.71,-586.2 2305.71,-617 2570.66,-617 2570.66,-586.2 2305.71,-586.2"/>
<text text-anchor="start" x="2312.71" y="-598.4" font-family="Arial" font-size="14.00">branch_id </text>
<text text-anchor="start" x="2378.08" y="-598.4" font-family="Arial" font-size="14.00" fill="#666666">[integer]</text>
<polygon fill="none" stroke="black" points="2305.71,-555.4 2305.71,-586.2 2570.66,-586.2 2570.66,-555.4 2305.71,-555.4"/>
<text text-anchor="start" x="2312.71" y="-567.6" font-family="Arial" font-size="14.00">logo_id </text>
<text text-anchor="start" x="2361.75" y="-567.6" font-family="Arial" font-size="14.00" fill="#666666">[bigint]</text>
<polygon fill="none" stroke="black" points="2305.71,-524.6 2305.71,-555.4 2570.66,-555.4 2570.66,-524.6 2305.71,-524.6"/>
<text text-anchor="start" x="2312.71" y="-536.8" font-family="Arial" font-size="14.00">city_id </text>
<text text-anchor="start" x="2356.28" y="-536.8" font-family="Arial" font-size="14.00" fill="#666666">[bigint]</text>
<polygon fill="none" stroke="black" points="2305.71,-493.8 2305.71,-524.6 2570.66,-524.6 2570.66,-493.8 2305.71,-493.8"/>
<text text-anchor="start" x="2312.71" y="-506" font-family="Arial" font-size="14.00">phone_number_id </text>
<text text-anchor="start" x="2429.46" y="-506" font-family="Arial" font-size="14.00" fill="#666666">[bigint]</text>
<polygon fill="none" stroke="black" points="2305.71,-463 2305.71,-493.8 2570.66,-493.8 2570.66,-463 2305.71,-463"/>
<text text-anchor="start" x="2312.71" y="-475.2" font-family="Arial" font-size="14.00">created_by_user_id </text>
<text text-anchor="start" x="2439.57" y="-475.2" font-family="Arial" font-size="14.00" fill="#666666">[integer]</text>
<polygon fill="none" stroke="black" points="2305.71,-432.2 2305.71,-463 2570.66,-463 2570.66,-432.2 2305.71,-432.2"/>
<text text-anchor="start" x="2312.71" y="-444.4" font-family="Arial" font-size="14.00">owned_by_user_id </text>
<text text-anchor="start" x="2434.13" y="-444.4" font-family="Arial" font-size="14.00" fill="#666666">[integer]</text>
<polygon fill="none" stroke="black" points="2305.71,-401.4 2305.71,-432.2 2570.66,-432.2 2570.66,-401.4 2305.71,-401.4"/>
<text text-anchor="start" x="2312.71" y="-413.6" font-family="Arial" font-size="14.00">supervisor_user_id </text>
<text text-anchor="start" x="2434.88" y="-413.6" font-family="Arial" font-size="14.00" fill="#666666">[bigint]</text>
</g>
<!-- public.companies&#45;&gt;public.files -->
<g id="edge9" class="edge">
<title>public.companies:logo_id&#45;&gt;public.files:id</title>
<path fill="none" stroke="black" d="M2294.63,-569.07C2226.78,-543.78 2309.71,-248.17 2253.18,-188.8 2143.54,-73.66 1708.66,-58.6 1549.67,-58.6"/>
<polygon fill="black" stroke="black" points="2294.52,-569.05 2303.62,-575.18 2299.78,-569.96 2304.05,-570.69 2304.05,-570.69 2304.05,-570.69 2299.78,-569.96 2305.14,-566.31 2294.52,-569.05"/>
</g>
<!-- public.file_report -->
<g id="node10" class="node">
<title>public.file_report</title>
<polygon fill="#efefef" stroke="none" points="2675.21,-555.4 2675.21,-591 2939.16,-591 2939.16,-555.4 2675.21,-555.4"/>
<polygon fill="none" stroke="black" points="2675.21,-555.4 2675.21,-591 2939.16,-591 2939.16,-555.4 2675.21,-555.4"/>
<text text-anchor="start" x="2682.21" y="-568.8" font-family="Arial Bold" font-size="18.00">public.file_report</text>
<text text-anchor="start" x="2807.67" y="-568.8" font-family="Arial" font-size="14.00">    </text>
<text text-anchor="start" x="2838.78" y="-568.8" font-family="Arial" font-size="14.00" fill="#666666">[BASE TABLE]</text>
<polygon fill="none" stroke="black" points="2675.21,-524.6 2675.21,-555.4 2939.16,-555.4 2939.16,-524.6 2675.21,-524.6"/>
<text text-anchor="start" x="2682.21" y="-536.8" font-family="Arial" font-size="14.00">file_id </text>
<text text-anchor="start" x="2722.68" y="-536.8" font-family="Arial" font-size="14.00" fill="#666666">[bigint]</text>
<polygon fill="none" stroke="black" points="2675.21,-493.8 2675.21,-524.6 2939.16,-524.6 2939.16,-493.8 2675.21,-493.8"/>
<text text-anchor="start" x="2682.21" y="-506" font-family="Arial" font-size="14.00">report_id </text>
<text text-anchor="start" x="2741.36" y="-506" font-family="Arial" font-size="14.00" fill="#666666">[bigint]</text>
</g>
<!-- public.file_report&#45;&gt;public.files -->
<g id="edge13" class="edge">
<title>public.file_report:file_id&#45;&gt;public.files:id</title>
<path fill="none" stroke="black" d="M2664.16,-538.1C2602.94,-512.77 2676.96,-241.32 2623.18,-188.8 2537.23,-104.85 1669.82,-58.6 1549.67,-58.6"/>
<polygon fill="black" stroke="black" points="2664.06,-538.08 2673.05,-544.36 2669.3,-539.07 2673.55,-539.88 2673.55,-539.88 2673.55,-539.88 2669.3,-539.07 2674.72,-535.52 2664.06,-538.08"/>
</g>
<!-- public.examination_refuse_wavers -->
<g id="node11" class="node">
<title>public.examination_refuse_wavers</title>
<polygon fill="#efefef" stroke="none" points="3043.23,-570.8 3043.23,-606.4 3433.13,-606.4 3433.13,-570.8 3043.23,-570.8"/>
<polygon fill="none" stroke="black" points="3043.23,-570.8 3043.23,-606.4 3433.13,-606.4 3433.13,-570.8 3043.23,-570.8"/>
<text text-anchor="start" x="3050.23" y="-584.2" font-family="Arial Bold" font-size="18.00">public.examination_refuse_wavers</text>
<text text-anchor="start" x="3301.64" y="-584.2" font-family="Arial" font-size="14.00">    </text>
<text text-anchor="start" x="3332.76" y="-584.2" font-family="Arial" font-size="14.00" fill="#666666">[BASE TABLE]</text>
<polygon fill="none" stroke="black" points="3043.23,-540 3043.23,-570.8 3433.13,-570.8 3433.13,-540 3043.23,-540"/>
<text text-anchor="start" x="3050.23" y="-552.2" font-family="Arial" font-size="14.00">id </text>
<text text-anchor="start" x="3065.02" y="-552.2" font-family="Arial" font-size="14.00" fill="#666666">[bigint]</text>
<polygon fill="none" stroke="black" points="3043.23,-509.2 3043.23,-540 3433.13,-540 3433.13,-509.2 3043.23,-509.2"/>
<text text-anchor="start" x="3050.23" y="-521.4" font-family="Arial" font-size="14.00">checkup_id </text>
<text text-anchor="start" x="3124.95" y="-521.4" font-family="Arial" font-size="14.00" fill="#666666">[bigint]</text>
<polygon fill="none" stroke="black" points="3043.23,-478.4 3043.23,-509.2 3433.13,-509.2 3433.13,-478.4 3043.23,-478.4"/>
<text text-anchor="start" x="3050.23" y="-490.6" font-family="Arial" font-size="14.00">signature_id </text>
<text text-anchor="start" x="3130.4" y="-490.6" font-family="Arial" font-size="14.00" fill="#666666">[bigint]</text>
</g>
<!-- public.examination_refuse_wavers&#45;&gt;public.files -->
<g id="edge14" class="edge">
<title>public.examination_refuse_wavers:signature_id&#45;&gt;public.files:id</title>
<path fill="none" stroke="black" d="M3032.14,-491.56C2980.6,-466.18 3038.83,-232.96 2991.18,-188.8 2873.24,-79.47 1710.49,-58.6 1549.67,-58.6"/>
<polygon fill="black" stroke="black" points="3032.14,-491.56 3040.93,-498.12 3037.35,-492.72 3041.58,-493.65 3041.58,-493.65 3041.58,-493.65 3037.35,-492.72 3042.88,-489.33 3032.14,-491.56"/>
</g>
<!-- public.company_patients -->
<g id="node12" class="node">
<title>public.company_patients</title>
<polygon fill="#efefef" stroke="none" points="3537.71,-632.4 3537.71,-668 3856.66,-668 3856.66,-632.4 3537.71,-632.4"/>
<polygon fill="none" stroke="black" points="3537.71,-632.4 3537.71,-668 3856.66,-668 3856.66,-632.4 3537.71,-632.4"/>
<text text-anchor="start" x="3544.71" y="-645.8" font-family="Arial Bold" font-size="18.00">public.company_patients</text>
<text text-anchor="start" x="3725.17" y="-645.8" font-family="Arial" font-size="14.00">    </text>
<text text-anchor="start" x="3756.28" y="-645.8" font-family="Arial" font-size="14.00" fill="#666666">[BASE TABLE]</text>
<polygon fill="none" stroke="black" points="3537.71,-601.6 3537.71,-632.4 3856.66,-632.4 3856.66,-601.6 3537.71,-601.6"/>
<text text-anchor="start" x="3544.71" y="-613.8" font-family="Arial" font-size="14.00">id </text>
<text text-anchor="start" x="3559.5" y="-613.8" font-family="Arial" font-size="14.00" fill="#666666">[bigint]</text>
<polygon fill="none" stroke="black" points="3537.71,-570.8 3537.71,-601.6 3856.66,-601.6 3856.66,-570.8 3537.71,-570.8"/>
<text text-anchor="start" x="3544.71" y="-583" font-family="Arial" font-size="14.00">phone_number_id </text>
<text text-anchor="start" x="3661.47" y="-583" font-family="Arial" font-size="14.00" fill="#666666">[bigint]</text>
<polygon fill="none" stroke="black" points="3537.71,-540 3537.71,-570.8 3856.66,-570.8 3856.66,-540 3537.71,-540"/>
<text text-anchor="start" x="3544.71" y="-552.2" font-family="Arial" font-size="14.00">sex_id </text>
<text text-anchor="start" x="3589.07" y="-552.2" font-family="Arial" font-size="14.00" fill="#666666">[bigint]</text>
<polygon fill="none" stroke="black" points="3537.71,-509.2 3537.71,-540 3856.66,-540 3856.66,-509.2 3537.71,-509.2"/>
<text text-anchor="start" x="3544.71" y="-521.4" font-family="Arial" font-size="14.00">photo_id </text>
<text text-anchor="start" x="3602.32" y="-521.4" font-family="Arial" font-size="14.00" fill="#666666">[bigint]</text>
<polygon fill="none" stroke="black" points="3537.71,-478.4 3537.71,-509.2 3856.66,-509.2 3856.66,-478.4 3537.71,-478.4"/>
<text text-anchor="start" x="3544.71" y="-490.6" font-family="Arial" font-size="14.00">company_id </text>
<text text-anchor="start" x="3624.09" y="-490.6" font-family="Arial" font-size="14.00" fill="#666666">[bigint]</text>
<polygon fill="none" stroke="black" points="3537.71,-447.6 3537.71,-478.4 3856.66,-478.4 3856.66,-447.6 3537.71,-447.6"/>
<text text-anchor="start" x="3544.71" y="-459.8" font-family="Arial" font-size="14.00">patient_id </text>
<text text-anchor="start" x="3609.32" y="-459.8" font-family="Arial" font-size="14.00" fill="#666666">[bigint]</text>
<polygon fill="none" stroke="black" points="3537.71,-416.8 3537.71,-447.6 3856.66,-447.6 3856.66,-416.8 3537.71,-416.8"/>
<text text-anchor="start" x="3544.71" y="-429" font-family="Arial" font-size="14.00">created_by_user_id </text>
<text text-anchor="start" x="3671.57" y="-429" font-family="Arial" font-size="14.00" fill="#666666">[bigint]</text>
</g>
<!-- public.company_patients&#45;&gt;public.files -->
<g id="edge15" class="edge">
<title>public.company_patients:photo_id&#45;&gt;public.files:id</title>
<path fill="none" stroke="black" d="M3526.73,-522.62C3468.66,-497.35 3538.07,-237.37 3485.18,-188.8 3405.8,-115.9 1657.44,-58.6 1549.67,-58.6"/>
<polygon fill="black" stroke="black" points="3526.57,-522.59 3535.51,-528.95 3531.8,-523.63 3536.05,-524.47 3536.05,-524.47 3536.05,-524.47 3531.8,-523.63 3537.26,-520.12 3526.57,-522.59"/>
</g>
<!-- public.checkup_consent_form -->
<g id="node13" class="node">
<title>public.checkup_consent_form</title>
<polygon fill="#efefef" stroke="none" points="3961.22,-570.8 3961.22,-606.4 4317.14,-606.4 4317.14,-570.8 3961.22,-570.8"/>
<polygon fill="none" stroke="black" points="3961.22,-570.8 3961.22,-606.4 4317.14,-606.4 4317.14,-570.8 3961.22,-570.8"/>
<text text-anchor="start" x="3968.22" y="-584.2" font-family="Arial Bold" font-size="18.00">public.checkup_consent_form</text>
<text text-anchor="start" x="4185.65" y="-584.2" font-family="Arial" font-size="14.00">    </text>
<text text-anchor="start" x="4216.77" y="-584.2" font-family="Arial" font-size="14.00" fill="#666666">[BASE TABLE]</text>
<polygon fill="none" stroke="black" points="3961.22,-540 3961.22,-570.8 4317.14,-570.8 4317.14,-540 3961.22,-540"/>
<text text-anchor="start" x="3968.22" y="-552.2" font-family="Arial" font-size="14.00">checkup_id </text>
<text text-anchor="start" x="4042.94" y="-552.2" font-family="Arial" font-size="14.00" fill="#666666">[bigint]</text>
<polygon fill="none" stroke="black" points="3961.22,-509.2 3961.22,-540 4317.14,-540 4317.14,-509.2 3961.22,-509.2"/>
<text text-anchor="start" x="3968.22" y="-521.4" font-family="Arial" font-size="14.00">pdf_file_id </text>
<text text-anchor="start" x="4035.94" y="-521.4" font-family="Arial" font-size="14.00" fill="#666666">[bigint]</text>
<polygon fill="none" stroke="black" points="3961.22,-478.4 3961.22,-509.2 4317.14,-509.2 4317.14,-478.4 3961.22,-478.4"/>
<text text-anchor="start" x="3968.22" y="-490.6" font-family="Arial" font-size="14.00">consent_form_id </text>
<text text-anchor="start" x="4075.61" y="-490.6" font-family="Arial" font-size="14.00" fill="#666666">[bigint]</text>
</g>
<!-- public.checkup_consent_form&#45;&gt;public.files -->
<g id="edge16" class="edge">
<title>public.checkup_consent_form:pdf_file_id&#45;&gt;public.files:id</title>
<path fill="none" stroke="black" d="M3950.25,-522.62C3892.26,-497.32 3962.32,-237.08 3909.18,-188.8 3812.02,-100.52 1680.95,-58.6 1549.67,-58.6"/>
<polygon fill="black" stroke="black" points="3950.08,-522.59 3959.02,-528.95 3955.32,-523.63 3959.57,-524.47 3959.57,-524.47 3959.57,-524.47 3955.32,-523.63 3960.77,-520.12 3950.08,-522.59"/>
</g>
</g>
</svg>
