<?xml version="1.0" encoding="UTF-8" standalone="no"?>
<!DOCTYPE svg PUBLIC "-//W3C//DTD SVG 1.1//EN"
 "http://www.w3.org/Graphics/SVG/1.1/DTD/svg11.dtd">
<!-- Generated by graphviz version 12.1.2 (20240928.0832)
 -->
<!-- Title: public.prescription_histories Pages: 1 -->
<svg width="1658pt" height="1124pt"
 viewBox="0.00 0.00 1658.33 1123.60" xmlns="http://www.w3.org/2000/svg" xmlns:xlink="http://www.w3.org/1999/xlink">
<g id="graph0" class="graph" transform="scale(1 1) rotate(0) translate(4 1119.6)">
<title>public.prescription_histories</title>
<polygon fill="white" stroke="none" points="-4,4 -4,-1119.6 1654.33,-1119.6 1654.33,4 -4,4"/>
<!-- public.prescription_histories -->
<g id="node1" class="node">
<title>public.prescription_histories</title>
<polygon fill="#efefef" stroke="none" points="46.2,-1021.4 46.2,-1057 390.15,-1057 390.15,-1021.4 46.2,-1021.4"/>
<polygon fill="none" stroke="black" points="46.2,-1021.4 46.2,-1057 390.15,-1057 390.15,-1021.4 46.2,-1021.4"/>
<text text-anchor="start" x="53.2" y="-1034.8" font-family="Arial Bold" font-size="18.00">public.prescription_histories</text>
<text text-anchor="start" x="258.66" y="-1034.8" font-family="Arial" font-size="14.00">    </text>
<text text-anchor="start" x="289.78" y="-1034.8" font-family="Arial" font-size="14.00" fill="#666666">[BASE TABLE]</text>
<polygon fill="none" stroke="black" points="46.2,-990.6 46.2,-1021.4 390.15,-1021.4 390.15,-990.6 46.2,-990.6"/>
<text text-anchor="start" x="53.2" y="-1002.8" font-family="Arial" font-size="14.00">report_id </text>
<text text-anchor="start" x="112.34" y="-1002.8" font-family="Arial" font-size="14.00" fill="#666666">[bigint]</text>
<polygon fill="none" stroke="black" stroke-width="3" points="44.7,-989.1 44.7,-1058.5 391.65,-1058.5 391.65,-989.1 44.7,-989.1"/>
</g>
<!-- public.reports -->
<g id="node2" class="node">
<title>public.reports</title>
<polygon fill="#efefef" stroke="none" points="701.61,-817.2 701.61,-852.8 946.74,-852.8 946.74,-817.2 701.61,-817.2"/>
<polygon fill="none" stroke="black" points="701.61,-817.2 701.61,-852.8 946.74,-852.8 946.74,-817.2 701.61,-817.2"/>
<text text-anchor="start" x="712.19" y="-830.6" font-family="Arial Bold" font-size="18.00">public.reports</text>
<text text-anchor="start" x="811.67" y="-830.6" font-family="Arial" font-size="14.00">    </text>
<text text-anchor="start" x="842.79" y="-830.6" font-family="Arial" font-size="14.00" fill="#666666">[BASE TABLE]</text>
<polygon fill="none" stroke="black" points="701.61,-786.4 701.61,-817.2 946.74,-817.2 946.74,-786.4 701.61,-786.4"/>
<text text-anchor="start" x="708.61" y="-798.6" font-family="Arial" font-size="14.00">id </text>
<text text-anchor="start" x="723.39" y="-798.6" font-family="Arial" font-size="14.00" fill="#666666">[bigint]</text>
<polygon fill="none" stroke="black" points="701.61,-755.6 701.61,-786.4 946.74,-786.4 946.74,-755.6 701.61,-755.6"/>
<text text-anchor="start" x="708.61" y="-767.8" font-family="Arial" font-size="14.00">user_id </text>
<text text-anchor="start" x="758.41" y="-767.8" font-family="Arial" font-size="14.00" fill="#666666">[bigint]</text>
<polygon fill="none" stroke="black" points="701.61,-724.8 701.61,-755.6 946.74,-755.6 946.74,-724.8 701.61,-724.8"/>
<text text-anchor="start" x="708.61" y="-737" font-family="Arial" font-size="14.00">checkup_id </text>
<text text-anchor="start" x="783.32" y="-737" font-family="Arial" font-size="14.00" fill="#666666">[bigint]</text>
<polygon fill="none" stroke="black" points="701.61,-694 701.61,-724.8 946.74,-724.8 946.74,-694 701.61,-694"/>
<text text-anchor="start" x="708.61" y="-706.2" font-family="Arial" font-size="14.00">form_id </text>
<text text-anchor="start" x="759.18" y="-706.2" font-family="Arial" font-size="14.00" fill="#666666">[bigint]</text>
<polygon fill="none" stroke="black" points="701.61,-663.2 701.61,-694 946.74,-694 946.74,-663.2 701.61,-663.2"/>
<text text-anchor="start" x="708.61" y="-675.4" font-family="Arial" font-size="14.00">examination_refuse_waver_id </text>
<text text-anchor="start" x="898.5" y="-675.4" font-family="Arial" font-size="14.00" fill="#666666">[bigint]</text>
</g>
<!-- public.prescription_histories&#45;&gt;public.reports -->
<g id="edge1" class="edge">
<title>public.prescription_histories:report_id&#45;&gt;public.reports:id</title>
<path fill="none" stroke="black" d="M401.51,-1004.7C428.88,-996.91 417.21,-955.83 445.18,-932 542.16,-849.35 573.18,-801.8 700.61,-801.8"/>
<polygon fill="black" stroke="black" points="401.41,-1004.72 390.92,-1001.49 396.11,-1005.38 391.81,-1005.92 391.81,-1005.92 391.81,-1005.92 396.11,-1005.38 392.04,-1010.42 401.41,-1004.72"/>
</g>
<!-- public.users -->
<g id="node6" class="node">
<title>public.users</title>
<polygon fill="#efefef" stroke="none" points="194.69,-505.2 194.69,-540.8 419.66,-540.8 419.66,-505.2 194.69,-505.2"/>
<polygon fill="none" stroke="black" points="194.69,-505.2 194.69,-540.8 419.66,-540.8 419.66,-505.2 194.69,-505.2"/>
<text text-anchor="start" x="201.69" y="-518.6" font-family="Arial Bold" font-size="18.00">public.users</text>
<text text-anchor="start" x="288.17" y="-518.6" font-family="Arial" font-size="14.00">    </text>
<text text-anchor="start" x="319.29" y="-518.6" font-family="Arial" font-size="14.00" fill="#666666">[BASE TABLE]</text>
<polygon fill="none" stroke="black" points="194.69,-474.4 194.69,-505.2 419.66,-505.2 419.66,-474.4 194.69,-474.4"/>
<text text-anchor="start" x="201.69" y="-486.6" font-family="Arial" font-size="14.00">id </text>
<text text-anchor="start" x="216.47" y="-486.6" font-family="Arial" font-size="14.00" fill="#666666">[bigint]</text>
<polygon fill="none" stroke="black" points="194.69,-443.6 194.69,-474.4 419.66,-474.4 419.66,-443.6 194.69,-443.6"/>
<text text-anchor="start" x="201.69" y="-455.8" font-family="Arial" font-size="14.00">email </text>
<text text-anchor="start" x="239.03" y="-455.8" font-family="Arial" font-size="14.00" fill="#666666">[varchar(255)]</text>
<polygon fill="none" stroke="black" points="194.69,-412.8 194.69,-443.6 419.66,-443.6 419.66,-412.8 194.69,-412.8"/>
<text text-anchor="start" x="201.69" y="-425" font-family="Arial" font-size="14.00">branch_id </text>
<text text-anchor="start" x="267.07" y="-425" font-family="Arial" font-size="14.00" fill="#666666">[bigint]</text>
<polygon fill="none" stroke="black" points="194.69,-382 194.69,-412.8 419.66,-412.8 419.66,-382 194.69,-382"/>
<text text-anchor="start" x="201.69" y="-394.2" font-family="Arial" font-size="14.00">sex_id </text>
<text text-anchor="start" x="246.05" y="-394.2" font-family="Arial" font-size="14.00" fill="#666666">[bigint]</text>
<polygon fill="none" stroke="black" points="194.69,-351.2 194.69,-382 419.66,-382 419.66,-351.2 194.69,-351.2"/>
<text text-anchor="start" x="201.69" y="-363.4" font-family="Arial" font-size="14.00">user_status_id </text>
<text text-anchor="start" x="296.63" y="-363.4" font-family="Arial" font-size="14.00" fill="#666666">[bigint]</text>
<polygon fill="none" stroke="black" points="194.69,-320.4 194.69,-351.2 419.66,-351.2 419.66,-320.4 194.69,-320.4"/>
<text text-anchor="start" x="201.69" y="-332.6" font-family="Arial" font-size="14.00">nationality_id </text>
<text text-anchor="start" x="287.3" y="-332.6" font-family="Arial" font-size="14.00" fill="#666666">[bigint]</text>
<polygon fill="none" stroke="black" points="194.69,-289.6 194.69,-320.4 419.66,-320.4 419.66,-289.6 194.69,-289.6"/>
<text text-anchor="start" x="201.69" y="-301.8" font-family="Arial" font-size="14.00">city_id </text>
<text text-anchor="start" x="245.26" y="-301.8" font-family="Arial" font-size="14.00" fill="#666666">[bigint]</text>
<polygon fill="none" stroke="black" points="194.69,-258.8 194.69,-289.6 419.66,-289.6 419.66,-258.8 194.69,-258.8"/>
<text text-anchor="start" x="201.69" y="-271" font-family="Arial" font-size="14.00">image_id </text>
<text text-anchor="start" x="262.39" y="-271" font-family="Arial" font-size="14.00" fill="#666666">[bigint]</text>
<polygon fill="none" stroke="black" points="194.69,-228 194.69,-258.8 419.66,-258.8 419.66,-228 194.69,-228"/>
<text text-anchor="start" x="201.69" y="-240.2" font-family="Arial" font-size="14.00">signature_image_id </text>
<text text-anchor="start" x="327.77" y="-240.2" font-family="Arial" font-size="14.00" fill="#666666">[bigint]</text>
<polygon fill="none" stroke="black" points="194.69,-197.2 194.69,-228 419.66,-228 419.66,-197.2 194.69,-197.2"/>
<text text-anchor="start" x="201.69" y="-209.4" font-family="Arial" font-size="14.00">position_id </text>
<text text-anchor="start" x="272.52" y="-209.4" font-family="Arial" font-size="14.00" fill="#666666">[bigint]</text>
<polygon fill="none" stroke="black" points="194.69,-166.4 194.69,-197.2 419.66,-197.2 419.66,-166.4 194.69,-166.4"/>
<text text-anchor="start" x="201.69" y="-178.6" font-family="Arial" font-size="14.00">mobile_number_id </text>
<text text-anchor="start" x="320.76" y="-178.6" font-family="Arial" font-size="14.00" fill="#666666">[bigint]</text>
<polygon fill="none" stroke="black" points="194.69,-135.6 194.69,-166.4 419.66,-166.4 419.66,-135.6 194.69,-135.6"/>
<text text-anchor="start" x="201.69" y="-147.8" font-family="Arial" font-size="14.00">home_number_id </text>
<text text-anchor="start" x="314.54" y="-147.8" font-family="Arial" font-size="14.00" fill="#666666">[bigint]</text>
<polygon fill="none" stroke="black" points="194.69,-104.8 194.69,-135.6 419.66,-135.6 419.66,-104.8 194.69,-104.8"/>
<text text-anchor="start" x="201.69" y="-117" font-family="Arial" font-size="14.00">bank_id </text>
<text text-anchor="start" x="254.62" y="-117" font-family="Arial" font-size="14.00" fill="#666666">[bigint]</text>
<polygon fill="none" stroke="black" points="194.69,-74 194.69,-104.8 419.66,-104.8 419.66,-74 194.69,-74"/>
<text text-anchor="start" x="201.69" y="-86.2" font-family="Arial" font-size="14.00">created_by_user_id </text>
<text text-anchor="start" x="328.55" y="-86.2" font-family="Arial" font-size="14.00" fill="#666666">[bigint]</text>
<polygon fill="none" stroke="black" points="194.69,-43.2 194.69,-74 419.66,-74 419.66,-43.2 194.69,-43.2"/>
<text text-anchor="start" x="201.69" y="-55.4" font-family="Arial" font-size="14.00">profile_status_id </text>
<text text-anchor="start" x="307.53" y="-55.4" font-family="Arial" font-size="14.00" fill="#666666">[bigint]</text>
</g>
<!-- public.reports&#45;&gt;public.users -->
<g id="edge5" class="edge">
<title>public.reports:user_id&#45;&gt;public.users:id</title>
<path fill="none" stroke="black" d="M690.44,-770.82C568.26,-766.48 552.66,-682.82 471.18,-584 440.95,-547.35 468.17,-489.8 420.66,-489.8"/>
<polygon fill="black" stroke="black" points="690.27,-770.82 700.19,-775.49 695.61,-770.91 699.94,-770.99 699.94,-770.99 699.94,-770.99 695.61,-770.91 700.35,-766.49 690.27,-770.82"/>
</g>
<!-- public.checkups -->
<g id="node7" class="node">
<title>public.checkups</title>
<polygon fill="#efefef" stroke="none" points="523.7,-366.6 523.7,-402.2 778.65,-402.2 778.65,-366.6 523.7,-366.6"/>
<polygon fill="none" stroke="black" points="523.7,-366.6 523.7,-402.2 778.65,-402.2 778.65,-366.6 523.7,-366.6"/>
<text text-anchor="start" x="530.7" y="-380" font-family="Arial Bold" font-size="18.00">public.checkups</text>
<text text-anchor="start" x="647.16" y="-380" font-family="Arial" font-size="14.00">    </text>
<text text-anchor="start" x="678.28" y="-380" font-family="Arial" font-size="14.00" fill="#666666">[BASE TABLE]</text>
<polygon fill="none" stroke="black" points="523.7,-335.8 523.7,-366.6 778.65,-366.6 778.65,-335.8 523.7,-335.8"/>
<text text-anchor="start" x="530.7" y="-348" font-family="Arial" font-size="14.00">id </text>
<text text-anchor="start" x="545.49" y="-348" font-family="Arial" font-size="14.00" fill="#666666">[bigint]</text>
<polygon fill="none" stroke="black" points="523.7,-305 523.7,-335.8 778.65,-335.8 778.65,-305 523.7,-305"/>
<text text-anchor="start" x="530.7" y="-317.2" font-family="Arial" font-size="14.00">patient_id </text>
<text text-anchor="start" x="595.31" y="-317.2" font-family="Arial" font-size="14.00" fill="#666666">[bigint]</text>
<polygon fill="none" stroke="black" points="523.7,-274.2 523.7,-305 778.65,-305 778.65,-274.2 523.7,-274.2"/>
<text text-anchor="start" x="530.7" y="-286.4" font-family="Arial" font-size="14.00">branch_id </text>
<text text-anchor="start" x="596.08" y="-286.4" font-family="Arial" font-size="14.00" fill="#666666">[bigint]</text>
<polygon fill="none" stroke="black" points="523.7,-243.4 523.7,-274.2 778.65,-274.2 778.65,-243.4 523.7,-243.4"/>
<text text-anchor="start" x="530.7" y="-255.6" font-family="Arial" font-size="14.00">created_by_user_id </text>
<text text-anchor="start" x="657.56" y="-255.6" font-family="Arial" font-size="14.00" fill="#666666">[bigint]</text>
<polygon fill="none" stroke="black" points="523.7,-212.6 523.7,-243.4 778.65,-243.4 778.65,-212.6 523.7,-212.6"/>
<text text-anchor="start" x="530.7" y="-224.8" font-family="Arial" font-size="14.00">company_lot_id </text>
<text text-anchor="start" x="632.65" y="-224.8" font-family="Arial" font-size="14.00" fill="#666666">[bigint]</text>
<polygon fill="none" stroke="black" points="523.7,-181.8 523.7,-212.6 778.65,-212.6 778.65,-181.8 523.7,-181.8"/>
<text text-anchor="start" x="530.7" y="-194" font-family="Arial" font-size="14.00">company_id </text>
<text text-anchor="start" x="610.08" y="-194" font-family="Arial" font-size="14.00" fill="#666666">[bigint]</text>
</g>
<!-- public.reports&#45;&gt;public.checkups -->
<g id="edge6" class="edge">
<title>public.reports:checkup_id&#45;&gt;public.checkups:id</title>
<path fill="none" stroke="black" d="M690.51,-739.72C541.64,-724.41 952.46,-351.2 779.65,-351.2"/>
<polygon fill="black" stroke="black" points="690.28,-739.7 700.06,-744.68 695.61,-739.96 699.94,-740.17 699.94,-740.17 699.94,-740.17 695.61,-739.96 700.49,-735.69 690.28,-739.7"/>
</g>
<!-- public.forms -->
<g id="node8" class="node">
<title>public.forms</title>
<polygon fill="#efefef" stroke="none" points="883.19,-289.6 883.19,-325.2 1113.16,-325.2 1113.16,-289.6 883.19,-289.6"/>
<polygon fill="none" stroke="black" points="883.19,-289.6 883.19,-325.2 1113.16,-325.2 1113.16,-289.6 883.19,-289.6"/>
<text text-anchor="start" x="890.19" y="-303" font-family="Arial Bold" font-size="18.00">public.forms</text>
<text text-anchor="start" x="981.67" y="-303" font-family="Arial" font-size="14.00">    </text>
<text text-anchor="start" x="1012.79" y="-303" font-family="Arial" font-size="14.00" fill="#666666">[BASE TABLE]</text>
<polygon fill="none" stroke="black" points="883.19,-258.8 883.19,-289.6 1113.16,-289.6 1113.16,-258.8 883.19,-258.8"/>
<text text-anchor="start" x="890.19" y="-271" font-family="Arial" font-size="14.00">id </text>
<text text-anchor="start" x="904.97" y="-271" font-family="Arial" font-size="14.00" fill="#666666">[bigint]</text>
</g>
<!-- public.reports&#45;&gt;public.forms -->
<g id="edge7" class="edge">
<title>public.reports:form_id&#45;&gt;public.forms:id</title>
<path fill="none" stroke="black" d="M957.97,-708.96C1126.62,-693.4 690.21,-274.2 882.19,-274.2"/>
<polygon fill="black" stroke="black" points="958.07,-708.95 947.88,-704.89 952.74,-709.18 948.41,-709.37 948.41,-709.37 948.41,-709.37 952.74,-709.18 948.27,-713.88 958.07,-708.95"/>
</g>
<!-- public.examination_refuse_wavers -->
<g id="node9" class="node">
<title>public.examination_refuse_wavers</title>
<polygon fill="#efefef" stroke="none" points="1217.23,-320.4 1217.23,-356 1607.13,-356 1607.13,-320.4 1217.23,-320.4"/>
<polygon fill="none" stroke="black" points="1217.23,-320.4 1217.23,-356 1607.13,-356 1607.13,-320.4 1217.23,-320.4"/>
<text text-anchor="start" x="1224.23" y="-333.8" font-family="Arial Bold" font-size="18.00">public.examination_refuse_wavers</text>
<text text-anchor="start" x="1475.64" y="-333.8" font-family="Arial" font-size="14.00">    </text>
<text text-anchor="start" x="1506.75" y="-333.8" font-family="Arial" font-size="14.00" fill="#666666">[BASE TABLE]</text>
<polygon fill="none" stroke="black" points="1217.23,-289.6 1217.23,-320.4 1607.13,-320.4 1607.13,-289.6 1217.23,-289.6"/>
<text text-anchor="start" x="1224.23" y="-301.8" font-family="Arial" font-size="14.00">id </text>
<text text-anchor="start" x="1239.01" y="-301.8" font-family="Arial" font-size="14.00" fill="#666666">[bigint]</text>
<polygon fill="none" stroke="black" points="1217.23,-258.8 1217.23,-289.6 1607.13,-289.6 1607.13,-258.8 1217.23,-258.8"/>
<text text-anchor="start" x="1224.23" y="-271" font-family="Arial" font-size="14.00">checkup_id </text>
<text text-anchor="start" x="1298.94" y="-271" font-family="Arial" font-size="14.00" fill="#666666">[bigint]</text>
<polygon fill="none" stroke="black" points="1217.23,-228 1217.23,-258.8 1607.13,-258.8 1607.13,-228 1217.23,-228"/>
<text text-anchor="start" x="1224.23" y="-240.2" font-family="Arial" font-size="14.00">signature_id </text>
<text text-anchor="start" x="1304.39" y="-240.2" font-family="Arial" font-size="14.00" fill="#666666">[bigint]</text>
</g>
<!-- public.reports&#45;&gt;public.examination_refuse_wavers -->
<g id="edge8" class="edge">
<title>public.reports:examination_refuse_waver_id&#45;&gt;public.examination_refuse_wavers:id</title>
<path fill="none" stroke="black" d="M958.05,-678.56C1056.24,-677.72 1101.85,-663.82 1165.18,-584 1204.35,-534.62 1153.2,-305 1216.23,-305"/>
<polygon fill="black" stroke="black" points="958.08,-678.56 948.06,-674.1 952.74,-678.58 948.41,-678.6 948.41,-678.6 948.41,-678.6 952.74,-678.58 948.1,-683.1 958.08,-678.56"/>
</g>
<!-- public.file_report -->
<g id="node3" class="node">
<title>public.file_report</title>
<polygon fill="#efefef" stroke="none" points="497.2,-1036.8 497.2,-1072.4 761.15,-1072.4 761.15,-1036.8 497.2,-1036.8"/>
<polygon fill="none" stroke="black" points="497.2,-1036.8 497.2,-1072.4 761.15,-1072.4 761.15,-1036.8 497.2,-1036.8"/>
<text text-anchor="start" x="504.2" y="-1050.2" font-family="Arial Bold" font-size="18.00">public.file_report</text>
<text text-anchor="start" x="629.66" y="-1050.2" font-family="Arial" font-size="14.00">    </text>
<text text-anchor="start" x="660.78" y="-1050.2" font-family="Arial" font-size="14.00" fill="#666666">[BASE TABLE]</text>
<polygon fill="none" stroke="black" points="497.2,-1006 497.2,-1036.8 761.15,-1036.8 761.15,-1006 497.2,-1006"/>
<text text-anchor="start" x="504.2" y="-1018.2" font-family="Arial" font-size="14.00">file_id </text>
<text text-anchor="start" x="544.67" y="-1018.2" font-family="Arial" font-size="14.00" fill="#666666">[bigint]</text>
<polygon fill="none" stroke="black" points="497.2,-975.2 497.2,-1006 761.15,-1006 761.15,-975.2 497.2,-975.2"/>
<text text-anchor="start" x="504.2" y="-987.4" font-family="Arial" font-size="14.00">report_id </text>
<text text-anchor="start" x="563.35" y="-987.4" font-family="Arial" font-size="14.00" fill="#666666">[bigint]</text>
</g>
<!-- public.file_report&#45;&gt;public.reports -->
<g id="edge2" class="edge">
<title>public.file_report:report_id&#45;&gt;public.reports:id</title>
<path fill="none" stroke="black" d="M771.91,-987.91C783.61,-979.14 772.01,-950.87 761.15,-932 745.73,-905.2 716.94,-922.85 701.61,-896 680.85,-859.64 658.74,-801.8 700.61,-801.8"/>
<polygon fill="black" stroke="black" points="772.11,-987.85 761.27,-986.17 766.97,-989.27 762.79,-990.42 762.79,-990.42 762.79,-990.42 766.97,-989.27 763.67,-994.85 772.11,-987.85"/>
</g>
<!-- public.change_requests -->
<g id="node4" class="node">
<title>public.change_requests</title>
<polygon fill="#efefef" stroke="none" points="865.71,-1036.8 865.71,-1072.4 1172.64,-1072.4 1172.64,-1036.8 865.71,-1036.8"/>
<polygon fill="none" stroke="black" points="865.71,-1036.8 865.71,-1072.4 1172.64,-1072.4 1172.64,-1036.8 865.71,-1036.8"/>
<text text-anchor="start" x="872.71" y="-1050.2" font-family="Arial Bold" font-size="18.00">public.change_requests</text>
<text text-anchor="start" x="1041.15" y="-1050.2" font-family="Arial" font-size="14.00">    </text>
<text text-anchor="start" x="1072.27" y="-1050.2" font-family="Arial" font-size="14.00" fill="#666666">[BASE TABLE]</text>
<polygon fill="none" stroke="black" points="865.71,-1006 865.71,-1036.8 1172.64,-1036.8 1172.64,-1006 865.71,-1006"/>
<text text-anchor="start" x="872.71" y="-1018.2" font-family="Arial" font-size="14.00">requested_by_user_id </text>
<text text-anchor="start" x="1015.14" y="-1018.2" font-family="Arial" font-size="14.00" fill="#666666">[bigint]</text>
<polygon fill="none" stroke="black" points="865.71,-975.2 865.71,-1006 1172.64,-1006 1172.64,-975.2 865.71,-975.2"/>
<text text-anchor="start" x="872.71" y="-987.4" font-family="Arial" font-size="14.00">report_id </text>
<text text-anchor="start" x="931.85" y="-987.4" font-family="Arial" font-size="14.00" fill="#666666">[bigint]</text>
</g>
<!-- public.change_requests&#45;&gt;public.reports -->
<g id="edge3" class="edge">
<title>public.change_requests:report_id&#45;&gt;public.reports:id</title>
<path fill="none" stroke="black" d="M854.85,-987.85C842.86,-978.91 853.69,-950.16 865.71,-932 887.47,-899.14 925.09,-928.93 946.74,-896 969.75,-861.02 989.61,-801.8 947.74,-801.8"/>
<polygon fill="black" stroke="black" points="854.75,-987.82 863.18,-994.84 859.89,-989.26 864.07,-990.42 864.07,-990.42 864.07,-990.42 859.89,-989.26 865.6,-986.18 854.75,-987.82"/>
</g>
<!-- public.internal_reports -->
<g id="node5" class="node">
<title>public.internal_reports</title>
<polygon fill="#efefef" stroke="none" points="1277.21,-1021.4 1277.21,-1057 1579.15,-1057 1579.15,-1021.4 1277.21,-1021.4"/>
<polygon fill="none" stroke="black" points="1277.21,-1021.4 1277.21,-1057 1579.15,-1057 1579.15,-1021.4 1277.21,-1021.4"/>
<text text-anchor="start" x="1284.21" y="-1034.8" font-family="Arial Bold" font-size="18.00">public.internal_reports</text>
<text text-anchor="start" x="1447.66" y="-1034.8" font-family="Arial" font-size="14.00">    </text>
<text text-anchor="start" x="1478.77" y="-1034.8" font-family="Arial" font-size="14.00" fill="#666666">[BASE TABLE]</text>
<polygon fill="none" stroke="black" points="1277.21,-990.6 1277.21,-1021.4 1579.15,-1021.4 1579.15,-990.6 1277.21,-990.6"/>
<text text-anchor="start" x="1284.21" y="-1002.8" font-family="Arial" font-size="14.00">report_id </text>
<text text-anchor="start" x="1343.35" y="-1002.8" font-family="Arial" font-size="14.00" fill="#666666">[bigint]</text>
</g>
<!-- public.internal_reports&#45;&gt;public.reports -->
<g id="edge4" class="edge">
<title>public.internal_reports:report_id&#45;&gt;public.reports:id</title>
<path fill="none" stroke="black" d="M1266.1,-1004.69C1239.57,-996.8 1252.68,-955.3 1225.18,-932 1121.26,-843.95 1083.95,-801.8 947.74,-801.8"/>
<polygon fill="black" stroke="black" points="1265.96,-1004.67 1275.29,-1010.42 1271.25,-1005.36 1275.54,-1005.91 1275.54,-1005.91 1275.54,-1005.91 1271.25,-1005.36 1276.45,-1001.49 1265.96,-1004.67"/>
</g>
</g>
</svg>
