<?xml version="1.0" encoding="UTF-8" standalone="no"?>
<!DOCTYPE svg PUBLIC "-//W3C//DTD SVG 1.1//EN"
 "http://www.w3.org/Graphics/SVG/1.1/DTD/svg11.dtd">
<!-- Generated by graphviz version 12.1.2 (20240928.0832)
 -->
<!-- Title: public.department_service Pages: 1 -->
<svg width="4548pt" height="908pt"
 viewBox="0.00 0.00 4547.83 908.00" xmlns="http://www.w3.org/2000/svg" xmlns:xlink="http://www.w3.org/1999/xlink">
<g id="graph0" class="graph" transform="scale(1 1) rotate(0) translate(4 904)">
<title>public.department_service</title>
<polygon fill="white" stroke="none" points="-4,4 -4,-904 4543.83,-904 4543.83,4 -4,4"/>
<!-- public.department_service -->
<g id="node1" class="node">
<title>public.department_service</title>
<polygon fill="#efefef" stroke="none" points="197.22,-790.4 197.22,-826 526.13,-826 526.13,-790.4 197.22,-790.4"/>
<polygon fill="none" stroke="black" points="197.22,-790.4 197.22,-826 526.13,-826 526.13,-790.4 197.22,-790.4"/>
<text text-anchor="start" x="204.22" y="-803.8" font-family="Arial Bold" font-size="18.00">public.department_service</text>
<text text-anchor="start" x="394.64" y="-803.8" font-family="Arial" font-size="14.00">    </text>
<text text-anchor="start" x="425.76" y="-803.8" font-family="Arial" font-size="14.00" fill="#666666">[BASE TABLE]</text>
<polygon fill="none" stroke="black" points="197.22,-759.6 197.22,-790.4 526.13,-790.4 526.13,-759.6 197.22,-759.6"/>
<text text-anchor="start" x="204.22" y="-771.8" font-family="Arial" font-size="14.00">department_id </text>
<text text-anchor="start" x="297.61" y="-771.8" font-family="Arial" font-size="14.00" fill="#666666">[bigint]</text>
<polygon fill="none" stroke="black" points="197.22,-728.8 197.22,-759.6 526.13,-759.6 526.13,-728.8 197.22,-728.8"/>
<text text-anchor="start" x="204.22" y="-741" font-family="Arial" font-size="14.00">service_id </text>
<text text-anchor="start" x="271.14" y="-741" font-family="Arial" font-size="14.00" fill="#666666">[bigint]</text>
<polygon fill="none" stroke="black" stroke-width="3" points="195.72,-727.3 195.72,-827.5 527.63,-827.5 527.63,-727.3 195.72,-727.3"/>
</g>
<!-- public.departments -->
<g id="node2" class="node">
<title>public.departments</title>
<polygon fill="#efefef" stroke="none" points="223.7,-540 223.7,-575.6 499.65,-575.6 499.65,-540 223.7,-540"/>
<polygon fill="none" stroke="black" points="223.7,-540 223.7,-575.6 499.65,-575.6 499.65,-540 223.7,-540"/>
<text text-anchor="start" x="230.7" y="-553.4" font-family="Arial Bold" font-size="18.00">public.departments</text>
<text text-anchor="start" x="368.16" y="-553.4" font-family="Arial" font-size="14.00">    </text>
<text text-anchor="start" x="399.28" y="-553.4" font-family="Arial" font-size="14.00" fill="#666666">[BASE TABLE]</text>
<polygon fill="none" stroke="black" points="223.7,-509.2 223.7,-540 499.65,-540 499.65,-509.2 223.7,-509.2"/>
<text text-anchor="start" x="230.7" y="-521.4" font-family="Arial" font-size="14.00">id </text>
<text text-anchor="start" x="245.49" y="-521.4" font-family="Arial" font-size="14.00" fill="#666666">[bigint]</text>
<polygon fill="none" stroke="black" points="223.7,-478.4 223.7,-509.2 499.65,-509.2 499.65,-478.4 223.7,-478.4"/>
<text text-anchor="start" x="230.7" y="-490.6" font-family="Arial" font-size="14.00">company_id </text>
<text text-anchor="start" x="310.08" y="-490.6" font-family="Arial" font-size="14.00" fill="#666666">[bigint]</text>
<polygon fill="none" stroke="black" points="223.7,-447.6 223.7,-478.4 499.65,-478.4 499.65,-447.6 223.7,-447.6"/>
<text text-anchor="start" x="230.7" y="-459.8" font-family="Arial" font-size="14.00">frequency_id </text>
<text text-anchor="start" x="314.76" y="-459.8" font-family="Arial" font-size="14.00" fill="#666666">[bigint]</text>
</g>
<!-- public.department_service&#45;&gt;public.departments -->
<g id="edge1" class="edge">
<title>public.department_service:department_id&#45;&gt;public.departments:id</title>
<path fill="none" stroke="black" d="M536.94,-772.01C579.55,-743.76 553,-524.6 500.65,-524.6"/>
<polygon fill="black" stroke="black" points="537.02,-771.99 526.14,-770.6 531.92,-773.54 527.77,-774.81 527.77,-774.81 527.77,-774.81 531.92,-773.54 528.77,-779.21 537.02,-771.99"/>
</g>
<!-- public.services -->
<g id="node5" class="node">
<title>public.services</title>
<polygon fill="#efefef" stroke="none" points="2133.7,-540 2133.7,-575.6 2379.65,-575.6 2379.65,-540 2133.7,-540"/>
<polygon fill="none" stroke="black" points="2133.7,-540 2133.7,-575.6 2379.65,-575.6 2379.65,-540 2133.7,-540"/>
<text text-anchor="start" x="2140.7" y="-553.4" font-family="Arial Bold" font-size="18.00">public.services</text>
<text text-anchor="start" x="2248.16" y="-553.4" font-family="Arial" font-size="14.00">    </text>
<text text-anchor="start" x="2279.28" y="-553.4" font-family="Arial" font-size="14.00" fill="#666666">[BASE TABLE]</text>
<polygon fill="none" stroke="black" points="2133.7,-509.2 2133.7,-540 2379.65,-540 2379.65,-509.2 2133.7,-509.2"/>
<text text-anchor="start" x="2140.7" y="-521.4" font-family="Arial" font-size="14.00">id </text>
<text text-anchor="start" x="2155.49" y="-521.4" font-family="Arial" font-size="14.00" fill="#666666">[bigint]</text>
<polygon fill="none" stroke="black" points="2133.7,-478.4 2133.7,-509.2 2379.65,-509.2 2379.65,-478.4 2133.7,-478.4"/>
<text text-anchor="start" x="2140.7" y="-490.6" font-family="Arial" font-size="14.00">attune_department_id </text>
<text text-anchor="start" x="2280.8" y="-490.6" font-family="Arial" font-size="14.00" fill="#666666">[bigint]</text>
<polygon fill="none" stroke="black" points="2133.7,-447.6 2133.7,-478.4 2379.65,-478.4 2379.65,-447.6 2133.7,-447.6"/>
<text text-anchor="start" x="2140.7" y="-459.8" font-family="Arial" font-size="14.00">simple_cate_id </text>
<text text-anchor="start" x="2237.98" y="-459.8" font-family="Arial" font-size="14.00" fill="#666666">[bigint]</text>
</g>
<!-- public.department_service&#45;&gt;public.services -->
<g id="edge4" class="edge">
<title>public.department_service:service_id&#45;&gt;public.services:id</title>
<path fill="none" stroke="black" d="M537.09,-742.95C568.97,-733.82 545.33,-677.25 581.68,-654.8 728.81,-563.91 1959.76,-524.6 2132.7,-524.6"/>
<polygon fill="black" stroke="black" points="537.39,-742.91 526.9,-739.69 532.09,-743.58 527.8,-744.12 527.8,-744.12 527.8,-744.12 532.09,-743.58 528.03,-748.62 537.39,-742.91"/>
</g>
<!-- public.companies -->
<g id="node3" class="node">
<title>public.companies</title>
<polygon fill="#efefef" stroke="none" points="43.2,-289.6 43.2,-325.2 308.16,-325.2 308.16,-289.6 43.2,-289.6"/>
<polygon fill="none" stroke="black" points="43.2,-289.6 43.2,-325.2 308.16,-325.2 308.16,-289.6 43.2,-289.6"/>
<text text-anchor="start" x="50.2" y="-303" font-family="Arial Bold" font-size="18.00">public.companies</text>
<text text-anchor="start" x="176.67" y="-303" font-family="Arial" font-size="14.00">    </text>
<text text-anchor="start" x="207.78" y="-303" font-family="Arial" font-size="14.00" fill="#666666">[BASE TABLE]</text>
<polygon fill="none" stroke="black" points="43.2,-258.8 43.2,-289.6 308.16,-289.6 308.16,-258.8 43.2,-258.8"/>
<text text-anchor="start" x="50.2" y="-271" font-family="Arial" font-size="14.00">id </text>
<text text-anchor="start" x="64.99" y="-271" font-family="Arial" font-size="14.00" fill="#666666">[bigint]</text>
<polygon fill="none" stroke="black" points="43.2,-228 43.2,-258.8 308.16,-258.8 308.16,-228 43.2,-228"/>
<text text-anchor="start" x="50.2" y="-240.2" font-family="Arial" font-size="14.00">branch_id </text>
<text text-anchor="start" x="115.58" y="-240.2" font-family="Arial" font-size="14.00" fill="#666666">[integer]</text>
<polygon fill="none" stroke="black" points="43.2,-197.2 43.2,-228 308.16,-228 308.16,-197.2 43.2,-197.2"/>
<text text-anchor="start" x="50.2" y="-209.4" font-family="Arial" font-size="14.00">logo_id </text>
<text text-anchor="start" x="99.24" y="-209.4" font-family="Arial" font-size="14.00" fill="#666666">[bigint]</text>
<polygon fill="none" stroke="black" points="43.2,-166.4 43.2,-197.2 308.16,-197.2 308.16,-166.4 43.2,-166.4"/>
<text text-anchor="start" x="50.2" y="-178.6" font-family="Arial" font-size="14.00">city_id </text>
<text text-anchor="start" x="93.77" y="-178.6" font-family="Arial" font-size="14.00" fill="#666666">[bigint]</text>
<polygon fill="none" stroke="black" points="43.2,-135.6 43.2,-166.4 308.16,-166.4 308.16,-135.6 43.2,-135.6"/>
<text text-anchor="start" x="50.2" y="-147.8" font-family="Arial" font-size="14.00">phone_number_id </text>
<text text-anchor="start" x="166.96" y="-147.8" font-family="Arial" font-size="14.00" fill="#666666">[bigint]</text>
<polygon fill="none" stroke="black" points="43.2,-104.8 43.2,-135.6 308.16,-135.6 308.16,-104.8 43.2,-104.8"/>
<text text-anchor="start" x="50.2" y="-117" font-family="Arial" font-size="14.00">created_by_user_id </text>
<text text-anchor="start" x="177.06" y="-117" font-family="Arial" font-size="14.00" fill="#666666">[integer]</text>
<polygon fill="none" stroke="black" points="43.2,-74 43.2,-104.8 308.16,-104.8 308.16,-74 43.2,-74"/>
<text text-anchor="start" x="50.2" y="-86.2" font-family="Arial" font-size="14.00">owned_by_user_id </text>
<text text-anchor="start" x="171.62" y="-86.2" font-family="Arial" font-size="14.00" fill="#666666">[integer]</text>
<polygon fill="none" stroke="black" points="43.2,-43.2 43.2,-74 308.16,-74 308.16,-43.2 43.2,-43.2"/>
<text text-anchor="start" x="50.2" y="-55.4" font-family="Arial" font-size="14.00">supervisor_user_id </text>
<text text-anchor="start" x="172.37" y="-55.4" font-family="Arial" font-size="14.00" fill="#666666">[bigint]</text>
</g>
<!-- public.departments&#45;&gt;public.companies -->
<g id="edge2" class="edge">
<title>public.departments:company_id&#45;&gt;public.companies:id</title>
<path fill="none" stroke="black" d="M212.68,-492.26C186.64,-483.01 203.77,-434.2 223.7,-404.4 246.39,-370.48 285.48,-402.32 308.16,-368.4 331.42,-333.59 351.02,-274.2 309.16,-274.2"/>
<polygon fill="black" stroke="black" points="212.49,-492.23 221.69,-498.2 217.76,-493.04 222.04,-493.7 222.04,-493.7 222.04,-493.7 217.76,-493.04 223.05,-489.3 212.49,-492.23"/>
</g>
<!-- public.frequencies -->
<g id="node4" class="node">
<title>public.frequencies</title>
<polygon fill="#efefef" stroke="none" points="412.21,-181.8 412.21,-217.4 683.14,-217.4 683.14,-181.8 412.21,-181.8"/>
<polygon fill="none" stroke="black" points="412.21,-181.8 412.21,-217.4 683.14,-217.4 683.14,-181.8 412.21,-181.8"/>
<text text-anchor="start" x="419.21" y="-195.2" font-family="Arial Bold" font-size="18.00">public.frequencies</text>
<text text-anchor="start" x="551.65" y="-195.2" font-family="Arial" font-size="14.00">    </text>
<text text-anchor="start" x="582.77" y="-195.2" font-family="Arial" font-size="14.00" fill="#666666">[BASE TABLE]</text>
<polygon fill="none" stroke="black" points="412.21,-151 412.21,-181.8 683.14,-181.8 683.14,-151 412.21,-151"/>
<text text-anchor="start" x="419.21" y="-163.2" font-family="Arial" font-size="14.00">id </text>
<text text-anchor="start" x="434" y="-163.2" font-family="Arial" font-size="14.00" fill="#666666">[bigint]</text>
</g>
<!-- public.departments&#45;&gt;public.frequencies -->
<g id="edge3" class="edge">
<title>public.departments:frequency_id&#45;&gt;public.frequencies:id</title>
<path fill="none" stroke="black" d="M510.59,-459.99C519.99,-451.21 505.59,-424.93 499.65,-404.4 478.86,-332.55 432.77,-332.52 412.21,-260.6 400.7,-220.34 369.34,-166.4 411.21,-166.4"/>
<polygon fill="black" stroke="black" points="510.54,-460.01 499.67,-458.6 505.44,-461.55 501.29,-462.81 501.29,-462.81 501.29,-462.81 505.44,-461.55 502.28,-467.21 510.54,-460.01"/>
</g>
<!-- public.attune_departments -->
<g id="node15" class="node">
<title>public.attune_departments</title>
<polygon fill="#efefef" stroke="none" points="1878.21,-181.8 1878.21,-217.4 2207.14,-217.4 2207.14,-181.8 1878.21,-181.8"/>
<polygon fill="none" stroke="black" points="1878.21,-181.8 1878.21,-217.4 2207.14,-217.4 2207.14,-181.8 1878.21,-181.8"/>
<text text-anchor="start" x="1885.21" y="-195.2" font-family="Arial Bold" font-size="18.00">public.attune_departments</text>
<text text-anchor="start" x="2075.65" y="-195.2" font-family="Arial" font-size="14.00">    </text>
<text text-anchor="start" x="2106.77" y="-195.2" font-family="Arial" font-size="14.00" fill="#666666">[BASE TABLE]</text>
<polygon fill="none" stroke="black" points="1878.21,-151 1878.21,-181.8 2207.14,-181.8 2207.14,-151 1878.21,-151"/>
<text text-anchor="start" x="1885.21" y="-163.2" font-family="Arial" font-size="14.00">id </text>
<text text-anchor="start" x="1900" y="-163.2" font-family="Arial" font-size="14.00" fill="#666666">[bigint]</text>
</g>
<!-- public.services&#45;&gt;public.attune_departments -->
<g id="edge14" class="edge">
<title>public.services:attune_department_id&#45;&gt;public.attune_departments:id</title>
<path fill="none" stroke="black" d="M2122.32,-493.18C2002.04,-477.39 2353.68,-166.4 2208.14,-166.4"/>
<polygon fill="black" stroke="black" points="2122.39,-493.18 2132.1,-498.27 2127.71,-493.5 2132.03,-493.76 2132.03,-493.76 2132.03,-493.76 2127.71,-493.5 2132.64,-489.29 2122.39,-493.18"/>
</g>
<!-- public.simple_categories -->
<g id="node16" class="node">
<title>public.simple_categories</title>
<polygon fill="#efefef" stroke="none" points="2311.71,-181.8 2311.71,-217.4 2629.65,-217.4 2629.65,-181.8 2311.71,-181.8"/>
<polygon fill="none" stroke="black" points="2311.71,-181.8 2311.71,-217.4 2629.65,-217.4 2629.65,-181.8 2311.71,-181.8"/>
<text text-anchor="start" x="2318.71" y="-195.2" font-family="Arial Bold" font-size="18.00">public.simple_categories</text>
<text text-anchor="start" x="2498.16" y="-195.2" font-family="Arial" font-size="14.00">    </text>
<text text-anchor="start" x="2529.27" y="-195.2" font-family="Arial" font-size="14.00" fill="#666666">[BASE TABLE]</text>
<polygon fill="none" stroke="black" points="2311.71,-151 2311.71,-181.8 2629.65,-181.8 2629.65,-151 2311.71,-151"/>
<text text-anchor="start" x="2318.71" y="-163.2" font-family="Arial" font-size="14.00">id </text>
<text text-anchor="start" x="2333.5" y="-163.2" font-family="Arial" font-size="14.00" fill="#666666">[bigint]</text>
</g>
<!-- public.services&#45;&gt;public.simple_categories -->
<g id="edge15" class="edge">
<title>public.services:simple_cate_id&#45;&gt;public.simple_categories:id</title>
<path fill="none" stroke="black" d="M2391.04,-462.3C2497.17,-446.44 2179.11,-166.4 2310.71,-166.4"/>
<polygon fill="black" stroke="black" points="2390.97,-462.3 2380.69,-458.49 2385.64,-462.66 2381.32,-462.95 2381.32,-462.95 2381.32,-462.95 2385.64,-462.66 2381.29,-467.47 2390.97,-462.3"/>
</g>
<!-- public.service_service_group -->
<g id="node6" class="node">
<title>public.service_service_group</title>
<polygon fill="#efefef" stroke="none" points="633.72,-790.4 633.72,-826 983.63,-826 983.63,-790.4 633.72,-790.4"/>
<polygon fill="none" stroke="black" points="633.72,-790.4 633.72,-826 983.63,-826 983.63,-790.4 633.72,-790.4"/>
<text text-anchor="start" x="640.72" y="-803.8" font-family="Arial Bold" font-size="18.00">public.service_service_group</text>
<text text-anchor="start" x="852.14" y="-803.8" font-family="Arial" font-size="14.00">    </text>
<text text-anchor="start" x="883.26" y="-803.8" font-family="Arial" font-size="14.00" fill="#666666">[BASE TABLE]</text>
<polygon fill="none" stroke="black" points="633.72,-759.6 633.72,-790.4 983.63,-790.4 983.63,-759.6 633.72,-759.6"/>
<text text-anchor="start" x="640.72" y="-771.8" font-family="Arial" font-size="14.00">service_id </text>
<text text-anchor="start" x="707.64" y="-771.8" font-family="Arial" font-size="14.00" fill="#666666">[bigint]</text>
<polygon fill="none" stroke="black" points="633.72,-728.8 633.72,-759.6 983.63,-759.6 983.63,-728.8 633.72,-728.8"/>
<text text-anchor="start" x="640.72" y="-741" font-family="Arial" font-size="14.00">service_group_id </text>
<text text-anchor="start" x="751.23" y="-741" font-family="Arial" font-size="14.00" fill="#666666">[bigint]</text>
</g>
<!-- public.service_service_group&#45;&gt;public.services -->
<g id="edge5" class="edge">
<title>public.service_service_group:service_id&#45;&gt;public.services:id</title>
<path fill="none" stroke="black" d="M994.78,-773.91C1036.02,-763.88 992.33,-687.32 1035.68,-654.8 1133.86,-581.14 2009.95,-524.6 2132.7,-524.6"/>
<polygon fill="black" stroke="black" points="994.91,-773.9 984.48,-770.49 989.6,-774.47 985.3,-774.93 985.3,-774.93 985.3,-774.93 989.6,-774.47 985.45,-779.44 994.91,-773.9"/>
</g>
<!-- public.form_service -->
<g id="node7" class="node">
<title>public.form_service</title>
<polygon fill="#efefef" stroke="none" points="1088.21,-790.4 1088.21,-826 1371.15,-826 1371.15,-790.4 1088.21,-790.4"/>
<polygon fill="none" stroke="black" points="1088.21,-790.4 1088.21,-826 1371.15,-826 1371.15,-790.4 1088.21,-790.4"/>
<text text-anchor="start" x="1095.21" y="-803.8" font-family="Arial Bold" font-size="18.00">public.form_service</text>
<text text-anchor="start" x="1239.66" y="-803.8" font-family="Arial" font-size="14.00">    </text>
<text text-anchor="start" x="1270.77" y="-803.8" font-family="Arial" font-size="14.00" fill="#666666">[BASE TABLE]</text>
<polygon fill="none" stroke="black" points="1088.21,-759.6 1088.21,-790.4 1371.15,-790.4 1371.15,-759.6 1088.21,-759.6"/>
<text text-anchor="start" x="1095.21" y="-771.8" font-family="Arial" font-size="14.00">form_id </text>
<text text-anchor="start" x="1145.78" y="-771.8" font-family="Arial" font-size="14.00" fill="#666666">[bigint]</text>
<polygon fill="none" stroke="black" points="1088.21,-728.8 1088.21,-759.6 1371.15,-759.6 1371.15,-728.8 1088.21,-728.8"/>
<text text-anchor="start" x="1095.21" y="-741" font-family="Arial" font-size="14.00">service_id </text>
<text text-anchor="start" x="1162.13" y="-741" font-family="Arial" font-size="14.00" fill="#666666">[bigint]</text>
</g>
<!-- public.form_service&#45;&gt;public.services -->
<g id="edge6" class="edge">
<title>public.form_service:service_id&#45;&gt;public.services:id</title>
<path fill="none" stroke="black" d="M1382.34,-742.87C1413.05,-733.65 1389.43,-678.98 1423.68,-654.8 1554.54,-562.41 1972.51,-524.6 2132.7,-524.6"/>
<polygon fill="black" stroke="black" points="1382.39,-742.86 1371.9,-739.69 1377.1,-743.55 1372.81,-744.11 1372.81,-744.11 1372.81,-744.11 1377.1,-743.55 1373.06,-748.62 1382.39,-742.86"/>
</g>
<!-- public.checkup_service -->
<g id="node8" class="node">
<title>public.checkup_service</title>
<polygon fill="#efefef" stroke="none" points="1475.72,-790.4 1475.72,-826 1783.64,-826 1783.64,-790.4 1475.72,-790.4"/>
<polygon fill="none" stroke="black" points="1475.72,-790.4 1475.72,-826 1783.64,-826 1783.64,-790.4 1475.72,-790.4"/>
<text text-anchor="start" x="1482.72" y="-803.8" font-family="Arial Bold" font-size="18.00">public.checkup_service</text>
<text text-anchor="start" x="1652.15" y="-803.8" font-family="Arial" font-size="14.00">    </text>
<text text-anchor="start" x="1683.26" y="-803.8" font-family="Arial" font-size="14.00" fill="#666666">[BASE TABLE]</text>
<polygon fill="none" stroke="black" points="1475.72,-759.6 1475.72,-790.4 1783.64,-790.4 1783.64,-759.6 1475.72,-759.6"/>
<text text-anchor="start" x="1482.72" y="-771.8" font-family="Arial" font-size="14.00">checkup_id </text>
<text text-anchor="start" x="1557.44" y="-771.8" font-family="Arial" font-size="14.00" fill="#666666">[bigint]</text>
<polygon fill="none" stroke="black" points="1475.72,-728.8 1475.72,-759.6 1783.64,-759.6 1783.64,-728.8 1475.72,-728.8"/>
<text text-anchor="start" x="1482.72" y="-741" font-family="Arial" font-size="14.00">service_id </text>
<text text-anchor="start" x="1549.64" y="-741" font-family="Arial" font-size="14.00" fill="#666666">[bigint]</text>
</g>
<!-- public.checkup_service&#45;&gt;public.services -->
<g id="edge7" class="edge">
<title>public.checkup_service:service_id&#45;&gt;public.services:id</title>
<path fill="none" stroke="black" d="M1794.87,-742.95C1825.91,-734.3 1804.59,-682.77 1835.68,-654.8 1942.84,-558.4 1988.56,-524.6 2132.7,-524.6"/>
<polygon fill="black" stroke="black" points="1794.89,-742.95 1784.42,-739.69 1789.6,-743.59 1785.3,-744.12 1785.3,-744.12 1785.3,-744.12 1789.6,-743.59 1785.51,-748.63 1794.89,-742.95"/>
</g>
<!-- public.service_test_set -->
<g id="node9" class="node">
<title>public.service_test_set</title>
<polygon fill="#efefef" stroke="none" points="1887.71,-790.4 1887.71,-826 2189.65,-826 2189.65,-790.4 1887.71,-790.4"/>
<polygon fill="none" stroke="black" points="1887.71,-790.4 1887.71,-826 2189.65,-826 2189.65,-790.4 1887.71,-790.4"/>
<text text-anchor="start" x="1894.71" y="-803.8" font-family="Arial Bold" font-size="18.00">public.service_test_set</text>
<text text-anchor="start" x="2058.16" y="-803.8" font-family="Arial" font-size="14.00">    </text>
<text text-anchor="start" x="2089.28" y="-803.8" font-family="Arial" font-size="14.00" fill="#666666">[BASE TABLE]</text>
<polygon fill="none" stroke="black" points="1887.71,-759.6 1887.71,-790.4 2189.65,-790.4 2189.65,-759.6 1887.71,-759.6"/>
<text text-anchor="start" x="1894.71" y="-771.8" font-family="Arial" font-size="14.00">service_id </text>
<text text-anchor="start" x="1961.62" y="-771.8" font-family="Arial" font-size="14.00" fill="#666666">[bigint]</text>
<polygon fill="none" stroke="black" points="1887.71,-728.8 1887.71,-759.6 2189.65,-759.6 2189.65,-728.8 1887.71,-728.8"/>
<text text-anchor="start" x="1894.71" y="-741" font-family="Arial" font-size="14.00">test_set_id </text>
<text text-anchor="start" x="1966.31" y="-741" font-family="Arial" font-size="14.00" fill="#666666">[bigint]</text>
</g>
<!-- public.service_test_set&#45;&gt;public.services -->
<g id="edge8" class="edge">
<title>public.service_test_set:service_id&#45;&gt;public.services:id</title>
<path fill="none" stroke="black" d="M2200.77,-773.46C2225.04,-764.56 2202.03,-719.08 2189.65,-685.6 2176.22,-649.28 2147.12,-655.13 2133.7,-618.8 2119.19,-579.53 2090.83,-524.6 2132.7,-524.6"/>
<polygon fill="black" stroke="black" points="2200.86,-773.44 2190.3,-770.5 2195.59,-774.25 2191.31,-774.9 2191.31,-774.9 2191.31,-774.9 2195.59,-774.25 2191.66,-779.4 2200.86,-773.44"/>
</g>
<!-- public.company_order_service -->
<g id="node10" class="node">
<title>public.company_order_service</title>
<polygon fill="#efefef" stroke="none" points="2294.22,-790.4 2294.22,-826 2655.13,-826 2655.13,-790.4 2294.22,-790.4"/>
<polygon fill="none" stroke="black" points="2294.22,-790.4 2294.22,-826 2655.13,-826 2655.13,-790.4 2294.22,-790.4"/>
<text text-anchor="start" x="2301.22" y="-803.8" font-family="Arial Bold" font-size="18.00">public.company_order_service</text>
<text text-anchor="start" x="2523.64" y="-803.8" font-family="Arial" font-size="14.00">    </text>
<text text-anchor="start" x="2554.76" y="-803.8" font-family="Arial" font-size="14.00" fill="#666666">[BASE TABLE]</text>
<polygon fill="none" stroke="black" points="2294.22,-759.6 2294.22,-790.4 2655.13,-790.4 2655.13,-759.6 2294.22,-759.6"/>
<text text-anchor="start" x="2301.22" y="-771.8" font-family="Arial" font-size="14.00">service_id </text>
<text text-anchor="start" x="2368.14" y="-771.8" font-family="Arial" font-size="14.00" fill="#666666">[bigint]</text>
<polygon fill="none" stroke="black" points="2294.22,-728.8 2294.22,-759.6 2655.13,-759.6 2655.13,-728.8 2294.22,-728.8"/>
<text text-anchor="start" x="2301.22" y="-741" font-family="Arial" font-size="14.00">company_order_id </text>
<text text-anchor="start" x="2421.07" y="-741" font-family="Arial" font-size="14.00" fill="#666666">[bigint]</text>
</g>
<!-- public.company_order_service&#45;&gt;public.services -->
<g id="edge9" class="edge">
<title>public.company_order_service:service_id&#45;&gt;public.services:id</title>
<path fill="none" stroke="black" d="M2282.99,-773.41C2258.13,-764.26 2278.4,-717.6 2294.22,-685.6 2315.59,-642.39 2358.3,-662.01 2379.65,-618.8 2398.2,-581.26 2422.52,-524.6 2380.65,-524.6"/>
<polygon fill="black" stroke="black" points="2283.01,-773.41 2292.2,-779.4 2288.28,-774.23 2292.56,-774.9 2292.56,-774.9 2292.56,-774.9 2288.28,-774.23 2293.58,-770.5 2283.01,-773.41"/>
</g>
<!-- public.package_service -->
<g id="node11" class="node">
<title>public.package_service</title>
<polygon fill="#efefef" stroke="none" points="2759.22,-790.4 2759.22,-826 3066.13,-826 3066.13,-790.4 2759.22,-790.4"/>
<polygon fill="none" stroke="black" points="2759.22,-790.4 2759.22,-826 3066.13,-826 3066.13,-790.4 2759.22,-790.4"/>
<text text-anchor="start" x="2766.22" y="-803.8" font-family="Arial Bold" font-size="18.00">public.package_service</text>
<text text-anchor="start" x="2934.64" y="-803.8" font-family="Arial" font-size="14.00">    </text>
<text text-anchor="start" x="2965.76" y="-803.8" font-family="Arial" font-size="14.00" fill="#666666">[BASE TABLE]</text>
<polygon fill="none" stroke="black" points="2759.22,-759.6 2759.22,-790.4 3066.13,-790.4 3066.13,-759.6 2759.22,-759.6"/>
<text text-anchor="start" x="2766.22" y="-771.8" font-family="Arial" font-size="14.00">package_id </text>
<text text-anchor="start" x="2841.73" y="-771.8" font-family="Arial" font-size="14.00" fill="#666666">[bigint]</text>
<polygon fill="none" stroke="black" points="2759.22,-728.8 2759.22,-759.6 3066.13,-759.6 3066.13,-728.8 2759.22,-728.8"/>
<text text-anchor="start" x="2766.22" y="-741" font-family="Arial" font-size="14.00">service_id </text>
<text text-anchor="start" x="2833.14" y="-741" font-family="Arial" font-size="14.00" fill="#666666">[bigint]</text>
</g>
<!-- public.package_service&#45;&gt;public.services -->
<g id="edge10" class="edge">
<title>public.package_service:service_id&#45;&gt;public.services:id</title>
<path fill="none" stroke="black" d="M2748.03,-742.94C2717.18,-734.21 2739.11,-682.23 2707.68,-654.8 2589.81,-551.93 2537.09,-524.6 2380.65,-524.6"/>
<polygon fill="black" stroke="black" points="2747.97,-742.93 2757.34,-748.63 2753.26,-743.59 2757.56,-744.12 2757.56,-744.12 2757.56,-744.12 2753.26,-743.59 2758.44,-739.69 2747.97,-742.93"/>
</g>
<!-- public.imaging_diagnostic_data -->
<g id="node12" class="node">
<title>public.imaging_diagnostic_data</title>
<polygon fill="#efefef" stroke="none" points="3170.21,-821.2 3170.21,-856.8 3539.15,-856.8 3539.15,-821.2 3170.21,-821.2"/>
<polygon fill="none" stroke="black" points="3170.21,-821.2 3170.21,-856.8 3539.15,-856.8 3539.15,-821.2 3170.21,-821.2"/>
<text text-anchor="start" x="3177.21" y="-834.6" font-family="Arial Bold" font-size="18.00">public.imaging_diagnostic_data</text>
<text text-anchor="start" x="3407.66" y="-834.6" font-family="Arial" font-size="14.00">    </text>
<text text-anchor="start" x="3438.77" y="-834.6" font-family="Arial" font-size="14.00" fill="#666666">[BASE TABLE]</text>
<polygon fill="none" stroke="black" points="3170.21,-790.4 3170.21,-821.2 3539.15,-821.2 3539.15,-790.4 3170.21,-790.4"/>
<text text-anchor="start" x="3177.21" y="-802.6" font-family="Arial" font-size="14.00">id </text>
<text text-anchor="start" x="3191.99" y="-802.6" font-family="Arial" font-size="14.00" fill="#666666">[bigint]</text>
<polygon fill="none" stroke="black" points="3170.21,-759.6 3170.21,-790.4 3539.15,-790.4 3539.15,-759.6 3170.21,-759.6"/>
<text text-anchor="start" x="3177.21" y="-771.8" font-family="Arial" font-size="14.00">checkup_id </text>
<text text-anchor="start" x="3251.93" y="-771.8" font-family="Arial" font-size="14.00" fill="#666666">[bigint]</text>
<polygon fill="none" stroke="black" points="3170.21,-728.8 3170.21,-759.6 3539.15,-759.6 3539.15,-728.8 3170.21,-728.8"/>
<text text-anchor="start" x="3177.21" y="-741" font-family="Arial" font-size="14.00">service_id </text>
<text text-anchor="start" x="3244.13" y="-741" font-family="Arial" font-size="14.00" fill="#666666">[bigint]</text>
<polygon fill="none" stroke="black" points="3170.21,-698 3170.21,-728.8 3539.15,-728.8 3539.15,-698 3170.21,-698"/>
<text text-anchor="start" x="3177.21" y="-710.2" font-family="Arial" font-size="14.00">updated_by </text>
<text text-anchor="start" x="3254.28" y="-710.2" font-family="Arial" font-size="14.00" fill="#666666">[bigint]</text>
</g>
<!-- public.imaging_diagnostic_data&#45;&gt;public.services -->
<g id="edge11" class="edge">
<title>public.imaging_diagnostic_data:service_id&#45;&gt;public.services:id</title>
<path fill="none" stroke="black" d="M3159.08,-742.87C3128.62,-733.63 3152.74,-678.89 3118.68,-654.8 2982.7,-558.65 2547.19,-524.6 2380.65,-524.6"/>
<polygon fill="black" stroke="black" points="3158.96,-742.85 3168.29,-748.62 3164.25,-743.55 3168.55,-744.11 3168.55,-744.11 3168.55,-744.11 3164.25,-743.55 3169.46,-739.69 3158.96,-742.85"/>
</g>
<!-- public.imaging_diagnostic_data_histories -->
<g id="node13" class="node">
<title>public.imaging_diagnostic_data_histories</title>
<polygon fill="#efefef" stroke="none" points="3643.21,-821.2 3643.21,-856.8 4082.14,-856.8 4082.14,-821.2 3643.21,-821.2"/>
<polygon fill="none" stroke="black" points="3643.21,-821.2 3643.21,-856.8 4082.14,-856.8 4082.14,-821.2 3643.21,-821.2"/>
<text text-anchor="start" x="3650.21" y="-834.6" font-family="Arial Bold" font-size="18.00">public.imaging_diagnostic_data_histories</text>
<text text-anchor="start" x="3950.66" y="-834.6" font-family="Arial" font-size="14.00">    </text>
<text text-anchor="start" x="3981.77" y="-834.6" font-family="Arial" font-size="14.00" fill="#666666">[BASE TABLE]</text>
<polygon fill="none" stroke="black" points="3643.21,-790.4 3643.21,-821.2 4082.14,-821.2 4082.14,-790.4 3643.21,-790.4"/>
<text text-anchor="start" x="3650.21" y="-802.6" font-family="Arial" font-size="14.00">imaging_diagnostic_data_id </text>
<text text-anchor="start" x="3827.67" y="-802.6" font-family="Arial" font-size="14.00" fill="#666666">[bigint]</text>
<polygon fill="none" stroke="black" points="3643.21,-759.6 3643.21,-790.4 4082.14,-790.4 4082.14,-759.6 3643.21,-759.6"/>
<text text-anchor="start" x="3650.21" y="-771.8" font-family="Arial" font-size="14.00">checkup_id </text>
<text text-anchor="start" x="3724.93" y="-771.8" font-family="Arial" font-size="14.00" fill="#666666">[bigint]</text>
<polygon fill="none" stroke="black" points="3643.21,-728.8 3643.21,-759.6 4082.14,-759.6 4082.14,-728.8 3643.21,-728.8"/>
<text text-anchor="start" x="3650.21" y="-741" font-family="Arial" font-size="14.00">service_id </text>
<text text-anchor="start" x="3717.13" y="-741" font-family="Arial" font-size="14.00" fill="#666666">[bigint]</text>
<polygon fill="none" stroke="black" points="3643.21,-698 3643.21,-728.8 4082.14,-728.8 4082.14,-698 3643.21,-698"/>
<text text-anchor="start" x="3650.21" y="-710.2" font-family="Arial" font-size="14.00">updated_by </text>
<text text-anchor="start" x="3727.28" y="-710.2" font-family="Arial" font-size="14.00" fill="#666666">[bigint]</text>
</g>
<!-- public.imaging_diagnostic_data_histories&#45;&gt;public.services -->
<g id="edge12" class="edge">
<title>public.imaging_diagnostic_data_histories:service_id&#45;&gt;public.services:id</title>
<path fill="none" stroke="black" d="M3632.1,-742.84C3601.76,-733.43 3626.53,-677.72 3591.68,-654.8 3478.6,-580.44 2515.99,-524.6 2380.65,-524.6"/>
<polygon fill="black" stroke="black" points="3631.97,-742.82 3641.28,-748.62 3637.25,-743.53 3641.55,-744.11 3641.55,-744.11 3641.55,-744.11 3637.25,-743.53 3642.48,-739.7 3631.97,-742.82"/>
</g>
<!-- public.category_service -->
<g id="node14" class="node">
<title>public.category_service</title>
<polygon fill="#efefef" stroke="none" points="4186.72,-790.4 4186.72,-826 4496.63,-826 4496.63,-790.4 4186.72,-790.4"/>
<polygon fill="none" stroke="black" points="4186.72,-790.4 4186.72,-826 4496.63,-826 4496.63,-790.4 4186.72,-790.4"/>
<text text-anchor="start" x="4193.72" y="-803.8" font-family="Arial Bold" font-size="18.00">public.category_service</text>
<text text-anchor="start" x="4365.14" y="-803.8" font-family="Arial" font-size="14.00">    </text>
<text text-anchor="start" x="4396.26" y="-803.8" font-family="Arial" font-size="14.00" fill="#666666">[BASE TABLE]</text>
<polygon fill="none" stroke="black" points="4186.72,-759.6 4186.72,-790.4 4496.63,-790.4 4496.63,-759.6 4186.72,-759.6"/>
<text text-anchor="start" x="4193.72" y="-771.8" font-family="Arial" font-size="14.00">service_id </text>
<text text-anchor="start" x="4260.64" y="-771.8" font-family="Arial" font-size="14.00" fill="#666666">[bigint]</text>
<polygon fill="none" stroke="black" points="4186.72,-728.8 4186.72,-759.6 4496.63,-759.6 4496.63,-728.8 4186.72,-728.8"/>
<text text-anchor="start" x="4193.72" y="-741" font-family="Arial" font-size="14.00">category_id </text>
<text text-anchor="start" x="4269.99" y="-741" font-family="Arial" font-size="14.00" fill="#666666">[integer]</text>
</g>
<!-- public.category_service&#45;&gt;public.services -->
<g id="edge13" class="edge">
<title>public.category_service:service_id&#45;&gt;public.services:id</title>
<path fill="none" stroke="black" d="M4175.58,-773.9C4134.43,-763.76 4178.73,-686.36 4134.68,-654.8 3975.81,-540.99 2576.08,-524.6 2380.65,-524.6"/>
<polygon fill="black" stroke="black" points="4175.45,-773.88 4184.9,-779.44 4180.75,-774.46 4185.06,-774.93 4185.06,-774.93 4185.06,-774.93 4180.75,-774.46 4185.88,-770.49 4175.45,-773.88"/>
</g>
</g>
</svg>
