<?xml version="1.0" encoding="UTF-8" standalone="no"?>
<!DOCTYPE svg PUBLIC "-//W3C//DTD SVG 1.1//EN"
 "http://www.w3.org/Graphics/SVG/1.1/DTD/svg11.dtd">
<!-- Generated by graphviz version 12.1.2 (20240928.0832)
 -->
<!-- Title: public.wards Pages: 1 -->
<svg width="1418pt" height="1031pt"
 viewBox="0.00 0.00 1418.35 1031.20" xmlns="http://www.w3.org/2000/svg" xmlns:xlink="http://www.w3.org/1999/xlink">
<g id="graph0" class="graph" transform="scale(1 1) rotate(0) translate(4 1027.2)">
<title>public.wards</title>
<polygon fill="white" stroke="none" points="-4,4 -4,-1027.2 1414.35,-1027.2 1414.35,4 -4,4"/>
<!-- public.wards -->
<g id="node1" class="node">
<title>public.wards</title>
<polygon fill="#efefef" stroke="none" points="46.2,-728.8 46.2,-764.4 277.17,-764.4 277.17,-728.8 46.2,-728.8"/>
<polygon fill="none" stroke="black" points="46.2,-728.8 46.2,-764.4 277.17,-764.4 277.17,-728.8 46.2,-728.8"/>
<text text-anchor="start" x="53.2" y="-742.2" font-family="Arial Bold" font-size="18.00">public.wards</text>
<text text-anchor="start" x="145.68" y="-742.2" font-family="Arial" font-size="14.00">    </text>
<text text-anchor="start" x="176.8" y="-742.2" font-family="Arial" font-size="14.00" fill="#666666">[BASE TABLE]</text>
<polygon fill="none" stroke="black" points="46.2,-698 46.2,-728.8 277.17,-728.8 277.17,-698 46.2,-698"/>
<text text-anchor="start" x="53.2" y="-710.2" font-family="Arial" font-size="14.00">city_id </text>
<text text-anchor="start" x="96.77" y="-710.2" font-family="Arial" font-size="14.00" fill="#666666">[bigint]</text>
<polygon fill="none" stroke="black" stroke-width="3" points="44.7,-696.5 44.7,-765.9 278.67,-765.9 278.67,-696.5 44.7,-696.5"/>
</g>
<!-- public.cities -->
<g id="node2" class="node">
<title>public.cities</title>
<polygon fill="#efefef" stroke="none" points="732.7,-324.4 732.7,-360 958.67,-360 958.67,-324.4 732.7,-324.4"/>
<polygon fill="none" stroke="black" points="732.7,-324.4 732.7,-360 958.67,-360 958.67,-324.4 732.7,-324.4"/>
<text text-anchor="start" x="739.7" y="-337.8" font-family="Arial Bold" font-size="18.00">public.cities</text>
<text text-anchor="start" x="827.18" y="-337.8" font-family="Arial" font-size="14.00">    </text>
<text text-anchor="start" x="858.3" y="-337.8" font-family="Arial" font-size="14.00" fill="#666666">[BASE TABLE]</text>
<polygon fill="none" stroke="black" points="732.7,-293.6 732.7,-324.4 958.67,-324.4 958.67,-293.6 732.7,-293.6"/>
<text text-anchor="start" x="739.7" y="-305.8" font-family="Arial" font-size="14.00">id </text>
<text text-anchor="start" x="754.49" y="-305.8" font-family="Arial" font-size="14.00" fill="#666666">[bigint]</text>
<polygon fill="none" stroke="black" points="732.7,-262.8 732.7,-293.6 958.67,-293.6 958.67,-262.8 732.7,-262.8"/>
<text text-anchor="start" x="739.7" y="-275" font-family="Arial" font-size="14.00">state_id </text>
<text text-anchor="start" x="792.62" y="-275" font-family="Arial" font-size="14.00" fill="#666666">[bigint]</text>
</g>
<!-- public.wards&#45;&gt;public.cities -->
<g id="edge1" class="edge">
<title>public.wards:city_id&#45;&gt;public.cities:id</title>
<path fill="none" stroke="black" d="M288.38,-712.94C393.57,-702.86 251.81,-529.46 331.68,-439.2 393.64,-369.19 638.22,-309 731.7,-309"/>
<polygon fill="black" stroke="black" points="288.49,-712.94 278.3,-708.89 283.16,-713.18 278.84,-713.37 278.84,-713.37 278.84,-713.37 283.16,-713.18 278.7,-717.88 288.49,-712.94"/>
</g>
<!-- public.states -->
<g id="node6" class="node">
<title>public.states</title>
<polygon fill="#efefef" stroke="none" points="731.7,-104.8 731.7,-140.4 959.67,-140.4 959.67,-104.8 731.7,-104.8"/>
<polygon fill="none" stroke="black" points="731.7,-104.8 731.7,-140.4 959.67,-140.4 959.67,-104.8 731.7,-104.8"/>
<text text-anchor="start" x="738.7" y="-118.2" font-family="Arial Bold" font-size="18.00">public.states</text>
<text text-anchor="start" x="828.18" y="-118.2" font-family="Arial" font-size="14.00">    </text>
<text text-anchor="start" x="859.3" y="-118.2" font-family="Arial" font-size="14.00" fill="#666666">[BASE TABLE]</text>
<polygon fill="none" stroke="black" points="731.7,-74 731.7,-104.8 959.67,-104.8 959.67,-74 731.7,-74"/>
<text text-anchor="start" x="738.7" y="-86.2" font-family="Arial" font-size="14.00">id </text>
<text text-anchor="start" x="753.48" y="-86.2" font-family="Arial" font-size="14.00" fill="#666666">[bigint]</text>
<polygon fill="none" stroke="black" points="731.7,-43.2 731.7,-74 959.67,-74 959.67,-43.2 731.7,-43.2"/>
<text text-anchor="start" x="738.7" y="-55.4" font-family="Arial" font-size="14.00">country_id </text>
<text text-anchor="start" x="807.18" y="-55.4" font-family="Arial" font-size="14.00" fill="#666666">[bigint]</text>
</g>
<!-- public.cities&#45;&gt;public.states -->
<g id="edge6" class="edge">
<title>public.cities:state_id&#45;&gt;public.states:id</title>
<path fill="none" stroke="black" d="M846.59,-251.69C855.78,-204.56 932.5,-234.52 959.67,-183.6 979.38,-146.66 1002.54,-89.4 960.67,-89.4"/>
<polygon fill="black" stroke="black" points="846.6,-251.51 841.23,-261.07 846.13,-256.82 845.74,-261.13 845.74,-261.13 845.74,-261.13 846.13,-256.82 850.2,-261.87 846.6,-251.51"/>
</g>
<!-- public.users -->
<g id="node3" class="node">
<title>public.users</title>
<polygon fill="#efefef" stroke="none" points="384.2,-944.4 384.2,-980 609.17,-980 609.17,-944.4 384.2,-944.4"/>
<polygon fill="none" stroke="black" points="384.2,-944.4 384.2,-980 609.17,-980 609.17,-944.4 384.2,-944.4"/>
<text text-anchor="start" x="391.2" y="-957.8" font-family="Arial Bold" font-size="18.00">public.users</text>
<text text-anchor="start" x="477.68" y="-957.8" font-family="Arial" font-size="14.00">    </text>
<text text-anchor="start" x="508.8" y="-957.8" font-family="Arial" font-size="14.00" fill="#666666">[BASE TABLE]</text>
<polygon fill="none" stroke="black" points="384.2,-913.6 384.2,-944.4 609.17,-944.4 609.17,-913.6 384.2,-913.6"/>
<text text-anchor="start" x="391.2" y="-925.8" font-family="Arial" font-size="14.00">id </text>
<text text-anchor="start" x="405.98" y="-925.8" font-family="Arial" font-size="14.00" fill="#666666">[bigint]</text>
<polygon fill="none" stroke="black" points="384.2,-882.8 384.2,-913.6 609.17,-913.6 609.17,-882.8 384.2,-882.8"/>
<text text-anchor="start" x="391.2" y="-895" font-family="Arial" font-size="14.00">email </text>
<text text-anchor="start" x="428.54" y="-895" font-family="Arial" font-size="14.00" fill="#666666">[varchar(255)]</text>
<polygon fill="none" stroke="black" points="384.2,-852 384.2,-882.8 609.17,-882.8 609.17,-852 384.2,-852"/>
<text text-anchor="start" x="391.2" y="-864.2" font-family="Arial" font-size="14.00">branch_id </text>
<text text-anchor="start" x="456.58" y="-864.2" font-family="Arial" font-size="14.00" fill="#666666">[bigint]</text>
<polygon fill="none" stroke="black" points="384.2,-821.2 384.2,-852 609.17,-852 609.17,-821.2 384.2,-821.2"/>
<text text-anchor="start" x="391.2" y="-833.4" font-family="Arial" font-size="14.00">sex_id </text>
<text text-anchor="start" x="435.56" y="-833.4" font-family="Arial" font-size="14.00" fill="#666666">[bigint]</text>
<polygon fill="none" stroke="black" points="384.2,-790.4 384.2,-821.2 609.17,-821.2 609.17,-790.4 384.2,-790.4"/>
<text text-anchor="start" x="391.2" y="-802.6" font-family="Arial" font-size="14.00">user_status_id </text>
<text text-anchor="start" x="486.14" y="-802.6" font-family="Arial" font-size="14.00" fill="#666666">[bigint]</text>
<polygon fill="none" stroke="black" points="384.2,-759.6 384.2,-790.4 609.17,-790.4 609.17,-759.6 384.2,-759.6"/>
<text text-anchor="start" x="391.2" y="-771.8" font-family="Arial" font-size="14.00">nationality_id </text>
<text text-anchor="start" x="476.81" y="-771.8" font-family="Arial" font-size="14.00" fill="#666666">[bigint]</text>
<polygon fill="none" stroke="black" points="384.2,-728.8 384.2,-759.6 609.17,-759.6 609.17,-728.8 384.2,-728.8"/>
<text text-anchor="start" x="391.2" y="-741" font-family="Arial" font-size="14.00">city_id </text>
<text text-anchor="start" x="434.77" y="-741" font-family="Arial" font-size="14.00" fill="#666666">[bigint]</text>
<polygon fill="none" stroke="black" points="384.2,-698 384.2,-728.8 609.17,-728.8 609.17,-698 384.2,-698"/>
<text text-anchor="start" x="391.2" y="-710.2" font-family="Arial" font-size="14.00">image_id </text>
<text text-anchor="start" x="451.9" y="-710.2" font-family="Arial" font-size="14.00" fill="#666666">[bigint]</text>
<polygon fill="none" stroke="black" points="384.2,-667.2 384.2,-698 609.17,-698 609.17,-667.2 384.2,-667.2"/>
<text text-anchor="start" x="391.2" y="-679.4" font-family="Arial" font-size="14.00">signature_image_id </text>
<text text-anchor="start" x="517.28" y="-679.4" font-family="Arial" font-size="14.00" fill="#666666">[bigint]</text>
<polygon fill="none" stroke="black" points="384.2,-636.4 384.2,-667.2 609.17,-667.2 609.17,-636.4 384.2,-636.4"/>
<text text-anchor="start" x="391.2" y="-648.6" font-family="Arial" font-size="14.00">position_id </text>
<text text-anchor="start" x="462.02" y="-648.6" font-family="Arial" font-size="14.00" fill="#666666">[bigint]</text>
<polygon fill="none" stroke="black" points="384.2,-605.6 384.2,-636.4 609.17,-636.4 609.17,-605.6 384.2,-605.6"/>
<text text-anchor="start" x="391.2" y="-617.8" font-family="Arial" font-size="14.00">mobile_number_id </text>
<text text-anchor="start" x="510.27" y="-617.8" font-family="Arial" font-size="14.00" fill="#666666">[bigint]</text>
<polygon fill="none" stroke="black" points="384.2,-574.8 384.2,-605.6 609.17,-605.6 609.17,-574.8 384.2,-574.8"/>
<text text-anchor="start" x="391.2" y="-587" font-family="Arial" font-size="14.00">home_number_id </text>
<text text-anchor="start" x="504.04" y="-587" font-family="Arial" font-size="14.00" fill="#666666">[bigint]</text>
<polygon fill="none" stroke="black" points="384.2,-544 384.2,-574.8 609.17,-574.8 609.17,-544 384.2,-544"/>
<text text-anchor="start" x="391.2" y="-556.2" font-family="Arial" font-size="14.00">bank_id </text>
<text text-anchor="start" x="444.13" y="-556.2" font-family="Arial" font-size="14.00" fill="#666666">[bigint]</text>
<polygon fill="none" stroke="black" points="384.2,-513.2 384.2,-544 609.17,-544 609.17,-513.2 384.2,-513.2"/>
<text text-anchor="start" x="391.2" y="-525.4" font-family="Arial" font-size="14.00">created_by_user_id </text>
<text text-anchor="start" x="518.06" y="-525.4" font-family="Arial" font-size="14.00" fill="#666666">[bigint]</text>
<polygon fill="none" stroke="black" points="384.2,-482.4 384.2,-513.2 609.17,-513.2 609.17,-482.4 384.2,-482.4"/>
<text text-anchor="start" x="391.2" y="-494.6" font-family="Arial" font-size="14.00">profile_status_id </text>
<text text-anchor="start" x="497.04" y="-494.6" font-family="Arial" font-size="14.00" fill="#666666">[bigint]</text>
</g>
<!-- public.users&#45;&gt;public.cities -->
<g id="edge2" class="edge">
<title>public.users:city_id&#45;&gt;public.cities:id</title>
<path fill="none" stroke="black" d="M620.15,-742.26C674.77,-719.37 639.49,-500.73 660.68,-439.2 682.15,-376.88 665.79,-309 731.7,-309"/>
<polygon fill="black" stroke="black" points="620.32,-742.23 609.64,-739.72 615.08,-743.25 610.83,-744.07 610.83,-744.07 610.83,-744.07 615.08,-743.25 611.36,-748.55 620.32,-742.23"/>
</g>
<!-- public.companies -->
<g id="node4" class="node">
<title>public.companies</title>
<polygon fill="#efefef" stroke="none" points="713.21,-836.6 713.21,-872.2 978.16,-872.2 978.16,-836.6 713.21,-836.6"/>
<polygon fill="none" stroke="black" points="713.21,-836.6 713.21,-872.2 978.16,-872.2 978.16,-836.6 713.21,-836.6"/>
<text text-anchor="start" x="720.21" y="-850" font-family="Arial Bold" font-size="18.00">public.companies</text>
<text text-anchor="start" x="846.67" y="-850" font-family="Arial" font-size="14.00">    </text>
<text text-anchor="start" x="877.79" y="-850" font-family="Arial" font-size="14.00" fill="#666666">[BASE TABLE]</text>
<polygon fill="none" stroke="black" points="713.21,-805.8 713.21,-836.6 978.16,-836.6 978.16,-805.8 713.21,-805.8"/>
<text text-anchor="start" x="720.21" y="-818" font-family="Arial" font-size="14.00">id </text>
<text text-anchor="start" x="734.99" y="-818" font-family="Arial" font-size="14.00" fill="#666666">[bigint]</text>
<polygon fill="none" stroke="black" points="713.21,-775 713.21,-805.8 978.16,-805.8 978.16,-775 713.21,-775"/>
<text text-anchor="start" x="720.21" y="-787.2" font-family="Arial" font-size="14.00">branch_id </text>
<text text-anchor="start" x="785.59" y="-787.2" font-family="Arial" font-size="14.00" fill="#666666">[integer]</text>
<polygon fill="none" stroke="black" points="713.21,-744.2 713.21,-775 978.16,-775 978.16,-744.2 713.21,-744.2"/>
<text text-anchor="start" x="720.21" y="-756.4" font-family="Arial" font-size="14.00">logo_id </text>
<text text-anchor="start" x="769.25" y="-756.4" font-family="Arial" font-size="14.00" fill="#666666">[bigint]</text>
<polygon fill="none" stroke="black" points="713.21,-713.4 713.21,-744.2 978.16,-744.2 978.16,-713.4 713.21,-713.4"/>
<text text-anchor="start" x="720.21" y="-725.6" font-family="Arial" font-size="14.00">city_id </text>
<text text-anchor="start" x="763.78" y="-725.6" font-family="Arial" font-size="14.00" fill="#666666">[bigint]</text>
<polygon fill="none" stroke="black" points="713.21,-682.6 713.21,-713.4 978.16,-713.4 978.16,-682.6 713.21,-682.6"/>
<text text-anchor="start" x="720.21" y="-694.8" font-family="Arial" font-size="14.00">phone_number_id </text>
<text text-anchor="start" x="836.96" y="-694.8" font-family="Arial" font-size="14.00" fill="#666666">[bigint]</text>
<polygon fill="none" stroke="black" points="713.21,-651.8 713.21,-682.6 978.16,-682.6 978.16,-651.8 713.21,-651.8"/>
<text text-anchor="start" x="720.21" y="-664" font-family="Arial" font-size="14.00">created_by_user_id </text>
<text text-anchor="start" x="847.07" y="-664" font-family="Arial" font-size="14.00" fill="#666666">[integer]</text>
<polygon fill="none" stroke="black" points="713.21,-621 713.21,-651.8 978.16,-651.8 978.16,-621 713.21,-621"/>
<text text-anchor="start" x="720.21" y="-633.2" font-family="Arial" font-size="14.00">owned_by_user_id </text>
<text text-anchor="start" x="841.63" y="-633.2" font-family="Arial" font-size="14.00" fill="#666666">[integer]</text>
<polygon fill="none" stroke="black" points="713.21,-590.2 713.21,-621 978.16,-621 978.16,-590.2 713.21,-590.2"/>
<text text-anchor="start" x="720.21" y="-602.4" font-family="Arial" font-size="14.00">supervisor_user_id </text>
<text text-anchor="start" x="842.38" y="-602.4" font-family="Arial" font-size="14.00" fill="#666666">[bigint]</text>
</g>
<!-- public.companies&#45;&gt;public.cities -->
<g id="edge3" class="edge">
<title>public.companies:city_id&#45;&gt;public.cities:id</title>
<path fill="none" stroke="black" d="M987.82,-723.18C1023.06,-673.37 1003.17,-309 959.67,-309"/>
<polygon fill="black" stroke="black" points="987.83,-723.18 976.99,-724.84 983.36,-726.08 979.72,-728.44 979.72,-728.44 979.72,-728.44 983.36,-726.08 981.89,-732.39 987.83,-723.18"/>
</g>
<!-- public.psc_branches -->
<g id="node5" class="node">
<title>public.psc_branches</title>
<polygon fill="#efefef" stroke="none" points="1082.21,-744.2 1082.21,-779.8 1367.15,-779.8 1367.15,-744.2 1082.21,-744.2"/>
<polygon fill="none" stroke="black" points="1082.21,-744.2 1082.21,-779.8 1367.15,-779.8 1367.15,-744.2 1082.21,-744.2"/>
<text text-anchor="start" x="1089.21" y="-757.6" font-family="Arial Bold" font-size="18.00">public.psc_branches</text>
<text text-anchor="start" x="1235.67" y="-757.6" font-family="Arial" font-size="14.00">    </text>
<text text-anchor="start" x="1266.78" y="-757.6" font-family="Arial" font-size="14.00" fill="#666666">[BASE TABLE]</text>
<polygon fill="none" stroke="black" points="1082.21,-713.4 1082.21,-744.2 1367.15,-744.2 1367.15,-713.4 1082.21,-713.4"/>
<text text-anchor="start" x="1089.21" y="-725.6" font-family="Arial" font-size="14.00">city_id </text>
<text text-anchor="start" x="1132.79" y="-725.6" font-family="Arial" font-size="14.00" fill="#666666">[bigint]</text>
<polygon fill="none" stroke="black" points="1082.21,-682.6 1082.21,-713.4 1367.15,-713.4 1367.15,-682.6 1082.21,-682.6"/>
<text text-anchor="start" x="1089.21" y="-694.8" font-family="Arial" font-size="14.00">city_vi_id </text>
<text text-anchor="start" x="1150.68" y="-694.8" font-family="Arial" font-size="14.00" fill="#666666">[bigint]</text>
</g>
<!-- public.psc_branches&#45;&gt;public.cities -->
<g id="edge4" class="edge">
<title>public.psc_branches:city_id&#45;&gt;public.cities:id</title>
<path fill="none" stroke="black" d="M1071.06,-726.68C1019.82,-703.51 1051.01,-497.38 1030.68,-439.2 1008.95,-376.97 1025.58,-309 959.67,-309"/>
<polygon fill="black" stroke="black" points="1071.1,-726.69 1079.96,-733.14 1076.32,-727.78 1080.56,-728.66 1080.56,-728.66 1080.56,-728.66 1076.32,-727.78 1081.81,-724.33 1071.1,-726.69"/>
</g>
<!-- public.psc_branches&#45;&gt;public.cities -->
<g id="edge5" class="edge">
<title>public.psc_branches:city_vi_id&#45;&gt;public.cities:id</title>
<path fill="none" stroke="black" d="M1071.21,-695.7C1025.92,-673.12 1049.32,-490.88 1030.68,-439.2 1008.32,-377.19 1025.58,-309 959.67,-309"/>
<polygon fill="black" stroke="black" points="1071.14,-695.68 1079.88,-702.31 1076.34,-696.88 1080.56,-697.85 1080.56,-697.85 1080.56,-697.85 1076.34,-696.88 1081.9,-693.54 1071.14,-695.68"/>
</g>
</g>
</svg>
