<?xml version="1.0" encoding="UTF-8" standalone="no"?>
<!DOCTYPE svg PUBLIC "-//W3C//DTD SVG 1.1//EN"
 "http://www.w3.org/Graphics/SVG/1.1/DTD/svg11.dtd">
<!-- Generated by graphviz version 12.1.2 (20240928.0832)
 -->
<!-- Title: public.roles Pages: 1 -->
<svg width="1240pt" height="393pt"
 viewBox="0.00 0.00 1240.01 392.82" xmlns="http://www.w3.org/2000/svg" xmlns:xlink="http://www.w3.org/1999/xlink">
<g id="graph0" class="graph" transform="scale(1 1) rotate(0) translate(4 388.82)">
<title>public.roles</title>
<polygon fill="white" stroke="none" points="-4,4 -4,-388.82 1236.01,-388.82 1236.01,4 -4,4"/>
<!-- public.roles -->
<g id="node1" class="node">
<title>public.roles</title>
<polygon fill="#efefef" stroke="none" points="472.69,-83.42 472.69,-119.02 695.66,-119.02 695.66,-83.42 472.69,-83.42"/>
<polygon fill="none" stroke="black" points="472.69,-83.42 472.69,-119.02 695.66,-119.02 695.66,-83.42 472.69,-83.42"/>
<text text-anchor="start" x="479.69" y="-96.82" font-family="Arial Bold" font-size="18.00">public.roles</text>
<text text-anchor="start" x="564.17" y="-96.82" font-family="Arial" font-size="14.00">    </text>
<text text-anchor="start" x="595.29" y="-96.82" font-family="Arial" font-size="14.00" fill="#666666">[BASE TABLE]</text>
<polygon fill="none" stroke="black" points="472.69,-52.62 472.69,-83.42 695.66,-83.42 695.66,-52.62 472.69,-52.62"/>
<text text-anchor="start" x="479.69" y="-64.82" font-family="Arial" font-size="14.00">id </text>
<text text-anchor="start" x="494.48" y="-64.82" font-family="Arial" font-size="14.00" fill="#666666">[bigint]</text>
<polygon fill="none" stroke="black" stroke-width="3" points="471.19,-51.12 471.19,-120.52 697.16,-120.52 697.16,-51.12 471.19,-51.12"/>
</g>
<!-- public.model_has_roles -->
<g id="node2" class="node">
<title>public.model_has_roles</title>
<polygon fill="#efefef" stroke="none" points="43.2,-290.62 43.2,-326.22 353.16,-326.22 353.16,-290.62 43.2,-290.62"/>
<polygon fill="none" stroke="black" points="43.2,-290.62 43.2,-326.22 353.16,-326.22 353.16,-290.62 43.2,-290.62"/>
<text text-anchor="start" x="50.2" y="-304.02" font-family="Arial Bold" font-size="18.00">public.model_has_roles</text>
<text text-anchor="start" x="221.67" y="-304.02" font-family="Arial" font-size="14.00">    </text>
<text text-anchor="start" x="252.78" y="-304.02" font-family="Arial" font-size="14.00" fill="#666666">[BASE TABLE]</text>
<polygon fill="none" stroke="black" points="43.2,-259.82 43.2,-290.62 353.16,-290.62 353.16,-259.82 43.2,-259.82"/>
<text text-anchor="start" x="50.2" y="-272.02" font-family="Arial" font-size="14.00">role_id </text>
<text text-anchor="start" x="96.12" y="-272.02" font-family="Arial" font-size="14.00" fill="#666666">[bigint]</text>
</g>
<!-- public.model_has_roles&#45;&gt;public.roles -->
<g id="edge1" class="edge">
<title>public.model_has_roles:role_id&#45;&gt;public.roles:id</title>
<path fill="none" stroke="black" d="M364.18,-272.6C408.82,-248.61 422.27,-68.02 471.69,-68.02"/>
<polygon fill="black" stroke="black" points="364.15,-272.6 353.34,-270.78 358.99,-273.95 354.8,-275.05 354.8,-275.05 354.8,-275.05 358.99,-273.95 355.62,-279.49 364.15,-272.6"/>
</g>
<!-- public.role_has_permissions -->
<g id="node3" class="node">
<title>public.role_has_permissions</title>
<polygon fill="#efefef" stroke="none" points="815.2,-306.02 815.2,-341.62 1159.16,-341.62 1159.16,-306.02 815.2,-306.02"/>
<polygon fill="none" stroke="black" points="815.2,-306.02 815.2,-341.62 1159.16,-341.62 1159.16,-306.02 815.2,-306.02"/>
<text text-anchor="start" x="822.2" y="-319.42" font-family="Arial Bold" font-size="18.00">public.role_has_permissions</text>
<text text-anchor="start" x="1027.67" y="-319.42" font-family="Arial" font-size="14.00">    </text>
<text text-anchor="start" x="1058.79" y="-319.42" font-family="Arial" font-size="14.00" fill="#666666">[BASE TABLE]</text>
<polygon fill="none" stroke="black" points="815.2,-275.22 815.2,-306.02 1159.16,-306.02 1159.16,-275.22 815.2,-275.22"/>
<text text-anchor="start" x="822.2" y="-287.42" font-family="Arial" font-size="14.00">permission_id </text>
<text text-anchor="start" x="912.46" y="-287.42" font-family="Arial" font-size="14.00" fill="#666666">[bigint]</text>
<polygon fill="none" stroke="black" points="815.2,-244.42 815.2,-275.22 1159.16,-275.22 1159.16,-244.42 815.2,-244.42"/>
<text text-anchor="start" x="822.2" y="-256.62" font-family="Arial" font-size="14.00">role_id </text>
<text text-anchor="start" x="868.11" y="-256.62" font-family="Arial" font-size="14.00" fill="#666666">[bigint]</text>
</g>
<!-- public.role_has_permissions&#45;&gt;public.roles -->
<g id="edge2" class="edge">
<title>public.role_has_permissions:role_id&#45;&gt;public.roles:id</title>
<path fill="none" stroke="black" d="M804.38,-257.25C761.66,-234.49 743.23,-68.02 696.66,-68.02"/>
<polygon fill="black" stroke="black" points="804.2,-257.2 812.74,-264.09 809.36,-258.55 813.55,-259.65 813.55,-259.65 813.55,-259.65 809.36,-258.55 815.01,-255.38 804.2,-257.2"/>
</g>
<!-- public.permissions -->
<g id="node4" class="node">
<title>public.permissions</title>
<polygon fill="#efefef" stroke="none" points="850.19,-83.42 850.19,-119.02 1124.17,-119.02 1124.17,-83.42 850.19,-83.42"/>
<polygon fill="none" stroke="black" points="850.19,-83.42 850.19,-119.02 1124.17,-119.02 1124.17,-83.42 850.19,-83.42"/>
<text text-anchor="start" x="857.19" y="-96.82" font-family="Arial Bold" font-size="18.00">public.permissions</text>
<text text-anchor="start" x="992.68" y="-96.82" font-family="Arial" font-size="14.00">    </text>
<text text-anchor="start" x="1023.8" y="-96.82" font-family="Arial" font-size="14.00" fill="#666666">[BASE TABLE]</text>
<polygon fill="none" stroke="black" points="850.19,-52.62 850.19,-83.42 1124.17,-83.42 1124.17,-52.62 850.19,-52.62"/>
<text text-anchor="start" x="857.19" y="-64.82" font-family="Arial" font-size="14.00">id </text>
<text text-anchor="start" x="871.97" y="-64.82" font-family="Arial" font-size="14.00" fill="#666666">[bigint]</text>
</g>
<!-- public.role_has_permissions&#45;&gt;public.permissions -->
<g id="edge3" class="edge">
<title>public.role_has_permissions:permission_id&#45;&gt;public.permissions:id</title>
<path fill="none" stroke="black" d="M1170.56,-290.06C1264.28,-279.58 1239.44,-125.09 1167.37,-52.62 1110.9,4.17 987.18,28.47 987.18,-51.62"/>
<polygon fill="black" stroke="black" points="1170.48,-290.06 1160.25,-286.11 1165.15,-290.35 1160.83,-290.58 1160.83,-290.58 1160.83,-290.58 1165.15,-290.35 1160.73,-295.09 1170.48,-290.06"/>
</g>
<!-- public.role_role -->
<g id="node5" class="node">
<title>public.role_role</title>
<polygon fill="#efefef" stroke="none" points="457.7,-306.02 457.7,-341.62 710.65,-341.62 710.65,-306.02 457.7,-306.02"/>
<polygon fill="none" stroke="black" points="457.7,-306.02 457.7,-341.62 710.65,-341.62 710.65,-306.02 457.7,-306.02"/>
<text text-anchor="start" x="464.7" y="-319.42" font-family="Arial Bold" font-size="18.00">public.role_role</text>
<text text-anchor="start" x="579.16" y="-319.42" font-family="Arial" font-size="14.00">    </text>
<text text-anchor="start" x="610.28" y="-319.42" font-family="Arial" font-size="14.00" fill="#666666">[BASE TABLE]</text>
<polygon fill="none" stroke="black" points="457.7,-275.22 457.7,-306.02 710.65,-306.02 710.65,-275.22 457.7,-275.22"/>
<text text-anchor="start" x="464.7" y="-287.42" font-family="Arial" font-size="14.00">role_id </text>
<text text-anchor="start" x="510.62" y="-287.42" font-family="Arial" font-size="14.00" fill="#666666">[bigint]</text>
<polygon fill="none" stroke="black" points="457.7,-244.42 457.7,-275.22 710.65,-275.22 710.65,-244.42 457.7,-244.42"/>
<text text-anchor="start" x="464.7" y="-256.62" font-family="Arial" font-size="14.00">role_to_assign_id </text>
<text text-anchor="start" x="578.34" y="-256.62" font-family="Arial" font-size="14.00" fill="#666666">[bigint]</text>
</g>
<!-- public.role_role&#45;&gt;public.roles -->
<g id="edge4" class="edge">
<title>public.role_role:role_id&#45;&gt;public.roles:id</title>
<path fill="none" stroke="black" d="M721.76,-288.08C766.66,-264.75 776.95,-87.92 741.86,-52.62 692.46,-2.9 584.18,18.47 584.18,-51.62"/>
<polygon fill="black" stroke="black" points="721.67,-288.1 710.88,-286.17 716.5,-289.4 712.3,-290.45 712.3,-290.45 712.3,-290.45 716.5,-289.4 713.07,-294.9 721.67,-288.1"/>
</g>
<!-- public.role_role&#45;&gt;public.roles -->
<g id="edge5" class="edge">
<title>public.role_role:role_to_assign_id&#45;&gt;public.roles:id</title>
<path fill="none" stroke="black" d="M584.93,-233.34C594.93,-171.13 702.56,-228.58 741.86,-165.22 768.24,-122.69 777.14,-88.12 741.86,-52.62 692.46,-2.9 584.18,18.47 584.18,-51.62"/>
<polygon fill="black" stroke="black" points="584.94,-233.11 579.71,-242.75 584.55,-238.43 584.23,-242.75 584.23,-242.75 584.23,-242.75 584.55,-238.43 588.69,-243.42 584.94,-233.11"/>
</g>
</g>
</svg>
