<?xml version="1.0" encoding="UTF-8" standalone="no"?>
<!DOCTYPE svg PUBLIC "-//W3C//DTD SVG 1.1//EN"
 "http://www.w3.org/Graphics/SVG/1.1/DTD/svg11.dtd">
<!-- Generated by graphviz version 12.1.2 (20240928.0832)
 -->
<!-- Title: public.forms Pages: 1 -->
<svg width="2235pt" height="1124pt"
 viewBox="0.00 0.00 2235.33 1123.60" xmlns="http://www.w3.org/2000/svg" xmlns:xlink="http://www.w3.org/1999/xlink">
<g id="graph0" class="graph" transform="scale(1 1) rotate(0) translate(4 1119.6)">
<title>public.forms</title>
<polygon fill="white" stroke="none" points="-4,4 -4,-1119.6 2231.33,-1119.6 2231.33,4 -4,4"/>
<!-- public.forms -->
<g id="node1" class="node">
<title>public.forms</title>
<polygon fill="#efefef" stroke="none" points="396.19,-289.6 396.19,-325.2 626.16,-325.2 626.16,-289.6 396.19,-289.6"/>
<polygon fill="none" stroke="black" points="396.19,-289.6 396.19,-325.2 626.16,-325.2 626.16,-289.6 396.19,-289.6"/>
<text text-anchor="start" x="403.19" y="-303" font-family="Arial Bold" font-size="18.00">public.forms</text>
<text text-anchor="start" x="494.67" y="-303" font-family="Arial" font-size="14.00">    </text>
<text text-anchor="start" x="525.79" y="-303" font-family="Arial" font-size="14.00" fill="#666666">[BASE TABLE]</text>
<polygon fill="none" stroke="black" points="396.19,-258.8 396.19,-289.6 626.16,-289.6 626.16,-258.8 396.19,-258.8"/>
<text text-anchor="start" x="403.19" y="-271" font-family="Arial" font-size="14.00">id </text>
<text text-anchor="start" x="417.98" y="-271" font-family="Arial" font-size="14.00" fill="#666666">[bigint]</text>
<polygon fill="none" stroke="black" stroke-width="3" points="394.69,-257.3 394.69,-326.7 627.66,-326.7 627.66,-257.3 394.69,-257.3"/>
</g>
<!-- public.form_service -->
<g id="node2" class="node">
<title>public.form_service</title>
<polygon fill="#efefef" stroke="none" points="142.71,-771 142.71,-806.6 425.65,-806.6 425.65,-771 142.71,-771"/>
<polygon fill="none" stroke="black" points="142.71,-771 142.71,-806.6 425.65,-806.6 425.65,-771 142.71,-771"/>
<text text-anchor="start" x="149.71" y="-784.4" font-family="Arial Bold" font-size="18.00">public.form_service</text>
<text text-anchor="start" x="294.16" y="-784.4" font-family="Arial" font-size="14.00">    </text>
<text text-anchor="start" x="325.27" y="-784.4" font-family="Arial" font-size="14.00" fill="#666666">[BASE TABLE]</text>
<polygon fill="none" stroke="black" points="142.71,-740.2 142.71,-771 425.65,-771 425.65,-740.2 142.71,-740.2"/>
<text text-anchor="start" x="149.71" y="-752.4" font-family="Arial" font-size="14.00">form_id </text>
<text text-anchor="start" x="200.28" y="-752.4" font-family="Arial" font-size="14.00" fill="#666666">[bigint]</text>
<polygon fill="none" stroke="black" points="142.71,-709.4 142.71,-740.2 425.65,-740.2 425.65,-709.4 142.71,-709.4"/>
<text text-anchor="start" x="149.71" y="-721.6" font-family="Arial" font-size="14.00">service_id </text>
<text text-anchor="start" x="216.62" y="-721.6" font-family="Arial" font-size="14.00" fill="#666666">[bigint]</text>
</g>
<!-- public.form_service&#45;&gt;public.forms -->
<g id="edge1" class="edge">
<title>public.form_service:form_id&#45;&gt;public.forms:id</title>
<path fill="none" stroke="black" d="M436.67,-753.86C517,-722.35 291.75,-274.2 395.19,-274.2"/>
<polygon fill="black" stroke="black" points="436.83,-753.83 426.2,-751.11 431.57,-754.74 427.3,-755.49 427.3,-755.49 427.3,-755.49 431.57,-754.74 427.75,-759.98 436.83,-753.83"/>
</g>
<!-- public.services -->
<g id="node3" class="node">
<title>public.services</title>
<polygon fill="#efefef" stroke="none" points="43.2,-320.4 43.2,-356 289.15,-356 289.15,-320.4 43.2,-320.4"/>
<polygon fill="none" stroke="black" points="43.2,-320.4 43.2,-356 289.15,-356 289.15,-320.4 43.2,-320.4"/>
<text text-anchor="start" x="50.2" y="-333.8" font-family="Arial Bold" font-size="18.00">public.services</text>
<text text-anchor="start" x="157.66" y="-333.8" font-family="Arial" font-size="14.00">    </text>
<text text-anchor="start" x="188.78" y="-333.8" font-family="Arial" font-size="14.00" fill="#666666">[BASE TABLE]</text>
<polygon fill="none" stroke="black" points="43.2,-289.6 43.2,-320.4 289.15,-320.4 289.15,-289.6 43.2,-289.6"/>
<text text-anchor="start" x="50.2" y="-301.8" font-family="Arial" font-size="14.00">id </text>
<text text-anchor="start" x="64.99" y="-301.8" font-family="Arial" font-size="14.00" fill="#666666">[bigint]</text>
<polygon fill="none" stroke="black" points="43.2,-258.8 43.2,-289.6 289.15,-289.6 289.15,-258.8 43.2,-258.8"/>
<text text-anchor="start" x="50.2" y="-271" font-family="Arial" font-size="14.00">attune_department_id </text>
<text text-anchor="start" x="190.3" y="-271" font-family="Arial" font-size="14.00" fill="#666666">[bigint]</text>
<polygon fill="none" stroke="black" points="43.2,-228 43.2,-258.8 289.15,-258.8 289.15,-228 43.2,-228"/>
<text text-anchor="start" x="50.2" y="-240.2" font-family="Arial" font-size="14.00">simple_cate_id </text>
<text text-anchor="start" x="147.48" y="-240.2" font-family="Arial" font-size="14.00" fill="#666666">[bigint]</text>
</g>
<!-- public.form_service&#45;&gt;public.services -->
<g id="edge2" class="edge">
<title>public.form_service:service_id&#45;&gt;public.services:id</title>
<path fill="none" stroke="black" d="M131.45,-724.37C-36.25,-709.37 484.38,-305 290.15,-305"/>
<polygon fill="black" stroke="black" points="131.38,-724.37 141.19,-729.28 136.71,-724.59 141.04,-724.77 141.04,-724.77 141.04,-724.77 136.71,-724.59 141.56,-720.29 131.38,-724.37"/>
</g>
<!-- public.form_speciality -->
<g id="node4" class="node">
<title>public.form_speciality</title>
<polygon fill="#efefef" stroke="none" points="668.7,-771 668.7,-806.6 969.65,-806.6 969.65,-771 668.7,-771"/>
<polygon fill="none" stroke="black" points="668.7,-771 668.7,-806.6 969.65,-806.6 969.65,-771 668.7,-771"/>
<text text-anchor="start" x="675.7" y="-784.4" font-family="Arial Bold" font-size="18.00">public.form_speciality</text>
<text text-anchor="start" x="838.16" y="-784.4" font-family="Arial" font-size="14.00">    </text>
<text text-anchor="start" x="869.28" y="-784.4" font-family="Arial" font-size="14.00" fill="#666666">[BASE TABLE]</text>
<polygon fill="none" stroke="black" points="668.7,-740.2 668.7,-771 969.65,-771 969.65,-740.2 668.7,-740.2"/>
<text text-anchor="start" x="675.7" y="-752.4" font-family="Arial" font-size="14.00">form_id </text>
<text text-anchor="start" x="726.28" y="-752.4" font-family="Arial" font-size="14.00" fill="#666666">[bigint]</text>
<polygon fill="none" stroke="black" points="668.7,-709.4 668.7,-740.2 969.65,-740.2 969.65,-709.4 668.7,-709.4"/>
<text text-anchor="start" x="675.7" y="-721.6" font-family="Arial" font-size="14.00">speciality_id </text>
<text text-anchor="start" x="755.85" y="-721.6" font-family="Arial" font-size="14.00" fill="#666666">[bigint]</text>
</g>
<!-- public.form_speciality&#45;&gt;public.forms -->
<g id="edge3" class="edge">
<title>public.form_speciality:form_id&#45;&gt;public.forms:id</title>
<path fill="none" stroke="black" d="M657.66,-753.95C571.92,-723.25 730.85,-274.2 627.16,-274.2"/>
<polygon fill="black" stroke="black" points="657.51,-753.93 666.64,-759.99 662.77,-754.79 667.04,-755.49 667.04,-755.49 667.04,-755.49 662.77,-754.79 668.1,-751.11 657.51,-753.93"/>
</g>
<!-- public.specialities -->
<g id="node5" class="node">
<title>public.specialities</title>
<polygon fill="#efefef" stroke="none" points="733.2,-289.6 733.2,-325.2 1001.15,-325.2 1001.15,-289.6 733.2,-289.6"/>
<polygon fill="none" stroke="black" points="733.2,-289.6 733.2,-325.2 1001.15,-325.2 1001.15,-289.6 733.2,-289.6"/>
<text text-anchor="start" x="740.2" y="-303" font-family="Arial Bold" font-size="18.00">public.specialities</text>
<text text-anchor="start" x="869.66" y="-303" font-family="Arial" font-size="14.00">    </text>
<text text-anchor="start" x="900.78" y="-303" font-family="Arial" font-size="14.00" fill="#666666">[BASE TABLE]</text>
<polygon fill="none" stroke="black" points="733.2,-258.8 733.2,-289.6 1001.15,-289.6 1001.15,-258.8 733.2,-258.8"/>
<text text-anchor="start" x="740.2" y="-271" font-family="Arial" font-size="14.00">id </text>
<text text-anchor="start" x="754.99" y="-271" font-family="Arial" font-size="14.00" fill="#666666">[bigint]</text>
</g>
<!-- public.form_speciality&#45;&gt;public.specialities -->
<g id="edge4" class="edge">
<title>public.form_speciality:speciality_id&#45;&gt;public.specialities:id</title>
<path fill="none" stroke="black" d="M818.61,-698.17C807.52,-588.7 636.97,-274.2 732.2,-274.2"/>
<polygon fill="black" stroke="black" points="818.61,-698.08 814.66,-708.31 818.9,-703.41 819.14,-707.73 819.14,-707.73 819.14,-707.73 818.9,-703.41 823.65,-707.82 818.61,-698.08"/>
</g>
<!-- public.reports -->
<g id="node6" class="node">
<title>public.reports</title>
<polygon fill="#efefef" stroke="none" points="1143.61,-817.2 1143.61,-852.8 1388.74,-852.8 1388.74,-817.2 1143.61,-817.2"/>
<polygon fill="none" stroke="black" points="1143.61,-817.2 1143.61,-852.8 1388.74,-852.8 1388.74,-817.2 1143.61,-817.2"/>
<text text-anchor="start" x="1154.19" y="-830.6" font-family="Arial Bold" font-size="18.00">public.reports</text>
<text text-anchor="start" x="1253.67" y="-830.6" font-family="Arial" font-size="14.00">    </text>
<text text-anchor="start" x="1284.79" y="-830.6" font-family="Arial" font-size="14.00" fill="#666666">[BASE TABLE]</text>
<polygon fill="none" stroke="black" points="1143.61,-786.4 1143.61,-817.2 1388.74,-817.2 1388.74,-786.4 1143.61,-786.4"/>
<text text-anchor="start" x="1150.61" y="-798.6" font-family="Arial" font-size="14.00">id </text>
<text text-anchor="start" x="1165.39" y="-798.6" font-family="Arial" font-size="14.00" fill="#666666">[bigint]</text>
<polygon fill="none" stroke="black" points="1143.61,-755.6 1143.61,-786.4 1388.74,-786.4 1388.74,-755.6 1143.61,-755.6"/>
<text text-anchor="start" x="1150.61" y="-767.8" font-family="Arial" font-size="14.00">user_id </text>
<text text-anchor="start" x="1200.41" y="-767.8" font-family="Arial" font-size="14.00" fill="#666666">[bigint]</text>
<polygon fill="none" stroke="black" points="1143.61,-724.8 1143.61,-755.6 1388.74,-755.6 1388.74,-724.8 1143.61,-724.8"/>
<text text-anchor="start" x="1150.61" y="-737" font-family="Arial" font-size="14.00">checkup_id </text>
<text text-anchor="start" x="1225.33" y="-737" font-family="Arial" font-size="14.00" fill="#666666">[bigint]</text>
<polygon fill="none" stroke="black" points="1143.61,-694 1143.61,-724.8 1388.74,-724.8 1388.74,-694 1143.61,-694"/>
<text text-anchor="start" x="1150.61" y="-706.2" font-family="Arial" font-size="14.00">form_id </text>
<text text-anchor="start" x="1201.18" y="-706.2" font-family="Arial" font-size="14.00" fill="#666666">[bigint]</text>
<polygon fill="none" stroke="black" points="1143.61,-663.2 1143.61,-694 1388.74,-694 1388.74,-663.2 1143.61,-663.2"/>
<text text-anchor="start" x="1150.61" y="-675.4" font-family="Arial" font-size="14.00">examination_refuse_waver_id </text>
<text text-anchor="start" x="1340.5" y="-675.4" font-family="Arial" font-size="14.00" fill="#666666">[bigint]</text>
</g>
<!-- public.reports&#45;&gt;public.forms -->
<g id="edge5" class="edge">
<title>public.reports:form_id&#45;&gt;public.forms:id</title>
<path fill="none" stroke="black" d="M1132.32,-708.83C1076.65,-702.39 1080.88,-642.9 1022.18,-620 951.19,-592.31 736.84,-636.03 681.18,-584 630.12,-536.28 697.05,-274.2 627.16,-274.2"/>
<polygon fill="black" stroke="black" points="1132.29,-708.83 1142.03,-713.87 1137.62,-709.12 1141.94,-709.36 1141.94,-709.36 1141.94,-709.36 1137.62,-709.12 1142.52,-704.89 1132.29,-708.83"/>
</g>
<!-- public.users -->
<g id="node11" class="node">
<title>public.users</title>
<polygon fill="#efefef" stroke="none" points="1105.69,-505.2 1105.69,-540.8 1330.66,-540.8 1330.66,-505.2 1105.69,-505.2"/>
<polygon fill="none" stroke="black" points="1105.69,-505.2 1105.69,-540.8 1330.66,-540.8 1330.66,-505.2 1105.69,-505.2"/>
<text text-anchor="start" x="1112.69" y="-518.6" font-family="Arial Bold" font-size="18.00">public.users</text>
<text text-anchor="start" x="1199.17" y="-518.6" font-family="Arial" font-size="14.00">    </text>
<text text-anchor="start" x="1230.29" y="-518.6" font-family="Arial" font-size="14.00" fill="#666666">[BASE TABLE]</text>
<polygon fill="none" stroke="black" points="1105.69,-474.4 1105.69,-505.2 1330.66,-505.2 1330.66,-474.4 1105.69,-474.4"/>
<text text-anchor="start" x="1112.69" y="-486.6" font-family="Arial" font-size="14.00">id </text>
<text text-anchor="start" x="1127.48" y="-486.6" font-family="Arial" font-size="14.00" fill="#666666">[bigint]</text>
<polygon fill="none" stroke="black" points="1105.69,-443.6 1105.69,-474.4 1330.66,-474.4 1330.66,-443.6 1105.69,-443.6"/>
<text text-anchor="start" x="1112.69" y="-455.8" font-family="Arial" font-size="14.00">email </text>
<text text-anchor="start" x="1150.03" y="-455.8" font-family="Arial" font-size="14.00" fill="#666666">[varchar(255)]</text>
<polygon fill="none" stroke="black" points="1105.69,-412.8 1105.69,-443.6 1330.66,-443.6 1330.66,-412.8 1105.69,-412.8"/>
<text text-anchor="start" x="1112.69" y="-425" font-family="Arial" font-size="14.00">branch_id </text>
<text text-anchor="start" x="1178.07" y="-425" font-family="Arial" font-size="14.00" fill="#666666">[bigint]</text>
<polygon fill="none" stroke="black" points="1105.69,-382 1105.69,-412.8 1330.66,-412.8 1330.66,-382 1105.69,-382"/>
<text text-anchor="start" x="1112.69" y="-394.2" font-family="Arial" font-size="14.00">sex_id </text>
<text text-anchor="start" x="1157.05" y="-394.2" font-family="Arial" font-size="14.00" fill="#666666">[bigint]</text>
<polygon fill="none" stroke="black" points="1105.69,-351.2 1105.69,-382 1330.66,-382 1330.66,-351.2 1105.69,-351.2"/>
<text text-anchor="start" x="1112.69" y="-363.4" font-family="Arial" font-size="14.00">user_status_id </text>
<text text-anchor="start" x="1207.63" y="-363.4" font-family="Arial" font-size="14.00" fill="#666666">[bigint]</text>
<polygon fill="none" stroke="black" points="1105.69,-320.4 1105.69,-351.2 1330.66,-351.2 1330.66,-320.4 1105.69,-320.4"/>
<text text-anchor="start" x="1112.69" y="-332.6" font-family="Arial" font-size="14.00">nationality_id </text>
<text text-anchor="start" x="1198.3" y="-332.6" font-family="Arial" font-size="14.00" fill="#666666">[bigint]</text>
<polygon fill="none" stroke="black" points="1105.69,-289.6 1105.69,-320.4 1330.66,-320.4 1330.66,-289.6 1105.69,-289.6"/>
<text text-anchor="start" x="1112.69" y="-301.8" font-family="Arial" font-size="14.00">city_id </text>
<text text-anchor="start" x="1156.26" y="-301.8" font-family="Arial" font-size="14.00" fill="#666666">[bigint]</text>
<polygon fill="none" stroke="black" points="1105.69,-258.8 1105.69,-289.6 1330.66,-289.6 1330.66,-258.8 1105.69,-258.8"/>
<text text-anchor="start" x="1112.69" y="-271" font-family="Arial" font-size="14.00">image_id </text>
<text text-anchor="start" x="1173.39" y="-271" font-family="Arial" font-size="14.00" fill="#666666">[bigint]</text>
<polygon fill="none" stroke="black" points="1105.69,-228 1105.69,-258.8 1330.66,-258.8 1330.66,-228 1105.69,-228"/>
<text text-anchor="start" x="1112.69" y="-240.2" font-family="Arial" font-size="14.00">signature_image_id </text>
<text text-anchor="start" x="1238.77" y="-240.2" font-family="Arial" font-size="14.00" fill="#666666">[bigint]</text>
<polygon fill="none" stroke="black" points="1105.69,-197.2 1105.69,-228 1330.66,-228 1330.66,-197.2 1105.69,-197.2"/>
<text text-anchor="start" x="1112.69" y="-209.4" font-family="Arial" font-size="14.00">position_id </text>
<text text-anchor="start" x="1183.52" y="-209.4" font-family="Arial" font-size="14.00" fill="#666666">[bigint]</text>
<polygon fill="none" stroke="black" points="1105.69,-166.4 1105.69,-197.2 1330.66,-197.2 1330.66,-166.4 1105.69,-166.4"/>
<text text-anchor="start" x="1112.69" y="-178.6" font-family="Arial" font-size="14.00">mobile_number_id </text>
<text text-anchor="start" x="1231.76" y="-178.6" font-family="Arial" font-size="14.00" fill="#666666">[bigint]</text>
<polygon fill="none" stroke="black" points="1105.69,-135.6 1105.69,-166.4 1330.66,-166.4 1330.66,-135.6 1105.69,-135.6"/>
<text text-anchor="start" x="1112.69" y="-147.8" font-family="Arial" font-size="14.00">home_number_id </text>
<text text-anchor="start" x="1225.54" y="-147.8" font-family="Arial" font-size="14.00" fill="#666666">[bigint]</text>
<polygon fill="none" stroke="black" points="1105.69,-104.8 1105.69,-135.6 1330.66,-135.6 1330.66,-104.8 1105.69,-104.8"/>
<text text-anchor="start" x="1112.69" y="-117" font-family="Arial" font-size="14.00">bank_id </text>
<text text-anchor="start" x="1165.62" y="-117" font-family="Arial" font-size="14.00" fill="#666666">[bigint]</text>
<polygon fill="none" stroke="black" points="1105.69,-74 1105.69,-104.8 1330.66,-104.8 1330.66,-74 1105.69,-74"/>
<text text-anchor="start" x="1112.69" y="-86.2" font-family="Arial" font-size="14.00">created_by_user_id </text>
<text text-anchor="start" x="1239.55" y="-86.2" font-family="Arial" font-size="14.00" fill="#666666">[bigint]</text>
<polygon fill="none" stroke="black" points="1105.69,-43.2 1105.69,-74 1330.66,-74 1330.66,-43.2 1105.69,-43.2"/>
<text text-anchor="start" x="1112.69" y="-55.4" font-family="Arial" font-size="14.00">profile_status_id </text>
<text text-anchor="start" x="1218.53" y="-55.4" font-family="Arial" font-size="14.00" fill="#666666">[bigint]</text>
</g>
<!-- public.reports&#45;&gt;public.users -->
<g id="edge10" class="edge">
<title>public.reports:user_id&#45;&gt;public.users:id</title>
<path fill="none" stroke="black" d="M1132.41,-770.13C1078.31,-760.27 1103.05,-668.78 1143.61,-620 1197.74,-554.9 1276.41,-648.99 1330.66,-584 1357.5,-551.86 1373.53,-489.8 1331.66,-489.8"/>
<polygon fill="black" stroke="black" points="1132.31,-770.12 1141.89,-775.46 1137.63,-770.58 1141.94,-770.94 1141.94,-770.94 1141.94,-770.94 1137.63,-770.58 1142.66,-766.49 1132.31,-770.12"/>
</g>
<!-- public.checkups -->
<g id="node12" class="node">
<title>public.checkups</title>
<polygon fill="#efefef" stroke="none" points="1434.7,-366.6 1434.7,-402.2 1689.65,-402.2 1689.65,-366.6 1434.7,-366.6"/>
<polygon fill="none" stroke="black" points="1434.7,-366.6 1434.7,-402.2 1689.65,-402.2 1689.65,-366.6 1434.7,-366.6"/>
<text text-anchor="start" x="1441.7" y="-380" font-family="Arial Bold" font-size="18.00">public.checkups</text>
<text text-anchor="start" x="1558.16" y="-380" font-family="Arial" font-size="14.00">    </text>
<text text-anchor="start" x="1589.28" y="-380" font-family="Arial" font-size="14.00" fill="#666666">[BASE TABLE]</text>
<polygon fill="none" stroke="black" points="1434.7,-335.8 1434.7,-366.6 1689.65,-366.6 1689.65,-335.8 1434.7,-335.8"/>
<text text-anchor="start" x="1441.7" y="-348" font-family="Arial" font-size="14.00">id </text>
<text text-anchor="start" x="1456.49" y="-348" font-family="Arial" font-size="14.00" fill="#666666">[bigint]</text>
<polygon fill="none" stroke="black" points="1434.7,-305 1434.7,-335.8 1689.65,-335.8 1689.65,-305 1434.7,-305"/>
<text text-anchor="start" x="1441.7" y="-317.2" font-family="Arial" font-size="14.00">patient_id </text>
<text text-anchor="start" x="1506.31" y="-317.2" font-family="Arial" font-size="14.00" fill="#666666">[bigint]</text>
<polygon fill="none" stroke="black" points="1434.7,-274.2 1434.7,-305 1689.65,-305 1689.65,-274.2 1434.7,-274.2"/>
<text text-anchor="start" x="1441.7" y="-286.4" font-family="Arial" font-size="14.00">branch_id </text>
<text text-anchor="start" x="1507.08" y="-286.4" font-family="Arial" font-size="14.00" fill="#666666">[bigint]</text>
<polygon fill="none" stroke="black" points="1434.7,-243.4 1434.7,-274.2 1689.65,-274.2 1689.65,-243.4 1434.7,-243.4"/>
<text text-anchor="start" x="1441.7" y="-255.6" font-family="Arial" font-size="14.00">created_by_user_id </text>
<text text-anchor="start" x="1568.56" y="-255.6" font-family="Arial" font-size="14.00" fill="#666666">[bigint]</text>
<polygon fill="none" stroke="black" points="1434.7,-212.6 1434.7,-243.4 1689.65,-243.4 1689.65,-212.6 1434.7,-212.6"/>
<text text-anchor="start" x="1441.7" y="-224.8" font-family="Arial" font-size="14.00">company_lot_id </text>
<text text-anchor="start" x="1543.65" y="-224.8" font-family="Arial" font-size="14.00" fill="#666666">[bigint]</text>
<polygon fill="none" stroke="black" points="1434.7,-181.8 1434.7,-212.6 1689.65,-212.6 1689.65,-181.8 1434.7,-181.8"/>
<text text-anchor="start" x="1441.7" y="-194" font-family="Arial" font-size="14.00">company_id </text>
<text text-anchor="start" x="1521.08" y="-194" font-family="Arial" font-size="14.00" fill="#666666">[bigint]</text>
</g>
<!-- public.reports&#45;&gt;public.checkups -->
<g id="edge11" class="edge">
<title>public.reports:checkup_id&#45;&gt;public.checkups:id</title>
<path fill="none" stroke="black" d="M1399.79,-738.11C1465.97,-707.49 1350.44,-351.2 1433.7,-351.2"/>
<polygon fill="black" stroke="black" points="1399.86,-738.09 1389.15,-735.73 1394.64,-739.18 1390.4,-740.06 1390.4,-740.06 1390.4,-740.06 1394.64,-739.18 1390.99,-744.54 1399.86,-738.09"/>
</g>
<!-- public.examination_refuse_wavers -->
<g id="node13" class="node">
<title>public.examination_refuse_wavers</title>
<polygon fill="#efefef" stroke="none" points="1794.23,-320.4 1794.23,-356 2184.13,-356 2184.13,-320.4 1794.23,-320.4"/>
<polygon fill="none" stroke="black" points="1794.23,-320.4 1794.23,-356 2184.13,-356 2184.13,-320.4 1794.23,-320.4"/>
<text text-anchor="start" x="1801.23" y="-333.8" font-family="Arial Bold" font-size="18.00">public.examination_refuse_wavers</text>
<text text-anchor="start" x="2052.64" y="-333.8" font-family="Arial" font-size="14.00">    </text>
<text text-anchor="start" x="2083.75" y="-333.8" font-family="Arial" font-size="14.00" fill="#666666">[BASE TABLE]</text>
<polygon fill="none" stroke="black" points="1794.23,-289.6 1794.23,-320.4 2184.13,-320.4 2184.13,-289.6 1794.23,-289.6"/>
<text text-anchor="start" x="1801.23" y="-301.8" font-family="Arial" font-size="14.00">id </text>
<text text-anchor="start" x="1816.01" y="-301.8" font-family="Arial" font-size="14.00" fill="#666666">[bigint]</text>
<polygon fill="none" stroke="black" points="1794.23,-258.8 1794.23,-289.6 2184.13,-289.6 2184.13,-258.8 1794.23,-258.8"/>
<text text-anchor="start" x="1801.23" y="-271" font-family="Arial" font-size="14.00">checkup_id </text>
<text text-anchor="start" x="1875.94" y="-271" font-family="Arial" font-size="14.00" fill="#666666">[bigint]</text>
<polygon fill="none" stroke="black" points="1794.23,-228 1794.23,-258.8 2184.13,-258.8 2184.13,-228 1794.23,-228"/>
<text text-anchor="start" x="1801.23" y="-240.2" font-family="Arial" font-size="14.00">signature_id </text>
<text text-anchor="start" x="1881.39" y="-240.2" font-family="Arial" font-size="14.00" fill="#666666">[bigint]</text>
</g>
<!-- public.reports&#45;&gt;public.examination_refuse_wavers -->
<g id="edge12" class="edge">
<title>public.reports:examination_refuse_waver_id&#45;&gt;public.examination_refuse_wavers:id</title>
<path fill="none" stroke="black" d="M1400.12,-678.43C1487.9,-675.76 1689.41,-641.23 1742.18,-584 1827.62,-491.32 1667.17,-305 1793.23,-305"/>
<polygon fill="black" stroke="black" points="1400.08,-678.43 1390.01,-674.1 1394.74,-678.52 1390.41,-678.59 1390.41,-678.59 1390.41,-678.59 1394.74,-678.52 1390.15,-683.09 1400.08,-678.43"/>
</g>
<!-- public.file_report -->
<g id="node7" class="node">
<title>public.file_report</title>
<polygon fill="#efefef" stroke="none" points="529.2,-1036.8 529.2,-1072.4 793.15,-1072.4 793.15,-1036.8 529.2,-1036.8"/>
<polygon fill="none" stroke="black" points="529.2,-1036.8 529.2,-1072.4 793.15,-1072.4 793.15,-1036.8 529.2,-1036.8"/>
<text text-anchor="start" x="536.2" y="-1050.2" font-family="Arial Bold" font-size="18.00">public.file_report</text>
<text text-anchor="start" x="661.66" y="-1050.2" font-family="Arial" font-size="14.00">    </text>
<text text-anchor="start" x="692.78" y="-1050.2" font-family="Arial" font-size="14.00" fill="#666666">[BASE TABLE]</text>
<polygon fill="none" stroke="black" points="529.2,-1006 529.2,-1036.8 793.15,-1036.8 793.15,-1006 529.2,-1006"/>
<text text-anchor="start" x="536.2" y="-1018.2" font-family="Arial" font-size="14.00">file_id </text>
<text text-anchor="start" x="576.67" y="-1018.2" font-family="Arial" font-size="14.00" fill="#666666">[bigint]</text>
<polygon fill="none" stroke="black" points="529.2,-975.2 529.2,-1006 793.15,-1006 793.15,-975.2 529.2,-975.2"/>
<text text-anchor="start" x="536.2" y="-987.4" font-family="Arial" font-size="14.00">report_id </text>
<text text-anchor="start" x="595.35" y="-987.4" font-family="Arial" font-size="14.00" fill="#666666">[bigint]</text>
</g>
<!-- public.file_report&#45;&gt;public.reports -->
<g id="edge6" class="edge">
<title>public.file_report:report_id&#45;&gt;public.reports:id</title>
<path fill="none" stroke="black" d="M804.46,-989.01C826.15,-981.27 818.83,-947.35 845.18,-932 914.54,-891.59 949.28,-929.63 1022.18,-896 1083.88,-867.53 1074.65,-801.8 1142.61,-801.8"/>
<polygon fill="black" stroke="black" points="804.36,-989.02 793.79,-986.1 799.09,-989.84 794.81,-990.5 794.81,-990.5 794.81,-990.5 799.09,-989.84 795.17,-995 804.36,-989.02"/>
</g>
<!-- public.change_requests -->
<g id="node8" class="node">
<title>public.change_requests</title>
<polygon fill="#efefef" stroke="none" points="897.71,-1036.8 897.71,-1072.4 1204.64,-1072.4 1204.64,-1036.8 897.71,-1036.8"/>
<polygon fill="none" stroke="black" points="897.71,-1036.8 897.71,-1072.4 1204.64,-1072.4 1204.64,-1036.8 897.71,-1036.8"/>
<text text-anchor="start" x="904.71" y="-1050.2" font-family="Arial Bold" font-size="18.00">public.change_requests</text>
<text text-anchor="start" x="1073.15" y="-1050.2" font-family="Arial" font-size="14.00">    </text>
<text text-anchor="start" x="1104.27" y="-1050.2" font-family="Arial" font-size="14.00" fill="#666666">[BASE TABLE]</text>
<polygon fill="none" stroke="black" points="897.71,-1006 897.71,-1036.8 1204.64,-1036.8 1204.64,-1006 897.71,-1006"/>
<text text-anchor="start" x="904.71" y="-1018.2" font-family="Arial" font-size="14.00">requested_by_user_id </text>
<text text-anchor="start" x="1047.14" y="-1018.2" font-family="Arial" font-size="14.00" fill="#666666">[bigint]</text>
<polygon fill="none" stroke="black" points="897.71,-975.2 897.71,-1006 1204.64,-1006 1204.64,-975.2 897.71,-975.2"/>
<text text-anchor="start" x="904.71" y="-987.4" font-family="Arial" font-size="14.00">report_id </text>
<text text-anchor="start" x="963.86" y="-987.4" font-family="Arial" font-size="14.00" fill="#666666">[bigint]</text>
</g>
<!-- public.change_requests&#45;&gt;public.reports -->
<g id="edge7" class="edge">
<title>public.change_requests:report_id&#45;&gt;public.reports:id</title>
<path fill="none" stroke="black" d="M1215.41,-987.9C1227.14,-979.12 1215.6,-950.82 1204.64,-932 1188.79,-904.79 1159.37,-923.26 1143.61,-896 1122.65,-859.75 1100.74,-801.8 1142.61,-801.8"/>
<polygon fill="black" stroke="black" points="1215.6,-987.85 1204.77,-986.17 1210.46,-989.27 1206.29,-990.42 1206.29,-990.42 1206.29,-990.42 1210.46,-989.27 1207.16,-994.85 1215.6,-987.85"/>
</g>
<!-- public.prescription_histories -->
<g id="node9" class="node">
<title>public.prescription_histories</title>
<polygon fill="#efefef" stroke="none" points="1309.2,-1021.4 1309.2,-1057 1653.15,-1057 1653.15,-1021.4 1309.2,-1021.4"/>
<polygon fill="none" stroke="black" points="1309.2,-1021.4 1309.2,-1057 1653.15,-1057 1653.15,-1021.4 1309.2,-1021.4"/>
<text text-anchor="start" x="1316.2" y="-1034.8" font-family="Arial Bold" font-size="18.00">public.prescription_histories</text>
<text text-anchor="start" x="1521.66" y="-1034.8" font-family="Arial" font-size="14.00">    </text>
<text text-anchor="start" x="1552.78" y="-1034.8" font-family="Arial" font-size="14.00" fill="#666666">[BASE TABLE]</text>
<polygon fill="none" stroke="black" points="1309.2,-990.6 1309.2,-1021.4 1653.15,-1021.4 1653.15,-990.6 1309.2,-990.6"/>
<text text-anchor="start" x="1316.2" y="-1002.8" font-family="Arial" font-size="14.00">report_id </text>
<text text-anchor="start" x="1375.35" y="-1002.8" font-family="Arial" font-size="14.00" fill="#666666">[bigint]</text>
</g>
<!-- public.prescription_histories&#45;&gt;public.reports -->
<g id="edge8" class="edge">
<title>public.prescription_histories:report_id&#45;&gt;public.reports:id</title>
<path fill="none" stroke="black" d="M1298.46,-1003.32C1286.83,-994.59 1298.63,-966.43 1309.2,-947.4 1329.64,-910.61 1368.42,-932.86 1388.74,-896 1408.96,-859.33 1431.61,-801.8 1389.74,-801.8"/>
<polygon fill="black" stroke="black" points="1298.24,-1003.26 1306.69,-1010.25 1303.38,-1004.67 1307.56,-1005.82 1307.56,-1005.82 1307.56,-1005.82 1303.38,-1004.67 1309.07,-1001.57 1298.24,-1003.26"/>
</g>
<!-- public.internal_reports -->
<g id="node10" class="node">
<title>public.internal_reports</title>
<polygon fill="#efefef" stroke="none" points="1757.21,-1021.4 1757.21,-1057 2059.15,-1057 2059.15,-1021.4 1757.21,-1021.4"/>
<polygon fill="none" stroke="black" points="1757.21,-1021.4 1757.21,-1057 2059.15,-1057 2059.15,-1021.4 1757.21,-1021.4"/>
<text text-anchor="start" x="1764.21" y="-1034.8" font-family="Arial Bold" font-size="18.00">public.internal_reports</text>
<text text-anchor="start" x="1927.66" y="-1034.8" font-family="Arial" font-size="14.00">    </text>
<text text-anchor="start" x="1958.77" y="-1034.8" font-family="Arial" font-size="14.00" fill="#666666">[BASE TABLE]</text>
<polygon fill="none" stroke="black" points="1757.21,-990.6 1757.21,-1021.4 2059.15,-1021.4 2059.15,-990.6 1757.21,-990.6"/>
<text text-anchor="start" x="1764.21" y="-1002.8" font-family="Arial" font-size="14.00">report_id </text>
<text text-anchor="start" x="1823.35" y="-1002.8" font-family="Arial" font-size="14.00" fill="#666666">[bigint]</text>
</g>
<!-- public.internal_reports&#45;&gt;public.reports -->
<g id="edge9" class="edge">
<title>public.internal_reports:report_id&#45;&gt;public.reports:id</title>
<path fill="none" stroke="black" d="M1746.11,-1004.67C1719.68,-996.68 1733.22,-954.65 1705.18,-932 1587.18,-836.72 1541.41,-801.8 1389.74,-801.8"/>
<polygon fill="black" stroke="black" points="1745.96,-1004.65 1755.29,-1010.42 1751.25,-1005.35 1755.54,-1005.91 1755.54,-1005.91 1755.54,-1005.91 1751.25,-1005.35 1756.46,-1001.49 1745.96,-1004.65"/>
</g>
</g>
</svg>
