<?xml version="1.0" encoding="UTF-8" standalone="no"?>
<!DOCTYPE svg PUBLIC "-//W3C//DTD SVG 1.1//EN"
 "http://www.w3.org/Graphics/SVG/1.1/DTD/svg11.dtd">
<!-- Generated by graphviz version 12.1.2 (20240928.0832)
 -->
<!-- Title: public.role_role Pages: 1 -->
<svg width="1216pt" height="386pt"
 viewBox="0.00 0.00 1215.85 386.40" xmlns="http://www.w3.org/2000/svg" xmlns:xlink="http://www.w3.org/1999/xlink">
<g id="graph0" class="graph" transform="scale(1 1) rotate(0) translate(4 382.4)">
<title>public.role_role</title>
<polygon fill="white" stroke="none" points="-4,4 -4,-382.4 1211.85,-382.4 1211.85,4 -4,4"/>
<!-- public.role_role -->
<g id="node1" class="node">
<title>public.role_role</title>
<polygon fill="#efefef" stroke="none" points="46.2,-296.6 46.2,-332.2 299.15,-332.2 299.15,-296.6 46.2,-296.6"/>
<polygon fill="none" stroke="black" points="46.2,-296.6 46.2,-332.2 299.15,-332.2 299.15,-296.6 46.2,-296.6"/>
<text text-anchor="start" x="53.2" y="-310" font-family="Arial Bold" font-size="18.00">public.role_role</text>
<text text-anchor="start" x="167.66" y="-310" font-family="Arial" font-size="14.00">    </text>
<text text-anchor="start" x="198.78" y="-310" font-family="Arial" font-size="14.00" fill="#666666">[BASE TABLE]</text>
<polygon fill="none" stroke="black" points="46.2,-265.8 46.2,-296.6 299.15,-296.6 299.15,-265.8 46.2,-265.8"/>
<text text-anchor="start" x="53.2" y="-278" font-family="Arial" font-size="14.00">role_id </text>
<text text-anchor="start" x="99.12" y="-278" font-family="Arial" font-size="14.00" fill="#666666">[bigint]</text>
<polygon fill="none" stroke="black" points="46.2,-235 46.2,-265.8 299.15,-265.8 299.15,-235 46.2,-235"/>
<text text-anchor="start" x="53.2" y="-247.2" font-family="Arial" font-size="14.00">role_to_assign_id </text>
<text text-anchor="start" x="166.83" y="-247.2" font-family="Arial" font-size="14.00" fill="#666666">[bigint]</text>
<polygon fill="none" stroke="black" stroke-width="3" points="44.7,-233.5 44.7,-333.7 300.65,-333.7 300.65,-233.5 44.7,-233.5"/>
</g>
<!-- public.roles -->
<g id="node2" class="node">
<title>public.roles</title>
<polygon fill="#efefef" stroke="none" points="255.19,-74 255.19,-109.6 478.16,-109.6 478.16,-74 255.19,-74"/>
<polygon fill="none" stroke="black" points="255.19,-74 255.19,-109.6 478.16,-109.6 478.16,-74 255.19,-74"/>
<text text-anchor="start" x="262.19" y="-87.4" font-family="Arial Bold" font-size="18.00">public.roles</text>
<text text-anchor="start" x="346.67" y="-87.4" font-family="Arial" font-size="14.00">    </text>
<text text-anchor="start" x="377.79" y="-87.4" font-family="Arial" font-size="14.00" fill="#666666">[BASE TABLE]</text>
<polygon fill="none" stroke="black" points="255.19,-43.2 255.19,-74 478.16,-74 478.16,-43.2 255.19,-43.2"/>
<text text-anchor="start" x="262.19" y="-55.4" font-family="Arial" font-size="14.00">id </text>
<text text-anchor="start" x="276.98" y="-55.4" font-family="Arial" font-size="14.00" fill="#666666">[bigint]</text>
</g>
<!-- public.role_role&#45;&gt;public.roles -->
<g id="edge1" class="edge">
<title>public.role_role:role_id&#45;&gt;public.roles:id</title>
<path fill="none" stroke="black" d="M310.38,-279.68C336.54,-270.56 315.19,-222.21 299.15,-188.8 288.22,-166.04 266.12,-175.57 255.19,-152.8 237.07,-115.06 212.32,-58.6 254.19,-58.6"/>
<polygon fill="black" stroke="black" points="310.37,-279.69 299.82,-276.7 305.1,-280.47 300.81,-281.1 300.81,-281.1 300.81,-281.1 305.1,-280.47 301.14,-285.6 310.37,-279.69"/>
</g>
<!-- public.role_role&#45;&gt;public.roles -->
<g id="edge4" class="edge">
<title>public.role_role:role_to_assign_id&#45;&gt;public.roles:id</title>
<path fill="none" stroke="black" d="M309.96,-247.88C322.5,-239.15 309.21,-209.6 299.15,-188.8 288.16,-166.07 266.12,-175.57 255.19,-152.8 237.07,-115.06 212.32,-58.6 254.19,-58.6"/>
<polygon fill="black" stroke="black" points="310.16,-247.83 299.35,-245.96 304.99,-249.16 300.8,-250.23 300.8,-250.23 300.8,-250.23 304.99,-249.16 301.59,-254.68 310.16,-247.83"/>
</g>
<!-- public.model_has_roles -->
<g id="node3" class="node">
<title>public.model_has_roles</title>
<polygon fill="#efefef" stroke="none" points="406.7,-281.2 406.7,-316.8 716.65,-316.8 716.65,-281.2 406.7,-281.2"/>
<polygon fill="none" stroke="black" points="406.7,-281.2 406.7,-316.8 716.65,-316.8 716.65,-281.2 406.7,-281.2"/>
<text text-anchor="start" x="413.7" y="-294.6" font-family="Arial Bold" font-size="18.00">public.model_has_roles</text>
<text text-anchor="start" x="585.16" y="-294.6" font-family="Arial" font-size="14.00">    </text>
<text text-anchor="start" x="616.28" y="-294.6" font-family="Arial" font-size="14.00" fill="#666666">[BASE TABLE]</text>
<polygon fill="none" stroke="black" points="406.7,-250.4 406.7,-281.2 716.65,-281.2 716.65,-250.4 406.7,-250.4"/>
<text text-anchor="start" x="413.7" y="-262.6" font-family="Arial" font-size="14.00">role_id </text>
<text text-anchor="start" x="459.61" y="-262.6" font-family="Arial" font-size="14.00" fill="#666666">[bigint]</text>
</g>
<!-- public.model_has_roles&#45;&gt;public.roles -->
<g id="edge2" class="edge">
<title>public.model_has_roles:role_id&#45;&gt;public.roles:id</title>
<path fill="none" stroke="black" d="M395.7,-262.91C384.8,-254 396.95,-226.45 406.7,-207.2 424.72,-171.59 460.25,-188.47 478.16,-152.8 496.95,-115.38 521.03,-58.6 479.16,-58.6"/>
<polygon fill="black" stroke="black" points="395.77,-262.93 404.12,-270.03 400.89,-264.41 405.05,-265.61 405.05,-265.61 405.05,-265.61 400.89,-264.41 406.63,-261.38 395.77,-262.93"/>
</g>
<!-- public.role_has_permissions -->
<g id="node4" class="node">
<title>public.role_has_permissions</title>
<polygon fill="#efefef" stroke="none" points="820.69,-296.6 820.69,-332.2 1164.65,-332.2 1164.65,-296.6 820.69,-296.6"/>
<polygon fill="none" stroke="black" points="820.69,-296.6 820.69,-332.2 1164.65,-332.2 1164.65,-296.6 820.69,-296.6"/>
<text text-anchor="start" x="827.69" y="-310" font-family="Arial Bold" font-size="18.00">public.role_has_permissions</text>
<text text-anchor="start" x="1033.17" y="-310" font-family="Arial" font-size="14.00">    </text>
<text text-anchor="start" x="1064.28" y="-310" font-family="Arial" font-size="14.00" fill="#666666">[BASE TABLE]</text>
<polygon fill="none" stroke="black" points="820.69,-265.8 820.69,-296.6 1164.65,-296.6 1164.65,-265.8 820.69,-265.8"/>
<text text-anchor="start" x="827.69" y="-278" font-family="Arial" font-size="14.00">permission_id </text>
<text text-anchor="start" x="917.96" y="-278" font-family="Arial" font-size="14.00" fill="#666666">[bigint]</text>
<polygon fill="none" stroke="black" points="820.69,-235 820.69,-265.8 1164.65,-265.8 1164.65,-235 820.69,-235"/>
<text text-anchor="start" x="827.69" y="-247.2" font-family="Arial" font-size="14.00">role_id </text>
<text text-anchor="start" x="873.61" y="-247.2" font-family="Arial" font-size="14.00" fill="#666666">[bigint]</text>
</g>
<!-- public.role_has_permissions&#45;&gt;public.roles -->
<g id="edge3" class="edge">
<title>public.role_has_permissions:role_id&#45;&gt;public.roles:id</title>
<path fill="none" stroke="black" d="M809.65,-249.04C786.46,-241.86 793.86,-207.98 768.67,-188.8 656.43,-103.32 620.25,-58.6 479.16,-58.6"/>
<polygon fill="black" stroke="black" points="809.45,-249.01 818.76,-254.81 814.74,-249.73 819.03,-250.31 819.03,-250.31 819.03,-250.31 814.74,-249.73 819.97,-245.9 809.45,-249.01"/>
</g>
</g>
</svg>
