<?xml version="1.0" encoding="UTF-8" standalone="no"?>
<!DOCTYPE svg PUBLIC "-//W3C//DTD SVG 1.1//EN"
 "http://www.w3.org/Graphics/SVG/1.1/DTD/svg11.dtd">
<!-- Generated by graphviz version 12.1.2 (20240928.0832)
 -->
<!-- Title: public.service_groups Pages: 1 -->
<svg width="3314pt" height="534pt"
 viewBox="0.00 0.00 3313.81 534.40" xmlns="http://www.w3.org/2000/svg" xmlns:xlink="http://www.w3.org/1999/xlink">
<g id="graph0" class="graph" transform="scale(1 1) rotate(0) translate(4 530.4)">
<title>public.service_groups</title>
<polygon fill="white" stroke="none" points="-4,4 -4,-530.4 3309.81,-530.4 3309.81,4 -4,4"/>
<!-- public.service_groups -->
<g id="node1" class="node">
<title>public.service_groups</title>
<polygon fill="#efefef" stroke="none" points="1062.68,-151 1062.68,-186.6 1359.63,-186.6 1359.63,-151 1062.68,-151"/>
<polygon fill="none" stroke="black" points="1062.68,-151 1062.68,-186.6 1359.63,-186.6 1359.63,-151 1062.68,-151"/>
<text text-anchor="start" x="1069.68" y="-164.4" font-family="Arial Bold" font-size="18.00">public.service_groups</text>
<text text-anchor="start" x="1228.14" y="-164.4" font-family="Arial" font-size="14.00">    </text>
<text text-anchor="start" x="1259.26" y="-164.4" font-family="Arial" font-size="14.00" fill="#666666">[BASE TABLE]</text>
<polygon fill="none" stroke="black" points="1062.68,-120.2 1062.68,-151 1359.63,-151 1359.63,-120.2 1062.68,-120.2"/>
<text text-anchor="start" x="1069.68" y="-132.4" font-family="Arial" font-size="14.00">id </text>
<text text-anchor="start" x="1084.47" y="-132.4" font-family="Arial" font-size="14.00" fill="#666666">[bigint]</text>
<polygon fill="none" stroke="black" stroke-width="3" points="1061.18,-118.7 1061.18,-188.1 1361.13,-188.1 1361.13,-118.7 1061.18,-118.7"/>
</g>
<!-- public.service_service_group -->
<g id="node2" class="node">
<title>public.service_service_group</title>
<polygon fill="#efefef" stroke="none" points="43.2,-447.6 43.2,-483.2 393.11,-483.2 393.11,-447.6 43.2,-447.6"/>
<polygon fill="none" stroke="black" points="43.2,-447.6 43.2,-483.2 393.11,-483.2 393.11,-447.6 43.2,-447.6"/>
<text text-anchor="start" x="50.2" y="-461" font-family="Arial Bold" font-size="18.00">public.service_service_group</text>
<text text-anchor="start" x="261.62" y="-461" font-family="Arial" font-size="14.00">    </text>
<text text-anchor="start" x="292.74" y="-461" font-family="Arial" font-size="14.00" fill="#666666">[BASE TABLE]</text>
<polygon fill="none" stroke="black" points="43.2,-416.8 43.2,-447.6 393.11,-447.6 393.11,-416.8 43.2,-416.8"/>
<text text-anchor="start" x="50.2" y="-429" font-family="Arial" font-size="14.00">service_id </text>
<text text-anchor="start" x="117.12" y="-429" font-family="Arial" font-size="14.00" fill="#666666">[bigint]</text>
<polygon fill="none" stroke="black" points="43.2,-386 43.2,-416.8 393.11,-416.8 393.11,-386 43.2,-386"/>
<text text-anchor="start" x="50.2" y="-398.2" font-family="Arial" font-size="14.00">service_group_id </text>
<text text-anchor="start" x="160.71" y="-398.2" font-family="Arial" font-size="14.00" fill="#666666">[bigint]</text>
</g>
<!-- public.service_service_group&#45;&gt;public.service_groups -->
<g id="edge1" class="edge">
<title>public.service_service_group:service_group_id&#45;&gt;public.service_groups:id</title>
<path fill="none" stroke="black" d="M404.39,-399.74C425.92,-391.71 417.98,-356.63 445.16,-342.8 608.98,-259.44 687.29,-377.03 857.16,-306.8 966.7,-261.51 943.14,-135.6 1061.68,-135.6"/>
<polygon fill="black" stroke="black" points="404.31,-399.76 393.72,-396.9 399.05,-400.6 394.77,-401.29 394.77,-401.29 394.77,-401.29 399.05,-400.6 395.16,-405.79 404.31,-399.76"/>
</g>
<!-- public.services -->
<g id="node3" class="node">
<title>public.services</title>
<polygon fill="#efefef" stroke="none" points="95.18,-181.8 95.18,-217.4 341.13,-217.4 341.13,-181.8 95.18,-181.8"/>
<polygon fill="none" stroke="black" points="95.18,-181.8 95.18,-217.4 341.13,-217.4 341.13,-181.8 95.18,-181.8"/>
<text text-anchor="start" x="102.18" y="-195.2" font-family="Arial Bold" font-size="18.00">public.services</text>
<text text-anchor="start" x="209.64" y="-195.2" font-family="Arial" font-size="14.00">    </text>
<text text-anchor="start" x="240.76" y="-195.2" font-family="Arial" font-size="14.00" fill="#666666">[BASE TABLE]</text>
<polygon fill="none" stroke="black" points="95.18,-151 95.18,-181.8 341.13,-181.8 341.13,-151 95.18,-151"/>
<text text-anchor="start" x="102.18" y="-163.2" font-family="Arial" font-size="14.00">id </text>
<text text-anchor="start" x="116.96" y="-163.2" font-family="Arial" font-size="14.00" fill="#666666">[bigint]</text>
<polygon fill="none" stroke="black" points="95.18,-120.2 95.18,-151 341.13,-151 341.13,-120.2 95.18,-120.2"/>
<text text-anchor="start" x="102.18" y="-132.4" font-family="Arial" font-size="14.00">attune_department_id </text>
<text text-anchor="start" x="242.28" y="-132.4" font-family="Arial" font-size="14.00" fill="#666666">[bigint]</text>
<polygon fill="none" stroke="black" points="95.18,-89.4 95.18,-120.2 341.13,-120.2 341.13,-89.4 95.18,-89.4"/>
<text text-anchor="start" x="102.18" y="-101.6" font-family="Arial" font-size="14.00">simple_cate_id </text>
<text text-anchor="start" x="199.45" y="-101.6" font-family="Arial" font-size="14.00" fill="#666666">[bigint]</text>
</g>
<!-- public.service_service_group&#45;&gt;public.services -->
<g id="edge2" class="edge">
<title>public.service_service_group:service_id&#45;&gt;public.services:id</title>
<path fill="none" stroke="black" d="M404.11,-429.21C447.77,-400.01 398.56,-166.4 342.13,-166.4"/>
<polygon fill="black" stroke="black" points="404.01,-429.24 393.14,-427.79 398.9,-430.77 394.75,-432.01 394.75,-432.01 394.75,-432.01 398.9,-430.77 395.72,-436.42 404.01,-429.24"/>
</g>
<!-- public.service_group_service_group -->
<g id="node4" class="node">
<title>public.service_group_service_group</title>
<polygon fill="#efefef" stroke="none" points="960.7,-447.6 960.7,-483.2 1361.61,-483.2 1361.61,-447.6 960.7,-447.6"/>
<polygon fill="none" stroke="black" points="960.7,-447.6 960.7,-483.2 1361.61,-483.2 1361.61,-447.6 960.7,-447.6"/>
<text text-anchor="start" x="967.7" y="-461" font-family="Arial Bold" font-size="18.00">public.service_group_service_group</text>
<text text-anchor="start" x="1230.12" y="-461" font-family="Arial" font-size="14.00">    </text>
<text text-anchor="start" x="1261.24" y="-461" font-family="Arial" font-size="14.00" fill="#666666">[BASE TABLE]</text>
<polygon fill="none" stroke="black" points="960.7,-416.8 960.7,-447.6 1361.61,-447.6 1361.61,-416.8 960.7,-416.8"/>
<text text-anchor="start" x="967.7" y="-429" font-family="Arial" font-size="14.00">parent_id </text>
<text text-anchor="start" x="1029.97" y="-429" font-family="Arial" font-size="14.00" fill="#666666">[bigint]</text>
<polygon fill="none" stroke="black" points="960.7,-386 960.7,-416.8 1361.61,-416.8 1361.61,-386 960.7,-386"/>
<text text-anchor="start" x="967.7" y="-398.2" font-family="Arial" font-size="14.00">child_id </text>
<text text-anchor="start" x="1019.07" y="-398.2" font-family="Arial" font-size="14.00" fill="#666666">[bigint]</text>
</g>
<!-- public.service_group_service_group&#45;&gt;public.service_groups -->
<g id="edge3" class="edge">
<title>public.service_group_service_group:child_id&#45;&gt;public.service_groups:id</title>
<path fill="none" stroke="black" d="M1160.71,-374.65C1154.5,-304.76 1084.85,-306.49 1062.68,-232.8 1050.23,-191.43 1018.48,-135.6 1061.68,-135.6"/>
<polygon fill="black" stroke="black" points="1160.71,-374.68 1156.64,-384.86 1160.94,-380 1161.13,-384.33 1161.13,-384.33 1161.13,-384.33 1160.94,-380 1165.64,-384.47 1160.71,-374.68"/>
</g>
<!-- public.service_group_service_group&#45;&gt;public.service_groups -->
<g id="edge4" class="edge">
<title>public.service_group_service_group:parent_id&#45;&gt;public.service_groups:id</title>
<path fill="none" stroke="black" d="M1372.65,-430.65C1398.81,-421.31 1382.29,-372.09 1361.61,-342.8 1279.97,-227.15 1144.27,-348.49 1062.68,-232.8 1037.78,-197.49 1018.48,-135.6 1061.68,-135.6"/>
<polygon fill="black" stroke="black" points="1372.82,-430.62 1362.25,-427.7 1367.55,-431.44 1363.27,-432.1 1363.27,-432.1 1363.27,-432.1 1367.55,-431.44 1363.63,-436.6 1372.82,-430.62"/>
</g>
<!-- public.checkup_service_group -->
<g id="node5" class="node">
<title>public.checkup_service_group</title>
<polygon fill="#efefef" stroke="none" points="497.7,-447.6 497.7,-483.2 856.61,-483.2 856.61,-447.6 497.7,-447.6"/>
<polygon fill="none" stroke="black" points="497.7,-447.6 497.7,-483.2 856.61,-483.2 856.61,-447.6 497.7,-447.6"/>
<text text-anchor="start" x="504.7" y="-461" font-family="Arial Bold" font-size="18.00">public.checkup_service_group</text>
<text text-anchor="start" x="725.12" y="-461" font-family="Arial" font-size="14.00">    </text>
<text text-anchor="start" x="756.24" y="-461" font-family="Arial" font-size="14.00" fill="#666666">[BASE TABLE]</text>
<polygon fill="none" stroke="black" points="497.7,-416.8 497.7,-447.6 856.61,-447.6 856.61,-416.8 497.7,-416.8"/>
<text text-anchor="start" x="504.7" y="-429" font-family="Arial" font-size="14.00">checkup_id </text>
<text text-anchor="start" x="579.42" y="-429" font-family="Arial" font-size="14.00" fill="#666666">[bigint]</text>
<polygon fill="none" stroke="black" points="497.7,-386 497.7,-416.8 856.61,-416.8 856.61,-386 497.7,-386"/>
<text text-anchor="start" x="504.7" y="-398.2" font-family="Arial" font-size="14.00">service_group_id </text>
<text text-anchor="start" x="615.21" y="-398.2" font-family="Arial" font-size="14.00" fill="#666666">[bigint]</text>
</g>
<!-- public.checkup_service_group&#45;&gt;public.service_groups -->
<g id="edge5" class="edge">
<title>public.checkup_service_group:service_group_id&#45;&gt;public.service_groups:id</title>
<path fill="none" stroke="black" d="M866,-395.35C905.01,-355.78 1044.74,-135.6 1061.68,-135.6"/>
<polygon fill="black" stroke="black" points="865.99,-395.36 855.25,-397.55 861.67,-398.48 858.15,-401.01 858.15,-401.01 858.15,-401.01 861.67,-398.48 860.51,-404.85 865.99,-395.36"/>
</g>
<!-- public.checkups -->
<g id="node6" class="node">
<title>public.checkups</title>
<polygon fill="#efefef" stroke="none" points="549.68,-228 549.68,-263.6 804.63,-263.6 804.63,-228 549.68,-228"/>
<polygon fill="none" stroke="black" points="549.68,-228 549.68,-263.6 804.63,-263.6 804.63,-228 549.68,-228"/>
<text text-anchor="start" x="556.68" y="-241.4" font-family="Arial Bold" font-size="18.00">public.checkups</text>
<text text-anchor="start" x="673.14" y="-241.4" font-family="Arial" font-size="14.00">    </text>
<text text-anchor="start" x="704.26" y="-241.4" font-family="Arial" font-size="14.00" fill="#666666">[BASE TABLE]</text>
<polygon fill="none" stroke="black" points="549.68,-197.2 549.68,-228 804.63,-228 804.63,-197.2 549.68,-197.2"/>
<text text-anchor="start" x="556.68" y="-209.4" font-family="Arial" font-size="14.00">id </text>
<text text-anchor="start" x="571.46" y="-209.4" font-family="Arial" font-size="14.00" fill="#666666">[bigint]</text>
<polygon fill="none" stroke="black" points="549.68,-166.4 549.68,-197.2 804.63,-197.2 804.63,-166.4 549.68,-166.4"/>
<text text-anchor="start" x="556.68" y="-178.6" font-family="Arial" font-size="14.00">patient_id </text>
<text text-anchor="start" x="621.28" y="-178.6" font-family="Arial" font-size="14.00" fill="#666666">[bigint]</text>
<polygon fill="none" stroke="black" points="549.68,-135.6 549.68,-166.4 804.63,-166.4 804.63,-135.6 549.68,-135.6"/>
<text text-anchor="start" x="556.68" y="-147.8" font-family="Arial" font-size="14.00">branch_id </text>
<text text-anchor="start" x="622.06" y="-147.8" font-family="Arial" font-size="14.00" fill="#666666">[bigint]</text>
<polygon fill="none" stroke="black" points="549.68,-104.8 549.68,-135.6 804.63,-135.6 804.63,-104.8 549.68,-104.8"/>
<text text-anchor="start" x="556.68" y="-117" font-family="Arial" font-size="14.00">created_by_user_id </text>
<text text-anchor="start" x="683.54" y="-117" font-family="Arial" font-size="14.00" fill="#666666">[bigint]</text>
<polygon fill="none" stroke="black" points="549.68,-74 549.68,-104.8 804.63,-104.8 804.63,-74 549.68,-74"/>
<text text-anchor="start" x="556.68" y="-86.2" font-family="Arial" font-size="14.00">company_lot_id </text>
<text text-anchor="start" x="658.63" y="-86.2" font-family="Arial" font-size="14.00" fill="#666666">[bigint]</text>
<polygon fill="none" stroke="black" points="549.68,-43.2 549.68,-74 804.63,-74 804.63,-43.2 549.68,-43.2"/>
<text text-anchor="start" x="556.68" y="-55.4" font-family="Arial" font-size="14.00">company_id </text>
<text text-anchor="start" x="636.06" y="-55.4" font-family="Arial" font-size="14.00" fill="#666666">[bigint]</text>
</g>
<!-- public.checkup_service_group&#45;&gt;public.checkups -->
<g id="edge6" class="edge">
<title>public.checkup_service_group:checkup_id&#45;&gt;public.checkups:id</title>
<path fill="none" stroke="black" d="M867.13,-428.75C900.05,-400.81 852.06,-212.6 805.63,-212.6"/>
<polygon fill="black" stroke="black" points="867.33,-428.68 856.39,-427.86 862.31,-430.5 858.24,-431.97 858.24,-431.97 858.24,-431.97 862.31,-430.5 859.46,-436.32 867.33,-428.68"/>
</g>
<!-- public.service_group_test_set -->
<g id="node7" class="node">
<title>public.service_group_test_set</title>
<polygon fill="#efefef" stroke="none" points="1465.69,-447.6 1465.69,-483.2 1818.62,-483.2 1818.62,-447.6 1465.69,-447.6"/>
<polygon fill="none" stroke="black" points="1465.69,-447.6 1465.69,-483.2 1818.62,-483.2 1818.62,-447.6 1465.69,-447.6"/>
<text text-anchor="start" x="1472.69" y="-461" font-family="Arial Bold" font-size="18.00">public.service_group_test_set</text>
<text text-anchor="start" x="1687.13" y="-461" font-family="Arial" font-size="14.00">    </text>
<text text-anchor="start" x="1718.25" y="-461" font-family="Arial" font-size="14.00" fill="#666666">[BASE TABLE]</text>
<polygon fill="none" stroke="black" points="1465.69,-416.8 1465.69,-447.6 1818.62,-447.6 1818.62,-416.8 1465.69,-416.8"/>
<text text-anchor="start" x="1472.69" y="-429" font-family="Arial" font-size="14.00">service_group_id </text>
<text text-anchor="start" x="1583.2" y="-429" font-family="Arial" font-size="14.00" fill="#666666">[bigint]</text>
<polygon fill="none" stroke="black" points="1465.69,-386 1465.69,-416.8 1818.62,-416.8 1818.62,-386 1465.69,-386"/>
<text text-anchor="start" x="1472.69" y="-398.2" font-family="Arial" font-size="14.00">test_set_id </text>
<text text-anchor="start" x="1544.29" y="-398.2" font-family="Arial" font-size="14.00" fill="#666666">[bigint]</text>
</g>
<!-- public.service_group_test_set&#45;&gt;public.service_groups -->
<g id="edge7" class="edge">
<title>public.service_group_test_set:service_group_id&#45;&gt;public.service_groups:id</title>
<path fill="none" stroke="black" d="M1454.84,-429.98C1398.19,-402.84 1426.93,-135.6 1360.63,-135.6"/>
<polygon fill="black" stroke="black" points="1454.61,-429.93 1463.37,-436.52 1459.81,-431.1 1464.04,-432.05 1464.04,-432.05 1464.04,-432.05 1459.81,-431.1 1465.35,-427.74 1454.61,-429.93"/>
</g>
<!-- public.test_sets -->
<g id="node8" class="node">
<title>public.test_sets</title>
<polygon fill="#efefef" stroke="none" points="1517.67,-166.4 1517.67,-202 1766.64,-202 1766.64,-166.4 1517.67,-166.4"/>
<polygon fill="none" stroke="black" points="1517.67,-166.4 1517.67,-202 1766.64,-202 1766.64,-166.4 1517.67,-166.4"/>
<text text-anchor="start" x="1524.67" y="-179.8" font-family="Arial Bold" font-size="18.00">public.test_sets</text>
<text text-anchor="start" x="1635.15" y="-179.8" font-family="Arial" font-size="14.00">    </text>
<text text-anchor="start" x="1666.27" y="-179.8" font-family="Arial" font-size="14.00" fill="#666666">[BASE TABLE]</text>
<polygon fill="none" stroke="black" points="1517.67,-135.6 1517.67,-166.4 1766.64,-166.4 1766.64,-135.6 1517.67,-135.6"/>
<text text-anchor="start" x="1524.67" y="-147.8" font-family="Arial" font-size="14.00">id </text>
<text text-anchor="start" x="1539.45" y="-147.8" font-family="Arial" font-size="14.00" fill="#666666">[bigint]</text>
<polygon fill="none" stroke="black" points="1517.67,-104.8 1517.67,-135.6 1766.64,-135.6 1766.64,-104.8 1517.67,-104.8"/>
<text text-anchor="start" x="1524.67" y="-117" font-family="Arial" font-size="14.00">created_by_user_id </text>
<text text-anchor="start" x="1651.53" y="-117" font-family="Arial" font-size="14.00" fill="#666666">[bigint]</text>
</g>
<!-- public.service_group_test_set&#45;&gt;public.test_sets -->
<g id="edge8" class="edge">
<title>public.service_group_test_set:test_set_id&#45;&gt;public.test_sets:id</title>
<path fill="none" stroke="black" d="M1642.67,-374.84C1650.16,-303.42 1737.92,-319.46 1766.64,-245.2 1781.75,-206.15 1809.51,-151 1767.64,-151"/>
<polygon fill="black" stroke="black" points="1642.67,-374.68 1637.68,-384.44 1642.41,-380.01 1642.19,-384.33 1642.19,-384.33 1642.19,-384.33 1642.41,-380.01 1646.67,-384.89 1642.67,-374.68"/>
</g>
<!-- public.company_order_service_group -->
<g id="node9" class="node">
<title>public.company_order_service_group</title>
<polygon fill="#efefef" stroke="none" points="1923.21,-447.6 1923.21,-483.2 2335.1,-483.2 2335.1,-447.6 1923.21,-447.6"/>
<polygon fill="none" stroke="black" points="1923.21,-447.6 1923.21,-483.2 2335.1,-483.2 2335.1,-447.6 1923.21,-447.6"/>
<text text-anchor="start" x="1930.21" y="-461" font-family="Arial Bold" font-size="18.00">public.company_order_service_group</text>
<text text-anchor="start" x="2203.62" y="-461" font-family="Arial" font-size="14.00">    </text>
<text text-anchor="start" x="2234.73" y="-461" font-family="Arial" font-size="14.00" fill="#666666">[BASE TABLE]</text>
<polygon fill="none" stroke="black" points="1923.21,-416.8 1923.21,-447.6 2335.1,-447.6 2335.1,-416.8 1923.21,-416.8"/>
<text text-anchor="start" x="1930.21" y="-429" font-family="Arial" font-size="14.00">service_group_id </text>
<text text-anchor="start" x="2040.72" y="-429" font-family="Arial" font-size="14.00" fill="#666666">[bigint]</text>
<polygon fill="none" stroke="black" points="1923.21,-386 1923.21,-416.8 2335.1,-416.8 2335.1,-386 1923.21,-386"/>
<text text-anchor="start" x="1930.21" y="-398.2" font-family="Arial" font-size="14.00">company_order_id </text>
<text text-anchor="start" x="2050.05" y="-398.2" font-family="Arial" font-size="14.00" fill="#666666">[bigint]</text>
</g>
<!-- public.company_order_service_group&#45;&gt;public.service_groups -->
<g id="edge9" class="edge">
<title>public.company_order_service_group:service_group_id&#45;&gt;public.service_groups:id</title>
<path fill="none" stroke="black" d="M1912.06,-430.83C1881.63,-421.37 1906.36,-365.38 1871.16,-342.8 1718.66,-245.01 1619.06,-402.34 1465.16,-306.8 1389.41,-259.78 1449.78,-135.6 1360.63,-135.6"/>
<polygon fill="black" stroke="black" points="1911.96,-430.82 1921.27,-436.61 1917.25,-431.53 1921.54,-432.11 1921.54,-432.11 1921.54,-432.11 1917.25,-431.53 1922.48,-427.7 1911.96,-430.82"/>
</g>
<!-- public.company_orders -->
<g id="node10" class="node">
<title>public.company_orders</title>
<polygon fill="#efefef" stroke="none" points="1975.18,-228 1975.18,-263.6 2283.13,-263.6 2283.13,-228 1975.18,-228"/>
<polygon fill="none" stroke="black" points="1975.18,-228 1975.18,-263.6 2283.13,-263.6 2283.13,-228 1975.18,-228"/>
<text text-anchor="start" x="1982.18" y="-241.4" font-family="Arial Bold" font-size="18.00">public.company_orders</text>
<text text-anchor="start" x="2151.64" y="-241.4" font-family="Arial" font-size="14.00">    </text>
<text text-anchor="start" x="2182.75" y="-241.4" font-family="Arial" font-size="14.00" fill="#666666">[BASE TABLE]</text>
<polygon fill="none" stroke="black" points="1975.18,-197.2 1975.18,-228 2283.13,-228 2283.13,-197.2 1975.18,-197.2"/>
<text text-anchor="start" x="1982.18" y="-209.4" font-family="Arial" font-size="14.00">id </text>
<text text-anchor="start" x="1996.97" y="-209.4" font-family="Arial" font-size="14.00" fill="#666666">[bigint]</text>
<polygon fill="none" stroke="black" points="1975.18,-166.4 1975.18,-197.2 2283.13,-197.2 2283.13,-166.4 1975.18,-166.4"/>
<text text-anchor="start" x="1982.18" y="-178.6" font-family="Arial" font-size="14.00">company_patient_id </text>
<text text-anchor="start" x="2111.38" y="-178.6" font-family="Arial" font-size="14.00" fill="#666666">[bigint]</text>
<polygon fill="none" stroke="black" points="1975.18,-135.6 1975.18,-166.4 2283.13,-166.4 2283.13,-135.6 1975.18,-135.6"/>
<text text-anchor="start" x="1982.18" y="-147.8" font-family="Arial" font-size="14.00">company_id </text>
<text text-anchor="start" x="2061.56" y="-147.8" font-family="Arial" font-size="14.00" fill="#666666">[bigint]</text>
<polygon fill="none" stroke="black" points="1975.18,-104.8 1975.18,-135.6 2283.13,-135.6 2283.13,-104.8 1975.18,-104.8"/>
<text text-anchor="start" x="1982.18" y="-117" font-family="Arial" font-size="14.00">created_by_user_id </text>
<text text-anchor="start" x="2109.05" y="-117" font-family="Arial" font-size="14.00" fill="#666666">[bigint]</text>
<polygon fill="none" stroke="black" points="1975.18,-74 1975.18,-104.8 2283.13,-104.8 2283.13,-74 1975.18,-74"/>
<text text-anchor="start" x="1982.18" y="-86.2" font-family="Arial" font-size="14.00">diag_patient_booking_id </text>
<text text-anchor="start" x="2137.87" y="-86.2" font-family="Arial" font-size="14.00" fill="#666666">[bigint]</text>
<polygon fill="none" stroke="black" points="1975.18,-43.2 1975.18,-74 2283.13,-74 2283.13,-43.2 1975.18,-43.2"/>
<text text-anchor="start" x="1982.18" y="-55.4" font-family="Arial" font-size="14.00">patient_id </text>
<text text-anchor="start" x="2046.79" y="-55.4" font-family="Arial" font-size="14.00" fill="#666666">[bigint]</text>
</g>
<!-- public.company_order_service_group&#45;&gt;public.company_orders -->
<g id="edge10" class="edge">
<title>public.company_order_service_group:company_order_id&#45;&gt;public.company_orders:id</title>
<path fill="none" stroke="black" d="M2129.95,-374.73C2140.06,-314.17 2244.61,-368.82 2283.13,-306.8 2305.22,-271.23 2326,-212.6 2284.13,-212.6"/>
<polygon fill="black" stroke="black" points="2129.95,-374.7 2124.69,-384.32 2129.54,-380.01 2129.21,-384.33 2129.21,-384.33 2129.21,-384.33 2129.54,-380.01 2133.67,-385.01 2129.95,-374.7"/>
</g>
<!-- public.package_service_group -->
<g id="node11" class="node">
<title>public.package_service_group</title>
<polygon fill="#efefef" stroke="none" points="2439.21,-447.6 2439.21,-483.2 2797.1,-483.2 2797.1,-447.6 2439.21,-447.6"/>
<polygon fill="none" stroke="black" points="2439.21,-447.6 2439.21,-483.2 2797.1,-483.2 2797.1,-447.6 2439.21,-447.6"/>
<text text-anchor="start" x="2446.21" y="-461" font-family="Arial Bold" font-size="18.00">public.package_service_group</text>
<text text-anchor="start" x="2665.62" y="-461" font-family="Arial" font-size="14.00">    </text>
<text text-anchor="start" x="2696.73" y="-461" font-family="Arial" font-size="14.00" fill="#666666">[BASE TABLE]</text>
<polygon fill="none" stroke="black" points="2439.21,-416.8 2439.21,-447.6 2797.1,-447.6 2797.1,-416.8 2439.21,-416.8"/>
<text text-anchor="start" x="2446.21" y="-429" font-family="Arial" font-size="14.00">package_id </text>
<text text-anchor="start" x="2521.71" y="-429" font-family="Arial" font-size="14.00" fill="#666666">[bigint]</text>
<polygon fill="none" stroke="black" points="2439.21,-386 2439.21,-416.8 2797.1,-416.8 2797.1,-386 2439.21,-386"/>
<text text-anchor="start" x="2446.21" y="-398.2" font-family="Arial" font-size="14.00">service_group_id </text>
<text text-anchor="start" x="2556.72" y="-398.2" font-family="Arial" font-size="14.00" fill="#666666">[bigint]</text>
</g>
<!-- public.package_service_group&#45;&gt;public.service_groups -->
<g id="edge11" class="edge">
<title>public.package_service_group:service_group_id&#45;&gt;public.service_groups:id</title>
<path fill="none" stroke="black" d="M2427.94,-399.72C2406.47,-391.56 2414.66,-355.97 2387.16,-342.8 2294.69,-298.52 1553.57,-358.7 1465.16,-306.8 1388.27,-261.67 1449.78,-135.6 1360.63,-135.6"/>
<polygon fill="black" stroke="black" points="2428.01,-399.73 2437.15,-405.79 2433.27,-400.59 2437.55,-401.29 2437.55,-401.29 2437.55,-401.29 2433.27,-400.59 2438.6,-396.91 2428.01,-399.73"/>
</g>
<!-- public.packages -->
<g id="node12" class="node">
<title>public.packages</title>
<polygon fill="#efefef" stroke="none" points="2491.18,-166.4 2491.18,-202 2745.13,-202 2745.13,-166.4 2491.18,-166.4"/>
<polygon fill="none" stroke="black" points="2491.18,-166.4 2491.18,-202 2745.13,-202 2745.13,-166.4 2491.18,-166.4"/>
<text text-anchor="start" x="2498.18" y="-179.8" font-family="Arial Bold" font-size="18.00">public.packages</text>
<text text-anchor="start" x="2613.64" y="-179.8" font-family="Arial" font-size="14.00">    </text>
<text text-anchor="start" x="2644.75" y="-179.8" font-family="Arial" font-size="14.00" fill="#666666">[BASE TABLE]</text>
<polygon fill="none" stroke="black" points="2491.18,-135.6 2491.18,-166.4 2745.13,-166.4 2745.13,-135.6 2491.18,-135.6"/>
<text text-anchor="start" x="2498.18" y="-147.8" font-family="Arial" font-size="14.00">id </text>
<text text-anchor="start" x="2512.97" y="-147.8" font-family="Arial" font-size="14.00" fill="#666666">[bigint]</text>
<polygon fill="none" stroke="black" points="2491.18,-104.8 2491.18,-135.6 2745.13,-135.6 2745.13,-104.8 2491.18,-104.8"/>
<text text-anchor="start" x="2498.18" y="-117" font-family="Arial" font-size="14.00">attune_department_id </text>
<text text-anchor="start" x="2638.29" y="-117" font-family="Arial" font-size="14.00" fill="#666666">[bigint]</text>
</g>
<!-- public.package_service_group&#45;&gt;public.packages -->
<g id="edge12" class="edge">
<title>public.package_service_group:package_id&#45;&gt;public.packages:id</title>
<path fill="none" stroke="black" d="M2808.11,-429.42C2855.52,-400.21 2805.95,-151 2746.13,-151"/>
<polygon fill="black" stroke="black" points="2808.06,-429.43 2797.22,-427.78 2802.92,-430.86 2798.75,-432.02 2798.75,-432.02 2798.75,-432.02 2802.92,-430.86 2799.63,-436.45 2808.06,-429.43"/>
</g>
<!-- public.category_service_group -->
<g id="node13" class="node">
<title>public.category_service_group</title>
<polygon fill="#efefef" stroke="none" points="2901.7,-447.6 2901.7,-483.2 3262.61,-483.2 3262.61,-447.6 2901.7,-447.6"/>
<polygon fill="none" stroke="black" points="2901.7,-447.6 2901.7,-483.2 3262.61,-483.2 3262.61,-447.6 2901.7,-447.6"/>
<text text-anchor="start" x="2908.7" y="-461" font-family="Arial Bold" font-size="18.00">public.category_service_group</text>
<text text-anchor="start" x="3131.12" y="-461" font-family="Arial" font-size="14.00">    </text>
<text text-anchor="start" x="3162.24" y="-461" font-family="Arial" font-size="14.00" fill="#666666">[BASE TABLE]</text>
<polygon fill="none" stroke="black" points="2901.7,-416.8 2901.7,-447.6 3262.61,-447.6 3262.61,-416.8 2901.7,-416.8"/>
<text text-anchor="start" x="2908.7" y="-429" font-family="Arial" font-size="14.00">service_group_id </text>
<text text-anchor="start" x="3019.21" y="-429" font-family="Arial" font-size="14.00" fill="#666666">[integer]</text>
<polygon fill="none" stroke="black" points="2901.7,-386 2901.7,-416.8 3262.61,-416.8 3262.61,-386 2901.7,-386"/>
<text text-anchor="start" x="2908.7" y="-398.2" font-family="Arial" font-size="14.00">category_id </text>
<text text-anchor="start" x="2984.97" y="-398.2" font-family="Arial" font-size="14.00" fill="#666666">[integer]</text>
</g>
<!-- public.category_service_group&#45;&gt;public.service_groups -->
<g id="edge13" class="edge">
<title>public.category_service_group:service_group_id&#45;&gt;public.service_groups:id</title>
<path fill="none" stroke="black" d="M2890.54,-430.81C2860.09,-421.18 2885.18,-364.24 2849.16,-342.8 2716.97,-264.12 1598.32,-383.81 1465.16,-306.8 1387.98,-262.17 1449.78,-135.6 1360.63,-135.6"/>
<polygon fill="black" stroke="black" points="2890.46,-430.8 2899.76,-436.61 2895.75,-431.52 2900.04,-432.11 2900.04,-432.11 2900.04,-432.11 2895.75,-431.52 2900.98,-427.7 2890.46,-430.8"/>
</g>
<!-- public.categories -->
<g id="node14" class="node">
<title>public.categories</title>
<polygon fill="#efefef" stroke="none" points="2951.69,-151 2951.69,-186.6 3212.62,-186.6 3212.62,-151 2951.69,-151"/>
<polygon fill="none" stroke="black" points="2951.69,-151 2951.69,-186.6 3212.62,-186.6 3212.62,-151 2951.69,-151"/>
<text text-anchor="start" x="2958.69" y="-164.4" font-family="Arial Bold" font-size="18.00">public.categories</text>
<text text-anchor="start" x="3081.14" y="-164.4" font-family="Arial" font-size="14.00">    </text>
<text text-anchor="start" x="3112.25" y="-164.4" font-family="Arial" font-size="14.00" fill="#666666">[BASE TABLE]</text>
<polygon fill="none" stroke="black" points="2951.69,-120.2 2951.69,-151 3212.62,-151 3212.62,-120.2 2951.69,-120.2"/>
<text text-anchor="start" x="2958.69" y="-132.4" font-family="Arial" font-size="14.00">id </text>
<text text-anchor="start" x="2973.47" y="-132.4" font-family="Arial" font-size="14.00" fill="#666666">[bigint]</text>
</g>
<!-- public.category_service_group&#45;&gt;public.categories -->
<g id="edge14" class="edge">
<title>public.category_service_group:category_id&#45;&gt;public.categories:id</title>
<path fill="none" stroke="black" d="M3082.63,-374.61C3091.28,-284.32 3215.03,-320.97 3255.82,-229.8 3275.72,-185.34 3290.17,-154.74 3255.82,-120.2 3201.4,-65.46 3082.16,-42.01 3082.16,-119.2"/>
<polygon fill="black" stroke="black" points="3082.63,-374.68 3077.68,-384.46 3082.38,-380.01 3082.19,-384.33 3082.19,-384.33 3082.19,-384.33 3082.38,-380.01 3086.67,-384.87 3082.63,-374.68"/>
</g>
</g>
</svg>
