<?xml version="1.0" encoding="UTF-8" standalone="no"?>
<!DOCTYPE svg PUBLIC "-//W3C//DTD SVG 1.1//EN"
 "http://www.w3.org/Graphics/SVG/1.1/DTD/svg11.dtd">
<!-- Generated by graphviz version 12.1.2 (20240928.0832)
 -->
<!-- Title: public.service_group_service_group Pages: 1 -->
<svg width="3320pt" height="386pt"
 viewBox="0.00 0.00 3320.30 386.40" xmlns="http://www.w3.org/2000/svg" xmlns:xlink="http://www.w3.org/1999/xlink">
<g id="graph0" class="graph" transform="scale(1 1) rotate(0) translate(4 382.4)">
<title>public.service_group_service_group</title>
<polygon fill="white" stroke="none" points="-4,4 -4,-382.4 3316.3,-382.4 3316.3,4 -4,4"/>
<!-- public.service_group_service_group -->
<g id="node1" class="node">
<title>public.service_group_service_group</title>
<polygon fill="#efefef" stroke="none" points="46.2,-296.6 46.2,-332.2 447.1,-332.2 447.1,-296.6 46.2,-296.6"/>
<polygon fill="none" stroke="black" points="46.2,-296.6 46.2,-332.2 447.1,-332.2 447.1,-296.6 46.2,-296.6"/>
<text text-anchor="start" x="53.2" y="-310" font-family="Arial Bold" font-size="18.00">public.service_group_service_group</text>
<text text-anchor="start" x="315.62" y="-310" font-family="Arial" font-size="14.00">    </text>
<text text-anchor="start" x="346.73" y="-310" font-family="Arial" font-size="14.00" fill="#666666">[BASE TABLE]</text>
<polygon fill="none" stroke="black" points="46.2,-265.8 46.2,-296.6 447.1,-296.6 447.1,-265.8 46.2,-265.8"/>
<text text-anchor="start" x="53.2" y="-278" font-family="Arial" font-size="14.00">parent_id </text>
<text text-anchor="start" x="115.47" y="-278" font-family="Arial" font-size="14.00" fill="#666666">[bigint]</text>
<polygon fill="none" stroke="black" points="46.2,-235 46.2,-265.8 447.1,-265.8 447.1,-235 46.2,-235"/>
<text text-anchor="start" x="53.2" y="-247.2" font-family="Arial" font-size="14.00">child_id </text>
<text text-anchor="start" x="104.57" y="-247.2" font-family="Arial" font-size="14.00" fill="#666666">[bigint]</text>
<polygon fill="none" stroke="black" stroke-width="3" points="44.7,-233.5 44.7,-333.7 448.6,-333.7 448.6,-233.5 44.7,-233.5"/>
</g>
<!-- public.service_groups -->
<g id="node2" class="node">
<title>public.service_groups</title>
<polygon fill="#efefef" stroke="none" points="1270.18,-74 1270.18,-109.6 1567.13,-109.6 1567.13,-74 1270.18,-74"/>
<polygon fill="none" stroke="black" points="1270.18,-74 1270.18,-109.6 1567.13,-109.6 1567.13,-74 1270.18,-74"/>
<text text-anchor="start" x="1277.18" y="-87.4" font-family="Arial Bold" font-size="18.00">public.service_groups</text>
<text text-anchor="start" x="1435.64" y="-87.4" font-family="Arial" font-size="14.00">    </text>
<text text-anchor="start" x="1466.75" y="-87.4" font-family="Arial" font-size="14.00" fill="#666666">[BASE TABLE]</text>
<polygon fill="none" stroke="black" points="1270.18,-43.2 1270.18,-74 1567.13,-74 1567.13,-43.2 1270.18,-43.2"/>
<text text-anchor="start" x="1277.18" y="-55.4" font-family="Arial" font-size="14.00">id </text>
<text text-anchor="start" x="1291.96" y="-55.4" font-family="Arial" font-size="14.00" fill="#666666">[bigint]</text>
</g>
<!-- public.service_group_service_group&#45;&gt;public.service_groups -->
<g id="edge1" class="edge">
<title>public.service_group_service_group:parent_id&#45;&gt;public.service_groups:id</title>
<path fill="none" stroke="black" d="M458.31,-279.94C490.96,-270.73 466.59,-213.62 502.65,-188.8 644.97,-90.83 1096.4,-58.6 1269.18,-58.6"/>
<polygon fill="black" stroke="black" points="458.36,-279.93 447.88,-276.69 453.07,-280.59 448.77,-281.12 448.77,-281.12 448.77,-281.12 453.07,-280.59 448.99,-285.62 458.36,-279.93"/>
</g>
<!-- public.service_group_service_group&#45;&gt;public.service_groups -->
<g id="edge3" class="edge">
<title>public.service_group_service_group:child_id&#45;&gt;public.service_groups:id</title>
<path fill="none" stroke="black" d="M458.42,-248.92C482.16,-241.12 474.18,-204.62 502.65,-188.8 653.68,-104.88 1096.4,-58.6 1269.18,-58.6"/>
<polygon fill="black" stroke="black" points="458.33,-248.93 447.8,-245.9 453.05,-249.69 448.77,-250.3 448.77,-250.3 448.77,-250.3 453.05,-249.69 449.08,-254.81 458.33,-248.93"/>
</g>
<!-- public.service_service_group -->
<g id="node3" class="node">
<title>public.service_service_group</title>
<polygon fill="#efefef" stroke="none" points="554.7,-296.6 554.7,-332.2 904.61,-332.2 904.61,-296.6 554.7,-296.6"/>
<polygon fill="none" stroke="black" points="554.7,-296.6 554.7,-332.2 904.61,-332.2 904.61,-296.6 554.7,-296.6"/>
<text text-anchor="start" x="561.7" y="-310" font-family="Arial Bold" font-size="18.00">public.service_service_group</text>
<text text-anchor="start" x="773.12" y="-310" font-family="Arial" font-size="14.00">    </text>
<text text-anchor="start" x="804.24" y="-310" font-family="Arial" font-size="14.00" fill="#666666">[BASE TABLE]</text>
<polygon fill="none" stroke="black" points="554.7,-265.8 554.7,-296.6 904.61,-296.6 904.61,-265.8 554.7,-265.8"/>
<text text-anchor="start" x="561.7" y="-278" font-family="Arial" font-size="14.00">service_id </text>
<text text-anchor="start" x="628.61" y="-278" font-family="Arial" font-size="14.00" fill="#666666">[bigint]</text>
<polygon fill="none" stroke="black" points="554.7,-235 554.7,-265.8 904.61,-265.8 904.61,-235 554.7,-235"/>
<text text-anchor="start" x="561.7" y="-247.2" font-family="Arial" font-size="14.00">service_group_id </text>
<text text-anchor="start" x="672.21" y="-247.2" font-family="Arial" font-size="14.00" fill="#666666">[bigint]</text>
</g>
<!-- public.service_service_group&#45;&gt;public.service_groups -->
<g id="edge2" class="edge">
<title>public.service_service_group:service_group_id&#45;&gt;public.service_groups:id</title>
<path fill="none" stroke="black" d="M915.65,-249.03C938.8,-241.78 931.19,-207.63 956.65,-188.8 1077.63,-99.33 1118.71,-58.6 1269.18,-58.6"/>
<polygon fill="black" stroke="black" points="915.85,-249 905.33,-245.9 910.56,-249.72 906.27,-250.31 906.27,-250.31 906.27,-250.31 910.56,-249.72 906.55,-254.81 915.85,-249"/>
</g>
<!-- public.checkup_service_group -->
<g id="node4" class="node">
<title>public.checkup_service_group</title>
<polygon fill="#efefef" stroke="none" points="1009.2,-296.6 1009.2,-332.2 1368.11,-332.2 1368.11,-296.6 1009.2,-296.6"/>
<polygon fill="none" stroke="black" points="1009.2,-296.6 1009.2,-332.2 1368.11,-332.2 1368.11,-296.6 1009.2,-296.6"/>
<text text-anchor="start" x="1016.2" y="-310" font-family="Arial Bold" font-size="18.00">public.checkup_service_group</text>
<text text-anchor="start" x="1236.62" y="-310" font-family="Arial" font-size="14.00">    </text>
<text text-anchor="start" x="1267.74" y="-310" font-family="Arial" font-size="14.00" fill="#666666">[BASE TABLE]</text>
<polygon fill="none" stroke="black" points="1009.2,-265.8 1009.2,-296.6 1368.11,-296.6 1368.11,-265.8 1009.2,-265.8"/>
<text text-anchor="start" x="1016.2" y="-278" font-family="Arial" font-size="14.00">checkup_id </text>
<text text-anchor="start" x="1090.91" y="-278" font-family="Arial" font-size="14.00" fill="#666666">[bigint]</text>
<polygon fill="none" stroke="black" points="1009.2,-235 1009.2,-265.8 1368.11,-265.8 1368.11,-235 1009.2,-235"/>
<text text-anchor="start" x="1016.2" y="-247.2" font-family="Arial" font-size="14.00">service_group_id </text>
<text text-anchor="start" x="1126.71" y="-247.2" font-family="Arial" font-size="14.00" fill="#666666">[bigint]</text>
</g>
<!-- public.checkup_service_group&#45;&gt;public.service_groups -->
<g id="edge4" class="edge">
<title>public.checkup_service_group:service_group_id&#45;&gt;public.service_groups:id</title>
<path fill="none" stroke="black" d="M1378.99,-247.63C1391.07,-238.63 1380.48,-209.72 1368.11,-191.8 1341.48,-153.25 1296.68,-191.43 1270.18,-152.8 1246.5,-118.27 1227.31,-58.6 1269.18,-58.6"/>
<polygon fill="black" stroke="black" points="1379.06,-247.61 1368.22,-245.98 1373.92,-249.05 1369.75,-250.22 1369.75,-250.22 1369.75,-250.22 1373.92,-249.05 1370.64,-254.64 1379.06,-247.61"/>
</g>
<!-- public.service_group_test_set -->
<g id="node5" class="node">
<title>public.service_group_test_set</title>
<polygon fill="#efefef" stroke="none" points="1472.19,-296.6 1472.19,-332.2 1825.12,-332.2 1825.12,-296.6 1472.19,-296.6"/>
<polygon fill="none" stroke="black" points="1472.19,-296.6 1472.19,-332.2 1825.12,-332.2 1825.12,-296.6 1472.19,-296.6"/>
<text text-anchor="start" x="1479.19" y="-310" font-family="Arial Bold" font-size="18.00">public.service_group_test_set</text>
<text text-anchor="start" x="1693.63" y="-310" font-family="Arial" font-size="14.00">    </text>
<text text-anchor="start" x="1724.75" y="-310" font-family="Arial" font-size="14.00" fill="#666666">[BASE TABLE]</text>
<polygon fill="none" stroke="black" points="1472.19,-265.8 1472.19,-296.6 1825.12,-296.6 1825.12,-265.8 1472.19,-265.8"/>
<text text-anchor="start" x="1479.19" y="-278" font-family="Arial" font-size="14.00">service_group_id </text>
<text text-anchor="start" x="1589.7" y="-278" font-family="Arial" font-size="14.00" fill="#666666">[bigint]</text>
<polygon fill="none" stroke="black" points="1472.19,-235 1472.19,-265.8 1825.12,-265.8 1825.12,-235 1472.19,-235"/>
<text text-anchor="start" x="1479.19" y="-247.2" font-family="Arial" font-size="14.00">test_set_id </text>
<text text-anchor="start" x="1550.78" y="-247.2" font-family="Arial" font-size="14.00" fill="#666666">[bigint]</text>
</g>
<!-- public.service_group_test_set&#45;&gt;public.service_groups -->
<g id="edge5" class="edge">
<title>public.service_group_test_set:service_group_id&#45;&gt;public.service_groups:id</title>
<path fill="none" stroke="black" d="M1461.16,-279.66C1435.09,-270.39 1452.06,-221.47 1472.19,-191.8 1497.8,-154.05 1541.53,-190.56 1567.13,-152.8 1590.62,-118.15 1609.99,-58.6 1568.13,-58.6"/>
<polygon fill="black" stroke="black" points="1460.97,-279.63 1470.17,-285.6 1466.24,-280.44 1470.52,-281.1 1470.52,-281.1 1470.52,-281.1 1466.24,-280.44 1471.54,-276.7 1460.97,-279.63"/>
</g>
<!-- public.company_order_service_group -->
<g id="node6" class="node">
<title>public.company_order_service_group</title>
<polygon fill="#efefef" stroke="none" points="1929.7,-296.6 1929.7,-332.2 2341.6,-332.2 2341.6,-296.6 1929.7,-296.6"/>
<polygon fill="none" stroke="black" points="1929.7,-296.6 1929.7,-332.2 2341.6,-332.2 2341.6,-296.6 1929.7,-296.6"/>
<text text-anchor="start" x="1936.7" y="-310" font-family="Arial Bold" font-size="18.00">public.company_order_service_group</text>
<text text-anchor="start" x="2210.11" y="-310" font-family="Arial" font-size="14.00">    </text>
<text text-anchor="start" x="2241.23" y="-310" font-family="Arial" font-size="14.00" fill="#666666">[BASE TABLE]</text>
<polygon fill="none" stroke="black" points="1929.7,-265.8 1929.7,-296.6 2341.6,-296.6 2341.6,-265.8 1929.7,-265.8"/>
<text text-anchor="start" x="1936.7" y="-278" font-family="Arial" font-size="14.00">service_group_id </text>
<text text-anchor="start" x="2047.21" y="-278" font-family="Arial" font-size="14.00" fill="#666666">[bigint]</text>
<polygon fill="none" stroke="black" points="1929.7,-235 1929.7,-265.8 2341.6,-265.8 2341.6,-235 1929.7,-235"/>
<text text-anchor="start" x="1936.7" y="-247.2" font-family="Arial" font-size="14.00">company_order_id </text>
<text text-anchor="start" x="2056.55" y="-247.2" font-family="Arial" font-size="14.00" fill="#666666">[bigint]</text>
</g>
<!-- public.company_order_service_group&#45;&gt;public.service_groups -->
<g id="edge6" class="edge">
<title>public.company_order_service_group:service_group_id&#45;&gt;public.service_groups:id</title>
<path fill="none" stroke="black" d="M1918.65,-280.02C1886.39,-271.39 1909.69,-217.59 1877.65,-188.8 1766.65,-89.04 1717.37,-58.6 1568.13,-58.6"/>
<polygon fill="black" stroke="black" points="1918.44,-279.99 1927.84,-285.63 1923.74,-280.62 1928.04,-281.12 1928.04,-281.12 1928.04,-281.12 1923.74,-280.62 1928.9,-276.69 1918.44,-279.99"/>
</g>
<!-- public.package_service_group -->
<g id="node7" class="node">
<title>public.package_service_group</title>
<polygon fill="#efefef" stroke="none" points="2445.7,-296.6 2445.7,-332.2 2803.6,-332.2 2803.6,-296.6 2445.7,-296.6"/>
<polygon fill="none" stroke="black" points="2445.7,-296.6 2445.7,-332.2 2803.6,-332.2 2803.6,-296.6 2445.7,-296.6"/>
<text text-anchor="start" x="2452.7" y="-310" font-family="Arial Bold" font-size="18.00">public.package_service_group</text>
<text text-anchor="start" x="2672.11" y="-310" font-family="Arial" font-size="14.00">    </text>
<text text-anchor="start" x="2703.23" y="-310" font-family="Arial" font-size="14.00" fill="#666666">[BASE TABLE]</text>
<polygon fill="none" stroke="black" points="2445.7,-265.8 2445.7,-296.6 2803.6,-296.6 2803.6,-265.8 2445.7,-265.8"/>
<text text-anchor="start" x="2452.7" y="-278" font-family="Arial" font-size="14.00">package_id </text>
<text text-anchor="start" x="2528.21" y="-278" font-family="Arial" font-size="14.00" fill="#666666">[bigint]</text>
<polygon fill="none" stroke="black" points="2445.7,-235 2445.7,-265.8 2803.6,-265.8 2803.6,-235 2445.7,-235"/>
<text text-anchor="start" x="2452.7" y="-247.2" font-family="Arial" font-size="14.00">service_group_id </text>
<text text-anchor="start" x="2563.21" y="-247.2" font-family="Arial" font-size="14.00" fill="#666666">[bigint]</text>
</g>
<!-- public.package_service_group&#45;&gt;public.service_groups -->
<g id="edge7" class="edge">
<title>public.package_service_group:service_group_id&#45;&gt;public.service_groups:id</title>
<path fill="none" stroke="black" d="M2434.44,-248.81C2412.04,-240.77 2421.05,-204.4 2393.65,-188.8 2232.26,-96.91 1753.84,-58.6 1568.13,-58.6"/>
<polygon fill="black" stroke="black" points="2434.49,-248.82 2443.68,-254.8 2439.76,-249.63 2444.04,-250.3 2444.04,-250.3 2444.04,-250.3 2439.76,-249.63 2445.06,-245.9 2434.49,-248.82"/>
</g>
<!-- public.category_service_group -->
<g id="node8" class="node">
<title>public.category_service_group</title>
<polygon fill="#efefef" stroke="none" points="2908.2,-296.6 2908.2,-332.2 3269.1,-332.2 3269.1,-296.6 2908.2,-296.6"/>
<polygon fill="none" stroke="black" points="2908.2,-296.6 2908.2,-332.2 3269.1,-332.2 3269.1,-296.6 2908.2,-296.6"/>
<text text-anchor="start" x="2915.2" y="-310" font-family="Arial Bold" font-size="18.00">public.category_service_group</text>
<text text-anchor="start" x="3137.62" y="-310" font-family="Arial" font-size="14.00">    </text>
<text text-anchor="start" x="3168.73" y="-310" font-family="Arial" font-size="14.00" fill="#666666">[BASE TABLE]</text>
<polygon fill="none" stroke="black" points="2908.2,-265.8 2908.2,-296.6 3269.1,-296.6 3269.1,-265.8 2908.2,-265.8"/>
<text text-anchor="start" x="2915.2" y="-278" font-family="Arial" font-size="14.00">service_group_id </text>
<text text-anchor="start" x="3025.71" y="-278" font-family="Arial" font-size="14.00" fill="#666666">[integer]</text>
<polygon fill="none" stroke="black" points="2908.2,-235 2908.2,-265.8 3269.1,-265.8 3269.1,-235 2908.2,-235"/>
<text text-anchor="start" x="2915.2" y="-247.2" font-family="Arial" font-size="14.00">category_id </text>
<text text-anchor="start" x="2991.47" y="-247.2" font-family="Arial" font-size="14.00" fill="#666666">[integer]</text>
</g>
<!-- public.category_service_group&#45;&gt;public.service_groups -->
<g id="edge8" class="edge">
<title>public.category_service_group:service_group_id&#45;&gt;public.service_groups:id</title>
<path fill="none" stroke="black" d="M2897.19,-279.92C2865.38,-270.55 2891.73,-212.51 2855.65,-188.8 2735.49,-109.84 1711.91,-58.6 1568.13,-58.6"/>
<polygon fill="black" stroke="black" points="2896.95,-279.88 2906.29,-285.62 2902.24,-280.56 2906.54,-281.11 2906.54,-281.11 2906.54,-281.11 2902.24,-280.56 2907.44,-276.69 2896.95,-279.88"/>
</g>
</g>
</svg>
