<?xml version="1.0" encoding="UTF-8" standalone="no"?>
<!DOCTYPE svg PUBLIC "-//W3C//DTD SVG 1.1//EN"
 "http://www.w3.org/Graphics/SVG/1.1/DTD/svg11.dtd">
<!-- Generated by graphviz version 12.1.2 (20240928.0832)
 -->
<!-- Title: public.branch_position Pages: 1 -->
<svg width="2329pt" height="1011pt"
 viewBox="0.00 0.00 2329.36 1011.40" xmlns="http://www.w3.org/2000/svg" xmlns:xlink="http://www.w3.org/1999/xlink">
<g id="graph0" class="graph" transform="scale(1 1) rotate(0) translate(4 1007.4)">
<title>public.branch_position</title>
<polygon fill="white" stroke="none" points="-4,4 -4,-1007.4 2325.36,-1007.4 2325.36,4 -4,4"/>
<!-- public.branch_position -->
<g id="node1" class="node">
<title>public.branch_position</title>
<polygon fill="#efefef" stroke="none" points="1641.7,-724.4 1641.7,-760 1945.66,-760 1945.66,-724.4 1641.7,-724.4"/>
<polygon fill="none" stroke="black" points="1641.7,-724.4 1641.7,-760 1945.66,-760 1945.66,-724.4 1641.7,-724.4"/>
<text text-anchor="start" x="1648.7" y="-737.8" font-family="Arial Bold" font-size="18.00">public.branch_position</text>
<text text-anchor="start" x="1814.17" y="-737.8" font-family="Arial" font-size="14.00">    </text>
<text text-anchor="start" x="1845.29" y="-737.8" font-family="Arial" font-size="14.00" fill="#666666">[BASE TABLE]</text>
<polygon fill="none" stroke="black" points="1641.7,-693.6 1641.7,-724.4 1945.66,-724.4 1945.66,-693.6 1641.7,-693.6"/>
<text text-anchor="start" x="1648.7" y="-705.8" font-family="Arial" font-size="14.00">branch_id </text>
<text text-anchor="start" x="1714.08" y="-705.8" font-family="Arial" font-size="14.00" fill="#666666">[bigint]</text>
<polygon fill="none" stroke="black" points="1641.7,-662.8 1641.7,-693.6 1945.66,-693.6 1945.66,-662.8 1641.7,-662.8"/>
<text text-anchor="start" x="1648.7" y="-675" font-family="Arial" font-size="14.00">position_id </text>
<text text-anchor="start" x="1719.52" y="-675" font-family="Arial" font-size="14.00" fill="#666666">[bigint]</text>
<polygon fill="none" stroke="black" stroke-width="3" points="1640.2,-661.3 1640.2,-761.5 1947.16,-761.5 1947.16,-661.3 1640.2,-661.3"/>
</g>
<!-- public.branches -->
<g id="node2" class="node">
<title>public.branches</title>
<polygon fill="#efefef" stroke="none" points="1019.7,-304.6 1019.7,-340.2 1271.65,-340.2 1271.65,-304.6 1019.7,-304.6"/>
<polygon fill="none" stroke="black" points="1019.7,-304.6 1019.7,-340.2 1271.65,-340.2 1271.65,-304.6 1019.7,-304.6"/>
<text text-anchor="start" x="1026.7" y="-318" font-family="Arial Bold" font-size="18.00">public.branches</text>
<text text-anchor="start" x="1140.16" y="-318" font-family="Arial" font-size="14.00">    </text>
<text text-anchor="start" x="1171.28" y="-318" font-family="Arial" font-size="14.00" fill="#666666">[BASE TABLE]</text>
<polygon fill="none" stroke="black" points="1019.7,-273.8 1019.7,-304.6 1271.65,-304.6 1271.65,-273.8 1019.7,-273.8"/>
<text text-anchor="start" x="1026.7" y="-286" font-family="Arial" font-size="14.00">id </text>
<text text-anchor="start" x="1041.49" y="-286" font-family="Arial" font-size="14.00" fill="#666666">[bigint]</text>
<polygon fill="none" stroke="black" points="1019.7,-243 1019.7,-273.8 1271.65,-273.8 1271.65,-243 1019.7,-243"/>
<text text-anchor="start" x="1026.7" y="-255.2" font-family="Arial" font-size="14.00">organization_id </text>
<text text-anchor="start" x="1125.55" y="-255.2" font-family="Arial" font-size="14.00" fill="#666666">[bigint]</text>
</g>
<!-- public.branch_position&#45;&gt;public.branches -->
<g id="edge1" class="edge">
<title>public.branch_position:branch_id&#45;&gt;public.branches:id</title>
<path fill="none" stroke="black" d="M1630.6,-708.58C1518.3,-698.79 1666.86,-518.34 1586.68,-419.4 1491.55,-302.02 1423.74,-289.2 1272.65,-289.2"/>
<polygon fill="black" stroke="black" points="1630.37,-708.58 1640.18,-713.48 1635.7,-708.79 1640.03,-708.97 1640.03,-708.97 1640.03,-708.97 1635.7,-708.79 1640.55,-704.49 1630.37,-708.58"/>
</g>
<!-- public.positions -->
<g id="node9" class="node">
<title>public.positions</title>
<polygon fill="#efefef" stroke="none" points="1853.18,-289.2 1853.18,-324.8 2106.17,-324.8 2106.17,-289.2 1853.18,-289.2"/>
<polygon fill="none" stroke="black" points="1853.18,-289.2 1853.18,-324.8 2106.17,-324.8 2106.17,-289.2 1853.18,-289.2"/>
<text text-anchor="start" x="1860.18" y="-302.6" font-family="Arial Bold" font-size="18.00">public.positions</text>
<text text-anchor="start" x="1974.68" y="-302.6" font-family="Arial" font-size="14.00">    </text>
<text text-anchor="start" x="2005.8" y="-302.6" font-family="Arial" font-size="14.00" fill="#666666">[BASE TABLE]</text>
<polygon fill="none" stroke="black" points="1853.18,-258.4 1853.18,-289.2 2106.17,-289.2 2106.17,-258.4 1853.18,-258.4"/>
<text text-anchor="start" x="1860.18" y="-270.6" font-family="Arial" font-size="14.00">id </text>
<text text-anchor="start" x="1874.97" y="-270.6" font-family="Arial" font-size="14.00" fill="#666666">[bigint]</text>
</g>
<!-- public.branch_position&#45;&gt;public.positions -->
<g id="edge8" class="edge">
<title>public.branch_position:position_id&#45;&gt;public.positions:id</title>
<path fill="none" stroke="black" d="M1956.74,-677.74C2113.37,-662.56 1671.21,-273.8 1852.18,-273.8"/>
<polygon fill="black" stroke="black" points="1956.98,-677.73 1946.79,-673.69 1951.65,-677.97 1947.33,-678.17 1947.33,-678.17 1947.33,-678.17 1951.65,-677.97 1947.2,-682.68 1956.98,-677.73"/>
</g>
<!-- public.organizations -->
<g id="node8" class="node">
<title>public.organizations</title>
<polygon fill="#efefef" stroke="none" points="1003.2,-85 1003.2,-120.6 1288.15,-120.6 1288.15,-85 1003.2,-85"/>
<polygon fill="none" stroke="black" points="1003.2,-85 1003.2,-120.6 1288.15,-120.6 1288.15,-85 1003.2,-85"/>
<text text-anchor="start" x="1010.2" y="-98.4" font-family="Arial Bold" font-size="18.00">public.organizations</text>
<text text-anchor="start" x="1156.66" y="-98.4" font-family="Arial" font-size="14.00">    </text>
<text text-anchor="start" x="1187.78" y="-98.4" font-family="Arial" font-size="14.00" fill="#666666">[BASE TABLE]</text>
<polygon fill="none" stroke="black" points="1003.2,-54.2 1003.2,-85 1288.15,-85 1288.15,-54.2 1003.2,-54.2"/>
<text text-anchor="start" x="1010.2" y="-66.4" font-family="Arial" font-size="14.00">id </text>
<text text-anchor="start" x="1024.99" y="-66.4" font-family="Arial" font-size="14.00" fill="#666666">[bigint]</text>
</g>
<!-- public.branches&#45;&gt;public.organizations -->
<g id="edge7" class="edge">
<title>public.branches:organization_id&#45;&gt;public.organizations:id</title>
<path fill="none" stroke="black" d="M1146.35,-231.84C1156.7,-159.24 1283.86,-235.34 1331.35,-163.8 1358.3,-123.22 1365.7,-88.74 1331.35,-54.2 1273.16,4.31 1145.68,29.32 1145.68,-53.2"/>
<polygon fill="black" stroke="black" points="1146.36,-231.69 1141.21,-241.37 1146.01,-237.01 1145.72,-241.33 1145.72,-241.33 1145.72,-241.33 1146.01,-237.01 1150.19,-241.96 1146.36,-231.69"/>
</g>
<!-- public.users -->
<g id="node3" class="node">
<title>public.users</title>
<polygon fill="#efefef" stroke="none" points="2053.19,-924.6 2053.19,-960.2 2278.16,-960.2 2278.16,-924.6 2053.19,-924.6"/>
<polygon fill="none" stroke="black" points="2053.19,-924.6 2053.19,-960.2 2278.16,-960.2 2278.16,-924.6 2053.19,-924.6"/>
<text text-anchor="start" x="2060.19" y="-938" font-family="Arial Bold" font-size="18.00">public.users</text>
<text text-anchor="start" x="2146.68" y="-938" font-family="Arial" font-size="14.00">    </text>
<text text-anchor="start" x="2177.79" y="-938" font-family="Arial" font-size="14.00" fill="#666666">[BASE TABLE]</text>
<polygon fill="none" stroke="black" points="2053.19,-893.8 2053.19,-924.6 2278.16,-924.6 2278.16,-893.8 2053.19,-893.8"/>
<text text-anchor="start" x="2060.19" y="-906" font-family="Arial" font-size="14.00">id </text>
<text text-anchor="start" x="2074.98" y="-906" font-family="Arial" font-size="14.00" fill="#666666">[bigint]</text>
<polygon fill="none" stroke="black" points="2053.19,-863 2053.19,-893.8 2278.16,-893.8 2278.16,-863 2053.19,-863"/>
<text text-anchor="start" x="2060.19" y="-875.2" font-family="Arial" font-size="14.00">email </text>
<text text-anchor="start" x="2097.54" y="-875.2" font-family="Arial" font-size="14.00" fill="#666666">[varchar(255)]</text>
<polygon fill="none" stroke="black" points="2053.19,-832.2 2053.19,-863 2278.16,-863 2278.16,-832.2 2053.19,-832.2"/>
<text text-anchor="start" x="2060.19" y="-844.4" font-family="Arial" font-size="14.00">branch_id </text>
<text text-anchor="start" x="2125.57" y="-844.4" font-family="Arial" font-size="14.00" fill="#666666">[bigint]</text>
<polygon fill="none" stroke="black" points="2053.19,-801.4 2053.19,-832.2 2278.16,-832.2 2278.16,-801.4 2053.19,-801.4"/>
<text text-anchor="start" x="2060.19" y="-813.6" font-family="Arial" font-size="14.00">sex_id </text>
<text text-anchor="start" x="2104.55" y="-813.6" font-family="Arial" font-size="14.00" fill="#666666">[bigint]</text>
<polygon fill="none" stroke="black" points="2053.19,-770.6 2053.19,-801.4 2278.16,-801.4 2278.16,-770.6 2053.19,-770.6"/>
<text text-anchor="start" x="2060.19" y="-782.8" font-family="Arial" font-size="14.00">user_status_id </text>
<text text-anchor="start" x="2155.14" y="-782.8" font-family="Arial" font-size="14.00" fill="#666666">[bigint]</text>
<polygon fill="none" stroke="black" points="2053.19,-739.8 2053.19,-770.6 2278.16,-770.6 2278.16,-739.8 2053.19,-739.8"/>
<text text-anchor="start" x="2060.19" y="-752" font-family="Arial" font-size="14.00">nationality_id </text>
<text text-anchor="start" x="2145.8" y="-752" font-family="Arial" font-size="14.00" fill="#666666">[bigint]</text>
<polygon fill="none" stroke="black" points="2053.19,-709 2053.19,-739.8 2278.16,-739.8 2278.16,-709 2053.19,-709"/>
<text text-anchor="start" x="2060.19" y="-721.2" font-family="Arial" font-size="14.00">city_id </text>
<text text-anchor="start" x="2103.76" y="-721.2" font-family="Arial" font-size="14.00" fill="#666666">[bigint]</text>
<polygon fill="none" stroke="black" points="2053.19,-678.2 2053.19,-709 2278.16,-709 2278.16,-678.2 2053.19,-678.2"/>
<text text-anchor="start" x="2060.19" y="-690.4" font-family="Arial" font-size="14.00">image_id </text>
<text text-anchor="start" x="2120.89" y="-690.4" font-family="Arial" font-size="14.00" fill="#666666">[bigint]</text>
<polygon fill="none" stroke="black" points="2053.19,-647.4 2053.19,-678.2 2278.16,-678.2 2278.16,-647.4 2053.19,-647.4"/>
<text text-anchor="start" x="2060.19" y="-659.6" font-family="Arial" font-size="14.00">signature_image_id </text>
<text text-anchor="start" x="2186.27" y="-659.6" font-family="Arial" font-size="14.00" fill="#666666">[bigint]</text>
<polygon fill="none" stroke="black" points="2053.19,-616.6 2053.19,-647.4 2278.16,-647.4 2278.16,-616.6 2053.19,-616.6"/>
<text text-anchor="start" x="2060.19" y="-628.8" font-family="Arial" font-size="14.00">position_id </text>
<text text-anchor="start" x="2131.02" y="-628.8" font-family="Arial" font-size="14.00" fill="#666666">[bigint]</text>
<polygon fill="none" stroke="black" points="2053.19,-585.8 2053.19,-616.6 2278.16,-616.6 2278.16,-585.8 2053.19,-585.8"/>
<text text-anchor="start" x="2060.19" y="-598" font-family="Arial" font-size="14.00">mobile_number_id </text>
<text text-anchor="start" x="2179.26" y="-598" font-family="Arial" font-size="14.00" fill="#666666">[bigint]</text>
<polygon fill="none" stroke="black" points="2053.19,-555 2053.19,-585.8 2278.16,-585.8 2278.16,-555 2053.19,-555"/>
<text text-anchor="start" x="2060.19" y="-567.2" font-family="Arial" font-size="14.00">home_number_id </text>
<text text-anchor="start" x="2173.04" y="-567.2" font-family="Arial" font-size="14.00" fill="#666666">[bigint]</text>
<polygon fill="none" stroke="black" points="2053.19,-524.2 2053.19,-555 2278.16,-555 2278.16,-524.2 2053.19,-524.2"/>
<text text-anchor="start" x="2060.19" y="-536.4" font-family="Arial" font-size="14.00">bank_id </text>
<text text-anchor="start" x="2113.12" y="-536.4" font-family="Arial" font-size="14.00" fill="#666666">[bigint]</text>
<polygon fill="none" stroke="black" points="2053.19,-493.4 2053.19,-524.2 2278.16,-524.2 2278.16,-493.4 2053.19,-493.4"/>
<text text-anchor="start" x="2060.19" y="-505.6" font-family="Arial" font-size="14.00">created_by_user_id </text>
<text text-anchor="start" x="2187.05" y="-505.6" font-family="Arial" font-size="14.00" fill="#666666">[bigint]</text>
<polygon fill="none" stroke="black" points="2053.19,-462.6 2053.19,-493.4 2278.16,-493.4 2278.16,-462.6 2053.19,-462.6"/>
<text text-anchor="start" x="2060.19" y="-474.8" font-family="Arial" font-size="14.00">profile_status_id </text>
<text text-anchor="start" x="2166.03" y="-474.8" font-family="Arial" font-size="14.00" fill="#666666">[bigint]</text>
</g>
<!-- public.users&#45;&gt;public.branches -->
<g id="edge2" class="edge">
<title>public.users:branch_id&#45;&gt;public.branches:id</title>
<path fill="none" stroke="black" d="M2041.88,-846C1964.68,-820.03 2063.91,-486.36 2000.68,-419.4 2000.24,-418.93 1273.29,-289.2 1272.65,-289.2"/>
<polygon fill="black" stroke="black" points="2041.98,-846.01 2051.17,-852 2047.25,-846.83 2051.53,-847.5 2051.53,-847.5 2051.53,-847.5 2047.25,-846.83 2052.55,-843.1 2041.98,-846.01"/>
</g>
<!-- public.users&#45;&gt;public.positions -->
<g id="edge9" class="edge">
<title>public.users:position_id&#45;&gt;public.positions:id</title>
<path fill="none" stroke="black" d="M2041.81,-631.43C1962.24,-622.24 2017.61,-502.94 2053.19,-419.4 2066.05,-389.22 2093.23,-398.15 2106.17,-368 2122.69,-329.53 2149.04,-273.8 2107.17,-273.8"/>
<polygon fill="black" stroke="black" points="2041.87,-631.44 2051.61,-636.48 2047.2,-631.73 2051.52,-631.96 2051.52,-631.96 2051.52,-631.96 2047.2,-631.73 2052.1,-627.49 2041.87,-631.44"/>
</g>
<!-- public.branch_speciality -->
<g id="node4" class="node">
<title>public.branch_speciality</title>
<polygon fill="#efefef" stroke="none" points="771.21,-724.4 771.21,-760 1086.14,-760 1086.14,-724.4 771.21,-724.4"/>
<polygon fill="none" stroke="black" points="771.21,-724.4 771.21,-760 1086.14,-760 1086.14,-724.4 771.21,-724.4"/>
<text text-anchor="start" x="778.21" y="-737.8" font-family="Arial Bold" font-size="18.00">public.branch_speciality</text>
<text text-anchor="start" x="954.65" y="-737.8" font-family="Arial" font-size="14.00">    </text>
<text text-anchor="start" x="985.77" y="-737.8" font-family="Arial" font-size="14.00" fill="#666666">[BASE TABLE]</text>
<polygon fill="none" stroke="black" points="771.21,-693.6 771.21,-724.4 1086.14,-724.4 1086.14,-693.6 771.21,-693.6"/>
<text text-anchor="start" x="778.21" y="-705.8" font-family="Arial" font-size="14.00">branch_id </text>
<text text-anchor="start" x="843.59" y="-705.8" font-family="Arial" font-size="14.00" fill="#666666">[bigint]</text>
<polygon fill="none" stroke="black" points="771.21,-662.8 771.21,-693.6 1086.14,-693.6 1086.14,-662.8 771.21,-662.8"/>
<text text-anchor="start" x="778.21" y="-675" font-family="Arial" font-size="14.00">speciality_id </text>
<text text-anchor="start" x="858.36" y="-675" font-family="Arial" font-size="14.00" fill="#666666">[bigint]</text>
</g>
<!-- public.branch_speciality&#45;&gt;public.branches -->
<g id="edge3" class="edge">
<title>public.branch_speciality:branch_id&#45;&gt;public.branches:id</title>
<path fill="none" stroke="black" d="M1097.5,-708.53C1258.98,-692.76 833.36,-289.2 1018.7,-289.2"/>
<polygon fill="black" stroke="black" points="1097.47,-708.53 1087.27,-704.49 1092.14,-708.77 1087.81,-708.97 1087.81,-708.97 1087.81,-708.97 1092.14,-708.77 1087.68,-713.48 1097.47,-708.53"/>
</g>
<!-- public.branch_contract_type -->
<g id="node5" class="node">
<title>public.branch_contract_type</title>
<polygon fill="#efefef" stroke="none" points="1190.72,-724.4 1190.72,-760 1534.63,-760 1534.63,-724.4 1190.72,-724.4"/>
<polygon fill="none" stroke="black" points="1190.72,-724.4 1190.72,-760 1534.63,-760 1534.63,-724.4 1190.72,-724.4"/>
<text text-anchor="start" x="1197.72" y="-737.8" font-family="Arial Bold" font-size="18.00">public.branch_contract_type</text>
<text text-anchor="start" x="1403.14" y="-737.8" font-family="Arial" font-size="14.00">    </text>
<text text-anchor="start" x="1434.26" y="-737.8" font-family="Arial" font-size="14.00" fill="#666666">[BASE TABLE]</text>
<polygon fill="none" stroke="black" points="1190.72,-693.6 1190.72,-724.4 1534.63,-724.4 1534.63,-693.6 1190.72,-693.6"/>
<text text-anchor="start" x="1197.72" y="-705.8" font-family="Arial" font-size="14.00">branch_id </text>
<text text-anchor="start" x="1263.1" y="-705.8" font-family="Arial" font-size="14.00" fill="#666666">[bigint]</text>
<polygon fill="none" stroke="black" points="1190.72,-662.8 1190.72,-693.6 1534.63,-693.6 1534.63,-662.8 1190.72,-662.8"/>
<text text-anchor="start" x="1197.72" y="-675" font-family="Arial" font-size="14.00">contract_type_id </text>
<text text-anchor="start" x="1304.34" y="-675" font-family="Arial" font-size="14.00" fill="#666666">[bigint]</text>
</g>
<!-- public.branch_contract_type&#45;&gt;public.branches -->
<g id="edge4" class="edge">
<title>public.branch_contract_type:branch_id&#45;&gt;public.branches:id</title>
<path fill="none" stroke="black" d="M1179.32,-708.53C1017.39,-692.76 1459.12,-289.2 1272.65,-289.2"/>
<polygon fill="black" stroke="black" points="1179.4,-708.53 1189.18,-713.48 1184.73,-708.77 1189.06,-708.97 1189.06,-708.97 1189.06,-708.97 1184.73,-708.77 1189.59,-704.49 1179.4,-708.53"/>
</g>
<!-- public.companies -->
<g id="node6" class="node">
<title>public.companies</title>
<polygon fill="#efefef" stroke="none" points="43.2,-816.8 43.2,-852.4 308.16,-852.4 308.16,-816.8 43.2,-816.8"/>
<polygon fill="none" stroke="black" points="43.2,-816.8 43.2,-852.4 308.16,-852.4 308.16,-816.8 43.2,-816.8"/>
<text text-anchor="start" x="50.2" y="-830.2" font-family="Arial Bold" font-size="18.00">public.companies</text>
<text text-anchor="start" x="176.67" y="-830.2" font-family="Arial" font-size="14.00">    </text>
<text text-anchor="start" x="207.78" y="-830.2" font-family="Arial" font-size="14.00" fill="#666666">[BASE TABLE]</text>
<polygon fill="none" stroke="black" points="43.2,-786 43.2,-816.8 308.16,-816.8 308.16,-786 43.2,-786"/>
<text text-anchor="start" x="50.2" y="-798.2" font-family="Arial" font-size="14.00">id </text>
<text text-anchor="start" x="64.99" y="-798.2" font-family="Arial" font-size="14.00" fill="#666666">[bigint]</text>
<polygon fill="none" stroke="black" points="43.2,-755.2 43.2,-786 308.16,-786 308.16,-755.2 43.2,-755.2"/>
<text text-anchor="start" x="50.2" y="-767.4" font-family="Arial" font-size="14.00">branch_id </text>
<text text-anchor="start" x="115.58" y="-767.4" font-family="Arial" font-size="14.00" fill="#666666">[integer]</text>
<polygon fill="none" stroke="black" points="43.2,-724.4 43.2,-755.2 308.16,-755.2 308.16,-724.4 43.2,-724.4"/>
<text text-anchor="start" x="50.2" y="-736.6" font-family="Arial" font-size="14.00">logo_id </text>
<text text-anchor="start" x="99.24" y="-736.6" font-family="Arial" font-size="14.00" fill="#666666">[bigint]</text>
<polygon fill="none" stroke="black" points="43.2,-693.6 43.2,-724.4 308.16,-724.4 308.16,-693.6 43.2,-693.6"/>
<text text-anchor="start" x="50.2" y="-705.8" font-family="Arial" font-size="14.00">city_id </text>
<text text-anchor="start" x="93.77" y="-705.8" font-family="Arial" font-size="14.00" fill="#666666">[bigint]</text>
<polygon fill="none" stroke="black" points="43.2,-662.8 43.2,-693.6 308.16,-693.6 308.16,-662.8 43.2,-662.8"/>
<text text-anchor="start" x="50.2" y="-675" font-family="Arial" font-size="14.00">phone_number_id </text>
<text text-anchor="start" x="166.96" y="-675" font-family="Arial" font-size="14.00" fill="#666666">[bigint]</text>
<polygon fill="none" stroke="black" points="43.2,-632 43.2,-662.8 308.16,-662.8 308.16,-632 43.2,-632"/>
<text text-anchor="start" x="50.2" y="-644.2" font-family="Arial" font-size="14.00">created_by_user_id </text>
<text text-anchor="start" x="177.06" y="-644.2" font-family="Arial" font-size="14.00" fill="#666666">[integer]</text>
<polygon fill="none" stroke="black" points="43.2,-601.2 43.2,-632 308.16,-632 308.16,-601.2 43.2,-601.2"/>
<text text-anchor="start" x="50.2" y="-613.4" font-family="Arial" font-size="14.00">owned_by_user_id </text>
<text text-anchor="start" x="171.62" y="-613.4" font-family="Arial" font-size="14.00" fill="#666666">[integer]</text>
<polygon fill="none" stroke="black" points="43.2,-570.4 43.2,-601.2 308.16,-601.2 308.16,-570.4 43.2,-570.4"/>
<text text-anchor="start" x="50.2" y="-582.6" font-family="Arial" font-size="14.00">supervisor_user_id </text>
<text text-anchor="start" x="172.37" y="-582.6" font-family="Arial" font-size="14.00" fill="#666666">[bigint]</text>
</g>
<!-- public.companies&#45;&gt;public.branches -->
<g id="edge5" class="edge">
<title>public.companies:branch_id&#45;&gt;public.branches:id</title>
<path fill="none" stroke="black" d="M319.21,-768.72C380.56,-743.56 307.94,-473.91 359.68,-419.4 462.45,-311.13 869.42,-289.2 1018.7,-289.2"/>
<polygon fill="black" stroke="black" points="319.31,-768.7 308.66,-766.12 314.07,-769.68 309.81,-770.48 309.81,-770.48 309.81,-770.48 314.07,-769.68 310.31,-774.96 319.31,-768.7"/>
</g>
<!-- public.checkups -->
<g id="node7" class="node">
<title>public.checkups</title>
<polygon fill="#efefef" stroke="none" points="412.2,-786 412.2,-821.6 667.15,-821.6 667.15,-786 412.2,-786"/>
<polygon fill="none" stroke="black" points="412.2,-786 412.2,-821.6 667.15,-821.6 667.15,-786 412.2,-786"/>
<text text-anchor="start" x="419.2" y="-799.4" font-family="Arial Bold" font-size="18.00">public.checkups</text>
<text text-anchor="start" x="535.66" y="-799.4" font-family="Arial" font-size="14.00">    </text>
<text text-anchor="start" x="566.78" y="-799.4" font-family="Arial" font-size="14.00" fill="#666666">[BASE TABLE]</text>
<polygon fill="none" stroke="black" points="412.2,-755.2 412.2,-786 667.15,-786 667.15,-755.2 412.2,-755.2"/>
<text text-anchor="start" x="419.2" y="-767.4" font-family="Arial" font-size="14.00">id </text>
<text text-anchor="start" x="433.99" y="-767.4" font-family="Arial" font-size="14.00" fill="#666666">[bigint]</text>
<polygon fill="none" stroke="black" points="412.2,-724.4 412.2,-755.2 667.15,-755.2 667.15,-724.4 412.2,-724.4"/>
<text text-anchor="start" x="419.2" y="-736.6" font-family="Arial" font-size="14.00">patient_id </text>
<text text-anchor="start" x="483.81" y="-736.6" font-family="Arial" font-size="14.00" fill="#666666">[bigint]</text>
<polygon fill="none" stroke="black" points="412.2,-693.6 412.2,-724.4 667.15,-724.4 667.15,-693.6 412.2,-693.6"/>
<text text-anchor="start" x="419.2" y="-705.8" font-family="Arial" font-size="14.00">branch_id </text>
<text text-anchor="start" x="484.58" y="-705.8" font-family="Arial" font-size="14.00" fill="#666666">[bigint]</text>
<polygon fill="none" stroke="black" points="412.2,-662.8 412.2,-693.6 667.15,-693.6 667.15,-662.8 412.2,-662.8"/>
<text text-anchor="start" x="419.2" y="-675" font-family="Arial" font-size="14.00">created_by_user_id </text>
<text text-anchor="start" x="546.06" y="-675" font-family="Arial" font-size="14.00" fill="#666666">[bigint]</text>
<polygon fill="none" stroke="black" points="412.2,-632 412.2,-662.8 667.15,-662.8 667.15,-632 412.2,-632"/>
<text text-anchor="start" x="419.2" y="-644.2" font-family="Arial" font-size="14.00">company_lot_id </text>
<text text-anchor="start" x="521.15" y="-644.2" font-family="Arial" font-size="14.00" fill="#666666">[bigint]</text>
<polygon fill="none" stroke="black" points="412.2,-601.2 412.2,-632 667.15,-632 667.15,-601.2 412.2,-601.2"/>
<text text-anchor="start" x="419.2" y="-613.4" font-family="Arial" font-size="14.00">company_id </text>
<text text-anchor="start" x="498.58" y="-613.4" font-family="Arial" font-size="14.00" fill="#666666">[bigint]</text>
</g>
<!-- public.checkups&#45;&gt;public.branches -->
<g id="edge6" class="edge">
<title>public.checkups:branch_id&#45;&gt;public.branches:id</title>
<path fill="none" stroke="black" d="M678.13,-706.78C727.53,-682.61 680.55,-467.82 718.68,-419.4 808.61,-305.2 873.34,-289.2 1018.7,-289.2"/>
<polygon fill="black" stroke="black" points="678.24,-706.76 667.51,-704.53 673.04,-707.92 668.81,-708.86 668.81,-708.86 668.81,-708.86 673.04,-707.92 669.46,-713.32 678.24,-706.76"/>
</g>
</g>
</svg>
