<?xml version="1.0" encoding="UTF-8" standalone="no"?>
<!DOCTYPE svg PUBLIC "-//W3C//DTD SVG 1.1//EN"
 "http://www.w3.org/Graphics/SVG/1.1/DTD/svg11.dtd">
<!-- Generated by graphviz version 12.1.2 (20240928.0832)
 -->
<!-- Title: public.packages Pages: 1 -->
<svg width="2623pt" height="723pt"
 viewBox="0.00 0.00 2623.30 723.20" xmlns="http://www.w3.org/2000/svg" xmlns:xlink="http://www.w3.org/1999/xlink">
<g id="graph0" class="graph" transform="scale(1 1) rotate(0) translate(4 719.2)">
<title>public.packages</title>
<polygon fill="white" stroke="none" points="-4,4 -4,-719.2 2619.3,-719.2 2619.3,4 -4,4"/>
<!-- public.packages -->
<g id="node1" class="node">
<title>public.packages</title>
<polygon fill="#efefef" stroke="none" points="1157.18,-355.2 1157.18,-390.8 1411.12,-390.8 1411.12,-355.2 1157.18,-355.2"/>
<polygon fill="none" stroke="black" points="1157.18,-355.2 1157.18,-390.8 1411.12,-390.8 1411.12,-355.2 1157.18,-355.2"/>
<text text-anchor="start" x="1164.18" y="-368.6" font-family="Arial Bold" font-size="18.00">public.packages</text>
<text text-anchor="start" x="1279.63" y="-368.6" font-family="Arial" font-size="14.00">    </text>
<text text-anchor="start" x="1310.75" y="-368.6" font-family="Arial" font-size="14.00" fill="#666666">[BASE TABLE]</text>
<polygon fill="none" stroke="black" points="1157.18,-324.4 1157.18,-355.2 1411.12,-355.2 1411.12,-324.4 1157.18,-324.4"/>
<text text-anchor="start" x="1164.18" y="-336.6" font-family="Arial" font-size="14.00">id </text>
<text text-anchor="start" x="1178.96" y="-336.6" font-family="Arial" font-size="14.00" fill="#666666">[bigint]</text>
<polygon fill="none" stroke="black" points="1157.18,-293.6 1157.18,-324.4 1411.12,-324.4 1411.12,-293.6 1157.18,-293.6"/>
<text text-anchor="start" x="1164.18" y="-305.8" font-family="Arial" font-size="14.00">attune_department_id </text>
<text text-anchor="start" x="1304.28" y="-305.8" font-family="Arial" font-size="14.00" fill="#666666">[bigint]</text>
<polygon fill="none" stroke="black" stroke-width="3" points="1155.68,-292.1 1155.68,-392.3 1412.62,-392.3 1412.62,-292.1 1155.68,-292.1"/>
</g>
<!-- public.attune_departments -->
<g id="node14" class="node">
<title>public.attune_departments</title>
<polygon fill="#efefef" stroke="none" points="940.68,-74 940.68,-109.6 1269.62,-109.6 1269.62,-74 940.68,-74"/>
<polygon fill="none" stroke="black" points="940.68,-74 940.68,-109.6 1269.62,-109.6 1269.62,-74 940.68,-74"/>
<text text-anchor="start" x="947.68" y="-87.4" font-family="Arial Bold" font-size="18.00">public.attune_departments</text>
<text text-anchor="start" x="1138.13" y="-87.4" font-family="Arial" font-size="14.00">    </text>
<text text-anchor="start" x="1169.24" y="-87.4" font-family="Arial" font-size="14.00" fill="#666666">[BASE TABLE]</text>
<polygon fill="none" stroke="black" points="940.68,-43.2 940.68,-74 1269.62,-74 1269.62,-43.2 940.68,-43.2"/>
<text text-anchor="start" x="947.68" y="-55.4" font-family="Arial" font-size="14.00">id </text>
<text text-anchor="start" x="962.47" y="-55.4" font-family="Arial" font-size="14.00" fill="#666666">[bigint]</text>
</g>
<!-- public.packages&#45;&gt;public.attune_departments -->
<g id="edge13" class="edge">
<title>public.packages:attune_department_id&#45;&gt;public.attune_departments:id</title>
<path fill="none" stroke="black" d="M1146.38,-306.49C1133.87,-297.77 1147.26,-268.27 1157.18,-247.4 1185.22,-188.42 1241.74,-211.86 1269.62,-152.8 1287.49,-114.94 1312.48,-58.6 1270.62,-58.6"/>
<polygon fill="black" stroke="black" points="1146.17,-306.43 1154.74,-313.28 1151.34,-307.76 1155.53,-308.83 1155.53,-308.83 1155.53,-308.83 1151.34,-307.76 1156.97,-304.56 1146.17,-306.43"/>
</g>
<!-- public.package_service -->
<g id="node2" class="node">
<title>public.package_service</title>
<polygon fill="#efefef" stroke="none" points="948.7,-636.4 948.7,-672 1255.6,-672 1255.6,-636.4 948.7,-636.4"/>
<polygon fill="none" stroke="black" points="948.7,-636.4 948.7,-672 1255.6,-672 1255.6,-636.4 948.7,-636.4"/>
<text text-anchor="start" x="955.7" y="-649.8" font-family="Arial Bold" font-size="18.00">public.package_service</text>
<text text-anchor="start" x="1124.11" y="-649.8" font-family="Arial" font-size="14.00">    </text>
<text text-anchor="start" x="1155.23" y="-649.8" font-family="Arial" font-size="14.00" fill="#666666">[BASE TABLE]</text>
<polygon fill="none" stroke="black" points="948.7,-605.6 948.7,-636.4 1255.6,-636.4 1255.6,-605.6 948.7,-605.6"/>
<text text-anchor="start" x="955.7" y="-617.8" font-family="Arial" font-size="14.00">package_id </text>
<text text-anchor="start" x="1031.2" y="-617.8" font-family="Arial" font-size="14.00" fill="#666666">[bigint]</text>
<polygon fill="none" stroke="black" points="948.7,-574.8 948.7,-605.6 1255.6,-605.6 1255.6,-574.8 948.7,-574.8"/>
<text text-anchor="start" x="955.7" y="-587" font-family="Arial" font-size="14.00">service_id </text>
<text text-anchor="start" x="1022.61" y="-587" font-family="Arial" font-size="14.00" fill="#666666">[bigint]</text>
</g>
<!-- public.package_service&#45;&gt;public.packages -->
<g id="edge1" class="edge">
<title>public.package_service:package_id&#45;&gt;public.packages:id</title>
<path fill="none" stroke="black" d="M1266.78,-619.43C1291.36,-610.42 1269.77,-564.37 1255.6,-531.6 1231.52,-475.91 1181.24,-492.7 1157.18,-437 1140.05,-397.34 1112.98,-339.8 1156.18,-339.8"/>
<polygon fill="black" stroke="black" points="1266.82,-619.43 1256.25,-616.5 1261.54,-620.24 1257.26,-620.9 1257.26,-620.9 1257.26,-620.9 1261.54,-620.24 1257.62,-625.4 1266.82,-619.43"/>
</g>
<!-- public.services -->
<g id="node3" class="node">
<title>public.services</title>
<polygon fill="#efefef" stroke="none" points="804.17,-370.6 804.17,-406.2 1050.13,-406.2 1050.13,-370.6 804.17,-370.6"/>
<polygon fill="none" stroke="black" points="804.17,-370.6 804.17,-406.2 1050.13,-406.2 1050.13,-370.6 804.17,-370.6"/>
<text text-anchor="start" x="811.17" y="-384" font-family="Arial Bold" font-size="18.00">public.services</text>
<text text-anchor="start" x="918.64" y="-384" font-family="Arial" font-size="14.00">    </text>
<text text-anchor="start" x="949.75" y="-384" font-family="Arial" font-size="14.00" fill="#666666">[BASE TABLE]</text>
<polygon fill="none" stroke="black" points="804.17,-339.8 804.17,-370.6 1050.13,-370.6 1050.13,-339.8 804.17,-339.8"/>
<text text-anchor="start" x="811.17" y="-352" font-family="Arial" font-size="14.00">id </text>
<text text-anchor="start" x="825.96" y="-352" font-family="Arial" font-size="14.00" fill="#666666">[bigint]</text>
<polygon fill="none" stroke="black" points="804.17,-309 804.17,-339.8 1050.13,-339.8 1050.13,-309 804.17,-309"/>
<text text-anchor="start" x="811.17" y="-321.2" font-family="Arial" font-size="14.00">attune_department_id </text>
<text text-anchor="start" x="951.28" y="-321.2" font-family="Arial" font-size="14.00" fill="#666666">[bigint]</text>
<polygon fill="none" stroke="black" points="804.17,-278.2 804.17,-309 1050.13,-309 1050.13,-278.2 804.17,-278.2"/>
<text text-anchor="start" x="811.17" y="-290.4" font-family="Arial" font-size="14.00">simple_cate_id </text>
<text text-anchor="start" x="908.45" y="-290.4" font-family="Arial" font-size="14.00" fill="#666666">[bigint]</text>
</g>
<!-- public.package_service&#45;&gt;public.services -->
<g id="edge2" class="edge">
<title>public.package_service:service_id&#45;&gt;public.services:id</title>
<path fill="none" stroke="black" d="M937.73,-587.32C926.9,-578.45 939.25,-550.99 948.7,-531.6 974.11,-479.44 1024.88,-501.64 1050.13,-449.4 1068.34,-411.7 1093,-355.2 1051.13,-355.2"/>
<polygon fill="black" stroke="black" points="937.77,-587.33 946.13,-594.43 942.89,-588.81 947.05,-590.01 947.05,-590.01 947.05,-590.01 942.89,-588.81 948.62,-585.78 937.77,-587.33"/>
</g>
<!-- public.services&#45;&gt;public.attune_departments -->
<g id="edge14" class="edge">
<title>public.services:attune_department_id&#45;&gt;public.attune_departments:id</title>
<path fill="none" stroke="black" d="M1061.37,-322.81C1086.28,-313.63 1066.26,-266.85 1050.13,-235 1022.64,-180.73 968.16,-207.07 940.68,-152.8 921.77,-115.44 897.82,-58.6 939.68,-58.6"/>
<polygon fill="black" stroke="black" points="1061.34,-322.81 1050.76,-319.9 1056.07,-323.63 1051.79,-324.3 1051.79,-324.3 1051.79,-324.3 1056.07,-323.63 1052.15,-328.8 1061.34,-322.81"/>
</g>
<!-- public.package_service_group -->
<g id="node4" class="node">
<title>public.package_service_group</title>
<polygon fill="#efefef" stroke="none" points="43.2,-636.4 43.2,-672 401.1,-672 401.1,-636.4 43.2,-636.4"/>
<polygon fill="none" stroke="black" points="43.2,-636.4 43.2,-672 401.1,-672 401.1,-636.4 43.2,-636.4"/>
<text text-anchor="start" x="50.2" y="-649.8" font-family="Arial Bold" font-size="18.00">public.package_service_group</text>
<text text-anchor="start" x="269.61" y="-649.8" font-family="Arial" font-size="14.00">    </text>
<text text-anchor="start" x="300.73" y="-649.8" font-family="Arial" font-size="14.00" fill="#666666">[BASE TABLE]</text>
<polygon fill="none" stroke="black" points="43.2,-605.6 43.2,-636.4 401.1,-636.4 401.1,-605.6 43.2,-605.6"/>
<text text-anchor="start" x="50.2" y="-617.8" font-family="Arial" font-size="14.00">package_id </text>
<text text-anchor="start" x="125.7" y="-617.8" font-family="Arial" font-size="14.00" fill="#666666">[bigint]</text>
<polygon fill="none" stroke="black" points="43.2,-574.8 43.2,-605.6 401.1,-605.6 401.1,-574.8 43.2,-574.8"/>
<text text-anchor="start" x="50.2" y="-587" font-family="Arial" font-size="14.00">service_group_id </text>
<text text-anchor="start" x="160.71" y="-587" font-family="Arial" font-size="14.00" fill="#666666">[bigint]</text>
</g>
<!-- public.package_service_group&#45;&gt;public.packages -->
<g id="edge3" class="edge">
<title>public.package_service_group:package_id&#45;&gt;public.packages:id</title>
<path fill="none" stroke="black" d="M412.35,-619.84C447.74,-610.96 428.09,-553.26 468.15,-531.6 592.29,-464.49 989.54,-580.65 1102.15,-495.6 1160.63,-451.43 1082.89,-339.8 1156.18,-339.8"/>
<polygon fill="black" stroke="black" points="412.37,-619.84 401.93,-616.49 407.07,-620.44 402.76,-620.93 402.76,-620.93 402.76,-620.93 407.07,-620.44 402.94,-625.43 412.37,-619.84"/>
</g>
<!-- public.service_groups -->
<g id="node5" class="node">
<title>public.service_groups</title>
<polygon fill="#efefef" stroke="none" points="43.68,-339.8 43.68,-375.4 340.62,-375.4 340.62,-339.8 43.68,-339.8"/>
<polygon fill="none" stroke="black" points="43.68,-339.8 43.68,-375.4 340.62,-375.4 340.62,-339.8 43.68,-339.8"/>
<text text-anchor="start" x="50.68" y="-353.2" font-family="Arial Bold" font-size="18.00">public.service_groups</text>
<text text-anchor="start" x="209.13" y="-353.2" font-family="Arial" font-size="14.00">    </text>
<text text-anchor="start" x="240.25" y="-353.2" font-family="Arial" font-size="14.00" fill="#666666">[BASE TABLE]</text>
<polygon fill="none" stroke="black" points="43.68,-309 43.68,-339.8 340.62,-339.8 340.62,-309 43.68,-309"/>
<text text-anchor="start" x="50.68" y="-321.2" font-family="Arial" font-size="14.00">id </text>
<text text-anchor="start" x="65.46" y="-321.2" font-family="Arial" font-size="14.00" fill="#666666">[bigint]</text>
</g>
<!-- public.package_service_group&#45;&gt;public.service_groups -->
<g id="edge4" class="edge">
<title>public.package_service_group:service_group_id&#45;&gt;public.service_groups:id</title>
<path fill="none" stroke="black" d="M222.62,-563.52C230.9,-476.63 346.18,-506.92 383.82,-418.6 388.6,-407.4 392.41,-317.63 383.82,-309 323.74,-248.61 192.15,-222.81 192.15,-308"/>
<polygon fill="black" stroke="black" points="222.62,-563.48 217.67,-573.26 222.38,-568.81 222.18,-573.13 222.18,-573.13 222.18,-573.13 222.38,-568.81 226.66,-573.67 222.62,-563.48"/>
</g>
<!-- public.checkup_package -->
<g id="node6" class="node">
<title>public.checkup_package</title>
<polygon fill="#efefef" stroke="none" points="520.2,-636.4 520.2,-672 836.1,-672 836.1,-636.4 520.2,-636.4"/>
<polygon fill="none" stroke="black" points="520.2,-636.4 520.2,-672 836.1,-672 836.1,-636.4 520.2,-636.4"/>
<text text-anchor="start" x="527.2" y="-649.8" font-family="Arial Bold" font-size="18.00">public.checkup_package</text>
<text text-anchor="start" x="704.61" y="-649.8" font-family="Arial" font-size="14.00">    </text>
<text text-anchor="start" x="735.73" y="-649.8" font-family="Arial" font-size="14.00" fill="#666666">[BASE TABLE]</text>
<polygon fill="none" stroke="black" points="520.2,-605.6 520.2,-636.4 836.1,-636.4 836.1,-605.6 520.2,-605.6"/>
<text text-anchor="start" x="527.2" y="-617.8" font-family="Arial" font-size="14.00">checkup_id </text>
<text text-anchor="start" x="601.91" y="-617.8" font-family="Arial" font-size="14.00" fill="#666666">[bigint]</text>
<polygon fill="none" stroke="black" points="520.2,-574.8 520.2,-605.6 836.1,-605.6 836.1,-574.8 520.2,-574.8"/>
<text text-anchor="start" x="527.2" y="-587" font-family="Arial" font-size="14.00">package_id </text>
<text text-anchor="start" x="602.7" y="-587" font-family="Arial" font-size="14.00" fill="#666666">[bigint]</text>
</g>
<!-- public.checkup_package&#45;&gt;public.packages -->
<g id="edge5" class="edge">
<title>public.checkup_package:package_id&#45;&gt;public.packages:id</title>
<path fill="none" stroke="black" d="M847.31,-588.89C872.29,-581.7 866.77,-546.79 896.15,-531.6 978.71,-488.9 1031.36,-555.83 1102.15,-495.6 1157.97,-448.11 1082.89,-339.8 1156.18,-339.8"/>
<polygon fill="black" stroke="black" points="847.35,-588.88 836.86,-585.69 842.06,-589.56 837.77,-590.11 837.77,-590.11 837.77,-590.11 842.06,-589.56 838.01,-594.62 847.35,-588.88"/>
</g>
<!-- public.checkups -->
<g id="node7" class="node">
<title>public.checkups</title>
<polygon fill="#efefef" stroke="none" points="444.67,-416.8 444.67,-452.4 699.63,-452.4 699.63,-416.8 444.67,-416.8"/>
<polygon fill="none" stroke="black" points="444.67,-416.8 444.67,-452.4 699.63,-452.4 699.63,-416.8 444.67,-416.8"/>
<text text-anchor="start" x="451.67" y="-430.2" font-family="Arial Bold" font-size="18.00">public.checkups</text>
<text text-anchor="start" x="568.14" y="-430.2" font-family="Arial" font-size="14.00">    </text>
<text text-anchor="start" x="599.25" y="-430.2" font-family="Arial" font-size="14.00" fill="#666666">[BASE TABLE]</text>
<polygon fill="none" stroke="black" points="444.67,-386 444.67,-416.8 699.63,-416.8 699.63,-386 444.67,-386"/>
<text text-anchor="start" x="451.67" y="-398.2" font-family="Arial" font-size="14.00">id </text>
<text text-anchor="start" x="466.46" y="-398.2" font-family="Arial" font-size="14.00" fill="#666666">[bigint]</text>
<polygon fill="none" stroke="black" points="444.67,-355.2 444.67,-386 699.63,-386 699.63,-355.2 444.67,-355.2"/>
<text text-anchor="start" x="451.67" y="-367.4" font-family="Arial" font-size="14.00">patient_id </text>
<text text-anchor="start" x="516.28" y="-367.4" font-family="Arial" font-size="14.00" fill="#666666">[bigint]</text>
<polygon fill="none" stroke="black" points="444.67,-324.4 444.67,-355.2 699.63,-355.2 699.63,-324.4 444.67,-324.4"/>
<text text-anchor="start" x="451.67" y="-336.6" font-family="Arial" font-size="14.00">branch_id </text>
<text text-anchor="start" x="517.05" y="-336.6" font-family="Arial" font-size="14.00" fill="#666666">[bigint]</text>
<polygon fill="none" stroke="black" points="444.67,-293.6 444.67,-324.4 699.63,-324.4 699.63,-293.6 444.67,-293.6"/>
<text text-anchor="start" x="451.67" y="-305.8" font-family="Arial" font-size="14.00">created_by_user_id </text>
<text text-anchor="start" x="578.53" y="-305.8" font-family="Arial" font-size="14.00" fill="#666666">[bigint]</text>
<polygon fill="none" stroke="black" points="444.67,-262.8 444.67,-293.6 699.63,-293.6 699.63,-262.8 444.67,-262.8"/>
<text text-anchor="start" x="451.67" y="-275" font-family="Arial" font-size="14.00">company_lot_id </text>
<text text-anchor="start" x="553.62" y="-275" font-family="Arial" font-size="14.00" fill="#666666">[bigint]</text>
<polygon fill="none" stroke="black" points="444.67,-232 444.67,-262.8 699.63,-262.8 699.63,-232 444.67,-232"/>
<text text-anchor="start" x="451.67" y="-244.2" font-family="Arial" font-size="14.00">company_id </text>
<text text-anchor="start" x="531.05" y="-244.2" font-family="Arial" font-size="14.00" fill="#666666">[bigint]</text>
</g>
<!-- public.checkup_package&#45;&gt;public.checkups -->
<g id="edge6" class="edge">
<title>public.checkup_package:checkup_id&#45;&gt;public.checkups:id</title>
<path fill="none" stroke="black" d="M509.09,-619.4C482.56,-609.78 497.32,-559.21 520.2,-531.6 572.09,-468.97 647.75,-558.24 699.63,-495.6 726.33,-463.35 742.5,-401.4 700.63,-401.4"/>
<polygon fill="black" stroke="black" points="508.99,-619.38 518.16,-625.39 514.26,-620.22 518.54,-620.9 518.54,-620.9 518.54,-620.9 514.26,-620.22 519.57,-616.5 508.99,-619.38"/>
</g>
<!-- public.company_order_package -->
<g id="node8" class="node">
<title>public.company_order_package</title>
<polygon fill="#efefef" stroke="none" points="1363.7,-636.4 1363.7,-672 1732.6,-672 1732.6,-636.4 1363.7,-636.4"/>
<polygon fill="none" stroke="black" points="1363.7,-636.4 1363.7,-672 1732.6,-672 1732.6,-636.4 1363.7,-636.4"/>
<text text-anchor="start" x="1370.7" y="-649.8" font-family="Arial Bold" font-size="18.00">public.company_order_package</text>
<text text-anchor="start" x="1601.11" y="-649.8" font-family="Arial" font-size="14.00">    </text>
<text text-anchor="start" x="1632.22" y="-649.8" font-family="Arial" font-size="14.00" fill="#666666">[BASE TABLE]</text>
<polygon fill="none" stroke="black" points="1363.7,-605.6 1363.7,-636.4 1732.6,-636.4 1732.6,-605.6 1363.7,-605.6"/>
<text text-anchor="start" x="1370.7" y="-617.8" font-family="Arial" font-size="14.00">company_order_id </text>
<text text-anchor="start" x="1490.55" y="-617.8" font-family="Arial" font-size="14.00" fill="#666666">[bigint]</text>
<polygon fill="none" stroke="black" points="1363.7,-574.8 1363.7,-605.6 1732.6,-605.6 1732.6,-574.8 1363.7,-574.8"/>
<text text-anchor="start" x="1370.7" y="-587" font-family="Arial" font-size="14.00">package_id </text>
<text text-anchor="start" x="1446.21" y="-587" font-family="Arial" font-size="14.00" fill="#666666">[bigint]</text>
</g>
<!-- public.company_order_package&#45;&gt;public.packages -->
<g id="edge7" class="edge">
<title>public.company_order_package:package_id&#45;&gt;public.packages:id</title>
<path fill="none" stroke="black" d="M1352.85,-587.21C1343.67,-578.49 1358.61,-552.35 1363.7,-531.6 1374.92,-485.93 1400.06,-482.71 1411.12,-437 1421.28,-395.01 1455.32,-339.8 1412.12,-339.8"/>
<polygon fill="black" stroke="black" points="1352.81,-587.2 1361.08,-594.41 1357.92,-588.75 1362.06,-590.01 1362.06,-590.01 1362.06,-590.01 1357.92,-588.75 1363.69,-585.8 1352.81,-587.2"/>
</g>
<!-- public.company_orders -->
<g id="node9" class="node">
<title>public.company_orders</title>
<polygon fill="#efefef" stroke="none" points="1518.18,-416.8 1518.18,-452.4 1826.12,-452.4 1826.12,-416.8 1518.18,-416.8"/>
<polygon fill="none" stroke="black" points="1518.18,-416.8 1518.18,-452.4 1826.12,-452.4 1826.12,-416.8 1518.18,-416.8"/>
<text text-anchor="start" x="1525.18" y="-430.2" font-family="Arial Bold" font-size="18.00">public.company_orders</text>
<text text-anchor="start" x="1694.63" y="-430.2" font-family="Arial" font-size="14.00">    </text>
<text text-anchor="start" x="1725.75" y="-430.2" font-family="Arial" font-size="14.00" fill="#666666">[BASE TABLE]</text>
<polygon fill="none" stroke="black" points="1518.18,-386 1518.18,-416.8 1826.12,-416.8 1826.12,-386 1518.18,-386"/>
<text text-anchor="start" x="1525.18" y="-398.2" font-family="Arial" font-size="14.00">id </text>
<text text-anchor="start" x="1539.96" y="-398.2" font-family="Arial" font-size="14.00" fill="#666666">[bigint]</text>
<polygon fill="none" stroke="black" points="1518.18,-355.2 1518.18,-386 1826.12,-386 1826.12,-355.2 1518.18,-355.2"/>
<text text-anchor="start" x="1525.18" y="-367.4" font-family="Arial" font-size="14.00">company_patient_id </text>
<text text-anchor="start" x="1654.38" y="-367.4" font-family="Arial" font-size="14.00" fill="#666666">[bigint]</text>
<polygon fill="none" stroke="black" points="1518.18,-324.4 1518.18,-355.2 1826.12,-355.2 1826.12,-324.4 1518.18,-324.4"/>
<text text-anchor="start" x="1525.18" y="-336.6" font-family="Arial" font-size="14.00">company_id </text>
<text text-anchor="start" x="1604.56" y="-336.6" font-family="Arial" font-size="14.00" fill="#666666">[bigint]</text>
<polygon fill="none" stroke="black" points="1518.18,-293.6 1518.18,-324.4 1826.12,-324.4 1826.12,-293.6 1518.18,-293.6"/>
<text text-anchor="start" x="1525.18" y="-305.8" font-family="Arial" font-size="14.00">created_by_user_id </text>
<text text-anchor="start" x="1652.04" y="-305.8" font-family="Arial" font-size="14.00" fill="#666666">[bigint]</text>
<polygon fill="none" stroke="black" points="1518.18,-262.8 1518.18,-293.6 1826.12,-293.6 1826.12,-262.8 1518.18,-262.8"/>
<text text-anchor="start" x="1525.18" y="-275" font-family="Arial" font-size="14.00">diag_patient_booking_id </text>
<text text-anchor="start" x="1680.87" y="-275" font-family="Arial" font-size="14.00" fill="#666666">[bigint]</text>
<polygon fill="none" stroke="black" points="1518.18,-232 1518.18,-262.8 1826.12,-262.8 1826.12,-232 1518.18,-232"/>
<text text-anchor="start" x="1525.18" y="-244.2" font-family="Arial" font-size="14.00">patient_id </text>
<text text-anchor="start" x="1589.78" y="-244.2" font-family="Arial" font-size="14.00" fill="#666666">[bigint]</text>
</g>
<!-- public.company_order_package&#45;&gt;public.company_orders -->
<g id="edge8" class="edge">
<title>public.company_order_package:company_order_id&#45;&gt;public.company_orders:id</title>
<path fill="none" stroke="black" d="M1743.72,-619.39C1770.32,-609.71 1755.91,-558.84 1732.6,-531.6 1669.77,-458.18 1580.98,-569.04 1518.18,-495.6 1490.97,-463.78 1475.31,-401.4 1517.18,-401.4"/>
<polygon fill="black" stroke="black" points="1743.8,-619.37 1733.22,-616.5 1738.53,-620.21 1734.26,-620.89 1734.26,-620.89 1734.26,-620.89 1738.53,-620.21 1734.64,-625.39 1743.8,-619.37"/>
</g>
<!-- public.package_test_set -->
<g id="node10" class="node">
<title>public.package_test_set</title>
<polygon fill="#efefef" stroke="none" points="1839.19,-636.4 1839.19,-672 2149.11,-672 2149.11,-636.4 1839.19,-636.4"/>
<polygon fill="none" stroke="black" points="1839.19,-636.4 1839.19,-672 2149.11,-672 2149.11,-636.4 1839.19,-636.4"/>
<text text-anchor="start" x="1846.19" y="-649.8" font-family="Arial Bold" font-size="18.00">public.package_test_set</text>
<text text-anchor="start" x="2017.62" y="-649.8" font-family="Arial" font-size="14.00">    </text>
<text text-anchor="start" x="2048.74" y="-649.8" font-family="Arial" font-size="14.00" fill="#666666">[BASE TABLE]</text>
<polygon fill="none" stroke="black" points="1839.19,-605.6 1839.19,-636.4 2149.11,-636.4 2149.11,-605.6 1839.19,-605.6"/>
<text text-anchor="start" x="1846.19" y="-617.8" font-family="Arial" font-size="14.00">test_set_id </text>
<text text-anchor="start" x="1917.78" y="-617.8" font-family="Arial" font-size="14.00" fill="#666666">[bigint]</text>
<polygon fill="none" stroke="black" points="1839.19,-574.8 1839.19,-605.6 2149.11,-605.6 2149.11,-574.8 1839.19,-574.8"/>
<text text-anchor="start" x="1846.19" y="-587" font-family="Arial" font-size="14.00">package_id </text>
<text text-anchor="start" x="1921.69" y="-587" font-family="Arial" font-size="14.00" fill="#666666">[bigint]</text>
</g>
<!-- public.package_test_set&#45;&gt;public.packages -->
<g id="edge9" class="edge">
<title>public.package_test_set:package_id&#45;&gt;public.packages:id</title>
<path fill="none" stroke="black" d="M1827.98,-588.66C1805.51,-580.9 1812.87,-545.81 1785.15,-531.6 1658.19,-466.5 1577.57,-584.72 1466.15,-495.6 1408.92,-449.82 1485.41,-339.8 1412.12,-339.8"/>
<polygon fill="black" stroke="black" points="1827.97,-588.66 1837.18,-594.6 1833.24,-589.45 1837.52,-590.1 1837.52,-590.1 1837.52,-590.1 1833.24,-589.45 1838.53,-585.7 1827.97,-588.66"/>
</g>
<!-- public.test_sets -->
<g id="node11" class="node">
<title>public.test_sets</title>
<polygon fill="#efefef" stroke="none" points="1930.66,-355.2 1930.66,-390.8 2179.64,-390.8 2179.64,-355.2 1930.66,-355.2"/>
<polygon fill="none" stroke="black" points="1930.66,-355.2 1930.66,-390.8 2179.64,-390.8 2179.64,-355.2 1930.66,-355.2"/>
<text text-anchor="start" x="1937.66" y="-368.6" font-family="Arial Bold" font-size="18.00">public.test_sets</text>
<text text-anchor="start" x="2048.15" y="-368.6" font-family="Arial" font-size="14.00">    </text>
<text text-anchor="start" x="2079.27" y="-368.6" font-family="Arial" font-size="14.00" fill="#666666">[BASE TABLE]</text>
<polygon fill="none" stroke="black" points="1930.66,-324.4 1930.66,-355.2 2179.64,-355.2 2179.64,-324.4 1930.66,-324.4"/>
<text text-anchor="start" x="1937.66" y="-336.6" font-family="Arial" font-size="14.00">id </text>
<text text-anchor="start" x="1952.45" y="-336.6" font-family="Arial" font-size="14.00" fill="#666666">[bigint]</text>
<polygon fill="none" stroke="black" points="1930.66,-293.6 1930.66,-324.4 2179.64,-324.4 2179.64,-293.6 1930.66,-293.6"/>
<text text-anchor="start" x="1937.66" y="-305.8" font-family="Arial" font-size="14.00">created_by_user_id </text>
<text text-anchor="start" x="2064.52" y="-305.8" font-family="Arial" font-size="14.00" fill="#666666">[bigint]</text>
</g>
<!-- public.package_test_set&#45;&gt;public.test_sets -->
<g id="edge10" class="edge">
<title>public.package_test_set:test_set_id&#45;&gt;public.test_sets:id</title>
<path fill="none" stroke="black" d="M2160.13,-619.47C2186.13,-610.25 2168.79,-561.57 2149.11,-531.6 2090.76,-442.7 1988.99,-522.91 1930.66,-434 1907.69,-398.99 1887.79,-339.8 1929.66,-339.8"/>
<polygon fill="black" stroke="black" points="2160.33,-619.44 2149.76,-616.5 2155.06,-620.24 2150.78,-620.9 2150.78,-620.9 2150.78,-620.9 2155.06,-620.24 2151.13,-625.4 2160.33,-619.44"/>
</g>
<!-- public.category_package -->
<g id="node12" class="node">
<title>public.category_package</title>
<polygon fill="#efefef" stroke="none" points="2254.2,-636.4 2254.2,-672 2572.1,-672 2572.1,-636.4 2254.2,-636.4"/>
<polygon fill="none" stroke="black" points="2254.2,-636.4 2254.2,-672 2572.1,-672 2572.1,-636.4 2254.2,-636.4"/>
<text text-anchor="start" x="2261.2" y="-649.8" font-family="Arial Bold" font-size="18.00">public.category_package</text>
<text text-anchor="start" x="2440.61" y="-649.8" font-family="Arial" font-size="14.00">    </text>
<text text-anchor="start" x="2471.73" y="-649.8" font-family="Arial" font-size="14.00" fill="#666666">[BASE TABLE]</text>
<polygon fill="none" stroke="black" points="2254.2,-605.6 2254.2,-636.4 2572.1,-636.4 2572.1,-605.6 2254.2,-605.6"/>
<text text-anchor="start" x="2261.2" y="-617.8" font-family="Arial" font-size="14.00">package_id </text>
<text text-anchor="start" x="2336.7" y="-617.8" font-family="Arial" font-size="14.00" fill="#666666">[integer]</text>
<polygon fill="none" stroke="black" points="2254.2,-574.8 2254.2,-605.6 2572.1,-605.6 2572.1,-574.8 2254.2,-574.8"/>
<text text-anchor="start" x="2261.2" y="-587" font-family="Arial" font-size="14.00">category_id </text>
<text text-anchor="start" x="2337.47" y="-587" font-family="Arial" font-size="14.00" fill="#666666">[integer]</text>
</g>
<!-- public.category_package&#45;&gt;public.packages -->
<g id="edge11" class="edge">
<title>public.category_package:package_id&#45;&gt;public.packages:id</title>
<path fill="none" stroke="black" d="M2243,-619.62C2212.4,-610.05 2237.06,-553.43 2201.15,-531.6 2061.42,-446.65 1597.03,-593.65 1466.15,-495.6 1407.49,-451.66 1485.41,-339.8 1412.12,-339.8"/>
<polygon fill="black" stroke="black" points="2242.96,-619.61 2252.26,-625.41 2248.24,-620.33 2252.54,-620.91 2252.54,-620.91 2252.54,-620.91 2248.24,-620.33 2253.47,-616.5 2242.96,-619.61"/>
</g>
<!-- public.categories -->
<g id="node13" class="node">
<title>public.categories</title>
<polygon fill="#efefef" stroke="none" points="2283.68,-339.8 2283.68,-375.4 2544.62,-375.4 2544.62,-339.8 2283.68,-339.8"/>
<polygon fill="none" stroke="black" points="2283.68,-339.8 2283.68,-375.4 2544.62,-375.4 2544.62,-339.8 2283.68,-339.8"/>
<text text-anchor="start" x="2290.68" y="-353.2" font-family="Arial Bold" font-size="18.00">public.categories</text>
<text text-anchor="start" x="2413.13" y="-353.2" font-family="Arial" font-size="14.00">    </text>
<text text-anchor="start" x="2444.25" y="-353.2" font-family="Arial" font-size="14.00" fill="#666666">[BASE TABLE]</text>
<polygon fill="none" stroke="black" points="2283.68,-309 2283.68,-339.8 2544.62,-339.8 2544.62,-309 2283.68,-309"/>
<text text-anchor="start" x="2290.68" y="-321.2" font-family="Arial" font-size="14.00">id </text>
<text text-anchor="start" x="2305.47" y="-321.2" font-family="Arial" font-size="14.00" fill="#666666">[bigint]</text>
</g>
<!-- public.category_package&#45;&gt;public.categories -->
<g id="edge12" class="edge">
<title>public.category_package:category_id&#45;&gt;public.categories:id</title>
<path fill="none" stroke="black" d="M2413.63,-563.38C2422.33,-472.83 2546.76,-510 2587.82,-418.6 2607.78,-374.17 2622.16,-343.54 2587.82,-309 2533.4,-254.26 2414.15,-230.81 2414.15,-308"/>
<polygon fill="black" stroke="black" points="2413.63,-563.48 2408.67,-573.26 2413.38,-568.81 2413.18,-573.13 2413.18,-573.13 2413.18,-573.13 2413.38,-568.81 2417.66,-573.67 2413.63,-563.48"/>
</g>
</g>
</svg>
