<?xml version="1.0" encoding="UTF-8" standalone="no"?>
<!DOCTYPE svg PUBLIC "-//W3C//DTD SVG 1.1//EN"
 "http://www.w3.org/Graphics/SVG/1.1/DTD/svg11.dtd">
<!-- Generated by graphviz version 12.1.2 (20240928.0832)
 -->
<!-- Title: public.frequencies Pages: 1 -->
<svg width="740pt" height="846pt"
 viewBox="0.00 0.00 740.34 846.40" xmlns="http://www.w3.org/2000/svg" xmlns:xlink="http://www.w3.org/1999/xlink">
<g id="graph0" class="graph" transform="scale(1 1) rotate(0) translate(4 842.4)">
<title>public.frequencies</title>
<polygon fill="white" stroke="none" points="-4,4 -4,-842.4 736.34,-842.4 736.34,4 -4,4"/>
<!-- public.frequencies -->
<g id="node1" class="node">
<title>public.frequencies</title>
<polygon fill="#efefef" stroke="none" points="46.2,-181.8 46.2,-217.4 317.13,-217.4 317.13,-181.8 46.2,-181.8"/>
<polygon fill="none" stroke="black" points="46.2,-181.8 46.2,-217.4 317.13,-217.4 317.13,-181.8 46.2,-181.8"/>
<text text-anchor="start" x="53.2" y="-195.2" font-family="Arial Bold" font-size="18.00">public.frequencies</text>
<text text-anchor="start" x="185.64" y="-195.2" font-family="Arial" font-size="14.00">    </text>
<text text-anchor="start" x="216.76" y="-195.2" font-family="Arial" font-size="14.00" fill="#666666">[BASE TABLE]</text>
<polygon fill="none" stroke="black" points="46.2,-151 46.2,-181.8 317.13,-181.8 317.13,-151 46.2,-151"/>
<text text-anchor="start" x="53.2" y="-163.2" font-family="Arial" font-size="14.00">id </text>
<text text-anchor="start" x="67.99" y="-163.2" font-family="Arial" font-size="14.00" fill="#666666">[bigint]</text>
<polygon fill="none" stroke="black" stroke-width="3" points="44.7,-149.5 44.7,-218.9 318.63,-218.9 318.63,-149.5 44.7,-149.5"/>
</g>
<!-- public.departments -->
<g id="node2" class="node">
<title>public.departments</title>
<polygon fill="#efefef" stroke="none" points="230.69,-540 230.69,-575.6 506.64,-575.6 506.64,-540 230.69,-540"/>
<polygon fill="none" stroke="black" points="230.69,-540 230.69,-575.6 506.64,-575.6 506.64,-540 230.69,-540"/>
<text text-anchor="start" x="237.69" y="-553.4" font-family="Arial Bold" font-size="18.00">public.departments</text>
<text text-anchor="start" x="375.15" y="-553.4" font-family="Arial" font-size="14.00">    </text>
<text text-anchor="start" x="406.27" y="-553.4" font-family="Arial" font-size="14.00" fill="#666666">[BASE TABLE]</text>
<polygon fill="none" stroke="black" points="230.69,-509.2 230.69,-540 506.64,-540 506.64,-509.2 230.69,-509.2"/>
<text text-anchor="start" x="237.69" y="-521.4" font-family="Arial" font-size="14.00">id </text>
<text text-anchor="start" x="252.48" y="-521.4" font-family="Arial" font-size="14.00" fill="#666666">[bigint]</text>
<polygon fill="none" stroke="black" points="230.69,-478.4 230.69,-509.2 506.64,-509.2 506.64,-478.4 230.69,-478.4"/>
<text text-anchor="start" x="237.69" y="-490.6" font-family="Arial" font-size="14.00">company_id </text>
<text text-anchor="start" x="317.07" y="-490.6" font-family="Arial" font-size="14.00" fill="#666666">[bigint]</text>
<polygon fill="none" stroke="black" points="230.69,-447.6 230.69,-478.4 506.64,-478.4 506.64,-447.6 230.69,-447.6"/>
<text text-anchor="start" x="237.69" y="-459.8" font-family="Arial" font-size="14.00">frequency_id </text>
<text text-anchor="start" x="321.75" y="-459.8" font-family="Arial" font-size="14.00" fill="#666666">[bigint]</text>
</g>
<!-- public.departments&#45;&gt;public.frequencies -->
<g id="edge1" class="edge">
<title>public.departments:frequency_id&#45;&gt;public.frequencies:id</title>
<path fill="none" stroke="black" d="M219.75,-459.99C210.34,-451.2 224.71,-424.91 230.69,-404.4 251.25,-333.91 296.81,-334.16 317.13,-263.6 329.09,-222.09 361.33,-166.4 318.13,-166.4"/>
<polygon fill="black" stroke="black" points="219.8,-460.01 228.07,-467.21 224.91,-461.55 229.05,-462.81 229.05,-462.81 229.05,-462.81 224.91,-461.55 230.67,-458.6 219.8,-460.01"/>
</g>
<!-- public.companies -->
<g id="node4" class="node">
<title>public.companies</title>
<polygon fill="#efefef" stroke="none" points="424.19,-289.6 424.19,-325.2 689.14,-325.2 689.14,-289.6 424.19,-289.6"/>
<polygon fill="none" stroke="black" points="424.19,-289.6 424.19,-325.2 689.14,-325.2 689.14,-289.6 424.19,-289.6"/>
<text text-anchor="start" x="431.19" y="-303" font-family="Arial Bold" font-size="18.00">public.companies</text>
<text text-anchor="start" x="557.65" y="-303" font-family="Arial" font-size="14.00">    </text>
<text text-anchor="start" x="588.77" y="-303" font-family="Arial" font-size="14.00" fill="#666666">[BASE TABLE]</text>
<polygon fill="none" stroke="black" points="424.19,-258.8 424.19,-289.6 689.14,-289.6 689.14,-258.8 424.19,-258.8"/>
<text text-anchor="start" x="431.19" y="-271" font-family="Arial" font-size="14.00">id </text>
<text text-anchor="start" x="445.97" y="-271" font-family="Arial" font-size="14.00" fill="#666666">[bigint]</text>
<polygon fill="none" stroke="black" points="424.19,-228 424.19,-258.8 689.14,-258.8 689.14,-228 424.19,-228"/>
<text text-anchor="start" x="431.19" y="-240.2" font-family="Arial" font-size="14.00">branch_id </text>
<text text-anchor="start" x="496.57" y="-240.2" font-family="Arial" font-size="14.00" fill="#666666">[integer]</text>
<polygon fill="none" stroke="black" points="424.19,-197.2 424.19,-228 689.14,-228 689.14,-197.2 424.19,-197.2"/>
<text text-anchor="start" x="431.19" y="-209.4" font-family="Arial" font-size="14.00">logo_id </text>
<text text-anchor="start" x="480.23" y="-209.4" font-family="Arial" font-size="14.00" fill="#666666">[bigint]</text>
<polygon fill="none" stroke="black" points="424.19,-166.4 424.19,-197.2 689.14,-197.2 689.14,-166.4 424.19,-166.4"/>
<text text-anchor="start" x="431.19" y="-178.6" font-family="Arial" font-size="14.00">city_id </text>
<text text-anchor="start" x="474.76" y="-178.6" font-family="Arial" font-size="14.00" fill="#666666">[bigint]</text>
<polygon fill="none" stroke="black" points="424.19,-135.6 424.19,-166.4 689.14,-166.4 689.14,-135.6 424.19,-135.6"/>
<text text-anchor="start" x="431.19" y="-147.8" font-family="Arial" font-size="14.00">phone_number_id </text>
<text text-anchor="start" x="547.95" y="-147.8" font-family="Arial" font-size="14.00" fill="#666666">[bigint]</text>
<polygon fill="none" stroke="black" points="424.19,-104.8 424.19,-135.6 689.14,-135.6 689.14,-104.8 424.19,-104.8"/>
<text text-anchor="start" x="431.19" y="-117" font-family="Arial" font-size="14.00">created_by_user_id </text>
<text text-anchor="start" x="558.05" y="-117" font-family="Arial" font-size="14.00" fill="#666666">[integer]</text>
<polygon fill="none" stroke="black" points="424.19,-74 424.19,-104.8 689.14,-104.8 689.14,-74 424.19,-74"/>
<text text-anchor="start" x="431.19" y="-86.2" font-family="Arial" font-size="14.00">owned_by_user_id </text>
<text text-anchor="start" x="552.61" y="-86.2" font-family="Arial" font-size="14.00" fill="#666666">[integer]</text>
<polygon fill="none" stroke="black" points="424.19,-43.2 424.19,-74 689.14,-74 689.14,-43.2 424.19,-43.2"/>
<text text-anchor="start" x="431.19" y="-55.4" font-family="Arial" font-size="14.00">supervisor_user_id </text>
<text text-anchor="start" x="553.36" y="-55.4" font-family="Arial" font-size="14.00" fill="#666666">[bigint]</text>
</g>
<!-- public.departments&#45;&gt;public.companies -->
<g id="edge3" class="edge">
<title>public.departments:company_id&#45;&gt;public.companies:id</title>
<path fill="none" stroke="black" d="M517.66,-492.26C543.68,-483.03 526.44,-434.29 506.64,-404.4 484.56,-371.07 446.26,-401.74 424.19,-368.4 401.07,-333.49 381.32,-274.2 423.19,-274.2"/>
<polygon fill="black" stroke="black" points="517.86,-492.23 507.29,-489.3 512.58,-493.04 508.3,-493.7 508.3,-493.7 508.3,-493.7 512.58,-493.04 508.65,-498.2 517.86,-492.23"/>
</g>
<!-- public.department_service -->
<g id="node3" class="node">
<title>public.department_service</title>
<polygon fill="#efefef" stroke="none" points="204.21,-759.6 204.21,-795.2 533.12,-795.2 533.12,-759.6 204.21,-759.6"/>
<polygon fill="none" stroke="black" points="204.21,-759.6 204.21,-795.2 533.12,-795.2 533.12,-759.6 204.21,-759.6"/>
<text text-anchor="start" x="211.21" y="-773" font-family="Arial Bold" font-size="18.00">public.department_service</text>
<text text-anchor="start" x="401.63" y="-773" font-family="Arial" font-size="14.00">    </text>
<text text-anchor="start" x="432.75" y="-773" font-family="Arial" font-size="14.00" fill="#666666">[BASE TABLE]</text>
<polygon fill="none" stroke="black" points="204.21,-728.8 204.21,-759.6 533.12,-759.6 533.12,-728.8 204.21,-728.8"/>
<text text-anchor="start" x="211.21" y="-741" font-family="Arial" font-size="14.00">department_id </text>
<text text-anchor="start" x="304.6" y="-741" font-family="Arial" font-size="14.00" fill="#666666">[bigint]</text>
<polygon fill="none" stroke="black" points="204.21,-698 204.21,-728.8 533.12,-728.8 533.12,-698 204.21,-698"/>
<text text-anchor="start" x="211.21" y="-710.2" font-family="Arial" font-size="14.00">service_id </text>
<text text-anchor="start" x="278.13" y="-710.2" font-family="Arial" font-size="14.00" fill="#666666">[bigint]</text>
</g>
<!-- public.department_service&#45;&gt;public.departments -->
<g id="edge2" class="edge">
<title>public.department_service:department_id&#45;&gt;public.departments:id</title>
<path fill="none" stroke="black" d="M544.29,-743.36C630.42,-728.62 602.4,-524.6 507.64,-524.6"/>
<polygon fill="black" stroke="black" points="544.42,-743.35 534.09,-739.69 539.11,-743.79 534.79,-744.14 534.79,-744.14 534.79,-744.14 539.11,-743.79 534.83,-748.66 544.42,-743.35"/>
</g>
</g>
</svg>
