<?xml version="1.0" encoding="UTF-8" standalone="no"?>
<!DOCTYPE svg PUBLIC "-//W3C//DTD SVG 1.1//EN"
 "http://www.w3.org/Graphics/SVG/1.1/DTD/svg11.dtd">
<!-- Generated by graphviz version 12.1.2 (20240928.0832)
 -->
<!-- Title: public.contract_types Pages: 1 -->
<svg width="1079pt" height="812pt"
 viewBox="0.00 0.00 1078.86 811.60" xmlns="http://www.w3.org/2000/svg" xmlns:xlink="http://www.w3.org/1999/xlink">
<g id="graph0" class="graph" transform="scale(1 1) rotate(0) translate(4 807.6)">
<title>public.contract_types</title>
<polygon fill="white" stroke="none" points="-4,4 -4,-807.6 1074.86,-807.6 1074.86,4 -4,4"/>
<!-- public.contract_types -->
<g id="node1" class="node">
<title>public.contract_types</title>
<polygon fill="#efefef" stroke="none" points="402.7,-289.6 402.7,-325.2 695.64,-325.2 695.64,-289.6 402.7,-289.6"/>
<polygon fill="none" stroke="black" points="402.7,-289.6 402.7,-325.2 695.64,-325.2 695.64,-289.6 402.7,-289.6"/>
<text text-anchor="start" x="409.7" y="-303" font-family="Arial Bold" font-size="18.00">public.contract_types</text>
<text text-anchor="start" x="564.15" y="-303" font-family="Arial" font-size="14.00">    </text>
<text text-anchor="start" x="595.27" y="-303" font-family="Arial" font-size="14.00" fill="#666666">[BASE TABLE]</text>
<polygon fill="none" stroke="black" points="402.7,-258.8 402.7,-289.6 695.64,-289.6 695.64,-258.8 402.7,-258.8"/>
<text text-anchor="start" x="409.7" y="-271" font-family="Arial" font-size="14.00">id </text>
<text text-anchor="start" x="424.49" y="-271" font-family="Arial" font-size="14.00" fill="#666666">[bigint]</text>
<polygon fill="none" stroke="black" stroke-width="3" points="401.2,-257.3 401.2,-326.7 697.14,-326.7 697.14,-257.3 401.2,-257.3"/>
</g>
<!-- public.branch_contract_type -->
<g id="node2" class="node">
<title>public.branch_contract_type</title>
<polygon fill="#efefef" stroke="none" points="168.22,-724.8 168.22,-760.4 512.13,-760.4 512.13,-724.8 168.22,-724.8"/>
<polygon fill="none" stroke="black" points="168.22,-724.8 168.22,-760.4 512.13,-760.4 512.13,-724.8 168.22,-724.8"/>
<text text-anchor="start" x="175.22" y="-738.2" font-family="Arial Bold" font-size="18.00">public.branch_contract_type</text>
<text text-anchor="start" x="380.64" y="-738.2" font-family="Arial" font-size="14.00">    </text>
<text text-anchor="start" x="411.76" y="-738.2" font-family="Arial" font-size="14.00" fill="#666666">[BASE TABLE]</text>
<polygon fill="none" stroke="black" points="168.22,-694 168.22,-724.8 512.13,-724.8 512.13,-694 168.22,-694"/>
<text text-anchor="start" x="175.22" y="-706.2" font-family="Arial" font-size="14.00">branch_id </text>
<text text-anchor="start" x="240.6" y="-706.2" font-family="Arial" font-size="14.00" fill="#666666">[bigint]</text>
<polygon fill="none" stroke="black" points="168.22,-663.2 168.22,-694 512.13,-694 512.13,-663.2 168.22,-663.2"/>
<text text-anchor="start" x="175.22" y="-675.4" font-family="Arial" font-size="14.00">contract_type_id </text>
<text text-anchor="start" x="281.84" y="-675.4" font-family="Arial" font-size="14.00" fill="#666666">[bigint]</text>
</g>
<!-- public.branch_contract_type&#45;&gt;public.contract_types -->
<g id="edge1" class="edge">
<title>public.branch_contract_type:contract_type_id&#45;&gt;public.contract_types:id</title>
<path fill="none" stroke="black" d="M523.29,-678.14C680.9,-662.96 218.91,-274.2 401.7,-274.2"/>
<polygon fill="black" stroke="black" points="523.45,-678.14 513.26,-674.09 518.12,-678.38 513.8,-678.57 513.8,-678.57 513.8,-678.57 518.12,-678.38 513.66,-683.08 523.45,-678.14"/>
</g>
<!-- public.branches -->
<g id="node3" class="node">
<title>public.branches</title>
<polygon fill="#efefef" stroke="none" points="43.2,-305 43.2,-340.6 295.15,-340.6 295.15,-305 43.2,-305"/>
<polygon fill="none" stroke="black" points="43.2,-305 43.2,-340.6 295.15,-340.6 295.15,-305 43.2,-305"/>
<text text-anchor="start" x="50.2" y="-318.4" font-family="Arial Bold" font-size="18.00">public.branches</text>
<text text-anchor="start" x="163.66" y="-318.4" font-family="Arial" font-size="14.00">    </text>
<text text-anchor="start" x="194.78" y="-318.4" font-family="Arial" font-size="14.00" fill="#666666">[BASE TABLE]</text>
<polygon fill="none" stroke="black" points="43.2,-274.2 43.2,-305 295.15,-305 295.15,-274.2 43.2,-274.2"/>
<text text-anchor="start" x="50.2" y="-286.4" font-family="Arial" font-size="14.00">id </text>
<text text-anchor="start" x="64.99" y="-286.4" font-family="Arial" font-size="14.00" fill="#666666">[bigint]</text>
<polygon fill="none" stroke="black" points="43.2,-243.4 43.2,-274.2 295.15,-274.2 295.15,-243.4 43.2,-243.4"/>
<text text-anchor="start" x="50.2" y="-255.6" font-family="Arial" font-size="14.00">organization_id </text>
<text text-anchor="start" x="149.05" y="-255.6" font-family="Arial" font-size="14.00" fill="#666666">[bigint]</text>
</g>
<!-- public.branch_contract_type&#45;&gt;public.branches -->
<g id="edge2" class="edge">
<title>public.branch_contract_type:branch_id&#45;&gt;public.branches:id</title>
<path fill="none" stroke="black" d="M157.08,-708.97C-8.93,-693.97 487.7,-289.6 296.15,-289.6"/>
<polygon fill="black" stroke="black" points="156.89,-708.96 166.7,-713.88 162.22,-709.19 166.55,-709.37 166.55,-709.37 166.55,-709.37 162.22,-709.19 167.08,-704.89 156.89,-708.96"/>
</g>
<!-- public.contracts -->
<g id="node4" class="node">
<title>public.contracts</title>
<polygon fill="#efefef" stroke="none" points="702.7,-724.8 702.7,-760.4 955.65,-760.4 955.65,-724.8 702.7,-724.8"/>
<polygon fill="none" stroke="black" points="702.7,-724.8 702.7,-760.4 955.65,-760.4 955.65,-724.8 702.7,-724.8"/>
<text text-anchor="start" x="709.7" y="-738.2" font-family="Arial Bold" font-size="18.00">public.contracts</text>
<text text-anchor="start" x="824.16" y="-738.2" font-family="Arial" font-size="14.00">    </text>
<text text-anchor="start" x="855.28" y="-738.2" font-family="Arial" font-size="14.00" fill="#666666">[BASE TABLE]</text>
<polygon fill="none" stroke="black" points="702.7,-694 702.7,-724.8 955.65,-724.8 955.65,-694 702.7,-694"/>
<text text-anchor="start" x="709.7" y="-706.2" font-family="Arial" font-size="14.00">contract_type_id </text>
<text text-anchor="start" x="816.32" y="-706.2" font-family="Arial" font-size="14.00" fill="#666666">[bigint]</text>
<polygon fill="none" stroke="black" points="702.7,-663.2 702.7,-694 955.65,-694 955.65,-663.2 702.7,-663.2"/>
<text text-anchor="start" x="709.7" y="-675.4" font-family="Arial" font-size="14.00">user_id </text>
<text text-anchor="start" x="759.51" y="-675.4" font-family="Arial" font-size="14.00" fill="#666666">[bigint]</text>
</g>
<!-- public.contracts&#45;&gt;public.contract_types -->
<g id="edge3" class="edge">
<title>public.contracts:contract_type_id&#45;&gt;public.contract_types:id</title>
<path fill="none" stroke="black" d="M691.64,-707.46C619.26,-676.06 789.58,-274.2 696.64,-274.2"/>
<polygon fill="black" stroke="black" points="691.55,-707.44 700.52,-713.76 696.79,-708.45 701.04,-709.27 701.04,-709.27 701.04,-709.27 696.79,-708.45 702.22,-704.92 691.55,-707.44"/>
</g>
<!-- public.users -->
<g id="node5" class="node">
<title>public.users</title>
<polygon fill="#efefef" stroke="none" points="802.69,-505.2 802.69,-540.8 1027.66,-540.8 1027.66,-505.2 802.69,-505.2"/>
<polygon fill="none" stroke="black" points="802.69,-505.2 802.69,-540.8 1027.66,-540.8 1027.66,-505.2 802.69,-505.2"/>
<text text-anchor="start" x="809.69" y="-518.6" font-family="Arial Bold" font-size="18.00">public.users</text>
<text text-anchor="start" x="896.17" y="-518.6" font-family="Arial" font-size="14.00">    </text>
<text text-anchor="start" x="927.29" y="-518.6" font-family="Arial" font-size="14.00" fill="#666666">[BASE TABLE]</text>
<polygon fill="none" stroke="black" points="802.69,-474.4 802.69,-505.2 1027.66,-505.2 1027.66,-474.4 802.69,-474.4"/>
<text text-anchor="start" x="809.69" y="-486.6" font-family="Arial" font-size="14.00">id </text>
<text text-anchor="start" x="824.47" y="-486.6" font-family="Arial" font-size="14.00" fill="#666666">[bigint]</text>
<polygon fill="none" stroke="black" points="802.69,-443.6 802.69,-474.4 1027.66,-474.4 1027.66,-443.6 802.69,-443.6"/>
<text text-anchor="start" x="809.69" y="-455.8" font-family="Arial" font-size="14.00">email </text>
<text text-anchor="start" x="847.03" y="-455.8" font-family="Arial" font-size="14.00" fill="#666666">[varchar(255)]</text>
<polygon fill="none" stroke="black" points="802.69,-412.8 802.69,-443.6 1027.66,-443.6 1027.66,-412.8 802.69,-412.8"/>
<text text-anchor="start" x="809.69" y="-425" font-family="Arial" font-size="14.00">branch_id </text>
<text text-anchor="start" x="875.07" y="-425" font-family="Arial" font-size="14.00" fill="#666666">[bigint]</text>
<polygon fill="none" stroke="black" points="802.69,-382 802.69,-412.8 1027.66,-412.8 1027.66,-382 802.69,-382"/>
<text text-anchor="start" x="809.69" y="-394.2" font-family="Arial" font-size="14.00">sex_id </text>
<text text-anchor="start" x="854.05" y="-394.2" font-family="Arial" font-size="14.00" fill="#666666">[bigint]</text>
<polygon fill="none" stroke="black" points="802.69,-351.2 802.69,-382 1027.66,-382 1027.66,-351.2 802.69,-351.2"/>
<text text-anchor="start" x="809.69" y="-363.4" font-family="Arial" font-size="14.00">user_status_id </text>
<text text-anchor="start" x="904.63" y="-363.4" font-family="Arial" font-size="14.00" fill="#666666">[bigint]</text>
<polygon fill="none" stroke="black" points="802.69,-320.4 802.69,-351.2 1027.66,-351.2 1027.66,-320.4 802.69,-320.4"/>
<text text-anchor="start" x="809.69" y="-332.6" font-family="Arial" font-size="14.00">nationality_id </text>
<text text-anchor="start" x="895.3" y="-332.6" font-family="Arial" font-size="14.00" fill="#666666">[bigint]</text>
<polygon fill="none" stroke="black" points="802.69,-289.6 802.69,-320.4 1027.66,-320.4 1027.66,-289.6 802.69,-289.6"/>
<text text-anchor="start" x="809.69" y="-301.8" font-family="Arial" font-size="14.00">city_id </text>
<text text-anchor="start" x="853.26" y="-301.8" font-family="Arial" font-size="14.00" fill="#666666">[bigint]</text>
<polygon fill="none" stroke="black" points="802.69,-258.8 802.69,-289.6 1027.66,-289.6 1027.66,-258.8 802.69,-258.8"/>
<text text-anchor="start" x="809.69" y="-271" font-family="Arial" font-size="14.00">image_id </text>
<text text-anchor="start" x="870.39" y="-271" font-family="Arial" font-size="14.00" fill="#666666">[bigint]</text>
<polygon fill="none" stroke="black" points="802.69,-228 802.69,-258.8 1027.66,-258.8 1027.66,-228 802.69,-228"/>
<text text-anchor="start" x="809.69" y="-240.2" font-family="Arial" font-size="14.00">signature_image_id </text>
<text text-anchor="start" x="935.77" y="-240.2" font-family="Arial" font-size="14.00" fill="#666666">[bigint]</text>
<polygon fill="none" stroke="black" points="802.69,-197.2 802.69,-228 1027.66,-228 1027.66,-197.2 802.69,-197.2"/>
<text text-anchor="start" x="809.69" y="-209.4" font-family="Arial" font-size="14.00">position_id </text>
<text text-anchor="start" x="880.51" y="-209.4" font-family="Arial" font-size="14.00" fill="#666666">[bigint]</text>
<polygon fill="none" stroke="black" points="802.69,-166.4 802.69,-197.2 1027.66,-197.2 1027.66,-166.4 802.69,-166.4"/>
<text text-anchor="start" x="809.69" y="-178.6" font-family="Arial" font-size="14.00">mobile_number_id </text>
<text text-anchor="start" x="928.76" y="-178.6" font-family="Arial" font-size="14.00" fill="#666666">[bigint]</text>
<polygon fill="none" stroke="black" points="802.69,-135.6 802.69,-166.4 1027.66,-166.4 1027.66,-135.6 802.69,-135.6"/>
<text text-anchor="start" x="809.69" y="-147.8" font-family="Arial" font-size="14.00">home_number_id </text>
<text text-anchor="start" x="922.53" y="-147.8" font-family="Arial" font-size="14.00" fill="#666666">[bigint]</text>
<polygon fill="none" stroke="black" points="802.69,-104.8 802.69,-135.6 1027.66,-135.6 1027.66,-104.8 802.69,-104.8"/>
<text text-anchor="start" x="809.69" y="-117" font-family="Arial" font-size="14.00">bank_id </text>
<text text-anchor="start" x="862.62" y="-117" font-family="Arial" font-size="14.00" fill="#666666">[bigint]</text>
<polygon fill="none" stroke="black" points="802.69,-74 802.69,-104.8 1027.66,-104.8 1027.66,-74 802.69,-74"/>
<text text-anchor="start" x="809.69" y="-86.2" font-family="Arial" font-size="14.00">created_by_user_id </text>
<text text-anchor="start" x="936.55" y="-86.2" font-family="Arial" font-size="14.00" fill="#666666">[bigint]</text>
<polygon fill="none" stroke="black" points="802.69,-43.2 802.69,-74 1027.66,-74 1027.66,-43.2 802.69,-43.2"/>
<text text-anchor="start" x="809.69" y="-55.4" font-family="Arial" font-size="14.00">profile_status_id </text>
<text text-anchor="start" x="915.53" y="-55.4" font-family="Arial" font-size="14.00" fill="#666666">[bigint]</text>
</g>
<!-- public.contracts&#45;&gt;public.users -->
<g id="edge4" class="edge">
<title>public.contracts:user_id&#45;&gt;public.users:id</title>
<path fill="none" stroke="black" d="M828.58,-651.92C825.19,-624.1 808.22,-616.5 802.69,-584 795.66,-542.72 759.82,-489.8 801.69,-489.8"/>
<polygon fill="black" stroke="black" points="828.58,-651.88 824.66,-662.13 828.89,-657.21 829.14,-661.53 829.14,-661.53 829.14,-661.53 828.89,-657.21 833.65,-661.61 828.58,-651.88"/>
</g>
</g>
</svg>
