<?xml version="1.0" encoding="UTF-8" standalone="no"?>
<!DOCTYPE svg PUBLIC "-//W3C//DTD SVG 1.1//EN"
 "http://www.w3.org/Graphics/SVG/1.1/DTD/svg11.dtd">
<!-- Generated by graphviz version 12.1.2 (20240928.0832)
 -->
<!-- Title: public.consent_forms Pages: 1 -->
<svg width="1077pt" height="565pt"
 viewBox="0.00 0.00 1076.86 565.20" xmlns="http://www.w3.org/2000/svg" xmlns:xlink="http://www.w3.org/1999/xlink">
<g id="graph0" class="graph" transform="scale(1 1) rotate(0) translate(4 561.2)">
<title>public.consent_forms</title>
<polygon fill="white" stroke="none" points="-4,4 -4,-561.2 1072.86,-561.2 1072.86,4 -4,4"/>
<!-- public.consent_forms -->
<g id="node1" class="node">
<title>public.consent_forms</title>
<polygon fill="#efefef" stroke="none" points="46.2,-151 46.2,-186.6 340.16,-186.6 340.16,-151 46.2,-151"/>
<polygon fill="none" stroke="black" points="46.2,-151 46.2,-186.6 340.16,-186.6 340.16,-151 46.2,-151"/>
<text text-anchor="start" x="53.2" y="-164.4" font-family="Arial Bold" font-size="18.00">public.consent_forms</text>
<text text-anchor="start" x="208.67" y="-164.4" font-family="Arial" font-size="14.00">    </text>
<text text-anchor="start" x="239.79" y="-164.4" font-family="Arial" font-size="14.00" fill="#666666">[BASE TABLE]</text>
<polygon fill="none" stroke="black" points="46.2,-120.2 46.2,-151 340.16,-151 340.16,-120.2 46.2,-120.2"/>
<text text-anchor="start" x="53.2" y="-132.4" font-family="Arial" font-size="14.00">id </text>
<text text-anchor="start" x="67.99" y="-132.4" font-family="Arial" font-size="14.00" fill="#666666">[bigint]</text>
<polygon fill="none" stroke="black" stroke-width="3" points="44.7,-118.7 44.7,-188.1 341.66,-188.1 341.66,-118.7 44.7,-118.7"/>
</g>
<!-- public.checkup_consent_form -->
<g id="node2" class="node">
<title>public.checkup_consent_form</title>
<polygon fill="#efefef" stroke="none" points="397.22,-478.4 397.22,-514 753.14,-514 753.14,-478.4 397.22,-478.4"/>
<polygon fill="none" stroke="black" points="397.22,-478.4 397.22,-514 753.14,-514 753.14,-478.4 397.22,-478.4"/>
<text text-anchor="start" x="404.22" y="-491.8" font-family="Arial Bold" font-size="18.00">public.checkup_consent_form</text>
<text text-anchor="start" x="621.65" y="-491.8" font-family="Arial" font-size="14.00">    </text>
<text text-anchor="start" x="652.77" y="-491.8" font-family="Arial" font-size="14.00" fill="#666666">[BASE TABLE]</text>
<polygon fill="none" stroke="black" points="397.22,-447.6 397.22,-478.4 753.14,-478.4 753.14,-447.6 397.22,-447.6"/>
<text text-anchor="start" x="404.22" y="-459.8" font-family="Arial" font-size="14.00">checkup_id </text>
<text text-anchor="start" x="478.94" y="-459.8" font-family="Arial" font-size="14.00" fill="#666666">[bigint]</text>
<polygon fill="none" stroke="black" points="397.22,-416.8 397.22,-447.6 753.14,-447.6 753.14,-416.8 397.22,-416.8"/>
<text text-anchor="start" x="404.22" y="-429" font-family="Arial" font-size="14.00">pdf_file_id </text>
<text text-anchor="start" x="471.94" y="-429" font-family="Arial" font-size="14.00" fill="#666666">[bigint]</text>
<polygon fill="none" stroke="black" points="397.22,-386 397.22,-416.8 753.14,-416.8 753.14,-386 397.22,-386"/>
<text text-anchor="start" x="404.22" y="-398.2" font-family="Arial" font-size="14.00">consent_form_id </text>
<text text-anchor="start" x="511.61" y="-398.2" font-family="Arial" font-size="14.00" fill="#666666">[bigint]</text>
</g>
<!-- public.checkup_consent_form&#45;&gt;public.consent_forms -->
<g id="edge1" class="edge">
<title>public.checkup_consent_form:consent_form_id&#45;&gt;public.consent_forms:id</title>
<path fill="none" stroke="black" d="M386.09,-400.68C286.57,-385.55 458.15,-135.6 341.16,-135.6"/>
<polygon fill="black" stroke="black" points="385.91,-400.67 395.57,-405.87 391.23,-401.05 395.55,-401.35 395.55,-401.35 395.55,-401.35 391.23,-401.05 396.2,-396.89 385.91,-400.67"/>
</g>
<!-- public.checkups -->
<g id="node3" class="node">
<title>public.checkups</title>
<polygon fill="#efefef" stroke="none" points="447.7,-228 447.7,-263.6 702.66,-263.6 702.66,-228 447.7,-228"/>
<polygon fill="none" stroke="black" points="447.7,-228 447.7,-263.6 702.66,-263.6 702.66,-228 447.7,-228"/>
<text text-anchor="start" x="454.7" y="-241.4" font-family="Arial Bold" font-size="18.00">public.checkups</text>
<text text-anchor="start" x="571.17" y="-241.4" font-family="Arial" font-size="14.00">    </text>
<text text-anchor="start" x="602.28" y="-241.4" font-family="Arial" font-size="14.00" fill="#666666">[BASE TABLE]</text>
<polygon fill="none" stroke="black" points="447.7,-197.2 447.7,-228 702.66,-228 702.66,-197.2 447.7,-197.2"/>
<text text-anchor="start" x="454.7" y="-209.4" font-family="Arial" font-size="14.00">id </text>
<text text-anchor="start" x="469.49" y="-209.4" font-family="Arial" font-size="14.00" fill="#666666">[bigint]</text>
<polygon fill="none" stroke="black" points="447.7,-166.4 447.7,-197.2 702.66,-197.2 702.66,-166.4 447.7,-166.4"/>
<text text-anchor="start" x="454.7" y="-178.6" font-family="Arial" font-size="14.00">patient_id </text>
<text text-anchor="start" x="519.31" y="-178.6" font-family="Arial" font-size="14.00" fill="#666666">[bigint]</text>
<polygon fill="none" stroke="black" points="447.7,-135.6 447.7,-166.4 702.66,-166.4 702.66,-135.6 447.7,-135.6"/>
<text text-anchor="start" x="454.7" y="-147.8" font-family="Arial" font-size="14.00">branch_id </text>
<text text-anchor="start" x="520.08" y="-147.8" font-family="Arial" font-size="14.00" fill="#666666">[bigint]</text>
<polygon fill="none" stroke="black" points="447.7,-104.8 447.7,-135.6 702.66,-135.6 702.66,-104.8 447.7,-104.8"/>
<text text-anchor="start" x="454.7" y="-117" font-family="Arial" font-size="14.00">created_by_user_id </text>
<text text-anchor="start" x="581.56" y="-117" font-family="Arial" font-size="14.00" fill="#666666">[bigint]</text>
<polygon fill="none" stroke="black" points="447.7,-74 447.7,-104.8 702.66,-104.8 702.66,-74 447.7,-74"/>
<text text-anchor="start" x="454.7" y="-86.2" font-family="Arial" font-size="14.00">company_lot_id </text>
<text text-anchor="start" x="556.65" y="-86.2" font-family="Arial" font-size="14.00" fill="#666666">[bigint]</text>
<polygon fill="none" stroke="black" points="447.7,-43.2 447.7,-74 702.66,-74 702.66,-43.2 447.7,-43.2"/>
<text text-anchor="start" x="454.7" y="-55.4" font-family="Arial" font-size="14.00">company_id </text>
<text text-anchor="start" x="534.08" y="-55.4" font-family="Arial" font-size="14.00" fill="#666666">[bigint]</text>
</g>
<!-- public.checkup_consent_form&#45;&gt;public.checkups -->
<g id="edge2" class="edge">
<title>public.checkup_consent_form:checkup_id&#45;&gt;public.checkups:id</title>
<path fill="none" stroke="black" d="M764.47,-461.92C801.14,-453.04 762.28,-391.41 753.14,-342.8 741.71,-281.96 765.56,-212.6 703.66,-212.6"/>
<polygon fill="black" stroke="black" points="764.42,-461.92 754,-458.49 759.11,-462.48 754.81,-462.93 754.81,-462.93 754.81,-462.93 759.11,-462.48 754.94,-467.44 764.42,-461.92"/>
</g>
<!-- public.files -->
<g id="node4" class="node">
<title>public.files</title>
<polygon fill="#efefef" stroke="none" points="806.69,-151 806.69,-186.6 1025.66,-186.6 1025.66,-151 806.69,-151"/>
<polygon fill="none" stroke="black" points="806.69,-151 806.69,-186.6 1025.66,-186.6 1025.66,-151 806.69,-151"/>
<text text-anchor="start" x="813.69" y="-164.4" font-family="Arial Bold" font-size="18.00">public.files</text>
<text text-anchor="start" x="894.18" y="-164.4" font-family="Arial" font-size="14.00">    </text>
<text text-anchor="start" x="925.29" y="-164.4" font-family="Arial" font-size="14.00" fill="#666666">[BASE TABLE]</text>
<polygon fill="none" stroke="black" points="806.69,-120.2 806.69,-151 1025.66,-151 1025.66,-120.2 806.69,-120.2"/>
<text text-anchor="start" x="813.69" y="-132.4" font-family="Arial" font-size="14.00">id </text>
<text text-anchor="start" x="828.48" y="-132.4" font-family="Arial" font-size="14.00" fill="#666666">[bigint]</text>
</g>
<!-- public.checkup_consent_form&#45;&gt;public.files -->
<g id="edge3" class="edge">
<title>public.checkup_consent_form:pdf_file_id&#45;&gt;public.files:id</title>
<path fill="none" stroke="black" d="M764.35,-431.55C876.39,-416.2 675.55,-135.6 805.69,-135.6"/>
<polygon fill="black" stroke="black" points="764.45,-431.54 754.19,-427.69 759.13,-431.88 754.81,-432.16 754.81,-432.16 754.81,-432.16 759.13,-431.88 754.76,-436.67 764.45,-431.54"/>
</g>
</g>
</svg>
