<?xml version="1.0" encoding="UTF-8" standalone="no"?>
<!DOCTYPE svg PUBLIC "-//W3C//DTD SVG 1.1//EN"
 "http://www.w3.org/Graphics/SVG/1.1/DTD/svg11.dtd">
<!-- Generated by graphviz version 12.1.2 (20240928.0832)
 -->
<!-- Title: public.campaigns Pages: 1 -->
<svg width="779pt" height="596pt"
 viewBox="0.00 0.00 779.34 596.00" xmlns="http://www.w3.org/2000/svg" xmlns:xlink="http://www.w3.org/1999/xlink">
<g id="graph0" class="graph" transform="scale(1 1) rotate(0) translate(4 592)">
<title>public.campaigns</title>
<polygon fill="white" stroke="none" points="-4,4 -4,-592 775.34,-592 775.34,4 -4,4"/>
<!-- public.campaigns -->
<g id="node1" class="node">
<title>public.campaigns</title>
<polygon fill="#efefef" stroke="none" points="46.2,-181.8 46.2,-217.4 311.16,-217.4 311.16,-181.8 46.2,-181.8"/>
<polygon fill="none" stroke="black" points="46.2,-181.8 46.2,-217.4 311.16,-217.4 311.16,-181.8 46.2,-181.8"/>
<text text-anchor="start" x="53.2" y="-195.2" font-family="Arial Bold" font-size="18.00">public.campaigns</text>
<text text-anchor="start" x="179.67" y="-195.2" font-family="Arial" font-size="14.00">    </text>
<text text-anchor="start" x="210.78" y="-195.2" font-family="Arial" font-size="14.00" fill="#666666">[BASE TABLE]</text>
<polygon fill="none" stroke="black" points="46.2,-151 46.2,-181.8 311.16,-181.8 311.16,-151 46.2,-151"/>
<text text-anchor="start" x="53.2" y="-163.2" font-family="Arial" font-size="14.00">id </text>
<text text-anchor="start" x="67.99" y="-163.2" font-family="Arial" font-size="14.00" fill="#666666">[bigint]</text>
<polygon fill="none" stroke="black" stroke-width="3" points="44.7,-149.5 44.7,-218.9 312.66,-218.9 312.66,-149.5 44.7,-149.5"/>
</g>
<!-- public.rewards -->
<g id="node2" class="node">
<title>public.rewards</title>
<polygon fill="#efefef" stroke="none" points="46.2,-493.8 46.2,-529.4 291.15,-529.4 291.15,-493.8 46.2,-493.8"/>
<polygon fill="none" stroke="black" points="46.2,-493.8 46.2,-529.4 291.15,-529.4 291.15,-493.8 46.2,-493.8"/>
<text text-anchor="start" x="53.2" y="-507.2" font-family="Arial Bold" font-size="18.00">public.rewards</text>
<text text-anchor="start" x="159.66" y="-507.2" font-family="Arial" font-size="14.00">    </text>
<text text-anchor="start" x="190.78" y="-507.2" font-family="Arial" font-size="14.00" fill="#666666">[BASE TABLE]</text>
<polygon fill="none" stroke="black" points="46.2,-463 46.2,-493.8 291.15,-493.8 291.15,-463 46.2,-463"/>
<text text-anchor="start" x="53.2" y="-475.2" font-family="Arial" font-size="14.00">campaign_id </text>
<text text-anchor="start" x="136.48" y="-475.2" font-family="Arial" font-size="14.00" fill="#666666">[bigint]</text>
</g>
<!-- public.rewards&#45;&gt;public.campaigns -->
<g id="edge1" class="edge">
<title>public.rewards:campaign_id&#45;&gt;public.campaigns:id</title>
<path fill="none" stroke="black" d="M169.04,-451.7C177,-342.31 313.53,-373.29 357.36,-263.6 366.64,-240.36 375,-168.74 357.36,-151 301.36,-94.69 178.68,-70.59 178.68,-150"/>
<polygon fill="black" stroke="black" points="169.04,-451.67 164.19,-461.51 168.85,-457 168.7,-461.33 168.7,-461.33 168.7,-461.33 168.85,-457 173.19,-461.82 169.04,-451.67"/>
</g>
<!-- public.campaign_company -->
<g id="node3" class="node">
<title>public.campaign_company</title>
<polygon fill="#efefef" stroke="none" points="395.21,-509.2 395.21,-544.8 728.14,-544.8 728.14,-509.2 395.21,-509.2"/>
<polygon fill="none" stroke="black" points="395.21,-509.2 395.21,-544.8 728.14,-544.8 728.14,-509.2 395.21,-509.2"/>
<text text-anchor="start" x="402.21" y="-522.6" font-family="Arial Bold" font-size="18.00">public.campaign_company</text>
<text text-anchor="start" x="596.65" y="-522.6" font-family="Arial" font-size="14.00">    </text>
<text text-anchor="start" x="627.77" y="-522.6" font-family="Arial" font-size="14.00" fill="#666666">[BASE TABLE]</text>
<polygon fill="none" stroke="black" points="395.21,-478.4 395.21,-509.2 728.14,-509.2 728.14,-478.4 395.21,-478.4"/>
<text text-anchor="start" x="402.21" y="-490.6" font-family="Arial" font-size="14.00">campaign_id </text>
<text text-anchor="start" x="485.49" y="-490.6" font-family="Arial" font-size="14.00" fill="#666666">[bigint]</text>
<polygon fill="none" stroke="black" points="395.21,-447.6 395.21,-478.4 728.14,-478.4 728.14,-447.6 395.21,-447.6"/>
<text text-anchor="start" x="402.21" y="-459.8" font-family="Arial" font-size="14.00">company_id </text>
<text text-anchor="start" x="481.59" y="-459.8" font-family="Arial" font-size="14.00" fill="#666666">[bigint]</text>
</g>
<!-- public.campaign_company&#45;&gt;public.campaigns -->
<g id="edge2" class="edge">
<title>public.campaign_company:campaign_id&#45;&gt;public.campaigns:id</title>
<path fill="none" stroke="black" d="M384.21,-491.53C325.5,-462.61 383.5,-166.4 312.16,-166.4"/>
<polygon fill="black" stroke="black" points="384.13,-491.52 392.89,-498.11 389.34,-492.69 393.56,-493.65 393.56,-493.65 393.56,-493.65 389.34,-492.69 394.88,-489.34 384.13,-491.52"/>
</g>
<!-- public.companies -->
<g id="node4" class="node">
<title>public.companies</title>
<polygon fill="#efefef" stroke="none" points="429.2,-289.6 429.2,-325.2 694.16,-325.2 694.16,-289.6 429.2,-289.6"/>
<polygon fill="none" stroke="black" points="429.2,-289.6 429.2,-325.2 694.16,-325.2 694.16,-289.6 429.2,-289.6"/>
<text text-anchor="start" x="436.2" y="-303" font-family="Arial Bold" font-size="18.00">public.companies</text>
<text text-anchor="start" x="562.67" y="-303" font-family="Arial" font-size="14.00">    </text>
<text text-anchor="start" x="593.78" y="-303" font-family="Arial" font-size="14.00" fill="#666666">[BASE TABLE]</text>
<polygon fill="none" stroke="black" points="429.2,-258.8 429.2,-289.6 694.16,-289.6 694.16,-258.8 429.2,-258.8"/>
<text text-anchor="start" x="436.2" y="-271" font-family="Arial" font-size="14.00">id </text>
<text text-anchor="start" x="450.99" y="-271" font-family="Arial" font-size="14.00" fill="#666666">[bigint]</text>
<polygon fill="none" stroke="black" points="429.2,-228 429.2,-258.8 694.16,-258.8 694.16,-228 429.2,-228"/>
<text text-anchor="start" x="436.2" y="-240.2" font-family="Arial" font-size="14.00">branch_id </text>
<text text-anchor="start" x="501.58" y="-240.2" font-family="Arial" font-size="14.00" fill="#666666">[integer]</text>
<polygon fill="none" stroke="black" points="429.2,-197.2 429.2,-228 694.16,-228 694.16,-197.2 429.2,-197.2"/>
<text text-anchor="start" x="436.2" y="-209.4" font-family="Arial" font-size="14.00">logo_id </text>
<text text-anchor="start" x="485.24" y="-209.4" font-family="Arial" font-size="14.00" fill="#666666">[bigint]</text>
<polygon fill="none" stroke="black" points="429.2,-166.4 429.2,-197.2 694.16,-197.2 694.16,-166.4 429.2,-166.4"/>
<text text-anchor="start" x="436.2" y="-178.6" font-family="Arial" font-size="14.00">city_id </text>
<text text-anchor="start" x="479.77" y="-178.6" font-family="Arial" font-size="14.00" fill="#666666">[bigint]</text>
<polygon fill="none" stroke="black" points="429.2,-135.6 429.2,-166.4 694.16,-166.4 694.16,-135.6 429.2,-135.6"/>
<text text-anchor="start" x="436.2" y="-147.8" font-family="Arial" font-size="14.00">phone_number_id </text>
<text text-anchor="start" x="552.96" y="-147.8" font-family="Arial" font-size="14.00" fill="#666666">[bigint]</text>
<polygon fill="none" stroke="black" points="429.2,-104.8 429.2,-135.6 694.16,-135.6 694.16,-104.8 429.2,-104.8"/>
<text text-anchor="start" x="436.2" y="-117" font-family="Arial" font-size="14.00">created_by_user_id </text>
<text text-anchor="start" x="563.06" y="-117" font-family="Arial" font-size="14.00" fill="#666666">[integer]</text>
<polygon fill="none" stroke="black" points="429.2,-74 429.2,-104.8 694.16,-104.8 694.16,-74 429.2,-74"/>
<text text-anchor="start" x="436.2" y="-86.2" font-family="Arial" font-size="14.00">owned_by_user_id </text>
<text text-anchor="start" x="557.62" y="-86.2" font-family="Arial" font-size="14.00" fill="#666666">[integer]</text>
<polygon fill="none" stroke="black" points="429.2,-43.2 429.2,-74 694.16,-74 694.16,-43.2 429.2,-43.2"/>
<text text-anchor="start" x="436.2" y="-55.4" font-family="Arial" font-size="14.00">supervisor_user_id </text>
<text text-anchor="start" x="558.37" y="-55.4" font-family="Arial" font-size="14.00" fill="#666666">[bigint]</text>
</g>
<!-- public.campaign_company&#45;&gt;public.companies -->
<g id="edge3" class="edge">
<title>public.campaign_company:company_id&#45;&gt;public.companies:id</title>
<path fill="none" stroke="black" d="M562.53,-436.4C572.23,-383.3 661.81,-424.36 694.16,-368.4 715.11,-332.15 737.02,-274.2 695.16,-274.2"/>
<polygon fill="black" stroke="black" points="562.54,-436.3 557.22,-445.89 562.1,-441.62 561.73,-445.93 561.73,-445.93 561.73,-445.93 562.1,-441.62 566.19,-446.64 562.54,-436.3"/>
</g>
</g>
</svg>
