<?xml version="1.0" encoding="UTF-8" standalone="no"?>
<!DOCTYPE svg PUBLIC "-//W3C//DTD SVG 1.1//EN"
 "http://www.w3.org/Graphics/SVG/1.1/DTD/svg11.dtd">
<!-- Generated by graphviz version 12.1.2 (20240928.0832)
 -->
<!-- Title: public.notification_settings Pages: 1 -->
<svg width="764pt" height="812pt"
 viewBox="0.00 0.00 764.37 811.60" xmlns="http://www.w3.org/2000/svg" xmlns:xlink="http://www.w3.org/1999/xlink">
<g id="graph0" class="graph" transform="scale(1 1) rotate(0) translate(4 807.6)">
<title>public.notification_settings</title>
<polygon fill="white" stroke="none" points="-4,4 -4,-807.6 760.37,-807.6 760.37,4 -4,4"/>
<!-- public.notification_settings -->
<g id="node1" class="node">
<title>public.notification_settings</title>
<polygon fill="#efefef" stroke="none" points="46.2,-289.6 46.2,-325.2 381.16,-325.2 381.16,-289.6 46.2,-289.6"/>
<polygon fill="none" stroke="black" points="46.2,-289.6 46.2,-325.2 381.16,-325.2 381.16,-289.6 46.2,-289.6"/>
<text text-anchor="start" x="53.2" y="-303" font-family="Arial Bold" font-size="18.00">public.notification_settings</text>
<text text-anchor="start" x="249.67" y="-303" font-family="Arial" font-size="14.00">    </text>
<text text-anchor="start" x="280.79" y="-303" font-family="Arial" font-size="14.00" fill="#666666">[BASE TABLE]</text>
<polygon fill="none" stroke="black" points="46.2,-258.8 46.2,-289.6 381.16,-289.6 381.16,-258.8 46.2,-258.8"/>
<text text-anchor="start" x="53.2" y="-271" font-family="Arial" font-size="14.00">id </text>
<text text-anchor="start" x="67.99" y="-271" font-family="Arial" font-size="14.00" fill="#666666">[bigint]</text>
<polygon fill="none" stroke="black" stroke-width="3" points="44.7,-257.3 44.7,-326.7 382.66,-326.7 382.66,-257.3 44.7,-257.3"/>
</g>
<!-- public.notification_setting_user -->
<g id="node2" class="node">
<title>public.notification_setting_user</title>
<polygon fill="#efefef" stroke="none" points="223.21,-724.8 223.21,-760.4 590.15,-760.4 590.15,-724.8 223.21,-724.8"/>
<polygon fill="none" stroke="black" points="223.21,-724.8 223.21,-760.4 590.15,-760.4 590.15,-724.8 223.21,-724.8"/>
<text text-anchor="start" x="230.21" y="-738.2" font-family="Arial Bold" font-size="18.00">public.notification_setting_user</text>
<text text-anchor="start" x="458.66" y="-738.2" font-family="Arial" font-size="14.00">    </text>
<text text-anchor="start" x="489.78" y="-738.2" font-family="Arial" font-size="14.00" fill="#666666">[BASE TABLE]</text>
<polygon fill="none" stroke="black" points="223.21,-694 223.21,-724.8 590.15,-724.8 590.15,-694 223.21,-694"/>
<text text-anchor="start" x="230.21" y="-706.2" font-family="Arial" font-size="14.00">user_id </text>
<text text-anchor="start" x="280.01" y="-706.2" font-family="Arial" font-size="14.00" fill="#666666">[bigint]</text>
<polygon fill="none" stroke="black" points="223.21,-663.2 223.21,-694 590.15,-694 590.15,-663.2 223.21,-663.2"/>
<text text-anchor="start" x="230.21" y="-675.4" font-family="Arial" font-size="14.00">notification_setting_id </text>
<text text-anchor="start" x="368.75" y="-675.4" font-family="Arial" font-size="14.00" fill="#666666">[bigint]</text>
</g>
<!-- public.notification_setting_user&#45;&gt;public.notification_settings -->
<g id="edge1" class="edge">
<title>public.notification_setting_user:notification_setting_id&#45;&gt;public.notification_settings:id</title>
<path fill="none" stroke="black" d="M212.2,-678.19C48.95,-663.73 571.86,-274.2 382.16,-274.2"/>
<polygon fill="black" stroke="black" points="211.88,-678.17 221.69,-683.08 217.21,-678.39 221.54,-678.57 221.54,-678.57 221.54,-678.57 217.21,-678.39 222.06,-674.09 211.88,-678.17"/>
</g>
<!-- public.users -->
<g id="node3" class="node">
<title>public.users</title>
<polygon fill="#efefef" stroke="none" points="488.19,-505.2 488.19,-540.8 713.17,-540.8 713.17,-505.2 488.19,-505.2"/>
<polygon fill="none" stroke="black" points="488.19,-505.2 488.19,-540.8 713.17,-540.8 713.17,-505.2 488.19,-505.2"/>
<text text-anchor="start" x="495.19" y="-518.6" font-family="Arial Bold" font-size="18.00">public.users</text>
<text text-anchor="start" x="581.68" y="-518.6" font-family="Arial" font-size="14.00">    </text>
<text text-anchor="start" x="612.79" y="-518.6" font-family="Arial" font-size="14.00" fill="#666666">[BASE TABLE]</text>
<polygon fill="none" stroke="black" points="488.19,-474.4 488.19,-505.2 713.17,-505.2 713.17,-474.4 488.19,-474.4"/>
<text text-anchor="start" x="495.19" y="-486.6" font-family="Arial" font-size="14.00">id </text>
<text text-anchor="start" x="509.98" y="-486.6" font-family="Arial" font-size="14.00" fill="#666666">[bigint]</text>
<polygon fill="none" stroke="black" points="488.19,-443.6 488.19,-474.4 713.17,-474.4 713.17,-443.6 488.19,-443.6"/>
<text text-anchor="start" x="495.19" y="-455.8" font-family="Arial" font-size="14.00">email </text>
<text text-anchor="start" x="532.54" y="-455.8" font-family="Arial" font-size="14.00" fill="#666666">[varchar(255)]</text>
<polygon fill="none" stroke="black" points="488.19,-412.8 488.19,-443.6 713.17,-443.6 713.17,-412.8 488.19,-412.8"/>
<text text-anchor="start" x="495.19" y="-425" font-family="Arial" font-size="14.00">branch_id </text>
<text text-anchor="start" x="560.57" y="-425" font-family="Arial" font-size="14.00" fill="#666666">[bigint]</text>
<polygon fill="none" stroke="black" points="488.19,-382 488.19,-412.8 713.17,-412.8 713.17,-382 488.19,-382"/>
<text text-anchor="start" x="495.19" y="-394.2" font-family="Arial" font-size="14.00">sex_id </text>
<text text-anchor="start" x="539.55" y="-394.2" font-family="Arial" font-size="14.00" fill="#666666">[bigint]</text>
<polygon fill="none" stroke="black" points="488.19,-351.2 488.19,-382 713.17,-382 713.17,-351.2 488.19,-351.2"/>
<text text-anchor="start" x="495.19" y="-363.4" font-family="Arial" font-size="14.00">user_status_id </text>
<text text-anchor="start" x="590.14" y="-363.4" font-family="Arial" font-size="14.00" fill="#666666">[bigint]</text>
<polygon fill="none" stroke="black" points="488.19,-320.4 488.19,-351.2 713.17,-351.2 713.17,-320.4 488.19,-320.4"/>
<text text-anchor="start" x="495.19" y="-332.6" font-family="Arial" font-size="14.00">nationality_id </text>
<text text-anchor="start" x="580.81" y="-332.6" font-family="Arial" font-size="14.00" fill="#666666">[bigint]</text>
<polygon fill="none" stroke="black" points="488.19,-289.6 488.19,-320.4 713.17,-320.4 713.17,-289.6 488.19,-289.6"/>
<text text-anchor="start" x="495.19" y="-301.8" font-family="Arial" font-size="14.00">city_id </text>
<text text-anchor="start" x="538.77" y="-301.8" font-family="Arial" font-size="14.00" fill="#666666">[bigint]</text>
<polygon fill="none" stroke="black" points="488.19,-258.8 488.19,-289.6 713.17,-289.6 713.17,-258.8 488.19,-258.8"/>
<text text-anchor="start" x="495.19" y="-271" font-family="Arial" font-size="14.00">image_id </text>
<text text-anchor="start" x="555.9" y="-271" font-family="Arial" font-size="14.00" fill="#666666">[bigint]</text>
<polygon fill="none" stroke="black" points="488.19,-228 488.19,-258.8 713.17,-258.8 713.17,-228 488.19,-228"/>
<text text-anchor="start" x="495.19" y="-240.2" font-family="Arial" font-size="14.00">signature_image_id </text>
<text text-anchor="start" x="621.28" y="-240.2" font-family="Arial" font-size="14.00" fill="#666666">[bigint]</text>
<polygon fill="none" stroke="black" points="488.19,-197.2 488.19,-228 713.17,-228 713.17,-197.2 488.19,-197.2"/>
<text text-anchor="start" x="495.19" y="-209.4" font-family="Arial" font-size="14.00">position_id </text>
<text text-anchor="start" x="566.02" y="-209.4" font-family="Arial" font-size="14.00" fill="#666666">[bigint]</text>
<polygon fill="none" stroke="black" points="488.19,-166.4 488.19,-197.2 713.17,-197.2 713.17,-166.4 488.19,-166.4"/>
<text text-anchor="start" x="495.19" y="-178.6" font-family="Arial" font-size="14.00">mobile_number_id </text>
<text text-anchor="start" x="614.26" y="-178.6" font-family="Arial" font-size="14.00" fill="#666666">[bigint]</text>
<polygon fill="none" stroke="black" points="488.19,-135.6 488.19,-166.4 713.17,-166.4 713.17,-135.6 488.19,-135.6"/>
<text text-anchor="start" x="495.19" y="-147.8" font-family="Arial" font-size="14.00">home_number_id </text>
<text text-anchor="start" x="608.04" y="-147.8" font-family="Arial" font-size="14.00" fill="#666666">[bigint]</text>
<polygon fill="none" stroke="black" points="488.19,-104.8 488.19,-135.6 713.17,-135.6 713.17,-104.8 488.19,-104.8"/>
<text text-anchor="start" x="495.19" y="-117" font-family="Arial" font-size="14.00">bank_id </text>
<text text-anchor="start" x="548.12" y="-117" font-family="Arial" font-size="14.00" fill="#666666">[bigint]</text>
<polygon fill="none" stroke="black" points="488.19,-74 488.19,-104.8 713.17,-104.8 713.17,-74 488.19,-74"/>
<text text-anchor="start" x="495.19" y="-86.2" font-family="Arial" font-size="14.00">created_by_user_id </text>
<text text-anchor="start" x="622.05" y="-86.2" font-family="Arial" font-size="14.00" fill="#666666">[bigint]</text>
<polygon fill="none" stroke="black" points="488.19,-43.2 488.19,-74 713.17,-74 713.17,-43.2 488.19,-43.2"/>
<text text-anchor="start" x="495.19" y="-55.4" font-family="Arial" font-size="14.00">profile_status_id </text>
<text text-anchor="start" x="601.03" y="-55.4" font-family="Arial" font-size="14.00" fill="#666666">[bigint]</text>
</g>
<!-- public.notification_setting_user&#45;&gt;public.users -->
<g id="edge2" class="edge">
<title>public.notification_setting_user:user_id&#45;&gt;public.users:id</title>
<path fill="none" stroke="black" d="M601.2,-707.84C627.4,-698.49 611.02,-649.16 590.15,-620 562.18,-580.92 516.15,-623.08 488.19,-584 463.83,-549.95 445.32,-489.8 487.19,-489.8"/>
<polygon fill="black" stroke="black" points="601.36,-707.82 590.79,-704.9 596.09,-708.63 591.81,-709.3 591.81,-709.3 591.81,-709.3 596.09,-708.63 592.17,-713.8 601.36,-707.82"/>
</g>
</g>
</svg>
