<?xml version="1.0" encoding="UTF-8" standalone="no"?>
<!DOCTYPE svg PUBLIC "-//W3C//DTD SVG 1.1//EN"
 "http://www.w3.org/Graphics/SVG/1.1/DTD/svg11.dtd">
<!-- Generated by graphviz version 12.1.2 (20240928.0832)
 -->
<!-- Title: public.model_has_permissions Pages: 1 -->
<svg width="910pt" height="380pt"
 viewBox="0.00 0.00 909.86 380.40" xmlns="http://www.w3.org/2000/svg" xmlns:xlink="http://www.w3.org/1999/xlink">
<g id="graph0" class="graph" transform="scale(1 1) rotate(0) translate(4 376.4)">
<title>public.model_has_permissions</title>
<polygon fill="white" stroke="none" points="-4,4 -4,-376.4 905.86,-376.4 905.86,4 -4,4"/>
<!-- public.model_has_permissions -->
<g id="node1" class="node">
<title>public.model_has_permissions</title>
<polygon fill="#efefef" stroke="none" points="46.2,-278.2 46.2,-313.8 407.17,-313.8 407.17,-278.2 46.2,-278.2"/>
<polygon fill="none" stroke="black" points="46.2,-278.2 46.2,-313.8 407.17,-313.8 407.17,-278.2 46.2,-278.2"/>
<text text-anchor="start" x="53.2" y="-291.6" font-family="Arial Bold" font-size="18.00">public.model_has_permissions</text>
<text text-anchor="start" x="275.68" y="-291.6" font-family="Arial" font-size="14.00">    </text>
<text text-anchor="start" x="306.79" y="-291.6" font-family="Arial" font-size="14.00" fill="#666666">[BASE TABLE]</text>
<polygon fill="none" stroke="black" points="46.2,-247.4 46.2,-278.2 407.17,-278.2 407.17,-247.4 46.2,-247.4"/>
<text text-anchor="start" x="53.2" y="-259.6" font-family="Arial" font-size="14.00">permission_id </text>
<text text-anchor="start" x="143.46" y="-259.6" font-family="Arial" font-size="14.00" fill="#666666">[bigint]</text>
<polygon fill="none" stroke="black" stroke-width="3" points="44.7,-245.9 44.7,-315.3 408.67,-315.3 408.67,-245.9 44.7,-245.9"/>
</g>
<!-- public.permissions -->
<g id="node2" class="node">
<title>public.permissions</title>
<polygon fill="#efefef" stroke="none" points="319.69,-74 319.69,-109.6 593.67,-109.6 593.67,-74 319.69,-74"/>
<polygon fill="none" stroke="black" points="319.69,-74 319.69,-109.6 593.67,-109.6 593.67,-74 319.69,-74"/>
<text text-anchor="start" x="326.69" y="-87.4" font-family="Arial Bold" font-size="18.00">public.permissions</text>
<text text-anchor="start" x="462.18" y="-87.4" font-family="Arial" font-size="14.00">    </text>
<text text-anchor="start" x="493.3" y="-87.4" font-family="Arial" font-size="14.00" fill="#666666">[BASE TABLE]</text>
<polygon fill="none" stroke="black" points="319.69,-43.2 319.69,-74 593.67,-74 593.67,-43.2 319.69,-43.2"/>
<text text-anchor="start" x="326.69" y="-55.4" font-family="Arial" font-size="14.00">id </text>
<text text-anchor="start" x="341.48" y="-55.4" font-family="Arial" font-size="14.00" fill="#666666">[bigint]</text>
</g>
<!-- public.model_has_permissions&#45;&gt;public.permissions -->
<g id="edge1" class="edge">
<title>public.model_has_permissions:permission_id&#45;&gt;public.permissions:id</title>
<path fill="none" stroke="black" d="M418.11,-260.21C431.09,-251.24 419.06,-221.01 407.17,-201.2 384.29,-163.11 342.46,-190.95 319.69,-152.8 298.24,-116.85 276.82,-58.6 318.69,-58.6"/>
<polygon fill="black" stroke="black" points="418.17,-260.19 407.36,-258.36 413.01,-261.54 408.81,-262.63 408.81,-262.63 408.81,-262.63 413.01,-261.54 409.63,-267.07 418.17,-260.19"/>
</g>
<!-- public.role_has_permissions -->
<g id="node3" class="node">
<title>public.role_has_permissions</title>
<polygon fill="#efefef" stroke="none" points="514.7,-293.6 514.7,-329.2 858.66,-329.2 858.66,-293.6 514.7,-293.6"/>
<polygon fill="none" stroke="black" points="514.7,-293.6 514.7,-329.2 858.66,-329.2 858.66,-293.6 514.7,-293.6"/>
<text text-anchor="start" x="521.7" y="-307" font-family="Arial Bold" font-size="18.00">public.role_has_permissions</text>
<text text-anchor="start" x="727.17" y="-307" font-family="Arial" font-size="14.00">    </text>
<text text-anchor="start" x="758.29" y="-307" font-family="Arial" font-size="14.00" fill="#666666">[BASE TABLE]</text>
<polygon fill="none" stroke="black" points="514.7,-262.8 514.7,-293.6 858.66,-293.6 858.66,-262.8 514.7,-262.8"/>
<text text-anchor="start" x="521.7" y="-275" font-family="Arial" font-size="14.00">permission_id </text>
<text text-anchor="start" x="611.97" y="-275" font-family="Arial" font-size="14.00" fill="#666666">[bigint]</text>
<polygon fill="none" stroke="black" points="514.7,-232 514.7,-262.8 858.66,-262.8 858.66,-232 514.7,-232"/>
<text text-anchor="start" x="521.7" y="-244.2" font-family="Arial" font-size="14.00">role_id </text>
<text text-anchor="start" x="567.62" y="-244.2" font-family="Arial" font-size="14.00" fill="#666666">[bigint]</text>
</g>
<!-- public.role_has_permissions&#45;&gt;public.permissions -->
<g id="edge2" class="edge">
<title>public.role_has_permissions:permission_id&#45;&gt;public.permissions:id</title>
<path fill="none" stroke="black" d="M503.69,-276.67C477.71,-267.46 495.14,-218.85 514.7,-188.8 535.75,-156.47 572.64,-185.13 593.67,-152.8 616.51,-117.71 636.54,-58.6 594.67,-58.6"/>
<polygon fill="black" stroke="black" points="503.49,-276.64 512.69,-282.6 508.76,-277.44 513.04,-278.1 513.04,-278.1 513.04,-278.1 508.76,-277.44 514.05,-273.7 503.49,-276.64"/>
</g>
</g>
</svg>
