<?xml version="1.0" encoding="UTF-8" standalone="no"?>
<!DOCTYPE svg PUBLIC "-//W3C//DTD SVG 1.1//EN"
 "http://www.w3.org/Graphics/SVG/1.1/DTD/svg11.dtd">
<!-- Generated by graphviz version 12.1.2 (20240928.0832)
 -->
<!-- Title: public.package_service_group Pages: 1 -->
<svg width="5461pt" height="623pt"
 viewBox="0.00 0.00 5461.31 623.35" xmlns="http://www.w3.org/2000/svg" xmlns:xlink="http://www.w3.org/1999/xlink">
<g id="graph0" class="graph" transform="scale(1 1) rotate(0) translate(4 619.35)">
<title>public.package_service_group</title>
<polygon fill="white" stroke="none" points="-4,4 -4,-619.35 5457.31,-619.35 5457.31,4 -4,4"/>
<!-- public.package_service_group -->
<g id="node1" class="node">
<title>public.package_service_group</title>
<polygon fill="#efefef" stroke="none" points="2187.7,-533.55 2187.7,-569.15 2545.6,-569.15 2545.6,-533.55 2187.7,-533.55"/>
<polygon fill="none" stroke="black" points="2187.7,-533.55 2187.7,-569.15 2545.6,-569.15 2545.6,-533.55 2187.7,-533.55"/>
<text text-anchor="start" x="2194.7" y="-546.95" font-family="Arial Bold" font-size="18.00">public.package_service_group</text>
<text text-anchor="start" x="2414.11" y="-546.95" font-family="Arial" font-size="14.00">    </text>
<text text-anchor="start" x="2445.23" y="-546.95" font-family="Arial" font-size="14.00" fill="#666666">[BASE TABLE]</text>
<polygon fill="none" stroke="black" points="2187.7,-502.75 2187.7,-533.55 2545.6,-533.55 2545.6,-502.75 2187.7,-502.75"/>
<text text-anchor="start" x="2194.7" y="-514.95" font-family="Arial" font-size="14.00">package_id </text>
<text text-anchor="start" x="2270.21" y="-514.95" font-family="Arial" font-size="14.00" fill="#666666">[bigint]</text>
<polygon fill="none" stroke="black" points="2187.7,-471.95 2187.7,-502.75 2545.6,-502.75 2545.6,-471.95 2187.7,-471.95"/>
<text text-anchor="start" x="2194.7" y="-484.15" font-family="Arial" font-size="14.00">service_group_id </text>
<text text-anchor="start" x="2305.21" y="-484.15" font-family="Arial" font-size="14.00" fill="#666666">[bigint]</text>
<polygon fill="none" stroke="black" stroke-width="3" points="2186.2,-470.45 2186.2,-570.65 2547.1,-570.65 2547.1,-470.45 2186.2,-470.45"/>
</g>
<!-- public.packages -->
<g id="node2" class="node">
<title>public.packages</title>
<polygon fill="#efefef" stroke="none" points="1154.68,-310.95 1154.68,-346.55 1408.62,-346.55 1408.62,-310.95 1154.68,-310.95"/>
<polygon fill="none" stroke="black" points="1154.68,-310.95 1154.68,-346.55 1408.62,-346.55 1408.62,-310.95 1154.68,-310.95"/>
<text text-anchor="start" x="1161.68" y="-324.35" font-family="Arial Bold" font-size="18.00">public.packages</text>
<text text-anchor="start" x="1277.13" y="-324.35" font-family="Arial" font-size="14.00">    </text>
<text text-anchor="start" x="1308.25" y="-324.35" font-family="Arial" font-size="14.00" fill="#666666">[BASE TABLE]</text>
<polygon fill="none" stroke="black" points="1154.68,-280.15 1154.68,-310.95 1408.62,-310.95 1408.62,-280.15 1154.68,-280.15"/>
<text text-anchor="start" x="1161.68" y="-292.35" font-family="Arial" font-size="14.00">id </text>
<text text-anchor="start" x="1176.47" y="-292.35" font-family="Arial" font-size="14.00" fill="#666666">[bigint]</text>
<polygon fill="none" stroke="black" points="1154.68,-249.35 1154.68,-280.15 1408.62,-280.15 1408.62,-249.35 1154.68,-249.35"/>
<text text-anchor="start" x="1161.68" y="-261.55" font-family="Arial" font-size="14.00">attune_department_id </text>
<text text-anchor="start" x="1301.78" y="-261.55" font-family="Arial" font-size="14.00" fill="#666666">[bigint]</text>
</g>
<!-- public.package_service_group&#45;&gt;public.packages -->
<g id="edge1" class="edge">
<title>public.package_service_group:package_id&#45;&gt;public.packages:id</title>
<path fill="none" stroke="black" d="M2176.53,-516.89C2143.98,-507.71 2168.45,-450.76 2132.65,-425.75 1998.82,-332.24 1572.88,-295.55 1409.62,-295.55"/>
<polygon fill="black" stroke="black" points="2176.45,-516.88 2185.82,-522.57 2181.74,-517.53 2186.04,-518.06 2186.04,-518.06 2186.04,-518.06 2181.74,-517.53 2186.92,-513.64 2176.45,-516.88"/>
</g>
<!-- public.service_groups -->
<g id="node9" class="node">
<title>public.service_groups</title>
<polygon fill="#efefef" stroke="none" points="3401.18,-295.55 3401.18,-331.15 3698.13,-331.15 3698.13,-295.55 3401.18,-295.55"/>
<polygon fill="none" stroke="black" points="3401.18,-295.55 3401.18,-331.15 3698.13,-331.15 3698.13,-295.55 3401.18,-295.55"/>
<text text-anchor="start" x="3408.18" y="-308.95" font-family="Arial Bold" font-size="18.00">public.service_groups</text>
<text text-anchor="start" x="3566.64" y="-308.95" font-family="Arial" font-size="14.00">    </text>
<text text-anchor="start" x="3597.75" y="-308.95" font-family="Arial" font-size="14.00" fill="#666666">[BASE TABLE]</text>
<polygon fill="none" stroke="black" points="3401.18,-264.75 3401.18,-295.55 3698.13,-295.55 3698.13,-264.75 3401.18,-264.75"/>
<text text-anchor="start" x="3408.18" y="-276.95" font-family="Arial" font-size="14.00">id </text>
<text text-anchor="start" x="3422.97" y="-276.95" font-family="Arial" font-size="14.00" fill="#666666">[bigint]</text>
</g>
<!-- public.package_service_group&#45;&gt;public.service_groups -->
<g id="edge8" class="edge">
<title>public.package_service_group:service_group_id&#45;&gt;public.service_groups:id</title>
<path fill="none" stroke="black" d="M2556.87,-485.87C2580.5,-478.11 2572.43,-441.73 2600.65,-425.75 2757.79,-336.74 3219.58,-280.15 3400.18,-280.15"/>
<polygon fill="black" stroke="black" points="2556.83,-485.88 2546.29,-482.84 2551.55,-486.63 2547.26,-487.25 2547.26,-487.25 2547.26,-487.25 2551.55,-486.63 2547.57,-491.75 2556.83,-485.88"/>
</g>
<!-- public.attune_departments -->
<g id="node8" class="node">
<title>public.attune_departments</title>
<polygon fill="#efefef" stroke="none" points="1117.19,-91.35 1117.19,-126.95 1446.12,-126.95 1446.12,-91.35 1117.19,-91.35"/>
<polygon fill="none" stroke="black" points="1117.19,-91.35 1117.19,-126.95 1446.12,-126.95 1446.12,-91.35 1117.19,-91.35"/>
<text text-anchor="start" x="1124.19" y="-104.75" font-family="Arial Bold" font-size="18.00">public.attune_departments</text>
<text text-anchor="start" x="1314.63" y="-104.75" font-family="Arial" font-size="14.00">    </text>
<text text-anchor="start" x="1345.75" y="-104.75" font-family="Arial" font-size="14.00" fill="#666666">[BASE TABLE]</text>
<polygon fill="none" stroke="black" points="1117.19,-60.55 1117.19,-91.35 1446.12,-91.35 1446.12,-60.55 1117.19,-60.55"/>
<text text-anchor="start" x="1124.19" y="-72.75" font-family="Arial" font-size="14.00">id </text>
<text text-anchor="start" x="1138.97" y="-72.75" font-family="Arial" font-size="14.00" fill="#666666">[bigint]</text>
</g>
<!-- public.packages&#45;&gt;public.attune_departments -->
<g id="edge7" class="edge">
<title>public.packages:attune_department_id&#45;&gt;public.attune_departments:id</title>
<path fill="none" stroke="black" d="M1282.27,-238.17C1292.77,-157.01 1435.28,-248.24 1489.32,-170.15 1517.04,-130.09 1523.68,-95.07 1489.32,-60.55 1424.21,4.87 1281.65,32.75 1281.65,-59.55"/>
<polygon fill="black" stroke="black" points="1282.27,-238.03 1277.18,-247.74 1281.95,-243.36 1281.69,-247.68 1281.69,-247.68 1281.69,-247.68 1281.95,-243.36 1286.16,-248.28 1282.27,-238.03"/>
</g>
<!-- public.package_service -->
<g id="node3" class="node">
<title>public.package_service</title>
<polygon fill="#efefef" stroke="none" points="43.2,-533.55 43.2,-569.15 350.11,-569.15 350.11,-533.55 43.2,-533.55"/>
<polygon fill="none" stroke="black" points="43.2,-533.55 43.2,-569.15 350.11,-569.15 350.11,-533.55 43.2,-533.55"/>
<text text-anchor="start" x="50.2" y="-546.95" font-family="Arial Bold" font-size="18.00">public.package_service</text>
<text text-anchor="start" x="218.62" y="-546.95" font-family="Arial" font-size="14.00">    </text>
<text text-anchor="start" x="249.73" y="-546.95" font-family="Arial" font-size="14.00" fill="#666666">[BASE TABLE]</text>
<polygon fill="none" stroke="black" points="43.2,-502.75 43.2,-533.55 350.11,-533.55 350.11,-502.75 43.2,-502.75"/>
<text text-anchor="start" x="50.2" y="-514.95" font-family="Arial" font-size="14.00">package_id </text>
<text text-anchor="start" x="125.7" y="-514.95" font-family="Arial" font-size="14.00" fill="#666666">[bigint]</text>
<polygon fill="none" stroke="black" points="43.2,-471.95 43.2,-502.75 350.11,-502.75 350.11,-471.95 43.2,-471.95"/>
<text text-anchor="start" x="50.2" y="-484.15" font-family="Arial" font-size="14.00">service_id </text>
<text text-anchor="start" x="117.12" y="-484.15" font-family="Arial" font-size="14.00" fill="#666666">[bigint]</text>
</g>
<!-- public.package_service&#45;&gt;public.packages -->
<g id="edge2" class="edge">
<title>public.package_service:package_id&#45;&gt;public.packages:id</title>
<path fill="none" stroke="black" d="M361.13,-516.89C393.06,-507.71 367.44,-450.72 402.65,-425.75 540.83,-327.77 984.3,-295.55 1153.68,-295.55"/>
<polygon fill="black" stroke="black" points="361.36,-516.86 350.88,-513.64 356.07,-517.52 351.77,-518.06 351.77,-518.06 351.77,-518.06 356.07,-517.52 352,-522.57 361.36,-516.86"/>
</g>
<!-- public.checkup_package -->
<g id="node4" class="node">
<title>public.checkup_package</title>
<polygon fill="#efefef" stroke="none" points="454.7,-533.55 454.7,-569.15 770.61,-569.15 770.61,-533.55 454.7,-533.55"/>
<polygon fill="none" stroke="black" points="454.7,-533.55 454.7,-569.15 770.61,-569.15 770.61,-533.55 454.7,-533.55"/>
<text text-anchor="start" x="461.7" y="-546.95" font-family="Arial Bold" font-size="18.00">public.checkup_package</text>
<text text-anchor="start" x="639.12" y="-546.95" font-family="Arial" font-size="14.00">    </text>
<text text-anchor="start" x="670.23" y="-546.95" font-family="Arial" font-size="14.00" fill="#666666">[BASE TABLE]</text>
<polygon fill="none" stroke="black" points="454.7,-502.75 454.7,-533.55 770.61,-533.55 770.61,-502.75 454.7,-502.75"/>
<text text-anchor="start" x="461.7" y="-514.95" font-family="Arial" font-size="14.00">checkup_id </text>
<text text-anchor="start" x="536.42" y="-514.95" font-family="Arial" font-size="14.00" fill="#666666">[bigint]</text>
<polygon fill="none" stroke="black" points="454.7,-471.95 454.7,-502.75 770.61,-502.75 770.61,-471.95 454.7,-471.95"/>
<text text-anchor="start" x="461.7" y="-484.15" font-family="Arial" font-size="14.00">package_id </text>
<text text-anchor="start" x="537.2" y="-484.15" font-family="Arial" font-size="14.00" fill="#666666">[bigint]</text>
</g>
<!-- public.checkup_package&#45;&gt;public.packages -->
<g id="edge3" class="edge">
<title>public.checkup_package:package_id&#45;&gt;public.packages:id</title>
<path fill="none" stroke="black" d="M781.94,-485.87C804.69,-478.37 797.12,-444.24 822.65,-425.75 950.7,-333.02 995.59,-295.55 1153.68,-295.55"/>
<polygon fill="black" stroke="black" points="781.84,-485.88 771.3,-482.84 776.55,-486.64 772.27,-487.25 772.27,-487.25 772.27,-487.25 776.55,-486.64 772.57,-491.75 781.84,-485.88"/>
</g>
<!-- public.company_order_package -->
<g id="node5" class="node">
<title>public.company_order_package</title>
<polygon fill="#efefef" stroke="none" points="875.21,-533.55 875.21,-569.15 1244.1,-569.15 1244.1,-533.55 875.21,-533.55"/>
<polygon fill="none" stroke="black" points="875.21,-533.55 875.21,-569.15 1244.1,-569.15 1244.1,-533.55 875.21,-533.55"/>
<text text-anchor="start" x="882.21" y="-546.95" font-family="Arial Bold" font-size="18.00">public.company_order_package</text>
<text text-anchor="start" x="1112.61" y="-546.95" font-family="Arial" font-size="14.00">    </text>
<text text-anchor="start" x="1143.73" y="-546.95" font-family="Arial" font-size="14.00" fill="#666666">[BASE TABLE]</text>
<polygon fill="none" stroke="black" points="875.21,-502.75 875.21,-533.55 1244.1,-533.55 1244.1,-502.75 875.21,-502.75"/>
<text text-anchor="start" x="882.21" y="-514.95" font-family="Arial" font-size="14.00">company_order_id </text>
<text text-anchor="start" x="1002.05" y="-514.95" font-family="Arial" font-size="14.00" fill="#666666">[bigint]</text>
<polygon fill="none" stroke="black" points="875.21,-471.95 875.21,-502.75 1244.1,-502.75 1244.1,-471.95 875.21,-471.95"/>
<text text-anchor="start" x="882.21" y="-484.15" font-family="Arial" font-size="14.00">package_id </text>
<text text-anchor="start" x="957.71" y="-484.15" font-family="Arial" font-size="14.00" fill="#666666">[bigint]</text>
</g>
<!-- public.company_order_package&#45;&gt;public.packages -->
<g id="edge4" class="edge">
<title>public.company_order_package:package_id&#45;&gt;public.packages:id</title>
<path fill="none" stroke="black" d="M1254.96,-484.59C1266.97,-475.64 1256.18,-446.86 1244.1,-428.75 1220.04,-392.68 1178.63,-425.89 1154.68,-389.75 1131.56,-354.84 1111.81,-295.55 1153.68,-295.55"/>
<polygon fill="black" stroke="black" points="1255.05,-484.57 1244.21,-482.92 1249.92,-486 1245.74,-487.17 1245.74,-487.17 1245.74,-487.17 1249.92,-486 1246.63,-491.59 1255.05,-484.57"/>
</g>
<!-- public.package_test_set -->
<g id="node6" class="node">
<title>public.package_test_set</title>
<polygon fill="#efefef" stroke="none" points="1348.69,-533.55 1348.69,-569.15 1658.62,-569.15 1658.62,-533.55 1348.69,-533.55"/>
<polygon fill="none" stroke="black" points="1348.69,-533.55 1348.69,-569.15 1658.62,-569.15 1658.62,-533.55 1348.69,-533.55"/>
<text text-anchor="start" x="1355.69" y="-546.95" font-family="Arial Bold" font-size="18.00">public.package_test_set</text>
<text text-anchor="start" x="1527.13" y="-546.95" font-family="Arial" font-size="14.00">    </text>
<text text-anchor="start" x="1558.24" y="-546.95" font-family="Arial" font-size="14.00" fill="#666666">[BASE TABLE]</text>
<polygon fill="none" stroke="black" points="1348.69,-502.75 1348.69,-533.55 1658.62,-533.55 1658.62,-502.75 1348.69,-502.75"/>
<text text-anchor="start" x="1355.69" y="-514.95" font-family="Arial" font-size="14.00">test_set_id </text>
<text text-anchor="start" x="1427.29" y="-514.95" font-family="Arial" font-size="14.00" fill="#666666">[bigint]</text>
<polygon fill="none" stroke="black" points="1348.69,-471.95 1348.69,-502.75 1658.62,-502.75 1658.62,-471.95 1348.69,-471.95"/>
<text text-anchor="start" x="1355.69" y="-484.15" font-family="Arial" font-size="14.00">package_id </text>
<text text-anchor="start" x="1431.19" y="-484.15" font-family="Arial" font-size="14.00" fill="#666666">[bigint]</text>
</g>
<!-- public.package_test_set&#45;&gt;public.packages -->
<g id="edge5" class="edge">
<title>public.package_test_set:package_id&#45;&gt;public.packages:id</title>
<path fill="none" stroke="black" d="M1337.95,-484.67C1326.33,-475.95 1338.14,-447.8 1348.69,-428.75 1364.08,-400.94 1393.32,-417.6 1408.62,-389.75 1428.78,-353.05 1451.49,-295.55 1409.62,-295.55"/>
<polygon fill="black" stroke="black" points="1337.72,-484.61 1346.17,-491.6 1342.87,-486.02 1347.04,-487.17 1347.04,-487.17 1347.04,-487.17 1342.87,-486.02 1348.56,-482.92 1337.72,-484.61"/>
</g>
<!-- public.category_package -->
<g id="node7" class="node">
<title>public.category_package</title>
<polygon fill="#efefef" stroke="none" points="1762.7,-533.55 1762.7,-569.15 2080.6,-569.15 2080.6,-533.55 1762.7,-533.55"/>
<polygon fill="none" stroke="black" points="1762.7,-533.55 1762.7,-569.15 2080.6,-569.15 2080.6,-533.55 1762.7,-533.55"/>
<text text-anchor="start" x="1769.7" y="-546.95" font-family="Arial Bold" font-size="18.00">public.category_package</text>
<text text-anchor="start" x="1949.11" y="-546.95" font-family="Arial" font-size="14.00">    </text>
<text text-anchor="start" x="1980.23" y="-546.95" font-family="Arial" font-size="14.00" fill="#666666">[BASE TABLE]</text>
<polygon fill="none" stroke="black" points="1762.7,-502.75 1762.7,-533.55 2080.6,-533.55 2080.6,-502.75 1762.7,-502.75"/>
<text text-anchor="start" x="1769.7" y="-514.95" font-family="Arial" font-size="14.00">package_id </text>
<text text-anchor="start" x="1845.21" y="-514.95" font-family="Arial" font-size="14.00" fill="#666666">[integer]</text>
<polygon fill="none" stroke="black" points="1762.7,-471.95 1762.7,-502.75 2080.6,-502.75 2080.6,-471.95 1762.7,-471.95"/>
<text text-anchor="start" x="1769.7" y="-484.15" font-family="Arial" font-size="14.00">category_id </text>
<text text-anchor="start" x="1845.97" y="-484.15" font-family="Arial" font-size="14.00" fill="#666666">[integer]</text>
</g>
<!-- public.category_package&#45;&gt;public.packages -->
<g id="edge6" class="edge">
<title>public.category_package:package_id&#45;&gt;public.packages:id</title>
<path fill="none" stroke="black" d="M1751.64,-516.97C1719.37,-508.36 1742.54,-454.7 1710.65,-425.75 1602.73,-327.77 1555.39,-295.55 1409.62,-295.55"/>
<polygon fill="black" stroke="black" points="1751.44,-516.94 1760.85,-522.58 1756.74,-517.56 1761.04,-518.07 1761.04,-518.07 1761.04,-518.07 1756.74,-517.56 1761.89,-513.64 1751.44,-516.94"/>
</g>
<!-- public.service_service_group -->
<g id="node10" class="node">
<title>public.service_service_group</title>
<polygon fill="#efefef" stroke="none" points="2652.7,-533.55 2652.7,-569.15 3002.61,-569.15 3002.61,-533.55 2652.7,-533.55"/>
<polygon fill="none" stroke="black" points="2652.7,-533.55 2652.7,-569.15 3002.61,-569.15 3002.61,-533.55 2652.7,-533.55"/>
<text text-anchor="start" x="2659.7" y="-546.95" font-family="Arial Bold" font-size="18.00">public.service_service_group</text>
<text text-anchor="start" x="2871.12" y="-546.95" font-family="Arial" font-size="14.00">    </text>
<text text-anchor="start" x="2902.24" y="-546.95" font-family="Arial" font-size="14.00" fill="#666666">[BASE TABLE]</text>
<polygon fill="none" stroke="black" points="2652.7,-502.75 2652.7,-533.55 3002.61,-533.55 3002.61,-502.75 2652.7,-502.75"/>
<text text-anchor="start" x="2659.7" y="-514.95" font-family="Arial" font-size="14.00">service_id </text>
<text text-anchor="start" x="2726.61" y="-514.95" font-family="Arial" font-size="14.00" fill="#666666">[bigint]</text>
<polygon fill="none" stroke="black" points="2652.7,-471.95 2652.7,-502.75 3002.61,-502.75 3002.61,-471.95 2652.7,-471.95"/>
<text text-anchor="start" x="2659.7" y="-484.15" font-family="Arial" font-size="14.00">service_group_id </text>
<text text-anchor="start" x="2770.21" y="-484.15" font-family="Arial" font-size="14.00" fill="#666666">[bigint]</text>
</g>
<!-- public.service_service_group&#45;&gt;public.service_groups -->
<g id="edge9" class="edge">
<title>public.service_service_group:service_group_id&#45;&gt;public.service_groups:id</title>
<path fill="none" stroke="black" d="M3013.65,-485.97C3036.81,-478.74 3029.23,-444.63 3054.65,-425.75 3188.44,-326.39 3233.53,-280.15 3400.18,-280.15"/>
<polygon fill="black" stroke="black" points="3013.85,-485.95 3003.33,-482.84 3008.56,-486.67 3004.27,-487.26 3004.27,-487.26 3004.27,-487.26 3008.56,-486.67 3004.55,-491.76 3013.85,-485.95"/>
</g>
<!-- public.service_group_service_group -->
<g id="node11" class="node">
<title>public.service_group_service_group</title>
<polygon fill="#efefef" stroke="none" points="3107.2,-533.55 3107.2,-569.15 3508.1,-569.15 3508.1,-533.55 3107.2,-533.55"/>
<polygon fill="none" stroke="black" points="3107.2,-533.55 3107.2,-569.15 3508.1,-569.15 3508.1,-533.55 3107.2,-533.55"/>
<text text-anchor="start" x="3114.2" y="-546.95" font-family="Arial Bold" font-size="18.00">public.service_group_service_group</text>
<text text-anchor="start" x="3376.62" y="-546.95" font-family="Arial" font-size="14.00">    </text>
<text text-anchor="start" x="3407.73" y="-546.95" font-family="Arial" font-size="14.00" fill="#666666">[BASE TABLE]</text>
<polygon fill="none" stroke="black" points="3107.2,-502.75 3107.2,-533.55 3508.1,-533.55 3508.1,-502.75 3107.2,-502.75"/>
<text text-anchor="start" x="3114.2" y="-514.95" font-family="Arial" font-size="14.00">parent_id </text>
<text text-anchor="start" x="3176.47" y="-514.95" font-family="Arial" font-size="14.00" fill="#666666">[bigint]</text>
<polygon fill="none" stroke="black" points="3107.2,-471.95 3107.2,-502.75 3508.1,-502.75 3508.1,-471.95 3107.2,-471.95"/>
<text text-anchor="start" x="3114.2" y="-484.15" font-family="Arial" font-size="14.00">child_id </text>
<text text-anchor="start" x="3165.57" y="-484.15" font-family="Arial" font-size="14.00" fill="#666666">[bigint]</text>
</g>
<!-- public.service_group_service_group&#45;&gt;public.service_groups -->
<g id="edge10" class="edge">
<title>public.service_group_service_group:child_id&#45;&gt;public.service_groups:id</title>
<path fill="none" stroke="black" d="M3518.92,-484.62C3530.79,-475.75 3519.65,-447.21 3508.1,-428.75 3479.84,-383.53 3429.29,-419.65 3401.18,-374.35 3379.1,-338.77 3358.31,-280.15 3400.18,-280.15"/>
<polygon fill="black" stroke="black" points="3519.06,-484.58 3508.22,-482.92 3513.92,-486.01 3509.75,-487.17 3509.75,-487.17 3509.75,-487.17 3513.92,-486.01 3510.63,-491.59 3519.06,-484.58"/>
</g>
<!-- public.service_group_service_group&#45;&gt;public.service_groups -->
<g id="edge11" class="edge">
<title>public.service_group_service_group:parent_id&#45;&gt;public.service_groups:id</title>
<path fill="none" stroke="black" d="M3519.1,-516.63C3544.97,-507.49 3527.02,-459.21 3508.1,-428.75 3479.98,-383.45 3429.29,-419.65 3401.18,-374.35 3379.1,-338.77 3358.31,-280.15 3400.18,-280.15"/>
<polygon fill="black" stroke="black" points="3519.32,-516.59 3508.76,-513.65 3514.05,-517.39 3509.77,-518.05 3509.77,-518.05 3509.77,-518.05 3514.05,-517.39 3510.11,-522.54 3519.32,-516.59"/>
</g>
<!-- public.checkup_service_group -->
<g id="node12" class="node">
<title>public.checkup_service_group</title>
<polygon fill="#efefef" stroke="none" points="3612.2,-533.55 3612.2,-569.15 3971.11,-569.15 3971.11,-533.55 3612.2,-533.55"/>
<polygon fill="none" stroke="black" points="3612.2,-533.55 3612.2,-569.15 3971.11,-569.15 3971.11,-533.55 3612.2,-533.55"/>
<text text-anchor="start" x="3619.2" y="-546.95" font-family="Arial Bold" font-size="18.00">public.checkup_service_group</text>
<text text-anchor="start" x="3839.62" y="-546.95" font-family="Arial" font-size="14.00">    </text>
<text text-anchor="start" x="3870.74" y="-546.95" font-family="Arial" font-size="14.00" fill="#666666">[BASE TABLE]</text>
<polygon fill="none" stroke="black" points="3612.2,-502.75 3612.2,-533.55 3971.11,-533.55 3971.11,-502.75 3612.2,-502.75"/>
<text text-anchor="start" x="3619.2" y="-514.95" font-family="Arial" font-size="14.00">checkup_id </text>
<text text-anchor="start" x="3693.91" y="-514.95" font-family="Arial" font-size="14.00" fill="#666666">[bigint]</text>
<polygon fill="none" stroke="black" points="3612.2,-471.95 3612.2,-502.75 3971.11,-502.75 3971.11,-471.95 3612.2,-471.95"/>
<text text-anchor="start" x="3619.2" y="-484.15" font-family="Arial" font-size="14.00">service_group_id </text>
<text text-anchor="start" x="3729.71" y="-484.15" font-family="Arial" font-size="14.00" fill="#666666">[bigint]</text>
</g>
<!-- public.checkup_service_group&#45;&gt;public.service_groups -->
<g id="edge12" class="edge">
<title>public.checkup_service_group:service_group_id&#45;&gt;public.service_groups:id</title>
<path fill="none" stroke="black" d="M3601.45,-484.67C3589.8,-475.93 3601.53,-447.73 3612.2,-428.75 3634.33,-389.34 3676.12,-413.83 3698.13,-374.35 3718.51,-337.78 3741,-280.15 3699.13,-280.15"/>
<polygon fill="black" stroke="black" points="3601.23,-484.61 3609.68,-491.6 3606.38,-486.02 3610.55,-487.17 3610.55,-487.17 3610.55,-487.17 3606.38,-486.02 3612.07,-482.92 3601.23,-484.61"/>
</g>
<!-- public.service_group_test_set -->
<g id="node13" class="node">
<title>public.service_group_test_set</title>
<polygon fill="#efefef" stroke="none" points="4075.19,-533.55 4075.19,-569.15 4428.12,-569.15 4428.12,-533.55 4075.19,-533.55"/>
<polygon fill="none" stroke="black" points="4075.19,-533.55 4075.19,-569.15 4428.12,-569.15 4428.12,-533.55 4075.19,-533.55"/>
<text text-anchor="start" x="4082.19" y="-546.95" font-family="Arial Bold" font-size="18.00">public.service_group_test_set</text>
<text text-anchor="start" x="4296.63" y="-546.95" font-family="Arial" font-size="14.00">    </text>
<text text-anchor="start" x="4327.75" y="-546.95" font-family="Arial" font-size="14.00" fill="#666666">[BASE TABLE]</text>
<polygon fill="none" stroke="black" points="4075.19,-502.75 4075.19,-533.55 4428.12,-533.55 4428.12,-502.75 4075.19,-502.75"/>
<text text-anchor="start" x="4082.19" y="-514.95" font-family="Arial" font-size="14.00">service_group_id </text>
<text text-anchor="start" x="4192.7" y="-514.95" font-family="Arial" font-size="14.00" fill="#666666">[bigint]</text>
<polygon fill="none" stroke="black" points="4075.19,-471.95 4075.19,-502.75 4428.12,-502.75 4428.12,-471.95 4075.19,-471.95"/>
<text text-anchor="start" x="4082.19" y="-484.15" font-family="Arial" font-size="14.00">test_set_id </text>
<text text-anchor="start" x="4153.79" y="-484.15" font-family="Arial" font-size="14.00" fill="#666666">[bigint]</text>
</g>
<!-- public.service_group_test_set&#45;&gt;public.service_groups -->
<g id="edge13" class="edge">
<title>public.service_group_test_set:service_group_id&#45;&gt;public.service_groups:id</title>
<path fill="none" stroke="black" d="M4064.15,-516.97C4031.97,-508.39 4055.21,-454.91 4023.65,-425.75 3907.56,-318.45 3857.21,-280.15 3699.13,-280.15"/>
<polygon fill="black" stroke="black" points="4063.92,-516.94 4073.33,-522.58 4069.22,-517.57 4073.52,-518.07 4073.52,-518.07 4073.52,-518.07 4069.22,-517.57 4074.38,-513.64 4063.92,-516.94"/>
</g>
<!-- public.company_order_service_group -->
<g id="node14" class="node">
<title>public.company_order_service_group</title>
<polygon fill="#efefef" stroke="none" points="4532.7,-533.55 4532.7,-569.15 4944.6,-569.15 4944.6,-533.55 4532.7,-533.55"/>
<polygon fill="none" stroke="black" points="4532.7,-533.55 4532.7,-569.15 4944.6,-569.15 4944.6,-533.55 4532.7,-533.55"/>
<text text-anchor="start" x="4539.7" y="-546.95" font-family="Arial Bold" font-size="18.00">public.company_order_service_group</text>
<text text-anchor="start" x="4813.11" y="-546.95" font-family="Arial" font-size="14.00">    </text>
<text text-anchor="start" x="4844.23" y="-546.95" font-family="Arial" font-size="14.00" fill="#666666">[BASE TABLE]</text>
<polygon fill="none" stroke="black" points="4532.7,-502.75 4532.7,-533.55 4944.6,-533.55 4944.6,-502.75 4532.7,-502.75"/>
<text text-anchor="start" x="4539.7" y="-514.95" font-family="Arial" font-size="14.00">service_group_id </text>
<text text-anchor="start" x="4650.21" y="-514.95" font-family="Arial" font-size="14.00" fill="#666666">[bigint]</text>
<polygon fill="none" stroke="black" points="4532.7,-471.95 4532.7,-502.75 4944.6,-502.75 4944.6,-471.95 4532.7,-471.95"/>
<text text-anchor="start" x="4539.7" y="-484.15" font-family="Arial" font-size="14.00">company_order_id </text>
<text text-anchor="start" x="4659.55" y="-484.15" font-family="Arial" font-size="14.00" fill="#666666">[bigint]</text>
</g>
<!-- public.company_order_service_group&#45;&gt;public.service_groups -->
<g id="edge14" class="edge">
<title>public.company_order_service_group:service_group_id&#45;&gt;public.service_groups:id</title>
<path fill="none" stroke="black" d="M4521.7,-516.89C4489.86,-507.74 4515.58,-450.95 4480.65,-425.75 4337.4,-322.37 3875.79,-280.15 3699.13,-280.15"/>
<polygon fill="black" stroke="black" points="4521.45,-516.86 4530.81,-522.57 4526.74,-517.52 4531.04,-518.06 4531.04,-518.06 4531.04,-518.06 4526.74,-517.52 4531.93,-513.64 4521.45,-516.86"/>
</g>
<!-- public.category_service_group -->
<g id="node15" class="node">
<title>public.category_service_group</title>
<polygon fill="#efefef" stroke="none" points="5049.2,-533.55 5049.2,-569.15 5410.11,-569.15 5410.11,-533.55 5049.2,-533.55"/>
<polygon fill="none" stroke="black" points="5049.2,-533.55 5049.2,-569.15 5410.11,-569.15 5410.11,-533.55 5049.2,-533.55"/>
<text text-anchor="start" x="5056.2" y="-546.95" font-family="Arial Bold" font-size="18.00">public.category_service_group</text>
<text text-anchor="start" x="5278.62" y="-546.95" font-family="Arial" font-size="14.00">    </text>
<text text-anchor="start" x="5309.73" y="-546.95" font-family="Arial" font-size="14.00" fill="#666666">[BASE TABLE]</text>
<polygon fill="none" stroke="black" points="5049.2,-502.75 5049.2,-533.55 5410.11,-533.55 5410.11,-502.75 5049.2,-502.75"/>
<text text-anchor="start" x="5056.2" y="-514.95" font-family="Arial" font-size="14.00">service_group_id </text>
<text text-anchor="start" x="5166.71" y="-514.95" font-family="Arial" font-size="14.00" fill="#666666">[integer]</text>
<polygon fill="none" stroke="black" points="5049.2,-471.95 5049.2,-502.75 5410.11,-502.75 5410.11,-471.95 5049.2,-471.95"/>
<text text-anchor="start" x="5056.2" y="-484.15" font-family="Arial" font-size="14.00">category_id </text>
<text text-anchor="start" x="5132.47" y="-484.15" font-family="Arial" font-size="14.00" fill="#666666">[integer]</text>
</g>
<!-- public.category_service_group&#45;&gt;public.service_groups -->
<g id="edge15" class="edge">
<title>public.category_service_group:service_group_id&#45;&gt;public.service_groups:id</title>
<path fill="none" stroke="black" d="M5038.19,-516.87C5006.36,-507.53 5032.6,-449.65 4996.65,-425.75 4875.85,-345.41 3844.2,-280.15 3699.13,-280.15"/>
<polygon fill="black" stroke="black" points="5037.95,-516.83 5047.3,-522.57 5043.24,-517.51 5047.54,-518.06 5047.54,-518.06 5047.54,-518.06 5043.24,-517.51 5048.44,-513.64 5037.95,-516.83"/>
</g>
</g>
</svg>
