<?xml version="1.0" encoding="UTF-8" standalone="no"?>
<!DOCTYPE svg PUBLIC "-//W3C//DTD SVG 1.1//EN"
 "http://www.w3.org/Graphics/SVG/1.1/DTD/svg11.dtd">
<!-- Generated by graphviz version 12.1.2 (20240928.0832)
 -->
<!-- Title: public.categories Pages: 1 -->
<svg width="1472pt" height="442pt"
 viewBox="0.00 0.00 1472.33 442.00" xmlns="http://www.w3.org/2000/svg" xmlns:xlink="http://www.w3.org/1999/xlink">
<g id="graph0" class="graph" transform="scale(1 1) rotate(0) translate(4 438)">
<title>public.categories</title>
<polygon fill="white" stroke="none" points="-4,4 -4,-438 1468.33,-438 1468.33,4 -4,4"/>
<!-- public.categories -->
<g id="node1" class="node">
<title>public.categories</title>
<polygon fill="#efefef" stroke="none" points="396.71,-104.8 396.71,-140.4 657.65,-140.4 657.65,-104.8 396.71,-104.8"/>
<polygon fill="none" stroke="black" points="396.71,-104.8 396.71,-140.4 657.65,-140.4 657.65,-104.8 396.71,-104.8"/>
<text text-anchor="start" x="403.71" y="-118.2" font-family="Arial Bold" font-size="18.00">public.categories</text>
<text text-anchor="start" x="526.16" y="-118.2" font-family="Arial" font-size="14.00">    </text>
<text text-anchor="start" x="557.27" y="-118.2" font-family="Arial" font-size="14.00" fill="#666666">[BASE TABLE]</text>
<polygon fill="none" stroke="black" points="396.71,-74 396.71,-104.8 657.65,-104.8 657.65,-74 396.71,-74"/>
<text text-anchor="start" x="403.71" y="-86.2" font-family="Arial" font-size="14.00">id </text>
<text text-anchor="start" x="418.49" y="-86.2" font-family="Arial" font-size="14.00" fill="#666666">[bigint]</text>
<polygon fill="none" stroke="black" stroke-width="3" points="395.21,-72.5 395.21,-141.9 659.15,-141.9 659.15,-72.5 395.21,-72.5"/>
</g>
<!-- public.category_service -->
<g id="node2" class="node">
<title>public.category_service</title>
<polygon fill="#efefef" stroke="none" points="132.22,-355.2 132.22,-390.8 442.13,-390.8 442.13,-355.2 132.22,-355.2"/>
<polygon fill="none" stroke="black" points="132.22,-355.2 132.22,-390.8 442.13,-390.8 442.13,-355.2 132.22,-355.2"/>
<text text-anchor="start" x="139.22" y="-368.6" font-family="Arial Bold" font-size="18.00">public.category_service</text>
<text text-anchor="start" x="310.64" y="-368.6" font-family="Arial" font-size="14.00">    </text>
<text text-anchor="start" x="341.76" y="-368.6" font-family="Arial" font-size="14.00" fill="#666666">[BASE TABLE]</text>
<polygon fill="none" stroke="black" points="132.22,-324.4 132.22,-355.2 442.13,-355.2 442.13,-324.4 132.22,-324.4"/>
<text text-anchor="start" x="139.22" y="-336.6" font-family="Arial" font-size="14.00">service_id </text>
<text text-anchor="start" x="206.14" y="-336.6" font-family="Arial" font-size="14.00" fill="#666666">[bigint]</text>
<polygon fill="none" stroke="black" points="132.22,-293.6 132.22,-324.4 442.13,-324.4 442.13,-293.6 132.22,-293.6"/>
<text text-anchor="start" x="139.22" y="-305.8" font-family="Arial" font-size="14.00">category_id </text>
<text text-anchor="start" x="215.49" y="-305.8" font-family="Arial" font-size="14.00" fill="#666666">[integer]</text>
</g>
<!-- public.category_service&#45;&gt;public.categories -->
<g id="edge1" class="edge">
<title>public.category_service:category_id&#45;&gt;public.categories:id</title>
<path fill="none" stroke="black" d="M452.86,-306.22C463,-297.63 448.87,-270.89 442.13,-250.4 431.25,-217.34 407.48,-219.7 396.71,-186.6 383.34,-145.52 352.51,-89.4 395.71,-89.4"/>
<polygon fill="black" stroke="black" points="453.07,-306.16 442.22,-304.58 447.94,-307.63 443.78,-308.82 443.78,-308.82 443.78,-308.82 447.94,-307.63 444.69,-313.23 453.07,-306.16"/>
</g>
<!-- public.services -->
<g id="node3" class="node">
<title>public.services</title>
<polygon fill="#efefef" stroke="none" points="43.2,-135.6 43.2,-171.2 289.15,-171.2 289.15,-135.6 43.2,-135.6"/>
<polygon fill="none" stroke="black" points="43.2,-135.6 43.2,-171.2 289.15,-171.2 289.15,-135.6 43.2,-135.6"/>
<text text-anchor="start" x="50.2" y="-149" font-family="Arial Bold" font-size="18.00">public.services</text>
<text text-anchor="start" x="157.66" y="-149" font-family="Arial" font-size="14.00">    </text>
<text text-anchor="start" x="188.78" y="-149" font-family="Arial" font-size="14.00" fill="#666666">[BASE TABLE]</text>
<polygon fill="none" stroke="black" points="43.2,-104.8 43.2,-135.6 289.15,-135.6 289.15,-104.8 43.2,-104.8"/>
<text text-anchor="start" x="50.2" y="-117" font-family="Arial" font-size="14.00">id </text>
<text text-anchor="start" x="64.99" y="-117" font-family="Arial" font-size="14.00" fill="#666666">[bigint]</text>
<polygon fill="none" stroke="black" points="43.2,-74 43.2,-104.8 289.15,-104.8 289.15,-74 43.2,-74"/>
<text text-anchor="start" x="50.2" y="-86.2" font-family="Arial" font-size="14.00">attune_department_id </text>
<text text-anchor="start" x="190.3" y="-86.2" font-family="Arial" font-size="14.00" fill="#666666">[bigint]</text>
<polygon fill="none" stroke="black" points="43.2,-43.2 43.2,-74 289.15,-74 289.15,-43.2 43.2,-43.2"/>
<text text-anchor="start" x="50.2" y="-55.4" font-family="Arial" font-size="14.00">simple_cate_id </text>
<text text-anchor="start" x="147.48" y="-55.4" font-family="Arial" font-size="14.00" fill="#666666">[bigint]</text>
</g>
<!-- public.category_service&#45;&gt;public.services -->
<g id="edge2" class="edge">
<title>public.category_service:service_id&#45;&gt;public.services:id</title>
<path fill="none" stroke="black" d="M121.13,-338.21C94.66,-328.64 109.72,-278.32 132.22,-250.4 177.12,-194.68 244.27,-270.13 289.15,-214.4 315.41,-181.79 332.02,-120.2 290.15,-120.2"/>
<polygon fill="black" stroke="black" points="121.01,-338.19 130.19,-344.19 126.28,-339.02 130.56,-339.7 130.56,-339.7 130.56,-339.7 126.28,-339.02 131.59,-335.3 121.01,-338.19"/>
</g>
<!-- public.category_service_group -->
<g id="node4" class="node">
<title>public.category_service_group</title>
<polygon fill="#efefef" stroke="none" points="607.72,-355.2 607.72,-390.8 968.63,-390.8 968.63,-355.2 607.72,-355.2"/>
<polygon fill="none" stroke="black" points="607.72,-355.2 607.72,-390.8 968.63,-390.8 968.63,-355.2 607.72,-355.2"/>
<text text-anchor="start" x="614.72" y="-368.6" font-family="Arial Bold" font-size="18.00">public.category_service_group</text>
<text text-anchor="start" x="837.14" y="-368.6" font-family="Arial" font-size="14.00">    </text>
<text text-anchor="start" x="868.26" y="-368.6" font-family="Arial" font-size="14.00" fill="#666666">[BASE TABLE]</text>
<polygon fill="none" stroke="black" points="607.72,-324.4 607.72,-355.2 968.63,-355.2 968.63,-324.4 607.72,-324.4"/>
<text text-anchor="start" x="614.72" y="-336.6" font-family="Arial" font-size="14.00">service_group_id </text>
<text text-anchor="start" x="725.23" y="-336.6" font-family="Arial" font-size="14.00" fill="#666666">[integer]</text>
<polygon fill="none" stroke="black" points="607.72,-293.6 607.72,-324.4 968.63,-324.4 968.63,-293.6 607.72,-293.6"/>
<text text-anchor="start" x="614.72" y="-305.8" font-family="Arial" font-size="14.00">category_id </text>
<text text-anchor="start" x="690.99" y="-305.8" font-family="Arial" font-size="14.00" fill="#666666">[integer]</text>
</g>
<!-- public.category_service_group&#45;&gt;public.categories -->
<g id="edge3" class="edge">
<title>public.category_service_group:category_id&#45;&gt;public.categories:id</title>
<path fill="none" stroke="black" d="M596.95,-306.2C586.7,-297.58 600.52,-270.73 607.72,-250.4 619.75,-216.46 645.74,-220.58 657.65,-186.6 671.94,-145.83 701.85,-89.4 658.65,-89.4"/>
<polygon fill="black" stroke="black" points="596.79,-306.16 605.16,-313.23 601.92,-307.62 606.08,-308.82 606.08,-308.82 606.08,-308.82 601.92,-307.62 607.64,-304.58 596.79,-306.16"/>
</g>
<!-- public.service_groups -->
<g id="node5" class="node">
<title>public.service_groups</title>
<polygon fill="#efefef" stroke="none" points="764.7,-104.8 764.7,-140.4 1061.65,-140.4 1061.65,-104.8 764.7,-104.8"/>
<polygon fill="none" stroke="black" points="764.7,-104.8 764.7,-140.4 1061.65,-140.4 1061.65,-104.8 764.7,-104.8"/>
<text text-anchor="start" x="771.7" y="-118.2" font-family="Arial Bold" font-size="18.00">public.service_groups</text>
<text text-anchor="start" x="930.16" y="-118.2" font-family="Arial" font-size="14.00">    </text>
<text text-anchor="start" x="961.28" y="-118.2" font-family="Arial" font-size="14.00" fill="#666666">[BASE TABLE]</text>
<polygon fill="none" stroke="black" points="764.7,-74 764.7,-104.8 1061.65,-104.8 1061.65,-74 764.7,-74"/>
<text text-anchor="start" x="771.7" y="-86.2" font-family="Arial" font-size="14.00">id </text>
<text text-anchor="start" x="786.49" y="-86.2" font-family="Arial" font-size="14.00" fill="#666666">[bigint]</text>
</g>
<!-- public.category_service_group&#45;&gt;public.service_groups -->
<g id="edge4" class="edge">
<title>public.category_service_group:service_group_id&#45;&gt;public.service_groups:id</title>
<path fill="none" stroke="black" d="M979.69,-338.24C1005.94,-328.84 989.83,-279.31 968.63,-250.4 912.23,-173.49 821.08,-260.53 764.7,-183.6 739.95,-149.83 721.83,-89.4 763.7,-89.4"/>
<polygon fill="black" stroke="black" points="979.84,-338.21 969.27,-335.3 974.57,-339.03 970.29,-339.7 970.29,-339.7 970.29,-339.7 974.57,-339.03 970.65,-344.2 979.84,-338.21"/>
</g>
<!-- public.category_package -->
<g id="node6" class="node">
<title>public.category_package</title>
<polygon fill="#efefef" stroke="none" points="1103.23,-355.2 1103.23,-390.8 1421.13,-390.8 1421.13,-355.2 1103.23,-355.2"/>
<polygon fill="none" stroke="black" points="1103.23,-355.2 1103.23,-390.8 1421.13,-390.8 1421.13,-355.2 1103.23,-355.2"/>
<text text-anchor="start" x="1110.23" y="-368.6" font-family="Arial Bold" font-size="18.00">public.category_package</text>
<text text-anchor="start" x="1289.64" y="-368.6" font-family="Arial" font-size="14.00">    </text>
<text text-anchor="start" x="1320.75" y="-368.6" font-family="Arial" font-size="14.00" fill="#666666">[BASE TABLE]</text>
<polygon fill="none" stroke="black" points="1103.23,-324.4 1103.23,-355.2 1421.13,-355.2 1421.13,-324.4 1103.23,-324.4"/>
<text text-anchor="start" x="1110.23" y="-336.6" font-family="Arial" font-size="14.00">package_id </text>
<text text-anchor="start" x="1185.73" y="-336.6" font-family="Arial" font-size="14.00" fill="#666666">[integer]</text>
<polygon fill="none" stroke="black" points="1103.23,-293.6 1103.23,-324.4 1421.13,-324.4 1421.13,-293.6 1103.23,-293.6"/>
<text text-anchor="start" x="1110.23" y="-305.8" font-family="Arial" font-size="14.00">category_id </text>
<text text-anchor="start" x="1186.49" y="-305.8" font-family="Arial" font-size="14.00" fill="#666666">[integer]</text>
</g>
<!-- public.category_package&#45;&gt;public.categories -->
<g id="edge5" class="edge">
<title>public.category_package:category_id&#45;&gt;public.categories:id</title>
<path fill="none" stroke="black" d="M1092.23,-308.18C1058.26,-302.21 1059.21,-265.19 1021.18,-250.4 892.32,-200.27 822.99,-297.09 712.18,-214.4 663.74,-178.26 719.08,-89.4 658.65,-89.4"/>
<polygon fill="black" stroke="black" points="1091.93,-308.16 1101.53,-313.46 1097.24,-308.59 1101.56,-308.95 1101.56,-308.95 1101.56,-308.95 1097.24,-308.59 1102.26,-304.49 1091.93,-308.16"/>
</g>
<!-- public.packages -->
<g id="node7" class="node">
<title>public.packages</title>
<polygon fill="#efefef" stroke="none" points="1166.21,-120.2 1166.21,-155.8 1420.15,-155.8 1420.15,-120.2 1166.21,-120.2"/>
<polygon fill="none" stroke="black" points="1166.21,-120.2 1166.21,-155.8 1420.15,-155.8 1420.15,-120.2 1166.21,-120.2"/>
<text text-anchor="start" x="1173.21" y="-133.6" font-family="Arial Bold" font-size="18.00">public.packages</text>
<text text-anchor="start" x="1288.66" y="-133.6" font-family="Arial" font-size="14.00">    </text>
<text text-anchor="start" x="1319.78" y="-133.6" font-family="Arial" font-size="14.00" fill="#666666">[BASE TABLE]</text>
<polygon fill="none" stroke="black" points="1166.21,-89.4 1166.21,-120.2 1420.15,-120.2 1420.15,-89.4 1166.21,-89.4"/>
<text text-anchor="start" x="1173.21" y="-101.6" font-family="Arial" font-size="14.00">id </text>
<text text-anchor="start" x="1187.99" y="-101.6" font-family="Arial" font-size="14.00" fill="#666666">[bigint]</text>
<polygon fill="none" stroke="black" points="1166.21,-58.6 1166.21,-89.4 1420.15,-89.4 1420.15,-58.6 1166.21,-58.6"/>
<text text-anchor="start" x="1173.21" y="-70.8" font-family="Arial" font-size="14.00">attune_department_id </text>
<text text-anchor="start" x="1313.31" y="-70.8" font-family="Arial" font-size="14.00" fill="#666666">[bigint]</text>
</g>
<!-- public.category_package&#45;&gt;public.packages -->
<g id="edge6" class="edge">
<title>public.category_package:package_id&#45;&gt;public.packages:id</title>
<path fill="none" stroke="black" d="M1432.23,-338.2C1458.76,-328.59 1443.99,-278.02 1421.13,-250.4 1347.42,-161.37 1239.88,-288.05 1166.21,-199 1139.51,-166.74 1123.34,-104.8 1165.21,-104.8"/>
<polygon fill="black" stroke="black" points="1432.33,-338.18 1421.75,-335.3 1427.07,-339.02 1422.79,-339.7 1422.79,-339.7 1422.79,-339.7 1427.07,-339.02 1423.16,-344.19 1432.33,-338.18"/>
</g>
</g>
</svg>
