<?xml version="1.0" encoding="UTF-8" standalone="no"?>
<!DOCTYPE svg PUBLIC "-//W3C//DTD SVG 1.1//EN"
 "http://www.w3.org/Graphics/SVG/1.1/DTD/svg11.dtd">
<!-- Generated by graphviz version 12.1.2 (20240928.0832)
 -->
<!-- Title: public.internal_reports Pages: 1 -->
<svg width="1630pt" height="1124pt"
 viewBox="0.00 0.00 1630.35 1123.60" xmlns="http://www.w3.org/2000/svg" xmlns:xlink="http://www.w3.org/1999/xlink">
<g id="graph0" class="graph" transform="scale(1 1) rotate(0) translate(4 1119.6)">
<title>public.internal_reports</title>
<polygon fill="white" stroke="none" points="-4,4 -4,-1119.6 1626.35,-1119.6 1626.35,4 -4,4"/>
<!-- public.internal_reports -->
<g id="node1" class="node">
<title>public.internal_reports</title>
<polygon fill="#efefef" stroke="none" points="46.2,-1021.4 46.2,-1057 348.14,-1057 348.14,-1021.4 46.2,-1021.4"/>
<polygon fill="none" stroke="black" points="46.2,-1021.4 46.2,-1057 348.14,-1057 348.14,-1021.4 46.2,-1021.4"/>
<text text-anchor="start" x="53.2" y="-1034.8" font-family="Arial Bold" font-size="18.00">public.internal_reports</text>
<text text-anchor="start" x="216.65" y="-1034.8" font-family="Arial" font-size="14.00">    </text>
<text text-anchor="start" x="247.77" y="-1034.8" font-family="Arial" font-size="14.00" fill="#666666">[BASE TABLE]</text>
<polygon fill="none" stroke="black" points="46.2,-990.6 46.2,-1021.4 348.14,-1021.4 348.14,-990.6 46.2,-990.6"/>
<text text-anchor="start" x="53.2" y="-1002.8" font-family="Arial" font-size="14.00">report_id </text>
<text text-anchor="start" x="112.34" y="-1002.8" font-family="Arial" font-size="14.00" fill="#666666">[bigint]</text>
<polygon fill="none" stroke="black" stroke-width="3" points="44.7,-989.1 44.7,-1058.5 349.64,-1058.5 349.64,-989.1 44.7,-989.1"/>
</g>
<!-- public.reports -->
<g id="node2" class="node">
<title>public.reports</title>
<polygon fill="#efefef" stroke="none" points="659.6,-817.2 659.6,-852.8 904.74,-852.8 904.74,-817.2 659.6,-817.2"/>
<polygon fill="none" stroke="black" points="659.6,-817.2 659.6,-852.8 904.74,-852.8 904.74,-817.2 659.6,-817.2"/>
<text text-anchor="start" x="670.19" y="-830.6" font-family="Arial Bold" font-size="18.00">public.reports</text>
<text text-anchor="start" x="769.66" y="-830.6" font-family="Arial" font-size="14.00">    </text>
<text text-anchor="start" x="800.78" y="-830.6" font-family="Arial" font-size="14.00" fill="#666666">[BASE TABLE]</text>
<polygon fill="none" stroke="black" points="659.6,-786.4 659.6,-817.2 904.74,-817.2 904.74,-786.4 659.6,-786.4"/>
<text text-anchor="start" x="666.6" y="-798.6" font-family="Arial" font-size="14.00">id </text>
<text text-anchor="start" x="681.39" y="-798.6" font-family="Arial" font-size="14.00" fill="#666666">[bigint]</text>
<polygon fill="none" stroke="black" points="659.6,-755.6 659.6,-786.4 904.74,-786.4 904.74,-755.6 659.6,-755.6"/>
<text text-anchor="start" x="666.6" y="-767.8" font-family="Arial" font-size="14.00">user_id </text>
<text text-anchor="start" x="716.41" y="-767.8" font-family="Arial" font-size="14.00" fill="#666666">[bigint]</text>
<polygon fill="none" stroke="black" points="659.6,-724.8 659.6,-755.6 904.74,-755.6 904.74,-724.8 659.6,-724.8"/>
<text text-anchor="start" x="666.6" y="-737" font-family="Arial" font-size="14.00">checkup_id </text>
<text text-anchor="start" x="741.32" y="-737" font-family="Arial" font-size="14.00" fill="#666666">[bigint]</text>
<polygon fill="none" stroke="black" points="659.6,-694 659.6,-724.8 904.74,-724.8 904.74,-694 659.6,-694"/>
<text text-anchor="start" x="666.6" y="-706.2" font-family="Arial" font-size="14.00">form_id </text>
<text text-anchor="start" x="717.17" y="-706.2" font-family="Arial" font-size="14.00" fill="#666666">[bigint]</text>
<polygon fill="none" stroke="black" points="659.6,-663.2 659.6,-694 904.74,-694 904.74,-663.2 659.6,-663.2"/>
<text text-anchor="start" x="666.6" y="-675.4" font-family="Arial" font-size="14.00">examination_refuse_waver_id </text>
<text text-anchor="start" x="856.49" y="-675.4" font-family="Arial" font-size="14.00" fill="#666666">[bigint]</text>
</g>
<!-- public.internal_reports&#45;&gt;public.reports -->
<g id="edge1" class="edge">
<title>public.internal_reports:report_id&#45;&gt;public.reports:id</title>
<path fill="none" stroke="black" d="M359.5,-1004.7C386.87,-996.91 375.2,-955.83 403.17,-932 500.15,-849.35 531.18,-801.8 658.6,-801.8"/>
<polygon fill="black" stroke="black" points="359.39,-1004.72 348.91,-1001.49 354.1,-1005.38 349.8,-1005.92 349.8,-1005.92 349.8,-1005.92 354.1,-1005.38 350.03,-1010.42 359.39,-1004.72"/>
</g>
<!-- public.users -->
<g id="node6" class="node">
<title>public.users</title>
<polygon fill="#efefef" stroke="none" points="152.68,-505.2 152.68,-540.8 377.66,-540.8 377.66,-505.2 152.68,-505.2"/>
<polygon fill="none" stroke="black" points="152.68,-505.2 152.68,-540.8 377.66,-540.8 377.66,-505.2 152.68,-505.2"/>
<text text-anchor="start" x="159.68" y="-518.6" font-family="Arial Bold" font-size="18.00">public.users</text>
<text text-anchor="start" x="246.17" y="-518.6" font-family="Arial" font-size="14.00">    </text>
<text text-anchor="start" x="277.28" y="-518.6" font-family="Arial" font-size="14.00" fill="#666666">[BASE TABLE]</text>
<polygon fill="none" stroke="black" points="152.68,-474.4 152.68,-505.2 377.66,-505.2 377.66,-474.4 152.68,-474.4"/>
<text text-anchor="start" x="159.68" y="-486.6" font-family="Arial" font-size="14.00">id </text>
<text text-anchor="start" x="174.47" y="-486.6" font-family="Arial" font-size="14.00" fill="#666666">[bigint]</text>
<polygon fill="none" stroke="black" points="152.68,-443.6 152.68,-474.4 377.66,-474.4 377.66,-443.6 152.68,-443.6"/>
<text text-anchor="start" x="159.68" y="-455.8" font-family="Arial" font-size="14.00">email </text>
<text text-anchor="start" x="197.03" y="-455.8" font-family="Arial" font-size="14.00" fill="#666666">[varchar(255)]</text>
<polygon fill="none" stroke="black" points="152.68,-412.8 152.68,-443.6 377.66,-443.6 377.66,-412.8 152.68,-412.8"/>
<text text-anchor="start" x="159.68" y="-425" font-family="Arial" font-size="14.00">branch_id </text>
<text text-anchor="start" x="225.06" y="-425" font-family="Arial" font-size="14.00" fill="#666666">[bigint]</text>
<polygon fill="none" stroke="black" points="152.68,-382 152.68,-412.8 377.66,-412.8 377.66,-382 152.68,-382"/>
<text text-anchor="start" x="159.68" y="-394.2" font-family="Arial" font-size="14.00">sex_id </text>
<text text-anchor="start" x="204.04" y="-394.2" font-family="Arial" font-size="14.00" fill="#666666">[bigint]</text>
<polygon fill="none" stroke="black" points="152.68,-351.2 152.68,-382 377.66,-382 377.66,-351.2 152.68,-351.2"/>
<text text-anchor="start" x="159.68" y="-363.4" font-family="Arial" font-size="14.00">user_status_id </text>
<text text-anchor="start" x="254.63" y="-363.4" font-family="Arial" font-size="14.00" fill="#666666">[bigint]</text>
<polygon fill="none" stroke="black" points="152.68,-320.4 152.68,-351.2 377.66,-351.2 377.66,-320.4 152.68,-320.4"/>
<text text-anchor="start" x="159.68" y="-332.6" font-family="Arial" font-size="14.00">nationality_id </text>
<text text-anchor="start" x="245.3" y="-332.6" font-family="Arial" font-size="14.00" fill="#666666">[bigint]</text>
<polygon fill="none" stroke="black" points="152.68,-289.6 152.68,-320.4 377.66,-320.4 377.66,-289.6 152.68,-289.6"/>
<text text-anchor="start" x="159.68" y="-301.8" font-family="Arial" font-size="14.00">city_id </text>
<text text-anchor="start" x="203.26" y="-301.8" font-family="Arial" font-size="14.00" fill="#666666">[bigint]</text>
<polygon fill="none" stroke="black" points="152.68,-258.8 152.68,-289.6 377.66,-289.6 377.66,-258.8 152.68,-258.8"/>
<text text-anchor="start" x="159.68" y="-271" font-family="Arial" font-size="14.00">image_id </text>
<text text-anchor="start" x="220.39" y="-271" font-family="Arial" font-size="14.00" fill="#666666">[bigint]</text>
<polygon fill="none" stroke="black" points="152.68,-228 152.68,-258.8 377.66,-258.8 377.66,-228 152.68,-228"/>
<text text-anchor="start" x="159.68" y="-240.2" font-family="Arial" font-size="14.00">signature_image_id </text>
<text text-anchor="start" x="285.76" y="-240.2" font-family="Arial" font-size="14.00" fill="#666666">[bigint]</text>
<polygon fill="none" stroke="black" points="152.68,-197.2 152.68,-228 377.66,-228 377.66,-197.2 152.68,-197.2"/>
<text text-anchor="start" x="159.68" y="-209.4" font-family="Arial" font-size="14.00">position_id </text>
<text text-anchor="start" x="230.51" y="-209.4" font-family="Arial" font-size="14.00" fill="#666666">[bigint]</text>
<polygon fill="none" stroke="black" points="152.68,-166.4 152.68,-197.2 377.66,-197.2 377.66,-166.4 152.68,-166.4"/>
<text text-anchor="start" x="159.68" y="-178.6" font-family="Arial" font-size="14.00">mobile_number_id </text>
<text text-anchor="start" x="278.75" y="-178.6" font-family="Arial" font-size="14.00" fill="#666666">[bigint]</text>
<polygon fill="none" stroke="black" points="152.68,-135.6 152.68,-166.4 377.66,-166.4 377.66,-135.6 152.68,-135.6"/>
<text text-anchor="start" x="159.68" y="-147.8" font-family="Arial" font-size="14.00">home_number_id </text>
<text text-anchor="start" x="272.53" y="-147.8" font-family="Arial" font-size="14.00" fill="#666666">[bigint]</text>
<polygon fill="none" stroke="black" points="152.68,-104.8 152.68,-135.6 377.66,-135.6 377.66,-104.8 152.68,-104.8"/>
<text text-anchor="start" x="159.68" y="-117" font-family="Arial" font-size="14.00">bank_id </text>
<text text-anchor="start" x="212.61" y="-117" font-family="Arial" font-size="14.00" fill="#666666">[bigint]</text>
<polygon fill="none" stroke="black" points="152.68,-74 152.68,-104.8 377.66,-104.8 377.66,-74 152.68,-74"/>
<text text-anchor="start" x="159.68" y="-86.2" font-family="Arial" font-size="14.00">created_by_user_id </text>
<text text-anchor="start" x="286.54" y="-86.2" font-family="Arial" font-size="14.00" fill="#666666">[bigint]</text>
<polygon fill="none" stroke="black" points="152.68,-43.2 152.68,-74 377.66,-74 377.66,-43.2 152.68,-43.2"/>
<text text-anchor="start" x="159.68" y="-55.4" font-family="Arial" font-size="14.00">profile_status_id </text>
<text text-anchor="start" x="265.52" y="-55.4" font-family="Arial" font-size="14.00" fill="#666666">[bigint]</text>
</g>
<!-- public.reports&#45;&gt;public.users -->
<g id="edge5" class="edge">
<title>public.reports:user_id&#45;&gt;public.users:id</title>
<path fill="none" stroke="black" d="M648.44,-770.82C526.26,-766.48 510.66,-682.82 429.17,-584 398.95,-547.35 426.16,-489.8 378.66,-489.8"/>
<polygon fill="black" stroke="black" points="648.27,-770.82 658.19,-775.49 653.6,-770.91 657.93,-770.99 657.93,-770.99 657.93,-770.99 653.6,-770.91 658.35,-766.49 648.27,-770.82"/>
</g>
<!-- public.checkups -->
<g id="node7" class="node">
<title>public.checkups</title>
<polygon fill="#efefef" stroke="none" points="481.69,-366.6 481.69,-402.2 736.65,-402.2 736.65,-366.6 481.69,-366.6"/>
<polygon fill="none" stroke="black" points="481.69,-366.6 481.69,-402.2 736.65,-402.2 736.65,-366.6 481.69,-366.6"/>
<text text-anchor="start" x="488.69" y="-380" font-family="Arial Bold" font-size="18.00">public.checkups</text>
<text text-anchor="start" x="605.16" y="-380" font-family="Arial" font-size="14.00">    </text>
<text text-anchor="start" x="636.27" y="-380" font-family="Arial" font-size="14.00" fill="#666666">[BASE TABLE]</text>
<polygon fill="none" stroke="black" points="481.69,-335.8 481.69,-366.6 736.65,-366.6 736.65,-335.8 481.69,-335.8"/>
<text text-anchor="start" x="488.69" y="-348" font-family="Arial" font-size="14.00">id </text>
<text text-anchor="start" x="503.48" y="-348" font-family="Arial" font-size="14.00" fill="#666666">[bigint]</text>
<polygon fill="none" stroke="black" points="481.69,-305 481.69,-335.8 736.65,-335.8 736.65,-305 481.69,-305"/>
<text text-anchor="start" x="488.69" y="-317.2" font-family="Arial" font-size="14.00">patient_id </text>
<text text-anchor="start" x="553.3" y="-317.2" font-family="Arial" font-size="14.00" fill="#666666">[bigint]</text>
<polygon fill="none" stroke="black" points="481.69,-274.2 481.69,-305 736.65,-305 736.65,-274.2 481.69,-274.2"/>
<text text-anchor="start" x="488.69" y="-286.4" font-family="Arial" font-size="14.00">branch_id </text>
<text text-anchor="start" x="554.07" y="-286.4" font-family="Arial" font-size="14.00" fill="#666666">[bigint]</text>
<polygon fill="none" stroke="black" points="481.69,-243.4 481.69,-274.2 736.65,-274.2 736.65,-243.4 481.69,-243.4"/>
<text text-anchor="start" x="488.69" y="-255.6" font-family="Arial" font-size="14.00">created_by_user_id </text>
<text text-anchor="start" x="615.55" y="-255.6" font-family="Arial" font-size="14.00" fill="#666666">[bigint]</text>
<polygon fill="none" stroke="black" points="481.69,-212.6 481.69,-243.4 736.65,-243.4 736.65,-212.6 481.69,-212.6"/>
<text text-anchor="start" x="488.69" y="-224.8" font-family="Arial" font-size="14.00">company_lot_id </text>
<text text-anchor="start" x="590.64" y="-224.8" font-family="Arial" font-size="14.00" fill="#666666">[bigint]</text>
<polygon fill="none" stroke="black" points="481.69,-181.8 481.69,-212.6 736.65,-212.6 736.65,-181.8 481.69,-181.8"/>
<text text-anchor="start" x="488.69" y="-194" font-family="Arial" font-size="14.00">company_id </text>
<text text-anchor="start" x="568.07" y="-194" font-family="Arial" font-size="14.00" fill="#666666">[bigint]</text>
</g>
<!-- public.reports&#45;&gt;public.checkups -->
<g id="edge6" class="edge">
<title>public.reports:checkup_id&#45;&gt;public.checkups:id</title>
<path fill="none" stroke="black" d="M648.5,-739.72C499.64,-724.41 910.45,-351.2 737.65,-351.2"/>
<polygon fill="black" stroke="black" points="648.28,-739.7 658.05,-744.68 653.61,-739.96 657.93,-740.17 657.93,-740.17 657.93,-740.17 653.61,-739.96 658.48,-735.69 648.28,-739.7"/>
</g>
<!-- public.forms -->
<g id="node8" class="node">
<title>public.forms</title>
<polygon fill="#efefef" stroke="none" points="841.18,-289.6 841.18,-325.2 1071.16,-325.2 1071.16,-289.6 841.18,-289.6"/>
<polygon fill="none" stroke="black" points="841.18,-289.6 841.18,-325.2 1071.16,-325.2 1071.16,-289.6 841.18,-289.6"/>
<text text-anchor="start" x="848.18" y="-303" font-family="Arial Bold" font-size="18.00">public.forms</text>
<text text-anchor="start" x="939.67" y="-303" font-family="Arial" font-size="14.00">    </text>
<text text-anchor="start" x="970.78" y="-303" font-family="Arial" font-size="14.00" fill="#666666">[BASE TABLE]</text>
<polygon fill="none" stroke="black" points="841.18,-258.8 841.18,-289.6 1071.16,-289.6 1071.16,-258.8 841.18,-258.8"/>
<text text-anchor="start" x="848.18" y="-271" font-family="Arial" font-size="14.00">id </text>
<text text-anchor="start" x="862.97" y="-271" font-family="Arial" font-size="14.00" fill="#666666">[bigint]</text>
</g>
<!-- public.reports&#45;&gt;public.forms -->
<g id="edge7" class="edge">
<title>public.reports:form_id&#45;&gt;public.forms:id</title>
<path fill="none" stroke="black" d="M915.96,-708.96C1084.62,-693.4 648.21,-274.2 840.18,-274.2"/>
<polygon fill="black" stroke="black" points="916.06,-708.95 905.88,-704.89 910.73,-709.18 906.41,-709.37 906.41,-709.37 906.41,-709.37 910.73,-709.18 906.27,-713.88 916.06,-708.95"/>
</g>
<!-- public.examination_refuse_wavers -->
<g id="node9" class="node">
<title>public.examination_refuse_wavers</title>
<polygon fill="#efefef" stroke="none" points="1175.22,-320.4 1175.22,-356 1565.12,-356 1565.12,-320.4 1175.22,-320.4"/>
<polygon fill="none" stroke="black" points="1175.22,-320.4 1175.22,-356 1565.12,-356 1565.12,-320.4 1175.22,-320.4"/>
<text text-anchor="start" x="1182.22" y="-333.8" font-family="Arial Bold" font-size="18.00">public.examination_refuse_wavers</text>
<text text-anchor="start" x="1433.63" y="-333.8" font-family="Arial" font-size="14.00">    </text>
<text text-anchor="start" x="1464.75" y="-333.8" font-family="Arial" font-size="14.00" fill="#666666">[BASE TABLE]</text>
<polygon fill="none" stroke="black" points="1175.22,-289.6 1175.22,-320.4 1565.12,-320.4 1565.12,-289.6 1175.22,-289.6"/>
<text text-anchor="start" x="1182.22" y="-301.8" font-family="Arial" font-size="14.00">id </text>
<text text-anchor="start" x="1197.01" y="-301.8" font-family="Arial" font-size="14.00" fill="#666666">[bigint]</text>
<polygon fill="none" stroke="black" points="1175.22,-258.8 1175.22,-289.6 1565.12,-289.6 1565.12,-258.8 1175.22,-258.8"/>
<text text-anchor="start" x="1182.22" y="-271" font-family="Arial" font-size="14.00">checkup_id </text>
<text text-anchor="start" x="1256.94" y="-271" font-family="Arial" font-size="14.00" fill="#666666">[bigint]</text>
<polygon fill="none" stroke="black" points="1175.22,-228 1175.22,-258.8 1565.12,-258.8 1565.12,-228 1175.22,-228"/>
<text text-anchor="start" x="1182.22" y="-240.2" font-family="Arial" font-size="14.00">signature_id </text>
<text text-anchor="start" x="1262.38" y="-240.2" font-family="Arial" font-size="14.00" fill="#666666">[bigint]</text>
</g>
<!-- public.reports&#45;&gt;public.examination_refuse_wavers -->
<g id="edge8" class="edge">
<title>public.reports:examination_refuse_waver_id&#45;&gt;public.examination_refuse_wavers:id</title>
<path fill="none" stroke="black" d="M916.04,-678.56C1014.24,-677.72 1059.84,-663.82 1123.17,-584 1162.34,-534.62 1111.19,-305 1174.22,-305"/>
<polygon fill="black" stroke="black" points="916.07,-678.56 906.05,-674.1 910.74,-678.58 906.41,-678.6 906.41,-678.6 906.41,-678.6 910.74,-678.58 906.09,-683.1 916.07,-678.56"/>
</g>
<!-- public.file_report -->
<g id="node3" class="node">
<title>public.file_report</title>
<polygon fill="#efefef" stroke="none" points="455.2,-1036.8 455.2,-1072.4 719.14,-1072.4 719.14,-1036.8 455.2,-1036.8"/>
<polygon fill="none" stroke="black" points="455.2,-1036.8 455.2,-1072.4 719.14,-1072.4 719.14,-1036.8 455.2,-1036.8"/>
<text text-anchor="start" x="462.2" y="-1050.2" font-family="Arial Bold" font-size="18.00">public.file_report</text>
<text text-anchor="start" x="587.65" y="-1050.2" font-family="Arial" font-size="14.00">    </text>
<text text-anchor="start" x="618.77" y="-1050.2" font-family="Arial" font-size="14.00" fill="#666666">[BASE TABLE]</text>
<polygon fill="none" stroke="black" points="455.2,-1006 455.2,-1036.8 719.14,-1036.8 719.14,-1006 455.2,-1006"/>
<text text-anchor="start" x="462.2" y="-1018.2" font-family="Arial" font-size="14.00">file_id </text>
<text text-anchor="start" x="502.67" y="-1018.2" font-family="Arial" font-size="14.00" fill="#666666">[bigint]</text>
<polygon fill="none" stroke="black" points="455.2,-975.2 455.2,-1006 719.14,-1006 719.14,-975.2 455.2,-975.2"/>
<text text-anchor="start" x="462.2" y="-987.4" font-family="Arial" font-size="14.00">report_id </text>
<text text-anchor="start" x="521.34" y="-987.4" font-family="Arial" font-size="14.00" fill="#666666">[bigint]</text>
</g>
<!-- public.file_report&#45;&gt;public.reports -->
<g id="edge2" class="edge">
<title>public.file_report:report_id&#45;&gt;public.reports:id</title>
<path fill="none" stroke="black" d="M729.91,-987.91C741.61,-979.14 730,-950.87 719.14,-932 703.72,-905.2 674.93,-922.85 659.6,-896 638.84,-859.64 616.73,-801.8 658.6,-801.8"/>
<polygon fill="black" stroke="black" points="730.11,-987.85 719.27,-986.17 724.96,-989.27 720.79,-990.42 720.79,-990.42 720.79,-990.42 724.96,-989.27 721.66,-994.85 730.11,-987.85"/>
</g>
<!-- public.change_requests -->
<g id="node4" class="node">
<title>public.change_requests</title>
<polygon fill="#efefef" stroke="none" points="823.7,-1036.8 823.7,-1072.4 1130.64,-1072.4 1130.64,-1036.8 823.7,-1036.8"/>
<polygon fill="none" stroke="black" points="823.7,-1036.8 823.7,-1072.4 1130.64,-1072.4 1130.64,-1036.8 823.7,-1036.8"/>
<text text-anchor="start" x="830.7" y="-1050.2" font-family="Arial Bold" font-size="18.00">public.change_requests</text>
<text text-anchor="start" x="999.15" y="-1050.2" font-family="Arial" font-size="14.00">    </text>
<text text-anchor="start" x="1030.26" y="-1050.2" font-family="Arial" font-size="14.00" fill="#666666">[BASE TABLE]</text>
<polygon fill="none" stroke="black" points="823.7,-1006 823.7,-1036.8 1130.64,-1036.8 1130.64,-1006 823.7,-1006"/>
<text text-anchor="start" x="830.7" y="-1018.2" font-family="Arial" font-size="14.00">requested_by_user_id </text>
<text text-anchor="start" x="973.14" y="-1018.2" font-family="Arial" font-size="14.00" fill="#666666">[bigint]</text>
<polygon fill="none" stroke="black" points="823.7,-975.2 823.7,-1006 1130.64,-1006 1130.64,-975.2 823.7,-975.2"/>
<text text-anchor="start" x="830.7" y="-987.4" font-family="Arial" font-size="14.00">report_id </text>
<text text-anchor="start" x="889.85" y="-987.4" font-family="Arial" font-size="14.00" fill="#666666">[bigint]</text>
</g>
<!-- public.change_requests&#45;&gt;public.reports -->
<g id="edge3" class="edge">
<title>public.change_requests:report_id&#45;&gt;public.reports:id</title>
<path fill="none" stroke="black" d="M812.85,-987.85C800.86,-978.91 811.68,-950.16 823.7,-932 845.46,-899.14 883.09,-928.93 904.74,-896 927.74,-861.02 947.61,-801.8 905.74,-801.8"/>
<polygon fill="black" stroke="black" points="812.75,-987.82 821.17,-994.84 817.89,-989.26 822.06,-990.42 822.06,-990.42 822.06,-990.42 817.89,-989.26 823.59,-986.18 812.75,-987.82"/>
</g>
<!-- public.prescription_histories -->
<g id="node5" class="node">
<title>public.prescription_histories</title>
<polygon fill="#efefef" stroke="none" points="1235.19,-1021.4 1235.19,-1057 1579.15,-1057 1579.15,-1021.4 1235.19,-1021.4"/>
<polygon fill="none" stroke="black" points="1235.19,-1021.4 1235.19,-1057 1579.15,-1057 1579.15,-1021.4 1235.19,-1021.4"/>
<text text-anchor="start" x="1242.19" y="-1034.8" font-family="Arial Bold" font-size="18.00">public.prescription_histories</text>
<text text-anchor="start" x="1447.66" y="-1034.8" font-family="Arial" font-size="14.00">    </text>
<text text-anchor="start" x="1478.77" y="-1034.8" font-family="Arial" font-size="14.00" fill="#666666">[BASE TABLE]</text>
<polygon fill="none" stroke="black" points="1235.19,-990.6 1235.19,-1021.4 1579.15,-1021.4 1579.15,-990.6 1235.19,-990.6"/>
<text text-anchor="start" x="1242.19" y="-1002.8" font-family="Arial" font-size="14.00">report_id </text>
<text text-anchor="start" x="1301.34" y="-1002.8" font-family="Arial" font-size="14.00" fill="#666666">[bigint]</text>
</g>
<!-- public.prescription_histories&#45;&gt;public.reports -->
<g id="edge4" class="edge">
<title>public.prescription_histories:report_id&#45;&gt;public.reports:id</title>
<path fill="none" stroke="black" d="M1224.09,-1004.69C1197.56,-996.8 1210.67,-955.3 1183.17,-932 1079.25,-843.94 1041.94,-801.8 905.74,-801.8"/>
<polygon fill="black" stroke="black" points="1223.95,-1004.67 1233.28,-1010.42 1229.24,-1005.36 1233.53,-1005.91 1233.53,-1005.91 1233.53,-1005.91 1229.24,-1005.36 1234.44,-1001.49 1223.95,-1004.67"/>
</g>
</g>
</svg>
