<?xml version="1.0" encoding="UTF-8" standalone="no"?>
<!DOCTYPE svg PUBLIC "-//W3C//DTD SVG 1.1//EN"
 "http://www.w3.org/Graphics/SVG/1.1/DTD/svg11.dtd">
<!-- Generated by graphviz version 12.1.2 (20240928.0832)
 -->
<!-- Title: public.branch_speciality Pages: 1 -->
<svg width="3135pt" height="1011pt"
 viewBox="0.00 0.00 3135.36 1011.40" xmlns="http://www.w3.org/2000/svg" xmlns:xlink="http://www.w3.org/1999/xlink">
<g id="graph0" class="graph" transform="scale(1 1) rotate(0) translate(4 1007.4)">
<title>public.branch_speciality</title>
<polygon fill="white" stroke="none" points="-4,4 -4,-1007.4 3131.36,-1007.4 3131.36,4 -4,4"/>
<!-- public.branch_speciality -->
<g id="node1" class="node">
<title>public.branch_speciality</title>
<polygon fill="#efefef" stroke="none" points="1960.22,-724.4 1960.22,-760 2275.15,-760 2275.15,-724.4 1960.22,-724.4"/>
<polygon fill="none" stroke="black" points="1960.22,-724.4 1960.22,-760 2275.15,-760 2275.15,-724.4 1960.22,-724.4"/>
<text text-anchor="start" x="1967.22" y="-737.8" font-family="Arial Bold" font-size="18.00">public.branch_speciality</text>
<text text-anchor="start" x="2143.66" y="-737.8" font-family="Arial" font-size="14.00">    </text>
<text text-anchor="start" x="2174.78" y="-737.8" font-family="Arial" font-size="14.00" fill="#666666">[BASE TABLE]</text>
<polygon fill="none" stroke="black" points="1960.22,-693.6 1960.22,-724.4 2275.15,-724.4 2275.15,-693.6 1960.22,-693.6"/>
<text text-anchor="start" x="1967.22" y="-705.8" font-family="Arial" font-size="14.00">branch_id </text>
<text text-anchor="start" x="2032.6" y="-705.8" font-family="Arial" font-size="14.00" fill="#666666">[bigint]</text>
<polygon fill="none" stroke="black" points="1960.22,-662.8 1960.22,-693.6 2275.15,-693.6 2275.15,-662.8 1960.22,-662.8"/>
<text text-anchor="start" x="1967.22" y="-675" font-family="Arial" font-size="14.00">speciality_id </text>
<text text-anchor="start" x="2047.37" y="-675" font-family="Arial" font-size="14.00" fill="#666666">[bigint]</text>
<polygon fill="none" stroke="black" stroke-width="3" points="1958.72,-661.3 1958.72,-761.5 2276.65,-761.5 2276.65,-661.3 1958.72,-661.3"/>
</g>
<!-- public.branches -->
<g id="node2" class="node">
<title>public.branches</title>
<polygon fill="#efefef" stroke="none" points="1031.71,-304.6 1031.71,-340.2 1283.66,-340.2 1283.66,-304.6 1031.71,-304.6"/>
<polygon fill="none" stroke="black" points="1031.71,-304.6 1031.71,-340.2 1283.66,-340.2 1283.66,-304.6 1031.71,-304.6"/>
<text text-anchor="start" x="1038.71" y="-318" font-family="Arial Bold" font-size="18.00">public.branches</text>
<text text-anchor="start" x="1152.17" y="-318" font-family="Arial" font-size="14.00">    </text>
<text text-anchor="start" x="1183.29" y="-318" font-family="Arial" font-size="14.00" fill="#666666">[BASE TABLE]</text>
<polygon fill="none" stroke="black" points="1031.71,-273.8 1031.71,-304.6 1283.66,-304.6 1283.66,-273.8 1031.71,-273.8"/>
<text text-anchor="start" x="1038.71" y="-286" font-family="Arial" font-size="14.00">id </text>
<text text-anchor="start" x="1053.5" y="-286" font-family="Arial" font-size="14.00" fill="#666666">[bigint]</text>
<polygon fill="none" stroke="black" points="1031.71,-243 1031.71,-273.8 1283.66,-273.8 1283.66,-243 1031.71,-243"/>
<text text-anchor="start" x="1038.71" y="-255.2" font-family="Arial" font-size="14.00">organization_id </text>
<text text-anchor="start" x="1137.56" y="-255.2" font-family="Arial" font-size="14.00" fill="#666666">[bigint]</text>
</g>
<!-- public.branch_speciality&#45;&gt;public.branches -->
<g id="edge1" class="edge">
<title>public.branch_speciality:branch_id&#45;&gt;public.branches:id</title>
<path fill="none" stroke="black" d="M1948.81,-708.54C1837.68,-697.98 1994.54,-510.4 1905.69,-419.4 1807.18,-318.51 1425.67,-289.2 1284.66,-289.2"/>
<polygon fill="black" stroke="black" points="1948.9,-708.54 1958.69,-713.48 1954.23,-708.78 1958.55,-708.97 1958.55,-708.97 1958.55,-708.97 1954.23,-708.78 1959.09,-704.49 1948.9,-708.54"/>
</g>
<!-- public.specialities -->
<g id="node9" class="node">
<title>public.specialities</title>
<polygon fill="#efefef" stroke="none" points="2396.71,-289.2 2396.71,-324.8 2664.66,-324.8 2664.66,-289.2 2396.71,-289.2"/>
<polygon fill="none" stroke="black" points="2396.71,-289.2 2396.71,-324.8 2664.66,-324.8 2664.66,-289.2 2396.71,-289.2"/>
<text text-anchor="start" x="2403.71" y="-302.6" font-family="Arial Bold" font-size="18.00">public.specialities</text>
<text text-anchor="start" x="2533.17" y="-302.6" font-family="Arial" font-size="14.00">    </text>
<text text-anchor="start" x="2564.29" y="-302.6" font-family="Arial" font-size="14.00" fill="#666666">[BASE TABLE]</text>
<polygon fill="none" stroke="black" points="2396.71,-258.4 2396.71,-289.2 2664.66,-289.2 2664.66,-258.4 2396.71,-258.4"/>
<text text-anchor="start" x="2403.71" y="-270.6" font-family="Arial" font-size="14.00">id </text>
<text text-anchor="start" x="2418.5" y="-270.6" font-family="Arial" font-size="14.00" fill="#666666">[bigint]</text>
</g>
<!-- public.branch_speciality&#45;&gt;public.specialities -->
<g id="edge8" class="edge">
<title>public.branch_speciality:speciality_id&#45;&gt;public.specialities:id</title>
<path fill="none" stroke="black" d="M2286.25,-675.91C2332.29,-653.41 2313.68,-471.81 2330.69,-419.4 2352.57,-351.99 2324.84,-273.8 2395.71,-273.8"/>
<polygon fill="black" stroke="black" points="2286.23,-675.91 2275.48,-673.74 2281.03,-677.09 2276.8,-678.05 2276.8,-678.05 2276.8,-678.05 2281.03,-677.09 2277.47,-682.51 2286.23,-675.91"/>
</g>
<!-- public.organizations -->
<g id="node8" class="node">
<title>public.organizations</title>
<polygon fill="#efefef" stroke="none" points="1015.21,-85 1015.21,-120.6 1300.16,-120.6 1300.16,-85 1015.21,-85"/>
<polygon fill="none" stroke="black" points="1015.21,-85 1015.21,-120.6 1300.16,-120.6 1300.16,-85 1015.21,-85"/>
<text text-anchor="start" x="1022.21" y="-98.4" font-family="Arial Bold" font-size="18.00">public.organizations</text>
<text text-anchor="start" x="1168.67" y="-98.4" font-family="Arial" font-size="14.00">    </text>
<text text-anchor="start" x="1199.79" y="-98.4" font-family="Arial" font-size="14.00" fill="#666666">[BASE TABLE]</text>
<polygon fill="none" stroke="black" points="1015.21,-54.2 1015.21,-85 1300.16,-85 1300.16,-54.2 1015.21,-54.2"/>
<text text-anchor="start" x="1022.21" y="-66.4" font-family="Arial" font-size="14.00">id </text>
<text text-anchor="start" x="1037" y="-66.4" font-family="Arial" font-size="14.00" fill="#666666">[bigint]</text>
</g>
<!-- public.branches&#45;&gt;public.organizations -->
<g id="edge7" class="edge">
<title>public.branches:organization_id&#45;&gt;public.organizations:id</title>
<path fill="none" stroke="black" d="M1158.36,-231.84C1168.71,-159.24 1295.87,-235.34 1343.36,-163.8 1370.3,-123.22 1377.71,-88.74 1343.36,-54.2 1285.17,4.31 1157.69,29.32 1157.69,-53.2"/>
<polygon fill="black" stroke="black" points="1158.37,-231.69 1153.22,-241.37 1158.02,-237.01 1157.73,-241.33 1157.73,-241.33 1157.73,-241.33 1158.02,-237.01 1162.2,-241.96 1158.37,-231.69"/>
</g>
<!-- public.users -->
<g id="node3" class="node">
<title>public.users</title>
<polygon fill="#efefef" stroke="none" points="43.2,-924.6 43.2,-960.2 268.17,-960.2 268.17,-924.6 43.2,-924.6"/>
<polygon fill="none" stroke="black" points="43.2,-924.6 43.2,-960.2 268.17,-960.2 268.17,-924.6 43.2,-924.6"/>
<text text-anchor="start" x="50.2" y="-938" font-family="Arial Bold" font-size="18.00">public.users</text>
<text text-anchor="start" x="136.68" y="-938" font-family="Arial" font-size="14.00">    </text>
<text text-anchor="start" x="167.8" y="-938" font-family="Arial" font-size="14.00" fill="#666666">[BASE TABLE]</text>
<polygon fill="none" stroke="black" points="43.2,-893.8 43.2,-924.6 268.17,-924.6 268.17,-893.8 43.2,-893.8"/>
<text text-anchor="start" x="50.2" y="-906" font-family="Arial" font-size="14.00">id </text>
<text text-anchor="start" x="64.99" y="-906" font-family="Arial" font-size="14.00" fill="#666666">[bigint]</text>
<polygon fill="none" stroke="black" points="43.2,-863 43.2,-893.8 268.17,-893.8 268.17,-863 43.2,-863"/>
<text text-anchor="start" x="50.2" y="-875.2" font-family="Arial" font-size="14.00">email </text>
<text text-anchor="start" x="87.54" y="-875.2" font-family="Arial" font-size="14.00" fill="#666666">[varchar(255)]</text>
<polygon fill="none" stroke="black" points="43.2,-832.2 43.2,-863 268.17,-863 268.17,-832.2 43.2,-832.2"/>
<text text-anchor="start" x="50.2" y="-844.4" font-family="Arial" font-size="14.00">branch_id </text>
<text text-anchor="start" x="115.58" y="-844.4" font-family="Arial" font-size="14.00" fill="#666666">[bigint]</text>
<polygon fill="none" stroke="black" points="43.2,-801.4 43.2,-832.2 268.17,-832.2 268.17,-801.4 43.2,-801.4"/>
<text text-anchor="start" x="50.2" y="-813.6" font-family="Arial" font-size="14.00">sex_id </text>
<text text-anchor="start" x="94.56" y="-813.6" font-family="Arial" font-size="14.00" fill="#666666">[bigint]</text>
<polygon fill="none" stroke="black" points="43.2,-770.6 43.2,-801.4 268.17,-801.4 268.17,-770.6 43.2,-770.6"/>
<text text-anchor="start" x="50.2" y="-782.8" font-family="Arial" font-size="14.00">user_status_id </text>
<text text-anchor="start" x="145.14" y="-782.8" font-family="Arial" font-size="14.00" fill="#666666">[bigint]</text>
<polygon fill="none" stroke="black" points="43.2,-739.8 43.2,-770.6 268.17,-770.6 268.17,-739.8 43.2,-739.8"/>
<text text-anchor="start" x="50.2" y="-752" font-family="Arial" font-size="14.00">nationality_id </text>
<text text-anchor="start" x="135.81" y="-752" font-family="Arial" font-size="14.00" fill="#666666">[bigint]</text>
<polygon fill="none" stroke="black" points="43.2,-709 43.2,-739.8 268.17,-739.8 268.17,-709 43.2,-709"/>
<text text-anchor="start" x="50.2" y="-721.2" font-family="Arial" font-size="14.00">city_id </text>
<text text-anchor="start" x="93.77" y="-721.2" font-family="Arial" font-size="14.00" fill="#666666">[bigint]</text>
<polygon fill="none" stroke="black" points="43.2,-678.2 43.2,-709 268.17,-709 268.17,-678.2 43.2,-678.2"/>
<text text-anchor="start" x="50.2" y="-690.4" font-family="Arial" font-size="14.00">image_id </text>
<text text-anchor="start" x="110.9" y="-690.4" font-family="Arial" font-size="14.00" fill="#666666">[bigint]</text>
<polygon fill="none" stroke="black" points="43.2,-647.4 43.2,-678.2 268.17,-678.2 268.17,-647.4 43.2,-647.4"/>
<text text-anchor="start" x="50.2" y="-659.6" font-family="Arial" font-size="14.00">signature_image_id </text>
<text text-anchor="start" x="176.28" y="-659.6" font-family="Arial" font-size="14.00" fill="#666666">[bigint]</text>
<polygon fill="none" stroke="black" points="43.2,-616.6 43.2,-647.4 268.17,-647.4 268.17,-616.6 43.2,-616.6"/>
<text text-anchor="start" x="50.2" y="-628.8" font-family="Arial" font-size="14.00">position_id </text>
<text text-anchor="start" x="121.03" y="-628.8" font-family="Arial" font-size="14.00" fill="#666666">[bigint]</text>
<polygon fill="none" stroke="black" points="43.2,-585.8 43.2,-616.6 268.17,-616.6 268.17,-585.8 43.2,-585.8"/>
<text text-anchor="start" x="50.2" y="-598" font-family="Arial" font-size="14.00">mobile_number_id </text>
<text text-anchor="start" x="169.27" y="-598" font-family="Arial" font-size="14.00" fill="#666666">[bigint]</text>
<polygon fill="none" stroke="black" points="43.2,-555 43.2,-585.8 268.17,-585.8 268.17,-555 43.2,-555"/>
<text text-anchor="start" x="50.2" y="-567.2" font-family="Arial" font-size="14.00">home_number_id </text>
<text text-anchor="start" x="163.05" y="-567.2" font-family="Arial" font-size="14.00" fill="#666666">[bigint]</text>
<polygon fill="none" stroke="black" points="43.2,-524.2 43.2,-555 268.17,-555 268.17,-524.2 43.2,-524.2"/>
<text text-anchor="start" x="50.2" y="-536.4" font-family="Arial" font-size="14.00">bank_id </text>
<text text-anchor="start" x="103.13" y="-536.4" font-family="Arial" font-size="14.00" fill="#666666">[bigint]</text>
<polygon fill="none" stroke="black" points="43.2,-493.4 43.2,-524.2 268.17,-524.2 268.17,-493.4 43.2,-493.4"/>
<text text-anchor="start" x="50.2" y="-505.6" font-family="Arial" font-size="14.00">created_by_user_id </text>
<text text-anchor="start" x="177.06" y="-505.6" font-family="Arial" font-size="14.00" fill="#666666">[bigint]</text>
<polygon fill="none" stroke="black" points="43.2,-462.6 43.2,-493.4 268.17,-493.4 268.17,-462.6 43.2,-462.6"/>
<text text-anchor="start" x="50.2" y="-474.8" font-family="Arial" font-size="14.00">profile_status_id </text>
<text text-anchor="start" x="156.04" y="-474.8" font-family="Arial" font-size="14.00" fill="#666666">[bigint]</text>
</g>
<!-- public.users&#45;&gt;public.branches -->
<g id="edge2" class="edge">
<title>public.users:branch_id&#45;&gt;public.branches:id</title>
<path fill="none" stroke="black" d="M279.49,-846C356.69,-820.04 257.6,-486.5 320.69,-419.4 430.57,-302.53 870.3,-289.2 1030.71,-289.2"/>
<polygon fill="black" stroke="black" points="279.39,-846.01 268.81,-843.1 274.11,-846.83 269.83,-847.5 269.83,-847.5 269.83,-847.5 274.11,-846.83 270.19,-852 279.39,-846.01"/>
</g>
<!-- public.branch_position -->
<g id="node4" class="node">
<title>public.branch_position</title>
<polygon fill="#efefef" stroke="none" points="372.71,-724.4 372.71,-760 676.67,-760 676.67,-724.4 372.71,-724.4"/>
<polygon fill="none" stroke="black" points="372.71,-724.4 372.71,-760 676.67,-760 676.67,-724.4 372.71,-724.4"/>
<text text-anchor="start" x="379.71" y="-737.8" font-family="Arial Bold" font-size="18.00">public.branch_position</text>
<text text-anchor="start" x="545.18" y="-737.8" font-family="Arial" font-size="14.00">    </text>
<text text-anchor="start" x="576.3" y="-737.8" font-family="Arial" font-size="14.00" fill="#666666">[BASE TABLE]</text>
<polygon fill="none" stroke="black" points="372.71,-693.6 372.71,-724.4 676.67,-724.4 676.67,-693.6 372.71,-693.6"/>
<text text-anchor="start" x="379.71" y="-705.8" font-family="Arial" font-size="14.00">branch_id </text>
<text text-anchor="start" x="445.09" y="-705.8" font-family="Arial" font-size="14.00" fill="#666666">[bigint]</text>
<polygon fill="none" stroke="black" points="372.71,-662.8 372.71,-693.6 676.67,-693.6 676.67,-662.8 372.71,-662.8"/>
<text text-anchor="start" x="379.71" y="-675" font-family="Arial" font-size="14.00">position_id </text>
<text text-anchor="start" x="450.53" y="-675" font-family="Arial" font-size="14.00" fill="#666666">[bigint]</text>
</g>
<!-- public.branch_position&#45;&gt;public.branches -->
<g id="edge3" class="edge">
<title>public.branch_position:branch_id&#45;&gt;public.branches:id</title>
<path fill="none" stroke="black" d="M687.65,-706.78C737.11,-682.6 690.45,-467.75 728.69,-419.4 819.35,-304.74 884.54,-289.2 1030.71,-289.2"/>
<polygon fill="black" stroke="black" points="687.76,-706.76 677.02,-704.53 682.55,-707.92 678.32,-708.86 678.32,-708.86 678.32,-708.86 682.55,-707.92 678.97,-713.32 687.76,-706.76"/>
</g>
<!-- public.branch_contract_type -->
<g id="node5" class="node">
<title>public.branch_contract_type</title>
<polygon fill="#efefef" stroke="none" points="780.73,-724.4 780.73,-760 1124.64,-760 1124.64,-724.4 780.73,-724.4"/>
<polygon fill="none" stroke="black" points="780.73,-724.4 780.73,-760 1124.64,-760 1124.64,-724.4 780.73,-724.4"/>
<text text-anchor="start" x="787.73" y="-737.8" font-family="Arial Bold" font-size="18.00">public.branch_contract_type</text>
<text text-anchor="start" x="993.15" y="-737.8" font-family="Arial" font-size="14.00">    </text>
<text text-anchor="start" x="1024.27" y="-737.8" font-family="Arial" font-size="14.00" fill="#666666">[BASE TABLE]</text>
<polygon fill="none" stroke="black" points="780.73,-693.6 780.73,-724.4 1124.64,-724.4 1124.64,-693.6 780.73,-693.6"/>
<text text-anchor="start" x="787.73" y="-705.8" font-family="Arial" font-size="14.00">branch_id </text>
<text text-anchor="start" x="853.11" y="-705.8" font-family="Arial" font-size="14.00" fill="#666666">[bigint]</text>
<polygon fill="none" stroke="black" points="780.73,-662.8 780.73,-693.6 1124.64,-693.6 1124.64,-662.8 780.73,-662.8"/>
<text text-anchor="start" x="787.73" y="-675" font-family="Arial" font-size="14.00">contract_type_id </text>
<text text-anchor="start" x="894.35" y="-675" font-family="Arial" font-size="14.00" fill="#666666">[bigint]</text>
</g>
<!-- public.branch_contract_type&#45;&gt;public.branches -->
<g id="edge4" class="edge">
<title>public.branch_contract_type:branch_id&#45;&gt;public.branches:id</title>
<path fill="none" stroke="black" d="M1135.61,-708.57C1299.44,-693.57 842.97,-289.2 1030.71,-289.2"/>
<polygon fill="black" stroke="black" points="1135.97,-708.56 1125.78,-704.49 1130.64,-708.79 1126.31,-708.97 1126.31,-708.97 1126.31,-708.97 1130.64,-708.79 1126.17,-713.48 1135.97,-708.56"/>
</g>
<!-- public.companies -->
<g id="node6" class="node">
<title>public.companies</title>
<polygon fill="#efefef" stroke="none" points="1229.21,-816.8 1229.21,-852.4 1494.16,-852.4 1494.16,-816.8 1229.21,-816.8"/>
<polygon fill="none" stroke="black" points="1229.21,-816.8 1229.21,-852.4 1494.16,-852.4 1494.16,-816.8 1229.21,-816.8"/>
<text text-anchor="start" x="1236.21" y="-830.2" font-family="Arial Bold" font-size="18.00">public.companies</text>
<text text-anchor="start" x="1362.68" y="-830.2" font-family="Arial" font-size="14.00">    </text>
<text text-anchor="start" x="1393.79" y="-830.2" font-family="Arial" font-size="14.00" fill="#666666">[BASE TABLE]</text>
<polygon fill="none" stroke="black" points="1229.21,-786 1229.21,-816.8 1494.16,-816.8 1494.16,-786 1229.21,-786"/>
<text text-anchor="start" x="1236.21" y="-798.2" font-family="Arial" font-size="14.00">id </text>
<text text-anchor="start" x="1251" y="-798.2" font-family="Arial" font-size="14.00" fill="#666666">[bigint]</text>
<polygon fill="none" stroke="black" points="1229.21,-755.2 1229.21,-786 1494.16,-786 1494.16,-755.2 1229.21,-755.2"/>
<text text-anchor="start" x="1236.21" y="-767.4" font-family="Arial" font-size="14.00">branch_id </text>
<text text-anchor="start" x="1301.59" y="-767.4" font-family="Arial" font-size="14.00" fill="#666666">[integer]</text>
<polygon fill="none" stroke="black" points="1229.21,-724.4 1229.21,-755.2 1494.16,-755.2 1494.16,-724.4 1229.21,-724.4"/>
<text text-anchor="start" x="1236.21" y="-736.6" font-family="Arial" font-size="14.00">logo_id </text>
<text text-anchor="start" x="1285.25" y="-736.6" font-family="Arial" font-size="14.00" fill="#666666">[bigint]</text>
<polygon fill="none" stroke="black" points="1229.21,-693.6 1229.21,-724.4 1494.16,-724.4 1494.16,-693.6 1229.21,-693.6"/>
<text text-anchor="start" x="1236.21" y="-705.8" font-family="Arial" font-size="14.00">city_id </text>
<text text-anchor="start" x="1279.78" y="-705.8" font-family="Arial" font-size="14.00" fill="#666666">[bigint]</text>
<polygon fill="none" stroke="black" points="1229.21,-662.8 1229.21,-693.6 1494.16,-693.6 1494.16,-662.8 1229.21,-662.8"/>
<text text-anchor="start" x="1236.21" y="-675" font-family="Arial" font-size="14.00">phone_number_id </text>
<text text-anchor="start" x="1352.97" y="-675" font-family="Arial" font-size="14.00" fill="#666666">[bigint]</text>
<polygon fill="none" stroke="black" points="1229.21,-632 1229.21,-662.8 1494.16,-662.8 1494.16,-632 1229.21,-632"/>
<text text-anchor="start" x="1236.21" y="-644.2" font-family="Arial" font-size="14.00">created_by_user_id </text>
<text text-anchor="start" x="1363.07" y="-644.2" font-family="Arial" font-size="14.00" fill="#666666">[integer]</text>
<polygon fill="none" stroke="black" points="1229.21,-601.2 1229.21,-632 1494.16,-632 1494.16,-601.2 1229.21,-601.2"/>
<text text-anchor="start" x="1236.21" y="-613.4" font-family="Arial" font-size="14.00">owned_by_user_id </text>
<text text-anchor="start" x="1357.63" y="-613.4" font-family="Arial" font-size="14.00" fill="#666666">[integer]</text>
<polygon fill="none" stroke="black" points="1229.21,-570.4 1229.21,-601.2 1494.16,-601.2 1494.16,-570.4 1229.21,-570.4"/>
<text text-anchor="start" x="1236.21" y="-582.6" font-family="Arial" font-size="14.00">supervisor_user_id </text>
<text text-anchor="start" x="1358.38" y="-582.6" font-family="Arial" font-size="14.00" fill="#666666">[bigint]</text>
</g>
<!-- public.companies&#45;&gt;public.branches -->
<g id="edge5" class="edge">
<title>public.companies:branch_id&#45;&gt;public.branches:id</title>
<path fill="none" stroke="black" d="M1218.23,-767.89C1180.31,-744.53 1220.06,-576.65 1229.21,-527.2 1241.65,-460 1271,-450.56 1283.66,-383.4 1291.42,-342.26 1326.53,-289.2 1284.66,-289.2"/>
<polygon fill="black" stroke="black" points="1218.24,-767.9 1226.71,-774.86 1223.38,-769.29 1227.56,-770.43 1227.56,-770.43 1227.56,-770.43 1223.38,-769.29 1229.06,-766.17 1218.24,-767.9"/>
</g>
<!-- public.checkups -->
<g id="node7" class="node">
<title>public.checkups</title>
<polygon fill="#efefef" stroke="none" points="1598.21,-786 1598.21,-821.6 1853.16,-821.6 1853.16,-786 1598.21,-786"/>
<polygon fill="none" stroke="black" points="1598.21,-786 1598.21,-821.6 1853.16,-821.6 1853.16,-786 1598.21,-786"/>
<text text-anchor="start" x="1605.21" y="-799.4" font-family="Arial Bold" font-size="18.00">public.checkups</text>
<text text-anchor="start" x="1721.67" y="-799.4" font-family="Arial" font-size="14.00">    </text>
<text text-anchor="start" x="1752.79" y="-799.4" font-family="Arial" font-size="14.00" fill="#666666">[BASE TABLE]</text>
<polygon fill="none" stroke="black" points="1598.21,-755.2 1598.21,-786 1853.16,-786 1853.16,-755.2 1598.21,-755.2"/>
<text text-anchor="start" x="1605.21" y="-767.4" font-family="Arial" font-size="14.00">id </text>
<text text-anchor="start" x="1620" y="-767.4" font-family="Arial" font-size="14.00" fill="#666666">[bigint]</text>
<polygon fill="none" stroke="black" points="1598.21,-724.4 1598.21,-755.2 1853.16,-755.2 1853.16,-724.4 1598.21,-724.4"/>
<text text-anchor="start" x="1605.21" y="-736.6" font-family="Arial" font-size="14.00">patient_id </text>
<text text-anchor="start" x="1669.82" y="-736.6" font-family="Arial" font-size="14.00" fill="#666666">[bigint]</text>
<polygon fill="none" stroke="black" points="1598.21,-693.6 1598.21,-724.4 1853.16,-724.4 1853.16,-693.6 1598.21,-693.6"/>
<text text-anchor="start" x="1605.21" y="-705.8" font-family="Arial" font-size="14.00">branch_id </text>
<text text-anchor="start" x="1670.59" y="-705.8" font-family="Arial" font-size="14.00" fill="#666666">[bigint]</text>
<polygon fill="none" stroke="black" points="1598.21,-662.8 1598.21,-693.6 1853.16,-693.6 1853.16,-662.8 1598.21,-662.8"/>
<text text-anchor="start" x="1605.21" y="-675" font-family="Arial" font-size="14.00">created_by_user_id </text>
<text text-anchor="start" x="1732.07" y="-675" font-family="Arial" font-size="14.00" fill="#666666">[bigint]</text>
<polygon fill="none" stroke="black" points="1598.21,-632 1598.21,-662.8 1853.16,-662.8 1853.16,-632 1598.21,-632"/>
<text text-anchor="start" x="1605.21" y="-644.2" font-family="Arial" font-size="14.00">company_lot_id </text>
<text text-anchor="start" x="1707.16" y="-644.2" font-family="Arial" font-size="14.00" fill="#666666">[bigint]</text>
<polygon fill="none" stroke="black" points="1598.21,-601.2 1598.21,-632 1853.16,-632 1853.16,-601.2 1598.21,-601.2"/>
<text text-anchor="start" x="1605.21" y="-613.4" font-family="Arial" font-size="14.00">company_id </text>
<text text-anchor="start" x="1684.59" y="-613.4" font-family="Arial" font-size="14.00" fill="#666666">[bigint]</text>
</g>
<!-- public.checkups&#45;&gt;public.branches -->
<g id="edge6" class="edge">
<title>public.checkups:branch_id&#45;&gt;public.branches:id</title>
<path fill="none" stroke="black" d="M1587.22,-706.79C1537.69,-682.72 1583.55,-468.79 1546.69,-419.4 1468.9,-315.19 1414.7,-289.2 1284.66,-289.2"/>
<polygon fill="black" stroke="black" points="1587.12,-706.77 1595.91,-713.32 1592.33,-707.92 1596.56,-708.86 1596.56,-708.86 1596.56,-708.86 1592.33,-707.92 1597.85,-704.53 1587.12,-706.77"/>
</g>
<!-- public.speciality_user -->
<g id="node10" class="node">
<title>public.speciality_user</title>
<polygon fill="#efefef" stroke="none" points="2382.71,-724.4 2382.71,-760 2678.66,-760 2678.66,-724.4 2382.71,-724.4"/>
<polygon fill="none" stroke="black" points="2382.71,-724.4 2382.71,-760 2678.66,-760 2678.66,-724.4 2382.71,-724.4"/>
<text text-anchor="start" x="2389.71" y="-737.8" font-family="Arial Bold" font-size="18.00">public.speciality_user</text>
<text text-anchor="start" x="2547.17" y="-737.8" font-family="Arial" font-size="14.00">    </text>
<text text-anchor="start" x="2578.29" y="-737.8" font-family="Arial" font-size="14.00" fill="#666666">[BASE TABLE]</text>
<polygon fill="none" stroke="black" points="2382.71,-693.6 2382.71,-724.4 2678.66,-724.4 2678.66,-693.6 2382.71,-693.6"/>
<text text-anchor="start" x="2389.71" y="-705.8" font-family="Arial" font-size="14.00">speciality_id </text>
<text text-anchor="start" x="2469.87" y="-705.8" font-family="Arial" font-size="14.00" fill="#666666">[bigint]</text>
<polygon fill="none" stroke="black" points="2382.71,-662.8 2382.71,-693.6 2678.66,-693.6 2678.66,-662.8 2382.71,-662.8"/>
<text text-anchor="start" x="2389.71" y="-675" font-family="Arial" font-size="14.00">user_id </text>
<text text-anchor="start" x="2439.52" y="-675" font-family="Arial" font-size="14.00" fill="#666666">[bigint]</text>
</g>
<!-- public.speciality_user&#45;&gt;public.specialities -->
<g id="edge9" class="edge">
<title>public.speciality_user:speciality_id&#45;&gt;public.specialities:id</title>
<path fill="none" stroke="black" d="M2688.63,-704.33C2731.31,-658.6 2741.02,-291.75 2707.86,-258.4 2652.34,-202.56 2530.69,-178.65 2530.69,-257.4"/>
<polygon fill="black" stroke="black" points="2688.83,-704.23 2677.88,-704.85 2684.09,-706.69 2680.25,-708.69 2680.25,-708.69 2680.25,-708.69 2684.09,-706.69 2682.03,-712.84 2688.83,-704.23"/>
</g>
<!-- public.form_speciality -->
<g id="node11" class="node">
<title>public.form_speciality</title>
<polygon fill="#efefef" stroke="none" points="2783.21,-724.4 2783.21,-760 3084.16,-760 3084.16,-724.4 2783.21,-724.4"/>
<polygon fill="none" stroke="black" points="2783.21,-724.4 2783.21,-760 3084.16,-760 3084.16,-724.4 2783.21,-724.4"/>
<text text-anchor="start" x="2790.21" y="-737.8" font-family="Arial Bold" font-size="18.00">public.form_speciality</text>
<text text-anchor="start" x="2952.67" y="-737.8" font-family="Arial" font-size="14.00">    </text>
<text text-anchor="start" x="2983.79" y="-737.8" font-family="Arial" font-size="14.00" fill="#666666">[BASE TABLE]</text>
<polygon fill="none" stroke="black" points="2783.21,-693.6 2783.21,-724.4 3084.16,-724.4 3084.16,-693.6 2783.21,-693.6"/>
<text text-anchor="start" x="2790.21" y="-705.8" font-family="Arial" font-size="14.00">form_id </text>
<text text-anchor="start" x="2840.79" y="-705.8" font-family="Arial" font-size="14.00" fill="#666666">[bigint]</text>
<polygon fill="none" stroke="black" points="2783.21,-662.8 2783.21,-693.6 3084.16,-693.6 3084.16,-662.8 2783.21,-662.8"/>
<text text-anchor="start" x="2790.21" y="-675" font-family="Arial" font-size="14.00">speciality_id </text>
<text text-anchor="start" x="2870.37" y="-675" font-family="Arial" font-size="14.00" fill="#666666">[bigint]</text>
</g>
<!-- public.form_speciality&#45;&gt;public.specialities -->
<g id="edge10" class="edge">
<title>public.form_speciality:speciality_id&#45;&gt;public.specialities:id</title>
<path fill="none" stroke="black" d="M2772.17,-675.91C2726.52,-653.41 2747.37,-471.78 2730.69,-419.4 2709.18,-351.87 2736.53,-273.8 2665.66,-273.8"/>
<polygon fill="black" stroke="black" points="2772.14,-675.9 2780.89,-682.51 2777.34,-677.09 2781.56,-678.05 2781.56,-678.05 2781.56,-678.05 2777.34,-677.09 2782.89,-673.74 2772.14,-675.9"/>
</g>
</g>
</svg>
