<?xml version="1.0" encoding="UTF-8" standalone="no"?>
<!DOCTYPE svg PUBLIC "-//W3C//DTD SVG 1.1//EN"
 "http://www.w3.org/Graphics/SVG/1.1/DTD/svg11.dtd">
<!-- Generated by graphviz version 12.1.2 (20240928.0832)
 -->
<!-- Title: public.permissions Pages: 1 -->
<svg width="904pt" height="386pt"
 viewBox="0.00 0.00 903.86 386.40" xmlns="http://www.w3.org/2000/svg" xmlns:xlink="http://www.w3.org/1999/xlink">
<g id="graph0" class="graph" transform="scale(1 1) rotate(0) translate(4 382.4)">
<title>public.permissions</title>
<polygon fill="white" stroke="none" points="-4,4 -4,-382.4 899.86,-382.4 899.86,4 -4,4"/>
<!-- public.permissions -->
<g id="node1" class="node">
<title>public.permissions</title>
<polygon fill="#efefef" stroke="none" points="137.69,-77 137.69,-112.6 411.67,-112.6 411.67,-77 137.69,-77"/>
<polygon fill="none" stroke="black" points="137.69,-77 137.69,-112.6 411.67,-112.6 411.67,-77 137.69,-77"/>
<text text-anchor="start" x="144.69" y="-90.4" font-family="Arial Bold" font-size="18.00">public.permissions</text>
<text text-anchor="start" x="280.18" y="-90.4" font-family="Arial" font-size="14.00">    </text>
<text text-anchor="start" x="311.3" y="-90.4" font-family="Arial" font-size="14.00" fill="#666666">[BASE TABLE]</text>
<polygon fill="none" stroke="black" points="137.69,-46.2 137.69,-77 411.67,-77 411.67,-46.2 137.69,-46.2"/>
<text text-anchor="start" x="144.69" y="-58.4" font-family="Arial" font-size="14.00">id </text>
<text text-anchor="start" x="159.48" y="-58.4" font-family="Arial" font-size="14.00" fill="#666666">[bigint]</text>
<polygon fill="none" stroke="black" stroke-width="3" points="136.19,-44.7 136.19,-114.1 413.17,-114.1 413.17,-44.7 136.19,-44.7"/>
</g>
<!-- public.model_has_permissions -->
<g id="node2" class="node">
<title>public.model_has_permissions</title>
<polygon fill="#efefef" stroke="none" points="43.2,-284.2 43.2,-319.8 404.17,-319.8 404.17,-284.2 43.2,-284.2"/>
<polygon fill="none" stroke="black" points="43.2,-284.2 43.2,-319.8 404.17,-319.8 404.17,-284.2 43.2,-284.2"/>
<text text-anchor="start" x="50.2" y="-297.6" font-family="Arial Bold" font-size="18.00">public.model_has_permissions</text>
<text text-anchor="start" x="272.68" y="-297.6" font-family="Arial" font-size="14.00">    </text>
<text text-anchor="start" x="303.79" y="-297.6" font-family="Arial" font-size="14.00" fill="#666666">[BASE TABLE]</text>
<polygon fill="none" stroke="black" points="43.2,-253.4 43.2,-284.2 404.17,-284.2 404.17,-253.4 43.2,-253.4"/>
<text text-anchor="start" x="50.2" y="-265.6" font-family="Arial" font-size="14.00">permission_id </text>
<text text-anchor="start" x="140.46" y="-265.6" font-family="Arial" font-size="14.00" fill="#666666">[bigint]</text>
</g>
<!-- public.model_has_permissions&#45;&gt;public.permissions -->
<g id="edge1" class="edge">
<title>public.model_has_permissions:permission_id&#45;&gt;public.permissions:id</title>
<path fill="none" stroke="black" d="M222.85,-242.06C215.22,-197.66 157.09,-207.84 137.69,-158.8 121.8,-118.63 93.49,-61.6 136.69,-61.6"/>
<polygon fill="black" stroke="black" points="222.86,-242.1 219.17,-252.43 223.28,-247.42 223.63,-251.73 223.63,-251.73 223.63,-251.73 223.28,-247.42 228.14,-251.71 222.86,-242.1"/>
</g>
<!-- public.role_has_permissions -->
<g id="node3" class="node">
<title>public.role_has_permissions</title>
<polygon fill="#efefef" stroke="none" points="508.7,-299.6 508.7,-335.2 852.66,-335.2 852.66,-299.6 508.7,-299.6"/>
<polygon fill="none" stroke="black" points="508.7,-299.6 508.7,-335.2 852.66,-335.2 852.66,-299.6 508.7,-299.6"/>
<text text-anchor="start" x="515.7" y="-313" font-family="Arial Bold" font-size="18.00">public.role_has_permissions</text>
<text text-anchor="start" x="721.17" y="-313" font-family="Arial" font-size="14.00">    </text>
<text text-anchor="start" x="752.29" y="-313" font-family="Arial" font-size="14.00" fill="#666666">[BASE TABLE]</text>
<polygon fill="none" stroke="black" points="508.7,-268.8 508.7,-299.6 852.66,-299.6 852.66,-268.8 508.7,-268.8"/>
<text text-anchor="start" x="515.7" y="-281" font-family="Arial" font-size="14.00">permission_id </text>
<text text-anchor="start" x="605.97" y="-281" font-family="Arial" font-size="14.00" fill="#666666">[bigint]</text>
<polygon fill="none" stroke="black" points="508.7,-238 508.7,-268.8 852.66,-268.8 852.66,-238 508.7,-238"/>
<text text-anchor="start" x="515.7" y="-250.2" font-family="Arial" font-size="14.00">role_id </text>
<text text-anchor="start" x="561.62" y="-250.2" font-family="Arial" font-size="14.00" fill="#666666">[bigint]</text>
</g>
<!-- public.role_has_permissions&#45;&gt;public.permissions -->
<g id="edge2" class="edge">
<title>public.role_has_permissions:permission_id&#45;&gt;public.permissions:id</title>
<path fill="none" stroke="black" d="M497.45,-283.44C408.08,-269.24 516.57,-61.6 412.67,-61.6"/>
<polygon fill="black" stroke="black" points="497.4,-283.43 507.04,-288.66 502.72,-283.83 507.04,-284.15 507.04,-284.15 507.04,-284.15 502.72,-283.83 507.7,-279.69 497.4,-283.43"/>
</g>
<!-- public.roles -->
<g id="node4" class="node">
<title>public.roles</title>
<polygon fill="#efefef" stroke="none" points="569.2,-77 569.2,-112.6 792.17,-112.6 792.17,-77 569.2,-77"/>
<polygon fill="none" stroke="black" points="569.2,-77 569.2,-112.6 792.17,-112.6 792.17,-77 569.2,-77"/>
<text text-anchor="start" x="576.2" y="-90.4" font-family="Arial Bold" font-size="18.00">public.roles</text>
<text text-anchor="start" x="660.68" y="-90.4" font-family="Arial" font-size="14.00">    </text>
<text text-anchor="start" x="691.8" y="-90.4" font-family="Arial" font-size="14.00" fill="#666666">[BASE TABLE]</text>
<polygon fill="none" stroke="black" points="569.2,-46.2 569.2,-77 792.17,-77 792.17,-46.2 569.2,-46.2"/>
<text text-anchor="start" x="576.2" y="-58.4" font-family="Arial" font-size="14.00">id </text>
<text text-anchor="start" x="590.98" y="-58.4" font-family="Arial" font-size="14.00" fill="#666666">[bigint]</text>
</g>
<!-- public.role_has_permissions&#45;&gt;public.roles -->
<g id="edge3" class="edge">
<title>public.role_has_permissions:role_id&#45;&gt;public.roles:id</title>
<path fill="none" stroke="black" d="M681.48,-226.6C691.69,-165.19 797.16,-219 835.37,-155.8 860.57,-114.11 869.7,-80.76 835.37,-46.2 786.91,2.57 680.68,23.55 680.68,-45.2"/>
<polygon fill="black" stroke="black" points="681.47,-226.7 676.22,-236.32 681.07,-232.01 680.73,-236.33 680.73,-236.33 680.73,-236.33 681.07,-232.01 685.2,-237.01 681.47,-226.7"/>
</g>
</g>
</svg>
