<?xml version="1.0" encoding="UTF-8" standalone="no"?>
<!DOCTYPE svg PUBLIC "-//W3C//DTD SVG 1.1//EN"
 "http://www.w3.org/Graphics/SVG/1.1/DTD/svg11.dtd">
<!-- Generated by graphviz version 12.1.2 (20240928.0832)
 -->
<!-- Title: public.batch_samples Pages: 1 -->
<svg width="394pt" height="360pt"
 viewBox="0.00 0.00 394.35 360.40" xmlns="http://www.w3.org/2000/svg" xmlns:xlink="http://www.w3.org/1999/xlink">
<g id="graph0" class="graph" transform="scale(1 1) rotate(0) translate(4 356.4)">
<title>public.batch_samples</title>
<polygon fill="white" stroke="none" points="-4,4 -4,-356.4 390.35,-356.4 390.35,4 -4,4"/>
<!-- public.batch_samples -->
<g id="node1" class="node">
<title>public.batch_samples</title>
<polygon fill="#efefef" stroke="none" points="46.2,-270.6 46.2,-306.2 340.15,-306.2 340.15,-270.6 46.2,-270.6"/>
<polygon fill="none" stroke="black" points="46.2,-270.6 46.2,-306.2 340.15,-306.2 340.15,-270.6 46.2,-270.6"/>
<text text-anchor="start" x="53.2" y="-284" font-family="Arial Bold" font-size="18.00">public.batch_samples</text>
<text text-anchor="start" x="208.66" y="-284" font-family="Arial" font-size="14.00">    </text>
<text text-anchor="start" x="239.78" y="-284" font-family="Arial" font-size="14.00" fill="#666666">[BASE TABLE]</text>
<polygon fill="none" stroke="black" points="46.2,-239.8 46.2,-270.6 340.15,-270.6 340.15,-239.8 46.2,-239.8"/>
<text text-anchor="start" x="53.2" y="-252" font-family="Arial" font-size="14.00">batch_id </text>
<text text-anchor="start" x="110.02" y="-252" font-family="Arial" font-size="14.00" fill="#666666">[bigint]</text>
<polygon fill="none" stroke="black" stroke-width="3" points="44.7,-238.3 44.7,-307.7 341.65,-307.7 341.65,-238.3 44.7,-238.3"/>
</g>
<!-- public.batches -->
<g id="node2" class="node">
<title>public.batches</title>
<polygon fill="#efefef" stroke="none" points="72.2,-78.8 72.2,-114.4 314.15,-114.4 314.15,-78.8 72.2,-78.8"/>
<polygon fill="none" stroke="black" points="72.2,-78.8 72.2,-114.4 314.15,-114.4 314.15,-78.8 72.2,-78.8"/>
<text text-anchor="start" x="79.2" y="-92.2" font-family="Arial Bold" font-size="18.00">public.batches</text>
<text text-anchor="start" x="182.66" y="-92.2" font-family="Arial" font-size="14.00">    </text>
<text text-anchor="start" x="213.78" y="-92.2" font-family="Arial" font-size="14.00" fill="#666666">[BASE TABLE]</text>
<polygon fill="none" stroke="black" points="72.2,-48 72.2,-78.8 314.15,-78.8 314.15,-48 72.2,-48"/>
<text text-anchor="start" x="79.2" y="-60.2" font-family="Arial" font-size="14.00">id </text>
<text text-anchor="start" x="93.98" y="-60.2" font-family="Arial" font-size="14.00" fill="#666666">[bigint]</text>
</g>
<!-- public.batch_samples&#45;&gt;public.batches -->
<g id="edge1" class="edge">
<title>public.batch_samples:batch_id&#45;&gt;public.batches:id</title>
<path fill="none" stroke="black" d="M193.89,-228.71C203.91,-163.34 316.33,-223.64 357.35,-157.6 383.05,-116.22 391.69,-82.55 357.35,-48 305.91,3.76 193.18,25.97 193.18,-47"/>
<polygon fill="black" stroke="black" points="193.91,-228.49 188.71,-238.14 193.53,-233.81 193.22,-238.13 193.22,-238.13 193.22,-238.13 193.53,-233.81 197.69,-238.78 193.91,-228.49"/>
</g>
</g>
</svg>
