<?xml version="1.0" encoding="UTF-8" standalone="no"?>
<!DOCTYPE svg PUBLIC "-//W3C//DTD SVG 1.1//EN"
 "http://www.w3.org/Graphics/SVG/1.1/DTD/svg11.dtd">
<!-- Generated by graphviz version 12.1.2 (20240928.0832)
 -->
<!-- Title: public.batch_outsource_samples Pages: 1 -->
<svg width="473pt" height="372pt"
 viewBox="0.00 0.00 473.33 371.79" xmlns="http://www.w3.org/2000/svg" xmlns:xlink="http://www.w3.org/1999/xlink">
<g id="graph0" class="graph" transform="scale(1 1) rotate(0) translate(4 367.79)">
<title>public.batch_outsource_samples</title>
<polygon fill="white" stroke="none" points="-4,4 -4,-367.79 469.33,-367.79 469.33,4 -4,4"/>
<!-- public.batch_outsource_samples -->
<g id="node1" class="node">
<title>public.batch_outsource_samples</title>
<polygon fill="#efefef" stroke="none" points="46.2,-281.99 46.2,-317.59 419.13,-317.59 419.13,-281.99 46.2,-281.99"/>
<polygon fill="none" stroke="black" points="46.2,-281.99 46.2,-317.59 419.13,-317.59 419.13,-281.99 46.2,-281.99"/>
<text text-anchor="start" x="53.2" y="-295.39" font-family="Arial Bold" font-size="18.00">public.batch_outsource_samples</text>
<text text-anchor="start" x="287.64" y="-295.39" font-family="Arial" font-size="14.00">    </text>
<text text-anchor="start" x="318.76" y="-295.39" font-family="Arial" font-size="14.00" fill="#666666">[BASE TABLE]</text>
<polygon fill="none" stroke="black" points="46.2,-251.19 46.2,-281.99 419.13,-281.99 419.13,-251.19 46.2,-251.19"/>
<text text-anchor="start" x="53.2" y="-263.39" font-family="Arial" font-size="14.00">batch_id </text>
<text text-anchor="start" x="110.02" y="-263.39" font-family="Arial" font-size="14.00" fill="#666666">[bigint]</text>
<polygon fill="none" stroke="black" stroke-width="3" points="44.7,-249.69 44.7,-319.09 420.63,-319.09 420.63,-249.69 44.7,-249.69"/>
</g>
<!-- public.batches_outsource -->
<g id="node2" class="node">
<title>public.batches_outsource</title>
<polygon fill="#efefef" stroke="none" points="72.2,-90.19 72.2,-125.79 393.13,-125.79 393.13,-90.19 72.2,-90.19"/>
<polygon fill="none" stroke="black" points="72.2,-90.19 72.2,-125.79 393.13,-125.79 393.13,-90.19 72.2,-90.19"/>
<text text-anchor="start" x="79.2" y="-103.59" font-family="Arial Bold" font-size="18.00">public.batches_outsource</text>
<text text-anchor="start" x="261.64" y="-103.59" font-family="Arial" font-size="14.00">    </text>
<text text-anchor="start" x="292.76" y="-103.59" font-family="Arial" font-size="14.00" fill="#666666">[BASE TABLE]</text>
<polygon fill="none" stroke="black" points="72.2,-59.39 72.2,-90.19 393.13,-90.19 393.13,-59.39 72.2,-59.39"/>
<text text-anchor="start" x="79.2" y="-71.59" font-family="Arial" font-size="14.00">id </text>
<text text-anchor="start" x="93.98" y="-71.59" font-family="Arial" font-size="14.00" fill="#666666">[bigint]</text>
</g>
<!-- public.batch_outsource_samples&#45;&gt;public.batches_outsource -->
<g id="edge1" class="edge">
<title>public.batch_outsource_samples:batch_id&#45;&gt;public.batches_outsource:id</title>
<path fill="none" stroke="black" d="M233.27,-240.13C243.59,-159.69 383.68,-246.66 436.33,-168.99 463.66,-128.67 470.69,-93.92 436.33,-59.39 372.48,4.77 232.66,32.13 232.66,-58.39"/>
<polygon fill="black" stroke="black" points="233.28,-239.88 228.19,-249.59 232.96,-245.2 232.7,-249.52 232.7,-249.52 232.7,-249.52 232.96,-245.2 237.18,-250.13 233.28,-239.88"/>
</g>
</g>
</svg>
