<?xml version="1.0" encoding="UTF-8" standalone="no"?>
<!DOCTYPE svg PUBLIC "-//W3C//DTD SVG 1.1//EN"
 "http://www.w3.org/Graphics/SVG/1.1/DTD/svg11.dtd">
<!-- Generated by graphviz version 12.1.2 (20240928.0832)
 -->
<!-- Title: public.batches_outsource Pages: 1 -->
<svg width="468pt" height="370pt"
 viewBox="0.00 0.00 468.45 369.66" xmlns="http://www.w3.org/2000/svg" xmlns:xlink="http://www.w3.org/1999/xlink">
<g id="graph0" class="graph" transform="scale(1 1) rotate(0) translate(4 365.66)">
<title>public.batches_outsource</title>
<polygon fill="white" stroke="none" points="-4,4 -4,-365.66 464.45,-365.66 464.45,4 -4,4"/>
<!-- public.batches_outsource -->
<g id="node1" class="node">
<title>public.batches_outsource</title>
<polygon fill="#efefef" stroke="none" points="69.2,-91.06 69.2,-126.66 390.13,-126.66 390.13,-91.06 69.2,-91.06"/>
<polygon fill="none" stroke="black" points="69.2,-91.06 69.2,-126.66 390.13,-126.66 390.13,-91.06 69.2,-91.06"/>
<text text-anchor="start" x="76.2" y="-104.46" font-family="Arial Bold" font-size="18.00">public.batches_outsource</text>
<text text-anchor="start" x="258.64" y="-104.46" font-family="Arial" font-size="14.00">    </text>
<text text-anchor="start" x="289.76" y="-104.46" font-family="Arial" font-size="14.00" fill="#666666">[BASE TABLE]</text>
<polygon fill="none" stroke="black" points="69.2,-60.26 69.2,-91.06 390.13,-91.06 390.13,-60.26 69.2,-60.26"/>
<text text-anchor="start" x="76.2" y="-72.46" font-family="Arial" font-size="14.00">id </text>
<text text-anchor="start" x="90.98" y="-72.46" font-family="Arial" font-size="14.00" fill="#666666">[bigint]</text>
<polygon fill="none" stroke="black" stroke-width="3" points="67.7,-58.76 67.7,-128.16 391.63,-128.16 391.63,-58.76 67.7,-58.76"/>
</g>
<!-- public.batch_outsource_samples -->
<g id="node2" class="node">
<title>public.batch_outsource_samples</title>
<polygon fill="#efefef" stroke="none" points="43.2,-282.86 43.2,-318.46 416.13,-318.46 416.13,-282.86 43.2,-282.86"/>
<polygon fill="none" stroke="black" points="43.2,-282.86 43.2,-318.46 416.13,-318.46 416.13,-282.86 43.2,-282.86"/>
<text text-anchor="start" x="50.2" y="-296.26" font-family="Arial Bold" font-size="18.00">public.batch_outsource_samples</text>
<text text-anchor="start" x="284.64" y="-296.26" font-family="Arial" font-size="14.00">    </text>
<text text-anchor="start" x="315.76" y="-296.26" font-family="Arial" font-size="14.00" fill="#666666">[BASE TABLE]</text>
<polygon fill="none" stroke="black" points="43.2,-252.06 43.2,-282.86 416.13,-282.86 416.13,-252.06 43.2,-252.06"/>
<text text-anchor="start" x="50.2" y="-264.26" font-family="Arial" font-size="14.00">batch_id </text>
<text text-anchor="start" x="107.02" y="-264.26" font-family="Arial" font-size="14.00" fill="#666666">[bigint]</text>
</g>
<!-- public.batch_outsource_samples&#45;&gt;public.batches_outsource -->
<g id="edge1" class="edge">
<title>public.batch_outsource_samples:batch_id&#45;&gt;public.batches_outsource:id</title>
<path fill="none" stroke="black" d="M230.27,-240.93C240.73,-160.08 382.58,-250.66 436.33,-172.86 464.77,-131.68 471.63,-95.73 436.33,-60.26 371.54,4.85 229.66,32.59 229.66,-59.26"/>
<polygon fill="black" stroke="black" points="230.29,-240.74 225.19,-250.45 229.97,-246.07 229.7,-250.39 229.7,-250.39 229.7,-250.39 229.97,-246.07 234.18,-251 230.29,-240.74"/>
</g>
</g>
</svg>
