<?xml version="1.0" encoding="UTF-8" standalone="no"?>
<!DOCTYPE svg PUBLIC "-//W3C//DTD SVG 1.1//EN"
 "http://www.w3.org/Graphics/SVG/1.1/DTD/svg11.dtd">
<!-- Generated by graphviz version 12.1.2 (20240928.0832)
 -->
<!-- Title: public.batches Pages: 1 -->
<svg width="389pt" height="358pt"
 viewBox="0.00 0.00 388.92 358.26" xmlns="http://www.w3.org/2000/svg" xmlns:xlink="http://www.w3.org/1999/xlink">
<g id="graph0" class="graph" transform="scale(1 1) rotate(0) translate(4 354.26)">
<title>public.batches</title>
<polygon fill="white" stroke="none" points="-4,4 -4,-354.26 384.92,-354.26 384.92,4 -4,4"/>
<!-- public.batches -->
<g id="node1" class="node">
<title>public.batches</title>
<polygon fill="#efefef" stroke="none" points="69.2,-79.66 69.2,-115.26 311.15,-115.26 311.15,-79.66 69.2,-79.66"/>
<polygon fill="none" stroke="black" points="69.2,-79.66 69.2,-115.26 311.15,-115.26 311.15,-79.66 69.2,-79.66"/>
<text text-anchor="start" x="76.2" y="-93.06" font-family="Arial Bold" font-size="18.00">public.batches</text>
<text text-anchor="start" x="179.66" y="-93.06" font-family="Arial" font-size="14.00">    </text>
<text text-anchor="start" x="210.78" y="-93.06" font-family="Arial" font-size="14.00" fill="#666666">[BASE TABLE]</text>
<polygon fill="none" stroke="black" points="69.2,-48.86 69.2,-79.66 311.15,-79.66 311.15,-48.86 69.2,-48.86"/>
<text text-anchor="start" x="76.2" y="-61.06" font-family="Arial" font-size="14.00">id </text>
<text text-anchor="start" x="90.98" y="-61.06" font-family="Arial" font-size="14.00" fill="#666666">[bigint]</text>
<polygon fill="none" stroke="black" stroke-width="3" points="67.7,-47.36 67.7,-116.76 312.65,-116.76 312.65,-47.36 67.7,-47.36"/>
</g>
<!-- public.batch_samples -->
<g id="node2" class="node">
<title>public.batch_samples</title>
<polygon fill="#efefef" stroke="none" points="43.2,-271.46 43.2,-307.06 337.15,-307.06 337.15,-271.46 43.2,-271.46"/>
<polygon fill="none" stroke="black" points="43.2,-271.46 43.2,-307.06 337.15,-307.06 337.15,-271.46 43.2,-271.46"/>
<text text-anchor="start" x="50.2" y="-284.86" font-family="Arial Bold" font-size="18.00">public.batch_samples</text>
<text text-anchor="start" x="205.66" y="-284.86" font-family="Arial" font-size="14.00">    </text>
<text text-anchor="start" x="236.78" y="-284.86" font-family="Arial" font-size="14.00" fill="#666666">[BASE TABLE]</text>
<polygon fill="none" stroke="black" points="43.2,-240.66 43.2,-271.46 337.15,-271.46 337.15,-240.66 43.2,-240.66"/>
<text text-anchor="start" x="50.2" y="-252.86" font-family="Arial" font-size="14.00">batch_id </text>
<text text-anchor="start" x="107.02" y="-252.86" font-family="Arial" font-size="14.00" fill="#666666">[bigint]</text>
</g>
<!-- public.batch_samples&#45;&gt;public.batches -->
<g id="edge1" class="edge">
<title>public.batch_samples:batch_id&#45;&gt;public.batches:id</title>
<path fill="none" stroke="black" d="M190.9,-229.52C201.08,-163.91 315.3,-227.56 357.35,-161.46 384.22,-119.24 392.63,-84.35 357.35,-48.86 304.97,3.83 190.18,26.44 190.18,-47.86"/>
<polygon fill="black" stroke="black" points="190.91,-229.35 185.71,-239.01 190.53,-234.68 190.22,-238.99 190.22,-238.99 190.22,-238.99 190.53,-234.68 194.69,-239.65 190.91,-229.35"/>
</g>
</g>
</svg>
