<?xml version="1.0" encoding="UTF-8" standalone="no"?>
<!DOCTYPE svg PUBLIC "-//W3C//DTD SVG 1.1//EN"
 "http://www.w3.org/Graphics/SVG/1.1/DTD/svg11.dtd">
<!-- Generated by graphviz version 12.1.2 (20240928.0832)
 -->
<!-- Title: staging&#45;&#45;spc&#45;&#45;lis&#45;&#45;be Pages: 1 -->
<svg width="15431pt" height="600pt"
 viewBox="0.00 0.00 15430.86 600.00" xmlns="http://www.w3.org/2000/svg" xmlns:xlink="http://www.w3.org/1999/xlink">
<g id="graph0" class="graph" transform="scale(1 1) rotate(0) translate(4 596)">
<title>staging&#45;&#45;spc&#45;&#45;lis&#45;&#45;be</title>
<polygon fill="white" stroke="none" points="-4,4 -4,-596 15426.86,-596 15426.86,4 -4,4"/>
<!-- public.migrations -->
<g id="node1" class="node">
<title>public.migrations</title>
<polygon fill="#efefef" stroke="none" points="43.2,-482.4 43.2,-518 308.17,-518 308.17,-482.4 43.2,-482.4"/>
<polygon fill="none" stroke="black" points="43.2,-482.4 43.2,-518 308.17,-518 308.17,-482.4 43.2,-482.4"/>
<text text-anchor="start" x="50.2" y="-495.8" font-family="Arial Bold" font-size="18.00">public.migrations</text>
<text text-anchor="start" x="176.68" y="-495.8" font-family="Arial" font-size="14.00">    </text>
<text text-anchor="start" x="207.8" y="-495.8" font-family="Arial" font-size="14.00" fill="#666666">[BASE TABLE]</text>
</g>
<!-- public.users -->
<g id="node2" class="node">
<title>public.users</title>
<polygon fill="#efefef" stroke="none" points="412.2,-482.4 412.2,-518 637.17,-518 637.17,-482.4 412.2,-482.4"/>
<polygon fill="none" stroke="black" points="412.2,-482.4 412.2,-518 637.17,-518 637.17,-482.4 412.2,-482.4"/>
<text text-anchor="start" x="419.2" y="-495.8" font-family="Arial Bold" font-size="18.00">public.users</text>
<text text-anchor="start" x="505.68" y="-495.8" font-family="Arial" font-size="14.00">    </text>
<text text-anchor="start" x="536.8" y="-495.8" font-family="Arial" font-size="14.00" fill="#666666">[BASE TABLE]</text>
</g>
<!-- public.password_reset_tokens -->
<g id="node3" class="node">
<title>public.password_reset_tokens</title>
<polygon fill="#efefef" stroke="none" points="741.21,-482.4 741.21,-518 1096.16,-518 1096.16,-482.4 741.21,-482.4"/>
<polygon fill="none" stroke="black" points="741.21,-482.4 741.21,-518 1096.16,-518 1096.16,-482.4 741.21,-482.4"/>
<text text-anchor="start" x="748.21" y="-495.8" font-family="Arial Bold" font-size="18.00">public.password_reset_tokens</text>
<text text-anchor="start" x="964.67" y="-495.8" font-family="Arial" font-size="14.00">    </text>
<text text-anchor="start" x="995.79" y="-495.8" font-family="Arial" font-size="14.00" fill="#666666">[BASE TABLE]</text>
</g>
<!-- public.failed_jobs -->
<g id="node4" class="node">
<title>public.failed_jobs</title>
<polygon fill="#efefef" stroke="none" points="1200.71,-482.4 1200.71,-518 1468.67,-518 1468.67,-482.4 1200.71,-482.4"/>
<polygon fill="none" stroke="black" points="1200.71,-482.4 1200.71,-518 1468.67,-518 1468.67,-482.4 1200.71,-482.4"/>
<text text-anchor="start" x="1207.71" y="-495.8" font-family="Arial Bold" font-size="18.00">public.failed_jobs</text>
<text text-anchor="start" x="1337.18" y="-495.8" font-family="Arial" font-size="14.00">    </text>
<text text-anchor="start" x="1368.29" y="-495.8" font-family="Arial" font-size="14.00" fill="#666666">[BASE TABLE]</text>
</g>
<!-- public.personal_access_tokens -->
<g id="node5" class="node">
<title>public.personal_access_tokens</title>
<polygon fill="#efefef" stroke="none" points="1572.73,-482.4 1572.73,-518 1932.65,-518 1932.65,-482.4 1572.73,-482.4"/>
<polygon fill="none" stroke="black" points="1572.73,-482.4 1572.73,-518 1932.65,-518 1932.65,-482.4 1572.73,-482.4"/>
<text text-anchor="start" x="1579.73" y="-495.8" font-family="Arial Bold" font-size="18.00">public.personal_access_tokens</text>
<text text-anchor="start" x="1801.16" y="-495.8" font-family="Arial" font-size="14.00">    </text>
<text text-anchor="start" x="1832.27" y="-495.8" font-family="Arial" font-size="14.00" fill="#666666">[BASE TABLE]</text>
</g>
<!-- public.order_samples -->
<g id="node6" class="node">
<title>public.order_samples</title>
<polygon fill="#efefef" stroke="none" points="2037.21,-482.4 2037.21,-518 2330.16,-518 2330.16,-482.4 2037.21,-482.4"/>
<polygon fill="none" stroke="black" points="2037.21,-482.4 2037.21,-518 2330.16,-518 2330.16,-482.4 2037.21,-482.4"/>
<text text-anchor="start" x="2044.21" y="-495.8" font-family="Arial Bold" font-size="18.00">public.order_samples</text>
<text text-anchor="start" x="2198.67" y="-495.8" font-family="Arial" font-size="14.00">    </text>
<text text-anchor="start" x="2229.79" y="-495.8" font-family="Arial" font-size="14.00" fill="#666666">[BASE TABLE]</text>
</g>
<!-- public.lab_machine_test_codes -->
<g id="node7" class="node">
<title>public.lab_machine_test_codes</title>
<polygon fill="#efefef" stroke="none" points="2434.73,-482.4 2434.73,-518 2798.65,-518 2798.65,-482.4 2434.73,-482.4"/>
<polygon fill="none" stroke="black" points="2434.73,-482.4 2434.73,-518 2798.65,-518 2798.65,-482.4 2434.73,-482.4"/>
<text text-anchor="start" x="2441.73" y="-495.8" font-family="Arial Bold" font-size="18.00">public.lab_machine_test_codes</text>
<text text-anchor="start" x="2667.16" y="-495.8" font-family="Arial" font-size="14.00">    </text>
<text text-anchor="start" x="2698.27" y="-495.8" font-family="Arial" font-size="14.00" fill="#666666">[BASE TABLE]</text>
</g>
<!-- public.approvers -->
<g id="node8" class="node">
<title>public.approvers</title>
<polygon fill="#efefef" stroke="none" points="2948.21,-278.2 2948.21,-313.8 3207.16,-313.8 3207.16,-278.2 2948.21,-278.2"/>
<polygon fill="none" stroke="black" points="2948.21,-278.2 2948.21,-313.8 3207.16,-313.8 3207.16,-278.2 2948.21,-278.2"/>
<text text-anchor="start" x="2955.21" y="-291.6" font-family="Arial Bold" font-size="18.00">public.approvers</text>
<text text-anchor="start" x="3075.67" y="-291.6" font-family="Arial" font-size="14.00">    </text>
<text text-anchor="start" x="3106.79" y="-291.6" font-family="Arial" font-size="14.00" fill="#666666">[BASE TABLE]</text>
<polygon fill="none" stroke="black" points="2948.21,-247.4 2948.21,-278.2 3207.16,-278.2 3207.16,-247.4 2948.21,-247.4"/>
<text text-anchor="start" x="2955.21" y="-259.6" font-family="Arial" font-size="14.00">employee_code </text>
<text text-anchor="start" x="3057.95" y="-259.6" font-family="Arial" font-size="14.00" fill="#666666">[varchar(255)]</text>
</g>
<!-- public.orders -->
<g id="node9" class="node">
<title>public.orders</title>
<polygon fill="#efefef" stroke="none" points="3667.2,-74 3667.2,-109.6 3900.17,-109.6 3900.17,-74 3667.2,-74"/>
<polygon fill="none" stroke="black" points="3667.2,-74 3667.2,-109.6 3900.17,-109.6 3900.17,-74 3667.2,-74"/>
<text text-anchor="start" x="3674.2" y="-87.4" font-family="Arial Bold" font-size="18.00">public.orders</text>
<text text-anchor="start" x="3768.68" y="-87.4" font-family="Arial" font-size="14.00">    </text>
<text text-anchor="start" x="3799.8" y="-87.4" font-family="Arial" font-size="14.00" fill="#666666">[BASE TABLE]</text>
<polygon fill="none" stroke="black" points="3667.2,-43.2 3667.2,-74 3900.17,-74 3900.17,-43.2 3667.2,-43.2"/>
<text text-anchor="start" x="3674.2" y="-55.4" font-family="Arial" font-size="14.00">order_id </text>
<text text-anchor="start" x="3729.46" y="-55.4" font-family="Arial" font-size="14.00" fill="#666666">[varchar(50)]</text>
</g>
<!-- public.test_results -->
<g id="node10" class="node">
<title>public.test_results</title>
<polygon fill="#efefef" stroke="none" points="3433.2,-293.6 3433.2,-329.2 3702.17,-329.2 3702.17,-293.6 3433.2,-293.6"/>
<polygon fill="none" stroke="black" points="3433.2,-293.6 3433.2,-329.2 3702.17,-329.2 3702.17,-293.6 3433.2,-293.6"/>
<text text-anchor="start" x="3440.2" y="-307" font-family="Arial Bold" font-size="18.00">public.test_results</text>
<text text-anchor="start" x="3570.68" y="-307" font-family="Arial" font-size="14.00">    </text>
<text text-anchor="start" x="3601.8" y="-307" font-family="Arial" font-size="14.00" fill="#666666">[BASE TABLE]</text>
<polygon fill="none" stroke="black" points="3433.2,-262.8 3433.2,-293.6 3702.17,-293.6 3702.17,-262.8 3433.2,-262.8"/>
<text text-anchor="start" x="3440.2" y="-275" font-family="Arial" font-size="14.00">id </text>
<text text-anchor="start" x="3454.99" y="-275" font-family="Arial" font-size="14.00" fill="#666666">[bigint]</text>
<polygon fill="none" stroke="black" points="3433.2,-232 3433.2,-262.8 3702.17,-262.8 3702.17,-232 3433.2,-232"/>
<text text-anchor="start" x="3440.2" y="-244.2" font-family="Arial" font-size="14.00">order_id </text>
<text text-anchor="start" x="3495.46" y="-244.2" font-family="Arial" font-size="14.00" fill="#666666">[varchar(50)]</text>
</g>
<!-- public.test_results&#45;&gt;public.orders -->
<g id="edge1" class="edge">
<title>public.test_results:order_id&#45;&gt;public.orders:order_id</title>
<path fill="none" stroke="black" d="M3713.04,-244.57C3723.57,-235.83 3710.45,-208.72 3702.17,-188.8 3693.61,-168.2 3675.7,-173.42 3667.2,-152.8 3651.26,-114.09 3624.34,-58.6 3666.2,-58.6"/>
<polygon fill="black" stroke="black" points="3713.11,-244.55 3702.25,-242.98 3707.98,-246.02 3703.82,-247.22 3703.82,-247.22 3703.82,-247.22 3707.98,-246.02 3704.74,-251.63 3713.11,-244.55"/>
</g>
<!-- public.test_result_audits -->
<g id="node11" class="node">
<title>public.test_result_audits</title>
<polygon fill="#efefef" stroke="none" points="3356.7,-497.8 3356.7,-533.4 3670.67,-533.4 3670.67,-497.8 3356.7,-497.8"/>
<polygon fill="none" stroke="black" points="3356.7,-497.8 3356.7,-533.4 3670.67,-533.4 3670.67,-497.8 3356.7,-497.8"/>
<text text-anchor="start" x="3363.7" y="-511.2" font-family="Arial Bold" font-size="18.00">public.test_result_audits</text>
<text text-anchor="start" x="3539.18" y="-511.2" font-family="Arial" font-size="14.00">    </text>
<text text-anchor="start" x="3570.3" y="-511.2" font-family="Arial" font-size="14.00" fill="#666666">[BASE TABLE]</text>
<polygon fill="none" stroke="black" points="3356.7,-467 3356.7,-497.8 3670.67,-497.8 3670.67,-467 3356.7,-467"/>
<text text-anchor="start" x="3363.7" y="-479.2" font-family="Arial" font-size="14.00">test_result_id </text>
<text text-anchor="start" x="3450.86" y="-479.2" font-family="Arial" font-size="14.00" fill="#666666">[bigint]</text>
</g>
<!-- public.test_result_audits&#45;&gt;public.test_results -->
<g id="edge2" class="edge">
<title>public.test_result_audits:test_result_id&#45;&gt;public.test_results:id</title>
<path fill="none" stroke="black" d="M3512.86,-455.65C3505.52,-412.56 3451.23,-420.23 3433.2,-372.4 3418.43,-333.22 3390.33,-278.2 3432.2,-278.2"/>
<polygon fill="black" stroke="black" points="3512.87,-455.7 3509.17,-466.02 3513.29,-461.02 3513.63,-465.33 3513.63,-465.33 3513.63,-465.33 3513.29,-461.02 3518.15,-465.31 3512.87,-455.7"/>
</g>
<!-- public.test_results_approvers -->
<g id="node12" class="node">
<title>public.test_results_approvers</title>
<polygon fill="#efefef" stroke="none" points="2903.21,-513.2 2903.21,-548.8 3252.16,-548.8 3252.16,-513.2 2903.21,-513.2"/>
<polygon fill="none" stroke="black" points="2903.21,-513.2 2903.21,-548.8 3252.16,-548.8 3252.16,-513.2 2903.21,-513.2"/>
<text text-anchor="start" x="2910.21" y="-526.6" font-family="Arial Bold" font-size="18.00">public.test_results_approvers</text>
<text text-anchor="start" x="3120.67" y="-526.6" font-family="Arial" font-size="14.00">    </text>
<text text-anchor="start" x="3151.79" y="-526.6" font-family="Arial" font-size="14.00" fill="#666666">[BASE TABLE]</text>
<polygon fill="none" stroke="black" points="2903.21,-482.4 2903.21,-513.2 3252.16,-513.2 3252.16,-482.4 2903.21,-482.4"/>
<text text-anchor="start" x="2910.21" y="-494.6" font-family="Arial" font-size="14.00">test_result_id </text>
<text text-anchor="start" x="2997.37" y="-494.6" font-family="Arial" font-size="14.00" fill="#666666">[bigint]</text>
<polygon fill="none" stroke="black" points="2903.21,-451.6 2903.21,-482.4 3252.16,-482.4 3252.16,-451.6 2903.21,-451.6"/>
<text text-anchor="start" x="2910.21" y="-463.8" font-family="Arial" font-size="14.00">approver_employee_code </text>
<text text-anchor="start" x="3075.99" y="-463.8" font-family="Arial" font-size="14.00" fill="#666666">[varchar(255)]</text>
</g>
<!-- public.test_results_approvers&#45;&gt;public.approvers -->
<g id="edge3" class="edge">
<title>public.test_results_approvers:approver_employee_code&#45;&gt;public.approvers:employee_code</title>
<path fill="none" stroke="black" d="M3078.38,-440.19C3088.53,-368.94 3207.62,-428.78 3250.36,-357 3275.28,-315.15 3284.71,-281.94 3250.36,-247.4 3196.25,-192.98 3077.69,-169.65 3077.69,-246.4"/>
<polygon fill="black" stroke="black" points="3078.37,-440.29 3073.22,-449.97 3078.02,-445.61 3077.73,-449.93 3077.73,-449.93 3077.73,-449.93 3078.02,-445.61 3082.2,-450.56 3078.37,-440.29"/>
</g>
<!-- public.test_results_approvers&#45;&gt;public.test_results -->
<g id="edge4" class="edge">
<title>public.test_results_approvers:test_result_id&#45;&gt;public.test_results:id</title>
<path fill="none" stroke="black" d="M3263.14,-496.77C3295.74,-489.24 3279.24,-441.94 3304.69,-408.4 3353.63,-343.87 3351.2,-278.2 3432.2,-278.2"/>
<polygon fill="black" stroke="black" points="3263.44,-496.74 3253.03,-493.29 3258.13,-497.29 3253.82,-497.73 3253.82,-497.73 3253.82,-497.73 3258.13,-497.29 3253.95,-502.24 3263.44,-496.74"/>
</g>
<!-- public.test_reference_ranges -->
<g id="node13" class="node">
<title>public.test_reference_ranges</title>
<polygon fill="#efefef" stroke="none" points="4221.24,-482.4 4221.24,-518 4566.13,-518 4566.13,-482.4 4221.24,-482.4"/>
<polygon fill="none" stroke="black" points="4221.24,-482.4 4221.24,-518 4566.13,-518 4566.13,-482.4 4221.24,-482.4"/>
<text text-anchor="start" x="4228.24" y="-495.8" font-family="Arial Bold" font-size="18.00">public.test_reference_ranges</text>
<text text-anchor="start" x="4434.64" y="-495.8" font-family="Arial" font-size="14.00">    </text>
<text text-anchor="start" x="4465.76" y="-495.8" font-family="Arial" font-size="14.00" fill="#666666">[BASE TABLE]</text>
</g>
<!-- public.sample_type_imports -->
<g id="node14" class="node">
<title>public.sample_type_imports</title>
<polygon fill="#efefef" stroke="none" points="4670.21,-482.4 4670.21,-518 5013.17,-518 5013.17,-482.4 4670.21,-482.4"/>
<polygon fill="none" stroke="black" points="4670.21,-482.4 4670.21,-518 5013.17,-518 5013.17,-482.4 4670.21,-482.4"/>
<text text-anchor="start" x="4677.21" y="-495.8" font-family="Arial Bold" font-size="18.00">public.sample_type_imports</text>
<text text-anchor="start" x="4881.68" y="-495.8" font-family="Arial" font-size="14.00">    </text>
<text text-anchor="start" x="4912.79" y="-495.8" font-family="Arial" font-size="14.00" fill="#666666">[BASE TABLE]</text>
</g>
<!-- public.sample_runners -->
<g id="node15" class="node">
<title>public.sample_runners</title>
<polygon fill="#efefef" stroke="none" points="5117.71,-482.4 5117.71,-518 5419.66,-518 5419.66,-482.4 5117.71,-482.4"/>
<polygon fill="none" stroke="black" points="5117.71,-482.4 5117.71,-518 5419.66,-518 5419.66,-482.4 5117.71,-482.4"/>
<text text-anchor="start" x="5124.71" y="-495.8" font-family="Arial Bold" font-size="18.00">public.sample_runners</text>
<text text-anchor="start" x="5288.17" y="-495.8" font-family="Arial" font-size="14.00">    </text>
<text text-anchor="start" x="5319.29" y="-495.8" font-family="Arial" font-size="14.00" fill="#666666">[BASE TABLE]</text>
</g>
<!-- public.sections -->
<g id="node16" class="node">
<title>public.sections</title>
<polygon fill="#efefef" stroke="none" points="5523.7,-482.4 5523.7,-518 5769.67,-518 5769.67,-482.4 5523.7,-482.4"/>
<polygon fill="none" stroke="black" points="5523.7,-482.4 5523.7,-518 5769.67,-518 5769.67,-482.4 5523.7,-482.4"/>
<text text-anchor="start" x="5530.7" y="-495.8" font-family="Arial Bold" font-size="18.00">public.sections</text>
<text text-anchor="start" x="5638.18" y="-495.8" font-family="Arial" font-size="14.00">    </text>
<text text-anchor="start" x="5669.3" y="-495.8" font-family="Arial" font-size="14.00" fill="#666666">[BASE TABLE]</text>
</g>
<!-- public.order_result_services -->
<g id="node17" class="node">
<title>public.order_result_services</title>
<polygon fill="#efefef" stroke="none" points="3774.73,-513.2 3774.73,-548.8 4116.65,-548.8 4116.65,-513.2 3774.73,-513.2"/>
<polygon fill="none" stroke="black" points="3774.73,-513.2 3774.73,-548.8 4116.65,-548.8 4116.65,-513.2 3774.73,-513.2"/>
<text text-anchor="start" x="3781.73" y="-526.6" font-family="Arial Bold" font-size="18.00">public.order_result_services</text>
<text text-anchor="start" x="3985.16" y="-526.6" font-family="Arial" font-size="14.00">    </text>
<text text-anchor="start" x="4016.27" y="-526.6" font-family="Arial" font-size="14.00" fill="#666666">[BASE TABLE]</text>
<polygon fill="none" stroke="black" points="3774.73,-482.4 3774.73,-513.2 4116.65,-513.2 4116.65,-482.4 3774.73,-482.4"/>
<text text-anchor="start" x="3781.73" y="-494.6" font-family="Arial" font-size="14.00">order_id </text>
<text text-anchor="start" x="3836.98" y="-494.6" font-family="Arial" font-size="14.00" fill="#666666">[varchar(50)]</text>
<polygon fill="none" stroke="black" points="3774.73,-451.6 3774.73,-482.4 4116.65,-482.4 4116.65,-451.6 3774.73,-451.6"/>
<text text-anchor="start" x="3781.73" y="-463.8" font-family="Arial" font-size="14.00">test_result_id </text>
<text text-anchor="start" x="3868.88" y="-463.8" font-family="Arial" font-size="14.00" fill="#666666">[bigint]</text>
</g>
<!-- public.order_result_services&#45;&gt;public.orders -->
<g id="edge5" class="edge">
<title>public.order_result_services:order_id&#45;&gt;public.orders:order_id</title>
<path fill="none" stroke="black" d="M3763.42,-497.38C3589.53,-482.07 4100.75,-58.6 3901.17,-58.6"/>
<polygon fill="black" stroke="black" points="3763.4,-497.37 3773.21,-502.28 3768.73,-497.59 3773.06,-497.77 3773.06,-497.77 3773.06,-497.77 3768.73,-497.59 3773.58,-493.29 3763.4,-497.37"/>
</g>
<!-- public.order_result_services&#45;&gt;public.test_results -->
<g id="edge6" class="edge">
<title>public.order_result_services:test_result_id&#45;&gt;public.test_results:id</title>
<path fill="none" stroke="black" d="M3763.68,-466.07C3692.72,-451.83 3789.08,-278.2 3703.17,-278.2"/>
<polygon fill="black" stroke="black" points="3763.44,-466.05 3772.98,-471.45 3768.75,-466.54 3773.06,-466.94 3773.06,-466.94 3773.06,-466.94 3768.75,-466.54 3773.81,-462.49 3763.44,-466.05"/>
</g>
<!-- public.test_calculation_dependencies -->
<g id="node18" class="node">
<title>public.test_calculation_dependencies</title>
<polygon fill="#efefef" stroke="none" points="5874.24,-482.4 5874.24,-518 6281.13,-518 6281.13,-482.4 5874.24,-482.4"/>
<polygon fill="none" stroke="black" points="5874.24,-482.4 5874.24,-518 6281.13,-518 6281.13,-482.4 5874.24,-482.4"/>
<text text-anchor="start" x="5881.24" y="-495.8" font-family="Arial Bold" font-size="18.00">public.test_calculation_dependencies</text>
<text text-anchor="start" x="6149.64" y="-495.8" font-family="Arial" font-size="14.00">    </text>
<text text-anchor="start" x="6180.76" y="-495.8" font-family="Arial" font-size="14.00" fill="#666666">[BASE TABLE]</text>
</g>
<!-- public.test_formulas -->
<g id="node19" class="node">
<title>public.test_formulas</title>
<polygon fill="#efefef" stroke="none" points="6385.71,-482.4 6385.71,-518 6671.67,-518 6671.67,-482.4 6385.71,-482.4"/>
<polygon fill="none" stroke="black" points="6385.71,-482.4 6385.71,-518 6671.67,-518 6671.67,-482.4 6385.71,-482.4"/>
<text text-anchor="start" x="6392.71" y="-495.8" font-family="Arial Bold" font-size="18.00">public.test_formulas</text>
<text text-anchor="start" x="6540.18" y="-495.8" font-family="Arial" font-size="14.00">    </text>
<text text-anchor="start" x="6571.29" y="-495.8" font-family="Arial" font-size="14.00" fill="#666666">[BASE TABLE]</text>
</g>
<!-- public.test_conversions -->
<g id="node20" class="node">
<title>public.test_conversions</title>
<polygon fill="#efefef" stroke="none" points="6775.71,-482.4 6775.71,-518 7083.67,-518 7083.67,-482.4 6775.71,-482.4"/>
<polygon fill="none" stroke="black" points="6775.71,-482.4 6775.71,-518 7083.67,-518 7083.67,-482.4 6775.71,-482.4"/>
<text text-anchor="start" x="6782.71" y="-495.8" font-family="Arial Bold" font-size="18.00">public.test_conversions</text>
<text text-anchor="start" x="6952.18" y="-495.8" font-family="Arial" font-size="14.00">    </text>
<text text-anchor="start" x="6983.29" y="-495.8" font-family="Arial" font-size="14.00" fill="#666666">[BASE TABLE]</text>
</g>
<!-- public.auto_approval_tests -->
<g id="node21" class="node">
<title>public.auto_approval_tests</title>
<polygon fill="#efefef" stroke="none" points="7187.71,-482.4 7187.71,-518 7519.66,-518 7519.66,-482.4 7187.71,-482.4"/>
<polygon fill="none" stroke="black" points="7187.71,-482.4 7187.71,-518 7519.66,-518 7519.66,-482.4 7187.71,-482.4"/>
<text text-anchor="start" x="7194.71" y="-495.8" font-family="Arial Bold" font-size="18.00">public.auto_approval_tests</text>
<text text-anchor="start" x="7388.17" y="-495.8" font-family="Arial" font-size="14.00">    </text>
<text text-anchor="start" x="7419.29" y="-495.8" font-family="Arial" font-size="14.00" fill="#666666">[BASE TABLE]</text>
</g>
<!-- public.attachments -->
<g id="node22" class="node">
<title>public.attachments</title>
<polygon fill="#efefef" stroke="none" points="7623.71,-482.4 7623.71,-518 7897.66,-518 7897.66,-482.4 7623.71,-482.4"/>
<polygon fill="none" stroke="black" points="7623.71,-482.4 7623.71,-518 7897.66,-518 7897.66,-482.4 7623.71,-482.4"/>
<text text-anchor="start" x="7630.71" y="-495.8" font-family="Arial Bold" font-size="18.00">public.attachments</text>
<text text-anchor="start" x="7766.17" y="-495.8" font-family="Arial" font-size="14.00">    </text>
<text text-anchor="start" x="7797.29" y="-495.8" font-family="Arial" font-size="14.00" fill="#666666">[BASE TABLE]</text>
</g>
<!-- public.batch_async_queue_producer -->
<g id="node23" class="node">
<title>public.batch_async_queue_producer</title>
<polygon fill="#efefef" stroke="none" points="8001.74,-482.4 8001.74,-518 8403.63,-518 8403.63,-482.4 8001.74,-482.4"/>
<polygon fill="none" stroke="black" points="8001.74,-482.4 8001.74,-518 8403.63,-518 8403.63,-482.4 8001.74,-482.4"/>
<text text-anchor="start" x="8008.74" y="-495.8" font-family="Arial Bold" font-size="18.00">public.batch_async_queue_producer</text>
<text text-anchor="start" x="8272.14" y="-495.8" font-family="Arial" font-size="14.00">    </text>
<text text-anchor="start" x="8303.26" y="-495.8" font-family="Arial" font-size="14.00" fill="#666666">[BASE TABLE]</text>
</g>
<!-- public.workorders_devices -->
<g id="node24" class="node">
<title>public.workorders_devices</title>
<polygon fill="#efefef" stroke="none" points="8508.22,-482.4 8508.22,-518 8841.15,-518 8841.15,-482.4 8508.22,-482.4"/>
<polygon fill="none" stroke="black" points="8508.22,-482.4 8508.22,-518 8841.15,-518 8841.15,-482.4 8508.22,-482.4"/>
<text text-anchor="start" x="8515.22" y="-495.8" font-family="Arial Bold" font-size="18.00">public.workorders_devices</text>
<text text-anchor="start" x="8709.66" y="-495.8" font-family="Arial" font-size="14.00">    </text>
<text text-anchor="start" x="8740.78" y="-495.8" font-family="Arial" font-size="14.00" fill="#666666">[BASE TABLE]</text>
</g>
<!-- public.int_client_configurations -->
<g id="node25" class="node">
<title>public.int_client_configurations</title>
<polygon fill="#efefef" stroke="none" points="8945.22,-482.4 8945.22,-518 9314.16,-518 9314.16,-482.4 8945.22,-482.4"/>
<polygon fill="none" stroke="black" points="8945.22,-482.4 8945.22,-518 9314.16,-518 9314.16,-482.4 8945.22,-482.4"/>
<text text-anchor="start" x="8952.22" y="-495.8" font-family="Arial Bold" font-size="18.00">public.int_client_configurations</text>
<text text-anchor="start" x="9182.67" y="-495.8" font-family="Arial" font-size="14.00">    </text>
<text text-anchor="start" x="9213.78" y="-495.8" font-family="Arial" font-size="14.00" fill="#666666">[BASE TABLE]</text>
</g>
<!-- public.int_test_mappings -->
<g id="node26" class="node">
<title>public.int_test_mappings</title>
<polygon fill="#efefef" stroke="none" points="9418.7,-482.4 9418.7,-518 9738.67,-518 9738.67,-482.4 9418.7,-482.4"/>
<polygon fill="none" stroke="black" points="9418.7,-482.4 9418.7,-518 9738.67,-518 9738.67,-482.4 9418.7,-482.4"/>
<text text-anchor="start" x="9425.7" y="-495.8" font-family="Arial Bold" font-size="18.00">public.int_test_mappings</text>
<text text-anchor="start" x="9607.18" y="-495.8" font-family="Arial" font-size="14.00">    </text>
<text text-anchor="start" x="9638.3" y="-495.8" font-family="Arial" font-size="14.00" fill="#666666">[BASE TABLE]</text>
</g>
<!-- public.test_result_status_changes -->
<g id="node27" class="node">
<title>public.test_result_status_changes</title>
<polygon fill="#efefef" stroke="none" points="9843.22,-482.4 9843.22,-518 10222.16,-518 10222.16,-482.4 9843.22,-482.4"/>
<polygon fill="none" stroke="black" points="9843.22,-482.4 9843.22,-518 10222.16,-518 10222.16,-482.4 9843.22,-482.4"/>
<text text-anchor="start" x="9850.22" y="-495.8" font-family="Arial Bold" font-size="18.00">public.test_result_status_changes</text>
<text text-anchor="start" x="10090.67" y="-495.8" font-family="Arial" font-size="14.00">    </text>
<text text-anchor="start" x="10121.78" y="-495.8" font-family="Arial" font-size="14.00" fill="#666666">[BASE TABLE]</text>
</g>
<!-- public.order_recollects -->
<g id="node28" class="node">
<title>public.order_recollects</title>
<polygon fill="#efefef" stroke="none" points="10326.73,-482.4 10326.73,-518 10630.64,-518 10630.64,-482.4 10326.73,-482.4"/>
<polygon fill="none" stroke="black" points="10326.73,-482.4 10326.73,-518 10630.64,-518 10630.64,-482.4 10326.73,-482.4"/>
<text text-anchor="start" x="10333.73" y="-495.8" font-family="Arial Bold" font-size="18.00">public.order_recollects</text>
<text text-anchor="start" x="10499.16" y="-495.8" font-family="Arial" font-size="14.00">    </text>
<text text-anchor="start" x="10530.27" y="-495.8" font-family="Arial" font-size="14.00" fill="#666666">[BASE TABLE]</text>
</g>
<!-- public.batches -->
<g id="node29" class="node">
<title>public.batches</title>
<polygon fill="#efefef" stroke="none" points="10760.71,-278.2 10760.71,-313.8 11002.66,-313.8 11002.66,-278.2 10760.71,-278.2"/>
<polygon fill="none" stroke="black" points="10760.71,-278.2 10760.71,-313.8 11002.66,-313.8 11002.66,-278.2 10760.71,-278.2"/>
<text text-anchor="start" x="10767.71" y="-291.6" font-family="Arial Bold" font-size="18.00">public.batches</text>
<text text-anchor="start" x="10871.17" y="-291.6" font-family="Arial" font-size="14.00">    </text>
<text text-anchor="start" x="10902.29" y="-291.6" font-family="Arial" font-size="14.00" fill="#666666">[BASE TABLE]</text>
<polygon fill="none" stroke="black" points="10760.71,-247.4 10760.71,-278.2 11002.66,-278.2 11002.66,-247.4 10760.71,-247.4"/>
<text text-anchor="start" x="10767.71" y="-259.6" font-family="Arial" font-size="14.00">id </text>
<text text-anchor="start" x="10782.5" y="-259.6" font-family="Arial" font-size="14.00" fill="#666666">[bigint]</text>
</g>
<!-- public.batch_samples -->
<g id="node30" class="node">
<title>public.batch_samples</title>
<polygon fill="#efefef" stroke="none" points="10734.71,-497.8 10734.71,-533.4 11028.66,-533.4 11028.66,-497.8 10734.71,-497.8"/>
<polygon fill="none" stroke="black" points="10734.71,-497.8 10734.71,-533.4 11028.66,-533.4 11028.66,-497.8 10734.71,-497.8"/>
<text text-anchor="start" x="10741.71" y="-511.2" font-family="Arial Bold" font-size="18.00">public.batch_samples</text>
<text text-anchor="start" x="10897.17" y="-511.2" font-family="Arial" font-size="14.00">    </text>
<text text-anchor="start" x="10928.29" y="-511.2" font-family="Arial" font-size="14.00" fill="#666666">[BASE TABLE]</text>
<polygon fill="none" stroke="black" points="10734.71,-467 10734.71,-497.8 11028.66,-497.8 11028.66,-467 10734.71,-467"/>
<text text-anchor="start" x="10741.71" y="-479.2" font-family="Arial" font-size="14.00">batch_id </text>
<text text-anchor="start" x="10798.53" y="-479.2" font-family="Arial" font-size="14.00" fill="#666666">[bigint]</text>
</g>
<!-- public.batch_samples&#45;&gt;public.batches -->
<g id="edge7" class="edge">
<title>public.batch_samples:batch_id&#45;&gt;public.batches:id</title>
<path fill="none" stroke="black" d="M10882.29,-455.93C10891.62,-382.77 11006.16,-431.02 11045.86,-357 11068.89,-314.07 11080.2,-281.95 11045.86,-247.4 10994.42,-195.65 10881.69,-173.43 10881.69,-246.4"/>
<polygon fill="black" stroke="black" points="10882.31,-455.68 10877.21,-465.4 10881.99,-461.01 10881.73,-465.33 10881.73,-465.33 10881.73,-465.33 10881.99,-461.01 10886.2,-465.94 10882.31,-455.68"/>
</g>
<!-- public.replacement_tests -->
<g id="node31" class="node">
<title>public.replacement_tests</title>
<polygon fill="#efefef" stroke="none" points="11133.22,-482.4 11133.22,-518 11450.15,-518 11450.15,-482.4 11133.22,-482.4"/>
<polygon fill="none" stroke="black" points="11133.22,-482.4 11133.22,-518 11450.15,-518 11450.15,-482.4 11133.22,-482.4"/>
<text text-anchor="start" x="11140.22" y="-495.8" font-family="Arial Bold" font-size="18.00">public.replacement_tests</text>
<text text-anchor="start" x="11318.66" y="-495.8" font-family="Arial" font-size="14.00">    </text>
<text text-anchor="start" x="11349.78" y="-495.8" font-family="Arial" font-size="14.00" fill="#666666">[BASE TABLE]</text>
</g>
<!-- public.sample_print_configs -->
<g id="node32" class="node">
<title>public.sample_print_configs</title>
<polygon fill="#efefef" stroke="none" points="11554.71,-482.4 11554.71,-518 11898.66,-518 11898.66,-482.4 11554.71,-482.4"/>
<polygon fill="none" stroke="black" points="11554.71,-482.4 11554.71,-518 11898.66,-518 11898.66,-482.4 11554.71,-482.4"/>
<text text-anchor="start" x="11561.71" y="-495.8" font-family="Arial Bold" font-size="18.00">public.sample_print_configs</text>
<text text-anchor="start" x="11767.17" y="-495.8" font-family="Arial" font-size="14.00">    </text>
<text text-anchor="start" x="11798.29" y="-495.8" font-family="Arial" font-size="14.00" fill="#666666">[BASE TABLE]</text>
</g>
<!-- public.batch_async_audit_queue_producer -->
<g id="node33" class="node">
<title>public.batch_async_audit_queue_producer</title>
<polygon fill="#efefef" stroke="none" points="12003.25,-482.4 12003.25,-518 12450.13,-518 12450.13,-482.4 12003.25,-482.4"/>
<polygon fill="none" stroke="black" points="12003.25,-482.4 12003.25,-518 12450.13,-518 12450.13,-482.4 12003.25,-482.4"/>
<text text-anchor="start" x="12010.25" y="-495.8" font-family="Arial Bold" font-size="18.00">public.batch_async_audit_queue_producer</text>
<text text-anchor="start" x="12318.64" y="-495.8" font-family="Arial" font-size="14.00">    </text>
<text text-anchor="start" x="12349.75" y="-495.8" font-family="Arial" font-size="14.00" fill="#666666">[BASE TABLE]</text>
</g>
<!-- public.order_monitorings -->
<g id="node34" class="node">
<title>public.order_monitorings</title>
<polygon fill="#efefef" stroke="none" points="12554.71,-482.4 12554.71,-518 12876.67,-518 12876.67,-482.4 12554.71,-482.4"/>
<polygon fill="none" stroke="black" points="12554.71,-482.4 12554.71,-518 12876.67,-518 12876.67,-482.4 12554.71,-482.4"/>
<text text-anchor="start" x="12561.71" y="-495.8" font-family="Arial Bold" font-size="18.00">public.order_monitorings</text>
<text text-anchor="start" x="12745.18" y="-495.8" font-family="Arial" font-size="14.00">    </text>
<text text-anchor="start" x="12776.29" y="-495.8" font-family="Arial" font-size="14.00" fill="#666666">[BASE TABLE]</text>
</g>
<!-- public.tat_configs -->
<g id="node35" class="node">
<title>public.tat_configs</title>
<polygon fill="#efefef" stroke="none" points="12980.71,-482.4 12980.71,-518 13248.67,-518 13248.67,-482.4 12980.71,-482.4"/>
<polygon fill="none" stroke="black" points="12980.71,-482.4 12980.71,-518 13248.67,-518 13248.67,-482.4 12980.71,-482.4"/>
<text text-anchor="start" x="12987.71" y="-495.8" font-family="Arial Bold" font-size="18.00">public.tat_configs</text>
<text text-anchor="start" x="13117.18" y="-495.8" font-family="Arial" font-size="14.00">    </text>
<text text-anchor="start" x="13148.29" y="-495.8" font-family="Arial" font-size="14.00" fill="#666666">[BASE TABLE]</text>
</g>
<!-- public.tat_stands -->
<g id="node36" class="node">
<title>public.tat_stands</title>
<polygon fill="#efefef" stroke="none" points="13352.7,-482.4 13352.7,-518 13612.67,-518 13612.67,-482.4 13352.7,-482.4"/>
<polygon fill="none" stroke="black" points="13352.7,-482.4 13352.7,-518 13612.67,-518 13612.67,-482.4 13352.7,-482.4"/>
<text text-anchor="start" x="13359.7" y="-495.8" font-family="Arial Bold" font-size="18.00">public.tat_stands</text>
<text text-anchor="start" x="13481.18" y="-495.8" font-family="Arial" font-size="14.00">    </text>
<text text-anchor="start" x="13512.3" y="-495.8" font-family="Arial" font-size="14.00" fill="#666666">[BASE TABLE]</text>
</g>
<!-- public.tat_alerts -->
<g id="node37" class="node">
<title>public.tat_alerts</title>
<polygon fill="#efefef" stroke="none" points="13716.71,-482.4 13716.71,-518 13970.66,-518 13970.66,-482.4 13716.71,-482.4"/>
<polygon fill="none" stroke="black" points="13716.71,-482.4 13716.71,-518 13970.66,-518 13970.66,-482.4 13716.71,-482.4"/>
<text text-anchor="start" x="13723.71" y="-495.8" font-family="Arial Bold" font-size="18.00">public.tat_alerts</text>
<text text-anchor="start" x="13839.17" y="-495.8" font-family="Arial" font-size="14.00">    </text>
<text text-anchor="start" x="13870.29" y="-495.8" font-family="Arial" font-size="14.00" fill="#666666">[BASE TABLE]</text>
</g>
<!-- public.disabled_tat_alerts -->
<g id="node38" class="node">
<title>public.disabled_tat_alerts</title>
<polygon fill="#efefef" stroke="none" points="14075.22,-482.4 14075.22,-518 14398.15,-518 14398.15,-482.4 14075.22,-482.4"/>
<polygon fill="none" stroke="black" points="14075.22,-482.4 14075.22,-518 14398.15,-518 14398.15,-482.4 14075.22,-482.4"/>
<text text-anchor="start" x="14082.22" y="-495.8" font-family="Arial Bold" font-size="18.00">public.disabled_tat_alerts</text>
<text text-anchor="start" x="14266.67" y="-495.8" font-family="Arial" font-size="14.00">    </text>
<text text-anchor="start" x="14297.78" y="-495.8" font-family="Arial" font-size="14.00" fill="#666666">[BASE TABLE]</text>
</g>
<!-- public.batches_outsource -->
<g id="node39" class="node">
<title>public.batches_outsource</title>
<polygon fill="#efefef" stroke="none" points="14528.22,-278.2 14528.22,-313.8 14849.15,-313.8 14849.15,-278.2 14528.22,-278.2"/>
<polygon fill="none" stroke="black" points="14528.22,-278.2 14528.22,-313.8 14849.15,-313.8 14849.15,-278.2 14528.22,-278.2"/>
<text text-anchor="start" x="14535.22" y="-291.6" font-family="Arial Bold" font-size="18.00">public.batches_outsource</text>
<text text-anchor="start" x="14717.66" y="-291.6" font-family="Arial" font-size="14.00">    </text>
<text text-anchor="start" x="14748.78" y="-291.6" font-family="Arial" font-size="14.00" fill="#666666">[BASE TABLE]</text>
<polygon fill="none" stroke="black" points="14528.22,-247.4 14528.22,-278.2 14849.15,-278.2 14849.15,-247.4 14528.22,-247.4"/>
<text text-anchor="start" x="14535.22" y="-259.6" font-family="Arial" font-size="14.00">id </text>
<text text-anchor="start" x="14550.01" y="-259.6" font-family="Arial" font-size="14.00" fill="#666666">[bigint]</text>
</g>
<!-- public.batch_outsource_samples -->
<g id="node40" class="node">
<title>public.batch_outsource_samples</title>
<polygon fill="#efefef" stroke="none" points="14502.22,-497.8 14502.22,-533.4 14875.15,-533.4 14875.15,-497.8 14502.22,-497.8"/>
<polygon fill="none" stroke="black" points="14502.22,-497.8 14502.22,-533.4 14875.15,-533.4 14875.15,-497.8 14502.22,-497.8"/>
<text text-anchor="start" x="14509.22" y="-511.2" font-family="Arial Bold" font-size="18.00">public.batch_outsource_samples</text>
<text text-anchor="start" x="14743.66" y="-511.2" font-family="Arial" font-size="14.00">    </text>
<text text-anchor="start" x="14774.78" y="-511.2" font-family="Arial" font-size="14.00" fill="#666666">[BASE TABLE]</text>
<polygon fill="none" stroke="black" points="14502.22,-467 14502.22,-497.8 14875.15,-497.8 14875.15,-467 14502.22,-467"/>
<text text-anchor="start" x="14509.22" y="-479.2" font-family="Arial" font-size="14.00">batch_id </text>
<text text-anchor="start" x="14566.04" y="-479.2" font-family="Arial" font-size="14.00" fill="#666666">[bigint]</text>
</g>
<!-- public.batch_outsource_samples&#45;&gt;public.batches_outsource -->
<g id="edge8" class="edge">
<title>public.batch_outsource_samples:batch_id&#45;&gt;public.batches_outsource:id</title>
<path fill="none" stroke="black" d="M14689.27,-455.58C14699.46,-369.02 14841.5,-441.89 14892.35,-357 14917.38,-315.21 14926.71,-281.93 14892.35,-247.4 14828.5,-183.24 14688.69,-155.88 14688.69,-246.4"/>
<polygon fill="black" stroke="black" points="14689.26,-455.68 14684.21,-465.42 14688.96,-461.01 14688.72,-465.33 14688.72,-465.33 14688.72,-465.33 14688.96,-461.01 14693.2,-465.92 14689.26,-455.68"/>
</g>
<!-- public.tat_alerts_summary_histories -->
<g id="node41" class="node">
<title>public.tat_alerts_summary_histories</title>
<polygon fill="#efefef" stroke="none" points="14979.72,-482.4 14979.72,-518 15379.66,-518 15379.66,-482.4 14979.72,-482.4"/>
<polygon fill="none" stroke="black" points="14979.72,-482.4 14979.72,-518 15379.66,-518 15379.66,-482.4 14979.72,-482.4"/>
<text text-anchor="start" x="14986.72" y="-495.8" font-family="Arial Bold" font-size="18.00">public.tat_alerts_summary_histories</text>
<text text-anchor="start" x="15248.17" y="-495.8" font-family="Arial" font-size="14.00">    </text>
<text text-anchor="start" x="15279.28" y="-495.8" font-family="Arial" font-size="14.00" fill="#666666">[BASE TABLE]</text>
</g>
</g>
</svg>
