<?xml version="1.0" encoding="UTF-8" standalone="no"?>
<!DOCTYPE svg PUBLIC "-//W3C//DTD SVG 1.1//EN"
 "http://www.w3.org/Graphics/SVG/1.1/DTD/svg11.dtd">
<!-- Generated by graphviz version 12.1.2 (20240928.0832)
 -->
<!-- Title: data_archiving.pg_stat_statements Pages: 1 -->
<svg width="438pt" height="1460pt"
 viewBox="0.00 0.00 437.51 1460.40" xmlns="http://www.w3.org/2000/svg" xmlns:xlink="http://www.w3.org/1999/xlink">
<g id="graph0" class="graph" transform="scale(1 1) rotate(0) translate(4 1456.4)">
<title>data_archiving.pg_stat_statements</title>
<polygon fill="white" stroke="none" points="-4,4 -4,-1456.4 433.51,-1456.4 433.51,4 -4,4"/>
<!-- data_archiving.pg_stat_statements -->
<g id="node1" class="node">
<title>data_archiving.pg_stat_statements</title>
<polygon fill="#efefef" stroke="none" points="46.2,-1370.6 46.2,-1406.2 383.31,-1406.2 383.31,-1370.6 46.2,-1370.6"/>
<polygon fill="none" stroke="black" points="46.2,-1370.6 46.2,-1406.2 383.31,-1406.2 383.31,-1370.6 46.2,-1370.6"/>
<text text-anchor="start" x="53.2" y="-1384" font-family="Arial Bold" font-size="18.00">data_archiving.pg_stat_statements</text>
<text text-anchor="start" x="301.63" y="-1384" font-family="Arial" font-size="14.00">    </text>
<text text-anchor="start" x="332.75" y="-1384" font-family="Arial" font-size="14.00" fill="#666666">[VIEW]</text>
<polygon fill="none" stroke="black" points="46.2,-1339.8 46.2,-1370.6 383.31,-1370.6 383.31,-1339.8 46.2,-1339.8"/>
<text text-anchor="start" x="53.2" y="-1352" font-family="Arial" font-size="14.00">userid </text>
<text text-anchor="start" x="95.22" y="-1352" font-family="Arial" font-size="14.00" fill="#666666">[oid]</text>
<polygon fill="none" stroke="black" points="46.2,-1309 46.2,-1339.8 383.31,-1339.8 383.31,-1309 46.2,-1309"/>
<text text-anchor="start" x="53.2" y="-1321.2" font-family="Arial" font-size="14.00">dbid </text>
<text text-anchor="start" x="83.56" y="-1321.2" font-family="Arial" font-size="14.00" fill="#666666">[oid]</text>
<polygon fill="none" stroke="black" points="46.2,-1278.2 46.2,-1309 383.31,-1309 383.31,-1278.2 46.2,-1278.2"/>
<text text-anchor="start" x="53.2" y="-1290.4" font-family="Arial" font-size="14.00">toplevel </text>
<text text-anchor="start" x="105.34" y="-1290.4" font-family="Arial" font-size="14.00" fill="#666666">[boolean]</text>
<polygon fill="none" stroke="black" points="46.2,-1247.4 46.2,-1278.2 383.31,-1278.2 383.31,-1247.4 46.2,-1247.4"/>
<text text-anchor="start" x="53.2" y="-1259.6" font-family="Arial" font-size="14.00">queryid </text>
<text text-anchor="start" x="103.01" y="-1259.6" font-family="Arial" font-size="14.00" fill="#666666">[bigint]</text>
<polygon fill="none" stroke="black" points="46.2,-1216.6 46.2,-1247.4 383.31,-1247.4 383.31,-1216.6 46.2,-1216.6"/>
<text text-anchor="start" x="53.2" y="-1228.8" font-family="Arial" font-size="14.00">query </text>
<text text-anchor="start" x="92.11" y="-1228.8" font-family="Arial" font-size="14.00" fill="#666666">[text]</text>
<polygon fill="none" stroke="black" points="46.2,-1185.8 46.2,-1216.6 383.31,-1216.6 383.31,-1185.8 46.2,-1185.8"/>
<text text-anchor="start" x="53.2" y="-1198" font-family="Arial" font-size="14.00">plans </text>
<text text-anchor="start" x="90.56" y="-1198" font-family="Arial" font-size="14.00" fill="#666666">[bigint]</text>
<polygon fill="none" stroke="black" points="46.2,-1155 46.2,-1185.8 383.31,-1185.8 383.31,-1155 46.2,-1155"/>
<text text-anchor="start" x="53.2" y="-1167.2" font-family="Arial" font-size="14.00">total_plan_time </text>
<text text-anchor="start" x="152.04" y="-1167.2" font-family="Arial" font-size="14.00" fill="#666666">[double precision]</text>
<polygon fill="none" stroke="black" points="46.2,-1124.2 46.2,-1155 383.31,-1155 383.31,-1124.2 46.2,-1124.2"/>
<text text-anchor="start" x="53.2" y="-1136.4" font-family="Arial" font-size="14.00">min_plan_time </text>
<text text-anchor="start" x="148.14" y="-1136.4" font-family="Arial" font-size="14.00" fill="#666666">[double precision]</text>
<polygon fill="none" stroke="black" points="46.2,-1093.4 46.2,-1124.2 383.31,-1124.2 383.31,-1093.4 46.2,-1093.4"/>
<text text-anchor="start" x="53.2" y="-1105.6" font-family="Arial" font-size="14.00">max_plan_time </text>
<text text-anchor="start" x="152.03" y="-1105.6" font-family="Arial" font-size="14.00" fill="#666666">[double precision]</text>
<polygon fill="none" stroke="black" points="46.2,-1062.6 46.2,-1093.4 383.31,-1093.4 383.31,-1062.6 46.2,-1062.6"/>
<text text-anchor="start" x="53.2" y="-1074.8" font-family="Arial" font-size="14.00">mean_plan_time </text>
<text text-anchor="start" x="160.6" y="-1074.8" font-family="Arial" font-size="14.00" fill="#666666">[double precision]</text>
<polygon fill="none" stroke="black" points="46.2,-1031.8 46.2,-1062.6 383.31,-1062.6 383.31,-1031.8 46.2,-1031.8"/>
<text text-anchor="start" x="53.2" y="-1044" font-family="Arial" font-size="14.00">stddev_plan_time </text>
<text text-anchor="start" x="166.83" y="-1044" font-family="Arial" font-size="14.00" fill="#666666">[double precision]</text>
<polygon fill="none" stroke="black" points="46.2,-1001 46.2,-1031.8 383.31,-1031.8 383.31,-1001 46.2,-1001"/>
<text text-anchor="start" x="53.2" y="-1013.2" font-family="Arial" font-size="14.00">calls </text>
<text text-anchor="start" x="85.1" y="-1013.2" font-family="Arial" font-size="14.00" fill="#666666">[bigint]</text>
<polygon fill="none" stroke="black" points="46.2,-970.2 46.2,-1001 383.31,-1001 383.31,-970.2 46.2,-970.2"/>
<text text-anchor="start" x="53.2" y="-982.4" font-family="Arial" font-size="14.00">total_exec_time </text>
<text text-anchor="start" x="155.14" y="-982.4" font-family="Arial" font-size="14.00" fill="#666666">[double precision]</text>
<polygon fill="none" stroke="black" points="46.2,-939.4 46.2,-970.2 383.31,-970.2 383.31,-939.4 46.2,-939.4"/>
<text text-anchor="start" x="53.2" y="-951.6" font-family="Arial" font-size="14.00">min_exec_time </text>
<text text-anchor="start" x="151.24" y="-951.6" font-family="Arial" font-size="14.00" fill="#666666">[double precision]</text>
<polygon fill="none" stroke="black" points="46.2,-908.6 46.2,-939.4 383.31,-939.4 383.31,-908.6 46.2,-908.6"/>
<text text-anchor="start" x="53.2" y="-920.8" font-family="Arial" font-size="14.00">max_exec_time </text>
<text text-anchor="start" x="155.13" y="-920.8" font-family="Arial" font-size="14.00" fill="#666666">[double precision]</text>
<polygon fill="none" stroke="black" points="46.2,-877.8 46.2,-908.6 383.31,-908.6 383.31,-877.8 46.2,-877.8"/>
<text text-anchor="start" x="53.2" y="-890" font-family="Arial" font-size="14.00">mean_exec_time </text>
<text text-anchor="start" x="163.7" y="-890" font-family="Arial" font-size="14.00" fill="#666666">[double precision]</text>
<polygon fill="none" stroke="black" points="46.2,-847 46.2,-877.8 383.31,-877.8 383.31,-847 46.2,-847"/>
<text text-anchor="start" x="53.2" y="-859.2" font-family="Arial" font-size="14.00">stddev_exec_time </text>
<text text-anchor="start" x="169.93" y="-859.2" font-family="Arial" font-size="14.00" fill="#666666">[double precision]</text>
<polygon fill="none" stroke="black" points="46.2,-816.2 46.2,-847 383.31,-847 383.31,-816.2 46.2,-816.2"/>
<text text-anchor="start" x="53.2" y="-828.4" font-family="Arial" font-size="14.00">rows </text>
<text text-anchor="start" x="86.65" y="-828.4" font-family="Arial" font-size="14.00" fill="#666666">[bigint]</text>
<polygon fill="none" stroke="black" points="46.2,-785.4 46.2,-816.2 383.31,-816.2 383.31,-785.4 46.2,-785.4"/>
<text text-anchor="start" x="53.2" y="-797.6" font-family="Arial" font-size="14.00">shared_blks_hit </text>
<text text-anchor="start" x="155.15" y="-797.6" font-family="Arial" font-size="14.00" fill="#666666">[bigint]</text>
<polygon fill="none" stroke="black" points="46.2,-754.6 46.2,-785.4 383.31,-785.4 383.31,-754.6 46.2,-754.6"/>
<text text-anchor="start" x="53.2" y="-766.8" font-family="Arial" font-size="14.00">shared_blks_read </text>
<text text-anchor="start" x="168.39" y="-766.8" font-family="Arial" font-size="14.00" fill="#666666">[bigint]</text>
<polygon fill="none" stroke="black" points="46.2,-723.8 46.2,-754.6 383.31,-754.6 383.31,-723.8 46.2,-723.8"/>
<text text-anchor="start" x="53.2" y="-736" font-family="Arial" font-size="14.00">shared_blks_dirtied </text>
<text text-anchor="start" x="178.5" y="-736" font-family="Arial" font-size="14.00" fill="#666666">[bigint]</text>
<polygon fill="none" stroke="black" points="46.2,-693 46.2,-723.8 383.31,-723.8 383.31,-693 46.2,-693"/>
<text text-anchor="start" x="53.2" y="-705.2" font-family="Arial" font-size="14.00">shared_blks_written </text>
<text text-anchor="start" x="181.6" y="-705.2" font-family="Arial" font-size="14.00" fill="#666666">[bigint]</text>
<polygon fill="none" stroke="black" points="46.2,-662.2 46.2,-693 383.31,-693 383.31,-662.2 46.2,-662.2"/>
<text text-anchor="start" x="53.2" y="-674.4" font-family="Arial" font-size="14.00">local_blks_hit </text>
<text text-anchor="start" x="141.14" y="-674.4" font-family="Arial" font-size="14.00" fill="#666666">[bigint]</text>
<polygon fill="none" stroke="black" points="46.2,-631.4 46.2,-662.2 383.31,-662.2 383.31,-631.4 46.2,-631.4"/>
<text text-anchor="start" x="53.2" y="-643.6" font-family="Arial" font-size="14.00">local_blks_read </text>
<text text-anchor="start" x="154.37" y="-643.6" font-family="Arial" font-size="14.00" fill="#666666">[bigint]</text>
<polygon fill="none" stroke="black" points="46.2,-600.6 46.2,-631.4 383.31,-631.4 383.31,-600.6 46.2,-600.6"/>
<text text-anchor="start" x="53.2" y="-612.8" font-family="Arial" font-size="14.00">local_blks_dirtied </text>
<text text-anchor="start" x="164.48" y="-612.8" font-family="Arial" font-size="14.00" fill="#666666">[bigint]</text>
<polygon fill="none" stroke="black" points="46.2,-569.8 46.2,-600.6 383.31,-600.6 383.31,-569.8 46.2,-569.8"/>
<text text-anchor="start" x="53.2" y="-582" font-family="Arial" font-size="14.00">local_blks_written </text>
<text text-anchor="start" x="167.59" y="-582" font-family="Arial" font-size="14.00" fill="#666666">[bigint]</text>
<polygon fill="none" stroke="black" points="46.2,-539 46.2,-569.8 383.31,-569.8 383.31,-539 46.2,-539"/>
<text text-anchor="start" x="53.2" y="-551.2" font-family="Arial" font-size="14.00">temp_blks_read </text>
<text text-anchor="start" x="156.7" y="-551.2" font-family="Arial" font-size="14.00" fill="#666666">[bigint]</text>
<polygon fill="none" stroke="black" points="46.2,-508.2 46.2,-539 383.31,-539 383.31,-508.2 46.2,-508.2"/>
<text text-anchor="start" x="53.2" y="-520.4" font-family="Arial" font-size="14.00">temp_blks_written </text>
<text text-anchor="start" x="169.92" y="-520.4" font-family="Arial" font-size="14.00" fill="#666666">[bigint]</text>
<polygon fill="none" stroke="black" points="46.2,-477.4 46.2,-508.2 383.31,-508.2 383.31,-477.4 46.2,-477.4"/>
<text text-anchor="start" x="53.2" y="-489.6" font-family="Arial" font-size="14.00">blk_read_time </text>
<text text-anchor="start" x="145.03" y="-489.6" font-family="Arial" font-size="14.00" fill="#666666">[double precision]</text>
<polygon fill="none" stroke="black" points="46.2,-446.6 46.2,-477.4 383.31,-477.4 383.31,-446.6 46.2,-446.6"/>
<text text-anchor="start" x="53.2" y="-458.8" font-family="Arial" font-size="14.00">blk_write_time </text>
<text text-anchor="start" x="146.57" y="-458.8" font-family="Arial" font-size="14.00" fill="#666666">[double precision]</text>
<polygon fill="none" stroke="black" points="46.2,-415.8 46.2,-446.6 383.31,-446.6 383.31,-415.8 46.2,-415.8"/>
<text text-anchor="start" x="53.2" y="-428" font-family="Arial" font-size="14.00">temp_blk_read_time </text>
<text text-anchor="start" x="183.94" y="-428" font-family="Arial" font-size="14.00" fill="#666666">[double precision]</text>
<polygon fill="none" stroke="black" points="46.2,-385 46.2,-415.8 383.31,-415.8 383.31,-385 46.2,-385"/>
<text text-anchor="start" x="53.2" y="-397.2" font-family="Arial" font-size="14.00">temp_blk_write_time </text>
<text text-anchor="start" x="185.48" y="-397.2" font-family="Arial" font-size="14.00" fill="#666666">[double precision]</text>
<polygon fill="none" stroke="black" points="46.2,-354.2 46.2,-385 383.31,-385 383.31,-354.2 46.2,-354.2"/>
<text text-anchor="start" x="53.2" y="-366.4" font-family="Arial" font-size="14.00">wal_records </text>
<text text-anchor="start" x="132.57" y="-366.4" font-family="Arial" font-size="14.00" fill="#666666">[bigint]</text>
<polygon fill="none" stroke="black" points="46.2,-323.4 46.2,-354.2 383.31,-354.2 383.31,-323.4 46.2,-323.4"/>
<text text-anchor="start" x="53.2" y="-335.6" font-family="Arial" font-size="14.00">wal_fpi </text>
<text text-anchor="start" x="100.67" y="-335.6" font-family="Arial" font-size="14.00" fill="#666666">[bigint]</text>
<polygon fill="none" stroke="black" points="46.2,-292.6 46.2,-323.4 383.31,-323.4 383.31,-292.6 46.2,-292.6"/>
<text text-anchor="start" x="53.2" y="-304.8" font-family="Arial" font-size="14.00">wal_bytes </text>
<text text-anchor="start" x="119.34" y="-304.8" font-family="Arial" font-size="14.00" fill="#666666">[numeric]</text>
<polygon fill="none" stroke="black" points="46.2,-261.8 46.2,-292.6 383.31,-292.6 383.31,-261.8 46.2,-261.8"/>
<text text-anchor="start" x="53.2" y="-274" font-family="Arial" font-size="14.00">jit_functions </text>
<text text-anchor="start" x="131.02" y="-274" font-family="Arial" font-size="14.00" fill="#666666">[bigint]</text>
<polygon fill="none" stroke="black" points="46.2,-231 46.2,-261.8 383.31,-261.8 383.31,-231 46.2,-231"/>
<text text-anchor="start" x="53.2" y="-243.2" font-family="Arial" font-size="14.00">jit_generation_time </text>
<text text-anchor="start" x="175.39" y="-243.2" font-family="Arial" font-size="14.00" fill="#666666">[double precision]</text>
<polygon fill="none" stroke="black" points="46.2,-200.2 46.2,-231 383.31,-231 383.31,-200.2 46.2,-200.2"/>
<text text-anchor="start" x="53.2" y="-212.4" font-family="Arial" font-size="14.00">jit_inlining_count </text>
<text text-anchor="start" x="160.61" y="-212.4" font-family="Arial" font-size="14.00" fill="#666666">[bigint]</text>
<polygon fill="none" stroke="black" points="46.2,-169.4 46.2,-200.2 383.31,-200.2 383.31,-169.4 46.2,-169.4"/>
<text text-anchor="start" x="53.2" y="-181.6" font-family="Arial" font-size="14.00">jit_inlining_time </text>
<text text-anchor="start" x="152.81" y="-181.6" font-family="Arial" font-size="14.00" fill="#666666">[double precision]</text>
<polygon fill="none" stroke="black" points="46.2,-138.6 46.2,-169.4 383.31,-169.4 383.31,-138.6 46.2,-138.6"/>
<text text-anchor="start" x="53.2" y="-150.8" font-family="Arial" font-size="14.00">jit_optimization_count </text>
<text text-anchor="start" x="191.72" y="-150.8" font-family="Arial" font-size="14.00" fill="#666666">[bigint]</text>
<polygon fill="none" stroke="black" points="46.2,-107.8 46.2,-138.6 383.31,-138.6 383.31,-107.8 46.2,-107.8"/>
<text text-anchor="start" x="53.2" y="-120" font-family="Arial" font-size="14.00">jit_optimization_time </text>
<text text-anchor="start" x="183.92" y="-120" font-family="Arial" font-size="14.00" fill="#666666">[double precision]</text>
<polygon fill="none" stroke="black" points="46.2,-77 46.2,-107.8 383.31,-107.8 383.31,-77 46.2,-77"/>
<text text-anchor="start" x="53.2" y="-89.2" font-family="Arial" font-size="14.00">jit_emission_count </text>
<text text-anchor="start" x="172.26" y="-89.2" font-family="Arial" font-size="14.00" fill="#666666">[bigint]</text>
<polygon fill="none" stroke="black" points="46.2,-46.2 46.2,-77 383.31,-77 383.31,-46.2 46.2,-46.2"/>
<text text-anchor="start" x="53.2" y="-58.4" font-family="Arial" font-size="14.00">jit_emission_time </text>
<text text-anchor="start" x="164.46" y="-58.4" font-family="Arial" font-size="14.00" fill="#666666">[double precision]</text>
<polygon fill="none" stroke="black" stroke-width="3" points="44.7,-44.7 44.7,-1407.7 384.81,-1407.7 384.81,-44.7 44.7,-44.7"/>
</g>
</g>
</svg>
