<?xml version="1.0" encoding="UTF-8" standalone="no"?>
<!DOCTYPE svg PUBLIC "-//W3C//DTD SVG 1.1//EN"
 "http://www.w3.org/Graphics/SVG/1.1/DTD/svg11.dtd">
<!-- Generated by graphviz version 12.1.2 (20240928.0832)
 -->
<!-- Title: data_archiving.pg_stat_statements_info Pages: 1 -->
<svg width="476pt" height="198pt"
 viewBox="0.00 0.00 475.50 197.60" xmlns="http://www.w3.org/2000/svg" xmlns:xlink="http://www.w3.org/1999/xlink">
<g id="graph0" class="graph" transform="scale(1 1) rotate(0) translate(4 193.6)">
<title>data_archiving.pg_stat_statements_info</title>
<polygon fill="white" stroke="none" points="-4,4 -4,-193.6 471.5,-193.6 471.5,4 -4,4"/>
<!-- data_archiving.pg_stat_statements_info -->
<g id="node1" class="node">
<title>data_archiving.pg_stat_statements_info</title>
<polygon fill="#efefef" stroke="none" points="46.2,-107.8 46.2,-143.4 421.3,-143.4 421.3,-107.8 46.2,-107.8"/>
<polygon fill="none" stroke="black" points="46.2,-107.8 46.2,-143.4 421.3,-143.4 421.3,-107.8 46.2,-107.8"/>
<text text-anchor="start" x="53.2" y="-121.2" font-family="Arial Bold" font-size="18.00">data_archiving.pg_stat_statements_info</text>
<text text-anchor="start" x="339.63" y="-121.2" font-family="Arial" font-size="14.00">    </text>
<text text-anchor="start" x="370.74" y="-121.2" font-family="Arial" font-size="14.00" fill="#666666">[VIEW]</text>
<polygon fill="none" stroke="black" points="46.2,-77 46.2,-107.8 421.3,-107.8 421.3,-77 46.2,-77"/>
<text text-anchor="start" x="53.2" y="-89.2" font-family="Arial" font-size="14.00">dealloc </text>
<text text-anchor="start" x="101.45" y="-89.2" font-family="Arial" font-size="14.00" fill="#666666">[bigint]</text>
<polygon fill="none" stroke="black" points="46.2,-46.2 46.2,-77 421.3,-77 421.3,-46.2 46.2,-46.2"/>
<text text-anchor="start" x="53.2" y="-58.4" font-family="Arial" font-size="14.00">stats_reset </text>
<text text-anchor="start" x="125.57" y="-58.4" font-family="Arial" font-size="14.00" fill="#666666">[timestamp with time zone]</text>
<polygon fill="none" stroke="black" stroke-width="3" points="44.7,-44.7 44.7,-144.9 422.8,-144.9 422.8,-44.7 44.7,-44.7"/>
</g>
</g>
</svg>
