<?xml version="1.0" encoding="UTF-8" standalone="no"?>
<!DOCTYPE svg PUBLIC "-//W3C//DTD SVG 1.1//EN"
 "http://www.w3.org/Graphics/SVG/1.1/DTD/svg11.dtd">
<!-- Generated by graphviz version 12.1.2 (20240928.0832)
 -->
<!-- Title: partman.part_config_sub Pages: 1 -->
<svg width="1140pt" height="1680pt"
 viewBox="0.00 0.00 1140.04 1680.00" xmlns="http://www.w3.org/2000/svg" xmlns:xlink="http://www.w3.org/1999/xlink">
<g id="graph0" class="graph" transform="scale(1 1) rotate(0) translate(4 1676)">
<title>partman.part_config_sub</title>
<polygon fill="white" stroke="none" points="-4,4 -4,-1676 1136.04,-1676 1136.04,4 -4,4"/>
<!-- partman.part_config_sub -->
<g id="node1" class="node">
<title>partman.part_config_sub</title>
<polygon fill="#efefef" stroke="none" points="46.2,-1590.2 46.2,-1625.8 365.14,-1625.8 365.14,-1590.2 46.2,-1590.2"/>
<polygon fill="none" stroke="black" points="46.2,-1590.2 46.2,-1625.8 365.14,-1625.8 365.14,-1590.2 46.2,-1590.2"/>
<text text-anchor="start" x="53.2" y="-1603.6" font-family="Arial Bold" font-size="18.00">partman.part_config_sub</text>
<text text-anchor="start" x="233.65" y="-1603.6" font-family="Arial" font-size="14.00">    </text>
<text text-anchor="start" x="264.77" y="-1603.6" font-family="Arial" font-size="14.00" fill="#666666">[BASE TABLE]</text>
<polygon fill="none" stroke="black" points="46.2,-1559.4 46.2,-1590.2 365.14,-1590.2 365.14,-1559.4 46.2,-1559.4"/>
<text text-anchor="start" x="53.2" y="-1571.6" font-family="Arial" font-size="14.00">sub_parent </text>
<text text-anchor="start" x="127.14" y="-1571.6" font-family="Arial" font-size="14.00" fill="#666666">[text]</text>
<polygon fill="none" stroke="black" points="46.2,-1528.6 46.2,-1559.4 365.14,-1559.4 365.14,-1528.6 46.2,-1528.6"/>
<text text-anchor="start" x="53.2" y="-1540.8" font-family="Arial" font-size="14.00">sub_control </text>
<text text-anchor="start" x="129.47" y="-1540.8" font-family="Arial" font-size="14.00" fill="#666666">[text]</text>
<polygon fill="none" stroke="black" points="46.2,-1497.8 46.2,-1528.6 365.14,-1528.6 365.14,-1497.8 46.2,-1497.8"/>
<text text-anchor="start" x="53.2" y="-1510" font-family="Arial" font-size="14.00">sub_partition_interval </text>
<text text-anchor="start" x="190.17" y="-1510" font-family="Arial" font-size="14.00" fill="#666666">[text]</text>
<polygon fill="none" stroke="black" points="46.2,-1467 46.2,-1497.8 365.14,-1497.8 365.14,-1467 46.2,-1467"/>
<text text-anchor="start" x="53.2" y="-1479.2" font-family="Arial" font-size="14.00">sub_partition_type </text>
<text text-anchor="start" x="171.5" y="-1479.2" font-family="Arial" font-size="14.00" fill="#666666">[text]</text>
<polygon fill="none" stroke="black" points="46.2,-1436.2 46.2,-1467 365.14,-1467 365.14,-1436.2 46.2,-1436.2"/>
<text text-anchor="start" x="53.2" y="-1448.4" font-family="Arial" font-size="14.00">sub_premake </text>
<text text-anchor="start" x="141.92" y="-1448.4" font-family="Arial" font-size="14.00" fill="#666666">[integer]</text>
<polygon fill="none" stroke="black" points="46.2,-1405.4 46.2,-1436.2 365.14,-1436.2 365.14,-1405.4 46.2,-1405.4"/>
<text text-anchor="start" x="53.2" y="-1417.6" font-family="Arial" font-size="14.00">sub_automatic_maintenance </text>
<text text-anchor="start" x="236.1" y="-1417.6" font-family="Arial" font-size="14.00" fill="#666666">[text]</text>
<polygon fill="none" stroke="black" points="46.2,-1374.6 46.2,-1405.4 365.14,-1405.4 365.14,-1374.6 46.2,-1374.6"/>
<text text-anchor="start" x="53.2" y="-1386.8" font-family="Arial" font-size="14.00">sub_template_table </text>
<text text-anchor="start" x="179.29" y="-1386.8" font-family="Arial" font-size="14.00" fill="#666666">[text]</text>
<polygon fill="none" stroke="black" points="46.2,-1343.8 46.2,-1374.6 365.14,-1374.6 365.14,-1343.8 46.2,-1343.8"/>
<text text-anchor="start" x="53.2" y="-1356" font-family="Arial" font-size="14.00">sub_retention </text>
<text text-anchor="start" x="141.93" y="-1356" font-family="Arial" font-size="14.00" fill="#666666">[text]</text>
<polygon fill="none" stroke="black" points="46.2,-1313 46.2,-1343.8 365.14,-1343.8 365.14,-1313 46.2,-1313"/>
<text text-anchor="start" x="53.2" y="-1325.2" font-family="Arial" font-size="14.00">sub_retention_schema </text>
<text text-anchor="start" x="198.74" y="-1325.2" font-family="Arial" font-size="14.00" fill="#666666">[text]</text>
<polygon fill="none" stroke="black" points="46.2,-1282.2 46.2,-1313 365.14,-1313 365.14,-1282.2 46.2,-1282.2"/>
<text text-anchor="start" x="53.2" y="-1294.4" font-family="Arial" font-size="14.00">sub_retention_keep_index </text>
<text text-anchor="start" x="221.33" y="-1294.4" font-family="Arial" font-size="14.00" fill="#666666">[boolean]</text>
<polygon fill="none" stroke="black" points="46.2,-1251.4 46.2,-1282.2 365.14,-1282.2 365.14,-1251.4 46.2,-1251.4"/>
<text text-anchor="start" x="53.2" y="-1263.6" font-family="Arial" font-size="14.00">sub_retention_keep_table </text>
<text text-anchor="start" x="218.22" y="-1263.6" font-family="Arial" font-size="14.00" fill="#666666">[boolean]</text>
<polygon fill="none" stroke="black" points="46.2,-1220.6 46.2,-1251.4 365.14,-1251.4 365.14,-1220.6 46.2,-1220.6"/>
<text text-anchor="start" x="53.2" y="-1232.8" font-family="Arial" font-size="14.00">sub_epoch </text>
<text text-anchor="start" x="125.59" y="-1232.8" font-family="Arial" font-size="14.00" fill="#666666">[text]</text>
<polygon fill="none" stroke="black" points="46.2,-1189.8 46.2,-1220.6 365.14,-1220.6 365.14,-1189.8 46.2,-1189.8"/>
<text text-anchor="start" x="53.2" y="-1202" font-family="Arial" font-size="14.00">sub_constraint_cols </text>
<text text-anchor="start" x="180.83" y="-1202" font-family="Arial" font-size="14.00" fill="#666666">[text[]]</text>
<polygon fill="none" stroke="black" points="46.2,-1159 46.2,-1189.8 365.14,-1189.8 365.14,-1159 46.2,-1159"/>
<text text-anchor="start" x="53.2" y="-1171.2" font-family="Arial" font-size="14.00">sub_optimize_constraint </text>
<text text-anchor="start" x="208.06" y="-1171.2" font-family="Arial" font-size="14.00" fill="#666666">[integer]</text>
<polygon fill="none" stroke="black" points="46.2,-1128.2 46.2,-1159 365.14,-1159 365.14,-1128.2 46.2,-1128.2"/>
<text text-anchor="start" x="53.2" y="-1140.4" font-family="Arial" font-size="14.00">sub_infinite_time_partitions </text>
<text text-anchor="start" x="226.74" y="-1140.4" font-family="Arial" font-size="14.00" fill="#666666">[boolean]</text>
<polygon fill="none" stroke="black" points="46.2,-1097.4 46.2,-1128.2 365.14,-1128.2 365.14,-1097.4 46.2,-1097.4"/>
<text text-anchor="start" x="53.2" y="-1109.6" font-family="Arial" font-size="14.00">sub_jobmon </text>
<text text-anchor="start" x="133.37" y="-1109.6" font-family="Arial" font-size="14.00" fill="#666666">[boolean]</text>
<polygon fill="none" stroke="black" points="46.2,-1066.6 46.2,-1097.4 365.14,-1097.4 365.14,-1066.6 46.2,-1066.6"/>
<text text-anchor="start" x="53.2" y="-1078.8" font-family="Arial" font-size="14.00">sub_inherit_privileges </text>
<text text-anchor="start" x="192.5" y="-1078.8" font-family="Arial" font-size="14.00" fill="#666666">[boolean]</text>
<polygon fill="none" stroke="black" points="46.2,-1035.8 46.2,-1066.6 365.14,-1066.6 365.14,-1035.8 46.2,-1035.8"/>
<text text-anchor="start" x="53.2" y="-1048" font-family="Arial" font-size="14.00">sub_constraint_valid </text>
<text text-anchor="start" x="184.72" y="-1048" font-family="Arial" font-size="14.00" fill="#666666">[boolean]</text>
<polygon fill="none" stroke="black" points="46.2,-1005 46.2,-1035.8 365.14,-1035.8 365.14,-1005 46.2,-1005"/>
<text text-anchor="start" x="53.2" y="-1017.2" font-family="Arial" font-size="14.00">sub_ignore_default_data </text>
<text text-anchor="start" x="211.22" y="-1017.2" font-family="Arial" font-size="14.00" fill="#666666">[boolean]</text>
<polygon fill="none" stroke="black" points="46.2,-974.2 46.2,-1005 365.14,-1005 365.14,-974.2 46.2,-974.2"/>
<text text-anchor="start" x="53.2" y="-986.4" font-family="Arial" font-size="14.00">sub_default_table </text>
<text text-anchor="start" x="167.63" y="-986.4" font-family="Arial" font-size="14.00" fill="#666666">[boolean]</text>
<polygon fill="none" stroke="black" points="46.2,-943.4 46.2,-974.2 365.14,-974.2 365.14,-943.4 46.2,-943.4"/>
<text text-anchor="start" x="53.2" y="-955.6" font-family="Arial" font-size="14.00">sub_date_trunc_interval </text>
<text text-anchor="start" x="206.52" y="-955.6" font-family="Arial" font-size="14.00" fill="#666666">[text]</text>
<polygon fill="none" stroke="black" stroke-width="3" points="44.7,-941.9 44.7,-1627.3 366.64,-1627.3 366.64,-941.9 44.7,-941.9"/>
</g>
<!-- partman.part_config -->
<g id="node2" class="node">
<title>partman.part_config</title>
<polygon fill="#efefef" stroke="none" points="63.2,-782.4 63.2,-818 348.14,-818 348.14,-782.4 63.2,-782.4"/>
<polygon fill="none" stroke="black" points="63.2,-782.4 63.2,-818 348.14,-818 348.14,-782.4 63.2,-782.4"/>
<text text-anchor="start" x="70.2" y="-795.8" font-family="Arial Bold" font-size="18.00">partman.part_config</text>
<text text-anchor="start" x="216.65" y="-795.8" font-family="Arial" font-size="14.00">    </text>
<text text-anchor="start" x="247.76" y="-795.8" font-family="Arial" font-size="14.00" fill="#666666">[BASE TABLE]</text>
<polygon fill="none" stroke="black" points="63.2,-751.6 63.2,-782.4 348.14,-782.4 348.14,-751.6 63.2,-751.6"/>
<text text-anchor="start" x="70.2" y="-763.8" font-family="Arial" font-size="14.00">parent_table </text>
<text text-anchor="start" x="151.93" y="-763.8" font-family="Arial" font-size="14.00" fill="#666666">[text]</text>
<polygon fill="none" stroke="black" points="63.2,-720.8 63.2,-751.6 348.14,-751.6 348.14,-720.8 63.2,-720.8"/>
<text text-anchor="start" x="70.2" y="-733" font-family="Arial" font-size="14.00">control </text>
<text text-anchor="start" x="116.11" y="-733" font-family="Arial" font-size="14.00" fill="#666666">[text]</text>
<polygon fill="none" stroke="black" points="63.2,-690 63.2,-720.8 348.14,-720.8 348.14,-690 63.2,-690"/>
<text text-anchor="start" x="70.2" y="-702.2" font-family="Arial" font-size="14.00">partition_interval </text>
<text text-anchor="start" x="176.82" y="-702.2" font-family="Arial" font-size="14.00" fill="#666666">[text]</text>
<polygon fill="none" stroke="black" points="63.2,-659.2 63.2,-690 348.14,-690 348.14,-659.2 63.2,-659.2"/>
<text text-anchor="start" x="70.2" y="-671.4" font-family="Arial" font-size="14.00">partition_type </text>
<text text-anchor="start" x="158.15" y="-671.4" font-family="Arial" font-size="14.00" fill="#666666">[text]</text>
<polygon fill="none" stroke="black" points="63.2,-628.4 63.2,-659.2 348.14,-659.2 348.14,-628.4 63.2,-628.4"/>
<text text-anchor="start" x="70.2" y="-640.6" font-family="Arial" font-size="14.00">premake </text>
<text text-anchor="start" x="128.56" y="-640.6" font-family="Arial" font-size="14.00" fill="#666666">[integer]</text>
<polygon fill="none" stroke="black" points="63.2,-597.6 63.2,-628.4 348.14,-628.4 348.14,-597.6 63.2,-597.6"/>
<text text-anchor="start" x="70.2" y="-609.8" font-family="Arial" font-size="14.00">automatic_maintenance </text>
<text text-anchor="start" x="222.74" y="-609.8" font-family="Arial" font-size="14.00" fill="#666666">[text]</text>
<polygon fill="none" stroke="black" points="63.2,-566.8 63.2,-597.6 348.14,-597.6 348.14,-566.8 63.2,-566.8"/>
<text text-anchor="start" x="70.2" y="-579" font-family="Arial" font-size="14.00">template_table </text>
<text text-anchor="start" x="165.93" y="-579" font-family="Arial" font-size="14.00" fill="#666666">[text]</text>
<polygon fill="none" stroke="black" points="63.2,-536 63.2,-566.8 348.14,-566.8 348.14,-536 63.2,-536"/>
<text text-anchor="start" x="70.2" y="-548.2" font-family="Arial" font-size="14.00">retention </text>
<text text-anchor="start" x="128.57" y="-548.2" font-family="Arial" font-size="14.00" fill="#666666">[text]</text>
<polygon fill="none" stroke="black" points="63.2,-505.2 63.2,-536 348.14,-536 348.14,-505.2 63.2,-505.2"/>
<text text-anchor="start" x="70.2" y="-517.4" font-family="Arial" font-size="14.00">retention_schema </text>
<text text-anchor="start" x="185.38" y="-517.4" font-family="Arial" font-size="14.00" fill="#666666">[text]</text>
<polygon fill="none" stroke="black" points="63.2,-474.4 63.2,-505.2 348.14,-505.2 348.14,-474.4 63.2,-474.4"/>
<text text-anchor="start" x="70.2" y="-486.6" font-family="Arial" font-size="14.00">retention_keep_index </text>
<text text-anchor="start" x="207.97" y="-486.6" font-family="Arial" font-size="14.00" fill="#666666">[boolean]</text>
<polygon fill="none" stroke="black" points="63.2,-443.6 63.2,-474.4 348.14,-474.4 348.14,-443.6 63.2,-443.6"/>
<text text-anchor="start" x="70.2" y="-455.8" font-family="Arial" font-size="14.00">retention_keep_table </text>
<text text-anchor="start" x="204.86" y="-455.8" font-family="Arial" font-size="14.00" fill="#666666">[boolean]</text>
<polygon fill="none" stroke="black" points="63.2,-412.8 63.2,-443.6 348.14,-443.6 348.14,-412.8 63.2,-412.8"/>
<text text-anchor="start" x="70.2" y="-425" font-family="Arial" font-size="14.00">epoch </text>
<text text-anchor="start" x="112.24" y="-425" font-family="Arial" font-size="14.00" fill="#666666">[text]</text>
<polygon fill="none" stroke="black" points="63.2,-382 63.2,-412.8 348.14,-412.8 348.14,-382 63.2,-382"/>
<text text-anchor="start" x="70.2" y="-394.2" font-family="Arial" font-size="14.00">constraint_cols </text>
<text text-anchor="start" x="167.47" y="-394.2" font-family="Arial" font-size="14.00" fill="#666666">[text[]]</text>
<polygon fill="none" stroke="black" points="63.2,-351.2 63.2,-382 348.14,-382 348.14,-351.2 63.2,-351.2"/>
<text text-anchor="start" x="70.2" y="-363.4" font-family="Arial" font-size="14.00">optimize_constraint </text>
<text text-anchor="start" x="194.71" y="-363.4" font-family="Arial" font-size="14.00" fill="#666666">[integer]</text>
<polygon fill="none" stroke="black" points="63.2,-320.4 63.2,-351.2 348.14,-351.2 348.14,-320.4 63.2,-320.4"/>
<text text-anchor="start" x="70.2" y="-332.6" font-family="Arial" font-size="14.00">infinite_time_partitions </text>
<text text-anchor="start" x="213.39" y="-332.6" font-family="Arial" font-size="14.00" fill="#666666">[boolean]</text>
<polygon fill="none" stroke="black" points="63.2,-289.6 63.2,-320.4 348.14,-320.4 348.14,-289.6 63.2,-289.6"/>
<text text-anchor="start" x="70.2" y="-301.8" font-family="Arial" font-size="14.00">datetime_string </text>
<text text-anchor="start" x="169.81" y="-301.8" font-family="Arial" font-size="14.00" fill="#666666">[text]</text>
<polygon fill="none" stroke="black" points="63.2,-258.8 63.2,-289.6 348.14,-289.6 348.14,-258.8 63.2,-258.8"/>
<text text-anchor="start" x="70.2" y="-271" font-family="Arial" font-size="14.00">jobmon </text>
<text text-anchor="start" x="120.01" y="-271" font-family="Arial" font-size="14.00" fill="#666666">[boolean]</text>
<polygon fill="none" stroke="black" points="63.2,-228 63.2,-258.8 348.14,-258.8 348.14,-228 63.2,-228"/>
<text text-anchor="start" x="70.2" y="-240.2" font-family="Arial" font-size="14.00">sub_partition_set_full </text>
<text text-anchor="start" x="206.4" y="-240.2" font-family="Arial" font-size="14.00" fill="#666666">[boolean]</text>
<polygon fill="none" stroke="black" points="63.2,-197.2 63.2,-228 348.14,-228 348.14,-197.2 63.2,-197.2"/>
<text text-anchor="start" x="70.2" y="-209.4" font-family="Arial" font-size="14.00">undo_in_progress </text>
<text text-anchor="start" x="186.17" y="-209.4" font-family="Arial" font-size="14.00" fill="#666666">[boolean]</text>
<polygon fill="none" stroke="black" points="63.2,-166.4 63.2,-197.2 348.14,-197.2 348.14,-166.4 63.2,-166.4"/>
<text text-anchor="start" x="70.2" y="-178.6" font-family="Arial" font-size="14.00">inherit_privileges </text>
<text text-anchor="start" x="179.15" y="-178.6" font-family="Arial" font-size="14.00" fill="#666666">[boolean]</text>
<polygon fill="none" stroke="black" points="63.2,-135.6 63.2,-166.4 348.14,-166.4 348.14,-135.6 63.2,-135.6"/>
<text text-anchor="start" x="70.2" y="-147.8" font-family="Arial" font-size="14.00">constraint_valid </text>
<text text-anchor="start" x="171.37" y="-147.8" font-family="Arial" font-size="14.00" fill="#666666">[boolean]</text>
<polygon fill="none" stroke="black" points="63.2,-104.8 63.2,-135.6 348.14,-135.6 348.14,-104.8 63.2,-104.8"/>
<text text-anchor="start" x="70.2" y="-117" font-family="Arial" font-size="14.00">ignore_default_data </text>
<text text-anchor="start" x="197.86" y="-117" font-family="Arial" font-size="14.00" fill="#666666">[boolean]</text>
<polygon fill="none" stroke="black" points="63.2,-74 63.2,-104.8 348.14,-104.8 348.14,-74 63.2,-74"/>
<text text-anchor="start" x="70.2" y="-86.2" font-family="Arial" font-size="14.00">default_table </text>
<text text-anchor="start" x="154.27" y="-86.2" font-family="Arial" font-size="14.00" fill="#666666">[boolean]</text>
<polygon fill="none" stroke="black" points="63.2,-43.2 63.2,-74 348.14,-74 348.14,-43.2 63.2,-43.2"/>
<text text-anchor="start" x="70.2" y="-55.4" font-family="Arial" font-size="14.00">date_trunc_interval </text>
<text text-anchor="start" x="193.17" y="-55.4" font-family="Arial" font-size="14.00" fill="#666666">[text]</text>
</g>
<!-- partman.part_config_sub&#45;&gt;partman.part_config -->
<g id="edge1" class="edge">
<title>partman.part_config_sub:sub_parent&#45;&gt;partman.part_config:parent_table</title>
<path fill="none" stroke="black" d="M375.69,-1571.55C454.55,-1515.96 435.58,-767 349.14,-767"/>
<polygon fill="black" stroke="black" points="375.92,-1571.47 365,-1570.43 370.87,-1573.19 366.77,-1574.58 366.77,-1574.58 366.77,-1574.58 370.87,-1573.19 367.91,-1578.95 375.92,-1571.47"/>
<text text-anchor="start" x="373.14" y="-1584.8" font-family="Arial" font-size="10.00">FOREIGN KEY (sub_parent) REFERENCES partman.part_config(parent_table) ON UPDATE CASCADE ON DELETE CASCADE DEFERRABLE INITIALLY DEFERRED</text>
</g>
</g>
</svg>
