<?xml version="1.0" encoding="UTF-8" standalone="no"?>
<!DOCTYPE svg PUBLIC "-//W3C//DTD SVG 1.1//EN"
 "http://www.w3.org/Graphics/SVG/1.1/DTD/svg11.dtd">
<!-- Generated by graphviz version 12.1.2 (20240928.0832)
 -->
<!-- Title: partman.table_privs Pages: 1 -->
<svg width="333pt" height="290pt"
 viewBox="0.00 0.00 332.53 290.00" xmlns="http://www.w3.org/2000/svg" xmlns:xlink="http://www.w3.org/1999/xlink">
<g id="graph0" class="graph" transform="scale(1 1) rotate(0) translate(4 286)">
<title>partman.table_privs</title>
<polygon fill="white" stroke="none" points="-4,4 -4,-286 328.53,-286 328.53,4 -4,4"/>
<!-- partman.table_privs -->
<g id="node1" class="node">
<title>partman.table_privs</title>
<polygon fill="#efefef" stroke="none" points="46.2,-200.2 46.2,-235.8 278.33,-235.8 278.33,-200.2 46.2,-200.2"/>
<polygon fill="none" stroke="black" points="46.2,-200.2 46.2,-235.8 278.33,-235.8 278.33,-200.2 46.2,-200.2"/>
<text text-anchor="start" x="53.2" y="-213.6" font-family="Arial Bold" font-size="18.00">partman.table_privs</text>
<text text-anchor="start" x="196.66" y="-213.6" font-family="Arial" font-size="14.00">    </text>
<text text-anchor="start" x="227.77" y="-213.6" font-family="Arial" font-size="14.00" fill="#666666">[VIEW]</text>
<polygon fill="none" stroke="black" points="46.2,-169.4 46.2,-200.2 278.33,-200.2 278.33,-169.4 46.2,-169.4"/>
<text text-anchor="start" x="53.2" y="-181.6" font-family="Arial" font-size="14.00">grantor </text>
<text text-anchor="start" x="101.45" y="-181.6" font-family="Arial" font-size="14.00" fill="#666666">[name]</text>
<polygon fill="none" stroke="black" points="46.2,-138.6 46.2,-169.4 278.33,-169.4 278.33,-138.6 46.2,-138.6"/>
<text text-anchor="start" x="53.2" y="-150.8" font-family="Arial" font-size="14.00">grantee </text>
<text text-anchor="start" x="104.57" y="-150.8" font-family="Arial" font-size="14.00" fill="#666666">[name]</text>
<polygon fill="none" stroke="black" points="46.2,-107.8 46.2,-138.6 278.33,-138.6 278.33,-107.8 46.2,-107.8"/>
<text text-anchor="start" x="53.2" y="-120" font-family="Arial" font-size="14.00">table_schema </text>
<text text-anchor="start" x="144.25" y="-120" font-family="Arial" font-size="14.00" fill="#666666">[name]</text>
<polygon fill="none" stroke="black" points="46.2,-77 46.2,-107.8 278.33,-107.8 278.33,-77 46.2,-77"/>
<text text-anchor="start" x="53.2" y="-89.2" font-family="Arial" font-size="14.00">table_name </text>
<text text-anchor="start" x="130.25" y="-89.2" font-family="Arial" font-size="14.00" fill="#666666">[name]</text>
<polygon fill="none" stroke="black" points="46.2,-46.2 46.2,-77 278.33,-77 278.33,-46.2 46.2,-46.2"/>
<text text-anchor="start" x="53.2" y="-58.4" font-family="Arial" font-size="14.00">privilege_type </text>
<text text-anchor="start" x="143.48" y="-58.4" font-family="Arial" font-size="14.00" fill="#666666">[text]</text>
<polygon fill="none" stroke="black" stroke-width="3" points="44.7,-44.7 44.7,-237.3 279.83,-237.3 279.83,-44.7 44.7,-44.7"/>
</g>
</g>
</svg>
