<?xml version="1.0" encoding="UTF-8" standalone="no"?>
<!DOCTYPE svg PUBLIC "-//W3C//DTD SVG 1.1//EN"
 "http://www.w3.org/Graphics/SVG/1.1/DTD/svg11.dtd">
<!-- Generated by graphviz version 12.1.2 (20240928.0832)
 -->
<!-- Title: partman.part_config Pages: 1 -->
<svg width="1137pt" height="1680pt"
 viewBox="0.00 0.00 1137.04 1680.00" xmlns="http://www.w3.org/2000/svg" xmlns:xlink="http://www.w3.org/1999/xlink">
<g id="graph0" class="graph" transform="scale(1 1) rotate(0) translate(4 1676)">
<title>partman.part_config</title>
<polygon fill="white" stroke="none" points="-4,4 -4,-1676 1133.04,-1676 1133.04,4 -4,4"/>
<!-- partman.part_config -->
<g id="node1" class="node">
<title>partman.part_config</title>
<polygon fill="#efefef" stroke="none" points="60.2,-785.4 60.2,-821 345.14,-821 345.14,-785.4 60.2,-785.4"/>
<polygon fill="none" stroke="black" points="60.2,-785.4 60.2,-821 345.14,-821 345.14,-785.4 60.2,-785.4"/>
<text text-anchor="start" x="67.2" y="-798.8" font-family="Arial Bold" font-size="18.00">partman.part_config</text>
<text text-anchor="start" x="213.65" y="-798.8" font-family="Arial" font-size="14.00">    </text>
<text text-anchor="start" x="244.76" y="-798.8" font-family="Arial" font-size="14.00" fill="#666666">[BASE TABLE]</text>
<polygon fill="none" stroke="black" points="60.2,-754.6 60.2,-785.4 345.14,-785.4 345.14,-754.6 60.2,-754.6"/>
<text text-anchor="start" x="67.2" y="-766.8" font-family="Arial" font-size="14.00">parent_table </text>
<text text-anchor="start" x="148.93" y="-766.8" font-family="Arial" font-size="14.00" fill="#666666">[text]</text>
<polygon fill="none" stroke="black" points="60.2,-723.8 60.2,-754.6 345.14,-754.6 345.14,-723.8 60.2,-723.8"/>
<text text-anchor="start" x="67.2" y="-736" font-family="Arial" font-size="14.00">control </text>
<text text-anchor="start" x="113.11" y="-736" font-family="Arial" font-size="14.00" fill="#666666">[text]</text>
<polygon fill="none" stroke="black" points="60.2,-693 60.2,-723.8 345.14,-723.8 345.14,-693 60.2,-693"/>
<text text-anchor="start" x="67.2" y="-705.2" font-family="Arial" font-size="14.00">partition_interval </text>
<text text-anchor="start" x="173.82" y="-705.2" font-family="Arial" font-size="14.00" fill="#666666">[text]</text>
<polygon fill="none" stroke="black" points="60.2,-662.2 60.2,-693 345.14,-693 345.14,-662.2 60.2,-662.2"/>
<text text-anchor="start" x="67.2" y="-674.4" font-family="Arial" font-size="14.00">partition_type </text>
<text text-anchor="start" x="155.15" y="-674.4" font-family="Arial" font-size="14.00" fill="#666666">[text]</text>
<polygon fill="none" stroke="black" points="60.2,-631.4 60.2,-662.2 345.14,-662.2 345.14,-631.4 60.2,-631.4"/>
<text text-anchor="start" x="67.2" y="-643.6" font-family="Arial" font-size="14.00">premake </text>
<text text-anchor="start" x="125.56" y="-643.6" font-family="Arial" font-size="14.00" fill="#666666">[integer]</text>
<polygon fill="none" stroke="black" points="60.2,-600.6 60.2,-631.4 345.14,-631.4 345.14,-600.6 60.2,-600.6"/>
<text text-anchor="start" x="67.2" y="-612.8" font-family="Arial" font-size="14.00">automatic_maintenance </text>
<text text-anchor="start" x="219.74" y="-612.8" font-family="Arial" font-size="14.00" fill="#666666">[text]</text>
<polygon fill="none" stroke="black" points="60.2,-569.8 60.2,-600.6 345.14,-600.6 345.14,-569.8 60.2,-569.8"/>
<text text-anchor="start" x="67.2" y="-582" font-family="Arial" font-size="14.00">template_table </text>
<text text-anchor="start" x="162.93" y="-582" font-family="Arial" font-size="14.00" fill="#666666">[text]</text>
<polygon fill="none" stroke="black" points="60.2,-539 60.2,-569.8 345.14,-569.8 345.14,-539 60.2,-539"/>
<text text-anchor="start" x="67.2" y="-551.2" font-family="Arial" font-size="14.00">retention </text>
<text text-anchor="start" x="125.57" y="-551.2" font-family="Arial" font-size="14.00" fill="#666666">[text]</text>
<polygon fill="none" stroke="black" points="60.2,-508.2 60.2,-539 345.14,-539 345.14,-508.2 60.2,-508.2"/>
<text text-anchor="start" x="67.2" y="-520.4" font-family="Arial" font-size="14.00">retention_schema </text>
<text text-anchor="start" x="182.38" y="-520.4" font-family="Arial" font-size="14.00" fill="#666666">[text]</text>
<polygon fill="none" stroke="black" points="60.2,-477.4 60.2,-508.2 345.14,-508.2 345.14,-477.4 60.2,-477.4"/>
<text text-anchor="start" x="67.2" y="-489.6" font-family="Arial" font-size="14.00">retention_keep_index </text>
<text text-anchor="start" x="204.97" y="-489.6" font-family="Arial" font-size="14.00" fill="#666666">[boolean]</text>
<polygon fill="none" stroke="black" points="60.2,-446.6 60.2,-477.4 345.14,-477.4 345.14,-446.6 60.2,-446.6"/>
<text text-anchor="start" x="67.2" y="-458.8" font-family="Arial" font-size="14.00">retention_keep_table </text>
<text text-anchor="start" x="201.86" y="-458.8" font-family="Arial" font-size="14.00" fill="#666666">[boolean]</text>
<polygon fill="none" stroke="black" points="60.2,-415.8 60.2,-446.6 345.14,-446.6 345.14,-415.8 60.2,-415.8"/>
<text text-anchor="start" x="67.2" y="-428" font-family="Arial" font-size="14.00">epoch </text>
<text text-anchor="start" x="109.24" y="-428" font-family="Arial" font-size="14.00" fill="#666666">[text]</text>
<polygon fill="none" stroke="black" points="60.2,-385 60.2,-415.8 345.14,-415.8 345.14,-385 60.2,-385"/>
<text text-anchor="start" x="67.2" y="-397.2" font-family="Arial" font-size="14.00">constraint_cols </text>
<text text-anchor="start" x="164.47" y="-397.2" font-family="Arial" font-size="14.00" fill="#666666">[text[]]</text>
<polygon fill="none" stroke="black" points="60.2,-354.2 60.2,-385 345.14,-385 345.14,-354.2 60.2,-354.2"/>
<text text-anchor="start" x="67.2" y="-366.4" font-family="Arial" font-size="14.00">optimize_constraint </text>
<text text-anchor="start" x="191.71" y="-366.4" font-family="Arial" font-size="14.00" fill="#666666">[integer]</text>
<polygon fill="none" stroke="black" points="60.2,-323.4 60.2,-354.2 345.14,-354.2 345.14,-323.4 60.2,-323.4"/>
<text text-anchor="start" x="67.2" y="-335.6" font-family="Arial" font-size="14.00">infinite_time_partitions </text>
<text text-anchor="start" x="210.39" y="-335.6" font-family="Arial" font-size="14.00" fill="#666666">[boolean]</text>
<polygon fill="none" stroke="black" points="60.2,-292.6 60.2,-323.4 345.14,-323.4 345.14,-292.6 60.2,-292.6"/>
<text text-anchor="start" x="67.2" y="-304.8" font-family="Arial" font-size="14.00">datetime_string </text>
<text text-anchor="start" x="166.81" y="-304.8" font-family="Arial" font-size="14.00" fill="#666666">[text]</text>
<polygon fill="none" stroke="black" points="60.2,-261.8 60.2,-292.6 345.14,-292.6 345.14,-261.8 60.2,-261.8"/>
<text text-anchor="start" x="67.2" y="-274" font-family="Arial" font-size="14.00">jobmon </text>
<text text-anchor="start" x="117.01" y="-274" font-family="Arial" font-size="14.00" fill="#666666">[boolean]</text>
<polygon fill="none" stroke="black" points="60.2,-231 60.2,-261.8 345.14,-261.8 345.14,-231 60.2,-231"/>
<text text-anchor="start" x="67.2" y="-243.2" font-family="Arial" font-size="14.00">sub_partition_set_full </text>
<text text-anchor="start" x="203.4" y="-243.2" font-family="Arial" font-size="14.00" fill="#666666">[boolean]</text>
<polygon fill="none" stroke="black" points="60.2,-200.2 60.2,-231 345.14,-231 345.14,-200.2 60.2,-200.2"/>
<text text-anchor="start" x="67.2" y="-212.4" font-family="Arial" font-size="14.00">undo_in_progress </text>
<text text-anchor="start" x="183.17" y="-212.4" font-family="Arial" font-size="14.00" fill="#666666">[boolean]</text>
<polygon fill="none" stroke="black" points="60.2,-169.4 60.2,-200.2 345.14,-200.2 345.14,-169.4 60.2,-169.4"/>
<text text-anchor="start" x="67.2" y="-181.6" font-family="Arial" font-size="14.00">inherit_privileges </text>
<text text-anchor="start" x="176.15" y="-181.6" font-family="Arial" font-size="14.00" fill="#666666">[boolean]</text>
<polygon fill="none" stroke="black" points="60.2,-138.6 60.2,-169.4 345.14,-169.4 345.14,-138.6 60.2,-138.6"/>
<text text-anchor="start" x="67.2" y="-150.8" font-family="Arial" font-size="14.00">constraint_valid </text>
<text text-anchor="start" x="168.37" y="-150.8" font-family="Arial" font-size="14.00" fill="#666666">[boolean]</text>
<polygon fill="none" stroke="black" points="60.2,-107.8 60.2,-138.6 345.14,-138.6 345.14,-107.8 60.2,-107.8"/>
<text text-anchor="start" x="67.2" y="-120" font-family="Arial" font-size="14.00">ignore_default_data </text>
<text text-anchor="start" x="194.86" y="-120" font-family="Arial" font-size="14.00" fill="#666666">[boolean]</text>
<polygon fill="none" stroke="black" points="60.2,-77 60.2,-107.8 345.14,-107.8 345.14,-77 60.2,-77"/>
<text text-anchor="start" x="67.2" y="-89.2" font-family="Arial" font-size="14.00">default_table </text>
<text text-anchor="start" x="151.27" y="-89.2" font-family="Arial" font-size="14.00" fill="#666666">[boolean]</text>
<polygon fill="none" stroke="black" points="60.2,-46.2 60.2,-77 345.14,-77 345.14,-46.2 60.2,-46.2"/>
<text text-anchor="start" x="67.2" y="-58.4" font-family="Arial" font-size="14.00">date_trunc_interval </text>
<text text-anchor="start" x="190.17" y="-58.4" font-family="Arial" font-size="14.00" fill="#666666">[text]</text>
<polygon fill="none" stroke="black" stroke-width="3" points="58.7,-44.7 58.7,-822.5 346.64,-822.5 346.64,-44.7 58.7,-44.7"/>
</g>
<!-- partman.part_config_sub -->
<g id="node2" class="node">
<title>partman.part_config_sub</title>
<polygon fill="#efefef" stroke="none" points="43.2,-1593.2 43.2,-1628.8 362.14,-1628.8 362.14,-1593.2 43.2,-1593.2"/>
<polygon fill="none" stroke="black" points="43.2,-1593.2 43.2,-1628.8 362.14,-1628.8 362.14,-1593.2 43.2,-1593.2"/>
<text text-anchor="start" x="50.2" y="-1606.6" font-family="Arial Bold" font-size="18.00">partman.part_config_sub</text>
<text text-anchor="start" x="230.65" y="-1606.6" font-family="Arial" font-size="14.00">    </text>
<text text-anchor="start" x="261.77" y="-1606.6" font-family="Arial" font-size="14.00" fill="#666666">[BASE TABLE]</text>
<polygon fill="none" stroke="black" points="43.2,-1562.4 43.2,-1593.2 362.14,-1593.2 362.14,-1562.4 43.2,-1562.4"/>
<text text-anchor="start" x="50.2" y="-1574.6" font-family="Arial" font-size="14.00">sub_parent </text>
<text text-anchor="start" x="124.14" y="-1574.6" font-family="Arial" font-size="14.00" fill="#666666">[text]</text>
<polygon fill="none" stroke="black" points="43.2,-1531.6 43.2,-1562.4 362.14,-1562.4 362.14,-1531.6 43.2,-1531.6"/>
<text text-anchor="start" x="50.2" y="-1543.8" font-family="Arial" font-size="14.00">sub_control </text>
<text text-anchor="start" x="126.47" y="-1543.8" font-family="Arial" font-size="14.00" fill="#666666">[text]</text>
<polygon fill="none" stroke="black" points="43.2,-1500.8 43.2,-1531.6 362.14,-1531.6 362.14,-1500.8 43.2,-1500.8"/>
<text text-anchor="start" x="50.2" y="-1513" font-family="Arial" font-size="14.00">sub_partition_interval </text>
<text text-anchor="start" x="187.17" y="-1513" font-family="Arial" font-size="14.00" fill="#666666">[text]</text>
<polygon fill="none" stroke="black" points="43.2,-1470 43.2,-1500.8 362.14,-1500.8 362.14,-1470 43.2,-1470"/>
<text text-anchor="start" x="50.2" y="-1482.2" font-family="Arial" font-size="14.00">sub_partition_type </text>
<text text-anchor="start" x="168.5" y="-1482.2" font-family="Arial" font-size="14.00" fill="#666666">[text]</text>
<polygon fill="none" stroke="black" points="43.2,-1439.2 43.2,-1470 362.14,-1470 362.14,-1439.2 43.2,-1439.2"/>
<text text-anchor="start" x="50.2" y="-1451.4" font-family="Arial" font-size="14.00">sub_premake </text>
<text text-anchor="start" x="138.92" y="-1451.4" font-family="Arial" font-size="14.00" fill="#666666">[integer]</text>
<polygon fill="none" stroke="black" points="43.2,-1408.4 43.2,-1439.2 362.14,-1439.2 362.14,-1408.4 43.2,-1408.4"/>
<text text-anchor="start" x="50.2" y="-1420.6" font-family="Arial" font-size="14.00">sub_automatic_maintenance </text>
<text text-anchor="start" x="233.1" y="-1420.6" font-family="Arial" font-size="14.00" fill="#666666">[text]</text>
<polygon fill="none" stroke="black" points="43.2,-1377.6 43.2,-1408.4 362.14,-1408.4 362.14,-1377.6 43.2,-1377.6"/>
<text text-anchor="start" x="50.2" y="-1389.8" font-family="Arial" font-size="14.00">sub_template_table </text>
<text text-anchor="start" x="176.29" y="-1389.8" font-family="Arial" font-size="14.00" fill="#666666">[text]</text>
<polygon fill="none" stroke="black" points="43.2,-1346.8 43.2,-1377.6 362.14,-1377.6 362.14,-1346.8 43.2,-1346.8"/>
<text text-anchor="start" x="50.2" y="-1359" font-family="Arial" font-size="14.00">sub_retention </text>
<text text-anchor="start" x="138.93" y="-1359" font-family="Arial" font-size="14.00" fill="#666666">[text]</text>
<polygon fill="none" stroke="black" points="43.2,-1316 43.2,-1346.8 362.14,-1346.8 362.14,-1316 43.2,-1316"/>
<text text-anchor="start" x="50.2" y="-1328.2" font-family="Arial" font-size="14.00">sub_retention_schema </text>
<text text-anchor="start" x="195.74" y="-1328.2" font-family="Arial" font-size="14.00" fill="#666666">[text]</text>
<polygon fill="none" stroke="black" points="43.2,-1285.2 43.2,-1316 362.14,-1316 362.14,-1285.2 43.2,-1285.2"/>
<text text-anchor="start" x="50.2" y="-1297.4" font-family="Arial" font-size="14.00">sub_retention_keep_index </text>
<text text-anchor="start" x="218.33" y="-1297.4" font-family="Arial" font-size="14.00" fill="#666666">[boolean]</text>
<polygon fill="none" stroke="black" points="43.2,-1254.4 43.2,-1285.2 362.14,-1285.2 362.14,-1254.4 43.2,-1254.4"/>
<text text-anchor="start" x="50.2" y="-1266.6" font-family="Arial" font-size="14.00">sub_retention_keep_table </text>
<text text-anchor="start" x="215.22" y="-1266.6" font-family="Arial" font-size="14.00" fill="#666666">[boolean]</text>
<polygon fill="none" stroke="black" points="43.2,-1223.6 43.2,-1254.4 362.14,-1254.4 362.14,-1223.6 43.2,-1223.6"/>
<text text-anchor="start" x="50.2" y="-1235.8" font-family="Arial" font-size="14.00">sub_epoch </text>
<text text-anchor="start" x="122.59" y="-1235.8" font-family="Arial" font-size="14.00" fill="#666666">[text]</text>
<polygon fill="none" stroke="black" points="43.2,-1192.8 43.2,-1223.6 362.14,-1223.6 362.14,-1192.8 43.2,-1192.8"/>
<text text-anchor="start" x="50.2" y="-1205" font-family="Arial" font-size="14.00">sub_constraint_cols </text>
<text text-anchor="start" x="177.83" y="-1205" font-family="Arial" font-size="14.00" fill="#666666">[text[]]</text>
<polygon fill="none" stroke="black" points="43.2,-1162 43.2,-1192.8 362.14,-1192.8 362.14,-1162 43.2,-1162"/>
<text text-anchor="start" x="50.2" y="-1174.2" font-family="Arial" font-size="14.00">sub_optimize_constraint </text>
<text text-anchor="start" x="205.06" y="-1174.2" font-family="Arial" font-size="14.00" fill="#666666">[integer]</text>
<polygon fill="none" stroke="black" points="43.2,-1131.2 43.2,-1162 362.14,-1162 362.14,-1131.2 43.2,-1131.2"/>
<text text-anchor="start" x="50.2" y="-1143.4" font-family="Arial" font-size="14.00">sub_infinite_time_partitions </text>
<text text-anchor="start" x="223.74" y="-1143.4" font-family="Arial" font-size="14.00" fill="#666666">[boolean]</text>
<polygon fill="none" stroke="black" points="43.2,-1100.4 43.2,-1131.2 362.14,-1131.2 362.14,-1100.4 43.2,-1100.4"/>
<text text-anchor="start" x="50.2" y="-1112.6" font-family="Arial" font-size="14.00">sub_jobmon </text>
<text text-anchor="start" x="130.37" y="-1112.6" font-family="Arial" font-size="14.00" fill="#666666">[boolean]</text>
<polygon fill="none" stroke="black" points="43.2,-1069.6 43.2,-1100.4 362.14,-1100.4 362.14,-1069.6 43.2,-1069.6"/>
<text text-anchor="start" x="50.2" y="-1081.8" font-family="Arial" font-size="14.00">sub_inherit_privileges </text>
<text text-anchor="start" x="189.5" y="-1081.8" font-family="Arial" font-size="14.00" fill="#666666">[boolean]</text>
<polygon fill="none" stroke="black" points="43.2,-1038.8 43.2,-1069.6 362.14,-1069.6 362.14,-1038.8 43.2,-1038.8"/>
<text text-anchor="start" x="50.2" y="-1051" font-family="Arial" font-size="14.00">sub_constraint_valid </text>
<text text-anchor="start" x="181.72" y="-1051" font-family="Arial" font-size="14.00" fill="#666666">[boolean]</text>
<polygon fill="none" stroke="black" points="43.2,-1008 43.2,-1038.8 362.14,-1038.8 362.14,-1008 43.2,-1008"/>
<text text-anchor="start" x="50.2" y="-1020.2" font-family="Arial" font-size="14.00">sub_ignore_default_data </text>
<text text-anchor="start" x="208.22" y="-1020.2" font-family="Arial" font-size="14.00" fill="#666666">[boolean]</text>
<polygon fill="none" stroke="black" points="43.2,-977.2 43.2,-1008 362.14,-1008 362.14,-977.2 43.2,-977.2"/>
<text text-anchor="start" x="50.2" y="-989.4" font-family="Arial" font-size="14.00">sub_default_table </text>
<text text-anchor="start" x="164.63" y="-989.4" font-family="Arial" font-size="14.00" fill="#666666">[boolean]</text>
<polygon fill="none" stroke="black" points="43.2,-946.4 43.2,-977.2 362.14,-977.2 362.14,-946.4 43.2,-946.4"/>
<text text-anchor="start" x="50.2" y="-958.6" font-family="Arial" font-size="14.00">sub_date_trunc_interval </text>
<text text-anchor="start" x="203.52" y="-958.6" font-family="Arial" font-size="14.00" fill="#666666">[text]</text>
</g>
<!-- partman.part_config_sub&#45;&gt;partman.part_config -->
<g id="edge1" class="edge">
<title>partman.part_config_sub:sub_parent&#45;&gt;partman.part_config:parent_table</title>
<path fill="none" stroke="black" d="M372.69,-1574.55C451.55,-1518.96 432.58,-770 346.14,-770"/>
<polygon fill="black" stroke="black" points="372.92,-1574.47 362,-1573.43 367.87,-1576.19 363.77,-1577.58 363.77,-1577.58 363.77,-1577.58 367.87,-1576.19 364.91,-1581.95 372.92,-1574.47"/>
<text text-anchor="start" x="370.14" y="-1587.8" font-family="Arial" font-size="10.00">FOREIGN KEY (sub_parent) REFERENCES partman.part_config(parent_table) ON UPDATE CASCADE ON DELETE CASCADE DEFERRABLE INITIALLY DEFERRED</text>
</g>
</g>
</svg>
