<?xml version="1.0" encoding="UTF-8" standalone="no"?>
<!DOCTYPE svg PUBLIC "-//W3C//DTD SVG 1.1//EN"
 "http://www.w3.org/Graphics/SVG/1.1/DTD/svg11.dtd">
<!-- Generated by graphviz version 12.1.2 (20240928.0832)
 -->
<!-- Title: public.batches_outsource Pages: 1 -->
<svg width="728pt" height="818pt"
 viewBox="0.00 0.00 727.57 817.60" xmlns="http://www.w3.org/2000/svg" xmlns:xlink="http://www.w3.org/1999/xlink">
<g id="graph0" class="graph" transform="scale(1 1) rotate(0) translate(4 813.6)">
<title>public.batches_outsource</title>
<polygon fill="white" stroke="none" points="-4,4 -4,-813.6 723.57,-813.6 723.57,4 -4,4"/>
<!-- public.batches_outsource -->
<g id="node1" class="node">
<title>public.batches_outsource</title>
<polygon fill="#efefef" stroke="none" points="69.2,-415.8 69.2,-451.4 390.13,-451.4 390.13,-415.8 69.2,-415.8"/>
<polygon fill="none" stroke="black" points="69.2,-415.8 69.2,-451.4 390.13,-451.4 390.13,-415.8 69.2,-415.8"/>
<text text-anchor="start" x="76.2" y="-429.2" font-family="Arial Bold" font-size="18.00">public.batches_outsource</text>
<text text-anchor="start" x="258.64" y="-429.2" font-family="Arial" font-size="14.00">    </text>
<text text-anchor="start" x="289.76" y="-429.2" font-family="Arial" font-size="14.00" fill="#666666">[BASE TABLE]</text>
<polygon fill="none" stroke="black" points="69.2,-385 69.2,-415.8 390.13,-415.8 390.13,-385 69.2,-385"/>
<text text-anchor="start" x="76.2" y="-397.2" font-family="Arial" font-size="14.00">id </text>
<text text-anchor="start" x="90.98" y="-397.2" font-family="Arial" font-size="14.00" fill="#666666">[bigint]</text>
<polygon fill="none" stroke="black" points="69.2,-354.2 69.2,-385 390.13,-385 390.13,-354.2 69.2,-354.2"/>
<text text-anchor="start" x="76.2" y="-366.4" font-family="Arial" font-size="14.00">batch_name </text>
<text text-anchor="start" x="157.14" y="-366.4" font-family="Arial" font-size="14.00" fill="#666666">[varchar(255)]</text>
<polygon fill="none" stroke="black" points="69.2,-323.4 69.2,-354.2 390.13,-354.2 390.13,-323.4 69.2,-323.4"/>
<text text-anchor="start" x="76.2" y="-335.6" font-family="Arial" font-size="14.00">batch_code </text>
<text text-anchor="start" x="152.48" y="-335.6" font-family="Arial" font-size="14.00" fill="#666666">[varchar(255)]</text>
<polygon fill="none" stroke="black" points="69.2,-292.6 69.2,-323.4 390.13,-323.4 390.13,-292.6 69.2,-292.6"/>
<text text-anchor="start" x="76.2" y="-304.8" font-family="Arial" font-size="14.00">laboratory </text>
<text text-anchor="start" x="142.34" y="-304.8" font-family="Arial" font-size="14.00" fill="#666666">[varchar(255)]</text>
<polygon fill="none" stroke="black" points="69.2,-261.8 69.2,-292.6 390.13,-292.6 390.13,-261.8 69.2,-261.8"/>
<text text-anchor="start" x="76.2" y="-274" font-family="Arial" font-size="14.00">status </text>
<text text-anchor="start" x="117.44" y="-274" font-family="Arial" font-size="14.00" fill="#666666">[varchar(255)]</text>
<polygon fill="none" stroke="black" points="69.2,-231 69.2,-261.8 390.13,-261.8 390.13,-231 69.2,-231"/>
<text text-anchor="start" x="76.2" y="-243.2" font-family="Arial" font-size="14.00">created_by </text>
<text text-anchor="start" x="149.36" y="-243.2" font-family="Arial" font-size="14.00" fill="#666666">[varchar(255)]</text>
<polygon fill="none" stroke="black" points="69.2,-200.2 69.2,-231 390.13,-231 390.13,-200.2 69.2,-200.2"/>
<text text-anchor="start" x="76.2" y="-212.4" font-family="Arial" font-size="14.00">transferred_at </text>
<text text-anchor="start" x="167.25" y="-212.4" font-family="Arial" font-size="14.00" fill="#666666">[timestamp(0) without time zone]</text>
<polygon fill="none" stroke="black" points="69.2,-169.4 69.2,-200.2 390.13,-200.2 390.13,-169.4 69.2,-169.4"/>
<text text-anchor="start" x="76.2" y="-181.6" font-family="Arial" font-size="14.00">cancelled_at </text>
<text text-anchor="start" x="158.7" y="-181.6" font-family="Arial" font-size="14.00" fill="#666666">[timestamp(0) without time zone]</text>
<polygon fill="none" stroke="black" points="69.2,-138.6 69.2,-169.4 390.13,-169.4 390.13,-138.6 69.2,-138.6"/>
<text text-anchor="start" x="76.2" y="-150.8" font-family="Arial" font-size="14.00">completed_at </text>
<text text-anchor="start" x="164.14" y="-150.8" font-family="Arial" font-size="14.00" fill="#666666">[timestamp(0) without time zone]</text>
<polygon fill="none" stroke="black" points="69.2,-107.8 69.2,-138.6 390.13,-138.6 390.13,-107.8 69.2,-107.8"/>
<text text-anchor="start" x="76.2" y="-120" font-family="Arial" font-size="14.00">total_sample </text>
<text text-anchor="start" x="159.47" y="-120" font-family="Arial" font-size="14.00" fill="#666666">[integer]</text>
<polygon fill="none" stroke="black" points="69.2,-77 69.2,-107.8 390.13,-107.8 390.13,-77 69.2,-77"/>
<text text-anchor="start" x="76.2" y="-89.2" font-family="Arial" font-size="14.00">created_at </text>
<text text-anchor="start" x="146.25" y="-89.2" font-family="Arial" font-size="14.00" fill="#666666">[timestamp(0) without time zone]</text>
<polygon fill="none" stroke="black" points="69.2,-46.2 69.2,-77 390.13,-77 390.13,-46.2 69.2,-46.2"/>
<text text-anchor="start" x="76.2" y="-58.4" font-family="Arial" font-size="14.00">updated_at </text>
<text text-anchor="start" x="150.16" y="-58.4" font-family="Arial" font-size="14.00" fill="#666666">[timestamp(0) without time zone]</text>
<polygon fill="none" stroke="black" stroke-width="3" points="67.7,-44.7 67.7,-452.9 391.63,-452.9 391.63,-44.7 67.7,-44.7"/>
</g>
<!-- public.batch_outsource_samples -->
<g id="node2" class="node">
<title>public.batch_outsource_samples</title>
<polygon fill="#efefef" stroke="none" points="43.2,-730.8 43.2,-766.4 416.13,-766.4 416.13,-730.8 43.2,-730.8"/>
<polygon fill="none" stroke="black" points="43.2,-730.8 43.2,-766.4 416.13,-766.4 416.13,-730.8 43.2,-730.8"/>
<text text-anchor="start" x="50.2" y="-744.2" font-family="Arial Bold" font-size="18.00">public.batch_outsource_samples</text>
<text text-anchor="start" x="284.64" y="-744.2" font-family="Arial" font-size="14.00">    </text>
<text text-anchor="start" x="315.76" y="-744.2" font-family="Arial" font-size="14.00" fill="#666666">[BASE TABLE]</text>
<polygon fill="none" stroke="black" points="43.2,-700 43.2,-730.8 416.13,-730.8 416.13,-700 43.2,-700"/>
<text text-anchor="start" x="50.2" y="-712.2" font-family="Arial" font-size="14.00">id </text>
<text text-anchor="start" x="64.99" y="-712.2" font-family="Arial" font-size="14.00" fill="#666666">[bigint]</text>
<polygon fill="none" stroke="black" points="43.2,-669.2 43.2,-700 416.13,-700 416.13,-669.2 43.2,-669.2"/>
<text text-anchor="start" x="50.2" y="-681.4" font-family="Arial" font-size="14.00">batch_id </text>
<text text-anchor="start" x="107.02" y="-681.4" font-family="Arial" font-size="14.00" fill="#666666">[bigint]</text>
<polygon fill="none" stroke="black" points="43.2,-638.4 43.2,-669.2 416.13,-669.2 416.13,-638.4 43.2,-638.4"/>
<text text-anchor="start" x="50.2" y="-650.6" font-family="Arial" font-size="14.00">sample_id </text>
<text text-anchor="start" x="117.9" y="-650.6" font-family="Arial" font-size="14.00" fill="#666666">[varchar(255)]</text>
<polygon fill="none" stroke="black" points="43.2,-607.6 43.2,-638.4 416.13,-638.4 416.13,-607.6 43.2,-607.6"/>
<text text-anchor="start" x="50.2" y="-619.8" font-family="Arial" font-size="14.00">created_at </text>
<text text-anchor="start" x="120.25" y="-619.8" font-family="Arial" font-size="14.00" fill="#666666">[timestamp(0) without time zone]</text>
<polygon fill="none" stroke="black" points="43.2,-576.8 43.2,-607.6 416.13,-607.6 416.13,-576.8 43.2,-576.8"/>
<text text-anchor="start" x="50.2" y="-589" font-family="Arial" font-size="14.00">updated_at </text>
<text text-anchor="start" x="124.16" y="-589" font-family="Arial" font-size="14.00" fill="#666666">[timestamp(0) without time zone]</text>
</g>
<!-- public.batch_outsource_samples&#45;&gt;public.batches_outsource -->
<g id="edge1" class="edge">
<title>public.batch_outsource_samples:batch_id&#45;&gt;public.batches_outsource:id</title>
<path fill="none" stroke="black" d="M427.05,-681.97C477.48,-653.32 450.96,-400.4 391.13,-400.4"/>
<polygon fill="black" stroke="black" points="427.12,-681.95 416.3,-680.16 421.96,-683.32 417.78,-684.43 417.78,-684.43 417.78,-684.43 421.96,-683.32 418.61,-688.86 427.12,-681.95"/>
<text text-anchor="start" x="424.13" y="-694.6" font-family="Arial" font-size="10.00">FOREIGN KEY (batch_id) REFERENCES batches_outsource(id)</text>
</g>
</g>
</svg>
