<?xml version="1.0" encoding="UTF-8" standalone="no"?>
<!DOCTYPE svg PUBLIC "-//W3C//DTD SVG 1.1//EN"
 "http://www.w3.org/Graphics/SVG/1.1/DTD/svg11.dtd">
<!-- Generated by graphviz version 12.1.2 (20240928.0832)
 -->
<!-- Title: public.sample_runners Pages: 1 -->
<svg width="402pt" height="290pt"
 viewBox="0.00 0.00 402.35 290.00" xmlns="http://www.w3.org/2000/svg" xmlns:xlink="http://www.w3.org/1999/xlink">
<g id="graph0" class="graph" transform="scale(1 1) rotate(0) translate(4 286)">
<title>public.sample_runners</title>
<polygon fill="white" stroke="none" points="-4,4 -4,-286 398.35,-286 398.35,4 -4,4"/>
<!-- public.sample_runners -->
<g id="node1" class="node">
<title>public.sample_runners</title>
<polygon fill="#efefef" stroke="none" points="46.2,-200.2 46.2,-235.8 348.15,-235.8 348.15,-200.2 46.2,-200.2"/>
<polygon fill="none" stroke="black" points="46.2,-200.2 46.2,-235.8 348.15,-235.8 348.15,-200.2 46.2,-200.2"/>
<text text-anchor="start" x="53.2" y="-213.6" font-family="Arial Bold" font-size="18.00">public.sample_runners</text>
<text text-anchor="start" x="216.66" y="-213.6" font-family="Arial" font-size="14.00">    </text>
<text text-anchor="start" x="247.78" y="-213.6" font-family="Arial" font-size="14.00" fill="#666666">[BASE TABLE]</text>
<polygon fill="none" stroke="black" points="46.2,-169.4 46.2,-200.2 348.15,-200.2 348.15,-169.4 46.2,-169.4"/>
<text text-anchor="start" x="53.2" y="-181.6" font-family="Arial" font-size="14.00">id </text>
<text text-anchor="start" x="67.99" y="-181.6" font-family="Arial" font-size="14.00" fill="#666666">[bigint]</text>
<polygon fill="none" stroke="black" points="46.2,-138.6 46.2,-169.4 348.15,-169.4 348.15,-138.6 46.2,-138.6"/>
<text text-anchor="start" x="53.2" y="-150.8" font-family="Arial" font-size="14.00">sample_prefix </text>
<text text-anchor="start" x="144.24" y="-150.8" font-family="Arial" font-size="14.00" fill="#666666">[varchar(255)]</text>
<polygon fill="none" stroke="black" points="46.2,-107.8 46.2,-138.6 348.15,-138.6 348.15,-107.8 46.2,-107.8"/>
<text text-anchor="start" x="53.2" y="-120" font-family="Arial" font-size="14.00">run_number </text>
<text text-anchor="start" x="132.58" y="-120" font-family="Arial" font-size="14.00" fill="#666666">[integer]</text>
<polygon fill="none" stroke="black" points="46.2,-77 46.2,-107.8 348.15,-107.8 348.15,-77 46.2,-77"/>
<text text-anchor="start" x="53.2" y="-89.2" font-family="Arial" font-size="14.00">created_at </text>
<text text-anchor="start" x="123.25" y="-89.2" font-family="Arial" font-size="14.00" fill="#666666">[timestamp(0) without time zone]</text>
<polygon fill="none" stroke="black" points="46.2,-46.2 46.2,-77 348.15,-77 348.15,-46.2 46.2,-46.2"/>
<text text-anchor="start" x="53.2" y="-58.4" font-family="Arial" font-size="14.00">updated_at </text>
<text text-anchor="start" x="127.16" y="-58.4" font-family="Arial" font-size="14.00" fill="#666666">[timestamp(0) without time zone]</text>
<polygon fill="none" stroke="black" stroke-width="3" points="44.7,-44.7 44.7,-237.3 349.65,-237.3 349.65,-44.7 44.7,-44.7"/>
</g>
</g>
</svg>
