<?xml version="1.0" encoding="UTF-8" standalone="no"?>
<!DOCTYPE svg PUBLIC "-//W3C//DTD SVG 1.1//EN"
 "http://www.w3.org/Graphics/SVG/1.1/DTD/svg11.dtd">
<!-- Generated by graphviz version 12.1.2 (20240928.0832)
 -->
<!-- Title: public.orders Pages: 1 -->
<svg width="912pt" height="3466pt"
 viewBox="0.00 0.00 912.33 3466.40" xmlns="http://www.w3.org/2000/svg" xmlns:xlink="http://www.w3.org/1999/xlink">
<g id="graph0" class="graph" transform="scale(1 1) rotate(0) translate(4 3462.4)">
<title>public.orders</title>
<polygon fill="white" stroke="none" points="-4,4 -4,-3462.4 908.33,-3462.4 908.33,4 -4,4"/>
<!-- public.orders -->
<g id="node1" class="node">
<title>public.orders</title>
<polygon fill="#efefef" stroke="none" points="259.16,-785.4 259.16,-821 659.17,-821 659.17,-785.4 259.16,-785.4"/>
<polygon fill="none" stroke="black" points="259.16,-785.4 259.16,-821 659.17,-821 659.17,-785.4 259.16,-785.4"/>
<text text-anchor="start" x="349.68" y="-798.8" font-family="Arial Bold" font-size="18.00">public.orders</text>
<text text-anchor="start" x="444.16" y="-798.8" font-family="Arial" font-size="14.00">    </text>
<text text-anchor="start" x="475.27" y="-798.8" font-family="Arial" font-size="14.00" fill="#666666">[BASE TABLE]</text>
<polygon fill="none" stroke="black" points="259.16,-754.6 259.16,-785.4 659.17,-785.4 659.17,-754.6 259.16,-754.6"/>
<text text-anchor="start" x="266.16" y="-766.8" font-family="Arial" font-size="14.00">order_id </text>
<text text-anchor="start" x="321.42" y="-766.8" font-family="Arial" font-size="14.00" fill="#666666">[varchar(50)]</text>
<polygon fill="none" stroke="black" points="259.16,-723.8 259.16,-754.6 659.17,-754.6 659.17,-723.8 259.16,-723.8"/>
<text text-anchor="start" x="266.16" y="-736" font-family="Arial" font-size="14.00">account_code </text>
<text text-anchor="start" x="357.23" y="-736" font-family="Arial" font-size="14.00" fill="#666666">[varchar(50)]</text>
<polygon fill="none" stroke="black" points="259.16,-693 259.16,-723.8 659.17,-723.8 659.17,-693 259.16,-693"/>
<text text-anchor="start" x="266.16" y="-705.2" font-family="Arial" font-size="14.00">patient_id </text>
<text text-anchor="start" x="330.77" y="-705.2" font-family="Arial" font-size="14.00" fill="#666666">[varchar(50)]</text>
<polygon fill="none" stroke="black" points="259.16,-662.2 259.16,-693 659.17,-693 659.17,-662.2 259.16,-662.2"/>
<text text-anchor="start" x="266.16" y="-674.4" font-family="Arial" font-size="14.00">patient_name </text>
<text text-anchor="start" x="354.89" y="-674.4" font-family="Arial" font-size="14.00" fill="#666666">[varchar(100)]</text>
<polygon fill="none" stroke="black" points="259.16,-631.4 259.16,-662.2 659.17,-662.2 659.17,-631.4 259.16,-631.4"/>
<text text-anchor="start" x="266.16" y="-643.6" font-family="Arial" font-size="14.00">patient_gender </text>
<text text-anchor="start" x="363.47" y="-643.6" font-family="Arial" font-size="14.00" fill="#666666">[varchar(50)]</text>
<polygon fill="none" stroke="black" points="259.16,-600.6 259.16,-631.4 659.17,-631.4 659.17,-600.6 259.16,-600.6"/>
<text text-anchor="start" x="266.16" y="-612.8" font-family="Arial" font-size="14.00">patient_dob </text>
<text text-anchor="start" x="343.23" y="-612.8" font-family="Arial" font-size="14.00" fill="#666666">[timestamp(0) without time zone]</text>
<polygon fill="none" stroke="black" points="259.16,-569.8 259.16,-600.6 659.17,-600.6 659.17,-569.8 259.16,-569.8"/>
<text text-anchor="start" x="266.16" y="-582" font-family="Arial" font-size="14.00">created_at </text>
<text text-anchor="start" x="336.21" y="-582" font-family="Arial" font-size="14.00" fill="#666666">[timestamp(0) without time zone]</text>
<polygon fill="none" stroke="black" points="259.16,-539 259.16,-569.8 659.17,-569.8 659.17,-539 259.16,-539"/>
<text text-anchor="start" x="266.16" y="-551.2" font-family="Arial" font-size="14.00">updated_at </text>
<text text-anchor="start" x="340.12" y="-551.2" font-family="Arial" font-size="14.00" fill="#666666">[timestamp(0) without time zone]</text>
<polygon fill="none" stroke="black" points="259.16,-508.2 259.16,-539 659.17,-539 659.17,-508.2 259.16,-508.2"/>
<text text-anchor="start" x="266.16" y="-520.4" font-family="Arial" font-size="14.00">register_location </text>
<text text-anchor="start" x="372.78" y="-520.4" font-family="Arial" font-size="14.00" fill="#666666">[varchar(50)]</text>
<polygon fill="none" stroke="black" points="259.16,-477.4 259.16,-508.2 659.17,-508.2 659.17,-477.4 259.16,-477.4"/>
<text text-anchor="start" x="266.16" y="-489.6" font-family="Arial" font-size="14.00">ordered_date </text>
<text text-anchor="start" x="353.34" y="-489.6" font-family="Arial" font-size="14.00" fill="#666666">[timestamp(0) without time zone]</text>
<polygon fill="none" stroke="black" points="259.16,-446.6 259.16,-477.4 659.17,-477.4 659.17,-446.6 259.16,-446.6"/>
<text text-anchor="start" x="266.16" y="-458.8" font-family="Arial" font-size="14.00">recollecting_flag </text>
<text text-anchor="start" x="371.22" y="-458.8" font-family="Arial" font-size="14.00" fill="#666666">[boolean]</text>
<polygon fill="none" stroke="black" points="259.16,-415.8 259.16,-446.6 659.17,-446.6 659.17,-415.8 259.16,-415.8"/>
<text text-anchor="start" x="266.16" y="-428" font-family="Arial" font-size="14.00">patient_mobile_number </text>
<text text-anchor="start" x="416.37" y="-428" font-family="Arial" font-size="14.00" fill="#666666">[varchar(20)]</text>
<polygon fill="none" stroke="black" points="259.16,-385 259.16,-415.8 659.17,-415.8 659.17,-385 259.16,-385"/>
<text text-anchor="start" x="266.16" y="-397.2" font-family="Arial" font-size="14.00">patient_info </text>
<text text-anchor="start" x="342.44" y="-397.2" font-family="Arial" font-size="14.00" fill="#666666">[json]</text>
<polygon fill="none" stroke="black" points="259.16,-354.2 259.16,-385 659.17,-385 659.17,-354.2 259.16,-354.2"/>
<text text-anchor="start" x="266.16" y="-366.4" font-family="Arial" font-size="14.00">patient_visit_info </text>
<text text-anchor="start" x="374.34" y="-366.4" font-family="Arial" font-size="14.00" fill="#666666">[json]</text>
<polygon fill="none" stroke="black" points="259.16,-323.4 259.16,-354.2 659.17,-354.2 659.17,-323.4 259.16,-323.4"/>
<text text-anchor="start" x="266.16" y="-335.6" font-family="Arial" font-size="14.00">customer_segment_id </text>
<text text-anchor="start" x="407.79" y="-335.6" font-family="Arial" font-size="14.00" fill="#666666">[bigint]</text>
<polygon fill="none" stroke="black" points="259.16,-292.6 259.16,-323.4 659.17,-323.4 659.17,-292.6 259.16,-292.6"/>
<text text-anchor="start" x="266.16" y="-304.8" font-family="Arial" font-size="14.00">is_approved </text>
<text text-anchor="start" x="346.33" y="-304.8" font-family="Arial" font-size="14.00" fill="#666666">[boolean]</text>
<polygon fill="none" stroke="black" points="259.16,-261.8 259.16,-292.6 659.17,-292.6 659.17,-261.8 259.16,-261.8"/>
<text text-anchor="start" x="266.16" y="-274" font-family="Arial" font-size="14.00">source_type </text>
<text text-anchor="start" x="346.32" y="-274" font-family="Arial" font-size="14.00" fill="#666666">[varchar(255)]</text>
<polygon fill="none" stroke="black" points="259.16,-231 259.16,-261.8 659.17,-261.8 659.17,-231 259.16,-231"/>
<text text-anchor="start" x="266.16" y="-243.2" font-family="Arial" font-size="14.00">prevent_update_to </text>
<text text-anchor="start" x="386.82" y="-243.2" font-family="Arial" font-size="14.00" fill="#666666">[timestamp(0) without time zone]</text>
<polygon fill="none" stroke="black" points="259.16,-200.2 259.16,-231 659.17,-231 659.17,-200.2 259.16,-200.2"/>
<text text-anchor="start" x="266.16" y="-212.4" font-family="Arial" font-size="14.00">status </text>
<text text-anchor="start" x="307.4" y="-212.4" font-family="Arial" font-size="14.00" fill="#666666">[varchar(255)]</text>
<polygon fill="none" stroke="black" points="259.16,-169.4 259.16,-200.2 659.17,-200.2 659.17,-169.4 259.16,-169.4"/>
<text text-anchor="start" x="266.16" y="-181.6" font-family="Arial" font-size="14.00">order_test_codes </text>
<text text-anchor="start" x="378.23" y="-181.6" font-family="Arial" font-size="14.00" fill="#666666">[json]</text>
<polygon fill="none" stroke="black" points="259.16,-138.6 259.16,-169.4 659.17,-169.4 659.17,-138.6 259.16,-138.6"/>
<text text-anchor="start" x="266.16" y="-150.8" font-family="Arial" font-size="14.00">cancel_test_codes </text>
<text text-anchor="start" x="386.02" y="-150.8" font-family="Arial" font-size="14.00" fill="#666666">[json]</text>
<polygon fill="none" stroke="black" points="259.16,-107.8 259.16,-138.6 659.17,-138.6 659.17,-107.8 259.16,-107.8"/>
<text text-anchor="start" x="266.16" y="-120" font-family="Arial" font-size="14.00">clone_order_id </text>
<text text-anchor="start" x="362.67" y="-120" font-family="Arial" font-size="14.00" fill="#666666">[varchar(50)]</text>
<polygon fill="none" stroke="black" points="259.16,-77 259.16,-107.8 659.17,-107.8 659.17,-77 259.16,-77"/>
<text text-anchor="start" x="266.16" y="-89.2" font-family="Arial" font-size="14.00">patient_info_last_updated_at </text>
<text text-anchor="start" x="449.87" y="-89.2" font-family="Arial" font-size="14.00" fill="#666666">[timestamp(0) without time zone]</text>
<polygon fill="none" stroke="black" points="259.16,-46.2 259.16,-77 659.17,-77 659.17,-46.2 259.16,-46.2"/>
<text text-anchor="start" x="266.16" y="-58.4" font-family="Arial" font-size="14.00">stat </text>
<text text-anchor="start" x="292.62" y="-58.4" font-family="Arial" font-size="14.00" fill="#666666">[boolean]</text>
<polygon fill="none" stroke="black" stroke-width="3" points="257.66,-44.7 257.66,-822.5 660.67,-822.5 660.67,-44.7 257.66,-44.7"/>
</g>
<!-- public.test_results -->
<g id="node2" class="node">
<title>public.test_results</title>
<polygon fill="#efefef" stroke="none" points="43.2,-3379.6 43.2,-3415.2 415.13,-3415.2 415.13,-3379.6 43.2,-3379.6"/>
<polygon fill="none" stroke="black" points="43.2,-3379.6 43.2,-3415.2 415.13,-3415.2 415.13,-3379.6 43.2,-3379.6"/>
<text text-anchor="start" x="101.68" y="-3393" font-family="Arial Bold" font-size="18.00">public.test_results</text>
<text text-anchor="start" x="232.16" y="-3393" font-family="Arial" font-size="14.00">    </text>
<text text-anchor="start" x="263.28" y="-3393" font-family="Arial" font-size="14.00" fill="#666666">[BASE TABLE]</text>
<polygon fill="none" stroke="black" points="43.2,-3348.8 43.2,-3379.6 415.13,-3379.6 415.13,-3348.8 43.2,-3348.8"/>
<text text-anchor="start" x="50.2" y="-3361" font-family="Arial" font-size="14.00">id </text>
<text text-anchor="start" x="64.99" y="-3361" font-family="Arial" font-size="14.00" fill="#666666">[bigint]</text>
<polygon fill="none" stroke="black" points="43.2,-3318 43.2,-3348.8 415.13,-3348.8 415.13,-3318 43.2,-3318"/>
<text text-anchor="start" x="50.2" y="-3330.2" font-family="Arial" font-size="14.00">order_id </text>
<text text-anchor="start" x="105.45" y="-3330.2" font-family="Arial" font-size="14.00" fill="#666666">[varchar(50)]</text>
<polygon fill="none" stroke="black" points="43.2,-3287.2 43.2,-3318 415.13,-3318 415.13,-3287.2 43.2,-3287.2"/>
<text text-anchor="start" x="50.2" y="-3299.4" font-family="Arial" font-size="14.00">patient_id </text>
<text text-anchor="start" x="114.81" y="-3299.4" font-family="Arial" font-size="14.00" fill="#666666">[varchar(50)]</text>
<polygon fill="none" stroke="black" points="43.2,-3256.4 43.2,-3287.2 415.13,-3287.2 415.13,-3256.4 43.2,-3256.4"/>
<text text-anchor="start" x="50.2" y="-3268.6" font-family="Arial" font-size="14.00">test_code </text>
<text text-anchor="start" x="114.8" y="-3268.6" font-family="Arial" font-size="14.00" fill="#666666">[varchar(50)]</text>
<polygon fill="none" stroke="black" points="43.2,-3225.6 43.2,-3256.4 415.13,-3256.4 415.13,-3225.6 43.2,-3225.6"/>
<text text-anchor="start" x="50.2" y="-3237.8" font-family="Arial" font-size="14.00">sample_id </text>
<text text-anchor="start" x="117.9" y="-3237.8" font-family="Arial" font-size="14.00" fill="#666666">[varchar(50)]</text>
<polygon fill="none" stroke="black" points="43.2,-3194.8 43.2,-3225.6 415.13,-3225.6 415.13,-3194.8 43.2,-3194.8"/>
<text text-anchor="start" x="50.2" y="-3207" font-family="Arial" font-size="14.00">test_status </text>
<text text-anchor="start" x="121.79" y="-3207" font-family="Arial" font-size="14.00" fill="#666666">[varchar(255)]</text>
<polygon fill="none" stroke="black" points="43.2,-3164 43.2,-3194.8 415.13,-3194.8 415.13,-3164 43.2,-3164"/>
<text text-anchor="start" x="50.2" y="-3176.2" font-family="Arial" font-size="14.00">processing_status </text>
<text text-anchor="start" x="166.93" y="-3176.2" font-family="Arial" font-size="14.00" fill="#666666">[varchar(255)]</text>
<polygon fill="none" stroke="black" points="43.2,-3133.2 43.2,-3164 415.13,-3164 415.13,-3133.2 43.2,-3133.2"/>
<text text-anchor="start" x="50.2" y="-3145.4" font-family="Arial" font-size="14.00">device_code </text>
<text text-anchor="start" x="132.7" y="-3145.4" font-family="Arial" font-size="14.00" fill="#666666">[varchar(50)]</text>
<polygon fill="none" stroke="black" points="43.2,-3102.4 43.2,-3133.2 415.13,-3133.2 415.13,-3102.4 43.2,-3102.4"/>
<text text-anchor="start" x="50.2" y="-3114.6" font-family="Arial" font-size="14.00">device_name </text>
<text text-anchor="start" x="137.37" y="-3114.6" font-family="Arial" font-size="14.00" fill="#666666">[varchar(50)]</text>
<polygon fill="none" stroke="black" points="43.2,-3071.6 43.2,-3102.4 415.13,-3102.4 415.13,-3071.6 43.2,-3071.6"/>
<text text-anchor="start" x="50.2" y="-3083.8" font-family="Arial" font-size="14.00">lab_machine_test_code </text>
<text text-anchor="start" x="201.97" y="-3083.8" font-family="Arial" font-size="14.00" fill="#666666">[varchar(50)]</text>
<polygon fill="none" stroke="black" points="43.2,-3040.8 43.2,-3071.6 415.13,-3071.6 415.13,-3040.8 43.2,-3040.8"/>
<text text-anchor="start" x="50.2" y="-3053" font-family="Arial" font-size="14.00">version </text>
<text text-anchor="start" x="99.22" y="-3053" font-family="Arial" font-size="14.00" fill="#666666">[varchar(255)]</text>
<polygon fill="none" stroke="black" points="43.2,-3010 43.2,-3040.8 415.13,-3040.8 415.13,-3010 43.2,-3010"/>
<text text-anchor="start" x="50.2" y="-3022.2" font-family="Arial" font-size="14.00">created_at </text>
<text text-anchor="start" x="120.25" y="-3022.2" font-family="Arial" font-size="14.00" fill="#666666">[timestamp(0) without time zone]</text>
<polygon fill="none" stroke="black" points="43.2,-2979.2 43.2,-3010 415.13,-3010 415.13,-2979.2 43.2,-2979.2"/>
<text text-anchor="start" x="50.2" y="-2991.4" font-family="Arial" font-size="14.00">updated_at </text>
<text text-anchor="start" x="124.16" y="-2991.4" font-family="Arial" font-size="14.00" fill="#666666">[timestamp(0) without time zone]</text>
<polygon fill="none" stroke="black" points="43.2,-2948.4 43.2,-2979.2 415.13,-2979.2 415.13,-2948.4 43.2,-2948.4"/>
<text text-anchor="start" x="50.2" y="-2960.6" font-family="Arial" font-size="14.00">technical_remarks </text>
<text text-anchor="start" x="167.69" y="-2960.6" font-family="Arial" font-size="14.00" fill="#666666">[text]</text>
<polygon fill="none" stroke="black" points="43.2,-2917.6 43.2,-2948.4 415.13,-2948.4 415.13,-2917.6 43.2,-2917.6"/>
<text text-anchor="start" x="50.2" y="-2929.8" font-family="Arial" font-size="14.00">raw_test_value </text>
<text text-anchor="start" x="148.25" y="-2929.8" font-family="Arial" font-size="14.00" fill="#666666">[text]</text>
<polygon fill="none" stroke="black" points="43.2,-2886.8 43.2,-2917.6 415.13,-2917.6 415.13,-2886.8 43.2,-2886.8"/>
<text text-anchor="start" x="50.2" y="-2899" font-family="Arial" font-size="14.00">raw_unit </text>
<text text-anchor="start" x="107.01" y="-2899" font-family="Arial" font-size="14.00" fill="#666666">[varchar(255)]</text>
<polygon fill="none" stroke="black" points="43.2,-2856 43.2,-2886.8 415.13,-2886.8 415.13,-2856 43.2,-2856"/>
<text text-anchor="start" x="50.2" y="-2868.2" font-family="Arial" font-size="14.00">raw_medical_remarks </text>
<text text-anchor="start" x="191.02" y="-2868.2" font-family="Arial" font-size="14.00" fill="#666666">[text]</text>
<polygon fill="none" stroke="black" points="43.2,-2825.2 43.2,-2856 415.13,-2856 415.13,-2825.2 43.2,-2825.2"/>
<text text-anchor="start" x="50.2" y="-2837.4" font-family="Arial" font-size="14.00">raw_abnormal </text>
<text text-anchor="start" x="142.8" y="-2837.4" font-family="Arial" font-size="14.00" fill="#666666">[varchar(255)]</text>
<polygon fill="none" stroke="black" points="43.2,-2794.4 43.2,-2825.2 415.13,-2825.2 415.13,-2794.4 43.2,-2794.4"/>
<text text-anchor="start" x="50.2" y="-2806.6" font-family="Arial" font-size="14.00">started_capturing_at </text>
<text text-anchor="start" x="181.73" y="-2806.6" font-family="Arial" font-size="14.00" fill="#666666">[varchar(255)]</text>
<polygon fill="none" stroke="black" points="43.2,-2763.6 43.2,-2794.4 415.13,-2794.4 415.13,-2763.6 43.2,-2763.6"/>
<text text-anchor="start" x="50.2" y="-2775.8" font-family="Arial" font-size="14.00">raw_extra </text>
<text text-anchor="start" x="115.56" y="-2775.8" font-family="Arial" font-size="14.00" fill="#666666">[json]</text>
<polygon fill="none" stroke="black" points="43.2,-2732.8 43.2,-2763.6 415.13,-2763.6 415.13,-2732.8 43.2,-2732.8"/>
<text text-anchor="start" x="50.2" y="-2745" font-family="Arial" font-size="14.00">final_test_value </text>
<text text-anchor="start" x="151.38" y="-2745" font-family="Arial" font-size="14.00" fill="#666666">[varchar(255)]</text>
<polygon fill="none" stroke="black" points="43.2,-2702 43.2,-2732.8 415.13,-2732.8 415.13,-2702 43.2,-2702"/>
<text text-anchor="start" x="50.2" y="-2714.2" font-family="Arial" font-size="14.00">final_medical_remarks </text>
<text text-anchor="start" x="194.14" y="-2714.2" font-family="Arial" font-size="14.00" fill="#666666">[text]</text>
<polygon fill="none" stroke="black" points="43.2,-2671.2 43.2,-2702 415.13,-2702 415.13,-2671.2 43.2,-2671.2"/>
<text text-anchor="start" x="50.2" y="-2683.4" font-family="Arial" font-size="14.00">final_is_abnormal </text>
<text text-anchor="start" x="163.82" y="-2683.4" font-family="Arial" font-size="14.00" fill="#666666">[boolean]</text>
<polygon fill="none" stroke="black" points="43.2,-2640.4 43.2,-2671.2 415.13,-2671.2 415.13,-2640.4 43.2,-2640.4"/>
<text text-anchor="start" x="50.2" y="-2652.6" font-family="Arial" font-size="14.00">raw_reference_range </text>
<text text-anchor="start" x="187.17" y="-2652.6" font-family="Arial" font-size="14.00" fill="#666666">[json]</text>
<polygon fill="none" stroke="black" points="43.2,-2609.6 43.2,-2640.4 415.13,-2640.4 415.13,-2609.6 43.2,-2609.6"/>
<text text-anchor="start" x="50.2" y="-2621.8" font-family="Arial" font-size="14.00">sample_collected_by </text>
<text text-anchor="start" x="184.83" y="-2621.8" font-family="Arial" font-size="14.00" fill="#666666">[varchar(150)]</text>
<polygon fill="none" stroke="black" points="43.2,-2578.8 43.2,-2609.6 415.13,-2609.6 415.13,-2578.8 43.2,-2578.8"/>
<text text-anchor="start" x="50.2" y="-2591" font-family="Arial" font-size="14.00">sample_collected_location </text>
<text text-anchor="start" x="218.3" y="-2591" font-family="Arial" font-size="14.00" fill="#666666">[varchar(150)]</text>
<polygon fill="none" stroke="black" points="43.2,-2548 43.2,-2578.8 415.13,-2578.8 415.13,-2548 43.2,-2548"/>
<text text-anchor="start" x="50.2" y="-2560.2" font-family="Arial" font-size="14.00">sample_collected_time </text>
<text text-anchor="start" x="196.5" y="-2560.2" font-family="Arial" font-size="14.00" fill="#666666">[timestamp(0) without time zone]</text>
<polygon fill="none" stroke="black" points="43.2,-2517.2 43.2,-2548 415.13,-2548 415.13,-2517.2 43.2,-2517.2"/>
<text text-anchor="start" x="50.2" y="-2529.4" font-family="Arial" font-size="14.00">sample_completed_time </text>
<text text-anchor="start" x="205.83" y="-2529.4" font-family="Arial" font-size="14.00" fill="#666666">[timestamp(0) without time zone]</text>
<polygon fill="none" stroke="black" points="43.2,-2486.4 43.2,-2517.2 415.13,-2517.2 415.13,-2486.4 43.2,-2486.4"/>
<text text-anchor="start" x="50.2" y="-2498.6" font-family="Arial" font-size="14.00">sample_rejected_time </text>
<text text-anchor="start" x="191.05" y="-2498.6" font-family="Arial" font-size="14.00" fill="#666666">[timestamp(0) without time zone]</text>
<polygon fill="none" stroke="black" points="43.2,-2455.6 43.2,-2486.4 415.13,-2486.4 415.13,-2455.6 43.2,-2455.6"/>
<text text-anchor="start" x="50.2" y="-2467.8" font-family="Arial" font-size="14.00">result_captured_at </text>
<text text-anchor="start" x="170.05" y="-2467.8" font-family="Arial" font-size="14.00" fill="#666666">[timestamp(0) without time zone]</text>
<polygon fill="none" stroke="black" points="43.2,-2424.8 43.2,-2455.6 415.13,-2455.6 415.13,-2424.8 43.2,-2424.8"/>
<text text-anchor="start" x="50.2" y="-2437" font-family="Arial" font-size="14.00">test_name_en </text>
<text text-anchor="start" x="142.82" y="-2437" font-family="Arial" font-size="14.00" fill="#666666">[text]</text>
<polygon fill="none" stroke="black" points="43.2,-2394 43.2,-2424.8 415.13,-2424.8 415.13,-2394 43.2,-2394"/>
<text text-anchor="start" x="50.2" y="-2406.2" font-family="Arial" font-size="14.00">test_name_vi </text>
<text text-anchor="start" x="137.36" y="-2406.2" font-family="Arial" font-size="14.00" fill="#666666">[text]</text>
<polygon fill="none" stroke="black" points="43.2,-2363.2 43.2,-2394 415.13,-2394 415.13,-2363.2 43.2,-2363.2"/>
<text text-anchor="start" x="50.2" y="-2375.4" font-family="Arial" font-size="14.00">billing_name </text>
<text text-anchor="start" x="132.7" y="-2375.4" font-family="Arial" font-size="14.00" fill="#666666">[text]</text>
<polygon fill="none" stroke="black" points="43.2,-2332.4 43.2,-2363.2 415.13,-2363.2 415.13,-2332.4 43.2,-2332.4"/>
<text text-anchor="start" x="50.2" y="-2344.6" font-family="Arial" font-size="14.00">method_name </text>
<text text-anchor="start" x="143.59" y="-2344.6" font-family="Arial" font-size="14.00" fill="#666666">[text]</text>
<polygon fill="none" stroke="black" points="43.2,-2301.6 43.2,-2332.4 415.13,-2332.4 415.13,-2301.6 43.2,-2301.6"/>
<text text-anchor="start" x="50.2" y="-2313.8" font-family="Arial" font-size="14.00">sample_name </text>
<text text-anchor="start" x="142.03" y="-2313.8" font-family="Arial" font-size="14.00" fill="#666666">[varchar(50)]</text>
<polygon fill="none" stroke="black" points="43.2,-2270.8 43.2,-2301.6 415.13,-2301.6 415.13,-2270.8 43.2,-2270.8"/>
<text text-anchor="start" x="50.2" y="-2283" font-family="Arial" font-size="14.00">conversion_unit </text>
<text text-anchor="start" x="152.15" y="-2283" font-family="Arial" font-size="14.00" fill="#666666">[varchar(50)]</text>
<polygon fill="none" stroke="black" points="43.2,-2240 43.2,-2270.8 415.13,-2270.8 415.13,-2240 43.2,-2240"/>
<text text-anchor="start" x="50.2" y="-2252.2" font-family="Arial" font-size="14.00">interpretation_note </text>
<text text-anchor="start" x="170.84" y="-2252.2" font-family="Arial" font-size="14.00" fill="#666666">[text]</text>
<polygon fill="none" stroke="black" points="43.2,-2209.2 43.2,-2240 415.13,-2240 415.13,-2209.2 43.2,-2209.2"/>
<text text-anchor="start" x="50.2" y="-2221.4" font-family="Arial" font-size="14.00">section_order_position </text>
<text text-anchor="start" x="194.96" y="-2221.4" font-family="Arial" font-size="14.00" fill="#666666">[integer]</text>
<polygon fill="none" stroke="black" points="43.2,-2178.4 43.2,-2209.2 415.13,-2209.2 415.13,-2178.4 43.2,-2178.4"/>
<text text-anchor="start" x="50.2" y="-2190.6" font-family="Arial" font-size="14.00">sub_section_order_position </text>
<text text-anchor="start" x="225.32" y="-2190.6" font-family="Arial" font-size="14.00" fill="#666666">[integer]</text>
<polygon fill="none" stroke="black" points="43.2,-2147.6 43.2,-2178.4 415.13,-2178.4 415.13,-2147.6 43.2,-2147.6"/>
<text text-anchor="start" x="50.2" y="-2159.8" font-family="Arial" font-size="14.00">primary_unit </text>
<text text-anchor="start" x="131.12" y="-2159.8" font-family="Arial" font-size="14.00" fill="#666666">[varchar(50)]</text>
<polygon fill="none" stroke="black" points="43.2,-2116.8 43.2,-2147.6 415.13,-2147.6 415.13,-2116.8 43.2,-2116.8"/>
<text text-anchor="start" x="50.2" y="-2129" font-family="Arial" font-size="14.00">test_code_section </text>
<text text-anchor="start" x="166.94" y="-2129" font-family="Arial" font-size="14.00" fill="#666666">[varchar(100)]</text>
<polygon fill="none" stroke="black" points="43.2,-2086 43.2,-2116.8 415.13,-2116.8 415.13,-2086 43.2,-2086"/>
<text text-anchor="start" x="50.2" y="-2098.2" font-family="Arial" font-size="14.00">final_ref_range_type </text>
<text text-anchor="start" x="181.74" y="-2098.2" font-family="Arial" font-size="14.00" fill="#666666">[varchar(50)]</text>
<polygon fill="none" stroke="black" points="43.2,-2055.2 43.2,-2086 415.13,-2086 415.13,-2055.2 43.2,-2055.2"/>
<text text-anchor="start" x="50.2" y="-2067.4" font-family="Arial" font-size="14.00">final_auto_authorized </text>
<text text-anchor="start" x="187.97" y="-2067.4" font-family="Arial" font-size="14.00" fill="#666666">[boolean]</text>
<polygon fill="none" stroke="black" points="43.2,-2024.4 43.2,-2055.2 415.13,-2055.2 415.13,-2024.4 43.2,-2024.4"/>
<text text-anchor="start" x="50.2" y="-2036.6" font-family="Arial" font-size="14.00">device_id </text>
<text text-anchor="start" x="113.24" y="-2036.6" font-family="Arial" font-size="14.00" fill="#666666">[varchar(50)]</text>
<polygon fill="none" stroke="black" points="43.2,-1993.6 43.2,-2024.4 415.13,-2024.4 415.13,-1993.6 43.2,-1993.6"/>
<text text-anchor="start" x="50.2" y="-2005.8" font-family="Arial" font-size="14.00">device_search_code </text>
<text text-anchor="start" x="182.51" y="-2005.8" font-family="Arial" font-size="14.00" fill="#666666">[varchar(20)]</text>
<polygon fill="none" stroke="black" points="43.2,-1962.8 43.2,-1993.6 415.13,-1993.6 415.13,-1962.8 43.2,-1962.8"/>
<text text-anchor="start" x="50.2" y="-1975" font-family="Arial" font-size="14.00">formula </text>
<text text-anchor="start" x="100.77" y="-1975" font-family="Arial" font-size="14.00" fill="#666666">[text]</text>
<polygon fill="none" stroke="black" points="43.2,-1932 43.2,-1962.8 415.13,-1962.8 415.13,-1932 43.2,-1932"/>
<text text-anchor="start" x="50.2" y="-1944.2" font-family="Arial" font-size="14.00">formula_params </text>
<text text-anchor="start" x="155.24" y="-1944.2" font-family="Arial" font-size="14.00" fill="#666666">[json]</text>
<polygon fill="none" stroke="black" points="43.2,-1901.2 43.2,-1932 415.13,-1932 415.13,-1901.2 43.2,-1901.2"/>
<text text-anchor="start" x="50.2" y="-1913.4" font-family="Arial" font-size="14.00">recollect_reason </text>
<text text-anchor="start" x="156.81" y="-1913.4" font-family="Arial" font-size="14.00" fill="#666666">[text]</text>
<polygon fill="none" stroke="black" points="43.2,-1870.4 43.2,-1901.2 415.13,-1901.2 415.13,-1870.4 43.2,-1870.4"/>
<text text-anchor="start" x="50.2" y="-1882.6" font-family="Arial" font-size="14.00">rerun_reason </text>
<text text-anchor="start" x="137.37" y="-1882.6" font-family="Arial" font-size="14.00" fill="#666666">[text]</text>
<polygon fill="none" stroke="black" points="43.2,-1839.6 43.2,-1870.4 415.13,-1870.4 415.13,-1839.6 43.2,-1839.6"/>
<text text-anchor="start" x="50.2" y="-1851.8" font-family="Arial" font-size="14.00">retest_flag </text>
<text text-anchor="start" x="119.46" y="-1851.8" font-family="Arial" font-size="14.00" fill="#666666">[boolean]</text>
<polygon fill="none" stroke="black" points="43.2,-1808.8 43.2,-1839.6 415.13,-1839.6 415.13,-1808.8 43.2,-1808.8"/>
<text text-anchor="start" x="50.2" y="-1821" font-family="Arial" font-size="14.00">final_conversion_data </text>
<text text-anchor="start" x="190.3" y="-1821" font-family="Arial" font-size="14.00" fill="#666666">[json]</text>
<polygon fill="none" stroke="black" points="43.2,-1778 43.2,-1808.8 415.13,-1808.8 415.13,-1778 43.2,-1778"/>
<text text-anchor="start" x="50.2" y="-1790.2" font-family="Arial" font-size="14.00">final_reference_range </text>
<text text-anchor="start" x="190.3" y="-1790.2" font-family="Arial" font-size="14.00" fill="#666666">[text]</text>
<polygon fill="none" stroke="black" points="43.2,-1747.2 43.2,-1778 415.13,-1778 415.13,-1747.2 43.2,-1747.2"/>
<text text-anchor="start" x="50.2" y="-1759.4" font-family="Arial" font-size="14.00">sample_transfer_time </text>
<text text-anchor="start" x="188.7" y="-1759.4" font-family="Arial" font-size="14.00" fill="#666666">[timestamp(0) without time zone]</text>
<polygon fill="none" stroke="black" points="43.2,-1716.4 43.2,-1747.2 415.13,-1747.2 415.13,-1716.4 43.2,-1716.4"/>
<text text-anchor="start" x="50.2" y="-1728.6" font-family="Arial" font-size="14.00">sample_transfer_by </text>
<text text-anchor="start" x="177.04" y="-1728.6" font-family="Arial" font-size="14.00" fill="#666666">[varchar(255)]</text>
<polygon fill="none" stroke="black" points="43.2,-1685.6 43.2,-1716.4 415.13,-1716.4 415.13,-1685.6 43.2,-1685.6"/>
<text text-anchor="start" x="50.2" y="-1697.8" font-family="Arial" font-size="14.00">sample_received_time </text>
<text text-anchor="start" x="194.16" y="-1697.8" font-family="Arial" font-size="14.00" fill="#666666">[timestamp(0) without time zone]</text>
<polygon fill="none" stroke="black" points="43.2,-1654.8 43.2,-1685.6 415.13,-1685.6 415.13,-1654.8 43.2,-1654.8"/>
<text text-anchor="start" x="50.2" y="-1667" font-family="Arial" font-size="14.00">sample_received_by </text>
<text text-anchor="start" x="182.5" y="-1667" font-family="Arial" font-size="14.00" fill="#666666">[varchar(255)]</text>
<polygon fill="none" stroke="black" points="43.2,-1624 43.2,-1654.8 415.13,-1654.8 415.13,-1624 43.2,-1624"/>
<text text-anchor="start" x="50.2" y="-1636.2" font-family="Arial" font-size="14.00">sample_received_location </text>
<text text-anchor="start" x="215.96" y="-1636.2" font-family="Arial" font-size="14.00" fill="#666666">[varchar(255)]</text>
<polygon fill="none" stroke="black" points="43.2,-1593.2 43.2,-1624 415.13,-1624 415.13,-1593.2 43.2,-1593.2"/>
<text text-anchor="start" x="50.2" y="-1605.4" font-family="Arial" font-size="14.00">sample_reject_by </text>
<text text-anchor="start" x="163.81" y="-1605.4" font-family="Arial" font-size="14.00" fill="#666666">[varchar(255)]</text>
<polygon fill="none" stroke="black" points="43.2,-1562.4 43.2,-1593.2 415.13,-1593.2 415.13,-1562.4 43.2,-1562.4"/>
<text text-anchor="start" x="50.2" y="-1574.6" font-family="Arial" font-size="14.00">result_approved_at </text>
<text text-anchor="start" x="173.95" y="-1574.6" font-family="Arial" font-size="14.00" fill="#666666">[timestamp(0) without time zone]</text>
<polygon fill="none" stroke="black" points="43.2,-1531.6 43.2,-1562.4 415.13,-1562.4 415.13,-1531.6 43.2,-1531.6"/>
<text text-anchor="start" x="50.2" y="-1543.8" font-family="Arial" font-size="14.00">result_captured_by </text>
<text text-anchor="start" x="173.16" y="-1543.8" font-family="Arial" font-size="14.00" fill="#666666">[varchar(255)]</text>
<polygon fill="none" stroke="black" points="43.2,-1500.8 43.2,-1531.6 415.13,-1531.6 415.13,-1500.8 43.2,-1500.8"/>
<text text-anchor="start" x="50.2" y="-1513" font-family="Arial" font-size="14.00">result_approved_by </text>
<text text-anchor="start" x="177.06" y="-1513" font-family="Arial" font-size="14.00" fill="#666666">[varchar(255)]</text>
<polygon fill="none" stroke="black" points="43.2,-1470 43.2,-1500.8 415.13,-1500.8 415.13,-1470 43.2,-1470"/>
<text text-anchor="start" x="50.2" y="-1482.2" font-family="Arial" font-size="14.00">interpretation_note_vi </text>
<text text-anchor="start" x="188.74" y="-1482.2" font-family="Arial" font-size="14.00" fill="#666666">[text]</text>
<polygon fill="none" stroke="black" points="43.2,-1439.2 43.2,-1470 415.13,-1470 415.13,-1439.2 43.2,-1439.2"/>
<text text-anchor="start" x="50.2" y="-1451.4" font-family="Arial" font-size="14.00">non_reportable </text>
<text text-anchor="start" x="148.28" y="-1451.4" font-family="Arial" font-size="14.00" fill="#666666">[varchar(10)]</text>
<polygon fill="none" stroke="black" points="43.2,-1408.4 43.2,-1439.2 415.13,-1439.2 415.13,-1408.4 43.2,-1408.4"/>
<text text-anchor="start" x="50.2" y="-1420.6" font-family="Arial" font-size="14.00">generate_draft_pdf </text>
<text text-anchor="start" x="172.41" y="-1420.6" font-family="Arial" font-size="14.00" fill="#666666">[boolean]</text>
<polygon fill="none" stroke="black" points="43.2,-1377.6 43.2,-1408.4 415.13,-1408.4 415.13,-1377.6 43.2,-1377.6"/>
<text text-anchor="start" x="50.2" y="-1389.8" font-family="Arial" font-size="14.00">intra_section_sq </text>
<text text-anchor="start" x="156.04" y="-1389.8" font-family="Arial" font-size="14.00" fill="#666666">[varchar(255)]</text>
<polygon fill="none" stroke="black" points="43.2,-1346.8 43.2,-1377.6 415.13,-1377.6 415.13,-1346.8 43.2,-1346.8"/>
<text text-anchor="start" x="50.2" y="-1359" font-family="Arial" font-size="14.00">group_component </text>
<text text-anchor="start" x="166.95" y="-1359" font-family="Arial" font-size="14.00" fill="#666666">[text]</text>
<polygon fill="none" stroke="black" points="43.2,-1316 43.2,-1346.8 415.13,-1346.8 415.13,-1316 43.2,-1316"/>
<text text-anchor="start" x="50.2" y="-1328.2" font-family="Arial" font-size="14.00">laboratory </text>
<text text-anchor="start" x="116.34" y="-1328.2" font-family="Arial" font-size="14.00" fill="#666666">[varchar(255)]</text>
<polygon fill="none" stroke="black" points="43.2,-1285.2 43.2,-1316 415.13,-1316 415.13,-1285.2 43.2,-1285.2"/>
<text text-anchor="start" x="50.2" y="-1297.4" font-family="Arial" font-size="14.00">sample_completed_by </text>
<text text-anchor="start" x="194.17" y="-1297.4" font-family="Arial" font-size="14.00" fill="#666666">[varchar(150)]</text>
<polygon fill="none" stroke="black" points="43.2,-1254.4 43.2,-1285.2 415.13,-1285.2 415.13,-1254.4 43.2,-1254.4"/>
<text text-anchor="start" x="50.2" y="-1266.6" font-family="Arial" font-size="14.00">recollect_test_result_id </text>
<text text-anchor="start" x="197.28" y="-1266.6" font-family="Arial" font-size="14.00" fill="#666666">[bigint]</text>
<polygon fill="none" stroke="black" points="43.2,-1223.6 43.2,-1254.4 415.13,-1254.4 415.13,-1223.6 43.2,-1223.6"/>
<text text-anchor="start" x="50.2" y="-1235.8" font-family="Arial" font-size="14.00">is_rerun </text>
<text text-anchor="start" x="104.67" y="-1235.8" font-family="Arial" font-size="14.00" fill="#666666">[boolean]</text>
<polygon fill="none" stroke="black" points="43.2,-1192.8 43.2,-1223.6 415.13,-1223.6 415.13,-1192.8 43.2,-1192.8"/>
<text text-anchor="start" x="50.2" y="-1205" font-family="Arial" font-size="14.00">nature_of_abnormal_result </text>
<text text-anchor="start" x="221.42" y="-1205" font-family="Arial" font-size="14.00" fill="#666666">[varchar(255)]</text>
<polygon fill="none" stroke="black" points="43.2,-1162 43.2,-1192.8 415.13,-1192.8 415.13,-1162 43.2,-1162"/>
<text text-anchor="start" x="50.2" y="-1174.2" font-family="Arial" font-size="14.00">is_recall </text>
<text text-anchor="start" x="105.44" y="-1174.2" font-family="Arial" font-size="14.00" fill="#666666">[boolean]</text>
<polygon fill="none" stroke="black" points="43.2,-1131.2 43.2,-1162 415.13,-1162 415.13,-1131.2 43.2,-1131.2"/>
<text text-anchor="start" x="50.2" y="-1143.4" font-family="Arial" font-size="14.00">reviewing_reason </text>
<text text-anchor="start" x="163.82" y="-1143.4" font-family="Arial" font-size="14.00" fill="#666666">[text]</text>
<polygon fill="none" stroke="black" points="43.2,-1100.4 43.2,-1131.2 415.13,-1131.2 415.13,-1100.4 43.2,-1100.4"/>
<text text-anchor="start" x="50.2" y="-1112.6" font-family="Arial" font-size="14.00">recheck_reason </text>
<text text-anchor="start" x="153.7" y="-1112.6" font-family="Arial" font-size="14.00" fill="#666666">[text]</text>
<polygon fill="none" stroke="black" points="43.2,-1069.6 43.2,-1100.4 415.13,-1100.4 415.13,-1069.6 43.2,-1069.6"/>
<text text-anchor="start" x="50.2" y="-1081.8" font-family="Arial" font-size="14.00">is_poct </text>
<text text-anchor="start" x="98.45" y="-1081.8" font-family="Arial" font-size="14.00" fill="#666666">[boolean]</text>
<polygon fill="none" stroke="black" points="43.2,-1038.8 43.2,-1069.6 415.13,-1069.6 415.13,-1038.8 43.2,-1038.8"/>
<text text-anchor="start" x="50.2" y="-1051" font-family="Arial" font-size="14.00">sample_canceled_by </text>
<text text-anchor="start" x="185.62" y="-1051" font-family="Arial" font-size="14.00" fill="#666666">[varchar(255)]</text>
<polygon fill="none" stroke="black" points="43.2,-1008 43.2,-1038.8 415.13,-1038.8 415.13,-1008 43.2,-1008"/>
<text text-anchor="start" x="50.2" y="-1020.2" font-family="Arial" font-size="14.00">sample_canceled_time </text>
<text text-anchor="start" x="197.28" y="-1020.2" font-family="Arial" font-size="14.00" fill="#666666">[timestamp(0) without time zone]</text>
<polygon fill="none" stroke="black" points="43.2,-977.2 43.2,-1008 415.13,-1008 415.13,-977.2 43.2,-977.2"/>
<text text-anchor="start" x="50.2" y="-989.4" font-family="Arial" font-size="14.00">external_sample_id </text>
<text text-anchor="start" x="175.5" y="-989.4" font-family="Arial" font-size="14.00" fill="#666666">[varchar(50)]</text>
<polygon fill="none" stroke="black" points="43.2,-946.4 43.2,-977.2 415.13,-977.2 415.13,-946.4 43.2,-946.4"/>
<text text-anchor="start" x="50.2" y="-958.6" font-family="Arial" font-size="14.00">previous_data </text>
<text text-anchor="start" x="142.04" y="-958.6" font-family="Arial" font-size="14.00" fill="#666666">[json]</text>
</g>
<!-- public.test_results&#45;&gt;public.orders -->
<g id="edge1" class="edge">
<title>public.test_results:order_id&#45;&gt;public.orders:order_id</title>
<path fill="none" stroke="black" d="M422.55,-3325.71C481.86,-3178.09 455.77,-954.27 415.13,-903.2 370.83,-847.53 303.74,-922.65 259.16,-867.2 232.09,-833.53 214.96,-770 258.16,-770"/>
<polygon fill="black" stroke="black" points="422.75,-3325.46 412.89,-3330.26 419.33,-3329.56 416.56,-3332.89 416.56,-3332.89 416.56,-3332.89 419.33,-3329.56 419.8,-3336.03 422.75,-3325.46"/>
<text text-anchor="start" x="423.13" y="-3343.4" font-family="Arial" font-size="10.00">FOREIGN KEY (order_id) REFERENCES orders(order_id) ON DELETE CASCADE</text>
</g>
<!-- public.order_result_services -->
<g id="node3" class="node">
<title>public.order_result_services</title>
<polygon fill="#efefef" stroke="none" points="519.2,-2378.6 519.2,-2414.2 861.13,-2414.2 861.13,-2378.6 519.2,-2378.6"/>
<polygon fill="none" stroke="black" points="519.2,-2378.6 519.2,-2414.2 861.13,-2414.2 861.13,-2378.6 519.2,-2378.6"/>
<text text-anchor="start" x="526.2" y="-2392" font-family="Arial Bold" font-size="18.00">public.order_result_services</text>
<text text-anchor="start" x="729.64" y="-2392" font-family="Arial" font-size="14.00">    </text>
<text text-anchor="start" x="760.75" y="-2392" font-family="Arial" font-size="14.00" fill="#666666">[BASE TABLE]</text>
<polygon fill="none" stroke="black" points="519.2,-2347.8 519.2,-2378.6 861.13,-2378.6 861.13,-2347.8 519.2,-2347.8"/>
<text text-anchor="start" x="526.2" y="-2360" font-family="Arial" font-size="14.00">id </text>
<text text-anchor="start" x="540.99" y="-2360" font-family="Arial" font-size="14.00" fill="#666666">[bigint]</text>
<polygon fill="none" stroke="black" points="519.2,-2317 519.2,-2347.8 861.13,-2347.8 861.13,-2317 519.2,-2317"/>
<text text-anchor="start" x="526.2" y="-2329.2" font-family="Arial" font-size="14.00">order_id </text>
<text text-anchor="start" x="581.46" y="-2329.2" font-family="Arial" font-size="14.00" fill="#666666">[varchar(50)]</text>
<polygon fill="none" stroke="black" points="519.2,-2286.2 519.2,-2317 861.13,-2317 861.13,-2286.2 519.2,-2286.2"/>
<text text-anchor="start" x="526.2" y="-2298.4" font-family="Arial" font-size="14.00">test_result_id </text>
<text text-anchor="start" x="613.36" y="-2298.4" font-family="Arial" font-size="14.00" fill="#666666">[bigint]</text>
<polygon fill="none" stroke="black" points="519.2,-2255.4 519.2,-2286.2 861.13,-2286.2 861.13,-2255.4 519.2,-2255.4"/>
<text text-anchor="start" x="526.2" y="-2267.6" font-family="Arial" font-size="14.00">pkg_test_code </text>
<text text-anchor="start" x="621.16" y="-2267.6" font-family="Arial" font-size="14.00" fill="#666666">[varchar(100)]</text>
<polygon fill="none" stroke="black" points="519.2,-2224.6 519.2,-2255.4 861.13,-2255.4 861.13,-2224.6 519.2,-2224.6"/>
<text text-anchor="start" x="526.2" y="-2236.8" font-family="Arial" font-size="14.00">parent_grp_test_code </text>
<text text-anchor="start" x="666.31" y="-2236.8" font-family="Arial" font-size="14.00" fill="#666666">[varchar(100)]</text>
<polygon fill="none" stroke="black" points="519.2,-2193.8 519.2,-2224.6 861.13,-2224.6 861.13,-2193.8 519.2,-2193.8"/>
<text text-anchor="start" x="526.2" y="-2206" font-family="Arial" font-size="14.00">grp_test_code </text>
<text text-anchor="start" x="618.82" y="-2206" font-family="Arial" font-size="14.00" fill="#666666">[varchar(100)]</text>
<polygon fill="none" stroke="black" points="519.2,-2163 519.2,-2193.8 861.13,-2193.8 861.13,-2163 519.2,-2163"/>
<text text-anchor="start" x="526.2" y="-2175.2" font-family="Arial" font-size="14.00">inv_test_code </text>
<text text-anchor="start" x="616.49" y="-2175.2" font-family="Arial" font-size="14.00" fill="#666666">[varchar(100)]</text>
<polygon fill="none" stroke="black" points="519.2,-2132.2 519.2,-2163 861.13,-2163 861.13,-2132.2 519.2,-2132.2"/>
<text text-anchor="start" x="526.2" y="-2144.4" font-family="Arial" font-size="14.00">test_status </text>
<text text-anchor="start" x="597.8" y="-2144.4" font-family="Arial" font-size="14.00" fill="#666666">[varchar(100)]</text>
<polygon fill="none" stroke="black" points="519.2,-2101.4 519.2,-2132.2 861.13,-2132.2 861.13,-2101.4 519.2,-2101.4"/>
<text text-anchor="start" x="526.2" y="-2113.6" font-family="Arial" font-size="14.00">created_at </text>
<text text-anchor="start" x="596.25" y="-2113.6" font-family="Arial" font-size="14.00" fill="#666666">[timestamp(0) without time zone]</text>
<polygon fill="none" stroke="black" points="519.2,-2070.6 519.2,-2101.4 861.13,-2101.4 861.13,-2070.6 519.2,-2070.6"/>
<text text-anchor="start" x="526.2" y="-2082.8" font-family="Arial" font-size="14.00">updated_at </text>
<text text-anchor="start" x="600.16" y="-2082.8" font-family="Arial" font-size="14.00" fill="#666666">[timestamp(0) without time zone]</text>
<polygon fill="none" stroke="black" points="519.2,-2039.8 519.2,-2070.6 861.13,-2070.6 861.13,-2039.8 519.2,-2039.8"/>
<text text-anchor="start" x="526.2" y="-2052" font-family="Arial" font-size="14.00">pkg_test_name </text>
<text text-anchor="start" x="625.82" y="-2052" font-family="Arial" font-size="14.00" fill="#666666">[varchar(255)]</text>
<polygon fill="none" stroke="black" points="519.2,-2009 519.2,-2039.8 861.13,-2039.8 861.13,-2009 519.2,-2009"/>
<text text-anchor="start" x="526.2" y="-2021.2" font-family="Arial" font-size="14.00">parent_grp_test_name </text>
<text text-anchor="start" x="670.97" y="-2021.2" font-family="Arial" font-size="14.00" fill="#666666">[varchar(255)]</text>
<polygon fill="none" stroke="black" points="519.2,-1978.2 519.2,-2009 861.13,-2009 861.13,-1978.2 519.2,-1978.2"/>
<text text-anchor="start" x="526.2" y="-1990.4" font-family="Arial" font-size="14.00">grp_test_name </text>
<text text-anchor="start" x="623.49" y="-1990.4" font-family="Arial" font-size="14.00" fill="#666666">[varchar(255)]</text>
<polygon fill="none" stroke="black" points="519.2,-1947.4 519.2,-1978.2 861.13,-1978.2 861.13,-1947.4 519.2,-1947.4"/>
<text text-anchor="start" x="526.2" y="-1959.6" font-family="Arial" font-size="14.00">group_component </text>
<text text-anchor="start" x="642.96" y="-1959.6" font-family="Arial" font-size="14.00" fill="#666666">[text]</text>
</g>
<!-- public.order_result_services&#45;&gt;public.orders -->
<g id="edge2" class="edge">
<title>public.order_result_services:order_id&#45;&gt;public.orders:order_id</title>
<path fill="none" stroke="black" d="M507.88,-2330.91C429.93,-2306.73 512.97,-1995.43 519.2,-1904.2 553.84,-1397.42 1168.13,-770 660.17,-770"/>
<polygon fill="black" stroke="black" points="507.98,-2330.92 517.23,-2336.81 513.26,-2331.68 517.54,-2332.3 517.54,-2332.3 517.54,-2332.3 513.26,-2331.68 518.52,-2327.9 507.98,-2330.92"/>
<text text-anchor="start" x="525.2" y="-2342.4" font-family="Arial" font-size="10.00">FOREIGN KEY (order_id) REFERENCES orders(order_id)</text>
</g>
</g>
</svg>
