<?xml version="1.0" encoding="UTF-8" standalone="no"?>
<!DOCTYPE svg PUBLIC "-//W3C//DTD SVG 1.1//EN"
 "http://www.w3.org/Graphics/SVG/1.1/DTD/svg11.dtd">
<!-- Generated by graphviz version 12.1.2 (20240928.0832)
 -->
<!-- Title: public.approvers Pages: 1 -->
<svg width="915pt" height="602pt"
 viewBox="0.00 0.00 914.78 602.00" xmlns="http://www.w3.org/2000/svg" xmlns:xlink="http://www.w3.org/1999/xlink">
<g id="graph0" class="graph" transform="scale(1 1) rotate(0) translate(4 598)">
<title>public.approvers</title>
<polygon fill="white" stroke="none" points="-4,4 -4,-598 910.78,-598 910.78,4 -4,4"/>
<!-- public.approvers -->
<g id="node1" class="node">
<title>public.approvers</title>
<polygon fill="#efefef" stroke="none" points="72.54,-169.4 72.54,-205 362.8,-205 362.8,-169.4 72.54,-169.4"/>
<polygon fill="none" stroke="black" points="72.54,-169.4 72.54,-205 362.8,-205 362.8,-169.4 72.54,-169.4"/>
<text text-anchor="start" x="95.2" y="-182.8" font-family="Arial Bold" font-size="18.00">public.approvers</text>
<text text-anchor="start" x="215.66" y="-182.8" font-family="Arial" font-size="14.00">    </text>
<text text-anchor="start" x="246.78" y="-182.8" font-family="Arial" font-size="14.00" fill="#666666">[BASE TABLE]</text>
<polygon fill="none" stroke="black" points="72.54,-138.6 72.54,-169.4 362.8,-169.4 362.8,-138.6 72.54,-138.6"/>
<text text-anchor="start" x="79.54" y="-150.8" font-family="Arial" font-size="14.00">employee_code </text>
<text text-anchor="start" x="182.28" y="-150.8" font-family="Arial" font-size="14.00" fill="#666666">[varchar(255)]</text>
<polygon fill="none" stroke="black" points="72.54,-107.8 72.54,-138.6 362.8,-138.6 362.8,-107.8 72.54,-107.8"/>
<text text-anchor="start" x="79.54" y="-120" font-family="Arial" font-size="14.00">employee_name </text>
<text text-anchor="start" x="186.94" y="-120" font-family="Arial" font-size="14.00" fill="#666666">[varchar(50)]</text>
<polygon fill="none" stroke="black" points="72.54,-77 72.54,-107.8 362.8,-107.8 362.8,-77 72.54,-77"/>
<text text-anchor="start" x="79.54" y="-89.2" font-family="Arial" font-size="14.00">created_at </text>
<text text-anchor="start" x="149.59" y="-89.2" font-family="Arial" font-size="14.00" fill="#666666">[timestamp(0) without time zone]</text>
<polygon fill="none" stroke="black" points="72.54,-46.2 72.54,-77 362.8,-77 362.8,-46.2 72.54,-46.2"/>
<text text-anchor="start" x="79.54" y="-58.4" font-family="Arial" font-size="14.00">updated_at </text>
<text text-anchor="start" x="153.5" y="-58.4" font-family="Arial" font-size="14.00" fill="#666666">[timestamp(0) without time zone]</text>
<polygon fill="none" stroke="black" stroke-width="3" points="71.04,-44.7 71.04,-206.5 364.3,-206.5 364.3,-44.7 71.04,-44.7"/>
</g>
<!-- public.test_results_approvers -->
<g id="node2" class="node">
<title>public.test_results_approvers</title>
<polygon fill="#efefef" stroke="none" points="43.2,-515.2 43.2,-550.8 392.14,-550.8 392.14,-515.2 43.2,-515.2"/>
<polygon fill="none" stroke="black" points="43.2,-515.2 43.2,-550.8 392.14,-550.8 392.14,-515.2 43.2,-515.2"/>
<text text-anchor="start" x="50.2" y="-528.6" font-family="Arial Bold" font-size="18.00">public.test_results_approvers</text>
<text text-anchor="start" x="260.65" y="-528.6" font-family="Arial" font-size="14.00">    </text>
<text text-anchor="start" x="291.77" y="-528.6" font-family="Arial" font-size="14.00" fill="#666666">[BASE TABLE]</text>
<polygon fill="none" stroke="black" points="43.2,-484.4 43.2,-515.2 392.14,-515.2 392.14,-484.4 43.2,-484.4"/>
<text text-anchor="start" x="50.2" y="-496.6" font-family="Arial" font-size="14.00">id </text>
<text text-anchor="start" x="64.99" y="-496.6" font-family="Arial" font-size="14.00" fill="#666666">[bigint]</text>
<polygon fill="none" stroke="black" points="43.2,-453.6 43.2,-484.4 392.14,-484.4 392.14,-453.6 43.2,-453.6"/>
<text text-anchor="start" x="50.2" y="-465.8" font-family="Arial" font-size="14.00">test_result_id </text>
<text text-anchor="start" x="137.36" y="-465.8" font-family="Arial" font-size="14.00" fill="#666666">[bigint]</text>
<polygon fill="none" stroke="black" points="43.2,-422.8 43.2,-453.6 392.14,-453.6 392.14,-422.8 43.2,-422.8"/>
<text text-anchor="start" x="50.2" y="-435" font-family="Arial" font-size="14.00">approver_employee_code </text>
<text text-anchor="start" x="215.98" y="-435" font-family="Arial" font-size="14.00" fill="#666666">[varchar(255)]</text>
<polygon fill="none" stroke="black" points="43.2,-392 43.2,-422.8 392.14,-422.8 392.14,-392 43.2,-392"/>
<text text-anchor="start" x="50.2" y="-404.2" font-family="Arial" font-size="14.00">type </text>
<text text-anchor="start" x="80.55" y="-404.2" font-family="Arial" font-size="14.00" fill="#666666">[varchar(255)]</text>
<polygon fill="none" stroke="black" points="43.2,-361.2 43.2,-392 392.14,-392 392.14,-361.2 43.2,-361.2"/>
<text text-anchor="start" x="50.2" y="-373.4" font-family="Arial" font-size="14.00">created_at </text>
<text text-anchor="start" x="120.25" y="-373.4" font-family="Arial" font-size="14.00" fill="#666666">[timestamp(0) without time zone]</text>
<polygon fill="none" stroke="black" points="43.2,-330.4 43.2,-361.2 392.14,-361.2 392.14,-330.4 43.2,-330.4"/>
<text text-anchor="start" x="50.2" y="-342.6" font-family="Arial" font-size="14.00">updated_at </text>
<text text-anchor="start" x="124.16" y="-342.6" font-family="Arial" font-size="14.00" fill="#666666">[timestamp(0) without time zone]</text>
</g>
<!-- public.test_results_approvers&#45;&gt;public.approvers -->
<g id="edge1" class="edge">
<title>public.test_results_approvers:approver_employee_code&#45;&gt;public.approvers:employee_code</title>
<path fill="none" stroke="black" d="M403.05,-435.57C453.2,-406.92 423.69,-154 363.8,-154"/>
<polygon fill="black" stroke="black" points="403.13,-435.55 392.31,-433.77 397.98,-436.92 393.79,-438.03 393.79,-438.03 393.79,-438.03 397.98,-436.92 394.62,-442.46 403.13,-435.55"/>
<text text-anchor="start" x="400.14" y="-448.2" font-family="Arial" font-size="10.00">FOREIGN KEY (approver_employee_code) REFERENCES approvers(employee_code) ON DELETE CASCADE</text>
</g>
</g>
</svg>
