<?xml version="1.0" encoding="UTF-8" standalone="no"?>
<!DOCTYPE svg PUBLIC "-//W3C//DTD SVG 1.1//EN"
 "http://www.w3.org/Graphics/SVG/1.1/DTD/svg11.dtd">
<!-- Generated by graphviz version 12.1.2 (20240928.0832)
 -->
<!-- Title: public.batches Pages: 1 -->
<svg width="719pt" height="910pt"
 viewBox="0.00 0.00 719.39 910.00" xmlns="http://www.w3.org/2000/svg" xmlns:xlink="http://www.w3.org/1999/xlink">
<g id="graph0" class="graph" transform="scale(1 1) rotate(0) translate(4 906)">
<title>public.batches</title>
<polygon fill="white" stroke="none" points="-4,4 -4,-906 715.39,-906 715.39,4 -4,4"/>
<!-- public.batches -->
<g id="node1" class="node">
<title>public.batches</title>
<polygon fill="#efefef" stroke="none" points="46.2,-508.2 46.2,-543.8 353.54,-543.8 353.54,-508.2 46.2,-508.2"/>
<polygon fill="none" stroke="black" points="46.2,-508.2 46.2,-543.8 353.54,-543.8 353.54,-508.2 46.2,-508.2"/>
<text text-anchor="start" x="85.89" y="-521.6" font-family="Arial Bold" font-size="18.00">public.batches</text>
<text text-anchor="start" x="189.36" y="-521.6" font-family="Arial" font-size="14.00">    </text>
<text text-anchor="start" x="220.48" y="-521.6" font-family="Arial" font-size="14.00" fill="#666666">[BASE TABLE]</text>
<polygon fill="none" stroke="black" points="46.2,-477.4 46.2,-508.2 353.54,-508.2 353.54,-477.4 46.2,-477.4"/>
<text text-anchor="start" x="53.2" y="-489.6" font-family="Arial" font-size="14.00">id </text>
<text text-anchor="start" x="67.99" y="-489.6" font-family="Arial" font-size="14.00" fill="#666666">[bigint]</text>
<polygon fill="none" stroke="black" points="46.2,-446.6 46.2,-477.4 353.54,-477.4 353.54,-446.6 46.2,-446.6"/>
<text text-anchor="start" x="53.2" y="-458.8" font-family="Arial" font-size="14.00">batch_name </text>
<text text-anchor="start" x="134.14" y="-458.8" font-family="Arial" font-size="14.00" fill="#666666">[varchar(255)]</text>
<polygon fill="none" stroke="black" points="46.2,-415.8 46.2,-446.6 353.54,-446.6 353.54,-415.8 46.2,-415.8"/>
<text text-anchor="start" x="53.2" y="-428" font-family="Arial" font-size="14.00">batch_description </text>
<text text-anchor="start" x="166.83" y="-428" font-family="Arial" font-size="14.00" fill="#666666">[text]</text>
<polygon fill="none" stroke="black" points="46.2,-385 46.2,-415.8 353.54,-415.8 353.54,-385 46.2,-385"/>
<text text-anchor="start" x="53.2" y="-397.2" font-family="Arial" font-size="14.00">batch_code </text>
<text text-anchor="start" x="129.48" y="-397.2" font-family="Arial" font-size="14.00" fill="#666666">[varchar(255)]</text>
<polygon fill="none" stroke="black" points="46.2,-354.2 46.2,-385 353.54,-385 353.54,-354.2 46.2,-354.2"/>
<text text-anchor="start" x="53.2" y="-366.4" font-family="Arial" font-size="14.00">source_location </text>
<text text-anchor="start" x="155.15" y="-366.4" font-family="Arial" font-size="14.00" fill="#666666">[varchar(255)]</text>
<polygon fill="none" stroke="black" points="46.2,-323.4 46.2,-354.2 353.54,-354.2 353.54,-323.4 46.2,-323.4"/>
<text text-anchor="start" x="53.2" y="-335.6" font-family="Arial" font-size="14.00">destination_location </text>
<text text-anchor="start" x="180.85" y="-335.6" font-family="Arial" font-size="14.00" fill="#666666">[varchar(255)]</text>
<polygon fill="none" stroke="black" points="46.2,-292.6 46.2,-323.4 353.54,-323.4 353.54,-292.6 46.2,-292.6"/>
<text text-anchor="start" x="53.2" y="-304.8" font-family="Arial" font-size="14.00">status </text>
<text text-anchor="start" x="94.44" y="-304.8" font-family="Arial" font-size="14.00" fill="#666666">[varchar(255)]</text>
<polygon fill="none" stroke="black" points="46.2,-261.8 46.2,-292.6 353.54,-292.6 353.54,-261.8 46.2,-261.8"/>
<text text-anchor="start" x="53.2" y="-274" font-family="Arial" font-size="14.00">created_by </text>
<text text-anchor="start" x="126.36" y="-274" font-family="Arial" font-size="14.00" fill="#666666">[varchar(255)]</text>
<polygon fill="none" stroke="black" points="46.2,-231 46.2,-261.8 353.54,-261.8 353.54,-231 46.2,-231"/>
<text text-anchor="start" x="53.2" y="-243.2" font-family="Arial" font-size="14.00">transferred_at </text>
<text text-anchor="start" x="144.25" y="-243.2" font-family="Arial" font-size="14.00" fill="#666666">[timestamp(0) without time zone]</text>
<polygon fill="none" stroke="black" points="46.2,-200.2 46.2,-231 353.54,-231 353.54,-200.2 46.2,-200.2"/>
<text text-anchor="start" x="53.2" y="-212.4" font-family="Arial" font-size="14.00">cancelled_at </text>
<text text-anchor="start" x="135.7" y="-212.4" font-family="Arial" font-size="14.00" fill="#666666">[timestamp(0) without time zone]</text>
<polygon fill="none" stroke="black" points="46.2,-169.4 46.2,-200.2 353.54,-200.2 353.54,-169.4 46.2,-169.4"/>
<text text-anchor="start" x="53.2" y="-181.6" font-family="Arial" font-size="14.00">completed_at </text>
<text text-anchor="start" x="141.14" y="-181.6" font-family="Arial" font-size="14.00" fill="#666666">[timestamp(0) without time zone]</text>
<polygon fill="none" stroke="black" points="46.2,-138.6 46.2,-169.4 353.54,-169.4 353.54,-138.6 46.2,-138.6"/>
<text text-anchor="start" x="53.2" y="-150.8" font-family="Arial" font-size="14.00">created_at </text>
<text text-anchor="start" x="123.25" y="-150.8" font-family="Arial" font-size="14.00" fill="#666666">[timestamp(0) without time zone]</text>
<polygon fill="none" stroke="black" points="46.2,-107.8 46.2,-138.6 353.54,-138.6 353.54,-107.8 46.2,-107.8"/>
<text text-anchor="start" x="53.2" y="-120" font-family="Arial" font-size="14.00">updated_at </text>
<text text-anchor="start" x="127.16" y="-120" font-family="Arial" font-size="14.00" fill="#666666">[timestamp(0) without time zone]</text>
<polygon fill="none" stroke="black" points="46.2,-77 46.2,-107.8 353.54,-107.8 353.54,-77 46.2,-77"/>
<text text-anchor="start" x="53.2" y="-89.2" font-family="Arial" font-size="14.00">total_sample </text>
<text text-anchor="start" x="136.47" y="-89.2" font-family="Arial" font-size="14.00" fill="#666666">[integer]</text>
<polygon fill="none" stroke="black" points="46.2,-46.2 46.2,-77 353.54,-77 353.54,-46.2 46.2,-46.2"/>
<text text-anchor="start" x="53.2" y="-58.4" font-family="Arial" font-size="14.00">arrived_reason </text>
<text text-anchor="start" x="150.48" y="-58.4" font-family="Arial" font-size="14.00" fill="#666666">[varchar(255)]</text>
<polygon fill="none" stroke="black" stroke-width="3" points="44.7,-44.7 44.7,-545.3 355.04,-545.3 355.04,-44.7 44.7,-44.7"/>
</g>
<!-- public.batch_samples -->
<g id="node2" class="node">
<title>public.batch_samples</title>
<polygon fill="#efefef" stroke="none" points="52.9,-823.2 52.9,-858.8 346.85,-858.8 346.85,-823.2 52.9,-823.2"/>
<polygon fill="none" stroke="black" points="52.9,-823.2 52.9,-858.8 346.85,-858.8 346.85,-823.2 52.9,-823.2"/>
<text text-anchor="start" x="59.9" y="-836.6" font-family="Arial Bold" font-size="18.00">public.batch_samples</text>
<text text-anchor="start" x="215.36" y="-836.6" font-family="Arial" font-size="14.00">    </text>
<text text-anchor="start" x="246.47" y="-836.6" font-family="Arial" font-size="14.00" fill="#666666">[BASE TABLE]</text>
<polygon fill="none" stroke="black" points="52.9,-792.4 52.9,-823.2 346.85,-823.2 346.85,-792.4 52.9,-792.4"/>
<text text-anchor="start" x="59.9" y="-804.6" font-family="Arial" font-size="14.00">id </text>
<text text-anchor="start" x="74.68" y="-804.6" font-family="Arial" font-size="14.00" fill="#666666">[bigint]</text>
<polygon fill="none" stroke="black" points="52.9,-761.6 52.9,-792.4 346.85,-792.4 346.85,-761.6 52.9,-761.6"/>
<text text-anchor="start" x="59.9" y="-773.8" font-family="Arial" font-size="14.00">batch_id </text>
<text text-anchor="start" x="116.72" y="-773.8" font-family="Arial" font-size="14.00" fill="#666666">[bigint]</text>
<polygon fill="none" stroke="black" points="52.9,-730.8 52.9,-761.6 346.85,-761.6 346.85,-730.8 52.9,-730.8"/>
<text text-anchor="start" x="59.9" y="-743" font-family="Arial" font-size="14.00">sample_id </text>
<text text-anchor="start" x="127.6" y="-743" font-family="Arial" font-size="14.00" fill="#666666">[varchar(255)]</text>
<polygon fill="none" stroke="black" points="52.9,-700 52.9,-730.8 346.85,-730.8 346.85,-700 52.9,-700"/>
<text text-anchor="start" x="59.9" y="-712.2" font-family="Arial" font-size="14.00">created_at </text>
<text text-anchor="start" x="129.94" y="-712.2" font-family="Arial" font-size="14.00" fill="#666666">[timestamp(0) without time zone]</text>
<polygon fill="none" stroke="black" points="52.9,-669.2 52.9,-700 346.85,-700 346.85,-669.2 52.9,-669.2"/>
<text text-anchor="start" x="59.9" y="-681.4" font-family="Arial" font-size="14.00">updated_at </text>
<text text-anchor="start" x="133.85" y="-681.4" font-family="Arial" font-size="14.00" fill="#666666">[timestamp(0) without time zone]</text>
</g>
<!-- public.batch_samples&#45;&gt;public.batches -->
<g id="edge1" class="edge">
<title>public.batch_samples:batch_id&#45;&gt;public.batches:id</title>
<path fill="none" stroke="black" d="M357.7,-774.54C411.54,-746.77 414.26,-492.8 354.54,-492.8"/>
<polygon fill="black" stroke="black" points="357.87,-774.5 347.08,-772.55 352.7,-775.79 348.5,-776.84 348.5,-776.84 348.5,-776.84 352.7,-775.79 349.26,-781.29 357.87,-774.5"/>
<text text-anchor="start" x="354.85" y="-787" font-family="Arial" font-size="10.00">FOREIGN KEY (batch_id) REFERENCES batches(id) ON DELETE CASCADE</text>
</g>
</g>
</svg>
