<?xml version="1.0" encoding="UTF-8" standalone="no"?>
<!DOCTYPE svg PUBLIC "-//W3C//DTD SVG 1.1//EN"
 "http://www.w3.org/Graphics/SVG/1.1/DTD/svg11.dtd">
<!-- Generated by graphviz version 12.1.2 (20240928.0832)
 -->
<!-- Title: public.order_result_services Pages: 1 -->
<svg width="970pt" height="3158pt"
 viewBox="0.00 0.00 970.37 3158.40" xmlns="http://www.w3.org/2000/svg" xmlns:xlink="http://www.w3.org/1999/xlink">
<g id="graph0" class="graph" transform="scale(1 1) rotate(0) translate(4 3154.4)">
<title>public.order_result_services</title>
<polygon fill="white" stroke="none" points="-4,4 -4,-3154.4 966.37,-3154.4 966.37,4 -4,4"/>
<!-- public.order_result_services -->
<g id="node1" class="node">
<title>public.order_result_services</title>
<polygon fill="#efefef" stroke="none" points="317.24,-3068.6 317.24,-3104.2 659.16,-3104.2 659.16,-3068.6 317.24,-3068.6"/>
<polygon fill="none" stroke="black" points="317.24,-3068.6 317.24,-3104.2 659.16,-3104.2 659.16,-3068.6 317.24,-3068.6"/>
<text text-anchor="start" x="324.24" y="-3082" font-family="Arial Bold" font-size="18.00">public.order_result_services</text>
<text text-anchor="start" x="527.67" y="-3082" font-family="Arial" font-size="14.00">    </text>
<text text-anchor="start" x="558.79" y="-3082" font-family="Arial" font-size="14.00" fill="#666666">[BASE TABLE]</text>
<polygon fill="none" stroke="black" points="317.24,-3037.8 317.24,-3068.6 659.16,-3068.6 659.16,-3037.8 317.24,-3037.8"/>
<text text-anchor="start" x="324.24" y="-3050" font-family="Arial" font-size="14.00">id </text>
<text text-anchor="start" x="339.03" y="-3050" font-family="Arial" font-size="14.00" fill="#666666">[bigint]</text>
<polygon fill="none" stroke="black" points="317.24,-3007 317.24,-3037.8 659.16,-3037.8 659.16,-3007 317.24,-3007"/>
<text text-anchor="start" x="324.24" y="-3019.2" font-family="Arial" font-size="14.00">order_id </text>
<text text-anchor="start" x="379.5" y="-3019.2" font-family="Arial" font-size="14.00" fill="#666666">[varchar(50)]</text>
<polygon fill="none" stroke="black" points="317.24,-2976.2 317.24,-3007 659.16,-3007 659.16,-2976.2 317.24,-2976.2"/>
<text text-anchor="start" x="324.24" y="-2988.4" font-family="Arial" font-size="14.00">test_result_id </text>
<text text-anchor="start" x="411.4" y="-2988.4" font-family="Arial" font-size="14.00" fill="#666666">[bigint]</text>
<polygon fill="none" stroke="black" points="317.24,-2945.4 317.24,-2976.2 659.16,-2976.2 659.16,-2945.4 317.24,-2945.4"/>
<text text-anchor="start" x="324.24" y="-2957.6" font-family="Arial" font-size="14.00">pkg_test_code </text>
<text text-anchor="start" x="419.2" y="-2957.6" font-family="Arial" font-size="14.00" fill="#666666">[varchar(100)]</text>
<polygon fill="none" stroke="black" points="317.24,-2914.6 317.24,-2945.4 659.16,-2945.4 659.16,-2914.6 317.24,-2914.6"/>
<text text-anchor="start" x="324.24" y="-2926.8" font-family="Arial" font-size="14.00">parent_grp_test_code </text>
<text text-anchor="start" x="464.34" y="-2926.8" font-family="Arial" font-size="14.00" fill="#666666">[varchar(100)]</text>
<polygon fill="none" stroke="black" points="317.24,-2883.8 317.24,-2914.6 659.16,-2914.6 659.16,-2883.8 317.24,-2883.8"/>
<text text-anchor="start" x="324.24" y="-2896" font-family="Arial" font-size="14.00">grp_test_code </text>
<text text-anchor="start" x="416.86" y="-2896" font-family="Arial" font-size="14.00" fill="#666666">[varchar(100)]</text>
<polygon fill="none" stroke="black" points="317.24,-2853 317.24,-2883.8 659.16,-2883.8 659.16,-2853 317.24,-2853"/>
<text text-anchor="start" x="324.24" y="-2865.2" font-family="Arial" font-size="14.00">inv_test_code </text>
<text text-anchor="start" x="414.52" y="-2865.2" font-family="Arial" font-size="14.00" fill="#666666">[varchar(100)]</text>
<polygon fill="none" stroke="black" points="317.24,-2822.2 317.24,-2853 659.16,-2853 659.16,-2822.2 317.24,-2822.2"/>
<text text-anchor="start" x="324.24" y="-2834.4" font-family="Arial" font-size="14.00">test_status </text>
<text text-anchor="start" x="395.83" y="-2834.4" font-family="Arial" font-size="14.00" fill="#666666">[varchar(100)]</text>
<polygon fill="none" stroke="black" points="317.24,-2791.4 317.24,-2822.2 659.16,-2822.2 659.16,-2791.4 317.24,-2791.4"/>
<text text-anchor="start" x="324.24" y="-2803.6" font-family="Arial" font-size="14.00">created_at </text>
<text text-anchor="start" x="394.29" y="-2803.6" font-family="Arial" font-size="14.00" fill="#666666">[timestamp(0) without time zone]</text>
<polygon fill="none" stroke="black" points="317.24,-2760.6 317.24,-2791.4 659.16,-2791.4 659.16,-2760.6 317.24,-2760.6"/>
<text text-anchor="start" x="324.24" y="-2772.8" font-family="Arial" font-size="14.00">updated_at </text>
<text text-anchor="start" x="398.2" y="-2772.8" font-family="Arial" font-size="14.00" fill="#666666">[timestamp(0) without time zone]</text>
<polygon fill="none" stroke="black" points="317.24,-2729.8 317.24,-2760.6 659.16,-2760.6 659.16,-2729.8 317.24,-2729.8"/>
<text text-anchor="start" x="324.24" y="-2742" font-family="Arial" font-size="14.00">pkg_test_name </text>
<text text-anchor="start" x="423.86" y="-2742" font-family="Arial" font-size="14.00" fill="#666666">[varchar(255)]</text>
<polygon fill="none" stroke="black" points="317.24,-2699 317.24,-2729.8 659.16,-2729.8 659.16,-2699 317.24,-2699"/>
<text text-anchor="start" x="324.24" y="-2711.2" font-family="Arial" font-size="14.00">parent_grp_test_name </text>
<text text-anchor="start" x="469.01" y="-2711.2" font-family="Arial" font-size="14.00" fill="#666666">[varchar(255)]</text>
<polygon fill="none" stroke="black" points="317.24,-2668.2 317.24,-2699 659.16,-2699 659.16,-2668.2 317.24,-2668.2"/>
<text text-anchor="start" x="324.24" y="-2680.4" font-family="Arial" font-size="14.00">grp_test_name </text>
<text text-anchor="start" x="421.52" y="-2680.4" font-family="Arial" font-size="14.00" fill="#666666">[varchar(255)]</text>
<polygon fill="none" stroke="black" points="317.24,-2637.4 317.24,-2668.2 659.16,-2668.2 659.16,-2637.4 317.24,-2637.4"/>
<text text-anchor="start" x="324.24" y="-2649.6" font-family="Arial" font-size="14.00">group_component </text>
<text text-anchor="start" x="440.99" y="-2649.6" font-family="Arial" font-size="14.00" fill="#666666">[text]</text>
<polygon fill="none" stroke="black" stroke-width="3" points="315.74,-2635.9 315.74,-3105.7 660.66,-3105.7 660.66,-2635.9 315.74,-2635.9"/>
</g>
<!-- public.orders -->
<g id="node2" class="node">
<title>public.orders</title>
<polygon fill="#efefef" stroke="none" points="43.2,-1629.4 43.2,-1665 443.2,-1665 443.2,-1629.4 43.2,-1629.4"/>
<polygon fill="none" stroke="black" points="43.2,-1629.4 43.2,-1665 443.2,-1665 443.2,-1629.4 43.2,-1629.4"/>
<text text-anchor="start" x="133.72" y="-1642.8" font-family="Arial Bold" font-size="18.00">public.orders</text>
<text text-anchor="start" x="228.19" y="-1642.8" font-family="Arial" font-size="14.00">    </text>
<text text-anchor="start" x="259.31" y="-1642.8" font-family="Arial" font-size="14.00" fill="#666666">[BASE TABLE]</text>
<polygon fill="none" stroke="black" points="43.2,-1598.6 43.2,-1629.4 443.2,-1629.4 443.2,-1598.6 43.2,-1598.6"/>
<text text-anchor="start" x="50.2" y="-1610.8" font-family="Arial" font-size="14.00">order_id </text>
<text text-anchor="start" x="105.45" y="-1610.8" font-family="Arial" font-size="14.00" fill="#666666">[varchar(50)]</text>
<polygon fill="none" stroke="black" points="43.2,-1567.8 43.2,-1598.6 443.2,-1598.6 443.2,-1567.8 43.2,-1567.8"/>
<text text-anchor="start" x="50.2" y="-1580" font-family="Arial" font-size="14.00">account_code </text>
<text text-anchor="start" x="141.27" y="-1580" font-family="Arial" font-size="14.00" fill="#666666">[varchar(50)]</text>
<polygon fill="none" stroke="black" points="43.2,-1537 43.2,-1567.8 443.2,-1567.8 443.2,-1537 43.2,-1537"/>
<text text-anchor="start" x="50.2" y="-1549.2" font-family="Arial" font-size="14.00">patient_id </text>
<text text-anchor="start" x="114.81" y="-1549.2" font-family="Arial" font-size="14.00" fill="#666666">[varchar(50)]</text>
<polygon fill="none" stroke="black" points="43.2,-1506.2 43.2,-1537 443.2,-1537 443.2,-1506.2 43.2,-1506.2"/>
<text text-anchor="start" x="50.2" y="-1518.4" font-family="Arial" font-size="14.00">patient_name </text>
<text text-anchor="start" x="138.93" y="-1518.4" font-family="Arial" font-size="14.00" fill="#666666">[varchar(100)]</text>
<polygon fill="none" stroke="black" points="43.2,-1475.4 43.2,-1506.2 443.2,-1506.2 443.2,-1475.4 43.2,-1475.4"/>
<text text-anchor="start" x="50.2" y="-1487.6" font-family="Arial" font-size="14.00">patient_gender </text>
<text text-anchor="start" x="147.5" y="-1487.6" font-family="Arial" font-size="14.00" fill="#666666">[varchar(50)]</text>
<polygon fill="none" stroke="black" points="43.2,-1444.6 43.2,-1475.4 443.2,-1475.4 443.2,-1444.6 43.2,-1444.6"/>
<text text-anchor="start" x="50.2" y="-1456.8" font-family="Arial" font-size="14.00">patient_dob </text>
<text text-anchor="start" x="127.27" y="-1456.8" font-family="Arial" font-size="14.00" fill="#666666">[timestamp(0) without time zone]</text>
<polygon fill="none" stroke="black" points="43.2,-1413.8 43.2,-1444.6 443.2,-1444.6 443.2,-1413.8 43.2,-1413.8"/>
<text text-anchor="start" x="50.2" y="-1426" font-family="Arial" font-size="14.00">created_at </text>
<text text-anchor="start" x="120.25" y="-1426" font-family="Arial" font-size="14.00" fill="#666666">[timestamp(0) without time zone]</text>
<polygon fill="none" stroke="black" points="43.2,-1383 43.2,-1413.8 443.2,-1413.8 443.2,-1383 43.2,-1383"/>
<text text-anchor="start" x="50.2" y="-1395.2" font-family="Arial" font-size="14.00">updated_at </text>
<text text-anchor="start" x="124.16" y="-1395.2" font-family="Arial" font-size="14.00" fill="#666666">[timestamp(0) without time zone]</text>
<polygon fill="none" stroke="black" points="43.2,-1352.2 43.2,-1383 443.2,-1383 443.2,-1352.2 43.2,-1352.2"/>
<text text-anchor="start" x="50.2" y="-1364.4" font-family="Arial" font-size="14.00">register_location </text>
<text text-anchor="start" x="156.81" y="-1364.4" font-family="Arial" font-size="14.00" fill="#666666">[varchar(50)]</text>
<polygon fill="none" stroke="black" points="43.2,-1321.4 43.2,-1352.2 443.2,-1352.2 443.2,-1321.4 43.2,-1321.4"/>
<text text-anchor="start" x="50.2" y="-1333.6" font-family="Arial" font-size="14.00">ordered_date </text>
<text text-anchor="start" x="137.38" y="-1333.6" font-family="Arial" font-size="14.00" fill="#666666">[timestamp(0) without time zone]</text>
<polygon fill="none" stroke="black" points="43.2,-1290.6 43.2,-1321.4 443.2,-1321.4 443.2,-1290.6 43.2,-1290.6"/>
<text text-anchor="start" x="50.2" y="-1302.8" font-family="Arial" font-size="14.00">recollecting_flag </text>
<text text-anchor="start" x="155.26" y="-1302.8" font-family="Arial" font-size="14.00" fill="#666666">[boolean]</text>
<polygon fill="none" stroke="black" points="43.2,-1259.8 43.2,-1290.6 443.2,-1290.6 443.2,-1259.8 43.2,-1259.8"/>
<text text-anchor="start" x="50.2" y="-1272" font-family="Arial" font-size="14.00">patient_mobile_number </text>
<text text-anchor="start" x="200.41" y="-1272" font-family="Arial" font-size="14.00" fill="#666666">[varchar(20)]</text>
<polygon fill="none" stroke="black" points="43.2,-1229 43.2,-1259.8 443.2,-1259.8 443.2,-1229 43.2,-1229"/>
<text text-anchor="start" x="50.2" y="-1241.2" font-family="Arial" font-size="14.00">patient_info </text>
<text text-anchor="start" x="126.48" y="-1241.2" font-family="Arial" font-size="14.00" fill="#666666">[json]</text>
<polygon fill="none" stroke="black" points="43.2,-1198.2 43.2,-1229 443.2,-1229 443.2,-1198.2 43.2,-1198.2"/>
<text text-anchor="start" x="50.2" y="-1210.4" font-family="Arial" font-size="14.00">patient_visit_info </text>
<text text-anchor="start" x="158.38" y="-1210.4" font-family="Arial" font-size="14.00" fill="#666666">[json]</text>
<polygon fill="none" stroke="black" points="43.2,-1167.4 43.2,-1198.2 443.2,-1198.2 443.2,-1167.4 43.2,-1167.4"/>
<text text-anchor="start" x="50.2" y="-1179.6" font-family="Arial" font-size="14.00">customer_segment_id </text>
<text text-anchor="start" x="191.83" y="-1179.6" font-family="Arial" font-size="14.00" fill="#666666">[bigint]</text>
<polygon fill="none" stroke="black" points="43.2,-1136.6 43.2,-1167.4 443.2,-1167.4 443.2,-1136.6 43.2,-1136.6"/>
<text text-anchor="start" x="50.2" y="-1148.8" font-family="Arial" font-size="14.00">is_approved </text>
<text text-anchor="start" x="130.37" y="-1148.8" font-family="Arial" font-size="14.00" fill="#666666">[boolean]</text>
<polygon fill="none" stroke="black" points="43.2,-1105.8 43.2,-1136.6 443.2,-1136.6 443.2,-1105.8 43.2,-1105.8"/>
<text text-anchor="start" x="50.2" y="-1118" font-family="Arial" font-size="14.00">source_type </text>
<text text-anchor="start" x="130.36" y="-1118" font-family="Arial" font-size="14.00" fill="#666666">[varchar(255)]</text>
<polygon fill="none" stroke="black" points="43.2,-1075 43.2,-1105.8 443.2,-1105.8 443.2,-1075 43.2,-1075"/>
<text text-anchor="start" x="50.2" y="-1087.2" font-family="Arial" font-size="14.00">prevent_update_to </text>
<text text-anchor="start" x="170.85" y="-1087.2" font-family="Arial" font-size="14.00" fill="#666666">[timestamp(0) without time zone]</text>
<polygon fill="none" stroke="black" points="43.2,-1044.2 43.2,-1075 443.2,-1075 443.2,-1044.2 43.2,-1044.2"/>
<text text-anchor="start" x="50.2" y="-1056.4" font-family="Arial" font-size="14.00">status </text>
<text text-anchor="start" x="91.44" y="-1056.4" font-family="Arial" font-size="14.00" fill="#666666">[varchar(255)]</text>
<polygon fill="none" stroke="black" points="43.2,-1013.4 43.2,-1044.2 443.2,-1044.2 443.2,-1013.4 43.2,-1013.4"/>
<text text-anchor="start" x="50.2" y="-1025.6" font-family="Arial" font-size="14.00">order_test_codes </text>
<text text-anchor="start" x="162.27" y="-1025.6" font-family="Arial" font-size="14.00" fill="#666666">[json]</text>
<polygon fill="none" stroke="black" points="43.2,-982.6 43.2,-1013.4 443.2,-1013.4 443.2,-982.6 43.2,-982.6"/>
<text text-anchor="start" x="50.2" y="-994.8" font-family="Arial" font-size="14.00">cancel_test_codes </text>
<text text-anchor="start" x="170.05" y="-994.8" font-family="Arial" font-size="14.00" fill="#666666">[json]</text>
<polygon fill="none" stroke="black" points="43.2,-951.8 43.2,-982.6 443.2,-982.6 443.2,-951.8 43.2,-951.8"/>
<text text-anchor="start" x="50.2" y="-964" font-family="Arial" font-size="14.00">clone_order_id </text>
<text text-anchor="start" x="146.71" y="-964" font-family="Arial" font-size="14.00" fill="#666666">[varchar(50)]</text>
<polygon fill="none" stroke="black" points="43.2,-921 43.2,-951.8 443.2,-951.8 443.2,-921 43.2,-921"/>
<text text-anchor="start" x="50.2" y="-933.2" font-family="Arial" font-size="14.00">patient_info_last_updated_at </text>
<text text-anchor="start" x="233.91" y="-933.2" font-family="Arial" font-size="14.00" fill="#666666">[timestamp(0) without time zone]</text>
<polygon fill="none" stroke="black" points="43.2,-890.2 43.2,-921 443.2,-921 443.2,-890.2 43.2,-890.2"/>
<text text-anchor="start" x="50.2" y="-902.4" font-family="Arial" font-size="14.00">stat </text>
<text text-anchor="start" x="76.66" y="-902.4" font-family="Arial" font-size="14.00" fill="#666666">[boolean]</text>
</g>
<!-- public.order_result_services&#45;&gt;public.orders -->
<g id="edge1" class="edge">
<title>public.order_result_services:order_id&#45;&gt;public.orders:order_id</title>
<path fill="none" stroke="black" d="M305.95,-3022.15C131.18,-3013.51 303.71,-2778.8 317.24,-2591.2 325.12,-2481.99 553.7,-1614 444.2,-1614"/>
<polygon fill="black" stroke="black" points="305.91,-3022.15 315.8,-3026.89 311.24,-3022.28 315.57,-3022.38 315.57,-3022.38 315.57,-3022.38 311.24,-3022.28 316.02,-3017.89 305.91,-3022.15"/>
<text text-anchor="start" x="49.17" y="-3032.4" font-family="Arial" font-size="10.00">FOREIGN KEY (order_id) REFERENCES orders(order_id)</text>
</g>
<!-- public.test_results -->
<g id="node3" class="node">
<title>public.test_results</title>
<polygon fill="#efefef" stroke="none" points="547.24,-2476.4 547.24,-2512 919.17,-2512 919.17,-2476.4 547.24,-2476.4"/>
<polygon fill="none" stroke="black" points="547.24,-2476.4 547.24,-2512 919.17,-2512 919.17,-2476.4 547.24,-2476.4"/>
<text text-anchor="start" x="605.72" y="-2489.8" font-family="Arial Bold" font-size="18.00">public.test_results</text>
<text text-anchor="start" x="736.2" y="-2489.8" font-family="Arial" font-size="14.00">    </text>
<text text-anchor="start" x="767.32" y="-2489.8" font-family="Arial" font-size="14.00" fill="#666666">[BASE TABLE]</text>
<polygon fill="none" stroke="black" points="547.24,-2445.6 547.24,-2476.4 919.17,-2476.4 919.17,-2445.6 547.24,-2445.6"/>
<text text-anchor="start" x="554.24" y="-2457.8" font-family="Arial" font-size="14.00">id </text>
<text text-anchor="start" x="569.02" y="-2457.8" font-family="Arial" font-size="14.00" fill="#666666">[bigint]</text>
<polygon fill="none" stroke="black" points="547.24,-2414.8 547.24,-2445.6 919.17,-2445.6 919.17,-2414.8 547.24,-2414.8"/>
<text text-anchor="start" x="554.24" y="-2427" font-family="Arial" font-size="14.00">order_id </text>
<text text-anchor="start" x="609.49" y="-2427" font-family="Arial" font-size="14.00" fill="#666666">[varchar(50)]</text>
<polygon fill="none" stroke="black" points="547.24,-2384 547.24,-2414.8 919.17,-2414.8 919.17,-2384 547.24,-2384"/>
<text text-anchor="start" x="554.24" y="-2396.2" font-family="Arial" font-size="14.00">patient_id </text>
<text text-anchor="start" x="618.84" y="-2396.2" font-family="Arial" font-size="14.00" fill="#666666">[varchar(50)]</text>
<polygon fill="none" stroke="black" points="547.24,-2353.2 547.24,-2384 919.17,-2384 919.17,-2353.2 547.24,-2353.2"/>
<text text-anchor="start" x="554.24" y="-2365.4" font-family="Arial" font-size="14.00">test_code </text>
<text text-anchor="start" x="618.84" y="-2365.4" font-family="Arial" font-size="14.00" fill="#666666">[varchar(50)]</text>
<polygon fill="none" stroke="black" points="547.24,-2322.4 547.24,-2353.2 919.17,-2353.2 919.17,-2322.4 547.24,-2322.4"/>
<text text-anchor="start" x="554.24" y="-2334.6" font-family="Arial" font-size="14.00">sample_id </text>
<text text-anchor="start" x="621.94" y="-2334.6" font-family="Arial" font-size="14.00" fill="#666666">[varchar(50)]</text>
<polygon fill="none" stroke="black" points="547.24,-2291.6 547.24,-2322.4 919.17,-2322.4 919.17,-2291.6 547.24,-2291.6"/>
<text text-anchor="start" x="554.24" y="-2303.8" font-family="Arial" font-size="14.00">test_status </text>
<text text-anchor="start" x="625.83" y="-2303.8" font-family="Arial" font-size="14.00" fill="#666666">[varchar(255)]</text>
<polygon fill="none" stroke="black" points="547.24,-2260.8 547.24,-2291.6 919.17,-2291.6 919.17,-2260.8 547.24,-2260.8"/>
<text text-anchor="start" x="554.24" y="-2273" font-family="Arial" font-size="14.00">processing_status </text>
<text text-anchor="start" x="670.97" y="-2273" font-family="Arial" font-size="14.00" fill="#666666">[varchar(255)]</text>
<polygon fill="none" stroke="black" points="547.24,-2230 547.24,-2260.8 919.17,-2260.8 919.17,-2230 547.24,-2230"/>
<text text-anchor="start" x="554.24" y="-2242.2" font-family="Arial" font-size="14.00">device_code </text>
<text text-anchor="start" x="636.74" y="-2242.2" font-family="Arial" font-size="14.00" fill="#666666">[varchar(50)]</text>
<polygon fill="none" stroke="black" points="547.24,-2199.2 547.24,-2230 919.17,-2230 919.17,-2199.2 547.24,-2199.2"/>
<text text-anchor="start" x="554.24" y="-2211.4" font-family="Arial" font-size="14.00">device_name </text>
<text text-anchor="start" x="641.4" y="-2211.4" font-family="Arial" font-size="14.00" fill="#666666">[varchar(50)]</text>
<polygon fill="none" stroke="black" points="547.24,-2168.4 547.24,-2199.2 919.17,-2199.2 919.17,-2168.4 547.24,-2168.4"/>
<text text-anchor="start" x="554.24" y="-2180.6" font-family="Arial" font-size="14.00">lab_machine_test_code </text>
<text text-anchor="start" x="706.01" y="-2180.6" font-family="Arial" font-size="14.00" fill="#666666">[varchar(50)]</text>
<polygon fill="none" stroke="black" points="547.24,-2137.6 547.24,-2168.4 919.17,-2168.4 919.17,-2137.6 547.24,-2137.6"/>
<text text-anchor="start" x="554.24" y="-2149.8" font-family="Arial" font-size="14.00">version </text>
<text text-anchor="start" x="603.26" y="-2149.8" font-family="Arial" font-size="14.00" fill="#666666">[varchar(255)]</text>
<polygon fill="none" stroke="black" points="547.24,-2106.8 547.24,-2137.6 919.17,-2137.6 919.17,-2106.8 547.24,-2106.8"/>
<text text-anchor="start" x="554.24" y="-2119" font-family="Arial" font-size="14.00">created_at </text>
<text text-anchor="start" x="624.29" y="-2119" font-family="Arial" font-size="14.00" fill="#666666">[timestamp(0) without time zone]</text>
<polygon fill="none" stroke="black" points="547.24,-2076 547.24,-2106.8 919.17,-2106.8 919.17,-2076 547.24,-2076"/>
<text text-anchor="start" x="554.24" y="-2088.2" font-family="Arial" font-size="14.00">updated_at </text>
<text text-anchor="start" x="628.2" y="-2088.2" font-family="Arial" font-size="14.00" fill="#666666">[timestamp(0) without time zone]</text>
<polygon fill="none" stroke="black" points="547.24,-2045.2 547.24,-2076 919.17,-2076 919.17,-2045.2 547.24,-2045.2"/>
<text text-anchor="start" x="554.24" y="-2057.4" font-family="Arial" font-size="14.00">technical_remarks </text>
<text text-anchor="start" x="671.73" y="-2057.4" font-family="Arial" font-size="14.00" fill="#666666">[text]</text>
<polygon fill="none" stroke="black" points="547.24,-2014.4 547.24,-2045.2 919.17,-2045.2 919.17,-2014.4 547.24,-2014.4"/>
<text text-anchor="start" x="554.24" y="-2026.6" font-family="Arial" font-size="14.00">raw_test_value </text>
<text text-anchor="start" x="652.29" y="-2026.6" font-family="Arial" font-size="14.00" fill="#666666">[text]</text>
<polygon fill="none" stroke="black" points="547.24,-1983.6 547.24,-2014.4 919.17,-2014.4 919.17,-1983.6 547.24,-1983.6"/>
<text text-anchor="start" x="554.24" y="-1995.8" font-family="Arial" font-size="14.00">raw_unit </text>
<text text-anchor="start" x="611.04" y="-1995.8" font-family="Arial" font-size="14.00" fill="#666666">[varchar(255)]</text>
<polygon fill="none" stroke="black" points="547.24,-1952.8 547.24,-1983.6 919.17,-1983.6 919.17,-1952.8 547.24,-1952.8"/>
<text text-anchor="start" x="554.24" y="-1965" font-family="Arial" font-size="14.00">raw_medical_remarks </text>
<text text-anchor="start" x="695.06" y="-1965" font-family="Arial" font-size="14.00" fill="#666666">[text]</text>
<polygon fill="none" stroke="black" points="547.24,-1922 547.24,-1952.8 919.17,-1952.8 919.17,-1922 547.24,-1922"/>
<text text-anchor="start" x="554.24" y="-1934.2" font-family="Arial" font-size="14.00">raw_abnormal </text>
<text text-anchor="start" x="646.84" y="-1934.2" font-family="Arial" font-size="14.00" fill="#666666">[varchar(255)]</text>
<polygon fill="none" stroke="black" points="547.24,-1891.2 547.24,-1922 919.17,-1922 919.17,-1891.2 547.24,-1891.2"/>
<text text-anchor="start" x="554.24" y="-1903.4" font-family="Arial" font-size="14.00">started_capturing_at </text>
<text text-anchor="start" x="685.77" y="-1903.4" font-family="Arial" font-size="14.00" fill="#666666">[varchar(255)]</text>
<polygon fill="none" stroke="black" points="547.24,-1860.4 547.24,-1891.2 919.17,-1891.2 919.17,-1860.4 547.24,-1860.4"/>
<text text-anchor="start" x="554.24" y="-1872.6" font-family="Arial" font-size="14.00">raw_extra </text>
<text text-anchor="start" x="619.6" y="-1872.6" font-family="Arial" font-size="14.00" fill="#666666">[json]</text>
<polygon fill="none" stroke="black" points="547.24,-1829.6 547.24,-1860.4 919.17,-1860.4 919.17,-1829.6 547.24,-1829.6"/>
<text text-anchor="start" x="554.24" y="-1841.8" font-family="Arial" font-size="14.00">final_test_value </text>
<text text-anchor="start" x="655.42" y="-1841.8" font-family="Arial" font-size="14.00" fill="#666666">[varchar(255)]</text>
<polygon fill="none" stroke="black" points="547.24,-1798.8 547.24,-1829.6 919.17,-1829.6 919.17,-1798.8 547.24,-1798.8"/>
<text text-anchor="start" x="554.24" y="-1811" font-family="Arial" font-size="14.00">final_medical_remarks </text>
<text text-anchor="start" x="698.18" y="-1811" font-family="Arial" font-size="14.00" fill="#666666">[text]</text>
<polygon fill="none" stroke="black" points="547.24,-1768 547.24,-1798.8 919.17,-1798.8 919.17,-1768 547.24,-1768"/>
<text text-anchor="start" x="554.24" y="-1780.2" font-family="Arial" font-size="14.00">final_is_abnormal </text>
<text text-anchor="start" x="667.86" y="-1780.2" font-family="Arial" font-size="14.00" fill="#666666">[boolean]</text>
<polygon fill="none" stroke="black" points="547.24,-1737.2 547.24,-1768 919.17,-1768 919.17,-1737.2 547.24,-1737.2"/>
<text text-anchor="start" x="554.24" y="-1749.4" font-family="Arial" font-size="14.00">raw_reference_range </text>
<text text-anchor="start" x="691.21" y="-1749.4" font-family="Arial" font-size="14.00" fill="#666666">[json]</text>
<polygon fill="none" stroke="black" points="547.24,-1706.4 547.24,-1737.2 919.17,-1737.2 919.17,-1706.4 547.24,-1706.4"/>
<text text-anchor="start" x="554.24" y="-1718.6" font-family="Arial" font-size="14.00">sample_collected_by </text>
<text text-anchor="start" x="688.87" y="-1718.6" font-family="Arial" font-size="14.00" fill="#666666">[varchar(150)]</text>
<polygon fill="none" stroke="black" points="547.24,-1675.6 547.24,-1706.4 919.17,-1706.4 919.17,-1675.6 547.24,-1675.6"/>
<text text-anchor="start" x="554.24" y="-1687.8" font-family="Arial" font-size="14.00">sample_collected_location </text>
<text text-anchor="start" x="722.34" y="-1687.8" font-family="Arial" font-size="14.00" fill="#666666">[varchar(150)]</text>
<polygon fill="none" stroke="black" points="547.24,-1644.8 547.24,-1675.6 919.17,-1675.6 919.17,-1644.8 547.24,-1644.8"/>
<text text-anchor="start" x="554.24" y="-1657" font-family="Arial" font-size="14.00">sample_collected_time </text>
<text text-anchor="start" x="700.53" y="-1657" font-family="Arial" font-size="14.00" fill="#666666">[timestamp(0) without time zone]</text>
<polygon fill="none" stroke="black" points="547.24,-1614 547.24,-1644.8 919.17,-1644.8 919.17,-1614 547.24,-1614"/>
<text text-anchor="start" x="554.24" y="-1626.2" font-family="Arial" font-size="14.00">sample_completed_time </text>
<text text-anchor="start" x="709.87" y="-1626.2" font-family="Arial" font-size="14.00" fill="#666666">[timestamp(0) without time zone]</text>
<polygon fill="none" stroke="black" points="547.24,-1583.2 547.24,-1614 919.17,-1614 919.17,-1583.2 547.24,-1583.2"/>
<text text-anchor="start" x="554.24" y="-1595.4" font-family="Arial" font-size="14.00">sample_rejected_time </text>
<text text-anchor="start" x="695.09" y="-1595.4" font-family="Arial" font-size="14.00" fill="#666666">[timestamp(0) without time zone]</text>
<polygon fill="none" stroke="black" points="547.24,-1552.4 547.24,-1583.2 919.17,-1583.2 919.17,-1552.4 547.24,-1552.4"/>
<text text-anchor="start" x="554.24" y="-1564.6" font-family="Arial" font-size="14.00">result_captured_at </text>
<text text-anchor="start" x="674.09" y="-1564.6" font-family="Arial" font-size="14.00" fill="#666666">[timestamp(0) without time zone]</text>
<polygon fill="none" stroke="black" points="547.24,-1521.6 547.24,-1552.4 919.17,-1552.4 919.17,-1521.6 547.24,-1521.6"/>
<text text-anchor="start" x="554.24" y="-1533.8" font-family="Arial" font-size="14.00">test_name_en </text>
<text text-anchor="start" x="646.86" y="-1533.8" font-family="Arial" font-size="14.00" fill="#666666">[text]</text>
<polygon fill="none" stroke="black" points="547.24,-1490.8 547.24,-1521.6 919.17,-1521.6 919.17,-1490.8 547.24,-1490.8"/>
<text text-anchor="start" x="554.24" y="-1503" font-family="Arial" font-size="14.00">test_name_vi </text>
<text text-anchor="start" x="641.4" y="-1503" font-family="Arial" font-size="14.00" fill="#666666">[text]</text>
<polygon fill="none" stroke="black" points="547.24,-1460 547.24,-1490.8 919.17,-1490.8 919.17,-1460 547.24,-1460"/>
<text text-anchor="start" x="554.24" y="-1472.2" font-family="Arial" font-size="14.00">billing_name </text>
<text text-anchor="start" x="636.73" y="-1472.2" font-family="Arial" font-size="14.00" fill="#666666">[text]</text>
<polygon fill="none" stroke="black" points="547.24,-1429.2 547.24,-1460 919.17,-1460 919.17,-1429.2 547.24,-1429.2"/>
<text text-anchor="start" x="554.24" y="-1441.4" font-family="Arial" font-size="14.00">method_name </text>
<text text-anchor="start" x="647.63" y="-1441.4" font-family="Arial" font-size="14.00" fill="#666666">[text]</text>
<polygon fill="none" stroke="black" points="547.24,-1398.4 547.24,-1429.2 919.17,-1429.2 919.17,-1398.4 547.24,-1398.4"/>
<text text-anchor="start" x="554.24" y="-1410.6" font-family="Arial" font-size="14.00">sample_name </text>
<text text-anchor="start" x="646.06" y="-1410.6" font-family="Arial" font-size="14.00" fill="#666666">[varchar(50)]</text>
<polygon fill="none" stroke="black" points="547.24,-1367.6 547.24,-1398.4 919.17,-1398.4 919.17,-1367.6 547.24,-1367.6"/>
<text text-anchor="start" x="554.24" y="-1379.8" font-family="Arial" font-size="14.00">conversion_unit </text>
<text text-anchor="start" x="656.19" y="-1379.8" font-family="Arial" font-size="14.00" fill="#666666">[varchar(50)]</text>
<polygon fill="none" stroke="black" points="547.24,-1336.8 547.24,-1367.6 919.17,-1367.6 919.17,-1336.8 547.24,-1336.8"/>
<text text-anchor="start" x="554.24" y="-1349" font-family="Arial" font-size="14.00">interpretation_note </text>
<text text-anchor="start" x="674.88" y="-1349" font-family="Arial" font-size="14.00" fill="#666666">[text]</text>
<polygon fill="none" stroke="black" points="547.24,-1306 547.24,-1336.8 919.17,-1336.8 919.17,-1306 547.24,-1306"/>
<text text-anchor="start" x="554.24" y="-1318.2" font-family="Arial" font-size="14.00">section_order_position </text>
<text text-anchor="start" x="699" y="-1318.2" font-family="Arial" font-size="14.00" fill="#666666">[integer]</text>
<polygon fill="none" stroke="black" points="547.24,-1275.2 547.24,-1306 919.17,-1306 919.17,-1275.2 547.24,-1275.2"/>
<text text-anchor="start" x="554.24" y="-1287.4" font-family="Arial" font-size="14.00">sub_section_order_position </text>
<text text-anchor="start" x="729.35" y="-1287.4" font-family="Arial" font-size="14.00" fill="#666666">[integer]</text>
<polygon fill="none" stroke="black" points="547.24,-1244.4 547.24,-1275.2 919.17,-1275.2 919.17,-1244.4 547.24,-1244.4"/>
<text text-anchor="start" x="554.24" y="-1256.6" font-family="Arial" font-size="14.00">primary_unit </text>
<text text-anchor="start" x="635.15" y="-1256.6" font-family="Arial" font-size="14.00" fill="#666666">[varchar(50)]</text>
<polygon fill="none" stroke="black" points="547.24,-1213.6 547.24,-1244.4 919.17,-1244.4 919.17,-1213.6 547.24,-1213.6"/>
<text text-anchor="start" x="554.24" y="-1225.8" font-family="Arial" font-size="14.00">test_code_section </text>
<text text-anchor="start" x="670.98" y="-1225.8" font-family="Arial" font-size="14.00" fill="#666666">[varchar(100)]</text>
<polygon fill="none" stroke="black" points="547.24,-1182.8 547.24,-1213.6 919.17,-1213.6 919.17,-1182.8 547.24,-1182.8"/>
<text text-anchor="start" x="554.24" y="-1195" font-family="Arial" font-size="14.00">final_ref_range_type </text>
<text text-anchor="start" x="685.77" y="-1195" font-family="Arial" font-size="14.00" fill="#666666">[varchar(50)]</text>
<polygon fill="none" stroke="black" points="547.24,-1152 547.24,-1182.8 919.17,-1182.8 919.17,-1152 547.24,-1152"/>
<text text-anchor="start" x="554.24" y="-1164.2" font-family="Arial" font-size="14.00">final_auto_authorized </text>
<text text-anchor="start" x="692.01" y="-1164.2" font-family="Arial" font-size="14.00" fill="#666666">[boolean]</text>
<polygon fill="none" stroke="black" points="547.24,-1121.2 547.24,-1152 919.17,-1152 919.17,-1121.2 547.24,-1121.2"/>
<text text-anchor="start" x="554.24" y="-1133.4" font-family="Arial" font-size="14.00">device_id </text>
<text text-anchor="start" x="617.28" y="-1133.4" font-family="Arial" font-size="14.00" fill="#666666">[varchar(50)]</text>
<polygon fill="none" stroke="black" points="547.24,-1090.4 547.24,-1121.2 919.17,-1121.2 919.17,-1090.4 547.24,-1090.4"/>
<text text-anchor="start" x="554.24" y="-1102.6" font-family="Arial" font-size="14.00">device_search_code </text>
<text text-anchor="start" x="686.55" y="-1102.6" font-family="Arial" font-size="14.00" fill="#666666">[varchar(20)]</text>
<polygon fill="none" stroke="black" points="547.24,-1059.6 547.24,-1090.4 919.17,-1090.4 919.17,-1059.6 547.24,-1059.6"/>
<text text-anchor="start" x="554.24" y="-1071.8" font-family="Arial" font-size="14.00">formula </text>
<text text-anchor="start" x="604.81" y="-1071.8" font-family="Arial" font-size="14.00" fill="#666666">[text]</text>
<polygon fill="none" stroke="black" points="547.24,-1028.8 547.24,-1059.6 919.17,-1059.6 919.17,-1028.8 547.24,-1028.8"/>
<text text-anchor="start" x="554.24" y="-1041" font-family="Arial" font-size="14.00">formula_params </text>
<text text-anchor="start" x="659.28" y="-1041" font-family="Arial" font-size="14.00" fill="#666666">[json]</text>
<polygon fill="none" stroke="black" points="547.24,-998 547.24,-1028.8 919.17,-1028.8 919.17,-998 547.24,-998"/>
<text text-anchor="start" x="554.24" y="-1010.2" font-family="Arial" font-size="14.00">recollect_reason </text>
<text text-anchor="start" x="660.85" y="-1010.2" font-family="Arial" font-size="14.00" fill="#666666">[text]</text>
<polygon fill="none" stroke="black" points="547.24,-967.2 547.24,-998 919.17,-998 919.17,-967.2 547.24,-967.2"/>
<text text-anchor="start" x="554.24" y="-979.4" font-family="Arial" font-size="14.00">rerun_reason </text>
<text text-anchor="start" x="641.4" y="-979.4" font-family="Arial" font-size="14.00" fill="#666666">[text]</text>
<polygon fill="none" stroke="black" points="547.24,-936.4 547.24,-967.2 919.17,-967.2 919.17,-936.4 547.24,-936.4"/>
<text text-anchor="start" x="554.24" y="-948.6" font-family="Arial" font-size="14.00">retest_flag </text>
<text text-anchor="start" x="623.5" y="-948.6" font-family="Arial" font-size="14.00" fill="#666666">[boolean]</text>
<polygon fill="none" stroke="black" points="547.24,-905.6 547.24,-936.4 919.17,-936.4 919.17,-905.6 547.24,-905.6"/>
<text text-anchor="start" x="554.24" y="-917.8" font-family="Arial" font-size="14.00">final_conversion_data </text>
<text text-anchor="start" x="694.33" y="-917.8" font-family="Arial" font-size="14.00" fill="#666666">[json]</text>
<polygon fill="none" stroke="black" points="547.24,-874.8 547.24,-905.6 919.17,-905.6 919.17,-874.8 547.24,-874.8"/>
<text text-anchor="start" x="554.24" y="-887" font-family="Arial" font-size="14.00">final_reference_range </text>
<text text-anchor="start" x="694.33" y="-887" font-family="Arial" font-size="14.00" fill="#666666">[text]</text>
<polygon fill="none" stroke="black" points="547.24,-844 547.24,-874.8 919.17,-874.8 919.17,-844 547.24,-844"/>
<text text-anchor="start" x="554.24" y="-856.2" font-family="Arial" font-size="14.00">sample_transfer_time </text>
<text text-anchor="start" x="692.74" y="-856.2" font-family="Arial" font-size="14.00" fill="#666666">[timestamp(0) without time zone]</text>
<polygon fill="none" stroke="black" points="547.24,-813.2 547.24,-844 919.17,-844 919.17,-813.2 547.24,-813.2"/>
<text text-anchor="start" x="554.24" y="-825.4" font-family="Arial" font-size="14.00">sample_transfer_by </text>
<text text-anchor="start" x="681.08" y="-825.4" font-family="Arial" font-size="14.00" fill="#666666">[varchar(255)]</text>
<polygon fill="none" stroke="black" points="547.24,-782.4 547.24,-813.2 919.17,-813.2 919.17,-782.4 547.24,-782.4"/>
<text text-anchor="start" x="554.24" y="-794.6" font-family="Arial" font-size="14.00">sample_received_time </text>
<text text-anchor="start" x="698.2" y="-794.6" font-family="Arial" font-size="14.00" fill="#666666">[timestamp(0) without time zone]</text>
<polygon fill="none" stroke="black" points="547.24,-751.6 547.24,-782.4 919.17,-782.4 919.17,-751.6 547.24,-751.6"/>
<text text-anchor="start" x="554.24" y="-763.8" font-family="Arial" font-size="14.00">sample_received_by </text>
<text text-anchor="start" x="686.53" y="-763.8" font-family="Arial" font-size="14.00" fill="#666666">[varchar(255)]</text>
<polygon fill="none" stroke="black" points="547.24,-720.8 547.24,-751.6 919.17,-751.6 919.17,-720.8 547.24,-720.8"/>
<text text-anchor="start" x="554.24" y="-733" font-family="Arial" font-size="14.00">sample_received_location </text>
<text text-anchor="start" x="720" y="-733" font-family="Arial" font-size="14.00" fill="#666666">[varchar(255)]</text>
<polygon fill="none" stroke="black" points="547.24,-690 547.24,-720.8 919.17,-720.8 919.17,-690 547.24,-690"/>
<text text-anchor="start" x="554.24" y="-702.2" font-family="Arial" font-size="14.00">sample_reject_by </text>
<text text-anchor="start" x="667.85" y="-702.2" font-family="Arial" font-size="14.00" fill="#666666">[varchar(255)]</text>
<polygon fill="none" stroke="black" points="547.24,-659.2 547.24,-690 919.17,-690 919.17,-659.2 547.24,-659.2"/>
<text text-anchor="start" x="554.24" y="-671.4" font-family="Arial" font-size="14.00">result_approved_at </text>
<text text-anchor="start" x="677.99" y="-671.4" font-family="Arial" font-size="14.00" fill="#666666">[timestamp(0) without time zone]</text>
<polygon fill="none" stroke="black" points="547.24,-628.4 547.24,-659.2 919.17,-659.2 919.17,-628.4 547.24,-628.4"/>
<text text-anchor="start" x="554.24" y="-640.6" font-family="Arial" font-size="14.00">result_captured_by </text>
<text text-anchor="start" x="677.2" y="-640.6" font-family="Arial" font-size="14.00" fill="#666666">[varchar(255)]</text>
<polygon fill="none" stroke="black" points="547.24,-597.6 547.24,-628.4 919.17,-628.4 919.17,-597.6 547.24,-597.6"/>
<text text-anchor="start" x="554.24" y="-609.8" font-family="Arial" font-size="14.00">result_approved_by </text>
<text text-anchor="start" x="681.1" y="-609.8" font-family="Arial" font-size="14.00" fill="#666666">[varchar(255)]</text>
<polygon fill="none" stroke="black" points="547.24,-566.8 547.24,-597.6 919.17,-597.6 919.17,-566.8 547.24,-566.8"/>
<text text-anchor="start" x="554.24" y="-579" font-family="Arial" font-size="14.00">interpretation_note_vi </text>
<text text-anchor="start" x="692.77" y="-579" font-family="Arial" font-size="14.00" fill="#666666">[text]</text>
<polygon fill="none" stroke="black" points="547.24,-536 547.24,-566.8 919.17,-566.8 919.17,-536 547.24,-536"/>
<text text-anchor="start" x="554.24" y="-548.2" font-family="Arial" font-size="14.00">non_reportable </text>
<text text-anchor="start" x="652.31" y="-548.2" font-family="Arial" font-size="14.00" fill="#666666">[varchar(10)]</text>
<polygon fill="none" stroke="black" points="547.24,-505.2 547.24,-536 919.17,-536 919.17,-505.2 547.24,-505.2"/>
<text text-anchor="start" x="554.24" y="-517.4" font-family="Arial" font-size="14.00">generate_draft_pdf </text>
<text text-anchor="start" x="676.44" y="-517.4" font-family="Arial" font-size="14.00" fill="#666666">[boolean]</text>
<polygon fill="none" stroke="black" points="547.24,-474.4 547.24,-505.2 919.17,-505.2 919.17,-474.4 547.24,-474.4"/>
<text text-anchor="start" x="554.24" y="-486.6" font-family="Arial" font-size="14.00">intra_section_sq </text>
<text text-anchor="start" x="660.08" y="-486.6" font-family="Arial" font-size="14.00" fill="#666666">[varchar(255)]</text>
<polygon fill="none" stroke="black" points="547.24,-443.6 547.24,-474.4 919.17,-474.4 919.17,-443.6 547.24,-443.6"/>
<text text-anchor="start" x="554.24" y="-455.8" font-family="Arial" font-size="14.00">group_component </text>
<text text-anchor="start" x="670.99" y="-455.8" font-family="Arial" font-size="14.00" fill="#666666">[text]</text>
<polygon fill="none" stroke="black" points="547.24,-412.8 547.24,-443.6 919.17,-443.6 919.17,-412.8 547.24,-412.8"/>
<text text-anchor="start" x="554.24" y="-425" font-family="Arial" font-size="14.00">laboratory </text>
<text text-anchor="start" x="620.38" y="-425" font-family="Arial" font-size="14.00" fill="#666666">[varchar(255)]</text>
<polygon fill="none" stroke="black" points="547.24,-382 547.24,-412.8 919.17,-412.8 919.17,-382 547.24,-382"/>
<text text-anchor="start" x="554.24" y="-394.2" font-family="Arial" font-size="14.00">sample_completed_by </text>
<text text-anchor="start" x="698.21" y="-394.2" font-family="Arial" font-size="14.00" fill="#666666">[varchar(150)]</text>
<polygon fill="none" stroke="black" points="547.24,-351.2 547.24,-382 919.17,-382 919.17,-351.2 547.24,-351.2"/>
<text text-anchor="start" x="554.24" y="-363.4" font-family="Arial" font-size="14.00">recollect_test_result_id </text>
<text text-anchor="start" x="701.31" y="-363.4" font-family="Arial" font-size="14.00" fill="#666666">[bigint]</text>
<polygon fill="none" stroke="black" points="547.24,-320.4 547.24,-351.2 919.17,-351.2 919.17,-320.4 547.24,-320.4"/>
<text text-anchor="start" x="554.24" y="-332.6" font-family="Arial" font-size="14.00">is_rerun </text>
<text text-anchor="start" x="608.71" y="-332.6" font-family="Arial" font-size="14.00" fill="#666666">[boolean]</text>
<polygon fill="none" stroke="black" points="547.24,-289.6 547.24,-320.4 919.17,-320.4 919.17,-289.6 547.24,-289.6"/>
<text text-anchor="start" x="554.24" y="-301.8" font-family="Arial" font-size="14.00">nature_of_abnormal_result </text>
<text text-anchor="start" x="725.46" y="-301.8" font-family="Arial" font-size="14.00" fill="#666666">[varchar(255)]</text>
<polygon fill="none" stroke="black" points="547.24,-258.8 547.24,-289.6 919.17,-289.6 919.17,-258.8 547.24,-258.8"/>
<text text-anchor="start" x="554.24" y="-271" font-family="Arial" font-size="14.00">is_recall </text>
<text text-anchor="start" x="609.48" y="-271" font-family="Arial" font-size="14.00" fill="#666666">[boolean]</text>
<polygon fill="none" stroke="black" points="547.24,-228 547.24,-258.8 919.17,-258.8 919.17,-228 547.24,-228"/>
<text text-anchor="start" x="554.24" y="-240.2" font-family="Arial" font-size="14.00">reviewing_reason </text>
<text text-anchor="start" x="667.86" y="-240.2" font-family="Arial" font-size="14.00" fill="#666666">[text]</text>
<polygon fill="none" stroke="black" points="547.24,-197.2 547.24,-228 919.17,-228 919.17,-197.2 547.24,-197.2"/>
<text text-anchor="start" x="554.24" y="-209.4" font-family="Arial" font-size="14.00">recheck_reason </text>
<text text-anchor="start" x="657.74" y="-209.4" font-family="Arial" font-size="14.00" fill="#666666">[text]</text>
<polygon fill="none" stroke="black" points="547.24,-166.4 547.24,-197.2 919.17,-197.2 919.17,-166.4 547.24,-166.4"/>
<text text-anchor="start" x="554.24" y="-178.6" font-family="Arial" font-size="14.00">is_poct </text>
<text text-anchor="start" x="602.49" y="-178.6" font-family="Arial" font-size="14.00" fill="#666666">[boolean]</text>
<polygon fill="none" stroke="black" points="547.24,-135.6 547.24,-166.4 919.17,-166.4 919.17,-135.6 547.24,-135.6"/>
<text text-anchor="start" x="554.24" y="-147.8" font-family="Arial" font-size="14.00">sample_canceled_by </text>
<text text-anchor="start" x="689.66" y="-147.8" font-family="Arial" font-size="14.00" fill="#666666">[varchar(255)]</text>
<polygon fill="none" stroke="black" points="547.24,-104.8 547.24,-135.6 919.17,-135.6 919.17,-104.8 547.24,-104.8"/>
<text text-anchor="start" x="554.24" y="-117" font-family="Arial" font-size="14.00">sample_canceled_time </text>
<text text-anchor="start" x="701.32" y="-117" font-family="Arial" font-size="14.00" fill="#666666">[timestamp(0) without time zone]</text>
<polygon fill="none" stroke="black" points="547.24,-74 547.24,-104.8 919.17,-104.8 919.17,-74 547.24,-74"/>
<text text-anchor="start" x="554.24" y="-86.2" font-family="Arial" font-size="14.00">external_sample_id </text>
<text text-anchor="start" x="679.53" y="-86.2" font-family="Arial" font-size="14.00" fill="#666666">[varchar(50)]</text>
<polygon fill="none" stroke="black" points="547.24,-43.2 547.24,-74 919.17,-74 919.17,-43.2 547.24,-43.2"/>
<text text-anchor="start" x="554.24" y="-55.4" font-family="Arial" font-size="14.00">previous_data </text>
<text text-anchor="start" x="646.08" y="-55.4" font-family="Arial" font-size="14.00" fill="#666666">[json]</text>
</g>
<!-- public.order_result_services&#45;&gt;public.test_results -->
<g id="edge2" class="edge">
<title>public.order_result_services:test_result_id&#45;&gt;public.test_results:id</title>
<path fill="none" stroke="black" d="M670.3,-2991.31C835.22,-2981.62 762.11,-2732.08 659.16,-2591.2 628.33,-2549.01 578.24,-2597.27 547.24,-2555.2 522.4,-2521.5 504.37,-2461 546.24,-2461"/>
<polygon fill="black" stroke="black" points="670.49,-2991.3 660.37,-2987.09 665.16,-2991.46 660.83,-2991.58 660.83,-2991.58 660.83,-2991.58 665.16,-2991.46 660.63,-2996.09 670.49,-2991.3"/>
<text text-anchor="start" x="667.16" y="-3001.6" font-family="Arial" font-size="10.00">FOREIGN KEY (test_result_id) REFERENCES test_results(id)</text>
</g>
</g>
</svg>
