<?xml version="1.0" encoding="UTF-8" standalone="no"?>
<!DOCTYPE svg PUBLIC "-//W3C//DTD SVG 1.1//EN"
 "http://www.w3.org/Graphics/SVG/1.1/DTD/svg11.dtd">
<!-- Generated by graphviz version 12.1.2 (20240928.0832)
 -->
<!-- Title: public.disabled_tat_alerts Pages: 1 -->
<svg width="423pt" height="321pt"
 viewBox="0.00 0.00 423.34 320.80" xmlns="http://www.w3.org/2000/svg" xmlns:xlink="http://www.w3.org/1999/xlink">
<g id="graph0" class="graph" transform="scale(1 1) rotate(0) translate(4 316.8)">
<title>public.disabled_tat_alerts</title>
<polygon fill="white" stroke="none" points="-4,4 -4,-316.8 419.34,-316.8 419.34,4 -4,4"/>
<!-- public.disabled_tat_alerts -->
<g id="node1" class="node">
<title>public.disabled_tat_alerts</title>
<polygon fill="#efefef" stroke="none" points="46.2,-231 46.2,-266.6 369.14,-266.6 369.14,-231 46.2,-231"/>
<polygon fill="none" stroke="black" points="46.2,-231 46.2,-266.6 369.14,-266.6 369.14,-231 46.2,-231"/>
<text text-anchor="start" x="53.2" y="-244.4" font-family="Arial Bold" font-size="18.00">public.disabled_tat_alerts</text>
<text text-anchor="start" x="237.65" y="-244.4" font-family="Arial" font-size="14.00">    </text>
<text text-anchor="start" x="268.76" y="-244.4" font-family="Arial" font-size="14.00" fill="#666666">[BASE TABLE]</text>
<polygon fill="none" stroke="black" points="46.2,-200.2 46.2,-231 369.14,-231 369.14,-200.2 46.2,-200.2"/>
<text text-anchor="start" x="53.2" y="-212.4" font-family="Arial" font-size="14.00">id </text>
<text text-anchor="start" x="67.99" y="-212.4" font-family="Arial" font-size="14.00" fill="#666666">[bigint]</text>
<polygon fill="none" stroke="black" points="46.2,-169.4 46.2,-200.2 369.14,-200.2 369.14,-169.4 46.2,-169.4"/>
<text text-anchor="start" x="53.2" y="-181.6" font-family="Arial" font-size="14.00">order_id </text>
<text text-anchor="start" x="108.45" y="-181.6" font-family="Arial" font-size="14.00" fill="#666666">[varchar(50)]</text>
<polygon fill="none" stroke="black" points="46.2,-138.6 46.2,-169.4 369.14,-169.4 369.14,-138.6 46.2,-138.6"/>
<text text-anchor="start" x="53.2" y="-150.8" font-family="Arial" font-size="14.00">disabled_by </text>
<text text-anchor="start" x="131.81" y="-150.8" font-family="Arial" font-size="14.00" fill="#666666">[varchar(255)]</text>
<polygon fill="none" stroke="black" points="46.2,-107.8 46.2,-138.6 369.14,-138.6 369.14,-107.8 46.2,-107.8"/>
<text text-anchor="start" x="53.2" y="-120" font-family="Arial" font-size="14.00">disabled_at </text>
<text text-anchor="start" x="128.7" y="-120" font-family="Arial" font-size="14.00" fill="#666666">[timestamp(0) without time zone]</text>
<polygon fill="none" stroke="black" points="46.2,-77 46.2,-107.8 369.14,-107.8 369.14,-77 46.2,-77"/>
<text text-anchor="start" x="53.2" y="-89.2" font-family="Arial" font-size="14.00">created_at </text>
<text text-anchor="start" x="123.25" y="-89.2" font-family="Arial" font-size="14.00" fill="#666666">[timestamp(0) without time zone]</text>
<polygon fill="none" stroke="black" points="46.2,-46.2 46.2,-77 369.14,-77 369.14,-46.2 46.2,-46.2"/>
<text text-anchor="start" x="53.2" y="-58.4" font-family="Arial" font-size="14.00">updated_at </text>
<text text-anchor="start" x="127.16" y="-58.4" font-family="Arial" font-size="14.00" fill="#666666">[timestamp(0) without time zone]</text>
<polygon fill="none" stroke="black" stroke-width="3" points="44.7,-44.7 44.7,-268.1 370.64,-268.1 370.64,-44.7 44.7,-44.7"/>
</g>
</g>
</svg>
