<?xml version="1.0" encoding="UTF-8" standalone="no"?>
<!DOCTYPE svg PUBLIC "-//W3C//DTD SVG 1.1//EN"
 "http://www.w3.org/Graphics/SVG/1.1/DTD/svg11.dtd">
<!-- Generated by graphviz version 12.1.2 (20240928.0832)
 -->
<!-- Title: public.order_samples Pages: 1 -->
<svg width="523pt" height="1306pt"
 viewBox="0.00 0.00 522.93 1306.40" xmlns="http://www.w3.org/2000/svg" xmlns:xlink="http://www.w3.org/1999/xlink">
<g id="graph0" class="graph" transform="scale(1 1) rotate(0) translate(4 1302.4)">
<title>public.order_samples</title>
<polygon fill="white" stroke="none" points="-4,4 -4,-1302.4 518.93,-1302.4 518.93,4 -4,4"/>
<!-- public.order_samples -->
<g id="node1" class="node">
<title>public.order_samples</title>
<polygon fill="#efefef" stroke="none" points="46.2,-1216.6 46.2,-1252.2 468.73,-1252.2 468.73,-1216.6 46.2,-1216.6"/>
<polygon fill="none" stroke="black" points="46.2,-1216.6 46.2,-1252.2 468.73,-1252.2 468.73,-1216.6 46.2,-1216.6"/>
<text text-anchor="start" x="117.99" y="-1230" font-family="Arial Bold" font-size="18.00">public.order_samples</text>
<text text-anchor="start" x="272.45" y="-1230" font-family="Arial" font-size="14.00">    </text>
<text text-anchor="start" x="303.57" y="-1230" font-family="Arial" font-size="14.00" fill="#666666">[BASE TABLE]</text>
<polygon fill="none" stroke="black" points="46.2,-1185.8 46.2,-1216.6 468.73,-1216.6 468.73,-1185.8 46.2,-1185.8"/>
<text text-anchor="start" x="53.2" y="-1198" font-family="Arial" font-size="14.00">order_id </text>
<text text-anchor="start" x="108.45" y="-1198" font-family="Arial" font-size="14.00" fill="#666666">[varchar(50)]</text>
<polygon fill="none" stroke="black" points="46.2,-1155 46.2,-1185.8 468.73,-1185.8 468.73,-1155 46.2,-1155"/>
<text text-anchor="start" x="53.2" y="-1167.2" font-family="Arial" font-size="14.00">sample_id </text>
<text text-anchor="start" x="120.9" y="-1167.2" font-family="Arial" font-size="14.00" fill="#666666">[varchar(50)]</text>
<polygon fill="none" stroke="black" points="46.2,-1124.2 46.2,-1155 468.73,-1155 468.73,-1124.2 46.2,-1124.2"/>
<text text-anchor="start" x="53.2" y="-1136.4" font-family="Arial" font-size="14.00">created_at </text>
<text text-anchor="start" x="123.25" y="-1136.4" font-family="Arial" font-size="14.00" fill="#666666">[timestamp(0) without time zone]</text>
<polygon fill="none" stroke="black" points="46.2,-1093.4 46.2,-1124.2 468.73,-1124.2 468.73,-1093.4 46.2,-1093.4"/>
<text text-anchor="start" x="53.2" y="-1105.6" font-family="Arial" font-size="14.00">updated_at </text>
<text text-anchor="start" x="127.16" y="-1105.6" font-family="Arial" font-size="14.00" fill="#666666">[timestamp(0) without time zone]</text>
<polygon fill="none" stroke="black" points="46.2,-1062.6 46.2,-1093.4 468.73,-1093.4 468.73,-1062.6 46.2,-1062.6"/>
<text text-anchor="start" x="53.2" y="-1074.8" font-family="Arial" font-size="14.00">sample_status </text>
<text text-anchor="start" x="147.36" y="-1074.8" font-family="Arial" font-size="14.00" fill="#666666">[varchar(100)]</text>
<polygon fill="none" stroke="black" points="46.2,-1031.8 46.2,-1062.6 468.73,-1062.6 468.73,-1031.8 46.2,-1031.8"/>
<text text-anchor="start" x="53.2" y="-1044" font-family="Arial" font-size="14.00">sample_collected_by </text>
<text text-anchor="start" x="187.83" y="-1044" font-family="Arial" font-size="14.00" fill="#666666">[varchar(100)]</text>
<polygon fill="none" stroke="black" points="46.2,-1001 46.2,-1031.8 468.73,-1031.8 468.73,-1001 46.2,-1001"/>
<text text-anchor="start" x="53.2" y="-1013.2" font-family="Arial" font-size="14.00">sample_collected_time </text>
<text text-anchor="start" x="199.5" y="-1013.2" font-family="Arial" font-size="14.00" fill="#666666">[timestamp(6) without time zone]</text>
<polygon fill="none" stroke="black" points="46.2,-970.2 46.2,-1001 468.73,-1001 468.73,-970.2 46.2,-970.2"/>
<text text-anchor="start" x="53.2" y="-982.4" font-family="Arial" font-size="14.00">sample_received_by </text>
<text text-anchor="start" x="185.5" y="-982.4" font-family="Arial" font-size="14.00" fill="#666666">[varchar(100)]</text>
<polygon fill="none" stroke="black" points="46.2,-939.4 46.2,-970.2 468.73,-970.2 468.73,-939.4 46.2,-939.4"/>
<text text-anchor="start" x="53.2" y="-951.6" font-family="Arial" font-size="14.00">sample_received_time </text>
<text text-anchor="start" x="197.16" y="-951.6" font-family="Arial" font-size="14.00" fill="#666666">[timestamp(6) without time zone]</text>
<polygon fill="none" stroke="black" points="46.2,-908.6 46.2,-939.4 468.73,-939.4 468.73,-908.6 46.2,-908.6"/>
<text text-anchor="start" x="53.2" y="-920.8" font-family="Arial" font-size="14.00">transferred_by </text>
<text text-anchor="start" x="147.36" y="-920.8" font-family="Arial" font-size="14.00" fill="#666666">[varchar(100)]</text>
<polygon fill="none" stroke="black" points="46.2,-877.8 46.2,-908.6 468.73,-908.6 468.73,-877.8 46.2,-877.8"/>
<text text-anchor="start" x="53.2" y="-890" font-family="Arial" font-size="14.00">transferred_time </text>
<text text-anchor="start" x="159.02" y="-890" font-family="Arial" font-size="14.00" fill="#666666">[timestamp(6) without time zone]</text>
<polygon fill="none" stroke="black" points="46.2,-847 46.2,-877.8 468.73,-877.8 468.73,-847 46.2,-847"/>
<text text-anchor="start" x="53.2" y="-859.2" font-family="Arial" font-size="14.00">sample_name </text>
<text text-anchor="start" x="145.03" y="-859.2" font-family="Arial" font-size="14.00" fill="#666666">[varchar(150)]</text>
<polygon fill="none" stroke="black" points="46.2,-816.2 46.2,-847 468.73,-847 468.73,-816.2 46.2,-816.2"/>
<text text-anchor="start" x="53.2" y="-828.4" font-family="Arial" font-size="14.00">sample_container_name </text>
<text text-anchor="start" x="210.41" y="-828.4" font-family="Arial" font-size="14.00" fill="#666666">[varchar(150)]</text>
<polygon fill="none" stroke="black" points="46.2,-785.4 46.2,-816.2 468.73,-816.2 468.73,-785.4 46.2,-785.4"/>
<text text-anchor="start" x="53.2" y="-797.6" font-family="Arial" font-size="14.00">sample_generated_by </text>
<text text-anchor="start" x="195.63" y="-797.6" font-family="Arial" font-size="14.00" fill="#666666">[varchar(100)]</text>
<polygon fill="none" stroke="black" points="46.2,-754.6 46.2,-785.4 468.73,-785.4 468.73,-754.6 46.2,-754.6"/>
<text text-anchor="start" x="53.2" y="-766.8" font-family="Arial" font-size="14.00">sample_generated_time </text>
<text text-anchor="start" x="207.3" y="-766.8" font-family="Arial" font-size="14.00" fill="#666666">[timestamp(0) without time zone]</text>
<polygon fill="none" stroke="black" points="46.2,-723.8 46.2,-754.6 468.73,-754.6 468.73,-723.8 46.2,-723.8"/>
<text text-anchor="start" x="53.2" y="-736" font-family="Arial" font-size="14.00">test_details </text>
<text text-anchor="start" x="127.91" y="-736" font-family="Arial" font-size="14.00" fill="#666666">[json]</text>
<polygon fill="none" stroke="black" points="46.2,-693 46.2,-723.8 468.73,-723.8 468.73,-693 46.2,-693"/>
<text text-anchor="start" x="53.2" y="-705.2" font-family="Arial" font-size="14.00">sample_arrived_time </text>
<text text-anchor="start" x="187.03" y="-705.2" font-family="Arial" font-size="14.00" fill="#666666">[timestamp(0) without time zone]</text>
<polygon fill="none" stroke="black" points="46.2,-662.2 46.2,-693 468.73,-693 468.73,-662.2 46.2,-662.2"/>
<text text-anchor="start" x="53.2" y="-674.4" font-family="Arial" font-size="14.00">sample_arrived_by </text>
<text text-anchor="start" x="175.37" y="-674.4" font-family="Arial" font-size="14.00" fill="#666666">[varchar(255)]</text>
<polygon fill="none" stroke="black" points="46.2,-631.4 46.2,-662.2 468.73,-662.2 468.73,-631.4 46.2,-631.4"/>
<text text-anchor="start" x="53.2" y="-643.6" font-family="Arial" font-size="14.00">sample_sorted_time </text>
<text text-anchor="start" x="183.15" y="-643.6" font-family="Arial" font-size="14.00" fill="#666666">[timestamp(0) without time zone]</text>
<polygon fill="none" stroke="black" points="46.2,-600.6 46.2,-631.4 468.73,-631.4 468.73,-600.6 46.2,-600.6"/>
<text text-anchor="start" x="53.2" y="-612.8" font-family="Arial" font-size="14.00">sample_sorted_by </text>
<text text-anchor="start" x="171.49" y="-612.8" font-family="Arial" font-size="14.00" fill="#666666">[varchar(255)]</text>
<polygon fill="none" stroke="black" points="46.2,-569.8 46.2,-600.6 468.73,-600.6 468.73,-569.8 46.2,-569.8"/>
<text text-anchor="start" x="53.2" y="-582" font-family="Arial" font-size="14.00">sample_checked_time </text>
<text text-anchor="start" x="196.39" y="-582" font-family="Arial" font-size="14.00" fill="#666666">[timestamp(0) without time zone]</text>
<polygon fill="none" stroke="black" points="46.2,-539 46.2,-569.8 468.73,-569.8 468.73,-539 46.2,-539"/>
<text text-anchor="start" x="53.2" y="-551.2" font-family="Arial" font-size="14.00">sample_checked_by </text>
<text text-anchor="start" x="184.72" y="-551.2" font-family="Arial" font-size="14.00" fill="#666666">[varchar(255)]</text>
<polygon fill="none" stroke="black" points="46.2,-508.2 46.2,-539 468.73,-539 468.73,-508.2 46.2,-508.2"/>
<text text-anchor="start" x="53.2" y="-520.4" font-family="Arial" font-size="14.00">print_count </text>
<text text-anchor="start" x="126.36" y="-520.4" font-family="Arial" font-size="14.00" fill="#666666">[integer]</text>
<polygon fill="none" stroke="black" points="46.2,-477.4 46.2,-508.2 468.73,-508.2 468.73,-477.4 46.2,-477.4"/>
<text text-anchor="start" x="53.2" y="-489.6" font-family="Arial" font-size="14.00">sample_missed_reason </text>
<text text-anchor="start" x="204.94" y="-489.6" font-family="Arial" font-size="14.00" fill="#666666">[varchar(255)]</text>
<polygon fill="none" stroke="black" points="46.2,-446.6 46.2,-477.4 468.73,-477.4 468.73,-446.6 46.2,-446.6"/>
<text text-anchor="start" x="53.2" y="-458.8" font-family="Arial" font-size="14.00">num_of_label </text>
<text text-anchor="start" x="141.15" y="-458.8" font-family="Arial" font-size="14.00" fill="#666666">[integer]</text>
<polygon fill="none" stroke="black" points="46.2,-415.8 46.2,-446.6 468.73,-446.6 468.73,-415.8 46.2,-415.8"/>
<text text-anchor="start" x="53.2" y="-428" font-family="Arial" font-size="14.00">is_recollect </text>
<text text-anchor="start" x="127.12" y="-428" font-family="Arial" font-size="14.00" fill="#666666">[boolean]</text>
<polygon fill="none" stroke="black" points="46.2,-385 46.2,-415.8 468.73,-415.8 468.73,-385 46.2,-385"/>
<text text-anchor="start" x="53.2" y="-397.2" font-family="Arial" font-size="14.00">sample_sent_to_outsource_time </text>
<text text-anchor="start" x="259.43" y="-397.2" font-family="Arial" font-size="14.00" fill="#666666">[timestamp(6) without time zone]</text>
<polygon fill="none" stroke="black" points="46.2,-354.2 46.2,-385 468.73,-385 468.73,-354.2 46.2,-354.2"/>
<text text-anchor="start" x="53.2" y="-366.4" font-family="Arial" font-size="14.00">sample_sent_outsource_by </text>
<text text-anchor="start" x="228.31" y="-366.4" font-family="Arial" font-size="14.00" fill="#666666">[varchar(255)]</text>
<polygon fill="none" stroke="black" points="46.2,-323.4 46.2,-354.2 468.73,-354.2 468.73,-323.4 46.2,-323.4"/>
<text text-anchor="start" x="53.2" y="-335.6" font-family="Arial" font-size="14.00">sample_collected_location </text>
<text text-anchor="start" x="221.3" y="-335.6" font-family="Arial" font-size="14.00" fill="#666666">[varchar(100)]</text>
<polygon fill="none" stroke="black" points="46.2,-292.6 46.2,-323.4 468.73,-323.4 468.73,-292.6 46.2,-292.6"/>
<text text-anchor="start" x="53.2" y="-304.8" font-family="Arial" font-size="14.00">sample_received_to_checked_reason </text>
<text text-anchor="start" x="292.91" y="-304.8" font-family="Arial" font-size="14.00" fill="#666666">[varchar(255)]</text>
<polygon fill="none" stroke="black" points="46.2,-261.8 46.2,-292.6 468.73,-292.6 468.73,-261.8 46.2,-261.8"/>
<text text-anchor="start" x="53.2" y="-274" font-family="Arial" font-size="14.00">sample_canceled_by </text>
<text text-anchor="start" x="188.62" y="-274" font-family="Arial" font-size="14.00" fill="#666666">[varchar(255)]</text>
<polygon fill="none" stroke="black" points="46.2,-231 46.2,-261.8 468.73,-261.8 468.73,-231 46.2,-231"/>
<text text-anchor="start" x="53.2" y="-243.2" font-family="Arial" font-size="14.00">sample_canceled_time </text>
<text text-anchor="start" x="200.28" y="-243.2" font-family="Arial" font-size="14.00" fill="#666666">[timestamp(0) without time zone]</text>
<polygon fill="none" stroke="black" points="46.2,-200.2 46.2,-231 468.73,-231 468.73,-200.2 46.2,-200.2"/>
<text text-anchor="start" x="53.2" y="-212.4" font-family="Arial" font-size="14.00">recollect_reason </text>
<text text-anchor="start" x="159.81" y="-212.4" font-family="Arial" font-size="14.00" fill="#666666">[varchar(255)]</text>
<polygon fill="none" stroke="black" points="46.2,-169.4 46.2,-200.2 468.73,-200.2 468.73,-169.4 46.2,-169.4"/>
<text text-anchor="start" x="53.2" y="-181.6" font-family="Arial" font-size="14.00">external_sample_id </text>
<text text-anchor="start" x="178.5" y="-181.6" font-family="Arial" font-size="14.00" fill="#666666">[varchar(50)]</text>
<polygon fill="none" stroke="black" points="46.2,-138.6 46.2,-169.4 468.73,-169.4 468.73,-138.6 46.2,-138.6"/>
<text text-anchor="start" x="53.2" y="-150.8" font-family="Arial" font-size="14.00">stat_sid </text>
<text text-anchor="start" x="105.34" y="-150.8" font-family="Arial" font-size="14.00" fill="#666666">[boolean]</text>
<polygon fill="none" stroke="black" points="46.2,-107.8 46.2,-138.6 468.73,-138.6 468.73,-107.8 46.2,-107.8"/>
<text text-anchor="start" x="53.2" y="-120" font-family="Arial" font-size="14.00">sample_recollected_time </text>
<text text-anchor="start" x="211.94" y="-120" font-family="Arial" font-size="14.00" fill="#666666">[timestamp(0) without time zone]</text>
<polygon fill="none" stroke="black" points="46.2,-77 46.2,-107.8 468.73,-107.8 468.73,-77 46.2,-77"/>
<text text-anchor="start" x="53.2" y="-89.2" font-family="Arial" font-size="14.00">sample_recollected_by </text>
<text text-anchor="start" x="200.28" y="-89.2" font-family="Arial" font-size="14.00" fill="#666666">[varchar(100)]</text>
<polygon fill="none" stroke="black" points="46.2,-46.2 46.2,-77 468.73,-77 468.73,-46.2 46.2,-46.2"/>
<text text-anchor="start" x="53.2" y="-58.4" font-family="Arial" font-size="14.00">before_recollected_status </text>
<text text-anchor="start" x="217.41" y="-58.4" font-family="Arial" font-size="14.00" fill="#666666">[varchar(100)]</text>
<polygon fill="none" stroke="black" stroke-width="3" points="44.7,-44.7 44.7,-1253.7 470.23,-1253.7 470.23,-44.7 44.7,-44.7"/>
</g>
</g>
</svg>
