<?xml version="1.0" encoding="UTF-8" standalone="no"?>
<!DOCTYPE svg PUBLIC "-//W3C//DTD SVG 1.1//EN"
 "http://www.w3.org/Graphics/SVG/1.1/DTD/svg11.dtd">
<!-- Generated by graphviz version 12.1.2 (20240928.0832)
 -->
<!-- Title: public.batch_outsource_samples Pages: 1 -->
<svg width="731pt" height="818pt"
 viewBox="0.00 0.00 730.57 817.60" xmlns="http://www.w3.org/2000/svg" xmlns:xlink="http://www.w3.org/1999/xlink">
<g id="graph0" class="graph" transform="scale(1 1) rotate(0) translate(4 813.6)">
<title>public.batch_outsource_samples</title>
<polygon fill="white" stroke="none" points="-4,4 -4,-813.6 726.57,-813.6 726.57,4 -4,4"/>
<!-- public.batch_outsource_samples -->
<g id="node1" class="node">
<title>public.batch_outsource_samples</title>
<polygon fill="#efefef" stroke="none" points="46.2,-727.8 46.2,-763.4 419.13,-763.4 419.13,-727.8 46.2,-727.8"/>
<polygon fill="none" stroke="black" points="46.2,-727.8 46.2,-763.4 419.13,-763.4 419.13,-727.8 46.2,-727.8"/>
<text text-anchor="start" x="53.2" y="-741.2" font-family="Arial Bold" font-size="18.00">public.batch_outsource_samples</text>
<text text-anchor="start" x="287.64" y="-741.2" font-family="Arial" font-size="14.00">    </text>
<text text-anchor="start" x="318.76" y="-741.2" font-family="Arial" font-size="14.00" fill="#666666">[BASE TABLE]</text>
<polygon fill="none" stroke="black" points="46.2,-697 46.2,-727.8 419.13,-727.8 419.13,-697 46.2,-697"/>
<text text-anchor="start" x="53.2" y="-709.2" font-family="Arial" font-size="14.00">id </text>
<text text-anchor="start" x="67.99" y="-709.2" font-family="Arial" font-size="14.00" fill="#666666">[bigint]</text>
<polygon fill="none" stroke="black" points="46.2,-666.2 46.2,-697 419.13,-697 419.13,-666.2 46.2,-666.2"/>
<text text-anchor="start" x="53.2" y="-678.4" font-family="Arial" font-size="14.00">batch_id </text>
<text text-anchor="start" x="110.02" y="-678.4" font-family="Arial" font-size="14.00" fill="#666666">[bigint]</text>
<polygon fill="none" stroke="black" points="46.2,-635.4 46.2,-666.2 419.13,-666.2 419.13,-635.4 46.2,-635.4"/>
<text text-anchor="start" x="53.2" y="-647.6" font-family="Arial" font-size="14.00">sample_id </text>
<text text-anchor="start" x="120.9" y="-647.6" font-family="Arial" font-size="14.00" fill="#666666">[varchar(255)]</text>
<polygon fill="none" stroke="black" points="46.2,-604.6 46.2,-635.4 419.13,-635.4 419.13,-604.6 46.2,-604.6"/>
<text text-anchor="start" x="53.2" y="-616.8" font-family="Arial" font-size="14.00">created_at </text>
<text text-anchor="start" x="123.25" y="-616.8" font-family="Arial" font-size="14.00" fill="#666666">[timestamp(0) without time zone]</text>
<polygon fill="none" stroke="black" points="46.2,-573.8 46.2,-604.6 419.13,-604.6 419.13,-573.8 46.2,-573.8"/>
<text text-anchor="start" x="53.2" y="-586" font-family="Arial" font-size="14.00">updated_at </text>
<text text-anchor="start" x="127.16" y="-586" font-family="Arial" font-size="14.00" fill="#666666">[timestamp(0) without time zone]</text>
<polygon fill="none" stroke="black" stroke-width="3" points="44.7,-572.3 44.7,-764.9 420.63,-764.9 420.63,-572.3 44.7,-572.3"/>
</g>
<!-- public.batches_outsource -->
<g id="node2" class="node">
<title>public.batches_outsource</title>
<polygon fill="#efefef" stroke="none" points="72.2,-412.8 72.2,-448.4 393.13,-448.4 393.13,-412.8 72.2,-412.8"/>
<polygon fill="none" stroke="black" points="72.2,-412.8 72.2,-448.4 393.13,-448.4 393.13,-412.8 72.2,-412.8"/>
<text text-anchor="start" x="79.2" y="-426.2" font-family="Arial Bold" font-size="18.00">public.batches_outsource</text>
<text text-anchor="start" x="261.64" y="-426.2" font-family="Arial" font-size="14.00">    </text>
<text text-anchor="start" x="292.76" y="-426.2" font-family="Arial" font-size="14.00" fill="#666666">[BASE TABLE]</text>
<polygon fill="none" stroke="black" points="72.2,-382 72.2,-412.8 393.13,-412.8 393.13,-382 72.2,-382"/>
<text text-anchor="start" x="79.2" y="-394.2" font-family="Arial" font-size="14.00">id </text>
<text text-anchor="start" x="93.98" y="-394.2" font-family="Arial" font-size="14.00" fill="#666666">[bigint]</text>
<polygon fill="none" stroke="black" points="72.2,-351.2 72.2,-382 393.13,-382 393.13,-351.2 72.2,-351.2"/>
<text text-anchor="start" x="79.2" y="-363.4" font-family="Arial" font-size="14.00">batch_name </text>
<text text-anchor="start" x="160.14" y="-363.4" font-family="Arial" font-size="14.00" fill="#666666">[varchar(255)]</text>
<polygon fill="none" stroke="black" points="72.2,-320.4 72.2,-351.2 393.13,-351.2 393.13,-320.4 72.2,-320.4"/>
<text text-anchor="start" x="79.2" y="-332.6" font-family="Arial" font-size="14.00">batch_code </text>
<text text-anchor="start" x="155.48" y="-332.6" font-family="Arial" font-size="14.00" fill="#666666">[varchar(255)]</text>
<polygon fill="none" stroke="black" points="72.2,-289.6 72.2,-320.4 393.13,-320.4 393.13,-289.6 72.2,-289.6"/>
<text text-anchor="start" x="79.2" y="-301.8" font-family="Arial" font-size="14.00">laboratory </text>
<text text-anchor="start" x="145.34" y="-301.8" font-family="Arial" font-size="14.00" fill="#666666">[varchar(255)]</text>
<polygon fill="none" stroke="black" points="72.2,-258.8 72.2,-289.6 393.13,-289.6 393.13,-258.8 72.2,-258.8"/>
<text text-anchor="start" x="79.2" y="-271" font-family="Arial" font-size="14.00">status </text>
<text text-anchor="start" x="120.44" y="-271" font-family="Arial" font-size="14.00" fill="#666666">[varchar(255)]</text>
<polygon fill="none" stroke="black" points="72.2,-228 72.2,-258.8 393.13,-258.8 393.13,-228 72.2,-228"/>
<text text-anchor="start" x="79.2" y="-240.2" font-family="Arial" font-size="14.00">created_by </text>
<text text-anchor="start" x="152.36" y="-240.2" font-family="Arial" font-size="14.00" fill="#666666">[varchar(255)]</text>
<polygon fill="none" stroke="black" points="72.2,-197.2 72.2,-228 393.13,-228 393.13,-197.2 72.2,-197.2"/>
<text text-anchor="start" x="79.2" y="-209.4" font-family="Arial" font-size="14.00">transferred_at </text>
<text text-anchor="start" x="170.25" y="-209.4" font-family="Arial" font-size="14.00" fill="#666666">[timestamp(0) without time zone]</text>
<polygon fill="none" stroke="black" points="72.2,-166.4 72.2,-197.2 393.13,-197.2 393.13,-166.4 72.2,-166.4"/>
<text text-anchor="start" x="79.2" y="-178.6" font-family="Arial" font-size="14.00">cancelled_at </text>
<text text-anchor="start" x="161.7" y="-178.6" font-family="Arial" font-size="14.00" fill="#666666">[timestamp(0) without time zone]</text>
<polygon fill="none" stroke="black" points="72.2,-135.6 72.2,-166.4 393.13,-166.4 393.13,-135.6 72.2,-135.6"/>
<text text-anchor="start" x="79.2" y="-147.8" font-family="Arial" font-size="14.00">completed_at </text>
<text text-anchor="start" x="167.14" y="-147.8" font-family="Arial" font-size="14.00" fill="#666666">[timestamp(0) without time zone]</text>
<polygon fill="none" stroke="black" points="72.2,-104.8 72.2,-135.6 393.13,-135.6 393.13,-104.8 72.2,-104.8"/>
<text text-anchor="start" x="79.2" y="-117" font-family="Arial" font-size="14.00">total_sample </text>
<text text-anchor="start" x="162.47" y="-117" font-family="Arial" font-size="14.00" fill="#666666">[integer]</text>
<polygon fill="none" stroke="black" points="72.2,-74 72.2,-104.8 393.13,-104.8 393.13,-74 72.2,-74"/>
<text text-anchor="start" x="79.2" y="-86.2" font-family="Arial" font-size="14.00">created_at </text>
<text text-anchor="start" x="149.25" y="-86.2" font-family="Arial" font-size="14.00" fill="#666666">[timestamp(0) without time zone]</text>
<polygon fill="none" stroke="black" points="72.2,-43.2 72.2,-74 393.13,-74 393.13,-43.2 72.2,-43.2"/>
<text text-anchor="start" x="79.2" y="-55.4" font-family="Arial" font-size="14.00">updated_at </text>
<text text-anchor="start" x="153.16" y="-55.4" font-family="Arial" font-size="14.00" fill="#666666">[timestamp(0) without time zone]</text>
</g>
<!-- public.batch_outsource_samples&#45;&gt;public.batches_outsource -->
<g id="edge1" class="edge">
<title>public.batch_outsource_samples:batch_id&#45;&gt;public.batches_outsource:id</title>
<path fill="none" stroke="black" d="M430.05,-678.97C480.48,-650.32 453.96,-397.4 394.13,-397.4"/>
<polygon fill="black" stroke="black" points="430.12,-678.95 419.3,-677.16 424.96,-680.32 420.78,-681.43 420.78,-681.43 420.78,-681.43 424.96,-680.32 421.61,-685.86 430.12,-678.95"/>
<text text-anchor="start" x="427.13" y="-691.6" font-family="Arial" font-size="10.00">FOREIGN KEY (batch_id) REFERENCES batches_outsource(id)</text>
</g>
</g>
</svg>
