<?xml version="1.0" encoding="UTF-8" standalone="no"?>
<!DOCTYPE svg PUBLIC "-//W3C//DTD SVG 1.1//EN"
 "http://www.w3.org/Graphics/SVG/1.1/DTD/svg11.dtd">
<!-- Generated by graphviz version 12.1.2 (20240928.0832)
 -->
<!-- Title: public.tat_configs Pages: 1 -->
<svg width="391pt" height="444pt"
 viewBox="0.00 0.00 390.65 444.00" xmlns="http://www.w3.org/2000/svg" xmlns:xlink="http://www.w3.org/1999/xlink">
<g id="graph0" class="graph" transform="scale(1 1) rotate(0) translate(4 440)">
<title>public.tat_configs</title>
<polygon fill="white" stroke="none" points="-4,4 -4,-440 386.65,-440 386.65,4 -4,4"/>
<!-- public.tat_configs -->
<g id="node1" class="node">
<title>public.tat_configs</title>
<polygon fill="#efefef" stroke="none" points="46.2,-354.2 46.2,-389.8 336.45,-389.8 336.45,-354.2 46.2,-354.2"/>
<polygon fill="none" stroke="black" points="46.2,-354.2 46.2,-389.8 336.45,-389.8 336.45,-354.2 46.2,-354.2"/>
<text text-anchor="start" x="64.35" y="-367.6" font-family="Arial Bold" font-size="18.00">public.tat_configs</text>
<text text-anchor="start" x="193.82" y="-367.6" font-family="Arial" font-size="14.00">    </text>
<text text-anchor="start" x="224.94" y="-367.6" font-family="Arial" font-size="14.00" fill="#666666">[BASE TABLE]</text>
<polygon fill="none" stroke="black" points="46.2,-323.4 46.2,-354.2 336.45,-354.2 336.45,-323.4 46.2,-323.4"/>
<text text-anchor="start" x="53.2" y="-335.6" font-family="Arial" font-size="14.00">id </text>
<text text-anchor="start" x="67.99" y="-335.6" font-family="Arial" font-size="14.00" fill="#666666">[bigint]</text>
<polygon fill="none" stroke="black" points="46.2,-292.6 46.2,-323.4 336.45,-323.4 336.45,-292.6 46.2,-292.6"/>
<text text-anchor="start" x="53.2" y="-304.8" font-family="Arial" font-size="14.00">test_code </text>
<text text-anchor="start" x="117.8" y="-304.8" font-family="Arial" font-size="14.00" fill="#666666">[varchar(100)]</text>
<polygon fill="none" stroke="black" points="46.2,-261.8 46.2,-292.6 336.45,-292.6 336.45,-261.8 46.2,-261.8"/>
<text text-anchor="start" x="53.2" y="-274" font-family="Arial" font-size="14.00">test_status </text>
<text text-anchor="start" x="124.79" y="-274" font-family="Arial" font-size="14.00" fill="#666666">[varchar(255)]</text>
<polygon fill="none" stroke="black" points="46.2,-231 46.2,-261.8 336.45,-261.8 336.45,-231 46.2,-231"/>
<text text-anchor="start" x="53.2" y="-243.2" font-family="Arial" font-size="14.00">tat_days </text>
<text text-anchor="start" x="110.01" y="-243.2" font-family="Arial" font-size="14.00" fill="#666666">[integer]</text>
<polygon fill="none" stroke="black" points="46.2,-200.2 46.2,-231 336.45,-231 336.45,-200.2 46.2,-200.2"/>
<text text-anchor="start" x="53.2" y="-212.4" font-family="Arial" font-size="14.00">tat_time </text>
<text text-anchor="start" x="106.89" y="-212.4" font-family="Arial" font-size="14.00" fill="#666666">[varchar(100)]</text>
<polygon fill="none" stroke="black" points="46.2,-169.4 46.2,-200.2 336.45,-200.2 336.45,-169.4 46.2,-169.4"/>
<text text-anchor="start" x="53.2" y="-181.6" font-family="Arial" font-size="14.00">tat_minutes </text>
<text text-anchor="start" x="129.46" y="-181.6" font-family="Arial" font-size="14.00" fill="#666666">[integer]</text>
<polygon fill="none" stroke="black" points="46.2,-138.6 46.2,-169.4 336.45,-169.4 336.45,-138.6 46.2,-138.6"/>
<text text-anchor="start" x="53.2" y="-150.8" font-family="Arial" font-size="14.00">order </text>
<text text-anchor="start" x="89.77" y="-150.8" font-family="Arial" font-size="14.00" fill="#666666">[integer]</text>
<polygon fill="none" stroke="black" points="46.2,-107.8 46.2,-138.6 336.45,-138.6 336.45,-107.8 46.2,-107.8"/>
<text text-anchor="start" x="53.2" y="-120" font-family="Arial" font-size="14.00">created_at </text>
<text text-anchor="start" x="123.25" y="-120" font-family="Arial" font-size="14.00" fill="#666666">[timestamp(0) without time zone]</text>
<polygon fill="none" stroke="black" points="46.2,-77 46.2,-107.8 336.45,-107.8 336.45,-77 46.2,-77"/>
<text text-anchor="start" x="53.2" y="-89.2" font-family="Arial" font-size="14.00">updated_at </text>
<text text-anchor="start" x="127.16" y="-89.2" font-family="Arial" font-size="14.00" fill="#666666">[timestamp(0) without time zone]</text>
<polygon fill="none" stroke="black" points="46.2,-46.2 46.2,-77 336.45,-77 336.45,-46.2 46.2,-46.2"/>
<text text-anchor="start" x="53.2" y="-58.4" font-family="Arial" font-size="14.00">alert_minutes </text>
<text text-anchor="start" x="141.13" y="-58.4" font-family="Arial" font-size="14.00" fill="#666666">[integer]</text>
<polygon fill="none" stroke="black" stroke-width="3" points="44.7,-44.7 44.7,-391.3 337.95,-391.3 337.95,-44.7 44.7,-44.7"/>
</g>
</g>
</svg>
