<?xml version="1.0" encoding="UTF-8" standalone="no"?>
<!DOCTYPE svg PUBLIC "-//W3C//DTD SVG 1.1//EN"
 "http://www.w3.org/Graphics/SVG/1.1/DTD/svg11.dtd">
<!-- Generated by graphviz version 12.1.2 (20240928.0832)
 -->
<!-- Title: public.batch_samples Pages: 1 -->
<svg width="716pt" height="910pt"
 viewBox="0.00 0.00 716.39 910.00" xmlns="http://www.w3.org/2000/svg" xmlns:xlink="http://www.w3.org/1999/xlink">
<g id="graph0" class="graph" transform="scale(1 1) rotate(0) translate(4 906)">
<title>public.batch_samples</title>
<polygon fill="white" stroke="none" points="-4,4 -4,-906 712.39,-906 712.39,4 -4,4"/>
<!-- public.batch_samples -->
<g id="node1" class="node">
<title>public.batch_samples</title>
<polygon fill="#efefef" stroke="none" points="49.9,-820.2 49.9,-855.8 343.85,-855.8 343.85,-820.2 49.9,-820.2"/>
<polygon fill="none" stroke="black" points="49.9,-820.2 49.9,-855.8 343.85,-855.8 343.85,-820.2 49.9,-820.2"/>
<text text-anchor="start" x="56.9" y="-833.6" font-family="Arial Bold" font-size="18.00">public.batch_samples</text>
<text text-anchor="start" x="212.36" y="-833.6" font-family="Arial" font-size="14.00">    </text>
<text text-anchor="start" x="243.47" y="-833.6" font-family="Arial" font-size="14.00" fill="#666666">[BASE TABLE]</text>
<polygon fill="none" stroke="black" points="49.9,-789.4 49.9,-820.2 343.85,-820.2 343.85,-789.4 49.9,-789.4"/>
<text text-anchor="start" x="56.9" y="-801.6" font-family="Arial" font-size="14.00">id </text>
<text text-anchor="start" x="71.68" y="-801.6" font-family="Arial" font-size="14.00" fill="#666666">[bigint]</text>
<polygon fill="none" stroke="black" points="49.9,-758.6 49.9,-789.4 343.85,-789.4 343.85,-758.6 49.9,-758.6"/>
<text text-anchor="start" x="56.9" y="-770.8" font-family="Arial" font-size="14.00">batch_id </text>
<text text-anchor="start" x="113.72" y="-770.8" font-family="Arial" font-size="14.00" fill="#666666">[bigint]</text>
<polygon fill="none" stroke="black" points="49.9,-727.8 49.9,-758.6 343.85,-758.6 343.85,-727.8 49.9,-727.8"/>
<text text-anchor="start" x="56.9" y="-740" font-family="Arial" font-size="14.00">sample_id </text>
<text text-anchor="start" x="124.6" y="-740" font-family="Arial" font-size="14.00" fill="#666666">[varchar(255)]</text>
<polygon fill="none" stroke="black" points="49.9,-697 49.9,-727.8 343.85,-727.8 343.85,-697 49.9,-697"/>
<text text-anchor="start" x="56.9" y="-709.2" font-family="Arial" font-size="14.00">created_at </text>
<text text-anchor="start" x="126.94" y="-709.2" font-family="Arial" font-size="14.00" fill="#666666">[timestamp(0) without time zone]</text>
<polygon fill="none" stroke="black" points="49.9,-666.2 49.9,-697 343.85,-697 343.85,-666.2 49.9,-666.2"/>
<text text-anchor="start" x="56.9" y="-678.4" font-family="Arial" font-size="14.00">updated_at </text>
<text text-anchor="start" x="130.85" y="-678.4" font-family="Arial" font-size="14.00" fill="#666666">[timestamp(0) without time zone]</text>
<polygon fill="none" stroke="black" stroke-width="3" points="48.4,-664.7 48.4,-857.3 345.35,-857.3 345.35,-664.7 48.4,-664.7"/>
</g>
<!-- public.batches -->
<g id="node2" class="node">
<title>public.batches</title>
<polygon fill="#efefef" stroke="none" points="43.2,-505.2 43.2,-540.8 350.54,-540.8 350.54,-505.2 43.2,-505.2"/>
<polygon fill="none" stroke="black" points="43.2,-505.2 43.2,-540.8 350.54,-540.8 350.54,-505.2 43.2,-505.2"/>
<text text-anchor="start" x="82.89" y="-518.6" font-family="Arial Bold" font-size="18.00">public.batches</text>
<text text-anchor="start" x="186.36" y="-518.6" font-family="Arial" font-size="14.00">    </text>
<text text-anchor="start" x="217.48" y="-518.6" font-family="Arial" font-size="14.00" fill="#666666">[BASE TABLE]</text>
<polygon fill="none" stroke="black" points="43.2,-474.4 43.2,-505.2 350.54,-505.2 350.54,-474.4 43.2,-474.4"/>
<text text-anchor="start" x="50.2" y="-486.6" font-family="Arial" font-size="14.00">id </text>
<text text-anchor="start" x="64.99" y="-486.6" font-family="Arial" font-size="14.00" fill="#666666">[bigint]</text>
<polygon fill="none" stroke="black" points="43.2,-443.6 43.2,-474.4 350.54,-474.4 350.54,-443.6 43.2,-443.6"/>
<text text-anchor="start" x="50.2" y="-455.8" font-family="Arial" font-size="14.00">batch_name </text>
<text text-anchor="start" x="131.14" y="-455.8" font-family="Arial" font-size="14.00" fill="#666666">[varchar(255)]</text>
<polygon fill="none" stroke="black" points="43.2,-412.8 43.2,-443.6 350.54,-443.6 350.54,-412.8 43.2,-412.8"/>
<text text-anchor="start" x="50.2" y="-425" font-family="Arial" font-size="14.00">batch_description </text>
<text text-anchor="start" x="163.83" y="-425" font-family="Arial" font-size="14.00" fill="#666666">[text]</text>
<polygon fill="none" stroke="black" points="43.2,-382 43.2,-412.8 350.54,-412.8 350.54,-382 43.2,-382"/>
<text text-anchor="start" x="50.2" y="-394.2" font-family="Arial" font-size="14.00">batch_code </text>
<text text-anchor="start" x="126.48" y="-394.2" font-family="Arial" font-size="14.00" fill="#666666">[varchar(255)]</text>
<polygon fill="none" stroke="black" points="43.2,-351.2 43.2,-382 350.54,-382 350.54,-351.2 43.2,-351.2"/>
<text text-anchor="start" x="50.2" y="-363.4" font-family="Arial" font-size="14.00">source_location </text>
<text text-anchor="start" x="152.15" y="-363.4" font-family="Arial" font-size="14.00" fill="#666666">[varchar(255)]</text>
<polygon fill="none" stroke="black" points="43.2,-320.4 43.2,-351.2 350.54,-351.2 350.54,-320.4 43.2,-320.4"/>
<text text-anchor="start" x="50.2" y="-332.6" font-family="Arial" font-size="14.00">destination_location </text>
<text text-anchor="start" x="177.85" y="-332.6" font-family="Arial" font-size="14.00" fill="#666666">[varchar(255)]</text>
<polygon fill="none" stroke="black" points="43.2,-289.6 43.2,-320.4 350.54,-320.4 350.54,-289.6 43.2,-289.6"/>
<text text-anchor="start" x="50.2" y="-301.8" font-family="Arial" font-size="14.00">status </text>
<text text-anchor="start" x="91.44" y="-301.8" font-family="Arial" font-size="14.00" fill="#666666">[varchar(255)]</text>
<polygon fill="none" stroke="black" points="43.2,-258.8 43.2,-289.6 350.54,-289.6 350.54,-258.8 43.2,-258.8"/>
<text text-anchor="start" x="50.2" y="-271" font-family="Arial" font-size="14.00">created_by </text>
<text text-anchor="start" x="123.36" y="-271" font-family="Arial" font-size="14.00" fill="#666666">[varchar(255)]</text>
<polygon fill="none" stroke="black" points="43.2,-228 43.2,-258.8 350.54,-258.8 350.54,-228 43.2,-228"/>
<text text-anchor="start" x="50.2" y="-240.2" font-family="Arial" font-size="14.00">transferred_at </text>
<text text-anchor="start" x="141.25" y="-240.2" font-family="Arial" font-size="14.00" fill="#666666">[timestamp(0) without time zone]</text>
<polygon fill="none" stroke="black" points="43.2,-197.2 43.2,-228 350.54,-228 350.54,-197.2 43.2,-197.2"/>
<text text-anchor="start" x="50.2" y="-209.4" font-family="Arial" font-size="14.00">cancelled_at </text>
<text text-anchor="start" x="132.7" y="-209.4" font-family="Arial" font-size="14.00" fill="#666666">[timestamp(0) without time zone]</text>
<polygon fill="none" stroke="black" points="43.2,-166.4 43.2,-197.2 350.54,-197.2 350.54,-166.4 43.2,-166.4"/>
<text text-anchor="start" x="50.2" y="-178.6" font-family="Arial" font-size="14.00">completed_at </text>
<text text-anchor="start" x="138.14" y="-178.6" font-family="Arial" font-size="14.00" fill="#666666">[timestamp(0) without time zone]</text>
<polygon fill="none" stroke="black" points="43.2,-135.6 43.2,-166.4 350.54,-166.4 350.54,-135.6 43.2,-135.6"/>
<text text-anchor="start" x="50.2" y="-147.8" font-family="Arial" font-size="14.00">created_at </text>
<text text-anchor="start" x="120.25" y="-147.8" font-family="Arial" font-size="14.00" fill="#666666">[timestamp(0) without time zone]</text>
<polygon fill="none" stroke="black" points="43.2,-104.8 43.2,-135.6 350.54,-135.6 350.54,-104.8 43.2,-104.8"/>
<text text-anchor="start" x="50.2" y="-117" font-family="Arial" font-size="14.00">updated_at </text>
<text text-anchor="start" x="124.16" y="-117" font-family="Arial" font-size="14.00" fill="#666666">[timestamp(0) without time zone]</text>
<polygon fill="none" stroke="black" points="43.2,-74 43.2,-104.8 350.54,-104.8 350.54,-74 43.2,-74"/>
<text text-anchor="start" x="50.2" y="-86.2" font-family="Arial" font-size="14.00">total_sample </text>
<text text-anchor="start" x="133.47" y="-86.2" font-family="Arial" font-size="14.00" fill="#666666">[integer]</text>
<polygon fill="none" stroke="black" points="43.2,-43.2 43.2,-74 350.54,-74 350.54,-43.2 43.2,-43.2"/>
<text text-anchor="start" x="50.2" y="-55.4" font-family="Arial" font-size="14.00">arrived_reason </text>
<text text-anchor="start" x="147.48" y="-55.4" font-family="Arial" font-size="14.00" fill="#666666">[varchar(255)]</text>
</g>
<!-- public.batch_samples&#45;&gt;public.batches -->
<g id="edge1" class="edge">
<title>public.batch_samples:batch_id&#45;&gt;public.batches:id</title>
<path fill="none" stroke="black" d="M354.7,-771.54C408.54,-743.77 411.26,-489.8 351.54,-489.8"/>
<polygon fill="black" stroke="black" points="354.87,-771.5 344.08,-769.55 349.7,-772.79 345.5,-773.84 345.5,-773.84 345.5,-773.84 349.7,-772.79 346.26,-778.29 354.87,-771.5"/>
<text text-anchor="start" x="351.85" y="-784" font-family="Arial" font-size="10.00">FOREIGN KEY (batch_id) REFERENCES batches(id) ON DELETE CASCADE</text>
</g>
</g>
</svg>
