<?xml version="1.0" encoding="UTF-8" standalone="no"?>
<!DOCTYPE svg PUBLIC "-//W3C//DTD SVG 1.1//EN"
 "http://www.w3.org/Graphics/SVG/1.1/DTD/svg11.dtd">
<!-- Generated by graphviz version 12.1.2 (20240928.0832)
 -->
<!-- Title: public.approvers Pages: 1 -->
<svg width="732pt" height="411pt"
 viewBox="0.00 0.00 732.36 411.20" xmlns="http://www.w3.org/2000/svg" xmlns:xlink="http://www.w3.org/1999/xlink">
<g id="graph0" class="graph" transform="scale(1 1) rotate(0) translate(4 407.2)">
<title>public.approvers</title>
<polygon fill="white" stroke="none" points="-4,4 -4,-407.2 728.36,-407.2 728.36,4 -4,4"/>
<!-- public.approvers -->
<g id="node1" class="node">
<title>public.approvers</title>
<polygon fill="#efefef" stroke="none" points="46.2,-89.4 46.2,-125 305.15,-125 305.15,-89.4 46.2,-89.4"/>
<polygon fill="none" stroke="black" points="46.2,-89.4 46.2,-125 305.15,-125 305.15,-89.4 46.2,-89.4"/>
<text text-anchor="start" x="53.2" y="-102.8" font-family="Arial Bold" font-size="18.00">public.approvers</text>
<text text-anchor="start" x="173.66" y="-102.8" font-family="Arial" font-size="14.00">    </text>
<text text-anchor="start" x="204.78" y="-102.8" font-family="Arial" font-size="14.00" fill="#666666">[BASE TABLE]</text>
<polygon fill="none" stroke="black" points="46.2,-58.6 46.2,-89.4 305.15,-89.4 305.15,-58.6 46.2,-58.6"/>
<text text-anchor="start" x="53.2" y="-70.8" font-family="Arial" font-size="14.00">employee_code </text>
<text text-anchor="start" x="155.94" y="-70.8" font-family="Arial" font-size="14.00" fill="#666666">[varchar(255)]</text>
<polygon fill="none" stroke="black" stroke-width="3" points="44.7,-57.1 44.7,-126.5 306.65,-126.5 306.65,-57.1 44.7,-57.1"/>
</g>
<!-- public.test_results_approvers -->
<g id="node2" class="node">
<title>public.test_results_approvers</title>
<polygon fill="#efefef" stroke="none" points="186.2,-324.4 186.2,-360 535.15,-360 535.15,-324.4 186.2,-324.4"/>
<polygon fill="none" stroke="black" points="186.2,-324.4 186.2,-360 535.15,-360 535.15,-324.4 186.2,-324.4"/>
<text text-anchor="start" x="193.2" y="-337.8" font-family="Arial Bold" font-size="18.00">public.test_results_approvers</text>
<text text-anchor="start" x="403.66" y="-337.8" font-family="Arial" font-size="14.00">    </text>
<text text-anchor="start" x="434.78" y="-337.8" font-family="Arial" font-size="14.00" fill="#666666">[BASE TABLE]</text>
<polygon fill="none" stroke="black" points="186.2,-293.6 186.2,-324.4 535.15,-324.4 535.15,-293.6 186.2,-293.6"/>
<text text-anchor="start" x="193.2" y="-305.8" font-family="Arial" font-size="14.00">test_result_id </text>
<text text-anchor="start" x="280.36" y="-305.8" font-family="Arial" font-size="14.00" fill="#666666">[bigint]</text>
<polygon fill="none" stroke="black" points="186.2,-262.8 186.2,-293.6 535.15,-293.6 535.15,-262.8 186.2,-262.8"/>
<text text-anchor="start" x="193.2" y="-275" font-family="Arial" font-size="14.00">approver_employee_code </text>
<text text-anchor="start" x="358.98" y="-275" font-family="Arial" font-size="14.00" fill="#666666">[varchar(255)]</text>
</g>
<!-- public.test_results_approvers&#45;&gt;public.approvers -->
<g id="edge1" class="edge">
<title>public.test_results_approvers:approver_employee_code&#45;&gt;public.approvers:employee_code</title>
<path fill="none" stroke="black" d="M175.32,-275.44C163.26,-266.44 173.9,-237.56 186.2,-219.6 218.46,-172.52 273.05,-218.39 305.15,-171.2 329.45,-135.48 349.35,-74 306.15,-74"/>
<polygon fill="black" stroke="black" points="175.25,-275.42 183.67,-282.44 180.39,-276.85 184.56,-278.02 184.56,-278.02 184.56,-278.02 180.39,-276.85 186.09,-273.78 175.25,-275.42"/>
</g>
<!-- public.test_results -->
<g id="node3" class="node">
<title>public.test_results</title>
<polygon fill="#efefef" stroke="none" points="412.19,-104.8 412.19,-140.4 681.16,-140.4 681.16,-104.8 412.19,-104.8"/>
<polygon fill="none" stroke="black" points="412.19,-104.8 412.19,-140.4 681.16,-140.4 681.16,-104.8 412.19,-104.8"/>
<text text-anchor="start" x="419.19" y="-118.2" font-family="Arial Bold" font-size="18.00">public.test_results</text>
<text text-anchor="start" x="549.67" y="-118.2" font-family="Arial" font-size="14.00">    </text>
<text text-anchor="start" x="580.79" y="-118.2" font-family="Arial" font-size="14.00" fill="#666666">[BASE TABLE]</text>
<polygon fill="none" stroke="black" points="412.19,-74 412.19,-104.8 681.16,-104.8 681.16,-74 412.19,-74"/>
<text text-anchor="start" x="419.19" y="-86.2" font-family="Arial" font-size="14.00">id </text>
<text text-anchor="start" x="433.98" y="-86.2" font-family="Arial" font-size="14.00" fill="#666666">[bigint]</text>
<polygon fill="none" stroke="black" points="412.19,-43.2 412.19,-74 681.16,-74 681.16,-43.2 412.19,-43.2"/>
<text text-anchor="start" x="419.19" y="-55.4" font-family="Arial" font-size="14.00">order_id </text>
<text text-anchor="start" x="474.45" y="-55.4" font-family="Arial" font-size="14.00" fill="#666666">[varchar(50)]</text>
</g>
<!-- public.test_results_approvers&#45;&gt;public.test_results -->
<g id="edge2" class="edge">
<title>public.test_results_approvers:test_result_id&#45;&gt;public.test_results:id</title>
<path fill="none" stroke="black" d="M546.22,-307.43C572.55,-297.97 556.81,-248.17 535.15,-219.6 500.75,-174.22 446.57,-228.99 412.19,-183.6 386.91,-150.23 369.32,-89.4 411.19,-89.4"/>
<polygon fill="black" stroke="black" points="546.36,-307.4 535.78,-304.5 541.09,-308.23 536.81,-308.9 536.81,-308.9 536.81,-308.9 541.09,-308.23 537.17,-313.39 546.36,-307.4"/>
</g>
</g>
</svg>
