<?xml version="1.0" encoding="UTF-8" standalone="no"?>
<!DOCTYPE svg PUBLIC "-//W3C//DTD SVG 1.1//EN"
 "http://www.w3.org/Graphics/SVG/1.1/DTD/svg11.dtd">
<!-- Generated by graphviz version 12.1.2 (20240928.0832)
 -->
<!-- Title: public.order_result_services Pages: 1 -->
<svg width="1314pt" height="606pt"
 viewBox="0.00 0.00 1313.83 606.00" xmlns="http://www.w3.org/2000/svg" xmlns:xlink="http://www.w3.org/1999/xlink">
<g id="graph0" class="graph" transform="scale(1 1) rotate(0) translate(4 602)">
<title>public.order_result_services</title>
<polygon fill="white" stroke="none" points="-4,4 -4,-602 1309.83,-602 1309.83,4 -4,4"/>
<!-- public.order_result_services -->
<g id="node1" class="node">
<title>public.order_result_services</title>
<polygon fill="#efefef" stroke="none" points="46.2,-516.2 46.2,-551.8 388.12,-551.8 388.12,-516.2 46.2,-516.2"/>
<polygon fill="none" stroke="black" points="46.2,-516.2 46.2,-551.8 388.12,-551.8 388.12,-516.2 46.2,-516.2"/>
<text text-anchor="start" x="53.2" y="-529.6" font-family="Arial Bold" font-size="18.00">public.order_result_services</text>
<text text-anchor="start" x="256.63" y="-529.6" font-family="Arial" font-size="14.00">    </text>
<text text-anchor="start" x="287.75" y="-529.6" font-family="Arial" font-size="14.00" fill="#666666">[BASE TABLE]</text>
<polygon fill="none" stroke="black" points="46.2,-485.4 46.2,-516.2 388.12,-516.2 388.12,-485.4 46.2,-485.4"/>
<text text-anchor="start" x="53.2" y="-497.6" font-family="Arial" font-size="14.00">order_id </text>
<text text-anchor="start" x="108.45" y="-497.6" font-family="Arial" font-size="14.00" fill="#666666">[varchar(50)]</text>
<polygon fill="none" stroke="black" points="46.2,-454.6 46.2,-485.4 388.12,-485.4 388.12,-454.6 46.2,-454.6"/>
<text text-anchor="start" x="53.2" y="-466.8" font-family="Arial" font-size="14.00">test_result_id </text>
<text text-anchor="start" x="140.36" y="-466.8" font-family="Arial" font-size="14.00" fill="#666666">[bigint]</text>
<polygon fill="none" stroke="black" stroke-width="3" points="44.7,-453.1 44.7,-553.3 389.62,-553.3 389.62,-453.1 44.7,-453.1"/>
</g>
<!-- public.orders -->
<g id="node2" class="node">
<title>public.orders</title>
<polygon fill="#efefef" stroke="none" points="317.68,-74 317.68,-109.6 550.64,-109.6 550.64,-74 317.68,-74"/>
<polygon fill="none" stroke="black" points="317.68,-74 317.68,-109.6 550.64,-109.6 550.64,-74 317.68,-74"/>
<text text-anchor="start" x="324.68" y="-87.4" font-family="Arial Bold" font-size="18.00">public.orders</text>
<text text-anchor="start" x="419.15" y="-87.4" font-family="Arial" font-size="14.00">    </text>
<text text-anchor="start" x="450.27" y="-87.4" font-family="Arial" font-size="14.00" fill="#666666">[BASE TABLE]</text>
<polygon fill="none" stroke="black" points="317.68,-43.2 317.68,-74 550.64,-74 550.64,-43.2 317.68,-43.2"/>
<text text-anchor="start" x="324.68" y="-55.4" font-family="Arial" font-size="14.00">order_id </text>
<text text-anchor="start" x="379.93" y="-55.4" font-family="Arial" font-size="14.00" fill="#666666">[varchar(50)]</text>
</g>
<!-- public.order_result_services&#45;&gt;public.orders -->
<g id="edge1" class="edge">
<title>public.order_result_services:order_id&#45;&gt;public.orders:order_id</title>
<path fill="none" stroke="black" d="M399.14,-498.83C468.05,-466.93 220.99,-58.6 316.68,-58.6"/>
<polygon fill="black" stroke="black" points="399.26,-498.8 388.58,-496.32 394.03,-499.83 389.78,-500.67 389.78,-500.67 389.78,-500.67 394.03,-499.83 390.32,-505.15 399.26,-498.8"/>
</g>
<!-- public.test_results -->
<g id="node3" class="node">
<title>public.test_results</title>
<polygon fill="#efefef" stroke="none" points="459.67,-293.6 459.67,-329.2 728.65,-329.2 728.65,-293.6 459.67,-293.6"/>
<polygon fill="none" stroke="black" points="459.67,-293.6 459.67,-329.2 728.65,-329.2 728.65,-293.6 459.67,-293.6"/>
<text text-anchor="start" x="466.67" y="-307" font-family="Arial Bold" font-size="18.00">public.test_results</text>
<text text-anchor="start" x="597.16" y="-307" font-family="Arial" font-size="14.00">    </text>
<text text-anchor="start" x="628.27" y="-307" font-family="Arial" font-size="14.00" fill="#666666">[BASE TABLE]</text>
<polygon fill="none" stroke="black" points="459.67,-262.8 459.67,-293.6 728.65,-293.6 728.65,-262.8 459.67,-262.8"/>
<text text-anchor="start" x="466.67" y="-275" font-family="Arial" font-size="14.00">id </text>
<text text-anchor="start" x="481.46" y="-275" font-family="Arial" font-size="14.00" fill="#666666">[bigint]</text>
<polygon fill="none" stroke="black" points="459.67,-232 459.67,-262.8 728.65,-262.8 728.65,-232 459.67,-232"/>
<text text-anchor="start" x="466.67" y="-244.2" font-family="Arial" font-size="14.00">order_id </text>
<text text-anchor="start" x="521.93" y="-244.2" font-family="Arial" font-size="14.00" fill="#666666">[varchar(50)]</text>
</g>
<!-- public.order_result_services&#45;&gt;public.test_results -->
<g id="edge3" class="edge">
<title>public.order_result_services:test_result_id&#45;&gt;public.test_results:id</title>
<path fill="none" stroke="black" d="M399.28,-469.06C470.97,-454.59 371.72,-278.2 458.67,-278.2"/>
<polygon fill="black" stroke="black" points="399.41,-469.05 389.04,-465.49 394.1,-469.54 389.79,-469.94 389.79,-469.94 389.79,-469.94 394.1,-469.54 389.87,-474.45 399.41,-469.05"/>
</g>
<!-- public.test_results&#45;&gt;public.orders -->
<g id="edge2" class="edge">
<title>public.test_results:order_id&#45;&gt;public.orders:order_id</title>
<path fill="none" stroke="black" d="M448.79,-244.63C436.71,-235.62 447.28,-206.7 459.67,-188.8 484.42,-153.05 526.01,-188.63 550.64,-152.8 574.36,-118.3 593.51,-58.6 551.64,-58.6"/>
<polygon fill="black" stroke="black" points="448.72,-244.61 457.14,-251.64 453.86,-246.05 458.03,-247.22 458.03,-247.22 458.03,-247.22 453.86,-246.05 459.57,-242.98 448.72,-244.61"/>
</g>
<!-- public.test_result_audits -->
<g id="node4" class="node">
<title>public.test_result_audits</title>
<polygon fill="#efefef" stroke="none" points="495.18,-500.8 495.18,-536.4 809.14,-536.4 809.14,-500.8 495.18,-500.8"/>
<polygon fill="none" stroke="black" points="495.18,-500.8 495.18,-536.4 809.14,-536.4 809.14,-500.8 495.18,-500.8"/>
<text text-anchor="start" x="502.18" y="-514.2" font-family="Arial Bold" font-size="18.00">public.test_result_audits</text>
<text text-anchor="start" x="677.65" y="-514.2" font-family="Arial" font-size="14.00">    </text>
<text text-anchor="start" x="708.77" y="-514.2" font-family="Arial" font-size="14.00" fill="#666666">[BASE TABLE]</text>
<polygon fill="none" stroke="black" points="495.18,-470 495.18,-500.8 809.14,-500.8 809.14,-470 495.18,-470"/>
<text text-anchor="start" x="502.18" y="-482.2" font-family="Arial" font-size="14.00">test_result_id </text>
<text text-anchor="start" x="589.34" y="-482.2" font-family="Arial" font-size="14.00" fill="#666666">[bigint]</text>
</g>
<!-- public.test_result_audits&#45;&gt;public.test_results -->
<g id="edge4" class="edge">
<title>public.test_result_audits:test_result_id&#45;&gt;public.test_results:id</title>
<path fill="none" stroke="black" d="M652.95,-458.63C659.93,-415.29 711.62,-420.49 728.65,-372.4 742.62,-332.93 771.52,-278.2 729.65,-278.2"/>
<polygon fill="black" stroke="black" points="652.94,-458.7 647.7,-468.33 652.54,-464.01 652.21,-468.33 652.21,-468.33 652.21,-468.33 652.54,-464.01 656.67,-469.01 652.94,-458.7"/>
</g>
<!-- public.test_results_approvers -->
<g id="node5" class="node">
<title>public.test_results_approvers</title>
<polygon fill="#efefef" stroke="none" points="913.69,-516.2 913.69,-551.8 1262.63,-551.8 1262.63,-516.2 913.69,-516.2"/>
<polygon fill="none" stroke="black" points="913.69,-516.2 913.69,-551.8 1262.63,-551.8 1262.63,-516.2 913.69,-516.2"/>
<text text-anchor="start" x="920.69" y="-529.6" font-family="Arial Bold" font-size="18.00">public.test_results_approvers</text>
<text text-anchor="start" x="1131.14" y="-529.6" font-family="Arial" font-size="14.00">    </text>
<text text-anchor="start" x="1162.26" y="-529.6" font-family="Arial" font-size="14.00" fill="#666666">[BASE TABLE]</text>
<polygon fill="none" stroke="black" points="913.69,-485.4 913.69,-516.2 1262.63,-516.2 1262.63,-485.4 913.69,-485.4"/>
<text text-anchor="start" x="920.69" y="-497.6" font-family="Arial" font-size="14.00">test_result_id </text>
<text text-anchor="start" x="1007.85" y="-497.6" font-family="Arial" font-size="14.00" fill="#666666">[bigint]</text>
<polygon fill="none" stroke="black" points="913.69,-454.6 913.69,-485.4 1262.63,-485.4 1262.63,-454.6 913.69,-454.6"/>
<text text-anchor="start" x="920.69" y="-466.8" font-family="Arial" font-size="14.00">approver_employee_code </text>
<text text-anchor="start" x="1086.47" y="-466.8" font-family="Arial" font-size="14.00" fill="#666666">[varchar(255)]</text>
</g>
<!-- public.test_results_approvers&#45;&gt;public.test_results -->
<g id="edge5" class="edge">
<title>public.test_results_approvers:test_result_id&#45;&gt;public.test_results:id</title>
<path fill="none" stroke="black" d="M902.48,-499.73C869.24,-491.9 887.27,-442.77 861.16,-408.4 811.41,-342.9 811.9,-278.2 729.65,-278.2"/>
<polygon fill="black" stroke="black" points="902.41,-499.72 911.89,-505.24 907.72,-500.28 912.02,-500.73 912.02,-500.73 912.02,-500.73 907.72,-500.28 912.83,-496.29 902.41,-499.72"/>
</g>
</g>
</svg>
