<?xml version="1.0" encoding="UTF-8" standalone="no"?>
<!DOCTYPE svg PUBLIC "-//W3C//DTD SVG 1.1//EN"
 "http://www.w3.org/Graphics/SVG/1.1/DTD/svg11.dtd">
<!-- Generated by graphviz version 12.1.2 (20240928.0832)
 -->
<!-- Title: public.orders Pages: 1 -->
<svg width="1308pt" height="606pt"
 viewBox="0.00 0.00 1308.34 606.00" xmlns="http://www.w3.org/2000/svg" xmlns:xlink="http://www.w3.org/1999/xlink">
<g id="graph0" class="graph" transform="scale(1 1) rotate(0) translate(4 602)">
<title>public.orders</title>
<polygon fill="white" stroke="none" points="-4,4 -4,-602 1304.34,-602 1304.34,4 -4,4"/>
<!-- public.orders -->
<g id="node1" class="node">
<title>public.orders</title>
<polygon fill="#efefef" stroke="none" points="744.7,-77 744.7,-112.6 977.66,-112.6 977.66,-77 744.7,-77"/>
<polygon fill="none" stroke="black" points="744.7,-77 744.7,-112.6 977.66,-112.6 977.66,-77 744.7,-77"/>
<text text-anchor="start" x="751.7" y="-90.4" font-family="Arial Bold" font-size="18.00">public.orders</text>
<text text-anchor="start" x="846.17" y="-90.4" font-family="Arial" font-size="14.00">    </text>
<text text-anchor="start" x="877.29" y="-90.4" font-family="Arial" font-size="14.00" fill="#666666">[BASE TABLE]</text>
<polygon fill="none" stroke="black" points="744.7,-46.2 744.7,-77 977.66,-77 977.66,-46.2 744.7,-46.2"/>
<text text-anchor="start" x="751.7" y="-58.4" font-family="Arial" font-size="14.00">order_id </text>
<text text-anchor="start" x="806.95" y="-58.4" font-family="Arial" font-size="14.00" fill="#666666">[varchar(50)]</text>
<polygon fill="none" stroke="black" stroke-width="3" points="743.2,-44.7 743.2,-114.1 979.16,-114.1 979.16,-44.7 743.2,-44.7"/>
</g>
<!-- public.test_results -->
<g id="node2" class="node">
<title>public.test_results</title>
<polygon fill="#efefef" stroke="none" points="623.7,-299.6 623.7,-335.2 892.67,-335.2 892.67,-299.6 623.7,-299.6"/>
<polygon fill="none" stroke="black" points="623.7,-299.6 623.7,-335.2 892.67,-335.2 892.67,-299.6 623.7,-299.6"/>
<text text-anchor="start" x="630.7" y="-313" font-family="Arial Bold" font-size="18.00">public.test_results</text>
<text text-anchor="start" x="761.18" y="-313" font-family="Arial" font-size="14.00">    </text>
<text text-anchor="start" x="792.3" y="-313" font-family="Arial" font-size="14.00" fill="#666666">[BASE TABLE]</text>
<polygon fill="none" stroke="black" points="623.7,-268.8 623.7,-299.6 892.67,-299.6 892.67,-268.8 623.7,-268.8"/>
<text text-anchor="start" x="630.7" y="-281" font-family="Arial" font-size="14.00">id </text>
<text text-anchor="start" x="645.48" y="-281" font-family="Arial" font-size="14.00" fill="#666666">[bigint]</text>
<polygon fill="none" stroke="black" points="623.7,-238 623.7,-268.8 892.67,-268.8 892.67,-238 623.7,-238"/>
<text text-anchor="start" x="630.7" y="-250.2" font-family="Arial" font-size="14.00">order_id </text>
<text text-anchor="start" x="685.95" y="-250.2" font-family="Arial" font-size="14.00" fill="#666666">[varchar(50)]</text>
</g>
<!-- public.test_results&#45;&gt;public.orders -->
<g id="edge1" class="edge">
<title>public.test_results:order_id&#45;&gt;public.orders:order_id</title>
<path fill="none" stroke="black" d="M903.65,-250.56C916.03,-241.33 906.27,-211.81 892.67,-194.8 850.39,-141.94 786.79,-211.8 744.7,-158.8 717.83,-124.97 700.5,-61.6 743.7,-61.6"/>
<polygon fill="black" stroke="black" points="903.61,-250.57 892.76,-248.98 898.48,-252.03 894.31,-253.22 894.31,-253.22 894.31,-253.22 898.48,-252.03 895.22,-257.64 903.61,-250.57"/>
</g>
<!-- public.test_result_audits -->
<g id="node3" class="node">
<title>public.test_result_audits</title>
<polygon fill="#efefef" stroke="none" points="43.2,-503.8 43.2,-539.4 357.16,-539.4 357.16,-503.8 43.2,-503.8"/>
<polygon fill="none" stroke="black" points="43.2,-503.8 43.2,-539.4 357.16,-539.4 357.16,-503.8 43.2,-503.8"/>
<text text-anchor="start" x="50.2" y="-517.2" font-family="Arial Bold" font-size="18.00">public.test_result_audits</text>
<text text-anchor="start" x="225.67" y="-517.2" font-family="Arial" font-size="14.00">    </text>
<text text-anchor="start" x="256.79" y="-517.2" font-family="Arial" font-size="14.00" fill="#666666">[BASE TABLE]</text>
<polygon fill="none" stroke="black" points="43.2,-473 43.2,-503.8 357.16,-503.8 357.16,-473 43.2,-473"/>
<text text-anchor="start" x="50.2" y="-485.2" font-family="Arial" font-size="14.00">test_result_id </text>
<text text-anchor="start" x="137.36" y="-485.2" font-family="Arial" font-size="14.00" fill="#666666">[bigint]</text>
</g>
<!-- public.test_result_audits&#45;&gt;public.test_results -->
<g id="edge2" class="edge">
<title>public.test_result_audits:test_result_id&#45;&gt;public.test_results:id</title>
<path fill="none" stroke="black" d="M368.31,-487.13C395.05,-479.49 382.99,-439.17 409.18,-414.4 489.94,-338.04 511.55,-284.2 622.7,-284.2"/>
<polygon fill="black" stroke="black" points="368.42,-487.12 357.94,-483.89 363.12,-487.78 358.83,-488.32 358.83,-488.32 358.83,-488.32 363.12,-487.78 359.05,-492.82 368.42,-487.12"/>
</g>
<!-- public.test_results_approvers -->
<g id="node4" class="node">
<title>public.test_results_approvers</title>
<polygon fill="#efefef" stroke="none" points="461.71,-519.2 461.71,-554.8 810.65,-554.8 810.65,-519.2 461.71,-519.2"/>
<polygon fill="none" stroke="black" points="461.71,-519.2 461.71,-554.8 810.65,-554.8 810.65,-519.2 461.71,-519.2"/>
<text text-anchor="start" x="468.71" y="-532.6" font-family="Arial Bold" font-size="18.00">public.test_results_approvers</text>
<text text-anchor="start" x="679.16" y="-532.6" font-family="Arial" font-size="14.00">    </text>
<text text-anchor="start" x="710.28" y="-532.6" font-family="Arial" font-size="14.00" fill="#666666">[BASE TABLE]</text>
<polygon fill="none" stroke="black" points="461.71,-488.4 461.71,-519.2 810.65,-519.2 810.65,-488.4 461.71,-488.4"/>
<text text-anchor="start" x="468.71" y="-500.6" font-family="Arial" font-size="14.00">test_result_id </text>
<text text-anchor="start" x="555.87" y="-500.6" font-family="Arial" font-size="14.00" fill="#666666">[bigint]</text>
<polygon fill="none" stroke="black" points="461.71,-457.6 461.71,-488.4 810.65,-488.4 810.65,-457.6 461.71,-457.6"/>
<text text-anchor="start" x="468.71" y="-469.8" font-family="Arial" font-size="14.00">approver_employee_code </text>
<text text-anchor="start" x="634.49" y="-469.8" font-family="Arial" font-size="14.00" fill="#666666">[varchar(255)]</text>
</g>
<!-- public.test_results_approvers&#45;&gt;public.test_results -->
<g id="edge3" class="edge">
<title>public.test_results_approvers:test_result_id&#45;&gt;public.test_results:id</title>
<path fill="none" stroke="black" d="M821.76,-502.2C848.31,-492.57 833.64,-441.92 810.65,-414.4 756.41,-349.46 677.92,-443.36 623.7,-378.4 596.86,-346.26 580.83,-284.2 622.7,-284.2"/>
<polygon fill="black" stroke="black" points="821.86,-502.18 811.28,-499.3 816.59,-503.02 812.31,-503.7 812.31,-503.7 812.31,-503.7 816.59,-503.02 812.69,-508.19 821.86,-502.18"/>
</g>
<!-- public.order_result_services -->
<g id="node5" class="node">
<title>public.order_result_services</title>
<polygon fill="#efefef" stroke="none" points="915.22,-519.2 915.22,-554.8 1257.14,-554.8 1257.14,-519.2 915.22,-519.2"/>
<polygon fill="none" stroke="black" points="915.22,-519.2 915.22,-554.8 1257.14,-554.8 1257.14,-519.2 915.22,-519.2"/>
<text text-anchor="start" x="922.22" y="-532.6" font-family="Arial Bold" font-size="18.00">public.order_result_services</text>
<text text-anchor="start" x="1125.65" y="-532.6" font-family="Arial" font-size="14.00">    </text>
<text text-anchor="start" x="1156.77" y="-532.6" font-family="Arial" font-size="14.00" fill="#666666">[BASE TABLE]</text>
<polygon fill="none" stroke="black" points="915.22,-488.4 915.22,-519.2 1257.14,-519.2 1257.14,-488.4 915.22,-488.4"/>
<text text-anchor="start" x="922.22" y="-500.6" font-family="Arial" font-size="14.00">order_id </text>
<text text-anchor="start" x="977.48" y="-500.6" font-family="Arial" font-size="14.00" fill="#666666">[varchar(50)]</text>
<polygon fill="none" stroke="black" points="915.22,-457.6 915.22,-488.4 1257.14,-488.4 1257.14,-457.6 915.22,-457.6"/>
<text text-anchor="start" x="922.22" y="-469.8" font-family="Arial" font-size="14.00">test_result_id </text>
<text text-anchor="start" x="1009.38" y="-469.8" font-family="Arial" font-size="14.00" fill="#666666">[bigint]</text>
</g>
<!-- public.order_result_services&#45;&gt;public.orders -->
<g id="edge5" class="edge">
<title>public.order_result_services:order_id&#45;&gt;public.orders:order_id</title>
<path fill="none" stroke="black" d="M904.1,-502.26C879.83,-493.37 902.89,-447.9 915.22,-414.4 922.41,-394.86 936.68,-397.4 945.18,-378.4 985.45,-288.33 969.92,-257.16 977.66,-158.8 981.05,-115.73 1021.87,-61.6 978.66,-61.6"/>
<polygon fill="black" stroke="black" points="904,-502.24 913.21,-508.2 909.28,-503.05 913.56,-503.7 913.56,-503.7 913.56,-503.7 909.28,-503.05 914.57,-499.3 904,-502.24"/>
</g>
<!-- public.order_result_services&#45;&gt;public.test_results -->
<g id="edge4" class="edge">
<title>public.order_result_services:test_result_id&#45;&gt;public.test_results:id</title>
<path fill="none" stroke="black" d="M904.21,-471.89C842.66,-456.42 974.28,-284.2 893.67,-284.2"/>
<polygon fill="black" stroke="black" points="903.95,-471.86 913.39,-477.44 909.25,-472.45 913.56,-472.93 913.56,-472.93 913.56,-472.93 909.25,-472.45 914.38,-468.49 903.95,-471.86"/>
</g>
</g>
</svg>
